<svg width="340" height="168" viewBox="0 0 340 168" fill="none" xmlns="http://www.w3.org/2000/svg">
<g clip-path="url(#clip0_2669_11892)">
<rect width="340" height="168" fill="#4E13AF"/>
<g filter="url(#filter0_f_2669_11892)">
<circle cx="170" cy="86" r="61" fill="#8448E4"/>
</g>
<path d="M376 17C376 60.6305 340.407 96 296.5 96C252.593 96 217 60.6305 217 17C217 -26.6305 252.593 -62 296.5 -62C340.407 -62 376 -26.6305 376 17Z" fill="#B98EFD"/>
<path d="M186 181C186 257.768 123.32 320 46 320C-31.3199 320 -94 257.768 -94 181C-94 104.232 -31.3199 42 46 42C123.32 42 186 104.232 186 181Z" fill="#B98EFD"/>
<g clip-path="url(#clip1_2669_11892)">
<path d="M54.4537 102.681C52.9923 103.915 50.0335 106.234 48.8517 107.219L51.8444 144.549L21.0383 130.819L15.4364 135.357C14.6921 138.299 14.2952 141.38 14.2952 144.551C14.2952 165.233 31.1078 182 51.8467 182C72.5855 182 89.3981 165.233 89.3981 144.551C89.3981 123.869 75.1925 102.681 54.4537 102.681Z" fill="#C8720E"/>
<path d="M42.4154 99.5386C26.1959 100.814 12.8744 112.369 9 127.674L45.4103 136.868L51.0122 132.33L42.4154 99.5386Z" fill="#C61D18"/>
<path d="M57.4463 102.563C56.4382 102.563 55.4414 102.604 54.4537 102.683L57.4463 140.012L21.0383 130.818C20.2941 133.76 19.8972 136.841 19.8972 140.012C19.8972 160.695 36.7097 177.461 57.4486 177.461C78.1875 177.461 95 160.695 95 140.012C95 119.33 78.1874 102.563 57.4463 102.563Z" fill="#FFAD0F"/>
<path d="M48.0173 95C31.7956 96.2752 18.4741 107.831 14.6019 123.136L51.0122 132.33L48.0173 95Z" fill="#E62728"/>
</g>
<path d="M177 110.172L230.601 91C230.601 91 234.672 97.1573 237.839 99.0206C244.491 102.933 274.047 112.742 285.571 119.757C308.068 133.451 329 153.404 329 153.404L297.895 169.251L252.51 168.077C252.51 168.077 237.642 147.341 225.317 138.732C208.523 127.004 188.392 124.462 185.017 121.908C177.783 116.432 177 110.172 177 110.172Z" fill="#BAF155"/>
<path d="M280.487 121.127C270.238 115.041 244.5 105.817 238.232 103.129C234.123 101.369 230.015 94.7173 230.015 94.7173L183.455 111.933C183.455 111.933 183.064 116.432 192.74 121.14C196.094 122.772 213.644 125.561 228.579 135.735C239.539 143.202 258.38 166.708 258.38 166.708L292.028 167.49L322.546 152.232C322.546 152.232 300.494 133.008 280.487 121.127ZM287.919 165.144L263.075 165.73C263.075 165.73 245.864 144.636 234.905 137.168C219.969 126.993 205.481 121.954 201.845 121.127C188.933 118.193 187.759 113.107 187.759 113.107L229.232 98.2396C229.232 98.2396 234.318 105.086 244.687 108.803C253.189 111.852 270.626 117.814 281.269 124.65C302.593 138.344 316.286 151.451 316.286 151.451L287.919 165.144Z" fill="#53B70C"/>
<path d="M252.511 168.078C252.511 168.078 261.901 165.535 265.814 163.187C269.726 160.839 280.095 154.58 280.095 154.58C280.095 154.58 285.153 161.693 287.921 163.578C292.224 166.513 297.898 169.251 297.898 169.251L252.511 168.078Z" fill="#A8BC61"/>
<path d="M259.461 168.168C259.461 168.168 263.981 167.516 269.305 164.903C274.773 162.22 279.164 158.739 279.164 158.739C279.164 158.739 281.008 162.894 283.971 164.954C288.114 167.833 293.766 169.122 293.766 169.122L285.679 168.872C285.679 168.872 282.971 167.901 281.459 166.712C280.052 165.608 278.245 163.196 278.245 163.196C278.245 163.196 274.554 165.435 272.903 166.305C269.555 168.069 267.546 168.471 267.546 168.471L259.461 168.168Z" fill="#6BA335"/>
<path d="M270.314 117.606L265.423 115.258C259.359 112.91 249.577 112.518 239.21 118.192C231.114 122.623 223.56 128.365 230.406 135.408C238.409 143.641 248.344 144.241 260.142 138.342C274.618 131.104 277.356 119.953 270.314 117.606Z" fill="#53B70C"/>
<path d="M265.513 120.291L267.622 119.183L264.244 117.206L261.902 118.564C260.074 117.934 257.941 117.267 256.536 117.199C252.492 117.004 243.882 119.722 245.86 123.475C247.568 126.716 255.202 129.175 248.914 131.52C245.904 132.643 240.618 130.105 240.647 127.744C240.667 125.977 242.158 124.958 242.158 124.958L239.652 122.571C239.652 122.571 232.274 126.971 237.839 132.524C237.844 132.529 237.85 132.535 237.856 132.54L235.402 133.963L238.544 135.891L240.922 134.643C244.86 136.517 249.852 137.344 254.516 135.199C259.163 133.061 258.577 128.953 255.274 126.934C252.792 125.416 250.201 122.934 252.495 121.588C254.79 120.243 258.808 120.018 261.023 121.729C264.363 124.309 261.457 126.049 261.457 126.049L264.949 128.874C264.949 128.874 268.904 125.475 267.638 122.558C267.275 121.72 266.505 120.958 265.513 120.291Z" fill="#BAF155"/>
<path d="M288.403 146.06C289.474 148.065 288.287 150.788 285.752 152.143C283.217 153.5 280.292 152.973 279.221 150.969C278.15 148.965 279.336 146.241 281.871 144.886C284.408 143.53 287.332 144.056 288.403 146.06Z" fill="#53B70C"/>
<path d="M227.15 110.597C227.786 112.062 226.518 114.022 224.317 114.976C222.118 115.93 219.819 115.515 219.185 114.049C218.55 112.584 219.817 110.624 222.018 109.67C224.217 108.718 226.515 109.133 227.15 110.597Z" fill="#53B70C"/>
<g clip-path="url(#clip2_2669_11892)">
<g clip-path="url(#clip3_2669_11892)">
<path d="M238 65.9789C238 65.9789 244.464 56.6925 256.047 51.1144C265.445 46.5894 293.746 36.5263 301.085 32.6379C314.5 25.5303 323.288 16 323.288 16L360 38.4324C360 38.4324 352.522 47.5587 342.458 54.874C332.266 62.2831 305.136 66.0464 291.729 76.7898C283.049 83.7449 273.102 101.999 273.102 101.999L238 65.9789Z" fill="#BAF155"/>
<path d="M271.697 97.0759L242.48 65.9212L242.902 65.2183C243.084 64.9144 247.534 57.6942 262.161 50.9129C266.737 48.7905 273.372 46.1103 280.397 43.2724C289.663 39.5291 299.243 35.6595 304.465 32.903C311.89 28.9845 322.923 19.2717 323.033 19.1741L323.635 18.6426L357.076 38.7499L356.285 39.7217C356.211 39.813 354.424 41.9942 350.962 45.1034C347.782 47.9588 342.522 52.1699 335.522 56.0082C329.285 59.4276 322.662 61.3862 315.65 63.4586C305.844 66.3577 295.702 69.3556 286.78 76.7134C280.076 82.2415 272.506 95.6401 272.43 95.7752L271.697 97.0759ZM245.244 65.6773L271.264 93.4226C273.373 89.8457 279.556 79.8376 285.383 75.0337C294.651 67.3933 305.01 64.3303 315.027 61.3687C321.923 59.3301 328.436 57.4052 334.466 54.0984C344.949 48.3502 351.537 41.7166 353.752 39.2952L323.877 21.3316C321.422 23.4577 312.211 31.2783 305.488 34.8265C300.168 37.6343 290.535 41.5265 281.219 45.2898C274.22 48.1176 267.61 50.7878 263.082 52.8865C255.793 56.2659 251.202 59.7453 248.635 62.0691C246.872 63.665 245.797 64.9482 245.244 65.6773Z" fill="#53B70C"/>
<path d="M286.819 41.8268C282.188 44.0893 279.168 49.7812 285.619 57.3579C292.072 64.9345 304.396 66.4841 309.789 64.6206C315.182 62.7571 316.74 53.098 311.483 47.8689C306.225 42.6422 297.326 36.6952 286.819 41.8268Z" fill="#53B70C"/>
<path d="M272.897 65.6372C274.023 67.0517 274.119 68.8415 273.113 69.6369C272.106 70.4311 270.379 69.9296 269.254 68.515C268.129 67.1005 268.032 65.3108 269.038 64.5153C270.043 63.7211 271.771 64.2239 272.897 65.6372Z" fill="#53B70C"/>
<path d="M330.925 35.4445C332.251 36.6739 332.616 38.4299 331.741 39.3666C330.866 40.3034 329.082 40.0645 327.756 38.8351C326.43 37.6057 326.064 35.8497 326.939 34.9129C327.813 33.9762 329.598 34.215 330.925 35.4445Z" fill="#53B70C"/>
<path d="M305.048 60.5631L307.695 59.325L306.398 57.9992C310.073 56.0494 310.193 53.2866 308.105 50.9854C305.3 47.8949 300.605 49.013 298.767 49.7884C296.929 50.5639 295.265 51.0554 294.03 50.3087C293.01 49.6921 293.667 47.8799 295.236 46.9506C297.549 45.5811 298.36 46.6367 298.36 46.6367L301.339 45.4573C301.339 45.4573 298.336 42.6195 294.474 44.4755L293.229 43.5112L291.335 44.463L292.438 45.5061C290.155 46.9982 289.866 50.1687 290.909 51.6032C293.319 54.9175 297.559 53.6168 299.198 52.6888C301.157 51.5794 302.973 51.3105 303.768 51.9671C306.276 54.0408 304.97 55.2702 302.823 56.3321C299.929 57.7629 298.684 55.9619 298.684 55.9619L294.506 58.0643C294.506 58.0643 295.914 62.0027 303.93 59.1924L305.048 60.5631Z" fill="#BAF155"/>
</g>
</g>
<g clip-path="url(#clip4_2669_11892)">
<path d="M328.723 125C326.856 125 325.161 124.342 323.857 122.291C322.567 120.254 322.524 118.01 323.237 115.873C322.182 115.837 321.164 115.666 320.23 115.316C317.651 114.358 314.78 111.728 315.72 104.667C316.497 98.8132 315.699 94.232 313.469 91.7734C312.115 90.2797 310.22 89.5579 307.848 89.6508C307.392 89.6651 307.014 89.3149 307 88.8575C306.986 88.4072 307.335 88.0213 307.791 87.9998C310.669 87.9141 312.985 88.8003 314.68 90.6656C317.238 93.4959 318.186 98.5416 317.345 104.881C316.704 109.691 317.872 112.686 320.8 113.772C321.755 114.129 322.831 114.258 323.949 114.215C324.918 112.371 326.407 110.677 328.053 109.369C330.967 107.068 333.739 106.503 335.114 107.94C335.463 108.297 336.168 109.305 335.185 110.813C333.76 113.007 329.328 115.359 325.039 115.802C324.263 117.638 324.113 119.625 325.232 121.405C326.956 124.128 329.514 123.542 333.546 122.363C337.393 121.24 341.747 119.961 345.687 123.12C346.043 123.406 346.1 123.921 345.815 124.278C345.53 124.635 345.017 124.692 344.661 124.407C341.39 121.784 337.636 122.884 334.002 123.942C332.214 124.464 330.39 125 328.709 125H328.723ZM333.09 108.798C332.1 108.798 330.582 109.484 329.072 110.67C328.025 111.492 326.913 112.65 326.037 113.972C329.499 113.293 332.862 111.385 333.817 109.92C334.187 109.348 334.016 109.169 333.945 109.091C333.753 108.89 333.461 108.798 333.09 108.798Z" fill="white"/>
</g>
<g clip-path="url(#clip5_2669_11892)">
<path d="M255.04 63H84V105.75H255.04V63Z" fill="#182AC7"/>
<path d="M103.36 72.6401C107.8 72.6401 110.37 75.2101 110.37 78.6701C110.37 80.9901 108.91 82.8901 107.07 83.4901C109.1 83.9701 111.07 85.8401 111.07 88.7601C111.07 92.4401 108.28 95.1401 104.02 95.1401H94.94V72.6401H103.36ZM102.57 81.6601C104.32 81.6601 105.46 80.7401 105.46 79.2201C105.46 77.7601 104.48 76.8101 102.51 76.8101H99.84V81.6701H102.57V81.6601ZM102.98 91.0501C104.92 91.0501 106.09 90.0301 106.09 88.4201C106.09 86.8701 104.95 85.7901 102.98 85.7901H99.84V91.0601H102.98V91.0501Z" fill="white"/>
<path d="M114.5 87.0201V72.6401H119.51V86.6001C119.51 89.3301 121.03 90.6901 123.41 90.6901C125.79 90.6901 127.31 89.3201 127.31 86.6001V72.6401H132.32V87.0201C132.32 92.6701 128.35 95.6501 123.4 95.6501C118.45 95.6501 114.5 92.6701 114.5 87.0201Z" fill="white"/>
<path d="M148.18 79.4302C148.02 78.3802 147.16 76.6102 144.43 76.6102C142.56 76.6102 141.35 77.7802 141.35 79.0202C141.35 80.1002 142.02 80.8902 143.57 81.1802L146.58 81.7502C150.87 82.5402 153.09 85.3002 153.09 88.5102C153.09 92.0302 150.14 95.6202 144.77 95.6202C138.55 95.6202 135.88 91.5902 135.57 88.4102L140.17 87.3002C140.36 89.3602 141.76 91.1702 144.84 91.1702C146.81 91.1702 148.01 90.2202 148.01 88.8202C148.01 87.6802 147.09 86.8502 145.6 86.5702L142.53 86.0002C138.72 85.2702 136.41 82.7302 136.41 79.4002C136.41 75.1502 140.16 72.1602 144.47 72.1602C150.09 72.1602 152.21 75.5202 152.69 78.1602L148.18 79.4302Z" fill="white"/>
<path d="M156.68 95.1401V72.6401H161.76V95.1401H156.68Z" fill="white"/>
<path d="M181.02 95.1401L171.75 80.3501V95.1401H166.77V72.6401H172.86L181.3 86.3201V72.6401H186.31V95.1401H181.02Z" fill="white"/>
<path d="M191.34 95.1401V72.6401H205.59V77.3701H196.35V81.6601H204.73V86.0701H196.35V90.3901H205.62V95.1501H191.34V95.1401Z" fill="white"/>
<path d="M220.98 79.4302C220.82 78.3802 219.96 76.6102 217.24 76.6102C215.37 76.6102 214.16 77.7802 214.16 79.0202C214.16 80.1002 214.83 80.8902 216.38 81.1802L219.4 81.7502C223.68 82.5402 225.91 85.3002 225.91 88.5102C225.91 92.0302 222.96 95.6202 217.59 95.6202C211.37 95.6202 208.7 91.5902 208.39 88.4102L212.99 87.3002C213.18 89.3602 214.58 91.1702 217.66 91.1702C219.63 91.1702 220.83 90.2202 220.83 88.8202C220.83 87.6802 219.91 86.8502 218.42 86.5702L215.33 86.0002C211.52 85.2702 209.2 82.7302 209.2 79.4002C209.2 75.1502 212.95 72.1602 217.26 72.1602C222.88 72.1602 225 75.5202 225.48 78.1602L220.98 79.4302Z" fill="white"/>
<path d="M240.47 79.4302C240.31 78.3802 239.45 76.6102 236.72 76.6102C234.85 76.6102 233.64 77.7802 233.64 79.0202C233.64 80.1002 234.31 80.8902 235.86 81.1802L238.87 81.7502C243.16 82.5402 245.38 85.3002 245.38 88.5102C245.38 92.0302 242.43 95.6202 237.06 95.6202C230.84 95.6202 228.17 91.5902 227.86 88.4102L232.46 87.3002C232.65 89.3602 234.05 91.1702 237.13 91.1702C239.1 91.1702 240.3 90.2202 240.3 88.8202C240.3 87.6802 239.38 86.8502 237.89 86.5702L234.82 86.0002C231.01 85.2702 228.7 82.7302 228.7 79.4002C228.7 75.1502 232.45 72.1602 236.76 72.1602C242.38 72.1602 244.5 75.5202 244.98 78.1602L240.47 79.4302Z" fill="white"/>
</g>
<path d="M199.207 151.111L154.214 152.82L162.77 142.712L113.848 133.294L178.283 135.439L167.483 144.56L199.207 151.111Z" fill="white"/>
<g clip-path="url(#clip6_2669_11892)">
<path d="M71.3449 65.4963C71.7866 64.3107 72.0091 63.2016 72.0126 62.1724C72.0126 61.1433 71.7727 60.1211 71.2857 59.1023C70.7988 58.0836 70.0685 57.0405 69.0981 55.9697C68.1278 54.9023 66.8861 53.7479 65.3732 52.5067C62.7787 50.351 60.4798 48.2475 58.4695 46.1962C56.4593 44.1448 54.8664 42.0483 53.6908 39.903C52.5118 37.7578 51.8197 35.5048 51.6075 33.144C51.3954 30.7797 51.8058 28.2138 52.8387 25.4427C53.7326 23.0402 54.9742 21.0097 56.5636 19.3477C58.153 17.6893 60.0137 16.4167 62.1422 15.5371C64.2742 14.6574 66.6114 14.1672 69.1607 14.0698C71.71 13.9725 74.402 14.3063 77.2365 15.0712L80.6101 6L87.9138 8.71892L84.488 17.9187C86.9782 19.233 89.0928 20.808 90.8352 22.6473C92.5742 24.4866 93.8819 26.517 94.7514 28.7388C95.6209 30.964 96.0348 33.3595 95.9965 35.9359C95.9548 38.5123 95.4087 41.2138 94.3549 44.037L81.1596 39.1277C82.4221 35.7377 82.6134 32.918 81.7335 30.6754C80.8536 28.4328 79.1494 26.8404 76.6244 25.9016C75.2541 25.3905 74.0055 25.1437 72.8717 25.1576C71.7413 25.1715 70.7293 25.3905 69.8459 25.8147C68.959 26.2424 68.1938 26.8508 67.5539 27.6401C66.9105 28.4293 66.3958 29.3507 66.0062 30.3938C65.6167 31.4403 65.415 32.4416 65.4045 33.4047C65.3906 34.3678 65.6236 35.3448 66.1036 36.3462C66.5801 37.344 67.3174 38.3906 68.3121 39.4858C69.3068 40.581 70.5936 41.8084 72.1657 43.1643C74.708 45.3652 76.9722 47.4965 78.9616 49.5548C80.9475 51.6131 82.5299 53.7236 83.702 55.8793C84.8741 58.0384 85.5662 60.2984 85.7748 62.6627C85.9835 65.0269 85.5801 67.579 84.561 70.3222C83.6359 72.8082 82.3699 74.8804 80.7666 76.5354C79.1633 78.1904 77.2991 79.4455 75.181 80.2974C73.063 81.1492 70.7188 81.5977 68.1556 81.6429C65.5923 81.6846 62.8935 81.3265 60.0589 80.5616L56.9184 89L49.6599 86.2985L52.7866 77.9053C50.3555 76.7092 48.1192 75.249 46.0741 73.5244C44.0291 71.7964 42.3945 69.7972 41.1633 67.5199C39.9321 65.2425 39.2226 62.687 39.0313 59.8464C38.84 57.0093 39.3756 53.894 40.6381 50.5005L53.8334 55.4099C53.0857 57.4161 52.7448 59.1962 52.8074 60.7469C52.87 62.2976 53.2248 63.6536 53.8682 64.8114C54.5116 65.9692 55.3741 66.9323 56.4558 67.7041C57.5374 68.476 58.7025 69.0949 59.9511 69.5608C61.3806 70.0927 62.7057 70.3778 63.9229 70.4126C65.1402 70.4474 66.2358 70.277 67.2096 69.898C68.1834 69.5191 69.0181 68.9523 69.7137 68.1978C70.4128 67.4434 70.9553 66.5429 71.3449 65.4963Z" fill="#FFA412"/>
</g>
<g clip-path="url(#clip7_2669_11892)">
<path d="M65.3449 66.4963C65.7866 65.3107 66.0091 64.2016 66.0126 63.1724C66.0126 62.1433 65.7727 61.1211 65.2857 60.1023C64.7988 59.0836 64.0685 58.0405 63.0981 56.9697C62.1278 55.9023 60.8861 54.7479 59.3732 53.5067C56.7787 51.351 54.4798 49.2475 52.4695 47.1962C50.4593 45.1448 48.8664 43.0483 47.6908 40.903C46.5118 38.7578 45.8197 36.5048 45.6075 34.144C45.3954 31.7797 45.8058 29.2138 46.8387 26.4427C47.7326 24.0402 48.9742 22.0097 50.5636 20.3477C52.153 18.6893 54.0137 17.4167 56.1422 16.5371C58.2742 15.6574 60.6114 15.1672 63.1607 15.0698C65.71 14.9725 68.402 15.3063 71.2365 16.0712L74.6101 7L81.9138 9.71892L78.488 18.9187C80.9782 20.233 83.0928 21.808 84.8352 23.6473C86.5742 25.4866 87.8819 27.517 88.7514 29.7388C89.6209 31.964 90.0348 34.3595 89.9965 36.9359C89.9548 39.5123 89.4087 42.2138 88.3549 45.037L75.1596 40.1277C76.4221 36.7377 76.6134 33.918 75.7335 31.6754C74.8536 29.4328 73.1494 27.8404 70.6244 26.9016C69.2541 26.3905 68.0055 26.1437 66.8717 26.1576C65.7413 26.1715 64.7293 26.3905 63.8459 26.8147C62.959 27.2424 62.1938 27.8508 61.5539 28.6401C60.9105 29.4293 60.3958 30.3507 60.0062 31.3938C59.6167 32.4403 59.415 33.4416 59.4045 34.4047C59.3906 35.3678 59.6236 36.3448 60.1036 37.3462C60.5801 38.344 61.3174 39.3906 62.3121 40.4858C63.3068 41.581 64.5936 42.8084 66.1657 44.1643C68.708 46.3652 70.9722 48.4965 72.9616 50.5548C74.9475 52.6131 76.5299 54.7236 77.702 56.8793C78.8741 59.0384 79.5662 61.2984 79.7748 63.6627C79.9835 66.0269 79.5801 68.579 78.561 71.3222C77.6359 73.8082 76.3699 75.8804 74.7666 77.5354C73.1633 79.1904 71.2991 80.4455 69.181 81.2974C67.063 82.1492 64.7188 82.5977 62.1556 82.6429C59.5923 82.6846 56.8935 82.3265 54.0589 81.5616L50.9184 90L43.6599 87.2985L46.7866 78.9053C44.3555 77.7092 42.1192 76.249 40.0741 74.5244C38.0291 72.7964 36.3945 70.7972 35.1633 68.5199C33.9321 66.2425 33.2226 63.687 33.0313 60.8464C32.84 58.0093 33.3756 54.894 34.6381 51.5005L47.8334 56.4099C47.0857 58.4161 46.7448 60.1962 46.8074 61.7469C46.87 63.2976 47.2248 64.6536 47.8682 65.8114C48.5116 66.9692 49.3741 67.9323 50.4558 68.7041C51.5374 69.476 52.7025 70.0949 53.9511 70.5608C55.3806 71.0927 56.7057 71.3778 57.9229 71.4126C59.1402 71.4474 60.2358 71.277 61.2096 70.898C62.1834 70.5191 63.0181 69.9523 63.7137 69.1978C64.4128 68.4434 64.9553 67.5429 65.3449 66.4963Z" fill="#FFD77F"/>
</g>
<g clip-path="url(#clip8_2669_11892)">
<path d="M241.945 10L231.567 11.0653L234.803 13.7286L208.817 45.203L193.103 25.1217L175.193 45.381L168.024 34.0976L154 48.4575L158.518 53.0174L166.924 44.5338L174.572 56L193.021 34.9813L208.42 55.2906L239.755 17.8058L243 20.4752L241.945 10Z" fill="#850F0F"/>
</g>
<g clip-path="url(#clip9_2669_11892)">
<path d="M240.945 8L230.567 9.06532L233.803 11.7286L207.817 43.203L192.103 23.1217L174.193 43.381L167.024 32.0976L153 46.4575L157.518 51.0174L165.924 42.5338L173.572 54L192.021 32.9813L207.42 53.2906L238.755 15.8058L242 18.4752L240.945 8Z" fill="#E62728"/>
</g>
<path d="M18.2449 59.0106C18.0406 58.1236 19.1604 53.3803 19.003 53.2906C18.8255 53.1937 15.7745 56.8621 14.9657 57.188C13.9349 57.5977 9.92937 56.1506 10.0856 56.6853C10.2456 57.2247 13.4824 59.7772 13.3486 60.4188C13.1127 61.5238 12.2821 65.7398 12.5986 66.14C13.1081 66.2193 15.9158 63.0724 16.6441 62.2438C17.0698 61.7616 20.8957 63.1364 21.4064 62.9621C21.9164 62.796 18.5161 60.1278 18.2538 59.0035L18.2449 59.0106Z" fill="white"/>
<path d="M116.857 32.4275C116.052 32.0015 113.199 28.0506 113.028 28.1109C112.838 28.1818 113.616 32.8894 113.333 33.7142C112.968 34.7617 109.252 36.8434 109.759 37.0752C110.271 37.3072 114.32 36.5302 114.717 37.0513C115.399 37.9527 118.043 41.3399 118.553 41.3625C118.946 41.0291 118.404 36.8467 118.254 35.7538C118.168 35.1163 121.711 33.1232 121.914 32.623C122.122 32.1286 117.879 32.9536 116.857 32.4162L116.857 32.4275Z" fill="white"/>
</g>
<defs>
<filter id="filter0_f_2669_11892" x="79" y="-5" width="182" height="182" filterUnits="userSpaceOnUse" color-interpolation-filters="sRGB">
<feFlood flood-opacity="0" result="BackgroundImageFix"/>
<feBlend mode="normal" in="SourceGraphic" in2="BackgroundImageFix" result="shape"/>
<feGaussianBlur stdDeviation="15" result="effect1_foregroundBlur_2669_11892"/>
</filter>
<clipPath id="clip0_2669_11892">
<rect width="340" height="168" fill="white"/>
</clipPath>
<clipPath id="clip1_2669_11892">
<rect width="86" height="87" fill="white" transform="translate(9 95)"/>
</clipPath>
<clipPath id="clip2_2669_11892">
<rect width="119" height="94" fill="white" transform="translate(238 8)"/>
</clipPath>
<clipPath id="clip3_2669_11892">
<rect width="122" height="86" fill="white" transform="translate(238 16)"/>
</clipPath>
<clipPath id="clip4_2669_11892">
<rect width="39" height="37" fill="white" transform="translate(307 88)"/>
</clipPath>
<clipPath id="clip5_2669_11892">
<rect width="171.04" height="42.75" fill="white" transform="translate(84 63)"/>
</clipPath>
<clipPath id="clip6_2669_11892">
<rect width="57" height="83" fill="white" transform="translate(39 6)"/>
</clipPath>
<clipPath id="clip7_2669_11892">
<rect width="57" height="83" fill="white" transform="translate(33 7)"/>
</clipPath>
<clipPath id="clip8_2669_11892">
<rect width="89" height="46" fill="white" transform="translate(154 10)"/>
</clipPath>
<clipPath id="clip9_2669_11892">
<rect width="89" height="46" fill="white" transform="translate(153 8)"/>
</clipPath>
</defs>
</svg>
