<svg width="172" height="43" viewBox="0 0 172 43" fill="none" xmlns="http://www.w3.org/2000/svg">
<g clip-path="url(#clip0_3_868)">
<path d="M171.04 0H0V42.75H171.04V0Z" fill="#182AC7"/>
<path d="M19.36 9.64001C23.8 9.64001 26.37 12.21 26.37 15.67C26.37 17.99 24.91 19.89 23.07 20.49C25.1 20.97 27.07 22.84 27.07 25.76C27.07 29.44 24.28 32.14 20.02 32.14H10.94V9.64001H19.36ZM18.57 18.66C20.32 18.66 21.46 17.74 21.46 16.22C21.46 14.76 20.48 13.81 18.51 13.81H15.84V18.67H18.57V18.66ZM18.98 28.05C20.92 28.05 22.09 27.03 22.09 25.42C22.09 23.87 20.95 22.79 18.98 22.79H15.84V28.06H18.98V28.05Z" fill="white"/>
<path d="M30.5 24.02V9.64001H35.51V23.6C35.51 26.33 37.03 27.69 39.41 27.69C41.79 27.69 43.31 26.32 43.31 23.6V9.64001H48.32V24.02C48.32 29.67 44.35 32.65 39.4 32.65C34.45 32.65 30.5 29.67 30.5 24.02Z" fill="white"/>
<path d="M64.18 16.43C64.02 15.38 63.16 13.61 60.43 13.61C58.56 13.61 57.35 14.78 57.35 16.02C57.35 17.1 58.02 17.89 59.57 18.18L62.58 18.75C66.87 19.54 69.09 22.3 69.09 25.51C69.09 29.03 66.14 32.62 60.77 32.62C54.55 32.62 51.88 28.59 51.57 25.41L56.17 24.3C56.36 26.36 57.76 28.17 60.84 28.17C62.81 28.17 64.01 27.22 64.01 25.82C64.01 24.68 63.09 23.85 61.6 23.57L58.53 23C54.72 22.27 52.41 19.73 52.41 16.4C52.41 12.15 56.16 9.16 60.47 9.16C66.09 9.16 68.21 12.52 68.69 15.16L64.18 16.43Z" fill="white"/>
<path d="M72.68 32.14V9.64001H77.76V32.14H72.68Z" fill="white"/>
<path d="M97.02 32.14L87.75 17.35V32.14H82.77V9.64001H88.86L97.3 23.32V9.64001H102.31V32.14H97.02Z" fill="white"/>
<path d="M107.34 32.14V9.64001H121.59V14.37H112.35V18.66H120.73V23.07H112.35V27.39H121.62V32.15H107.34V32.14Z" fill="white"/>
<path d="M136.98 16.43C136.82 15.38 135.96 13.61 133.24 13.61C131.37 13.61 130.16 14.78 130.16 16.02C130.16 17.1 130.83 17.89 132.38 18.18L135.4 18.75C139.68 19.54 141.91 22.3 141.91 25.51C141.91 29.03 138.96 32.62 133.59 32.62C127.37 32.62 124.7 28.59 124.39 25.41L128.99 24.3C129.18 26.36 130.58 28.17 133.66 28.17C135.63 28.17 136.83 27.22 136.83 25.82C136.83 24.68 135.91 23.85 134.42 23.57L131.33 23C127.52 22.27 125.2 19.73 125.2 16.4C125.2 12.15 128.95 9.16 133.26 9.16C138.88 9.16 141 12.52 141.48 15.16L136.98 16.43Z" fill="white"/>
<path d="M156.47 16.43C156.31 15.38 155.45 13.61 152.72 13.61C150.85 13.61 149.64 14.78 149.64 16.02C149.64 17.1 150.31 17.89 151.86 18.18L154.87 18.75C159.16 19.54 161.38 22.3 161.38 25.51C161.38 29.03 158.43 32.62 153.06 32.62C146.84 32.62 144.17 28.59 143.86 25.41L148.46 24.3C148.65 26.36 150.05 28.17 153.13 28.17C155.1 28.17 156.3 27.22 156.3 25.82C156.3 24.68 155.38 23.85 153.89 23.57L150.82 23C147.01 22.27 144.7 19.73 144.7 16.4C144.7 12.15 148.45 9.16 152.76 9.16C158.38 9.16 160.5 12.52 160.98 15.16L156.47 16.43Z" fill="white"/>
</g>
<defs>
<clipPath id="clip0_3_868">
<rect width="171.04" height="42.75" fill="white"/>
</clipPath>
</defs>
</svg>
