<svg width="216" height="43" viewBox="0 0 216 43" fill="none" xmlns="http://www.w3.org/2000/svg">
<g clip-path="url(#clip0_3_727)">
<path d="M215.63 0H0V42.75H215.63V0Z" fill="#CA1616"/>
<path d="M21.3296 32.8823C28.3121 32.8823 31.2955 28.1215 32.0255 25.0112L27.233 23.6464C26.7886 25.2651 25.2334 27.8676 21.3296 27.8676C17.9653 27.8676 14.8549 25.4238 14.8549 21.2025C14.8549 16.4735 18.251 14.3152 21.2661 14.3152C25.2334 14.3152 26.6617 16.9496 27.0108 18.5047L31.7399 17.013C31.0099 13.7757 28.0264 9.4275 21.2661 9.4275C14.9819 9.4275 9.64979 14.1883 9.64979 21.2025C9.64979 28.2168 14.8549 32.8823 21.3296 32.8823ZM49.7503 32.4062V27.6455H40.4826V23.329H48.8616V18.9173H40.4826V14.6326H49.7185V9.90358H35.4679V32.4062H49.7503ZM68.6985 32.4062V27.6137H58.9865V9.90358H53.9718V32.4062H68.6985ZM86.2311 32.4062V27.6455H76.9634V23.329H85.3424V18.9173H76.9634V14.6326H86.1993V9.90358H71.9487V32.4062H86.2311ZM90.4525 9.90358V32.4062H99.5298C103.783 32.4062 106.576 29.7085 106.576 26.0268C106.576 23.1068 104.608 21.2343 102.577 20.7582C104.418 20.1552 105.878 18.2508 105.878 15.9339C105.878 12.4744 103.307 9.90358 98.8633 9.90358H90.4525ZM95.3403 18.9173V14.0613H98.0063C99.9741 14.0613 100.958 15.0135 100.958 16.4735C100.958 17.9969 99.8154 18.9173 98.0698 18.9173H95.3403ZM95.3403 28.312V23.0434H98.4824C100.45 23.0434 101.593 24.1225 101.593 25.6777C101.593 27.2963 100.418 28.312 98.4824 28.312H95.3403ZM120.864 32.4062H126.387L121.816 23.2973C124.577 22.3134 126.26 19.9965 126.26 16.9496C126.26 12.9505 123.403 9.90358 118.96 9.90358H110.041V32.4062H115.056V24.0273H116.833L120.864 32.4062ZM115.056 19.7108V14.2518H118.008C120.071 14.2518 121.181 15.2991 121.181 16.9813C121.181 18.5682 120.071 19.7108 118.008 19.7108H115.056ZM135.049 32.4062V9.90358H129.971V32.4062H135.049ZM156.964 14.6961V9.90358H138.079V14.6961H144.998V32.4062H150.013V14.6961H156.964ZM165.083 32.4062V9.90358H160.005V32.4062H165.083ZM184.236 32.4062V27.6455H174.969V23.329H183.348V18.9173H174.969V14.6326H184.205V9.90358H169.954V32.4062H184.236ZM203.946 15.4261C203.47 12.7918 201.344 9.4275 195.726 9.4275C191.41 9.4275 187.664 12.4109 187.664 16.6639C187.664 19.9965 189.981 22.5355 193.79 23.2655L196.869 23.8368C198.36 24.1225 199.281 24.9477 199.281 26.0903C199.281 27.4868 198.075 28.4389 196.107 28.4389C193.028 28.4389 191.632 26.6298 191.441 24.5668L186.839 25.6777C187.157 28.8515 189.823 32.8823 196.043 32.8823C201.407 32.8823 204.359 29.2959 204.359 25.7729C204.359 22.5673 202.137 19.806 197.853 19.0126L194.837 18.4413C193.282 18.1556 192.616 17.3622 192.616 16.283C192.616 15.0452 193.822 13.8709 195.694 13.8709C198.424 13.8709 199.281 15.6483 199.439 16.6956L203.946 15.4261Z" fill="white"/>
</g>
<defs>
<clipPath id="clip0_3_727">
<rect width="215.63" height="42.75" fill="white"/>
</clipPath>
</defs>
</svg>
