<svg width="340" height="168" viewBox="0 0 340 168" fill="none" xmlns="http://www.w3.org/2000/svg">
<g clip-path="url(#clip0_2669_11687)">
<rect width="340" height="168" fill="#662FBF"/>
<g filter="url(#filter0_f_2669_11687)">
<circle cx="170" cy="86" r="61" fill="#8448E4"/>
</g>
<circle cx="56" cy="88" r="114" fill="#B98EFD"/>
<path d="M398 88C398 150.96 346.96 202 284 202C221.04 202 170 150.96 170 88C170 25.0395 221.04 -26 284 -26C346.96 -26 398 25.0395 398 88Z" fill="#B98EFD"/>
<g clip-path="url(#clip1_2669_11687)">
<path d="M286.078 153.128L234.531 177.302L262.106 127.37L223.323 85.689L279.154 96.5098L306.728 46.5779L313.656 103.197L369.488 114.018L317.937 138.191L324.865 194.81L286.078 153.128Z" fill="white"/>
<path d="M305.912 50.7887L312.462 104.315L365.242 114.544L316.508 137.396L323.057 190.927L286.389 151.523L237.654 174.375L263.728 127.167L227.06 87.763L279.844 97.9933L305.912 50.7887Z" fill="#FD7474"/>
<path d="M265.502 107.718C265.506 107.35 265.323 106.743 264.511 106.585C263.905 106.468 263.432 106.781 263.35 107.206C263.281 107.562 263.452 107.883 263.905 108.065L264.766 108.412C265.89 108.864 266.364 109.748 266.188 110.654C265.997 111.643 264.982 112.481 263.487 112.191C261.788 111.862 261.249 110.619 261.327 109.685L262.545 109.601C262.478 110.245 262.808 110.903 263.711 111.078C264.381 111.208 264.818 110.946 264.906 110.491C264.978 110.118 264.754 109.773 264.276 109.577L263.417 109.221C262.437 108.816 261.904 108.024 262.093 107.053C262.315 105.908 263.503 105.238 264.717 105.473C266.273 105.775 266.686 106.836 266.688 107.588L265.502 107.718Z" fill="white"/>
<path d="M270.58 107.986L269.564 113.229L268.306 112.986L269.322 107.743L267.295 107.35L267.525 106.162L272.833 107.19L272.602 108.378L270.58 107.986Z" fill="white"/>
<path d="M275.981 112.948L273.38 112.444L272.563 113.811L271.245 113.555L274.951 107.601L276.398 107.881L277.594 114.786L276.237 114.523L275.981 112.948ZM274.016 111.379L275.788 111.723L275.374 109.118L274.016 111.379Z" fill="white"/>
<path d="M280.797 112.837L280.144 112.711L279.664 115.187L278.406 114.943L279.653 108.512L282.155 108.997C283.404 109.239 284.032 110.256 283.816 111.371C283.642 112.269 282.987 112.848 282.098 112.928L282.962 115.826L281.57 115.557L280.797 112.837ZM281.369 111.828C282 111.95 282.442 111.658 282.544 111.133C282.65 110.587 282.346 110.164 281.715 110.041L280.704 109.845L280.358 111.632L281.369 111.828Z" fill="white"/>
<path d="M290.476 110.466C292.222 110.804 293.53 112.385 293.127 114.463C292.727 116.531 290.923 117.509 289.177 117.17C287.439 116.834 286.136 115.254 286.536 113.185C286.939 111.108 288.743 110.13 290.476 110.466ZM289.412 115.956C290.406 116.149 291.551 115.655 291.833 114.203C292.114 112.75 291.236 111.864 290.242 111.672C289.257 111.481 288.112 111.974 287.83 113.427C287.549 114.88 288.427 115.765 289.412 115.956Z" fill="white"/>
<path d="M293.589 117.886L294.836 111.455L298.886 112.24L298.655 113.428L295.85 112.885L295.543 114.472L298.037 114.955L297.813 116.109L295.328 115.627L294.843 118.129L293.589 117.886Z" fill="white"/>
<path d="M300.902 119.303L302.149 112.872L306.198 113.657L305.968 114.845L303.163 114.302L302.856 115.889L305.349 116.372L305.126 117.526L302.641 117.044L302.156 119.546L300.902 119.303Z" fill="white"/>
<path d="M309.598 119.463L306.996 118.959L306.179 120.326L304.861 120.071L308.567 114.116L310.015 114.397L311.21 121.301L309.853 121.038L309.598 119.463ZM307.633 117.895L309.405 118.238L308.99 115.634L307.633 117.895Z" fill="white"/>
<path d="M317.948 122.607L318.822 118.097L316.103 122.249L315.061 122.047L314.082 117.219L313.216 121.69L312.023 121.458L313.269 115.027L314.916 115.346L315.943 120.365L318.723 116.084L320.422 116.414L319.176 122.845L317.948 122.607Z" fill="white"/>
<path d="M320.641 123.129L321.887 116.698L325.902 117.476L325.674 118.655L322.908 118.119L322.623 119.589L325.125 120.074L324.909 121.189L322.407 120.704L322.118 122.191L324.884 122.728L324.656 123.907L320.641 123.129V123.129Z" fill="white"/>
<path d="M287.361 146.506C281.358 145.342 277.424 139.495 278.591 133.472C279.759 127.448 285.592 123.494 291.595 124.658C297.599 125.821 301.533 131.668 300.365 137.692C299.198 143.715 293.364 147.669 287.361 146.506Z" fill="#EDE0BB"/>
<path d="M299.069 137.44C298.038 142.757 292.908 146.231 287.613 145.205C282.314 144.178 278.858 139.035 279.888 133.723C280.918 128.406 286.049 124.933 291.343 125.959C296.642 126.986 300.099 132.124 299.069 137.44Z" fill="#662FBF"/>
<path d="M294.663 136.618L293.469 135.743L293.571 135.219L295.005 134.853L294.663 136.618ZM291.959 141.246L289.302 137.298C289.257 137.231 289.189 137.191 289.115 137.176L289.111 137.175C289.029 137.16 288.953 137.181 288.89 137.227C288.89 137.227 288.886 137.226 288.885 137.231L284.946 139.9C284.817 139.988 284.783 140.166 284.869 140.299C284.956 140.429 285.133 140.463 285.266 140.376L288.648 138.085L287.924 141.818C287.894 141.974 287.995 142.125 288.15 142.155C288.306 142.185 288.456 142.083 288.486 141.927L289.212 138.18L291.493 141.57C291.58 141.699 291.757 141.733 291.89 141.647C292.024 141.56 292.046 141.375 291.959 141.246ZM291.997 134.594C290.865 134.375 290.071 133.379 290.058 132.266C289.63 133.294 288.522 133.921 287.39 133.701C287.022 133.63 286.693 133.476 286.416 133.265L286.144 134.67C286.012 135.351 286.457 136.013 287.136 136.145L291.32 136.956C291.998 137.087 292.659 136.639 292.791 135.958L293.063 134.553C292.727 134.646 292.364 134.665 291.997 134.594ZM294.187 132.571C294.373 131.613 293.746 130.681 292.791 130.496C291.836 130.311 290.907 130.941 290.721 131.899C290.535 132.858 291.162 133.789 292.117 133.974C293.072 134.159 294.001 133.534 294.187 132.571ZM289.584 131.679C289.77 130.72 289.143 129.789 288.188 129.604C287.233 129.419 286.304 130.049 286.118 131.007C285.932 131.965 286.559 132.897 287.514 133.082C288.469 133.271 289.398 132.642 289.584 131.679Z" fill="white"/>
<g clip-path="url(#clip2_2669_11687)">
<path d="M329.863 78.4222C329.659 77.5352 330.779 72.7919 330.622 72.7022C330.444 72.6053 327.393 76.2737 326.584 76.5996C325.553 77.0093 321.548 75.5623 321.704 76.0969C321.864 76.6363 325.101 79.1888 324.967 79.8305C324.731 80.9354 323.901 85.1515 324.217 85.5517C324.727 85.6309 327.534 82.484 328.263 81.6554C328.688 81.1732 332.514 82.548 333.025 82.3737C333.535 82.2076 330.135 79.5395 329.872 78.4152L329.863 78.4222Z" fill="white"/>
</g>
<path d="M250.268 131.415L227.317 136.338L230.802 130.378L204.832 129.94L238.115 125.248L233.388 130.903L250.268 131.415Z" fill="white"/>
</g>
<path d="M286.676 19.1209L287.156 20.3011C287.166 20.3648 287.166 20.4298 287.183 20.4902C287.415 21.2744 287.516 22.0753 287.533 22.8889C287.571 24.8202 287.165 26.6692 286.551 28.4703C285.157 32.5547 283.01 36.2165 280.514 39.6803C280.288 39.9915 279.979 40.1027 279.605 40.0184C277.81 39.6188 276.003 39.2751 274.226 38.7982C271.417 38.0463 268.704 37.0162 266.181 35.5109C264.741 34.6513 263.418 33.6401 262.37 32.3C262.02 31.8533 261.732 31.3579 261.417 30.8852L260.916 29.6532C260.902 29.5721 260.892 29.4893 260.87 29.4115C260.386 27.7695 260.344 26.1245 260.814 24.4879C261.401 22.4496 262.574 20.8606 264.464 19.9088C266.733 18.7669 269.015 18.9178 271.26 20.1114C271.627 20.307 271.971 20.5484 272.303 20.7559C272.476 20.1645 272.598 19.5576 272.829 18.9981C273.996 16.1689 276.072 14.5168 279.133 14.3774C281.849 14.253 284.018 15.4821 285.705 17.6216C286.072 18.0878 286.355 18.6217 286.677 19.1229L286.676 19.1209Z" fill="#FF005A"/>
<g clip-path="url(#clip3_2669_11687)">
<path d="M8 18.9824L8.72382 23.5041L30.4457 45.2117L31.1714 42.1368L27.7319 28.9306L8 18.9824Z" fill="#041C91"/>
<path d="M8 18.9826L26.8266 0.17041H35.5143L55.4276 18.9826L31.1714 42.137L8 18.9826Z" fill="#1A3EEC"/>
<path d="M70.6333 34.9009L66.2275 39.4004L63.0305 36.7103L59.7724 40.5086L62.1012 43.6132L53.0414 52.8657L50.3591 49.01L47.4619 54.2551L49.2743 56.7121L45.8329 60.2255L54.341 74.8767L86.9238 41.0507L70.6333 34.9009Z" fill="#041C91"/>
<path d="M27.9114 55.5224L25.1976 68.9081L37.3247 75.9627L43.2985 61.1302L30.6271 51.7241L27.9114 55.5224Z" fill="#1A3EEC"/>
<path d="M31.351 49.1911L44.0224 59.1392L69.1838 33.0912L57.599 23.1431L31.351 49.1911Z" fill="#1A3EEC"/>
<path d="M63.7432 17.2009L76.0629 11.2046L85.839 21.6948L71.1757 31.6448L60.8572 21.8762L63.7432 17.2009Z" fill="#1A3EEC"/>
<path d="M55.4276 18.9822L31.1714 42.1366L27.9114 55.5223L68.099 16.2681L55.4276 18.9822Z" fill="#041C91"/>
<path d="M65.3833 30.9214L69.1838 27.123L70.8147 29.8353L66.8309 33.0916L65.3833 30.9214Z" fill="#1A3EEC"/>
<path d="M37.6876 59.1396C37.869 58.9583 44.0243 52.9897 44.0243 52.9897L43.3004 58.2349C43.3004 58.2349 39.3185 62.5771 39.3185 62.3958C39.3167 62.2145 37.6876 59.1396 37.6876 59.1396Z" fill="#1A3EEC"/>
<path d="M48.3838 38.07C42.6562 43.7925 39.5536 49.9701 41.4529 51.8683C43.3522 53.7666 49.5352 50.6657 55.261 44.9433C60.9886 39.2208 64.0912 33.0432 62.1918 31.145C60.2944 29.2468 54.1114 32.3476 48.3838 38.07Z" fill="#FFFAE9"/>
<path d="M13.3648 -12H10.8101V17.6077H13.3648V-12Z" fill="#1A3EEC"/>
<path d="M46.5697 -12H44.015V17.6077H46.5697V-12Z" fill="#1A3EEC"/>
<mask id="mask0_2669_11687" style="mask-type:alpha" maskUnits="userSpaceOnUse" x="40" y="30" width="406" height="470">
<path d="M61.5939 30.1553L446 500H84.769L40.855 50.8786L61.5939 30.1553Z" fill="url(#paint0_linear_2669_11687)"/>
</mask>
<g mask="url(#mask0_2669_11687)">
<path d="M61.5939 30.1553L446 500H84.769L40.855 50.8786L61.5939 30.1553Z" fill="url(#paint1_linear_2669_11687)" fill-opacity="0.2"/>
</g>
<g clip-path="url(#clip4_2669_11687)">
<path d="M41.7277 116.059C41.4472 115.637 40.9525 115.409 40.4489 115.472L28.6108 116.92C28.1072 116.981 27.6819 117.321 27.513 117.8L25.3686 123.835L45.2685 121.401L41.7277 116.059Z" fill="#DEC2DB"/>
<path d="M31.5454 120.396L31.7445 118.962C31.8169 118.444 31.461 117.938 30.9392 117.887C30.4928 117.845 30.0947 118.122 29.9741 118.534L29.5488 119.962C29.3377 120.67 29.9228 121.362 30.6557 121.272C31.1142 121.215 31.4791 120.856 31.5454 120.396Z" fill="#8F83A8"/>
<path d="M34.5585 119.794L34.4318 118.387C34.3866 117.875 33.9251 117.502 33.4124 117.565L33.3159 117.577C32.8846 117.628 32.5498 117.978 32.5166 118.411L32.405 119.821C32.3538 120.465 32.9087 120.995 33.5511 120.917L33.6597 120.905C34.2116 120.835 34.6098 120.345 34.5585 119.794Z" fill="#8F83A8"/>
<path d="M37.466 119.2L37.0166 117.857C36.8779 117.445 36.4707 117.189 36.0394 117.24L35.9429 117.252C35.4302 117.315 35.0743 117.788 35.1527 118.297L35.3698 119.694C35.4543 120.239 35.958 120.622 36.5069 120.555L36.6155 120.543C37.2609 120.462 37.6711 119.815 37.466 119.2Z" fill="#8F83A8"/>
<path d="M39.5199 120.188C40.2528 120.098 40.6539 119.284 40.2769 118.649L39.538 117.399C39.36 117.098 39.0343 116.899 38.6844 116.92C38.0541 116.957 37.656 117.595 37.8882 118.17L38.4431 119.552C38.6151 119.983 39.0584 120.245 39.5199 120.188Z" fill="#8F83A8"/>
<path d="M81.7869 108.148L53.4722 111.611C51.8013 111.816 50.245 112.605 49.0295 113.864L44.6774 118.375C43.4649 119.634 41.9086 120.423 40.2377 120.627L25.2087 122.464C21.9152 122.868 19.611 126.138 20.0543 129.767L25.7396 176.113C26.1859 179.745 29.2141 182.362 32.5046 181.958L91.8605 174.7C95.151 174.297 97.4583 171.03 97.0119 167.398L91.3508 121.248L91.3267 121.052L90.6873 115.839C90.1021 111.063 86.1179 107.618 81.7869 108.148Z" fill="#2C2352"/>
<path d="M81.7869 108.148L53.4722 111.611C51.8013 111.816 50.245 112.605 49.0295 113.864L44.6774 118.375C43.4649 119.634 41.9086 120.423 40.2347 120.627L25.2057 122.464C21.9152 122.868 19.611 126.138 20.0543 129.767L20.2473 131.351L91.5197 122.636L91.3508 121.248L91.3267 121.052L90.6873 115.839C90.1021 111.063 86.1179 107.618 81.7869 108.148Z" fill="#DEC2DB"/>
<path d="M20.2504 131.351L25.7396 176.113C26.186 179.744 29.2141 182.361 32.5046 181.958L91.8605 174.7C95.151 174.297 97.4583 171.029 97.0119 167.398L91.5227 122.636L20.2504 131.351Z" fill="#7171E1"/>
<path d="M36.1329 174.842L30.8548 131.815L22.1957 132.875L27.4738 175.902C27.8026 178.573 29.9621 180.513 32.2905 180.227L40.9496 179.167C38.6212 179.453 36.4617 177.513 36.1329 174.842Z" fill="#2C2352"/>
<path d="M50.1516 119.07L54.5037 114.556C55.4447 113.58 56.618 112.984 57.8968 112.828L53.6834 113.343C52.4015 113.499 51.2283 114.098 50.2903 115.071L45.9381 119.585C44.4572 121.121 42.5089 122.109 40.4489 122.359L44.6623 121.844C46.7223 121.594 48.6707 120.606 50.1516 119.07Z" fill="#8F83A8"/>
<path d="M29.6333 123.681L25.4199 124.196C23.1337 124.476 21.5232 126.794 21.7735 129.405L25.9869 128.89C25.7366 126.283 27.3502 123.961 29.6333 123.681Z" fill="#8F83A8"/>
<path d="M90.2831 107.109L61.9684 110.572C60.2975 110.777 58.7412 111.566 57.5258 112.825L53.1736 117.339C51.9612 118.598 50.4049 119.387 48.734 119.591L38.9197 120.79C35.6292 121.193 33.3219 124.461 33.7683 128.093L39.4536 174.438C39.9 178.07 42.9281 180.687 46.2186 180.284L100.357 173.664C103.647 173.261 105.955 169.994 105.508 166.362L99.85 120.209L99.8259 120.013L99.1865 114.8C98.5984 110.024 94.6142 106.579 90.2831 107.109Z" fill="#7171E1"/>
<path d="M90.2831 107.109L61.9684 110.572C60.2975 110.777 58.7412 111.566 57.5258 112.825L53.1736 117.339C51.9612 118.598 50.4049 119.387 48.734 119.591L38.9197 120.79C35.6292 121.193 33.3219 124.461 33.7683 128.093L33.9614 129.677L100.019 121.6L99.85 120.212L99.8259 120.016L99.1865 114.803C98.5984 110.024 94.6142 106.579 90.2831 107.109Z" fill="#DEC2DB"/>
<path d="M35.1798 128.12L35.1557 127.921C34.8058 125.06 36.5702 122.483 39.0916 122.175L48.9059 120.977C50.8844 120.736 52.7574 119.787 54.184 118.309L58.5361 113.795C59.5314 112.762 60.777 112.126 62.1403 111.961L90.455 108.497C94.014 108.064 97.3075 110.967 97.7991 114.972L98.4626 120.384L35.1798 128.12Z" fill="#FFE9F5"/>
<path d="M92.2918 148.094C90.9135 136.868 82.4896 128.62 73.3178 129.357L73.3148 129.339L64.0857 130.469C54.6877 131.619 48.2122 141.846 49.6177 153.313C51.0232 164.781 59.7818 173.146 69.1798 171.996L78.4089 170.867L78.4059 170.849C87.4872 169.355 93.6671 159.321 92.2918 148.094Z" fill="#2C2352"/>
<path d="M80.0373 170.668C90.6537 169.369 98.1194 159.02 96.7122 147.551C95.3051 136.083 85.5581 127.838 74.9416 129.137C64.3252 130.436 56.8596 140.785 58.2667 152.254C59.6738 163.722 69.4209 171.967 80.0373 170.668Z" fill="#17132E"/>
<path d="M79.8661 169.272C89.6228 168.078 96.4681 158.439 95.1556 147.741C93.843 137.044 84.8697 129.339 75.113 130.532C65.3563 131.726 58.511 141.365 59.8235 152.063C61.136 162.761 70.1094 170.465 79.8661 169.272Z" fill="#DEC2DB"/>
<path d="M79.7146 168.041C88.7339 166.938 95.049 157.923 93.82 147.905C92.5909 137.888 84.2829 130.661 75.2637 131.765C66.2444 132.868 59.9292 141.883 61.1583 151.9C62.3874 161.918 70.6953 169.144 79.7146 168.041Z" fill="#130C17"/>
<path d="M79.5158 166.458C71.2458 167.47 63.6092 160.866 62.4872 151.739C61.3682 142.611 67.1832 134.36 75.4532 133.351C83.7232 132.339 91.3599 138.943 92.4818 148.071C93.6008 157.198 87.7858 165.45 79.5158 166.458ZM75.5497 134.131C67.7683 135.082 62.3032 142.933 63.3709 151.63C64.4386 160.327 71.6379 166.63 79.4193 165.679C87.2007 164.727 92.6658 156.876 91.5981 148.179C90.5304 139.482 83.3311 133.179 75.5497 134.131Z" fill="#8F83A8"/>
<path d="M79.1962 163.856C72.22 164.708 65.7747 159.146 64.8337 151.452C63.8897 143.761 68.7998 136.808 75.7759 135.952C82.7521 135.1 89.1974 140.665 90.1384 148.356C91.0794 156.051 86.1723 163.001 79.1962 163.856ZM75.8695 136.735C69.3789 137.527 64.8247 144.083 65.7174 151.344C66.6072 158.604 72.6121 163.868 79.1027 163.073C85.5932 162.281 90.1474 155.725 89.2547 148.465C88.3619 141.204 82.36 135.94 75.8695 136.735Z" fill="#8F83A8"/>
<path d="M78.7693 160.338C83.8832 159.713 87.4557 154.534 86.7485 148.77C86.0414 143.007 81.3225 138.842 76.2086 139.468C71.0947 140.093 67.5222 145.273 68.2293 151.036C68.9364 156.799 73.6553 160.964 78.7693 160.338Z" fill="#17132E"/>
<path d="M74.5574 139.846C70.3531 141.261 67.5964 145.923 68.2237 151.037C68.8511 156.147 72.6543 160.008 77.0758 160.369C81.7507 159.402 84.9417 154.494 84.2782 149.073C83.6146 143.656 79.3288 139.659 74.5574 139.846Z" fill="#2C2352"/>
<path d="M75.3054 142.337C73.4173 142.569 71.8128 143.641 70.7451 145.185C71.1342 145.017 71.5504 144.902 71.9847 144.848C74.7474 144.511 77.305 146.766 77.6851 149.877C78.0681 152.988 76.1318 155.795 73.3691 156.132C72.9318 156.186 72.5035 156.174 72.0842 156.105C73.4958 157.349 75.3114 158.002 77.1995 157.77C80.9786 157.309 83.6267 153.47 83.1049 149.212C82.5801 144.96 79.0815 141.873 75.3054 142.337Z" fill="black"/>
<path d="M85.0835 163.709C85.3911 166.226 83.3342 168.548 80.487 168.894C77.6399 169.244 75.0822 167.485 74.7716 164.968C74.4609 162.45 76.5209 160.128 79.3681 159.782C82.2152 159.436 84.7758 161.191 85.0835 163.709Z" fill="#DEC2DB"/>
<path d="M57.8394 157.981C57.2151 156.253 56.7627 154.407 56.5244 152.467C55.4809 143.96 58.7774 136.139 64.3843 132.197C56.1022 133.39 50.426 142.671 51.7017 153.057C51.94 155.003 52.4075 156.849 53.062 158.565L57.8394 157.981Z" fill="black"/>
<path d="M53.4119 141.171C52.7755 142.572 52.2839 144.086 51.9642 145.685L56.7024 145.107C56.9769 143.535 57.4021 142.03 57.9631 140.614L53.4119 141.171Z" fill="#8492FF"/>
<path d="M93.5676 112.078L82.5499 113.424C81.4913 113.554 80.7373 114.517 80.867 115.574L81.5064 120.793C81.6361 121.85 82.6012 122.603 83.6599 122.473L94.6775 121.127C95.7361 120.998 96.4901 120.034 96.3605 118.977L95.7211 113.758C95.5914 112.698 94.6262 111.949 93.5676 112.078Z" fill="black"/>
<path d="M83.5332 121.432C83.0506 121.492 82.6103 121.145 82.553 120.667L81.9136 115.448C81.8532 114.966 82.2001 114.526 82.6796 114.469L93.6973 113.123C94.1798 113.063 94.6202 113.409 94.6775 113.888L95.3169 119.107C95.3772 119.589 95.0304 120.028 94.5508 120.085L83.5332 121.432Z" fill="#2C2352"/>
<path d="M90.5636 114.56L81.9316 115.617L82.5318 120.498L91.1638 119.444C91.7187 119.375 92.1138 118.872 92.0445 118.318L91.6916 115.442C91.6222 114.885 91.1185 114.49 90.5636 114.56Z" fill="#17132E"/>
<path d="M85.714 114.093L82.6783 114.464L83.1056 117.946L86.1413 117.575L85.714 114.093Z" fill="#DEC2DB"/>
<path d="M88.1868 113.795L86.3486 114.02L86.7755 117.502L88.6137 117.277L88.1868 113.795Z" fill="#DEC2DB"/>
<path d="M85 115.13C84.997 114.35 89.1622 113.681 94.8022 113.48C92.2717 110.712 90.7094 108.508 91.0924 108.122C91.4755 107.737 93.6923 109.288 96.4791 111.796C96.651 106.162 97.2995 102.003 98.0806 102C98.8618 101.997 99.5313 106.156 99.7334 111.787C102.505 109.261 104.713 107.701 105.099 108.083C105.485 108.466 103.932 110.679 101.419 113.461C107.062 113.633 111.228 114.281 111.231 115.061C111.234 115.84 107.068 116.509 101.428 116.711C103.959 119.478 105.521 121.683 105.138 122.068C104.755 122.454 102.538 120.903 99.7515 118.394C99.5796 124.029 98.9311 128.187 98.15 128.19C97.3688 128.193 96.6993 124.035 96.4972 118.403C93.7254 120.93 91.5177 122.49 91.1316 122.107C90.7456 121.725 92.2988 119.511 94.8112 116.729C89.1682 116.554 85.003 115.91 85 115.13Z" fill="#FFBE3E"/>
</g>
<g clip-path="url(#clip5_2669_11687)">
<path d="M126.255 130.025L123.001 128.58L128.261 114L133.543 116.346L126.255 130.025ZM123.842 130.999C125.231 131.616 125.861 133.253 125.244 134.642C124.64 136.004 123.003 136.634 121.614 136.017C120.225 135.4 119.622 133.776 120.227 132.414C120.843 131.025 122.443 130.379 123.842 130.999Z" fill="white"/>
</g>
</g>
<g clip-path="url(#clip6_2669_11687)">
<path d="M277.63 63H62V105.75H277.63V63Z" fill="#CA1616"/>
<path d="M83.3296 95.8823C90.3121 95.8823 93.2955 91.1215 94.0255 88.0112L89.233 86.6464C88.7886 88.2651 87.2334 90.8676 83.3296 90.8676C79.9653 90.8676 76.8549 88.4238 76.8549 84.2025C76.8549 79.4735 80.251 77.3152 83.2661 77.3152C87.2334 77.3152 88.6617 79.9496 89.0108 81.5047L93.7399 80.013C93.0099 76.7757 90.0264 72.4275 83.2661 72.4275C76.9819 72.4275 71.6498 77.1883 71.6498 84.2025C71.6498 91.2168 76.8549 95.8823 83.3296 95.8823ZM111.75 95.4062V90.6455H102.483V86.329H110.862V81.9173H102.483V77.6326H111.719V72.9036H97.4679V95.4062H111.75ZM130.698 95.4062V90.6137H120.986V72.9036H115.972V95.4062H130.698ZM148.231 95.4062V90.6455H138.963V86.329H147.342V81.9173H138.963V77.6326H148.199V72.9036H133.949V95.4062H148.231ZM152.453 72.9036V95.4062H161.53C165.783 95.4062 168.576 92.7085 168.576 89.0268C168.576 86.1068 166.608 84.2343 164.577 83.7582C166.418 83.1552 167.878 81.2508 167.878 78.9339C167.878 75.4744 165.307 72.9036 160.863 72.9036H152.453ZM157.34 81.9173V77.0613H160.006C161.974 77.0613 162.958 78.0135 162.958 79.4735C162.958 80.9969 161.815 81.9173 160.07 81.9173H157.34ZM157.34 91.312V86.0434H160.482C162.45 86.0434 163.593 87.1225 163.593 88.6777C163.593 90.2963 162.418 91.312 160.482 91.312H157.34ZM182.864 95.4062H188.387L183.816 86.2973C186.577 85.3134 188.26 82.9965 188.26 79.9496C188.26 75.9505 185.403 72.9036 180.96 72.9036H172.041V95.4062H177.056V87.0273H178.833L182.864 95.4062ZM177.056 82.7108V77.2518H180.008C182.071 77.2518 183.181 78.2991 183.181 79.9813C183.181 81.5682 182.071 82.7108 180.008 82.7108H177.056ZM197.049 95.4062V72.9036H191.971V95.4062H197.049ZM218.964 77.6961V72.9036H200.079V77.6961H206.998V95.4062H212.013V77.6961H218.964ZM227.083 95.4062V72.9036H222.005V95.4062H227.083ZM246.236 95.4062V90.6455H236.969V86.329H245.348V81.9173H236.969V77.6326H246.205V72.9036H231.954V95.4062H246.236ZM265.946 78.4261C265.47 75.7918 263.344 72.4275 257.726 72.4275C253.41 72.4275 249.664 75.4109 249.664 79.6639C249.664 82.9965 251.981 85.5355 255.79 86.2655L258.869 86.8368C260.36 87.1225 261.281 87.9477 261.281 89.0903C261.281 90.4868 260.075 91.4389 258.107 91.4389C255.028 91.4389 253.632 89.6298 253.441 87.5668L248.839 88.6777C249.157 91.8515 251.823 95.8823 258.043 95.8823C263.407 95.8823 266.359 92.2959 266.359 88.7729C266.359 85.5673 264.137 82.806 259.853 82.0126L256.837 81.4413C255.282 81.1556 254.616 80.3622 254.616 79.283C254.616 78.0452 255.822 76.8709 257.694 76.8709C260.424 76.8709 261.281 78.6483 261.439 79.6956L265.946 78.4261Z" fill="white"/>
</g>
<path d="M121.496 30.4428C121.187 30.3068 120.973 29.9927 120.982 29.6384C121.047 26.6241 122.119 24.2647 124.174 22.6148C127.289 20.1218 132.628 19.4632 139.215 20.7539C144.21 21.7336 147.414 20.7122 148.732 17.7206C149.161 16.7461 149.358 15.6287 149.389 14.4621C147.512 13.3262 145.833 11.6671 144.562 9.86241C142.328 6.673 141.905 3.74446 143.485 2.39007C143.88 2.05148 144.979 1.38016 146.493 2.50266C148.701 4.13422 150.9 8.91105 151.109 13.4218C152.988 14.3473 155.056 14.6398 156.984 13.5767C159.935 11.9558 159.473 9.24604 158.48 4.95148C157.534 0.865061 156.46 -3.76631 159.994 -7.6774C160.312 -8.02579 160.857 -8.05411 161.209 -7.73638C161.56 -7.41864 161.592 -6.8759 161.274 -6.52751C158.336 -3.2814 159.264 0.715706 160.154 4.5743C161.09 8.59109 162.053 12.7502 157.822 15.0773C155.618 16.2867 153.265 16.1942 151.066 15.3067C150.965 16.4097 150.724 17.459 150.304 18.4131C149.145 21.0435 146.226 23.8748 138.883 22.4384C132.801 21.2481 127.965 21.7868 125.253 23.9609C123.607 25.2782 122.751 27.2037 122.698 29.6867C122.686 30.1613 122.292 30.5332 121.822 30.5214C121.708 30.5199 121.596 30.495 121.493 30.4496L121.496 30.4428ZM145.114 3.66088C144.798 3.52177 144.667 3.63464 144.609 3.69069C143.796 4.38228 144.385 6.61883 145.971 8.8798C146.771 10.0216 147.919 11.2677 149.251 12.2616C148.747 8.6057 146.949 4.96563 145.471 3.8749C145.335 3.7743 145.217 3.70624 145.121 3.6639L145.114 3.66088Z" fill="#FFC854"/>
<path d="M293.305 23.5685L291.757 29.5471L296.965 32.8664L290.801 33.2421L289.254 39.2207L286.991 33.4743L280.827 33.85L285.593 29.9229L283.331 24.1765L288.539 27.4957L293.305 23.5685Z" fill="white"/>
</g>
<defs>
<filter id="filter0_f_2669_11687" x="79" y="-5" width="182" height="182" filterUnits="userSpaceOnUse" color-interpolation-filters="sRGB">
<feFlood flood-opacity="0" result="BackgroundImageFix"/>
<feBlend mode="normal" in="SourceGraphic" in2="BackgroundImageFix" result="shape"/>
<feGaussianBlur stdDeviation="15" result="effect1_foregroundBlur_2669_11687"/>
</filter>
<linearGradient id="paint0_linear_2669_11687" x1="243.427" y1="30.1548" x2="243.427" y2="499.999" gradientUnits="userSpaceOnUse">
<stop stop-color="white"/>
<stop offset="0.00589937" stop-color="#FBFBFB"/>
<stop offset="0.0853" stop-color="#C7C7C7"/>
<stop offset="0.1701" stop-color="#989898"/>
<stop offset="0.2582" stop-color="#6F6F6F"/>
<stop offset="0.3505" stop-color="#4C4C4C"/>
<stop offset="0.4481" stop-color="#313131"/>
<stop offset="0.5528" stop-color="#1B1B1B"/>
<stop offset="0.6682" stop-color="#0C0C0C"/>
<stop offset="0.8024" stop-color="#030303"/>
<stop offset="1"/>
</linearGradient>
<linearGradient id="paint1_linear_2669_11687" x1="243.427" y1="30.1548" x2="243.427" y2="499.999" gradientUnits="userSpaceOnUse">
<stop stop-color="#FFFAE9"/>
<stop offset="0.2022" stop-color="#FFFCF3"/>
<stop offset="0.5245" stop-color="#FFFEFC"/>
<stop offset="1" stop-color="white"/>
</linearGradient>
<clipPath id="clip0_2669_11687">
<rect width="340" height="168" fill="white"/>
</clipPath>
<clipPath id="clip1_2669_11687">
<rect width="166.828" height="142.073" fill="white" transform="translate(216.033 29) rotate(10.9687)"/>
</clipPath>
<clipPath id="clip2_2669_11687">
<rect width="12" height="13" fill="white" transform="translate(328.812 70.4141) rotate(51.6575)"/>
</clipPath>
<clipPath id="clip3_2669_11687">
<rect width="173" height="184" fill="white" transform="translate(8 -12)"/>
</clipPath>
<clipPath id="clip4_2669_11687">
<rect width="93" height="87" fill="white" transform="translate(20 95)"/>
</clipPath>
<clipPath id="clip5_2669_11687">
<rect width="5.78" height="22.82" fill="white" transform="translate(128.261 114) rotate(23.9421)"/>
</clipPath>
<clipPath id="clip6_2669_11687">
<rect width="215.63" height="42.75" fill="white" transform="translate(62 63)"/>
</clipPath>
</defs>
</svg>
