<svg width="220" height="74" viewBox="0 0 220 74" fill="none" xmlns="http://www.w3.org/2000/svg">
<path d="M219.3 0H0V42.75H219.3V0Z" fill="#3CA8E4"/>
<path d="M179.1 30.4805H40.21V73.2305H179.1V30.4805Z" fill="#3CA8E4"/>
<path d="M10.3101 21.02C10.3101 14.01 15.6401 9.25 21.9301 9.25C28.6901 9.25 31.6701 13.6 32.4001 16.83L27.6701 18.32C27.3201 16.77 25.8901 14.13 21.9301 14.13C18.9101 14.13 15.5201 16.29 15.5201 21.02C15.5201 25.24 18.6301 27.69 21.9901 27.69C25.8901 27.69 27.4501 25.09 27.8901 23.47L32.6801 24.83C31.9501 27.94 28.9701 32.7 21.9801 32.7C15.5101 32.7 10.3101 28.04 10.3101 21.02Z" fill="white"/>
<path d="M46.49 9.25C52.81 9.25 58.17 13.85 58.17 20.99C58.17 28.1 52.81 32.7 46.49 32.7C40.14 32.7 34.78 28.1 34.78 20.99C34.78 13.85 40.14 9.25 46.49 9.25ZM46.49 27.75C49.6 27.75 52.96 25.66 52.96 20.96C52.96 16.26 49.6 14.14 46.49 14.14C43.35 14.14 39.98 16.27 39.98 20.96C39.98 25.65 43.35 27.75 46.49 27.75Z" fill="white"/>
<path d="M61.72 24.1007V9.7207H66.74V23.6807C66.74 26.4107 68.26 27.7707 70.64 27.7707C73.02 27.7707 74.54 26.4107 74.54 23.6807V9.7207H79.56V24.1007C79.56 29.7507 75.59 32.7307 70.64 32.7307C65.69 32.7307 61.72 29.7507 61.72 24.1007Z" fill="white"/>
<path d="M98.6702 32.2207L89.4002 17.4307V32.2207H84.4202V9.7207H90.5102L98.9502 23.4007V9.7207H103.96V32.2207H98.6702Z" fill="white"/>
<path d="M119.08 14.5107V32.2207H114.07V14.5107H107.15V9.7207H126.03V14.5107H119.08Z" fill="white"/>
<path d="M136.03 23.8507H134.25V32.2307H129.23V9.7207H138.15C142.59 9.7207 145.45 12.7707 145.45 16.7707C145.45 19.8207 143.77 22.1307 141.01 23.1207L145.58 32.2307H140.06L136.03 23.8507ZM137.2 19.5307C139.26 19.5307 140.37 18.3907 140.37 16.8007C140.37 15.1207 139.26 14.0707 137.2 14.0707H134.25V19.5307H137.2Z" fill="white"/>
<path d="M149.32 32.2207V9.7207H154.4V32.2207H149.32Z" fill="white"/>
<path d="M159.42 32.2207V9.7207H173.67V14.4507H164.43V18.7307H172.81V23.1407H164.43V27.4607H173.7V32.2207H159.42Z" fill="white"/>
<path d="M189.06 16.5102C188.9 15.4602 188.04 13.6802 185.32 13.6802C183.45 13.6802 182.24 14.8502 182.24 16.0902C182.24 17.1702 182.91 17.9602 184.46 18.2502L187.48 18.8202C191.76 19.6102 193.99 22.3702 193.99 25.5802C193.99 29.1002 191.04 32.6902 185.67 32.6902C179.45 32.6902 176.78 28.6602 176.47 25.4902L181.07 24.3802C181.26 26.4402 182.66 28.2502 185.74 28.2502C187.71 28.2502 188.91 27.3002 188.91 25.9002C188.91 24.7602 187.99 23.9302 186.5 23.6502L183.42 23.0802C179.61 22.3502 177.29 19.8102 177.29 16.4802C177.29 12.2302 181.04 9.24023 185.35 9.24023C190.97 9.24023 193.09 12.6002 193.57 15.2402L189.06 16.5102Z" fill="white"/>
<path d="M198.55 32.6703H194.27L205.66 9.28027H209.98L198.55 32.6703Z" fill="white"/>
<path d="M61.71 46.1806V63.8906H56.7V46.1806H49.78V41.3906H68.66V46.1806H61.71Z" fill="white"/>
<path d="M78.6601 55.5204H76.8801V63.9004H71.8601V41.4004H80.7801C85.2201 41.4004 88.0801 44.4504 88.0801 48.4504C88.0801 51.5004 86.4001 53.8104 83.6401 54.8004L88.2101 63.9104H82.6901L78.6601 55.5204ZM79.8301 51.2004C81.8901 51.2004 83.0001 50.0604 83.0001 48.4704C83.0001 46.7904 81.8901 45.7404 79.8301 45.7404H76.8801V51.2004H79.8301Z" fill="white"/>
<path d="M105.38 59.3206H96.68L95.06 63.8906H89.8L98.27 41.3906H104.08L112.46 63.8906H107L105.38 59.3206ZM98.34 54.7506H103.8L101.1 46.9706L98.34 54.7506Z" fill="white"/>
<path d="M127.54 41.3906H132.87L124.65 63.8906H119.48L111.23 41.3906H116.75L122.18 57.2306L127.54 41.3906Z" fill="white"/>
<path d="M135.79 63.8906V41.3906H150.04V46.1206H140.8V50.4006H149.18V54.8106H140.8V59.1306H150.07V63.8906H135.79Z" fill="white"/>
<path d="M154.45 63.8906V41.3906H159.46V59.1006H169.17V63.8906H154.45Z" fill="white"/>
<path d="M46.2001 30.4798C51.2314 30.4798 55.3101 26.4011 55.3101 21.3698C55.3101 16.3385 51.2314 12.2598 46.2001 12.2598C41.1688 12.2598 37.0901 16.3385 37.0901 21.3698C37.0901 26.4011 41.1688 30.4798 46.2001 30.4798Z" fill="white"/>
<path d="M46.6601 13L49.0801 17.9L54.4901 18.69L50.5801 22.5L51.5001 27.89L46.6601 25.34L41.8301 27.89L42.7501 22.5L38.8401 18.69L44.2501 17.9L46.6601 13Z" fill="#3CA8E4"/>
</svg>
