<svg width="340" height="168" viewBox="0 0 340 168" fill="none" xmlns="http://www.w3.org/2000/svg">
<g clip-path="url(#clip0_2669_11953)">
<rect width="340" height="168" fill="#4E13AF"/>
<g filter="url(#filter0_f_2669_11953)">
<circle cx="170" cy="86" r="61" fill="#8448E4"/>
</g>
<circle cx="40" cy="19" r="114" fill="#B98EFD"/>
<circle cx="284" cy="191" r="114" fill="#B98EFD"/>
<path d="M433.24 159H454.082L258.187 -36H237.345L433.24 159Z" fill="#3A1575"/>
<path d="M412.386 159H433.217L237.322 -36H216.492L412.386 159Z" fill="#8347E2"/>
<path d="M391.556 159H412.398L216.503 -36H195.673L391.556 159Z" fill="#3A1575"/>
<path d="M349.895 159H370.725L174.831 -36H154L349.895 159Z" fill="#4E13AF"/>
<path d="M370.725 159H391.567L195.673 -36H174.831L370.725 159Z" fill="#8347E2"/>
<g clip-path="url(#clip1_2669_11953)">
<path d="M337.884 82.1704C311.586 95.1208 282.739 99.4963 258.477 119.156C216.79 152.946 221.274 184.131 202.014 214.408" stroke="#FFF9F5" stroke-width="2" stroke-miterlimit="10" stroke-dasharray="6 6"/>
</g>
<g clip-path="url(#clip2_2669_11953)">
<path d="M275.34 57.1192C274.172 59.6074 271.179 60.6914 268.682 59.5346L187.891 21.95C185.394 20.786 184.307 17.8031 185.467 15.3149L200.66 -17.1187C201.829 -19.6069 204.822 -20.6909 207.319 -19.5341L288.109 18.0504C290.606 19.2145 291.694 22.1974 290.533 24.6856L275.34 57.1192Z" fill="#FFF9F5"/>
<path d="M288.109 18.0505L257.84 3.97266L238.405 45.4496L268.682 59.5347C271.178 60.6987 274.179 59.6074 275.34 57.1193L290.533 24.6856C291.701 22.2047 290.613 19.2146 288.109 18.0505Z" fill="#FFE3E3"/>
<path d="M248.349 18.4941L248.144 16.4498L239.617 11.7717C239.522 10.1202 239.449 8.87611 239.413 8.39593C239.252 6.21332 237.427 6.34428 237.427 6.34428C237.427 6.34428 235.616 6.57709 235.879 8.74515C235.938 9.21077 236.105 10.4258 236.332 12.0482L228.834 18.3559L229.038 20.4003L236.982 16.5589C237.485 20.0511 238.04 23.9143 238.405 26.4316L235.478 28.3959L235.215 30.2512L238.807 29.1671L239.69 29.0798L240.574 28.9925L244.304 29.3563L243.684 27.5884L240.42 26.2351C240.281 23.7033 240.07 19.8183 239.873 16.3043L248.349 18.4941Z" fill="#14EB50"/>
<path d="M288.109 18.0504L207.326 -19.5342C204.829 -20.6983 201.828 -19.6142 200.667 -17.1188L200.135 -15.9911L290.007 25.8205L290.54 24.6928C291.701 22.2046 290.613 19.2144 288.109 18.0504Z" fill="#E9D629"/>
<path d="M216.583 -4.29983C216.649 -4.45261 216.853 -4.43078 217.014 -4.35803C217.182 -4.278 217.313 -4.13977 217.248 -3.99426L215.32 0.123601C215.254 0.269108 215.057 0.269108 214.889 0.189079C214.729 0.116325 214.597 -0.0364576 214.663 -0.181965L216.583 -4.29983Z" fill="#4C5151"/>
<path d="M219.263 -2.60448C218.781 -2.83002 218.394 -2.69906 218.138 -2.15341L217.291 -0.341841C217.036 0.203812 217.182 0.589407 217.678 0.814943C218.313 1.11323 218.569 0.705813 218.722 0.443899C218.81 0.291116 218.971 0.291116 219.146 0.378421C219.379 0.487551 219.452 0.603958 219.321 0.880422C219 1.56431 218.211 1.78257 217.35 1.38242C216.59 1.0332 216.145 0.36387 216.62 -0.647407L217.467 -2.45897C217.941 -3.47025 218.744 -3.55028 219.503 -3.20106C220.358 -2.80092 220.701 -2.07338 220.394 -1.4186C220.263 -1.13486 220.124 -1.12758 219.905 -1.22944C219.708 -1.32402 219.613 -1.4477 219.679 -1.60048C219.774 -1.81874 219.905 -2.30619 219.263 -2.60448Z" fill="#4C5151"/>
<path d="M221.445 -2.03714C221.518 -2.18265 221.716 -2.1681 221.876 -2.09535C222.044 -2.01532 222.176 -1.87709 222.11 -1.73158L221.226 0.160017L223.694 -1.14227C223.767 -1.1932 223.847 -1.18593 223.928 -1.14955C224.096 -1.06952 224.227 -0.800331 224.147 -0.632998C224.132 -0.603896 224.096 -0.552969 224.037 -0.523867L222.139 0.414655L222.548 3.2375C222.555 3.28843 222.548 3.33208 222.533 3.37573C222.46 3.53579 222.183 3.60855 221.993 3.52124C221.898 3.47759 221.832 3.39756 221.818 3.28843L221.445 0.771148L220.803 1.09127L220.19 2.39356C220.124 2.53906 219.927 2.53907 219.759 2.45904C219.598 2.38628 219.46 2.2335 219.533 2.08799L221.445 -2.03714Z" fill="#4C5151"/>
<path d="M224.643 1.63679L225.607 2.08059C225.746 2.14607 225.768 2.30613 225.702 2.45164C225.651 2.56804 225.512 2.67717 225.366 2.60442L224.402 2.16062L223.731 3.59387L225.585 4.45964C225.724 4.52512 225.738 4.69972 225.665 4.85978C225.6 4.99801 225.461 5.11442 225.315 5.04167L223.095 4.00856C222.949 3.94309 222.84 3.79758 222.906 3.65207L224.833 -0.458514C224.899 -0.604021 225.089 -0.604022 225.227 -0.538543L227.447 0.49456C227.6 0.567313 227.593 0.741923 227.534 0.880155C227.461 1.04021 227.315 1.14207 227.177 1.07659L225.322 0.210821L224.643 1.63679Z" fill="#4C5151"/>
<path d="M230.674 1.9934C230.82 2.06616 230.82 2.24804 230.754 2.38627C230.681 2.54633 230.535 2.66274 230.389 2.59726L229.425 2.15346L227.68 5.87845C227.615 6.02396 227.41 6.01669 227.25 5.94393C227.082 5.8639 226.958 5.7184 227.023 5.57289L228.768 1.8479L227.797 1.39682C227.658 1.33135 227.644 1.14946 227.724 0.989403C227.79 0.843895 227.936 0.720214 228.082 0.792968L230.674 1.9934Z" fill="#4C5151"/>
<path d="M214.481 4.88928C214.882 5.07843 215.101 5.42038 214.853 5.9442L214.371 6.97731C214.123 7.50841 213.714 7.55934 213.32 7.37018L212.714 7.08644C212.655 7.05734 212.633 6.99913 212.648 6.95548L213.736 4.64191C213.758 4.59826 213.816 4.57643 213.875 4.60554L214.481 4.88928ZM213.904 4.86745L212.933 6.93366L213.415 7.15919C213.721 7.29743 213.977 7.2174 214.145 6.86818L214.627 5.83507C214.794 5.48586 214.685 5.23122 214.378 5.09299L213.904 4.86745Z" fill="#4C5151"/>
<path d="M214.378 7.74118C214.378 7.7339 214.386 7.72662 214.393 7.71935L216.182 5.74772C216.225 5.70407 216.291 5.70407 216.35 5.73317C216.408 5.76227 216.459 5.8132 216.452 5.87141L216.079 8.50509C216.079 8.51237 216.079 8.51964 216.072 8.52692C216.05 8.58512 215.948 8.59239 215.89 8.56329C215.853 8.54874 215.824 8.51237 215.831 8.46871L215.919 7.87213L214.977 7.43561L214.575 7.88669C214.546 7.92306 214.502 7.92306 214.459 7.90123C214.4 7.87213 214.349 7.79938 214.378 7.74118ZM215.955 7.65387L216.182 6.09694L215.123 7.26828L215.955 7.65387Z" fill="#4C5151"/>
<path d="M218.569 6.78829C218.627 6.8174 218.627 6.8756 218.605 6.92652C218.576 6.97745 218.525 7.0211 218.467 6.992L217.897 6.73009L216.875 8.9127C216.846 8.97091 216.773 8.97091 216.722 8.94908C216.663 8.91998 216.627 8.86905 216.649 8.81085L217.671 6.62823L217.102 6.36632C217.043 6.33722 217.043 6.27174 217.065 6.22082C217.087 6.16989 217.138 6.12624 217.196 6.15534L218.569 6.78829Z" fill="#4C5151"/>
<path d="M218.657 8.22124L219.19 8.4686C219.248 8.49043 219.255 8.55591 219.226 8.60683C219.204 8.65049 219.16 8.68686 219.102 8.65776L218.569 8.4104L218.131 9.34892L219.219 9.8582C219.27 9.88002 219.277 9.9455 219.255 10.0037C219.233 10.0546 219.182 10.091 219.124 10.0692L217.912 9.50898C217.861 9.48716 217.824 9.42895 217.854 9.37075L218.934 7.06446C218.963 7.00625 219.022 7.00625 219.073 7.02808L220.285 7.59556C220.343 7.62466 220.343 7.68286 220.321 7.73379C220.292 7.79199 220.241 7.82837 220.182 7.79927L219.095 7.28999L218.657 8.22124Z" fill="#4C5151"/>
<path d="M199.543 -1.95703C199.572 -2.01523 199.631 -2.01523 199.682 -1.99341L200.886 -1.4332C200.945 -1.4041 200.945 -1.3459 200.923 -1.29497C200.894 -1.23677 200.843 -1.20039 200.784 -1.22949L199.704 -1.73149L199.266 -0.800244L199.806 -0.552882C199.857 -0.531055 199.864 -0.465577 199.842 -0.414649C199.821 -0.370997 199.777 -0.33462 199.718 -0.363722L199.178 -0.611084L198.682 0.451121C198.652 0.509324 198.587 0.509323 198.528 0.480222C198.47 0.45112 198.426 0.400192 198.455 0.341989L199.543 -1.95703Z" fill="#4C5151"/>
<path d="M200.208 1.26613C200.156 1.2443 200.12 1.1861 200.149 1.1279L201.23 -1.18567C201.259 -1.24387 201.325 -1.24387 201.383 -1.21477C201.441 -1.18567 201.485 -1.14202 201.456 -1.08381L200.427 1.10607L201.398 1.55715C201.449 1.57897 201.449 1.64445 201.427 1.69538C201.398 1.74631 201.354 1.78996 201.303 1.76813L200.208 1.26613Z" fill="#4C5151"/>
<path d="M202.807 -0.443971C202.836 -0.502174 202.902 -0.502173 202.96 -0.473072C203.011 -0.451246 203.062 -0.393042 203.033 -0.342115L201.952 1.97145C201.923 2.02966 201.85 2.02966 201.799 2.00783C201.741 1.97873 201.704 1.9278 201.726 1.8696L202.807 -0.443971Z" fill="#4C5151"/>
<path d="M204.172 0.341882C203.865 0.20365 203.61 0.276405 203.449 0.632898L202.96 1.68783C202.792 2.03704 202.894 2.29168 203.201 2.42991C203.507 2.56815 203.763 2.48812 203.931 2.1389L204.121 1.73875L203.668 1.52777C203.617 1.50594 203.61 1.44046 203.632 1.38954C203.653 1.34588 203.705 1.30951 203.756 1.33133L204.354 1.6078C204.405 1.62962 204.42 1.68783 204.398 1.73148L204.157 2.24076C203.909 2.77186 203.507 2.82279 203.106 2.6409C202.704 2.45902 202.493 2.11707 202.741 1.58597L203.23 0.531042C203.478 0.00721523 203.88 -0.050987 204.274 0.138173C204.712 0.341883 204.873 0.720203 204.712 1.05487C204.668 1.14217 204.61 1.14945 204.544 1.12035C204.486 1.09125 204.449 1.04759 204.471 0.982116C204.551 0.705652 204.464 0.480114 204.172 0.341882Z" fill="#4C5151"/>
<path d="M206.034 2.52463L205.048 2.06628L204.53 3.17214C204.5 3.23034 204.427 3.23034 204.376 3.20851C204.318 3.17941 204.281 3.12848 204.303 3.07028L205.384 0.756713C205.413 0.69851 205.479 0.69851 205.537 0.727611C205.588 0.749437 205.639 0.800365 205.61 0.858568L205.136 1.86984L206.121 2.32819L206.596 1.30964C206.625 1.25144 206.691 1.25144 206.749 1.28054C206.807 1.30964 206.851 1.35329 206.822 1.4115L205.742 3.72507C205.712 3.78327 205.639 3.78327 205.588 3.76144C205.53 3.73234 205.493 3.68141 205.515 3.62321L206.034 2.52463Z" fill="#4C5151"/>
<path d="M208.625 2.1608C208.684 2.18991 208.684 2.24811 208.662 2.29904C208.633 2.34996 208.582 2.39362 208.523 2.36451L207.954 2.1026L206.932 4.28521C206.902 4.34342 206.829 4.34342 206.778 4.32159C206.72 4.29249 206.683 4.24156 206.705 4.18336L207.727 2.00075L207.158 1.73156C207.099 1.70973 207.099 1.64425 207.121 1.58605C207.143 1.53512 207.194 1.49147 207.253 1.52057L208.625 2.1608Z" fill="#4C5151"/>
<path d="M225.716 10.3676C225.403 10.2221 225.147 10.3021 224.986 10.6586L224.497 11.7135C224.329 12.07 224.424 12.3174 224.76 12.4702C225.162 12.6593 225.322 12.4192 225.417 12.2665C225.446 12.2155 225.497 12.1937 225.57 12.2301C225.651 12.2665 225.673 12.3101 225.614 12.4192C225.468 12.7248 225.081 12.8703 224.636 12.6593C224.249 12.4775 224.023 12.1355 224.271 11.6044L224.76 10.5495C225.008 10.0257 225.424 9.982 225.811 10.1566C226.257 10.3603 226.388 10.7459 226.249 11.0515C226.198 11.1606 226.154 11.1752 226.074 11.1388C225.994 11.1024 225.987 11.0515 226.001 11.0006C226.06 10.8478 226.125 10.5568 225.716 10.3676Z" fill="#4C5151"/>
<path d="M225.848 13.1978C225.797 13.1759 225.76 13.1177 225.789 13.0595L226.87 10.746C226.899 10.6878 226.965 10.6878 227.023 10.7169C227.074 10.7387 227.125 10.7896 227.096 10.8478L226.067 13.0377L227.038 13.4888C227.089 13.5106 227.089 13.5761 227.067 13.627C227.045 13.6852 226.994 13.7216 226.943 13.6998L225.848 13.1978Z" fill="#4C5151"/>
<path d="M227.177 13.6997C227.177 13.6924 227.184 13.6851 227.191 13.6778L228.98 11.7062C229.024 11.6626 229.089 11.6626 229.148 11.6917C229.206 11.7208 229.257 11.7717 229.25 11.8299L228.878 14.4636C228.878 14.4709 228.878 14.4781 228.87 14.4854C228.841 14.5363 228.746 14.5509 228.688 14.5218C228.651 14.5072 228.622 14.4709 228.629 14.4272L228.717 13.8306L227.775 13.3941L227.374 13.8452C227.345 13.8816 227.301 13.8816 227.257 13.8597C227.206 13.8306 227.155 13.7579 227.177 13.6997ZM228.754 13.6124L228.98 12.0554L227.921 13.2268L228.754 13.6124Z" fill="#4C5151"/>
<path d="M230.52 14.5729C230.871 13.8163 229.571 13.6635 229.958 12.8341C230.192 12.3394 230.652 12.4048 230.973 12.5503C231.229 12.6668 231.506 12.8996 231.448 13.0232C231.426 13.0669 231.353 13.1324 231.287 13.1033C231.221 13.0742 231.17 12.8923 230.871 12.7541C230.615 12.6377 230.331 12.6158 230.192 12.9214C229.9 13.5543 231.192 13.7217 230.754 14.6602C230.528 15.1404 230.126 15.2204 229.71 15.024C229.272 14.8203 229.126 14.4565 229.184 14.3328C229.206 14.2746 229.294 14.231 229.345 14.2528C229.433 14.2964 229.367 14.6093 229.798 14.8057C230.112 14.9585 230.382 14.8857 230.52 14.5729Z" fill="#4C5151"/>
<path d="M232.207 15.3585C232.557 14.6019 231.258 14.4418 231.645 13.6197C231.878 13.125 232.338 13.1905 232.659 13.336C232.915 13.4524 233.192 13.6852 233.134 13.8089C233.112 13.8525 233.039 13.918 232.973 13.8889C232.908 13.8598 232.857 13.6779 232.557 13.5397C232.302 13.4233 232.024 13.4015 231.878 13.6998C231.586 14.3327 232.879 14.5001 232.44 15.4386C232.214 15.9187 231.813 15.9988 231.396 15.8023C230.958 15.5986 230.812 15.2349 230.871 15.1112C230.893 15.0603 230.98 15.0093 231.031 15.0312C231.119 15.0748 231.053 15.3876 231.484 15.5841C231.798 15.7369 232.061 15.6641 232.207 15.3585Z" fill="#4C5151"/>
<path d="M238.668 18.3629C239.018 17.6063 237.719 17.4462 238.106 16.6241C238.339 16.1294 238.799 16.1949 239.121 16.3404C239.376 16.4568 239.654 16.6896 239.595 16.8133C239.573 16.8569 239.5 16.9224 239.435 16.8933C239.369 16.8642 239.318 16.6823 239.018 16.5441C238.763 16.4277 238.478 16.4059 238.339 16.7114C238.047 17.3444 239.34 17.5117 238.902 18.4502C238.675 18.9304 238.274 19.0104 237.858 18.814C237.42 18.6103 237.274 18.2465 237.332 18.1229C237.354 18.0719 237.442 18.021 237.493 18.0428C237.58 18.0865 237.515 18.3993 237.945 18.5958C238.252 18.7413 238.522 18.6685 238.668 18.3629Z" fill="#4C5151"/>
<path d="M239.836 18.0718L240.369 18.3191C240.42 18.341 240.435 18.4064 240.406 18.4574C240.384 18.501 240.34 18.5374 240.274 18.5083L239.741 18.2609L239.303 19.1995L240.391 19.7087C240.449 19.7378 240.449 19.796 240.428 19.8542C240.406 19.9052 240.355 19.9488 240.296 19.9197L239.084 19.3522C239.033 19.3304 238.997 19.2722 239.026 19.214L240.106 16.9077C240.135 16.8495 240.201 16.8495 240.245 16.8713L241.457 17.4388C241.515 17.4679 241.515 17.5261 241.493 17.5771C241.464 17.6353 241.413 17.6716 241.355 17.6425L240.267 17.1333L239.836 18.0718Z" fill="#4C5151"/>
<path d="M240.574 19.9345C240.574 19.9273 240.581 19.92 240.588 19.9127L242.377 17.9411C242.421 17.8974 242.486 17.8974 242.545 17.9265C242.603 17.9556 242.654 18.0066 242.647 18.0648L242.275 20.6984C242.267 20.7057 242.275 20.713 242.267 20.7203C242.245 20.7712 242.143 20.7858 242.085 20.7567C242.048 20.7421 242.019 20.7057 242.026 20.6621L242.114 20.0655L241.172 19.629L240.771 20.08C240.741 20.1164 240.698 20.1164 240.654 20.0946C240.595 20.0582 240.544 19.9927 240.574 19.9345ZM242.151 19.84L242.377 18.283L241.318 19.4544L242.151 19.84Z" fill="#4C5151"/>
<path d="M244.771 18.9812C244.83 19.0103 244.83 19.0685 244.808 19.1194C244.786 19.1776 244.728 19.214 244.669 19.1922L244.1 18.9302L243.078 21.1128C243.049 21.1711 242.975 21.1711 242.924 21.1492C242.866 21.1201 242.829 21.0692 242.851 21.011L243.873 18.8284L243.304 18.5592C243.246 18.5374 243.246 18.4719 243.268 18.4137C243.289 18.3628 243.341 18.3191 243.399 18.3482L244.771 18.9812Z" fill="#4C5151"/>
<path d="M195.528 9.84347C195.586 9.87257 195.586 9.93077 195.564 9.98898C195.542 10.0399 195.484 10.0836 195.426 10.0545L194.856 9.79254L193.834 11.9752C193.805 12.0334 193.732 12.0334 193.681 12.0115C193.622 11.9824 193.586 11.9315 193.608 11.8733L194.63 9.69069L194.06 9.4215C194.009 9.39967 194.002 9.33419 194.024 9.27599C194.046 9.22506 194.097 9.18141 194.155 9.21051L195.528 9.84347Z" fill="#4C5151"/>
<path d="M195.885 10.1127C195.915 10.0545 195.98 10.0545 196.039 10.0836C196.09 10.1054 196.141 10.1563 196.112 10.2145L195.031 12.5281C195.002 12.5863 194.929 12.5863 194.878 12.5645C194.82 12.5354 194.783 12.4844 194.805 12.4262L195.885 10.1127Z" fill="#4C5151"/>
<path d="M196.908 12.3752C196.856 12.4115 196.813 12.4188 196.783 12.4043C196.754 12.3897 196.732 12.3533 196.725 12.2951L196.667 10.9565L195.769 12.8772C195.739 12.9354 195.666 12.9354 195.615 12.9135C195.557 12.8844 195.52 12.8335 195.542 12.7753L196.616 10.4908C196.652 10.4108 196.718 10.4035 196.776 10.4326C196.856 10.469 196.878 10.5709 196.886 10.6727L196.944 12.0696L198.061 11.2184C198.141 11.1529 198.229 11.1092 198.317 11.1456C198.375 11.1747 198.419 11.2256 198.375 11.3057L197.302 13.5901C197.273 13.6483 197.207 13.6556 197.148 13.6265C197.09 13.6047 197.046 13.5465 197.075 13.4883L197.973 11.5821L196.908 12.3752Z" fill="#4C5151"/>
<path d="M198.631 12.6807L199.164 12.9281C199.222 12.9572 199.229 13.0154 199.2 13.0663C199.178 13.11 199.134 13.1463 199.069 13.1172L198.536 12.8699L198.098 13.8084L199.185 14.3177C199.237 14.3395 199.244 14.405 199.222 14.4632C199.2 14.5141 199.149 14.5505 199.091 14.5287L197.879 13.9685C197.827 13.9466 197.791 13.8884 197.82 13.8302L198.901 11.5239C198.93 11.4657 198.996 11.4657 199.039 11.4876L200.251 12.055C200.31 12.0841 200.31 12.1423 200.288 12.1933C200.259 12.2515 200.208 12.2878 200.149 12.266L199.061 11.7567L198.631 12.6807Z" fill="#4C5151"/>
<path d="M207.908 18.878L204.562 26.0166L205.415 26.4138L208.761 19.2752L207.908 18.878Z" fill="#4C5151"/>
<path d="M209.156 19.4539L205.811 26.5933L207.352 27.3105L210.697 20.1711L209.156 19.4539Z" fill="#4C5151"/>
<path d="M211.052 20.339L207.705 27.4775L208.129 27.6746L211.476 20.5361L211.052 20.339Z" fill="#4C5151"/>
<path d="M211.834 20.7058L208.489 27.8452L209.343 28.2422L212.687 21.1028L211.834 20.7058Z" fill="#4C5151"/>
<path d="M213.09 21.2833L209.743 28.4219L211.284 29.1394L214.631 22.0009L213.09 21.2833Z" fill="#4C5151"/>
<path d="M214.93 22.1469L211.582 29.2847L212.005 29.4819L215.354 22.3441L214.93 22.1469Z" fill="#4C5151"/>
<path d="M215.691 22.4927L212.347 29.6328L212.77 29.8297L216.114 22.6896L215.691 22.4927Z" fill="#4C5151"/>
<path d="M216.467 22.858L213.121 29.9966L213.974 30.3938L217.32 23.2552L216.467 22.858Z" fill="#4C5151"/>
<path d="M217.72 23.4417L214.375 30.5811L215.917 31.2981L219.261 24.1587L217.72 23.4417Z" fill="#4C5151"/>
<path d="M219.566 24.303L216.222 31.4424L216.645 31.6393L219.99 24.5L219.566 24.303Z" fill="#4C5151"/>
<path d="M220.317 24.6482L216.973 31.7876L218.514 32.5047L221.858 25.3653L220.317 24.6482Z" fill="#4C5151"/>
<path d="M222.169 25.5037L218.824 32.6431L219.247 32.8401L222.593 25.7007L222.169 25.5037Z" fill="#4C5151"/>
<path d="M222.973 25.8789L219.629 33.019L221.171 33.7359L224.514 26.5958L222.973 25.8789Z" fill="#4C5151"/>
<path d="M224.82 26.747L221.476 33.8872L221.9 34.0841L225.244 26.944L224.82 26.747Z" fill="#4C5151"/>
<path d="M225.574 27.0922L222.234 34.2339L222.657 34.4306L225.998 27.2889L225.574 27.0922Z" fill="#4C5151"/>
<path d="M226.355 27.4601L223.008 34.5986L223.861 34.9959L227.208 27.8573L226.355 27.4601Z" fill="#4C5151"/>
<path d="M227.602 28.0346L224.259 35.1748L225.801 35.8915L229.144 28.7514L227.602 28.0346Z" fill="#4C5151"/>
<path d="M229.45 28.904L226.109 36.0449L226.532 36.2417L229.874 29.1007L229.45 28.904Z" fill="#4C5151"/>
<path d="M230.209 29.2552L226.864 36.3945L228.406 37.1116L231.75 29.9722L230.209 29.2552Z" fill="#4C5151"/>
<path d="M232.053 30.1012L228.711 37.2422L229.134 37.439L232.476 30.2981L232.053 30.1012Z" fill="#4C5151"/>
<path d="M232.855 30.4832L229.511 37.6226L231.052 38.3396L234.396 31.2002L232.855 30.4832Z" fill="#4C5151"/>
<path d="M234.705 31.3455L231.36 38.4849L231.783 38.6819L235.129 31.5425L234.705 31.3455Z" fill="#4C5151"/>
<path d="M235.456 31.6912L232.111 38.8306L233.652 39.5478L236.997 32.4084L235.456 31.6912Z" fill="#4C5151"/>
<path d="M237.303 32.5509L233.957 39.6895L234.38 39.8865L237.726 32.7479L237.303 32.5509Z" fill="#4C5151"/>
<path d="M256.372 14.7981C256.424 14.6962 256.555 14.6889 256.657 14.7399L257.482 15.1254C257.971 15.351 258.329 15.7002 258.03 16.3332C257.854 16.7115 257.584 16.8934 257.3 16.8861C257.533 17.1262 257.628 17.3954 257.416 17.861L257.373 17.9483C257.044 18.6467 256.533 18.7122 256.022 18.4794L255.102 18.0501C254.971 17.9919 254.92 17.8755 254.963 17.7955L256.372 14.7981ZM256.307 16.1877L256.847 16.4423C257.154 16.5878 257.38 16.5005 257.526 16.1877C257.665 15.8821 257.548 15.6711 257.263 15.5329L256.73 15.2855L256.307 16.1877ZM256.146 18.0138C256.467 18.1666 256.737 18.0793 256.92 17.6937L256.956 17.6209C257.146 17.2208 257.022 16.9879 256.701 16.8352L256.131 16.5732L255.577 17.7519L256.146 18.0138Z" fill="#4C5151"/>
<path d="M257.84 18.1231L258.46 16.8063C258.804 16.0715 259.373 15.9987 259.95 16.2679C260.519 16.5371 260.84 17.0173 260.497 17.7521L259.877 19.0689C259.534 19.8037 258.957 19.8692 258.38 19.6C257.803 19.3381 257.497 18.858 257.84 18.1231ZM260.016 17.5338C260.205 17.1337 260.081 16.8572 259.745 16.6972C259.402 16.5371 259.125 16.6317 258.935 17.0318L258.314 18.3487C258.125 18.7488 258.234 19.0253 258.577 19.1853C258.913 19.3381 259.205 19.2508 259.395 18.8507L260.016 17.5338Z" fill="#4C5151"/>
<path d="M259.84 20.0071C259.848 19.9925 259.855 19.978 259.862 19.9707L262.14 17.4607C262.228 17.3661 262.381 17.3734 262.52 17.4389C262.658 17.5044 262.768 17.6208 262.753 17.7444L262.279 21.0984C262.279 21.1129 262.279 21.1275 262.271 21.142C262.22 21.2585 262.009 21.2657 261.877 21.2002C261.804 21.1639 261.753 21.1057 261.76 21.0256L261.877 20.2981L260.753 19.7743L260.264 20.3272C260.205 20.3854 260.132 20.3854 260.052 20.349C259.913 20.2836 259.782 20.1235 259.84 20.0071ZM261.943 19.8543L262.213 18.0864L261.03 19.4251L261.943 19.8543Z" fill="#4C5151"/>
<path d="M264.009 18.3483C264.046 18.2682 264.148 18.2246 264.243 18.2682L265.104 18.6684C265.681 18.9376 266.046 19.3741 265.717 20.0798C265.462 20.6182 265.06 20.7564 264.659 20.6764L264.739 22.1606C264.739 22.1897 264.732 22.2188 264.725 22.2333C264.666 22.357 264.454 22.4079 264.316 22.3425C264.235 22.3061 264.199 22.2188 264.192 22.1096L264.133 20.5091L263.673 20.2981L263.082 21.564C263.031 21.6658 262.892 21.6658 262.768 21.6076C262.651 21.5494 262.556 21.4403 262.607 21.3385L264.009 18.3483ZM264.359 18.843L263.856 19.9198L264.403 20.1744C264.746 20.3345 265.038 20.2908 265.221 19.8979C265.403 19.5051 265.25 19.2577 264.907 19.0976L264.359 18.843Z" fill="#4C5151"/>
<path d="M267.638 19.8473C268.214 20.1165 268.528 20.5966 268.185 21.3314L267.579 22.6192C267.236 23.354 266.659 23.4195 266.082 23.1503L265.279 22.7792C265.155 22.721 265.097 22.6046 265.141 22.5246L266.55 19.5199C266.586 19.4398 266.71 19.4035 266.834 19.4617L267.638 19.8473ZM266.907 20.0219L265.754 22.481L266.287 22.7283C266.63 22.8884 266.915 22.7938 267.105 22.3936L267.711 21.1059C267.893 20.7058 267.784 20.4293 267.44 20.2692L266.907 20.0219Z" fill="#4C5151"/>
<path d="M269.149 20.742C269.2 20.6329 269.346 20.6474 269.463 20.6984C269.587 20.7566 269.682 20.8584 269.631 20.9676L268.229 23.9577C268.178 24.0596 268.039 24.0596 267.915 24.0014C267.798 23.9432 267.703 23.8341 267.747 23.7322L269.149 20.742Z" fill="#4C5151"/>
<path d="M270.405 24.9472L270.28 22.379L269.309 24.4597C269.258 24.5616 269.12 24.5616 268.995 24.5034C268.879 24.4452 268.776 24.336 268.828 24.2342L270.229 21.244C270.28 21.1276 270.419 21.1422 270.543 21.2004C270.718 21.2804 270.77 21.3822 270.777 21.6442L270.864 24.0741L271.835 21.9934C271.887 21.8842 272.033 21.8988 272.149 21.9497C272.274 22.0079 272.368 22.1098 272.317 22.2189L270.916 25.2164C270.864 25.3182 270.726 25.3182 270.602 25.26C270.492 25.2018 270.412 25.1 270.405 24.9472Z" fill="#4C5151"/>
<path d="M273.785 23.2229C273.442 23.0629 273.164 23.1575 272.974 23.5576L272.354 24.8745C272.164 25.2746 272.274 25.5511 272.617 25.7111C272.952 25.8639 273.245 25.7766 273.427 25.3765L273.602 25.0054L273.142 24.7944C273.04 24.7508 273.033 24.6271 273.077 24.5252C273.12 24.4379 273.223 24.3579 273.318 24.4088L274.099 24.7726C274.201 24.8163 274.223 24.9254 274.179 25.0127L273.902 25.6093C273.558 26.3441 272.982 26.4096 272.405 26.1404C271.828 25.8712 271.514 25.391 271.857 24.6562L272.478 23.3394C272.821 22.6045 273.398 22.5391 273.953 22.7937C274.559 23.0774 274.836 23.6013 274.595 24.1105C274.508 24.2997 274.405 24.307 274.245 24.2269C274.121 24.1687 274.026 24.0742 274.077 23.9578C274.194 23.6886 274.179 23.4121 273.785 23.2229Z" fill="#4C5151"/>
<path d="M276.355 24.0885C276.391 24.0085 276.501 23.9721 276.61 24.023L277.494 24.4377C278.056 24.6996 278.362 25.1653 278.019 25.8928L278.005 25.9292C277.669 26.6567 277.085 26.7222 276.515 26.453L275.953 26.1911L275.427 27.3115C275.376 27.4133 275.238 27.4133 275.114 27.3551C274.997 27.2969 274.902 27.1878 274.946 27.0859L276.355 24.0885ZM276.712 24.5905L276.136 25.82L276.698 26.0819C277.034 26.242 277.326 26.1402 277.515 25.7473L277.537 25.6964C277.727 25.2962 277.603 25.0197 277.267 24.8597L276.712 24.5905Z" fill="#4C5151"/>
<path d="M277.041 28.01C277.048 27.9955 277.056 27.9809 277.063 27.9736L279.341 25.4636C279.428 25.3691 279.582 25.3763 279.72 25.4418C279.859 25.5073 279.969 25.6237 279.954 25.7474L279.479 29.1013C279.479 29.1159 279.472 29.1304 279.472 29.145C279.421 29.2614 279.209 29.2687 279.078 29.2032C278.998 29.1668 278.946 29.1086 278.961 29.0286L279.078 28.301L277.954 27.7772L277.464 28.3301C277.406 28.3883 277.333 28.3883 277.245 28.352C277.114 28.2865 276.983 28.1264 277.041 28.01ZM279.144 27.8572L279.421 26.0966L278.238 27.4353L279.144 27.8572Z" fill="#4C5151"/>
<path d="M281.538 29.2761C281.911 28.4758 280.29 28.0975 280.801 27.0134C281.115 26.3441 281.772 26.4096 282.261 26.6351C282.553 26.7733 283.049 27.0935 282.933 27.3481C282.889 27.4354 282.75 27.5736 282.611 27.5154C282.487 27.4572 282.451 27.2317 282.064 27.0498C281.728 26.897 281.436 26.9116 281.305 27.1953C280.991 27.8647 282.611 28.2503 282.042 29.4507C281.735 30.0982 281.151 30.2146 280.553 29.9309C279.961 29.6544 279.691 29.1524 279.801 28.9269C279.852 28.8177 280.02 28.7159 280.129 28.7668C280.297 28.8468 280.231 29.2542 280.742 29.4871C281.064 29.6398 281.385 29.6035 281.538 29.2761Z" fill="#4C5151"/>
<path d="M283.86 30.3527C284.232 29.5524 282.611 29.1741 283.122 28.0901C283.436 27.4208 284.093 27.4862 284.583 27.7118C284.875 27.85 285.371 28.1701 285.254 28.4248C285.21 28.5121 285.072 28.6503 284.933 28.5921C284.809 28.5339 284.772 28.3084 284.386 28.1265C284.057 27.9737 283.758 27.9882 283.626 28.272C283.312 28.9413 284.933 29.3269 284.364 30.5273C284.057 31.1749 283.473 31.2913 282.874 31.0075C282.283 30.7311 282.013 30.2363 282.122 30.0035C282.173 29.8944 282.341 29.7925 282.451 29.8435C282.611 29.9162 282.553 30.3309 283.064 30.5637C283.393 30.7238 283.707 30.6801 283.86 30.3527Z" fill="#4C5151"/>
<path d="M264.908 27.7288L256.44 45.8047L272.336 53.1999L280.804 35.124L264.908 27.7288Z" fill="white"/>
<path d="M268.003 35.9181C268.353 35.1615 267.053 35.0087 267.44 34.1793C267.674 33.6846 268.134 33.7501 268.455 33.8956C268.711 34.012 268.988 34.2448 268.93 34.3685C268.908 34.4121 268.835 34.4776 268.769 34.4485C268.703 34.4194 268.652 34.2375 268.353 34.0993C268.097 33.9829 267.813 33.961 267.674 34.2666C267.382 34.8996 268.674 35.0669 268.236 36.0054C268.01 36.4856 267.608 36.5656 267.192 36.3692C266.754 36.1655 266.608 35.8017 266.667 35.678C266.688 35.6271 266.776 35.5762 266.827 35.598C266.915 35.6416 266.849 35.9545 267.28 36.1509C267.594 36.2964 267.857 36.2237 268.003 35.9181Z" fill="#E9D629"/>
<path d="M269.178 35.627L269.711 35.8743C269.769 35.9034 269.777 35.9616 269.747 36.0125C269.726 36.0562 269.682 36.0926 269.623 36.0635L269.09 35.8161L268.652 36.7546L269.74 37.2639C269.791 37.2857 269.799 37.3512 269.777 37.4094C269.755 37.4604 269.704 37.504 269.645 37.4749L268.433 36.9074C268.382 36.8856 268.346 36.8274 268.375 36.7692L269.455 34.4629C269.485 34.4047 269.543 34.4047 269.594 34.4265L270.806 34.994C270.864 35.0231 270.864 35.0813 270.843 35.1322C270.813 35.1904 270.762 35.2268 270.704 35.1977L269.616 34.6884L269.178 35.627Z" fill="#E9D629"/>
<path d="M269.908 37.4824C269.915 37.4751 269.915 37.4678 269.923 37.4606L271.711 35.4889C271.755 35.4453 271.821 35.4453 271.879 35.4744C271.945 35.5035 271.989 35.5544 271.981 35.6126L271.609 38.2463C271.609 38.2536 271.609 38.2608 271.602 38.2681C271.573 38.3191 271.478 38.3336 271.419 38.3045C271.383 38.29 271.354 38.2536 271.361 38.2099L271.449 37.6133L270.507 37.1768L270.105 37.6279C270.076 37.6643 270.032 37.6643 269.988 37.6424C269.937 37.6133 269.886 37.5406 269.908 37.4824ZM271.492 37.3951L271.719 35.8382L270.66 37.0095L271.492 37.3951Z" fill="#E9D629"/>
<path d="M274.106 36.5295C274.164 36.5586 274.164 36.6168 274.143 36.6677C274.121 36.7186 274.062 36.7623 274.004 36.7332L273.434 36.4713L272.412 38.6539C272.383 38.7121 272.31 38.7121 272.259 38.6902C272.201 38.6611 272.164 38.6102 272.186 38.552L273.208 36.3694L272.639 36.1002C272.587 36.0711 272.58 36.0129 272.602 35.9547C272.624 35.9038 272.682 35.8601 272.733 35.8892L274.106 36.5295Z" fill="#E9D629"/>
<path d="M252.313 21.9063C252.342 21.848 252.408 21.8481 252.452 21.8699L253.657 22.4301C253.715 22.4592 253.715 22.5174 253.693 22.5683C253.664 22.6265 253.613 22.6629 253.554 22.6338L252.474 22.1318L252.036 23.063L252.576 23.3104C252.627 23.3322 252.634 23.3977 252.613 23.4486C252.591 23.4923 252.547 23.5287 252.488 23.4996L251.948 23.2522L251.452 24.3144C251.43 24.3799 251.357 24.3799 251.306 24.3508C251.247 24.3217 251.203 24.2708 251.233 24.2125L252.313 21.9063Z" fill="#4C5151"/>
<path d="M252.978 25.1294C252.926 25.1076 252.89 25.0494 252.919 24.9912L254 22.6776C254.029 22.6194 254.095 22.6194 254.153 22.6485C254.204 22.6703 254.255 22.7213 254.226 22.7795L253.197 24.9694L254.168 25.4204C254.219 25.4423 254.219 25.5077 254.197 25.5587C254.168 25.6096 254.124 25.6532 254.073 25.6314L252.978 25.1294Z" fill="#4C5151"/>
<path d="M255.577 23.4125C255.606 23.3543 255.672 23.3543 255.73 23.3834C255.781 23.4125 255.832 23.4561 255.803 23.5143L254.715 25.8352C254.686 25.8934 254.613 25.8934 254.562 25.8716C254.503 25.8424 254.467 25.7915 254.489 25.7333L255.577 23.4125Z" fill="#4C5151"/>
<path d="M256.942 24.2052C256.635 24.0669 256.38 24.147 256.219 24.4962L255.723 25.5511C255.555 25.9003 255.657 26.155 255.964 26.2932C256.263 26.4314 256.526 26.3514 256.694 26.0022L256.883 25.602L256.431 25.391C256.38 25.3692 256.372 25.3037 256.394 25.2528C256.416 25.2019 256.467 25.1728 256.518 25.1946L257.117 25.4711C257.176 25.4929 257.183 25.5511 257.154 25.5948L256.913 26.104C256.664 26.6351 256.263 26.6861 255.861 26.5042C255.46 26.315 255.248 25.9804 255.496 25.4493L255.993 24.3943C256.241 23.8705 256.643 23.8123 257.037 24.0015C257.475 24.2052 257.635 24.5835 257.475 24.9182C257.431 25.0055 257.38 25.0127 257.307 24.9836C257.249 24.9545 257.212 24.9109 257.234 24.8454C257.322 24.5617 257.234 24.3434 256.942 24.2052Z" fill="#4C5151"/>
<path d="M258.804 26.3879L257.818 25.9296L257.3 27.0354C257.27 27.0936 257.197 27.0936 257.146 27.0718C257.088 27.0427 257.051 26.9918 257.073 26.9336L258.154 24.62C258.183 24.5618 258.249 24.5618 258.307 24.5909C258.358 24.6127 258.409 24.6636 258.38 24.7218L257.906 25.7331L258.891 26.1915L259.366 25.1729C259.395 25.1147 259.461 25.1147 259.519 25.1438C259.57 25.1656 259.621 25.2238 259.592 25.2748L258.512 27.5883C258.482 27.6466 258.409 27.6465 258.358 27.6247C258.3 27.5956 258.263 27.5447 258.285 27.4865L258.804 26.3879Z" fill="#4C5151"/>
<path d="M261.388 26.0241C261.446 26.0532 261.446 26.1114 261.425 26.1696C261.395 26.2206 261.344 26.2642 261.286 26.2351L260.716 25.9732L259.694 28.1558C259.665 28.214 259.592 28.214 259.541 28.1922C259.483 28.1631 259.446 28.1122 259.468 28.054L260.49 25.8714L259.921 25.6022C259.869 25.5803 259.862 25.5076 259.884 25.4567C259.906 25.4057 259.964 25.3621 260.023 25.3912L261.388 26.0241Z" fill="#4C5151"/>
<path d="M249.429 29.8873C249.831 30.0765 250.05 30.4184 249.802 30.9422L249.32 31.9754C249.072 32.5065 248.67 32.5574 248.269 32.3682L247.663 32.0845C247.604 32.0554 247.582 31.9972 247.597 31.9535L248.677 29.64C248.699 29.5963 248.758 29.5745 248.816 29.6036L249.429 29.8873ZM248.853 29.8728L247.882 31.939L248.363 32.1645C248.67 32.3027 248.926 32.2227 249.094 31.8735L249.575 30.8404C249.743 30.4839 249.634 30.2365 249.327 30.0983L248.853 29.8728Z" fill="#4C5151"/>
<path d="M249.327 32.7465C249.327 32.7393 249.334 32.732 249.342 32.7247L251.13 30.7531C251.174 30.7094 251.24 30.7094 251.298 30.7385C251.357 30.7676 251.401 30.8186 251.401 30.8768L251.028 33.5105C251.028 33.5177 251.028 33.525 251.021 33.5323C250.999 33.5905 250.897 33.5978 250.838 33.5687C250.802 33.5541 250.773 33.5177 250.78 33.4741L250.868 32.8775L249.926 32.441L249.524 32.8921C249.495 32.9284 249.451 32.9284 249.407 32.9066C249.356 32.8702 249.298 32.8047 249.327 32.7465ZM250.904 32.652L251.13 31.095L250.072 32.2664L250.904 32.652Z" fill="#4C5151"/>
<path d="M253.525 31.7936C253.584 31.8227 253.584 31.8809 253.562 31.9318C253.532 31.9828 253.481 32.0264 253.423 31.9973L252.853 31.7354L251.831 33.918C251.802 33.9762 251.736 33.9762 251.678 33.9544C251.62 33.9253 251.583 33.8744 251.605 33.8162L252.627 31.6336L252.058 31.3644C252.007 31.3425 251.999 31.2771 252.021 31.2189C252.043 31.1679 252.101 31.1243 252.153 31.1534L253.525 31.7936Z" fill="#4C5151"/>
<path d="M253.613 33.2192L254.146 33.4666C254.204 33.4884 254.211 33.5539 254.182 33.6048C254.16 33.6485 254.116 33.6849 254.051 33.6558L253.518 33.4084L253.08 34.3469L254.168 34.8562C254.219 34.8853 254.226 34.9435 254.204 35.0017C254.182 35.0526 254.131 35.0963 254.073 35.0672L252.861 34.4997C252.81 34.4779 252.773 34.4197 252.802 34.3615L253.883 32.0552C253.912 31.997 253.97 31.997 254.022 32.0188L255.234 32.579C255.292 32.6081 255.292 32.6663 255.27 32.7172C255.241 32.7754 255.19 32.8118 255.131 32.7827L254.043 32.2734L253.613 33.2192Z" fill="#4C5151"/>
<path d="M246.531 37.4757C246.589 37.5048 246.589 37.5631 246.567 37.614C246.546 37.6649 246.487 37.7086 246.429 37.6795L245.859 37.4175L244.837 39.6002C244.808 39.6584 244.735 39.6584 244.684 39.6365C244.625 39.6074 244.589 39.5565 244.611 39.4983L245.633 37.3157L245.064 37.0465C245.012 37.0247 245.005 36.9592 245.027 36.901C245.049 36.8501 245.107 36.8064 245.158 36.8355L246.531 37.4757Z" fill="#4C5151"/>
<path d="M246.889 37.745C246.918 37.6868 246.984 37.6868 247.042 37.7159C247.093 37.7377 247.144 37.7886 247.115 37.8468L246.035 40.1604C246.005 40.2186 245.932 40.2186 245.881 40.1968C245.823 40.1677 245.786 40.1168 245.808 40.0586L246.889 37.745Z" fill="#4C5151"/>
<path d="M247.911 40.0076C247.86 40.044 247.816 40.0513 247.787 40.0367C247.758 40.0222 247.736 39.9858 247.728 39.9203L247.67 38.5816L246.772 40.5023C246.743 40.5605 246.67 40.5605 246.619 40.5387C246.56 40.5096 246.524 40.4587 246.546 40.4005L247.611 38.116C247.648 38.036 247.721 38.036 247.772 38.0578C247.852 38.0942 247.874 38.1888 247.882 38.2979L247.94 39.6948L249.057 38.8436C249.145 38.7781 249.232 38.7344 249.313 38.7708C249.371 38.7999 249.415 38.8508 249.371 38.9309L248.298 41.2153C248.269 41.2735 248.203 41.2808 248.144 41.2517C248.093 41.2299 248.05 41.1717 248.071 41.1135L248.962 39.2073L247.911 40.0076Z" fill="#4C5151"/>
<path d="M249.634 40.313L250.167 40.5603C250.218 40.5895 250.232 40.6477 250.203 40.6986C250.181 40.7422 250.138 40.7786 250.079 40.7495L249.546 40.5021L249.108 41.4407L250.196 41.9499C250.247 41.9718 250.254 42.0372 250.232 42.0955C250.211 42.1464 250.159 42.1828 250.101 42.1609L248.889 41.5935C248.838 41.5716 248.802 41.5134 248.831 41.4552L249.911 39.1489C249.94 39.0907 249.999 39.0907 250.05 39.1126L251.262 39.68C251.32 39.7091 251.32 39.7673 251.298 39.8183C251.269 39.8765 251.218 39.9128 251.16 39.891L250.072 39.3817L249.634 40.313Z" fill="#4C5151"/>
</g>
<g clip-path="url(#clip3_2669_11953)">
<path d="M-88.7851 -26.9913C-83.7251 -30.5763 -77.501 -33.3522 -69.9398 -34.6554C-14.0917 -44.2622 2.63721 -1.07286 5.61937 15.2C8.43318 30.5525 21.6749 51.9849 36.6675 55.938C53.0116 60.2449 77.9799 57.7257 93.0302 49.9889C124.006 34.0696 143.568 -10.5779 174.722 -26.1435C200.518 -39.0301 238.025 -36.6756 260.57 -23.8327" stroke="#FFF9F5" stroke-width="2" stroke-miterlimit="10" stroke-dasharray="8 8"/>
<path d="M54.5845 28.2159C53.6746 28.2413 49.2453 26.2083 49.1262 26.345C48.9963 26.4999 51.9912 30.2143 52.1512 31.0714C52.3496 32.1628 50.1413 35.8044 50.6962 35.7566C51.2566 35.7061 54.3971 33.036 54.9998 33.2938C56.0366 33.7428 60.0061 35.3884 60.4609 35.1569C60.639 34.6731 58.1074 31.3001 57.4386 30.4227C57.0499 29.9103 59.152 26.4305 59.0818 25.8955C59.0195 25.3628 55.7333 28.1703 54.5794 28.2058L54.5845 28.2159Z" fill="white"/>
</g>
<g clip-path="url(#clip4_2669_11953)">
<path d="M279.3 47H60V89.75H279.3V47Z" fill="#3CA8E4"/>
<path d="M239.1 77.48H100.21V120.23H239.1V77.48Z" fill="#3CA8E4"/>
<path d="M70.31 68.02C70.31 61.01 75.64 56.25 81.93 56.25C88.69 56.25 91.67 60.6 92.4 63.83L87.67 65.32C87.32 63.77 85.89 61.13 81.93 61.13C78.91 61.13 75.52 63.29 75.52 68.02C75.52 72.24 78.63 74.69 81.99 74.69C85.89 74.69 87.45 72.09 87.89 70.47L92.68 71.83C91.95 74.94 88.97 79.7 81.98 79.7C75.51 79.7 70.31 75.04 70.31 68.02Z" fill="white"/>
<path d="M106.49 56.25C112.81 56.25 118.17 60.85 118.17 67.99C118.17 75.1 112.81 79.7 106.49 79.7C100.14 79.7 94.78 75.1 94.78 67.99C94.78 60.85 100.14 56.25 106.49 56.25ZM106.49 74.75C109.6 74.75 112.96 72.66 112.96 67.96C112.96 63.26 109.6 61.14 106.49 61.14C103.35 61.14 99.98 63.27 99.98 67.96C99.98 72.65 103.35 74.75 106.49 74.75Z" fill="white"/>
<path d="M121.72 71.1002V56.7202H126.74V70.6802C126.74 73.4102 128.26 74.7702 130.64 74.7702C133.02 74.7702 134.54 73.4102 134.54 70.6802V56.7202H139.56V71.1002C139.56 76.7502 135.59 79.7302 130.64 79.7302C125.69 79.7302 121.72 76.7502 121.72 71.1002Z" fill="white"/>
<path d="M158.67 79.2202L149.4 64.4302V79.2202H144.42V56.7202H150.51L158.95 70.4002V56.7202H163.96V79.2202H158.67Z" fill="white"/>
<path d="M179.08 61.5102V79.2202H174.07V61.5102H167.15V56.7202H186.03V61.5102H179.08V61.5102Z" fill="white"/>
<path d="M196.03 70.8502H194.25V79.2302H189.23V56.7202H198.15C202.59 56.7202 205.45 59.7702 205.45 63.7702C205.45 66.8202 203.77 69.1302 201.01 70.1202L205.58 79.2302H200.06L196.03 70.8502ZM197.2 66.5302C199.26 66.5302 200.37 65.3902 200.37 63.8002C200.37 62.1202 199.26 61.0702 197.2 61.0702H194.25V66.5302H197.2Z" fill="white"/>
<path d="M209.32 79.2202V56.7202H214.4V79.2202H209.32Z" fill="white"/>
<path d="M219.42 79.2202V56.7202H233.67V61.4502H224.43V65.7302H232.81V70.1402H224.43V74.4602H233.7V79.2202H219.42Z" fill="white"/>
<path d="M249.06 63.5102C248.9 62.4602 248.04 60.6802 245.32 60.6802C243.45 60.6802 242.24 61.8502 242.24 63.0902C242.24 64.1702 242.91 64.9602 244.46 65.2502L247.48 65.8202C251.76 66.6102 253.99 69.3702 253.99 72.5802C253.99 76.1002 251.04 79.6902 245.67 79.6902C239.45 79.6902 236.78 75.6602 236.47 72.4902L241.07 71.3802C241.26 73.4402 242.66 75.2502 245.74 75.2502C247.71 75.2502 248.91 74.3002 248.91 72.9002C248.91 71.7602 247.99 70.9302 246.5 70.6502L243.42 70.0802C239.61 69.3502 237.29 66.8102 237.29 63.4802C237.29 59.2302 241.04 56.2402 245.35 56.2402C250.97 56.2402 253.09 59.6002 253.57 62.2402L249.06 63.5102Z" fill="white"/>
<path d="M258.55 79.6703H254.27L265.66 56.2803H269.98L258.55 79.6703Z" fill="white"/>
<path d="M121.71 93.1801V110.89H116.7V93.1801H109.78V88.3901H128.66V93.1801H121.71Z" fill="white"/>
<path d="M138.66 102.52H136.88V110.9H131.86V88.4004H140.78C145.22 88.4004 148.08 91.4504 148.08 95.4504C148.08 98.5004 146.4 100.81 143.64 101.8L148.21 110.91H142.69L138.66 102.52ZM139.83 98.2004C141.89 98.2004 143 97.0604 143 95.4704C143 93.7904 141.89 92.7404 139.83 92.7404H136.88V98.2004H139.83V98.2004Z" fill="white"/>
<path d="M165.38 106.32H156.68L155.06 110.89H149.8L158.27 88.3901H164.08L172.46 110.89H167L165.38 106.32ZM158.34 101.75H163.8L161.1 93.9701L158.34 101.75Z" fill="white"/>
<path d="M187.54 88.3901H192.87L184.65 110.89H179.48L171.23 88.3901H176.75L182.18 104.23L187.54 88.3901Z" fill="white"/>
<path d="M195.79 110.89V88.3901H210.04V93.1201H200.8V97.4001H209.18V101.81H200.8V106.13H210.07V110.89H195.79Z" fill="white"/>
<path d="M214.45 110.89V88.3901H219.46V106.1H229.17V110.89H214.45Z" fill="white"/>
<path d="M106.2 77.4803C111.231 77.4803 115.31 73.4016 115.31 68.3703C115.31 63.3389 111.231 59.2603 106.2 59.2603C101.169 59.2603 97.09 63.3389 97.09 68.3703C97.09 73.4016 101.169 77.4803 106.2 77.4803Z" fill="white"/>
<path d="M106.66 60L109.08 64.9L114.49 65.69L110.58 69.5L111.5 74.89L106.66 72.34L101.83 74.89L102.75 69.5L98.84 65.69L104.25 64.9L106.66 60Z" fill="#3CA8E4"/>
</g>
<g clip-path="url(#clip5_2669_11953)">
<path d="M311.66 174.634C310.425 177.463 307.1 178.769 304.262 177.534L245.367 151.868C242.536 150.633 241.23 147.309 242.466 144.479L257.34 110.366C258.575 107.536 261.9 106.231 264.738 107.466L323.633 133.139C326.463 134.374 327.769 137.698 326.534 140.534L311.66 174.634Z" fill="#140958"/>
<path d="M323.633 133.139L264.738 107.466C261.907 106.231 258.575 107.536 257.34 110.366L252.998 120.316L322.193 150.478L326.534 140.527C327.769 137.698 326.464 134.374 323.633 133.139Z" fill="#140958"/>
<path d="M300.231 149.779C296.405 158.551 286.191 162.566 277.416 158.742C268.641 154.917 264.632 144.705 268.458 135.933C272.284 127.162 282.499 123.153 291.273 126.971C300.048 130.796 304.058 141.007 300.231 149.779Z" fill="#1A3EEC"/>
<path d="M292.579 146.448C290.596 150.993 285.301 153.075 280.755 151.092C276.209 149.109 274.126 143.816 276.11 139.272C278.094 134.727 283.388 132.645 287.934 134.628C292.48 136.611 294.563 141.904 292.579 146.448Z" fill="#EFEFEF"/>
<path d="M318.741 144.282C318.423 145.001 317.576 145.34 316.856 145.023L304.876 139.8C304.156 139.483 303.818 138.636 304.135 137.916L306.938 131.487C307.255 130.768 308.102 130.429 308.823 130.746L320.802 135.969C321.522 136.286 321.861 137.133 321.543 137.853L318.741 144.282Z" fill="white"/>
<path d="M302.18 115.99L298.544 114.402L296.419 113.478L292.777 111.89L285.795 116.647L293.561 120.027L295.685 120.958L303.45 124.339L302.18 115.99Z" fill="#140958"/>
<path d="M276.696 112.681C276.908 111.368 276.223 110.02 274.945 109.463L270.78 107.649C269.503 107.091 268.049 107.501 267.23 108.552L276.696 112.681Z" fill="#140958"/>
<path d="M308.115 105.279L334.316 108.341L328.453 113.422L355.927 123.281L318.816 116.236L325.891 111.928L308.115 105.279Z" fill="white"/>
</g>
<g clip-path="url(#clip6_2669_11953)">
<path d="M50.5303 209.509C47.5114 212.465 42.6171 212.407 39.6541 209.381L-33.2838 134.881C-36.2469 131.855 -36.2012 126.96 -33.1824 124.005L9.77969 81.9431C12.7985 78.9875 17.6928 79.0456 20.6559 82.0721L93.5938 156.571C96.5568 159.598 96.5112 164.492 93.4924 167.448L50.5303 209.509Z" fill="#DC2E81"/>
<path d="M93.5938 156.572L87.2782 150.121C87.2782 150.121 73.0049 160.03 86.7374 174.056L93.4897 167.445C96.5112 164.493 96.5568 159.598 93.5938 156.572Z" fill="#7E1045"/>
<path d="M20.6559 82.0723L26.9714 88.523C26.9714 88.523 16.7626 102.583 3.03004 88.5568L9.78235 81.946C12.7985 78.9877 17.6928 79.0458 20.6559 82.0723Z" fill="#7E1045"/>
<path d="M18.5171 117.405L10.0387 108.745L6.20194 112.501L14.6804 121.161L18.5171 117.405Z" fill="#F9BA57"/>
<path d="M35.2018 96.9291L31.4627 93.1099L-22.4743 145.916L-18.7351 149.736L35.2018 96.9291Z" fill="#7E1045"/>
<path d="M34.6018 96.3163L30.8626 92.4971L-23.0744 145.304L-19.3352 149.123L34.6018 96.3163Z" fill="#F9BA57"/>
<path d="M18.5015 116.774L10.023 108.114L6.18628 111.871L14.6648 120.531L18.5015 116.774Z" fill="#7E1045"/>
<path d="M6.61714 121.682C6.13891 122.15 5.36897 122.141 4.89957 121.661C4.43017 121.182 4.43735 120.412 4.91558 119.944C5.39381 119.476 6.16376 119.485 6.63316 119.964C7.10256 120.444 7.09538 121.214 6.61714 121.682Z" fill="#F9BA57"/>
<path d="M17.9154 110.62C17.4372 111.089 16.6672 111.079 16.1978 110.6C15.7284 110.12 15.7356 109.351 16.2138 108.882C16.6921 108.414 17.462 108.423 17.9314 108.903C18.4008 109.382 18.3936 110.152 17.9154 110.62Z" fill="#7E1045"/>
<path d="M27.0616 101.666C26.5833 102.134 25.8134 102.125 25.344 101.645C24.8746 101.166 24.8818 100.396 25.36 99.9277C25.8382 99.4595 26.6082 99.4687 27.0776 99.9481C27.547 100.428 27.5398 101.198 27.0616 101.666Z" fill="#7E1045"/>
<path d="M12.5925 118.414C12.5022 119.143 12.1779 119.85 11.6127 120.403L9.83024 122.148C8.50424 123.446 6.37746 123.421 5.07595 122.092C3.77444 120.762 3.79427 118.636 5.12027 117.337L6.90278 115.592C7.46796 115.039 8.17898 114.727 8.91199 114.655L7.79717 113.516C7.28899 113.731 6.81227 114.038 6.39381 114.447L3.98635 116.804C2.19841 118.555 2.1716 121.43 3.92651 123.222C5.68141 125.015 8.55661 125.049 10.3445 123.299L12.752 120.942C13.1705 120.532 13.4872 120.062 13.7126 119.558L12.5925 118.414V118.414Z" fill="#F9BA57"/>
<path d="M3.24808 124.661C2.91114 124.99 2.37272 124.984 2.04201 124.646C1.7113 124.308 1.71903 123.767 2.05325 123.44L5.07753 120.479C5.41446 120.149 5.95556 120.158 6.2836 120.494C6.61431 120.831 6.60929 121.37 6.27236 121.7L3.24808 124.661Z" fill="#D3830D"/>
<path d="M13.4086 119.248L12.2938 118.109C12.2035 118.838 11.8765 119.542 11.3114 120.095L9.52887 121.84C8.4148 122.931 6.73331 123.083 5.4535 122.314L6.179 121.604C6.51594 121.274 6.52096 120.736 6.19025 120.398C5.85953 120.06 5.32111 120.054 4.98417 120.384L4.25867 121.094C3.51687 119.798 3.70483 118.12 4.8189 117.03L6.6014 115.284C7.16658 114.731 7.8776 114.419 8.61061 114.347L7.49312 113.206C6.98494 113.42 6.50822 113.727 6.08977 114.137L3.6823 116.494C2.10088 118.042 1.9006 120.463 3.08483 122.243L1.9599 123.345C1.62296 123.674 1.62061 124.216 1.94865 124.551C2.27936 124.888 2.82051 124.892 3.15473 124.565L4.27966 123.464C6.0345 124.685 8.46179 124.534 10.0405 122.988L12.448 120.631C12.8664 120.221 13.1831 119.751 13.4086 119.248Z" fill="#FFE1D5"/>
<path d="M67.0597 166.986L58.5812 158.326L54.7445 162.082L63.223 170.742L67.0597 166.986Z" fill="#F9BA57"/>
<path d="M83.7444 146.511L80.0052 142.691L26.0683 195.498L29.8075 199.317L83.7444 146.511Z" fill="#7E1045"/>
<path d="M83.1443 145.898L79.4052 142.079L25.4682 194.885L29.2074 198.704L83.1443 145.898Z" fill="#F9BA57"/>
<path d="M67.0441 166.356L58.5656 157.696L54.7289 161.452L63.2073 170.112L67.0441 166.356Z" fill="#7E1045"/>
<path d="M66.458 160.202C65.9797 160.67 65.2098 160.661 64.7404 160.181C64.271 159.702 64.2782 158.932 64.7564 158.464C65.2346 157.996 66.0046 158.005 66.474 158.484C66.9434 158.964 66.9362 159.734 66.458 160.202Z" fill="#7E1045"/>
<path d="M75.6041 151.247C75.1259 151.715 74.356 151.706 73.8866 151.227C73.4172 150.747 73.4244 149.977 73.9026 149.509C74.3808 149.041 75.1508 149.05 75.6202 149.53C76.0896 150.009 76.0824 150.779 75.6041 151.247Z" fill="#7E1045"/>
<path d="M61.1324 167.993C61.0421 168.721 60.7152 169.426 60.15 169.979L58.3675 171.724C57.0415 173.022 54.9147 172.997 53.6132 171.668C52.3117 170.338 52.3315 168.212 53.6575 166.913L55.44 165.168C56.0052 164.615 56.7162 164.303 57.4466 164.228L56.3317 163.089C55.8236 163.304 55.3468 163.611 54.9284 164.021L52.5209 166.378C50.733 168.128 50.7062 171.003 52.4611 172.796C54.216 174.588 57.0912 174.622 58.8791 172.872L61.2866 170.515C61.705 170.105 62.0217 169.635 62.2472 169.131L61.1324 167.993V167.993Z" fill="#F9BA57"/>
<path d="M61.9512 168.829L60.8363 167.691C60.7461 168.419 60.4191 169.123 59.8539 169.677L58.0714 171.422C56.9574 172.513 55.2759 172.665 53.9961 171.896L54.7216 171.186C55.0585 170.856 55.0635 170.317 54.7328 169.98C54.4021 169.642 53.8637 169.635 53.5267 169.965L52.8012 170.675C52.0594 169.38 52.2474 167.702 53.3615 166.611L55.144 164.866C55.7091 164.313 56.4202 164.001 57.1505 163.926L56.0357 162.787C55.5275 163.002 55.0508 163.309 54.6323 163.718L52.2249 166.075C50.6434 167.624 50.4432 170.044 51.6274 171.825L50.5025 172.926C50.1655 173.256 50.1605 173.794 50.4912 174.132C50.8219 174.47 51.3631 174.474 51.6973 174.147L52.8222 173.045C54.5771 174.267 57.0044 174.115 58.5831 172.57L60.9905 170.213C61.409 169.803 61.7257 169.333 61.9512 168.829Z" fill="#FFE1D5"/>
<path d="M74.0495 119.313L66.0111 111.102L57.9727 102.892C57.9727 102.892 54.9269 99.7808 51.4896 103.146C49.2724 105.317 46.278 108.248 46.278 108.248L49.9771 112.027L55.3002 106.815L62.6852 114.358L70.0702 121.901L64.7499 127.11L68.449 130.889C68.449 130.889 71.4434 127.957 73.6607 125.786C77.0952 122.424 74.0495 119.313 74.0495 119.313Z" fill="#7E1045"/>
<path d="M49.0491 111.073L55.0107 105.237L71.6556 122.238L65.694 128.075L64.7499 127.11L70.0702 121.902L55.3029 106.818L49.9825 112.027L49.0491 111.073Z" fill="#FF74B7"/>
</g>
<path d="M122.245 147.011C122.041 146.124 123.16 141.38 123.003 141.291C122.825 141.194 119.774 144.862 118.966 145.188C117.935 145.598 113.929 144.151 114.086 144.685C114.246 145.225 117.482 147.777 117.349 148.419C117.113 149.524 116.282 153.74 116.599 154.14C117.108 154.219 119.916 151.072 120.644 150.244C121.07 149.762 124.896 151.136 125.406 150.962C125.916 150.796 122.516 148.128 122.254 147.004L122.245 147.011Z" fill="white"/>
<path d="M301.64 48.9926C301.302 48.9926 300.979 48.7915 300.844 48.4639C299.689 45.6789 299.719 43.0875 300.934 40.7493C302.78 37.2122 307.4 34.457 313.949 32.9826C318.915 31.8656 321.435 29.6391 321.435 26.3701C321.435 25.3052 321.165 24.2031 320.722 23.1234C318.547 22.8404 316.342 21.999 314.451 20.8597C311.121 18.8416 309.553 16.3322 310.453 14.4557C310.678 13.9865 311.413 12.9291 313.251 13.3461C315.929 13.9493 319.867 17.4343 321.878 21.4777C323.97 21.5671 325.981 21.0011 327.316 19.2512C329.364 16.5779 327.848 14.2844 325.208 10.7547C322.695 7.39636 319.845 3.5912 321.502 -1.41285C321.652 -1.85965 322.14 -2.10538 322.59 -1.95645C323.04 -1.80752 323.288 -1.3235 323.138 -0.876706C321.758 3.27845 324.218 6.56235 326.588 9.73457C329.064 13.0334 331.621 16.4513 328.689 20.2863C327.158 22.2819 324.968 23.1457 322.598 23.2202C322.95 24.2702 323.153 25.3276 323.153 26.3701C323.153 29.2444 321.622 33.0124 314.324 34.658C308.278 36.0207 304.07 38.4632 302.465 41.546C301.49 43.4151 301.482 45.5225 302.435 47.816C302.615 48.2554 302.405 48.7543 301.97 48.933C301.865 48.9777 301.752 49 301.64 49V48.9926ZM312.456 14.962C312.111 14.962 312.036 15.1184 312.006 15.1929C311.541 16.1535 312.981 17.963 315.344 19.3927C316.537 20.115 318.089 20.7926 319.71 21.165C317.774 18.0225 314.661 15.4163 312.869 15.0141C312.704 14.9769 312.569 14.962 312.464 14.962H312.456Z" fill="#FFC854"/>
</g>
<defs>
<filter id="filter0_f_2669_11953" x="79" y="-5" width="182" height="182" filterUnits="userSpaceOnUse" color-interpolation-filters="sRGB">
<feFlood flood-opacity="0" result="BackgroundImageFix"/>
<feBlend mode="normal" in="SourceGraphic" in2="BackgroundImageFix" result="shape"/>
<feGaussianBlur stdDeviation="15" result="effect1_foregroundBlur_2669_11953"/>
</filter>
<clipPath id="clip0_2669_11953">
<rect width="340" height="168" fill="white"/>
</clipPath>
<clipPath id="clip1_2669_11953">
<rect width="151" height="145" fill="white" transform="translate(197 76)"/>
</clipPath>
<clipPath id="clip2_2669_11953">
<rect width="106" height="80" fill="white" transform="translate(185 -20)"/>
</clipPath>
<clipPath id="clip3_2669_11953">
<rect width="362" height="96" fill="white" transform="translate(-96 -37)"/>
</clipPath>
<clipPath id="clip4_2669_11953">
<rect width="219.3" height="73.23" fill="white" transform="translate(60 47)"/>
</clipPath>
<clipPath id="clip5_2669_11953">
<rect width="98" height="85" fill="white" transform="translate(242 93)"/>
</clipPath>
<clipPath id="clip6_2669_11953">
<rect width="119.661" height="87.5872" fill="white" transform="translate(23.9147 68.1045) rotate(45.6067)"/>
</clipPath>
</defs>
</svg>
