<svg width="340" height="168" viewBox="0 0 340 168" fill="none" xmlns="http://www.w3.org/2000/svg">
<g clip-path="url(#clip0_2669_11587)">
<rect width="340" height="168" fill="#662FBF"/>
<g filter="url(#filter0_f_2669_11587)">
<circle cx="170" cy="86" r="61" fill="#8448E4"/>
</g>
<path d="M71.7923 -12.6329L268.527 -12.6329L170.16 157.744L71.7923 -12.6329Z" fill="#B98EFD"/>
<path d="M253.792 -12.6329L450.527 -12.6329L352.16 157.744L253.792 -12.6329Z" fill="#B98EFD"/>
<g clip-path="url(#clip1_2669_11587)">
<path d="M321.462 28.9509C323.024 28.4395 324.624 28.5254 326.277 29.8851C327.914 31.2368 328.565 33.1036 328.554 35.0875C329.446 34.8285 330.346 34.693 331.223 34.7304C333.644 34.8255 336.768 36.2405 337.915 42.4086C338.869 47.5209 340.792 51.137 343.332 52.584C344.874 53.4635 346.658 53.5485 348.618 52.8208C348.996 52.6839 349.408 52.8736 349.545 53.2526C349.681 53.6256 349.494 54.0442 349.118 54.1871C346.733 55.0474 344.552 54.9399 342.621 53.843C339.705 52.1747 337.53 48.2108 336.497 42.6742C335.716 38.4724 333.918 36.2859 331.169 36.1788C330.272 36.1412 329.336 36.3282 328.412 36.6705C328.106 38.4794 327.323 40.3051 326.304 41.8507C324.495 44.5753 322.33 45.8071 320.786 44.9814C320.396 44.7779 319.529 44.1276 319.939 42.596C320.531 40.3691 323.596 37.1869 327.065 35.6411C327.211 33.8909 326.792 32.1868 325.369 31.0036C323.179 29.1967 321.199 30.3879 318.147 32.4797C315.234 34.4728 311.941 36.7362 307.777 35.1713C307.401 35.0296 307.212 34.6145 307.353 34.2373C307.493 33.8601 307.907 33.6717 308.284 33.8134C311.739 35.1131 314.581 33.1633 317.332 31.2825C318.686 30.3559 320.066 29.4076 321.474 28.947L321.462 28.9509ZM322.244 43.7092C323.073 43.4379 324.156 42.4479 325.095 41.041C325.746 40.0662 326.36 38.7926 326.731 37.4458C324.019 38.9626 321.727 41.4811 321.329 42.969C321.175 43.5491 321.367 43.6518 321.449 43.6981C321.664 43.8129 321.934 43.8107 322.244 43.7092Z" fill="white"/>
</g>
<g clip-path="url(#clip2_2669_11587)">
<path d="M25.9637 126.228C25.9637 126.228 24.2227 123.832 25.732 121.315C27.2414 118.798 33.6031 114.793 44.0588 119.529C44.4161 123.393 48.4008 125.912 53.1847 127.174C61.6472 129.385 73.298 117.9 76.6381 114.244C81.5267 108.895 88.1781 102.502 96.7316 98.9045C104.373 95.6947 104.864 96.7582 104.864 96.7582C104.864 96.7582 111.982 106.876 104.58 118.71C101.485 123.668 95.669 130.406 92.8158 127.174C91.5997 125.794 89.7352 124.249 89.7352 124.249L81.0606 126.807L72.2801 131.826L59.7428 142.518L49.1514 141.741L25.9637 126.228Z" fill="#F16A4D"/>
<path d="M101.342 123.184C102.55 121.739 103.676 120.154 104.575 118.723C105.217 117.71 105.739 116.696 106.175 115.708C99.5293 114.932 91.4978 117.591 83.8143 120.83C74.5138 124.743 56.5716 144.67 38.3561 129.211C35.0449 126.409 30.8715 123.023 27.9667 119.191C26.8903 119.88 26.1447 120.654 25.7452 121.32C24.2358 123.837 25.9769 126.233 25.9769 126.233L49.1462 141.755L59.7376 142.532L72.2749 131.839L81.0553 126.821L89.7299 124.263C89.7299 124.263 98.3611 126.738 101.342 123.184Z" fill="#F4502A"/>
<path d="M25.122 122.707C25.122 122.707 36.2283 134.795 49.9926 140.456C56.2696 142.704 60.1231 140.593 63.2025 137.521C66.2871 134.435 74.2167 128.226 80.8117 125.092C87.4067 121.957 99.6375 118.85 104.63 118.852C104.276 120.558 102.187 124.082 99.9273 127.615C98.2712 130.197 90.9903 143.146 88.1927 149.351C85.0117 156.412 81.5089 164.672 81.5089 164.672C81.5089 164.672 79.5907 164.572 75.7032 163.037C77.8081 157.704 89.0782 129.453 88.5918 128.147C88.1053 126.841 86.8787 126.372 82.756 127.934C78.6334 129.496 69.9914 133.395 60.776 146.939C56.1092 153.688 51.4383 153.447 49.4748 153.114C47.5245 152.787 24.592 141.204 21.8828 134.184C22.2253 130.047 25.122 122.707 25.122 122.707Z" fill="#E8390A"/>
<path d="M88.1626 126.696C87.0988 126.276 85.669 126.322 83.0455 127.316C79.987 128.49 69.6719 131.743 59.7928 146.276C56.6598 150.792 51.8705 152.275 48.6958 151.357C45.7155 150.486 26.4515 140.031 21.973 133.61C21.9526 133.815 21.9243 134.003 21.9091 134.195C24.6182 141.215 47.5376 152.792 49.5011 153.125C51.4514 153.452 56.1223 153.693 60.8023 146.949C70.0046 133.4 78.6596 129.507 82.7823 127.945C86.905 126.383 88.1316 126.852 88.618 128.157C89.1045 129.463 77.8344 157.714 75.7295 163.048C76.0841 163.188 76.4256 163.323 76.746 163.434C76.806 163.32 76.8581 163.188 76.9102 163.056L77.3426 161.96C86.08 139.897 88.1359 132.072 89.0126 129.427C89.5171 127.841 88.7799 126.94 88.1626 126.696Z" fill="#B51D04"/>
<path d="M82.3196 162.811C80.1199 162.461 78.0111 161.766 76.4431 161.163C76.1357 161.942 75.8856 162.576 75.7032 163.038C79.5907 164.572 81.522 164.678 81.522 164.678C81.522 164.678 81.8165 163.97 82.3196 162.811Z" fill="#B51D04"/>
<path d="M24.5335 124.275C27.4305 127.203 37.3152 136.887 48.8755 141.632C56.035 144.183 60.9634 140.849 63.7497 138.057C66.9389 134.86 74.8884 129.178 81.2764 126.145C87.6513 123.107 98.4674 120.738 103.682 120.37C103.821 120.363 103.955 120.37 104.094 120.364C104.36 119.767 104.55 119.247 104.636 118.838C99.6427 118.836 87.3987 121.939 80.8169 125.079C74.2219 128.213 66.2871 134.435 63.2077 137.508C60.1283 140.58 56.2748 142.691 49.9977 140.443C36.2283 134.795 25.1272 122.694 25.1272 122.694C25.1272 122.694 24.8824 123.314 24.5335 124.275Z" fill="#FF8C71"/>
<path d="M32.3556 119.916C32.3556 119.916 36.4631 118.546 39.1623 120.207C40.3755 122.44 42.8266 124.46 46.3808 126.915C40.5201 127.151 32.3556 119.916 32.3556 119.916Z" fill="#FF8C71"/>
</g>
<path d="M-110.208 -12.6329L86.5268 -12.6329L-11.8404 157.744L-110.208 -12.6329Z" fill="#B98EFD"/>
<g clip-path="url(#clip3_2669_11587)">
<path d="M222.578 84.5349C228.082 98.4848 244.524 107.318 246.089 122.239C246.756 128.655 244.434 134.945 242.477 141.104C239.328 151.009 237.06 161.193 235.717 171.501C235.237 175.131 234.876 178.771 234.631 182.42C234.436 185.228 234.065 188.529 235.114 191.228C237.027 196.122 244.746 197.264 249.121 195.857C253.668 194.4 257.994 191.452 262.744 191.878C268.946 192.422 274.494 198.614 280.387 196.592C282.166 195.99 283.603 194.685 285.296 193.879C286.988 193.072 289.268 192.87 290.516 194.244C291.362 195.16 291.499 196.505 291.954 197.66C293.281 201.037 297.327 202.675 300.955 202.377C304.583 202.079 307.899 200.272 311.082 198.502C310.256 195.427 313.003 192.468 315.968 191.245C318.92 190.025 322.246 189.827 325.088 188.368C330.734 185.474 333.041 178.475 338.276 174.884C342.178 172.212 347.144 171.779 351.568 170.087C354.982 168.78 358.66 165.971 359.335 162.172C359.523 161.163 359.447 160.286 359.081 159.348C358.008 156.513 356.08 153.748 354.614 151.096C353.084 148.319 351.514 145.553 349.885 142.832C343.622 132.335 336.414 122.247 327.115 114.191C323.431 110.995 319.311 107.98 317.248 103.57C311.628 91.4933 324.154 75.9715 317.312 64.5394C316.168 62.623 314.556 61.0246 312.951 59.4527C305.94 52.5472 298.916 45.6454 291.901 38.7267C283.029 46.8398 275.165 56.0373 268.554 66.0649C268.724 65.803 256.869 59.71 255.767 59.2084C253.532 58.1994 251.26 57.2582 248.953 56.3981C246.903 55.6365 244.72 54.6559 242.529 54.4618C237.944 54.0601 238.234 59.4985 237.261 62.6978C236.053 66.6908 234.281 70.515 232.019 74.0215C229.476 78.0067 226.272 81.5796 222.578 84.5349Z" fill="#FFCB4D"/>
<path d="M230.741 86.6929C238.904 88.3944 244.371 95.8217 249.035 102.691C251.392 106.162 253.766 109.642 256.123 113.113C257.032 114.454 258.246 116.264 257.58 117.965C257.091 119.23 255.955 119.722 254.822 118.958C253.617 118.143 253.012 116.56 252.479 115.284C251.857 113.791 251.118 112.345 250.255 110.962C246.724 105.313 241.667 100.808 237.273 95.8592C234.788 93.0522 232.452 90.0607 230.741 86.6929Z" fill="#F5BB2D"/>
<path d="M240.427 87.3935C239.683 86.4341 238.901 85.3426 239.033 84.1356C239.165 82.9287 240.817 81.977 241.629 82.8742C241.337 78.9486 241.028 75.0134 240.735 71.0878C247.143 77.7358 246.433 88.5633 251.408 96.3294C253.743 99.9774 257.207 102.75 260.109 105.967C262.156 108.241 264.354 111.201 264.82 114.321C264.949 115.183 264.741 116.526 263.553 116.534C262.422 116.539 261.303 114.302 260.691 113.505C256.337 107.889 251.971 102.276 247.617 96.659C245.229 93.5824 242.836 90.4927 240.427 87.3935Z" fill="#F5BB2D"/>
<path d="M245.227 69.2333C244.562 68.4513 243.865 67.607 243.721 66.592C243.578 65.577 244.282 64.3653 245.303 64.3764C246.109 64.3909 246.722 65.0879 247.206 65.7357C257.01 78.6703 265.904 92.29 273.79 106.451C274.87 108.4 275.97 110.514 275.767 112.739C275.649 113.943 274.595 116.251 273.107 116.258C271.832 116.262 271.283 114.42 270.904 113.486C269.411 109.671 267.951 105.876 266.226 102.155C262.697 94.5369 258.508 87.2192 253.723 80.3267C251.078 76.4953 248.239 72.7899 245.227 69.2333Z" fill="#F5BB2D"/>
<path d="M270.128 78.6862C269.436 77.5552 268.695 76.3525 268.767 75.0341C268.838 73.7158 270.189 72.4071 271.417 72.9014C271.854 73.0775 272.19 73.4534 272.491 73.8104C279.9 82.5292 284.705 93.396 286.245 104.729C286.445 106.199 286.589 107.67 286.679 109.157C286.731 109.998 286.98 111.183 286.403 111.931C285.432 113.161 283.367 112.446 282.274 111.828C280.302 110.731 279.613 109.156 279.296 107.021C278.856 103.993 278.551 100.984 277.881 98.006C276.36 91.2038 273.732 84.643 270.128 78.6862Z" fill="#F5BB2D"/>
<path d="M291.465 106.007C294.313 93.163 294.415 79.7259 291.779 66.8483C291.439 65.1897 291.056 63.4293 291.639 61.8383C292.221 60.2473 294.199 59.032 295.66 59.8889C296.963 60.6474 297.096 62.4357 297.077 63.939C296.962 75.554 296.851 87.1823 296.737 98.7973C296.698 102.36 296.597 106.112 294.851 109.315C294.32 110.278 293.319 111.959 292.036 111.124C290.501 110.102 291.156 107.45 291.465 106.007Z" fill="#F5BB2D"/>
<path d="M301.686 58.8986C302.413 70.8037 303.127 82.7124 303.854 94.6174C306.145 88.0647 308.422 81.5158 310.712 74.9631C311.011 74.094 311.487 73.0895 312.4 72.974C313.204 72.8754 313.928 73.6122 314.108 74.4028C314.289 75.1934 314.062 76.0135 313.837 76.7903C311.364 85.4345 308.89 94.0787 306.43 102.719C306.065 103.963 305.545 105.822 304.098 106.231C302.78 106.589 301.978 105.375 301.625 104.277C300.599 101.001 300.747 96.9079 300.456 93.4952C299.827 86.0984 299.485 78.6492 299.997 71.2298C300.26 67.09 300.798 62.9582 301.686 58.8986Z" fill="#F5BB2D"/>
<path d="M238.283 188.292C238.551 187.518 238.347 186.235 238.373 185.414C238.413 184.39 238.466 183.362 238.533 182.33C238.665 180.311 238.84 178.293 239.049 176.294C239.478 172.235 240.086 168.198 240.845 164.189C242.374 156.211 244.57 148.358 247.387 140.73C248.795 136.937 250.345 133.19 252.06 129.524C252.586 128.391 253.427 125.942 254.911 127.691C255.964 128.934 254.659 131.771 254.339 133.174C252.318 141.947 250.05 150.661 247.564 159.309C245.077 167.957 242.345 176.546 239.403 185.052C239.05 186.136 238.666 187.214 238.283 188.292Z" fill="#F5BB2D"/>
<path d="M256.855 174.029C255.038 179.064 252.226 184.68 246.964 185.739C250.817 170.315 254.684 154.886 258.538 139.461C259.023 137.527 259.505 135.579 259.99 133.645C260.319 132.325 260.568 129.958 261.555 128.938C263.038 127.391 264.612 130.27 265.094 131.418C266.272 134.166 265.639 136.998 265.24 139.85C264.741 143.457 264.123 147.055 263.398 150.626C261.778 158.587 259.589 166.409 256.855 174.029Z" fill="#F5BB2D"/>
<path d="M272.175 160.485C271.572 170.269 270.785 180.619 265.057 188.6C267.345 189.394 269.954 188.329 271.609 186.577C273.277 184.822 274.152 182.492 274.878 180.19C278.394 168.998 278.873 157.151 278.158 145.542C277.792 139.683 277.149 133.86 276.406 128.036C276.3 127.153 276.506 125.397 275.287 125.342C273.907 125.276 274.192 127.149 274.141 128.034C273.938 131.372 273.735 134.71 273.532 138.049C273.092 145.519 272.625 152.997 272.175 160.485Z" fill="#F5BB2D"/>
<path d="M289.393 139.301C289.397 144.791 288.599 150.337 289.457 155.758C290.294 160.999 292.656 165.909 293.299 171.176C293.88 175.819 293.091 180.535 293.519 185.193C293.946 189.851 296.013 194.83 300.314 196.71C299.856 196.511 299.846 190.794 299.781 190.057C299.576 187.761 299.332 185.476 299.071 183.182C298.552 178.607 297.923 174.049 297.197 169.504C295.735 160.374 293.847 151.308 291.56 142.354C290.302 137.446 289.184 132.27 287.349 127.554C287.148 128.21 287.791 129.169 288.018 129.818C288.362 130.834 288.63 131.885 288.829 132.941C289.235 135.038 289.394 137.175 289.393 139.301Z" fill="#F5BB2D"/>
<path d="M312.993 170.575C315.308 176.026 318.146 182.014 323.692 184.141C316.537 170.586 310.63 156.379 306.053 141.754C304.742 137.574 303.523 133.311 301.371 129.497C299.617 126.384 297.075 123.322 293.809 121.706C291.093 120.362 293.06 123.572 293.586 124.822C294.476 126.909 295.354 129.001 296.245 131.088C299.818 139.522 303.391 147.955 306.977 156.385C308.985 161.109 310.998 165.847 312.993 170.575Z" fill="#F5BB2D"/>
<path d="M326.497 158.514C322.065 150.437 317.633 142.361 313.201 134.285C311.133 130.518 309.184 126.562 306.784 122.989C306.168 122.079 304.949 121.468 304.156 122.719C303.434 123.864 305.008 126.087 305.498 127.161C308.88 134.564 313.024 141.624 317.87 148.171C319.215 149.988 320.609 151.776 322.062 153.52C323.379 155.087 325.522 156.736 326.497 158.514Z" fill="#F5BB2D"/>
<path d="M349.521 169.995C349.067 169.253 349.03 167.852 348.8 166.989C348.528 165.925 348.233 164.881 347.908 163.832C347.275 161.743 346.548 159.68 345.729 157.644C344.108 153.58 342.153 149.654 339.915 145.893C335.433 138.401 329.777 131.626 323.205 125.866C319.929 122.997 316.427 120.392 312.739 118.097C311.693 117.437 308.79 114.976 307.601 115.94C305.948 117.291 309.536 119.644 310.408 120.496C317.477 127.456 324.147 134.829 330.349 142.576C336.561 150.307 342.306 158.412 347.564 166.825C348.217 167.867 348.874 168.923 349.521 169.995Z" fill="#F5BB2D"/>
<path d="M354.122 160.008C349.964 150.87 344.839 142.119 339.088 133.887C333.319 125.647 326.829 117.895 319.701 110.78C319.302 110.379 318.053 108.749 317.386 108.724C316.894 108.706 317.095 108.706 317.115 109.186C317.148 109.861 317.97 110.841 318.301 111.404C319.014 112.557 319.776 113.683 320.552 114.805C324.833 120.927 329.807 126.254 334.771 131.798C341.574 139.39 347.839 147.562 352.492 156.674C353.073 157.765 353.604 158.884 354.122 160.008Z" fill="#F5BB2D"/>
<path opacity="0.22" d="M312.851 106.268C312.255 105.124 310.296 105.949 310.73 107.181C311.215 108.542 309.607 109.396 308.455 109.222C307.194 109.022 306.063 108.115 305.091 107.363C304.321 106.767 303.28 106.99 302.968 107.963C302.377 109.827 301.64 111.633 300.754 113.367C300.113 112.621 299.459 111.879 298.776 111.187C298.135 110.541 297.482 109.955 296.549 109.848C294.683 109.634 293.405 111.25 292.815 112.815C292.471 113.725 292.441 114.989 291.815 115.765C290.897 116.88 290.238 115.611 289.688 114.882C288.768 113.659 287.888 112.724 286.288 112.591C285.832 112.549 285.44 112.887 285.206 113.225C283.948 115.064 283.05 117.058 282.477 119.188C281.574 118.53 280.866 117.19 280.23 116.514C279.318 115.516 278.145 114.764 276.733 114.991C275.304 115.21 274.449 116.293 273.935 117.565C273.539 118.547 273.413 119.981 272.775 120.917C271.523 119.63 270.461 118.205 269.581 116.613C269.16 115.833 268.067 115.971 267.641 116.648C267.06 117.582 266.461 118.507 265.88 119.442C265.663 119.789 264.511 122.154 264.118 122.236C263.273 122.39 263.096 120.699 262.888 120.216C262.633 119.618 262.338 119.131 261.775 118.762C259.442 117.253 257.69 120.23 256.925 121.987C256.473 123.027 255.931 124.251 254.684 123.947C253.562 123.679 253.687 122.802 253.365 121.866C253.138 121.217 252.692 120.245 251.836 120.258C250.936 120.27 250.124 121.555 249.676 122.252C248.921 123.436 248.546 124.697 248.668 126.089C248.69 126.268 248.966 126.333 249.01 126.135C249.29 124.943 250.225 121.355 251.804 121.822C252.807 122.124 252.561 123.991 253.271 124.831C254.958 126.794 257.244 124.536 258.097 122.94C258.442 122.286 258.68 121.605 259.162 121.027C259.653 120.432 260.349 119.55 261.187 120.84C261.341 121.081 261.351 121.521 261.416 121.802C261.69 122.923 262.242 124.065 263.427 124.457C264.549 124.825 265.4 124.185 266.01 123.3C266.909 122.018 267.75 120.682 268.594 119.36C269.541 120.833 270.668 122.183 271.958 123.402C272.333 123.766 272.924 123.828 273.378 123.557C274.559 122.866 275.118 121.753 275.553 120.503C275.833 119.668 276.108 117.293 277.359 117.411C278.42 117.51 279.436 119.534 280.069 120.254C280.98 121.294 281.988 121.922 283.368 122.089C283.885 122.142 284.476 121.647 284.565 121.151C284.975 119.053 285.756 117.149 286.851 115.342C287.67 115.909 288.376 117.393 289.001 117.929C290.007 118.801 291.441 119.108 292.648 118.411C294.106 117.585 294.511 115.873 294.956 114.406C295.081 113.986 295.242 113.184 295.584 112.874C296.536 112.034 296.998 112.959 297.5 113.516C298.395 114.504 299.26 115.487 300.156 116.474C300.703 117.09 301.736 116.841 302.108 116.18C303.184 114.307 304.097 112.365 304.848 110.356C306.547 111.502 308.496 112.363 310.522 111.619C312.728 110.753 313.975 108.418 312.851 106.268Z" fill="#F5BB2D"/>
<path d="M239.941 47.8899C238.404 45.5428 236.735 43.2898 234.971 41.1065C233.187 38.9005 231.312 36.7774 229.312 34.7747C227.589 33.0366 225.605 31.3433 223.128 30.8451C217.942 29.786 214.476 34.36 215.497 39.1923C216.045 41.7905 217.695 44.0773 219.281 46.1397C220.818 48.1302 222.498 49.9664 224.354 51.667C228.286 55.2346 233.082 58.8149 238.58 59.1011C238.698 59.1107 238.753 58.9524 238.674 58.8749C235.627 56.1557 232.02 54.1938 228.862 51.5914C225.687 48.9794 222.844 45.9173 220.559 42.4976C219.394 40.7585 218.179 38.6911 218.584 36.5227C219.024 34.1732 221.241 33.4468 223.317 34.3009C225.243 35.0831 226.743 36.8416 228.135 38.317C229.734 40.019 231.264 41.7833 232.713 43.6134C234.35 45.7041 235.896 47.8776 237.334 50.1245C238.592 52.0939 239.626 54.94 241.7 56.1939C242.494 56.6687 243.398 56.0137 243.434 55.1763C243.552 52.6037 241.272 49.9103 239.941 47.8899Z" fill="#FFCB4D"/>
<path d="M297.594 11.2993C294.106 13.6117 293.107 18.3444 292.778 22.2031C292.547 24.9358 292.538 27.6915 292.485 30.4453C292.423 33.4726 291.88 36.8782 292.393 39.8573C292.457 40.2384 293.011 40.1677 293.105 39.8415C293.854 37.319 293.724 34.3744 293.972 31.7511C294.231 29.0675 294.45 26.3951 294.74 23.7171C294.99 21.4069 295.375 19.0159 296.315 16.8671C297.262 14.6882 300.152 10.9187 302.225 14.2983C303.54 16.4659 302.863 19.9523 302.692 22.34C302.489 25.1218 302.165 27.8808 301.711 30.6339C300.813 36.0798 299.439 41.3608 297.925 46.6529C297.281 48.8889 300.787 49.7811 301.43 47.5451C302.872 42.5019 303.776 37.2824 304.43 32.0907C304.747 29.5618 304.977 27.0291 305.177 24.4905C305.385 21.8785 305.677 19.1572 305.44 16.5425C305.08 12.7356 301.615 8.63685 297.594 11.2993Z" fill="#FFCB4D"/>
<path d="M239.941 47.8901C238.404 45.543 236.735 43.29 234.971 41.1067C233.187 38.9007 231.312 36.7776 229.312 34.7749C227.589 33.0368 225.605 31.3435 223.128 30.8453C221.91 30.5905 220.784 30.666 219.796 30.9738C218.976 32.4323 218.575 34.0576 218.866 35.6444C219.638 34.0141 221.519 33.5682 223.317 34.3011C225.243 35.0833 226.743 36.8418 228.135 38.3172C229.734 40.0192 231.264 41.7835 232.713 43.6136C234.35 45.7043 235.896 47.8778 237.334 50.1247C238.592 52.0941 239.626 54.9402 241.7 56.1941C242.494 56.6689 243.398 56.0139 243.434 55.1765C243.552 52.6039 241.272 49.9105 239.941 47.8901Z" fill="#FFCB4D"/>
<path d="M297.742 11.2149C298.549 11.6859 299.255 12.2567 299.79 13.0328C300.612 12.8002 301.467 13.0864 302.212 14.3024C303.527 16.4699 302.85 19.9564 302.679 22.344C302.476 25.1258 302.152 27.8848 301.697 30.6379C300.8 36.0838 299.426 41.3648 297.912 46.6569C297.268 48.8929 300.773 49.7852 301.417 47.5492C302.858 42.5059 303.763 37.2864 304.417 32.0948C304.734 29.5659 304.964 27.0331 305.164 24.4946C305.372 21.8825 305.663 19.1612 305.426 16.5466C305.078 12.7792 301.705 8.75423 297.742 11.2149Z" fill="#FFCB4D"/>
<path d="M234.466 56.1561C231.655 54.5256 228.988 52.5973 226.537 50.4656C225.356 49.4301 224.213 48.3266 223.155 47.1706C222.098 46.0145 221.187 44.5172 219.951 43.54C219.694 43.3416 219.201 43.5237 219.349 43.8956C219.905 45.3073 221.162 46.5071 222.174 47.6047C223.345 48.8571 224.581 50.0343 225.898 51.1455C228.457 53.3037 231.249 55.0681 234.275 56.4953C234.502 56.5881 234.687 56.279 234.466 56.1561Z" fill="#FFE5A5"/>
<path d="M232.964 40.2906C231.262 38.1753 229.552 35.977 227.333 34.3644C225.364 32.9239 222.908 31.9919 220.436 32.4764C218.031 32.9421 216.06 34.9967 216.667 37.5498C216.699 37.712 216.988 37.6729 216.957 37.5106C216.554 34.2582 220.113 32.7531 222.838 33.2669C225.065 33.693 226.927 35.1069 228.488 36.6769C232.298 40.5216 235.047 45.2793 238.821 49.1484C239.103 49.4393 239.607 49.0403 239.396 48.7004C237.482 45.7322 235.189 43.0425 232.964 40.2906Z" fill="#FFE5A5"/>
<path d="M293.871 21.2524C293.223 23.6751 293.206 26.3045 293.476 28.7815C293.502 28.9739 293.79 28.9782 293.778 28.782C293.701 27.5483 293.712 26.3185 293.81 25.0926C293.917 23.8498 294.142 22.6166 294.367 21.3834C294.421 21.0685 293.952 20.93 293.871 21.2524Z" fill="#FFE5A5"/>
<path d="M302.768 11.7057C302.527 11.4601 302.132 11.7858 302.301 12.0803C305.054 16.7513 304.038 22.844 303.339 27.9771C302.634 33.1403 301.331 38.2159 300.639 43.3754C300.627 43.4357 300.705 43.4566 300.717 43.3963C302.47 37.9367 303.551 32.1252 304.255 26.4489C304.586 23.7163 304.863 20.9421 304.789 18.1957C304.755 15.8945 304.405 13.44 302.768 11.7057Z" fill="#FFE5A5"/>
<path d="M291.429 42.4832C286.82 46.0538 282.86 50.5535 279.209 55.0801C275.645 59.5106 272.437 64.1832 269.579 69.0845C262.107 63.7928 253.78 59.3278 244.89 56.9329C244.752 56.9006 244.655 57.1135 244.8 57.1723C253.505 60.6892 261.853 64.7204 269.48 70.2538C269.699 70.4201 270.046 70.2792 270.17 70.0587C273.126 65.001 276.457 60.1514 280.216 55.6514C283.887 51.2474 288.049 47.3611 292.055 43.2765C292.458 42.8772 291.897 42.1086 291.429 42.4832Z" fill="#FFE5A5"/>
<path d="M239.08 65.6359C238.643 66.3727 238.47 67.3343 238.166 68.1336C237.816 69.0742 237.418 69.9997 237.003 70.9157C236.216 72.5932 235.31 74.2044 234.288 75.7626C232.19 78.9374 229.693 81.8683 226.815 84.3647C226.688 84.472 226.869 84.7062 226.996 84.5989C230.051 82.2235 232.706 79.4476 234.854 76.2445C235.963 74.5902 236.936 72.8603 237.773 71.0547C238.148 70.2499 238.488 69.4262 238.812 68.593C239.141 67.7297 239.634 66.7345 239.674 65.8104C239.704 65.4596 239.236 65.3777 239.08 65.6359Z" fill="#FFE5A5"/>
<path d="M314.023 62.944C311.279 60.2818 308.346 57.8155 305.546 55.2118C302.746 52.608 300.021 49.9119 297.235 47.3044C297.097 47.1722 296.895 47.3718 297.024 47.521C299.566 50.3828 302.288 53.0656 305.059 55.7202C307.827 58.3617 310.598 61.0163 313.637 63.3526C313.924 63.5568 314.295 63.1953 314.023 62.944Z" fill="#FFE5A5"/>
<path d="M269.693 85.9703C266.972 82.0747 263.798 78.5498 260.541 75.0909C258.984 73.4341 257.394 71.815 255.795 70.2129C254.957 69.3797 254.205 68.4939 253.326 67.7153C252.368 66.8593 251.649 65.7358 250.62 64.9853C249.857 64.4163 248.597 64.9292 248.903 66.0124C249.469 67.9637 250.896 69.971 252.098 71.5857C253.439 73.3892 254.772 75.1663 256.254 76.8588C259.325 80.3702 262.562 83.7631 265.329 87.5174C268.071 91.2358 270.296 95.2571 272.364 99.3799C273.42 101.492 274.327 103.689 275.165 105.892C275.941 107.927 276.41 110.247 277.592 112.096C277.669 112.217 277.862 112.191 277.908 112.049C278.449 110.056 278.049 107.83 277.739 105.821C277.378 103.426 276.817 101.089 276.107 98.7787C274.675 94.2193 272.421 89.8924 269.693 85.9703Z" fill="#FFE5A5"/>
<path d="M289.427 63.1905C289.061 62.2524 287.629 62.3576 287.608 63.4478C287.566 65.2283 287.987 67.0209 288.142 68.7885C288.322 70.692 288.524 72.5748 288.717 74.4745C289.099 78.1607 289.336 81.8883 289.552 85.5931C289.751 89.1885 289.84 92.8008 289.859 96.4185C289.873 100.223 289.524 104.059 289.849 107.847C289.86 107.987 290.055 108.017 290.101 107.876C291.184 104.403 291.442 100.65 291.741 97.0422C292.054 93.2307 292.176 89.4019 292.141 85.5747C292.109 81.8607 291.849 78.1539 291.45 74.4582C291.253 72.6452 291.06 70.8455 290.7 69.0643C290.308 67.1209 290.154 65.0533 289.427 63.1905Z" fill="#FFE5A5"/>
<path d="M290.824 49.216C290.074 49.5561 289.418 50.2265 288.832 50.7915C288.214 51.394 287.641 52.0551 287.099 52.722C285.974 54.0669 284.942 55.4855 283.964 56.9457C282.068 59.821 280.421 62.8683 279.464 66.177C279.41 66.3919 279.714 66.5056 279.819 66.319C281.479 63.368 283.149 60.3999 285.194 57.6966C286.186 56.3892 287.254 55.146 288.38 53.9576C288.977 53.3324 289.595 52.7298 290.189 52.0914C290.75 51.4906 291.411 50.89 291.808 50.1644C292.19 49.486 291.435 48.9435 290.824 49.216Z" fill="#FFE5A5"/>
<path d="M292.979 53.3427C292.442 53.6229 291.949 54.0616 291.503 54.4588C291.056 54.8561 290.683 55.361 290.294 55.813C289.897 56.282 289.512 56.7473 289.128 57.2126C288.747 57.691 288.455 58.23 288.163 58.769C287.966 59.1384 288.416 59.4107 288.707 59.1717C289.184 58.7801 289.672 58.4282 290.09 57.9818C290.499 57.5524 290.899 57.14 291.311 56.7238C291.724 56.3077 292.188 55.9199 292.549 55.4753C292.921 55.0138 293.351 54.5071 293.629 53.9719C293.864 53.5347 293.391 53.1265 292.979 53.3427Z" fill="#FFE5A5"/>
<path d="M316.08 77.6261C315.849 78.0765 315.638 78.5496 315.377 78.9943C315.116 79.439 314.745 79.8006 314.518 80.2642C314.036 81.199 313.795 82.3227 313.476 83.3257C312.82 85.3655 312.393 87.4547 311.871 89.5136C311.365 91.5253 310.98 93.5599 310.53 95.5699C310.308 96.5598 310.052 97.5308 309.921 98.5378C309.811 99.4675 309.523 100.376 309.758 101.308C309.807 101.48 310.036 101.529 310.159 101.409C310.829 100.735 311.037 99.8486 311.417 99.0136C311.822 98.1146 312.154 97.2079 312.495 96.2842C313.217 94.3256 314.02 92.4011 314.807 90.4671C315.593 88.5332 316.43 86.6276 317.153 84.669C317.513 83.7114 317.966 82.7276 318.218 81.7434C318.356 81.2192 318.294 80.6948 318.349 80.1799C318.408 79.6783 318.577 79.1599 318.683 78.6734C319.04 77.1461 316.849 76.1391 316.08 77.6261Z" fill="#FFE5A5"/>
<path d="M306.424 67.3453C306.09 67.839 305.967 68.4159 305.8 68.991C305.621 69.6263 305.355 70.1578 305.301 70.8292C305.219 71.908 305.141 72.9999 305.072 74.075C305.038 74.6125 304.99 75.1537 304.959 75.7045C304.925 76.242 305.004 76.7759 304.987 77.3229C304.969 77.8698 304.961 78.3998 304.944 78.9468C304.924 79.5372 305.104 80.0713 305.194 80.6448C305.239 80.9033 305.648 80.9304 305.742 80.7042C305.975 80.2104 306.279 79.7676 306.414 79.2303C306.555 78.6627 306.695 78.0952 306.84 77.5409C306.975 77.0036 307.177 76.5041 307.299 75.9705C307.42 75.4369 307.512 74.8976 307.62 74.3677C307.836 73.308 308.08 72.2408 308.262 71.1622C308.374 70.5456 308.278 70.0022 308.273 69.376C308.268 68.7498 308.316 68.1085 308.105 67.5122C307.862 66.7535 306.879 66.6746 306.424 67.3453Z" fill="#FFE5A5"/>
<path d="M258.187 96.6817C256.105 92.7626 254.283 88.5986 251.823 84.9146C251.322 84.1574 250.19 84.663 250.366 85.5404C251.312 89.9518 253.644 94.1996 256.043 97.9722C258.491 101.816 261.186 105.42 264.455 108.618C264.634 108.796 264.912 108.561 264.795 108.351C262.59 104.453 260.276 100.627 258.187 96.6817Z" fill="#FFE5A5"/>
<path d="M257.871 127.112C255.793 136.443 253.949 145.794 251.474 155.038C250.243 159.608 248.887 164.142 247.487 168.674C246.806 170.878 246.111 173.086 245.416 175.293C244.722 177.501 243.699 179.815 243.466 182.135C243.383 182.957 244.5 183.055 244.871 182.494C246.102 180.663 246.747 178.227 247.496 176.161C248.316 173.889 249.068 171.58 249.79 169.265C251.22 164.638 252.434 159.959 253.541 155.252C255.704 146.068 257.537 136.578 258.187 127.165C258.179 126.982 257.914 126.957 257.871 127.112Z" fill="#FFE5A5"/>
<path d="M269.218 127.043C269.091 137.093 268.125 147.065 265.159 156.705C263.677 161.503 262.26 166.325 260.636 171.078C259.863 173.364 259.03 175.64 258.253 177.913C257.872 179.048 257.511 180.206 257.207 181.361C256.855 182.702 256.933 183.992 256.806 185.369C256.645 187.083 258.963 187.27 259.755 186.119C260.586 184.9 261.406 183.998 261.987 182.607C262.456 181.476 262.942 180.354 263.346 179.198C264.211 176.729 264.967 174.233 265.693 171.731C267.138 166.801 268.335 161.855 269.089 156.764C270.554 146.935 271.598 136.784 269.557 126.976C269.522 126.8 269.222 126.857 269.218 127.043Z" fill="#FFE5A5"/>
<path d="M280.159 126.861C279.973 126.458 279.421 126.785 279.495 127.149C281.295 137.068 282.447 146.827 281.938 156.942C281.681 161.864 281.143 166.809 280.218 171.649C279.774 173.986 279.18 176.293 278.642 178.599C278.125 180.828 276.724 183.834 277.529 186.075C277.93 187.188 279.29 187.945 280.399 187.203C282.551 185.739 283.06 182.571 283.744 180.224C284.482 177.662 284.946 174.992 285.347 172.354C286.147 167.221 286.558 162.084 286.44 156.896C286.199 146.765 284.346 136.148 280.159 126.861Z" fill="#FFE5A5"/>
<path d="M314.473 182.809C313.918 180.998 312.578 179.351 311.644 177.718C310.653 175.986 309.839 174.12 309.155 172.259C307.329 167.369 305.188 162.582 303.468 157.662C299.91 147.455 296.392 137.237 292.817 127.022C292.722 126.735 292.297 126.855 292.366 127.149C294.759 138.155 297.21 149.16 299.617 160.162C300.226 162.928 300.512 165.815 301.059 168.613C301.524 171.02 301.95 173.439 302.512 175.834C303.468 179.928 305.323 185.68 309.557 187.323C309.496 187.311 309.449 187.296 309.385 187.271C310.895 187.9 312.161 188.526 313.835 188.11C314.759 187.878 315.727 186.791 315.601 185.786C315.416 184.625 314.95 183.787 314.473 182.809Z" fill="#FFE5A5"/>
<path d="M321.942 160.5C319.91 157.622 318.063 154.635 316.189 151.656C314.389 148.784 312.742 145.797 311.251 142.753C310.464 141.135 309.615 139.549 308.868 137.92C308.143 136.37 307.549 134.47 306.496 133.127C306.45 133.068 306.34 133.085 306.336 133.172C306.318 134.732 306.978 136.357 307.43 137.855C307.946 139.578 308.479 141.311 309.11 142.987C310.389 146.348 311.821 149.638 313.279 152.921C314.682 156.062 316.357 159.097 318.087 162.075C319.813 165.039 321.669 168.665 324.953 170.091C325.607 170.377 326.671 170.033 326.565 169.15C326.128 165.779 323.855 163.212 321.942 160.5Z" fill="#FFE5A5"/>
<path d="M337.292 159.943C336.351 158.083 335.328 156.29 334.216 154.536C332.086 151.158 329.938 147.714 327.497 144.552C325.055 141.391 322.716 138.186 320.216 135.07C317.703 131.957 314.898 129.084 312.235 126.099C312.044 125.882 311.668 126.174 311.836 126.412C314.006 129.678 315.889 133.097 317.915 136.462C319.993 139.911 322.106 143.38 323.987 146.942C325.828 150.416 327.795 153.825 329.614 157.32C330.521 159.06 331.455 160.793 332.452 162.494C333.368 164.061 334.583 166.129 336.208 167.01C337.523 167.709 338.783 166.739 338.934 165.398C339.14 163.643 338.07 161.477 337.292 159.943Z" fill="#FFE5A5"/>
<path d="M345.56 149.946C344.609 147.847 343.523 145.829 342.324 143.871C340.026 140.098 337.313 136.585 334.454 133.214C331.492 129.729 328.248 126.466 325.011 123.23C321.509 119.712 318.17 115.706 313.992 112.992C313.323 112.554 312.49 113.46 312.913 114.096C315.599 118.073 319.478 121.199 322.902 124.539C326.042 127.589 329.137 130.68 332.132 133.87C335.175 137.133 338.081 140.519 340.602 144.215C341.846 146.031 342.991 147.904 344.015 149.855C345.032 151.778 345.675 153.95 346.885 155.748C347.035 155.976 347.458 155.9 347.442 155.59C347.314 153.615 346.366 151.729 345.56 149.946Z" fill="#FFE5A5"/>
<path d="M350.177 147.871C348.82 145.658 347.438 143.453 346.042 141.251C344.649 139.063 343.23 136.882 341.785 134.708C340.445 132.705 339.058 130.586 337.341 128.875C337.221 128.752 336.944 128.887 337.022 129.065C337.951 131.284 339.34 133.36 340.634 135.404C342.027 137.593 343.409 139.798 344.766 142.011C346.122 144.224 347.469 146.454 348.776 148.695C349.994 150.775 351.117 153.125 352.755 154.916C353.129 155.324 353.848 154.878 353.686 154.354C352.957 152.078 351.431 149.927 350.177 147.871Z" fill="#FFE5A5"/>
</g>
<g clip-path="url(#clip4_2669_11587)">
<path d="M250.42 63H90V105.75H250.42V63Z" fill="#242424"/>
<path d="M100.95 95.1401V72.6401H115.45V77.4001H105.96V82.1601H114.31V86.7301H106V95.1401H100.95Z" fill="white"/>
<path d="M130.72 90.5701H122.02L120.4 95.1401H115.13L123.6 72.6401H129.41L137.79 95.1401H132.33L130.72 90.5701ZM123.68 86.0001H129.14L126.44 78.2201L123.68 86.0001Z" fill="white"/>
<path d="M151.67 79.4302C151.51 78.3802 150.65 76.6102 147.92 76.6102C146.05 76.6102 144.84 77.7802 144.84 79.0202C144.84 80.1002 145.51 80.8902 147.06 81.1802L150.07 81.7502C154.36 82.5402 156.58 85.3002 156.58 88.5102C156.58 92.0302 153.63 95.6202 148.26 95.6202C142.04 95.6202 139.37 91.5902 139.06 88.4102L143.66 87.3002C143.85 89.3602 145.25 91.1702 148.33 91.1702C150.3 91.1702 151.5 90.2202 151.5 88.8202C151.5 87.6802 150.58 86.8502 149.09 86.5702L146.02 86.0002C142.21 85.2702 139.9 82.7302 139.9 79.4002C139.9 75.1502 143.65 72.1602 147.96 72.1602C153.58 72.1602 155.7 75.5202 156.18 78.1602L151.67 79.4302Z" fill="white"/>
<path d="M174.17 95.1401V86.1901H165.19V95.1401H160.18V72.6401H165.19V81.4601H174.17V72.6401H179.22V95.1401H174.17Z" fill="white"/>
<path d="M184.23 95.1401V72.6401H189.31V95.1401H184.23Z" fill="white"/>
<path d="M204.73 72.1699C211.05 72.1699 216.41 76.7699 216.41 83.9099C216.41 91.0199 211.05 95.6199 204.73 95.6199C198.38 95.6199 193.02 91.0199 193.02 83.9099C193.02 76.7699 198.39 72.1699 204.73 72.1699ZM204.73 90.6699C207.84 90.6699 211.2 88.5699 211.2 83.8799C211.2 79.1899 207.84 77.0599 204.73 77.0599C201.59 77.0599 198.22 79.1899 198.22 83.8799C198.22 88.5699 201.59 90.6699 204.73 90.6699Z" fill="white"/>
<path d="M234.41 95.1401L225.14 80.3501V95.1401H220.16V72.6401H226.25L234.69 86.3201V72.6401H239.71V95.1401H234.41Z" fill="white"/>
<path d="M204.68 93.1199C209.711 93.1199 213.79 89.0412 213.79 84.0099C213.79 78.9786 209.711 74.8999 204.68 74.8999C199.649 74.8999 195.57 78.9786 195.57 84.0099C195.57 89.0412 199.649 93.1199 204.68 93.1199Z" fill="white"/>
<path d="M204.91 75.9502L207.33 80.8502L212.74 81.6402L208.82 85.4502L209.75 90.8402L204.91 88.2902L200.07 90.8402L201 85.4502L197.09 81.6402L202.49 80.8502L204.91 75.9502Z" fill="#242424"/>
</g>
<path d="M32.4333 25.0813C31.1852 24.5469 26.4572 19.0242 26.2105 19.1349C25.9376 19.2635 27.6717 26.1665 27.3525 27.4275C26.939 29.0295 21.6714 32.581 22.4528 32.8632C23.2433 33.1452 29.1661 31.4924 29.8211 32.2182C30.9446 33.4746 35.292 38.185 36.0526 38.1558C36.5963 37.6119 35.2764 31.4609 34.9192 29.8545C34.713 28.9174 39.7355 25.5188 39.9749 24.7503C40.2236 23.9898 34.0177 25.7378 32.4327 25.0644L32.4333 25.0813Z" fill="white"/>
<path d="M205.753 33.1753L205.221 34.7311C205.176 34.8012 205.121 34.8648 205.087 34.9385C204.649 35.8982 204.069 36.764 203.396 37.5705C201.798 39.4844 199.837 40.9417 197.713 42.1757C192.896 44.9734 187.704 46.7218 182.339 47.9812C181.856 48.0934 181.46 47.9399 181.167 47.5407C179.757 45.6316 178.288 43.7661 176.961 41.797C174.862 38.6852 173.092 35.3846 171.91 31.7817C171.234 29.7244 170.802 27.6191 170.917 25.4263C170.955 24.6954 171.093 23.9683 171.186 23.2411L171.742 21.617C171.797 21.526 171.857 21.4369 171.902 21.3423C172.822 19.3336 174.173 17.6952 176.018 16.4999C178.315 15.0113 180.803 14.4568 183.451 15.1307C186.628 15.94 188.722 18.0194 189.898 21.0834C190.091 21.5853 190.221 22.1116 190.369 22.5952C191.038 22.1656 191.671 21.6777 192.37 21.3282C195.903 19.561 199.323 19.7098 202.423 22.1666C205.174 24.3453 206.246 27.38 206.077 30.8927C206.04 31.6573 205.863 32.4171 205.752 33.178L205.753 33.1753Z" fill="#FF005A"/>
<path d="M175.223 18.6667C174.791 17.501 175.477 10.8796 175.248 10.7856C174.991 10.6855 171.501 16.1891 170.462 16.7723C169.138 17.5077 163.458 16.2491 163.764 16.946C164.075 17.6486 168.906 20.5393 168.837 21.4319C168.712 22.97 168.325 28.8265 168.824 29.3132C169.528 29.3312 172.78 24.5767 173.621 23.3268C174.113 22.599 179.537 23.7913 180.198 23.4657C180.86 23.1513 175.786 20.1327 175.234 18.6556L175.223 18.6667Z" fill="white"/>
<g clip-path="url(#clip5_2669_11587)">
<path d="M165.85 137.46C159.54 131.38 149.51 131.53 143.43 137.82C137.36 144.11 137.55 154.15 143.85 160.24C144.04 160.42 144.23 160.59 144.42 160.76L148.87 156.15C148.67 155.99 148.47 155.82 148.29 155.64C144.53 152 144.42 146.02 148.04 142.27C151.66 138.51 157.65 138.42 161.41 142.06C161.59 142.23 161.78 142.41 161.94 142.6L166.38 138.01C166.21 137.82 166.03 137.65 165.85 137.46Z" fill="#FFEF63"/>
</g>
<g clip-path="url(#clip6_2669_11587)">
<path d="M37.0485 102.137C41.4417 94.5557 38.8958 84.8531 31.3336 80.455C23.7737 76.0666 14.0709 78.6538 9.66554 86.2282C9.53624 86.4557 9.41664 86.6809 9.29705 86.906L14.838 90.1235C14.9455 89.891 15.0627 89.6562 15.1944 89.4383C17.8288 84.9165 23.6087 83.3786 28.1161 85.996C32.6331 88.611 34.154 94.4054 31.5196 98.9272C31.3976 99.1427 31.2683 99.3702 31.1221 99.5711L36.6413 102.784C36.7851 102.573 36.9071 102.358 37.0485 102.137Z" fill="#0EDDAB"/>
</g>
<g clip-path="url(#clip7_2669_11587)">
<path d="M112.895 37.1851C113.814 38.9589 108.424 40.2215 104.868 40.8508C103.01 41.1772 101.118 40.9688 99.3918 40.2529L75.9799 30.5105L79.7804 21.1104L105.717 31.9029C105.721 31.8989 111.623 34.7269 112.895 37.1851Z" fill="#FF005A"/>
<path d="M79.6606 21.0601L75.8591 30.4595L80.6275 32.4432L84.429 23.0438L79.6606 21.0601Z" fill="#E60957"/>
<path d="M53.3665 9.73161L49.089 20.3117C48.8447 20.9135 49.1278 21.6057 49.725 21.8496L75.9758 32.7719C76.5691 33.0197 77.2517 32.7326 77.4921 32.1269L81.7696 21.5467C82.0139 20.945 81.7308 20.2527 81.1336 20.0089L54.8829 9.09051C54.2895 8.84272 53.6109 9.12984 53.3665 9.73161Z" fill="#F5A6AC"/>
<path d="M51.4235 17.0059L50.1192 20.23L76.1322 31.0544L77.4365 27.8303L51.4235 17.0059Z" fill="#F7D8DA"/>
<path d="M107.435 39.7494C104.899 40.3433 102.793 40.4495 102.727 39.9893C102.665 39.5292 104.666 38.6796 107.202 38.0857C109.739 37.4957 111.844 37.3856 111.91 37.8458C111.976 38.3059 109.971 39.1555 107.435 39.7494Z" fill="#E60957"/>
</g>
<g clip-path="url(#clip8_2669_11587)">
<path d="M73 52.5C73 61.0599 66.0599 68 57.5 68C48.9401 68 42 61.0599 42 52.5C42 43.9401 48.9401 37 57.5 37C66.0599 37 73 43.9401 73 52.5Z" fill="#FFE0EC"/>
<path opacity="0.44" d="M70.7331 52.5002C70.7331 59.8085 64.8082 65.7333 57.5 65.7333C50.1917 65.7333 44.2668 59.8085 44.2668 52.5002C44.2668 45.192 50.1917 39.2671 57.5 39.2671C64.8082 39.2671 70.7331 45.192 70.7331 52.5002Z" fill="#F9B0B0"/>
<path opacity="0.72" d="M57.6278 44.0564C62.3553 44.0564 66.2768 42.4328 67.0596 40.3015C64.4246 38.2361 61.1076 37 57.5 37C53.9853 37 50.742 38.1741 48.1418 40.1465C48.7851 42.3553 52.7841 44.0564 57.6278 44.0564Z" fill="white"/>
<path opacity="0.72" d="M57.6279 60.4399C52.4702 60.4399 48.2659 62.3697 48.0605 64.7916C50.6722 66.7988 53.9466 68.0001 57.5 68.0001C61.158 68.0001 64.5176 66.7291 67.1681 64.6094C66.7767 62.2767 62.6537 60.4399 57.6279 60.4399Z" fill="white"/>
<path d="M70.0046 52.5002C70.0046 59.4055 64.4052 65.0049 57.5 65.0049C50.5947 65.0049 44.9954 59.4055 44.9954 52.5002C44.9954 45.595 50.5947 39.9956 57.5 39.9956C64.4052 39.9956 70.0046 45.595 70.0046 52.5002Z" fill="#DE1E59"/>
<path d="M69.218 52.5002C69.218 58.9715 63.9712 64.2182 57.5 64.2182C51.0287 64.2182 45.782 58.9715 45.782 52.5002C45.782 46.0251 51.0287 40.7822 57.5 40.7822C63.9712 40.7822 69.218 46.0251 69.218 52.5002Z" fill="#EB4552"/>
<path d="M57.2481 40.9565C56.7134 40.9565 56.1864 40.9953 55.671 41.0689C61.158 41.8362 65.3818 46.5482 65.3818 52.2444C65.3818 57.9445 61.158 62.6527 55.671 63.4238C56.1864 63.4974 56.7134 63.5362 57.2481 63.5362C63.483 63.5362 68.536 58.4832 68.536 52.2483C68.536 46.0134 63.483 40.9565 57.2481 40.9565Z" fill="#DE1E59"/>
<path opacity="0.53" d="M49.75 52.8876C49.75 56.7393 52.1486 59.8626 50.3312 59.8626C48.5139 59.8626 47.0375 56.7393 47.0375 52.8876C47.0375 49.0358 48.5139 45.9126 50.3312 45.9126C52.1486 45.9126 49.75 49.0358 49.75 52.8876Z" fill="white"/>
</g>
</g>
<defs>
<filter id="filter0_f_2669_11587" x="79" y="-5" width="182" height="182" filterUnits="userSpaceOnUse" color-interpolation-filters="sRGB">
<feFlood flood-opacity="0" result="BackgroundImageFix"/>
<feBlend mode="normal" in="SourceGraphic" in2="BackgroundImageFix" result="shape"/>
<feGaussianBlur stdDeviation="15" result="effect1_foregroundBlur_2669_11587"/>
</filter>
<clipPath id="clip0_2669_11587">
<rect width="340" height="168" fill="white"/>
</clipPath>
<clipPath id="clip1_2669_11587">
<rect width="34.3483" height="32.5869" fill="white" transform="translate(349.78 53.9707) rotate(161.878)"/>
</clipPath>
<clipPath id="clip2_2669_11587">
<rect width="72.8392" height="72.8392" fill="white" transform="translate(44.7378 73) rotate(21.5357)"/>
</clipPath>
<clipPath id="clip3_2669_11587">
<rect width="128.02" height="187.289" fill="white" transform="translate(192 38.8145) rotate(-15.7799)"/>
</clipPath>
<clipPath id="clip4_2669_11587">
<rect width="160.42" height="42.75" fill="white" transform="translate(90 63)"/>
</clipPath>
<clipPath id="clip5_2669_11587">
<rect width="27.38" height="27.76" fill="white" transform="translate(139 133)"/>
</clipPath>
<clipPath id="clip6_2669_11587">
<rect width="27.38" height="27.76" fill="white" transform="translate(34.9534 75) rotate(76.1541)"/>
</clipPath>
<clipPath id="clip7_2669_11587">
<rect width="64" height="32" fill="white" transform="translate(49 9)"/>
</clipPath>
<clipPath id="clip8_2669_11587">
<rect width="31" height="31" fill="white" transform="translate(42 37)"/>
</clipPath>
</defs>
</svg>
