<svg width="161" height="43" viewBox="0 0 161 43" fill="none" xmlns="http://www.w3.org/2000/svg">
<g clip-path="url(#clip0_3_590)">
<path d="M160.42 0H0V42.75H160.42V0Z" fill="#242424"/>
<path d="M10.95 32.14V9.63995H25.45V14.4H15.96V19.16H24.31V23.73H16V32.14H10.95Z" fill="white"/>
<path d="M40.72 27.57H32.02L30.4 32.14H25.13L33.6 9.63995H39.41L47.79 32.14H42.33L40.72 27.57ZM33.68 23H39.14L36.44 15.22L33.68 23Z" fill="white"/>
<path d="M61.6699 16.43C61.5099 15.38 60.6499 13.61 57.9199 13.61C56.0499 13.61 54.8399 14.78 54.8399 16.02C54.8399 17.1 55.5099 17.89 57.0599 18.18L60.0699 18.75C64.3599 19.54 66.5799 22.3 66.5799 25.51C66.5799 29.03 63.6299 32.62 58.2599 32.62C52.0399 32.62 49.3699 28.59 49.0599 25.41L53.6599 24.3C53.8499 26.36 55.2499 28.17 58.3299 28.17C60.2999 28.17 61.4999 27.22 61.4999 25.82C61.4999 24.68 60.5799 23.85 59.0899 23.57L56.0199 23C52.2099 22.27 49.8999 19.73 49.8999 16.4C49.8999 12.15 53.6499 9.15997 57.9599 9.15997C63.5799 9.15997 65.6999 12.52 66.1799 15.16L61.6699 16.43Z" fill="white"/>
<path d="M84.1699 32.14V23.19H75.1899V32.14H70.1799V9.63995H75.1899V18.46H84.1699V9.63995H89.2199V32.14H84.1699Z" fill="white"/>
<path d="M94.23 32.14V9.63995H99.31V32.14H94.23Z" fill="white"/>
<path d="M114.73 9.16998C121.05 9.16998 126.41 13.77 126.41 20.91C126.41 28.02 121.05 32.62 114.73 32.62C108.38 32.62 103.02 28.02 103.02 20.91C103.02 13.77 108.39 9.16998 114.73 9.16998ZM114.73 27.67C117.84 27.67 121.2 25.57 121.2 20.88C121.2 16.19 117.84 14.06 114.73 14.06C111.59 14.06 108.22 16.19 108.22 20.88C108.22 25.57 111.59 27.67 114.73 27.67Z" fill="white"/>
<path d="M144.41 32.14L135.14 17.35V32.14H130.16V9.63995H136.25L144.69 23.32V9.63995H149.71V32.14H144.41Z" fill="white"/>
<path d="M114.68 30.12C119.711 30.12 123.79 26.0413 123.79 21.01C123.79 15.9787 119.711 11.9 114.68 11.9C109.649 11.9 105.57 15.9787 105.57 21.01C105.57 26.0413 109.649 30.12 114.68 30.12Z" fill="white"/>
<path d="M114.91 12.95L117.33 17.85L122.74 18.64L118.82 22.45L119.75 27.84L114.91 25.29L110.07 27.84L111 22.45L107.09 18.64L112.49 17.85L114.91 12.95Z" fill="#242424"/>
</g>
<defs>
<clipPath id="clip0_3_590">
<rect width="160.42" height="42.75" fill="white"/>
</clipPath>
</defs>
</svg>
