<svg width="340" height="168" viewBox="0 0 340 168" fill="none" xmlns="http://www.w3.org/2000/svg">
<g clip-path="url(#clip0_2669_11475)">
<rect width="340" height="168" fill="#4E13AF"/>
<g filter="url(#filter0_f_2669_11475)">
<circle cx="170" cy="86" r="61" fill="#8448E4"/>
</g>
<circle cx="56" cy="84" r="114" fill="#B98EFD"/>
<path d="M398 84C398 146.96 346.96 198 284 198C221.04 198 170 146.96 170 84C170 21.0395 221.04 -30 284 -30C346.96 -30 398 21.0395 398 84Z" fill="#B98EFD"/>
<path d="M245 261.44L245 279.61L415 108.83L415 90.6603L245 261.44Z" fill="#3A1575"/>
<path d="M245 243.26L245 261.42L415 90.6404L415 72.4804L245 243.26Z" fill="#8347E2"/>
<path d="M245 225.101L245 243.271L415 72.4905L415 54.3305L245 225.101Z" fill="#3A1575"/>
<path d="M245 188.78L245 206.94L415 36.1604L415 18.0004L245 188.78Z" fill="#4E13AF"/>
<path d="M245 206.94L245 225.11L415 54.3304L415 36.1603L245 206.94Z" fill="#8347E2"/>
<g clip-path="url(#clip1_2669_11475)">
<path d="M290.735 17.9403C290.735 17.9403 282.64 -7.33189 266.171 -3.42829C231.641 4.75589 265.752 68.314 265.752 68.314C265.752 68.314 342.726 56.287 322.007 22.6379C313.388 8.63984 290.735 17.9403 290.735 17.9403Z" fill="#FF005A"/>
<path d="M248.12 25.7907L257.225 20.1191L257.396 31.0928L274.316 16.5264C274.316 16.5264 261.829 50.106 262.301 49.5564C262.771 49.0089 277.753 29.6077 277.753 29.6077L275.321 38.7915L290.192 46.0421L304.913 28.8499L292.826 59.5116L300.174 47.7985L310.159 52.667" stroke="#FDE4F3" stroke-width="2" stroke-miterlimit="10" stroke-linecap="round" stroke-linejoin="round"/>
<path d="M314.978 93.0669C314.978 93.0669 314.267 93.0785 301.023 86.9741C287.781 80.8677 266.581 85.3035 261.737 82.9417C257.654 80.9509 248.343 69.9061 244.764 66.0461C242.993 64.1415 242.178 61.4081 241.811 59.1425C241.434 56.8156 241.52 54.9707 241.52 54.9707L241.236 50.2852L239.921 28.3538L239.847 27.2159L239.356 19.0471L239.32 18.402C239.32 18.402 239.323 18.3959 239.317 18.3929C239.298 17.8937 239.528 17.4066 239.961 17.1433C243.451 15.0284 247.783 17.9125 247.783 17.9125C253.688 22.4723 253.465 39.8225 253.125 46.7531C253.127 46.7745 253.133 46.7928 253.125 46.8093C253.036 48.5634 252.941 49.6344 252.941 49.6344L257.72 56.2906L257.801 56.4063L257.98 56.6589C258.511 56.6766 259.014 56.721 259.486 56.7862C263.811 57.4197 266.068 60.1124 272.347 61.9066C279.311 63.8957 280.399 59.8533 290.994 56.9294C301.586 53.9993 324.759 67.5831 324.759 67.5831L314.978 93.0669Z" fill="#FAB6CA"/>
<path d="M241.568 20.669C241.702 21.064 241.772 21.4841 241.79 21.9424C241.599 22.0779 241.369 22.2679 241.177 22.5198C241.203 21.8977 241.139 21.3509 240.979 20.8592C240.676 19.9266 239.993 19.2129 239.195 18.9965C239.025 18.949 238.928 18.7774 238.975 18.6125C239.02 18.4487 239.191 18.3522 239.356 18.3997C240.35 18.6633 241.203 19.5337 241.568 20.669Z" fill="black"/>
<path d="M240.765 26.696C240.504 27.2314 240.259 27.8585 239.921 28.3538L239.847 27.2159C240.244 26.5005 240.597 25.7356 240.831 25.0145C240.863 24.9336 240.885 24.8476 240.913 24.7646C240.939 25.2801 241.018 25.598 241.069 26.0294C241.019 26.1443 240.822 26.579 240.765 26.696Z" fill="black"/>
<path d="M265.015 75.7701C259.854 73.2539 252.256 67.9825 248.674 65.4265C247.736 64.758 247.372 63.5523 247.787 62.4977C250.572 55.4234 259.177 56.3081 259.264 56.3175C259.435 56.3374 259.556 56.4905 259.538 56.6591C259.519 56.8278 259.365 56.9507 259.196 56.9318C259.114 56.9224 250.974 56.0968 248.365 62.7263C248.053 63.5165 248.329 64.4177 249.035 64.9218C252.564 67.4395 264.405 75.7164 268.666 76.4915C273.77 77.4212 286.164 78.2285 286.29 78.2365C286.46 78.2483 286.591 78.3962 286.58 78.5658C286.568 78.7354 286.42 78.8664 286.25 78.8547C286.125 78.8467 273.696 78.0377 268.557 77.1011C267.643 76.9348 266.419 76.4547 265.015 75.7701Z" fill="black"/>
<path d="M241.549 59.1388C241.446 59.0887 241.376 58.9862 241.374 58.8657L240.804 23.6608C240.794 23.0288 241.089 22.441 241.594 22.0933C242.765 21.2831 245.214 20.3571 248.446 23.243C252.873 27.1964 253.184 47.7493 253.174 49.1514C253.373 49.6775 256.091 53.6659 257.778 56.088C257.874 56.229 257.842 56.4213 257.7 56.5196C257.558 56.6159 257.366 56.5829 257.267 56.4408C252.496 49.5926 252.537 49.2899 252.555 49.1437C252.637 47.8839 252.073 27.314 248.03 23.7053C245.114 21.1003 242.965 21.896 241.943 22.6037C241.609 22.8345 241.413 23.2263 241.419 23.6531L241.994 58.856C241.997 59.0275 241.86 59.1686 241.689 59.1692C241.638 59.1696 241.592 59.1598 241.549 59.1388Z" fill="black"/>
<path d="M241.161 34.8715C241.091 34.8374 241.032 34.7808 240.995 34.7045C240.909 34.5256 240.985 34.3135 241.163 34.2302C242.589 33.5494 243.361 31.9555 243.758 30.7398C244.29 29.1052 244.372 27.6596 243.996 26.4407C243.549 24.9886 242.383 23.8994 241.089 23.7335C240.895 23.7098 240.756 23.5303 240.78 23.334C240.805 23.1377 240.983 23.0013 241.18 23.0261C242.746 23.2283 244.15 24.5175 244.678 26.2323C245.096 27.5937 245.015 29.1844 244.436 30.9614C243.806 32.896 242.781 34.2472 241.47 34.8728C241.37 34.9227 241.255 34.9176 241.161 34.8715Z" fill="black"/>
<path d="M261.247 73.5498C261.101 73.4786 261.034 73.3036 261.098 73.1519C261.797 71.4718 261.542 69.3492 260.429 67.6131C259.462 66.1035 257.883 64.8486 255.858 63.9857C254.498 63.4038 253.333 63.1836 252.294 63.3116C251.03 63.467 249.949 64.207 249.54 65.2012C249.475 65.3601 249.294 65.4342 249.135 65.3693C248.981 65.2992 248.901 65.1233 248.966 64.9644C249.457 63.7693 250.734 62.8785 252.217 62.6975C253.364 62.5564 254.637 62.7909 256.101 63.4158C258.238 64.3307 259.918 65.6654 260.953 67.2796C262.174 69.1851 262.449 71.5282 261.673 73.3917C261.606 73.5496 261.425 73.6237 261.269 73.5577C261.258 73.5527 261.253 73.5528 261.247 73.5498Z" fill="black"/>
<path d="M367.008 77.0566L348.141 115.754L347.936 115.662L316.4 100.875L315.122 100.277L311.051 98.3662L311.908 92.1747L315.927 63.0259L316.91 55.837L318.879 56.6727L321.142 57.6285L366.662 76.9054L367.008 77.0566Z" fill="white"/>
</g>
<path d="M-85 149.44L-85 167.61L85 -3.16965L85 -21.3397L-85 149.44Z" fill="#3A1575"/>
<path d="M-85 131.26L-85 149.42L85 -21.3596L85 -39.5196L-85 131.26Z" fill="#8347E2"/>
<path d="M-85 113.101L-85 131.271L85 -39.5095L85 -57.6695L-85 113.101Z" fill="#3A1575"/>
<path d="M-85 76.7804L-85 94.9404L85 -75.8396L85 -93.9996L-85 76.7804Z" fill="#4E13AF"/>
<path d="M-85 94.9404L-85 113.11L85 -57.6696L85 -75.8397L-85 94.9404Z" fill="#8347E2"/>
<g clip-path="url(#clip2_2669_11475)">
<path fill-rule="evenodd" clip-rule="evenodd" d="M55.32 28.0499C56.05 27.9399 57.53 27.9699 58.44 28.3499C64.26 30.8099 64.02 43.1299 62.96 50.9499C62.57 53.7999 62.14 56.5299 61.55 58.9899C59.81 66.2599 57.09 73.4499 52.91 78.6799C51.34 80.6399 48.86 83.3199 45.58 82.4999C43.08 81.8799 41.46 79.2299 40.66 76.8799C39.29 72.8899 39.21 67.6399 39.45 62.4099C39.89 53.1099 42.16 43.5399 45.58 36.9999C46.46 35.3099 47.48 33.7899 48.89 32.3799C50.23 31.0399 51.53 29.5999 53.11 28.7599C53.67 28.4599 54.24 28.2199 55.32 28.0499Z" fill="#26A927"/>
<path d="M47.79 65.6498C47.7 66.8598 47.52 68.1798 48.22 68.6398C49.91 69.7398 49.9 66.7698 49.96 65.9698C50.73 55.7698 52.71 46.2198 55.2 36.2998C55.82 33.8298 56.52 30.9998 57.41 28.3198C57.43 28.2498 57.46 28.1798 57.49 28.0998C56.7 27.9698 55.83 27.9798 55.32 28.0498C55.31 28.0498 55.3 28.0598 55.28 28.0598C53.3 34.2898 51.94 40.2998 50.71 46.3898C49.38 52.9898 48.29 59.0298 47.79 65.6498Z" fill="#F8DDCA"/>
<path fill-rule="evenodd" clip-rule="evenodd" d="M68.72 102.29C73.88 97.1298 79.4 92.4398 85.14 87.8998C84.76 87.2798 84.43 86.6198 84.18 85.9298C82.66 87.1198 81.19 88.2898 79.78 89.4698C71.76 96.1598 64.61 103.46 57.55 110.82C54.87 113.61 52.26 116.59 49.92 119.56C49.12 120.58 48.39 121.71 47.49 122.66C47.45 113.74 47.33 104.9 47.16 96.1098C54.01 89.2898 61.63 83.4198 69.73 77.5298C75 73.6598 80.22 69.8598 85.79 66.2998C85.33 65.7498 84.91 65.1598 84.56 64.5298C79.22 67.9698 74.25 71.6198 69.27 75.2898C65.41 78.1398 61.47 80.9498 57.77 83.9198C54.28 86.7198 50.86 89.7398 47.7 92.6598C47.57 92.7798 47.2 93.4998 47.15 92.9898C47.08 88.6898 47.05 83.8498 46.93 79.3798C46.89 77.9198 46.95 76.8598 45.93 76.8398C44.92 76.8098 44.83 77.9698 44.82 78.9398C44.8 82.2698 45.07 85.6498 44.93 88.7798C34.71 73.8398 22 58.4298 9.64 45.0098C9.19 45.5498 8.68 46.0498 8.14 46.4898C14.43 53.1698 20.44 60.1598 26.02 67.1098C32.02 74.5998 38.73 82.8698 43.94 91.2298C44.38 91.9198 44.94 92.5198 45.05 92.9998C45.27 93.9698 45.01 95.3598 45.05 96.5398C45.32 104.97 45.27 113.04 45.38 121.54C33.97 108.46 20.7 96.7198 6.62 86.2098C6.39 86.8698 6.1 87.4998 5.75 88.0898C12.44 93.1398 18.56 98.3698 24.69 103.72C31.17 109.39 37.59 115.62 43.16 122.3C43.92 123.22 45.31 124.57 45.48 125.29C45.73 126.36 45.29 127.64 45.48 128.72C36.46 124.36 26.36 120.46 15.32 118.05C15.42 118.64 15.48 119.24 15.48 119.85C15.48 119.98 15.47 120.11 15.47 120.24C26.64 122.84 36.75 126.59 45.48 131.26C45.56 140.54 45.92 150.47 45.92 159.91C45.92 161.63 45.74 163.07 46.92 163.12C48.48 163.18 48.06 160.77 48.03 159.36C47.94 155.82 48.06 153.77 47.92 150.18C47.86 148.73 47.49 146.69 47.81 145.53C48.1 144.48 50.83 142.53 51.57 141.88C55.78 138.22 59.19 135.07 63.63 131.59C67.12 128.85 70.71 126.41 74.36 124.04C73.88 123.51 73.44 122.93 73.07 122.31C63.94 128.39 55.39 135.4 47.81 142.43C47.66 137.08 47.63 131.63 47.59 126.17C52.12 119.42 57.71 113.71 63.19 108.03C65.02 106.14 66.83 104.17 68.72 102.29Z" fill="#F8DDCA"/>
<path fill-rule="evenodd" clip-rule="evenodd" d="M8.21 43.7697C8.5 43.7097 9.81 43.6797 10.31 43.7697C12.16 44.1097 14.15 45.2197 15.84 46.3197C20.74 49.4997 24.76 53.5897 28.46 57.8197C32.13 62.0297 35.75 66.5497 37.97 72.5297C38.79 74.7397 39.35 78.0697 37.42 79.1697C35.57 80.2197 32.53 78.8097 30.89 77.9497C28.86 76.8897 27.32 75.7397 25.91 74.6297C19.77 69.8097 14.53 63.9897 10.2 57.1497C9.21 55.5897 8.13 53.9697 7.21 51.8397C6.18 49.4397 4.82 44.4697 8.21 43.7697Z" fill="#26A927"/>
<path d="M37.42 79.1697C37.57 79.0797 37.71 78.9697 37.83 78.8597C29.01 66.9997 19.05 55.1997 9.31999 44.6497C9.05999 44.3697 8.76999 44.0497 8.46999 43.7397C8.35999 43.7497 8.26999 43.7597 8.21999 43.7697C7.38999 43.9397 6.84999 44.3697 6.50999 44.9397C6.98999 45.3897 7.48999 45.7997 7.76999 46.0897C14.19 52.8897 20.34 60.0097 26.02 67.1097C29.19 71.0697 32.56 75.2497 35.8 79.5397C36.39 79.5497 36.94 79.4397 37.42 79.1697Z" fill="#F8DDCA"/>
<path fill-rule="evenodd" clip-rule="evenodd" d="M31.25 75.0396C33.98 74.9196 35.74 76.4996 37.42 77.9496C41.19 81.2096 43.84 85.1496 46.01 89.6696C47.42 92.6096 48.64 95.7396 49.61 99.2596C50.42 102.21 51.75 107.87 49.62 111.11C48.5 112.8 46.34 114.2 44.11 114.23C41.74 114.27 39.46 113.12 38.32 112.32C36.35 110.93 34.52 108.84 32.99 106.7C30.2 102.8 27.49 97.5696 25.98 92.5396C25.05 89.4296 24.35 85.2696 25.35 81.1096C25.88 78.9096 26.59 77.2696 28.15 76.0796C29.04 75.4196 30.17 75.0796 31.25 75.0396Z" fill="#46EE6B"/>
<path fill-rule="evenodd" clip-rule="evenodd" d="M82.33 62.2401C84.3 62.0301 86.66 62.0101 86.87 63.9001C87.08 65.7401 84.84 66.9601 83.55 67.8801C79.22 70.9501 75 73.5301 70.72 76.6101C66.55 79.6101 62.73 82.6801 58.22 85.7901C57.18 86.5101 54.8 88.5801 53.35 87.6701C52 86.8201 53.42 83.6901 54.01 82.4701C56.16 78.1001 60.21 74.1701 63.63 71.4101C67.29 68.4601 71.81 65.5201 76.68 63.6701C78.47 63.0001 80.38 62.4501 82.33 62.2401Z" fill="#46EE6B"/>
<path d="M58.21 85.8002C62.72 82.6802 66.54 79.6202 70.71 76.6202C72.32 75.4702 73.91 74.3802 75.51 73.3102C78.75 70.9902 82.03 68.7102 85.43 66.5302C86.29 65.8202 86.98 64.9602 86.87 63.9002C86.84 63.6302 86.77 63.4102 86.66 63.2202C80.52 67.0402 74.91 71.1502 69.28 75.2902C65.42 78.1402 61.48 80.9502 57.78 83.9202C56.27 85.1302 54.78 86.3802 53.32 87.6502C53.34 87.6602 53.35 87.6702 53.36 87.6802C54.79 88.6002 57.17 86.5202 58.21 85.8002Z" fill="#F8DDCA"/>
<path fill-rule="evenodd" clip-rule="evenodd" d="M82.44 84.1397C84.23 83.9297 86.97 84.2097 87.75 85.7997C88.78 87.8997 87.29 90.7297 86.43 92.4397C85.38 94.5197 84.3 96.2597 83.22 97.7497C80.74 101.17 78.15 104.37 75.48 107.04C72.38 110.14 69.89 112.58 66.41 115.12C64.88 116.23 63.14 117.25 60.99 118.22C59.06 119.09 56.18 120.07 54.24 119.11C50.95 117.48 52.13 111.44 53.46 108.27C55.53 103.35 59.38 98.0797 62.64 94.7797C65.23 92.1497 68.08 89.9697 71.16 88.1397C74.48 86.1497 77.92 84.6597 82.44 84.1397Z" fill="#26A927"/>
<path d="M53.45 118.54C56.57 114.89 59.9 111.46 63.19 108.04C65.02 106.14 66.83 104.17 68.72 102.29C74.66 96.3597 81.07 91.0397 87.76 85.8397C87.75 85.8297 87.75 85.8197 87.74 85.7997C87.43 85.1697 86.8 84.7397 86.05 84.4697C83.85 86.1597 81.76 87.7997 79.78 89.4497C71.76 96.1397 64.61 103.44 57.55 110.8C55.76 112.66 54.01 114.61 52.35 116.57C52.55 117.36 52.91 118.03 53.45 118.54Z" fill="#F8DDCA"/>
<path fill-rule="evenodd" clip-rule="evenodd" d="M16.29 116.67C19.61 116.21 22.6 117.04 25.47 117.88C29.62 119.1 32.51 120.32 36.09 122.53C37.55 123.43 39.85 124.77 39.85 126.4C39.85 128.95 35.61 129.03 32.55 128.72C29.28 128.39 26.89 127.71 24.59 126.95C21.07 125.79 17.81 124.24 15.08 121.86C14.21 121.11 13.2 119.93 13.31 118.76C13.43 117.36 14.96 116.85 16.29 116.67Z" fill="#46EE6B"/>
<path d="M39.85 126.4C39.85 126.3 39.84 126.21 39.82 126.12C32.22 122.8 23.95 119.91 15.07 117.99C14.87 117.95 14.4 117.79 13.83 117.65C13.54 117.94 13.35 118.3 13.3 118.77C13.27 119.13 13.34 119.49 13.48 119.84C13.98 119.93 14.47 120.01 14.85 120.1C23.55 122.09 31.62 124.77 38.91 128.05C39.49 127.67 39.85 127.14 39.85 126.4Z" fill="#F8DDCA"/>
<path fill-rule="evenodd" clip-rule="evenodd" d="M70.82 120.76C73.22 120.5 76.14 120.85 76.79 122.86C77.44 124.88 76.28 126.82 75.68 127.84C74.62 129.65 72.99 131.19 71.48 132.71C68.5 135.69 65.28 138.23 61.08 140.34C57.79 141.99 51.85 143.01 51.46 138.13C51.25 135.49 52.84 133.3 54.11 131.6C56.81 128.01 59.8 125.29 63.84 123.08C65.9 121.97 68.19 121.04 70.82 120.76Z" fill="#46EE6B"/>
<path d="M52.77 140.84C56.45 137.62 59.63 134.74 63.63 131.6C67.85 128.28 72.22 125.4 76.67 122.55C76.34 121.86 75.71 121.4 74.92 121.1C66.6 126.47 58.74 132.66 51.61 138.99C51.82 139.82 52.23 140.42 52.77 140.84Z" fill="#F8DDCA"/>
<path fill-rule="evenodd" clip-rule="evenodd" d="M8.88 84.0299C13.2 83.6299 17.7 85.9799 20.6 87.6799C26.91 91.3799 32.38 96.2899 36.42 102.39C37.46 103.95 38.36 105.44 39.07 107.37C40.24 110.53 40.15 114.23 37.52 115.67C33.54 117.85 27.61 114.88 24.8 113.46C21.29 111.68 17.73 108.98 15.29 106.83C12.47 104.34 9.78 101.46 7.66 98.3099C6.7 96.8999 5.54 95.1299 4.78 93.1099C3.08 88.6099 4.03 84.4899 8.88 84.0299Z" fill="#26A927"/>
<path d="M38.88 114.44C28.73 103.85 17.39 94.1699 5.5 85.3799C5 85.8399 4.62 86.3999 4.38 87.0499C11.61 92.4199 18.15 97.9999 24.69 103.73C29.01 107.51 33.29 111.53 37.32 115.77C37.39 115.74 37.45 115.71 37.52 115.67C38.1 115.36 38.54 114.94 38.88 114.44Z" fill="#F8DDCA"/>
<path fill-rule="evenodd" clip-rule="evenodd" d="M76.31 42.2199C76.15 43.4299 75.04 43.9299 74.33 44.5599C69.26 49.0999 64.59 53.7399 60.1 59.7699C57.8 62.8599 55.29 66.6399 53.14 70.2499C52.15 71.8999 51.15 73.8199 49.8 75.7199C48.79 77.1399 46.91 79.9699 45.39 79.4999C44.08 79.0899 44.22 76.2099 44.99 73.5899C45.99 70.1899 48.48 65.9699 50.72 62.6999C54.84 56.6999 60.42 50.9899 65.75 46.8699C68.6 44.6699 71.87 42.4999 74.88 41.4999C75.46 41.3099 76.06 41.7799 76.31 42.2199Z" fill="#46EE6B"/>
<path d="M64.58 148.99C64.27 148.81 63.65 148.74 62.94 148.71V148.7H30.7V148.71C30 148.74 29.38 148.81 29.07 148.99C28.21 149.48 28.26 151.35 28.23 152.74C28.2 154.05 28.18 156.01 29.04 156.55C29.67 156.95 30.63 156.81 31.87 156.86C32.8 164.22 33.72 172.02 34.6 179.74C34.75 181.06 34.79 182.05 35.38 182.55H46.5H47.17H58.29C58.88 182.06 58.92 181.06 59.07 179.74C59.95 172.01 60.87 164.22 61.8 156.86C63.04 156.82 63.99 156.96 64.62 156.55C65.48 156.01 65.46 154.05 65.42 152.74C65.38 151.35 65.43 149.48 64.58 148.99Z" fill="#3127A8"/>
<path d="M32.1 158.82L61.78 156.85H31.86C31.94 157.5 32.02 158.16 32.1 158.82Z" fill="#5E48E9"/>
</g>
<g clip-path="url(#clip3_2669_11475)">
<path d="M96.4201 143.757C98.1942 143.176 100.01 143.274 101.887 144.818C103.747 146.352 104.485 148.472 104.473 150.724C105.486 150.43 106.508 150.276 107.504 150.319C110.253 150.427 113.799 152.034 115.102 159.037C116.185 164.842 118.368 168.947 121.252 170.59C123.003 171.589 125.029 171.686 127.255 170.859C127.684 170.704 128.151 170.919 128.307 171.35C128.461 171.773 128.249 172.248 127.822 172.411C125.114 173.387 122.637 173.265 120.446 172.02C117.134 170.126 114.664 165.625 113.492 159.339C112.605 154.568 110.563 152.085 107.442 151.963C106.424 151.921 105.361 152.133 104.311 152.522C103.964 154.576 103.076 156.649 101.918 158.404C99.8648 161.497 97.4064 162.896 95.6527 161.958C95.2098 161.727 94.226 160.989 94.6914 159.25C95.3631 156.721 98.8434 153.108 102.782 151.353C102.949 149.366 102.473 147.431 100.856 146.087C98.3706 144.036 96.122 145.388 92.6563 147.763C89.3489 150.027 85.6096 152.596 80.8826 150.82C80.4551 150.659 80.2409 150.187 80.4006 149.759C80.5603 149.331 81.03 149.117 81.4575 149.278C85.3813 150.754 88.6074 148.54 91.7317 146.404C93.269 145.352 94.8357 144.275 96.4337 143.752L96.4201 143.757ZM97.309 160.514C98.2502 160.206 99.479 159.082 100.545 157.484C101.285 156.377 101.981 154.931 102.403 153.402C99.3234 155.124 96.7209 157.984 96.2693 159.673C96.095 160.332 96.3131 160.449 96.4053 160.501C96.6504 160.632 96.9569 160.629 97.309 160.514Z" fill="white"/>
</g>
<g clip-path="url(#clip4_2669_11475)">
<path d="M158.179 8.3705C157.859 10.2095 156.92 11.7671 154.675 12.6996C152.447 13.6204 150.229 13.2774 148.246 12.2088C148.03 13.2415 147.686 14.2157 147.181 15.0751C145.795 17.4516 142.711 19.8288 135.916 17.6906C130.283 15.921 125.633 15.9209 122.828 17.6959C121.124 18.7731 120.088 20.5163 119.772 22.8695C119.708 23.3212 119.298 23.6331 118.845 23.5686C118.399 23.5054 118.079 23.0952 118.136 22.6424C118.545 19.792 119.816 17.663 121.944 16.3126C125.171 14.2785 130.305 14.2109 136.406 16.127C141.035 17.5842 144.185 16.947 145.758 14.2487C146.274 13.3695 146.585 12.3317 146.735 11.2224C145.085 9.95134 143.672 8.19371 142.665 6.3479C140.898 3.08223 140.818 0.25499 142.469 -0.853127C142.881 -1.13573 143.995 -1.65766 145.312 -0.43026C147.229 1.35006 148.785 6.11933 148.485 10.4207C150.161 11.501 152.093 11.9894 154.038 11.1928C157.017 9.96155 156.878 7.3412 156.409 3.16613C155.963 -0.816635 155.45 -5.32472 159.238 -8.66405C159.581 -8.96594 160.098 -8.93378 160.401 -8.5917C160.704 -8.24962 160.672 -7.73445 160.33 -7.43256C157.184 -4.66102 157.624 -0.773182 158.043 2.98798C158.25 4.83925 158.465 6.72808 158.177 8.38454L158.179 8.3705ZM142.967 1.28742C142.797 2.26305 143.212 3.87581 144.122 5.56742C144.752 6.74025 145.702 8.03389 146.854 9.12412C146.779 5.59642 145.476 1.95602 144.197 0.764054C143.697 0.300951 143.492 0.438742 143.402 0.495439C143.172 0.650607 143.03 0.922437 142.967 1.28742Z" fill="white"/>
</g>
<g clip-path="url(#clip5_2669_11475)">
<path d="M245.356 158.556C240.352 167.129 231.415 171.783 222.92 171.115C220.013 170.885 216.807 164.592 216.807 164.592C216.807 164.592 210.041 165.172 208.459 162.964C203.378 155.874 202.904 145.535 208.028 136.76C214.747 125.254 223.852 127.958 234.158 133.973C244.467 139.994 252.075 147.051 245.356 158.556Z" fill="#F20A0C"/>
<path d="M247.861 151.14C247.464 152.194 246.948 153.285 246.285 154.422C241.278 162.989 216.573 161.701 210.839 158.214C206.063 155.305 204.534 149.211 205.401 142.898C203.356 150.043 204.527 157.477 208.459 162.964C210.045 165.174 216.807 164.592 216.807 164.592C216.807 164.592 220.011 170.89 222.92 171.115C231.413 171.787 240.352 167.129 245.356 158.557C246.935 155.851 247.716 153.394 247.861 151.14Z" fill="#D10000"/>
<path d="M254.566 128.821C254.566 128.821 250.892 134.715 245.965 134.988C241.043 135.262 236.738 129.811 236.738 129.811C236.738 129.811 240.417 123.918 245.339 123.644C250.261 123.369 254.566 128.821 254.566 128.821Z" fill="#16AD17"/>
<path opacity="0.39" d="M227.08 134.275C227.04 134.26 226.996 134.237 226.953 134.215C226.286 133.824 225.579 133.506 224.854 133.263C224.384 133.11 224.136 132.603 224.292 132.139C224.447 131.676 224.952 131.422 225.415 131.577C226.255 131.859 227.077 132.228 227.85 132.681C228.272 132.93 228.417 133.475 228.168 133.897C227.947 134.277 227.481 134.432 227.08 134.275Z" fill="white"/>
<path opacity="0.39" d="M210.672 138.59C210.631 138.574 210.588 138.552 210.545 138.53C210.123 138.281 209.978 137.736 210.226 137.314C212.706 133.066 217.301 130.628 222.212 130.951C222.704 130.983 223.072 131.408 223.041 131.899C223.009 132.39 222.584 132.759 222.093 132.728C217.857 132.445 213.895 134.55 211.76 138.211C211.539 138.592 211.073 138.747 210.672 138.59Z" fill="white"/>
<path d="M233.935 134.556C233.921 134.55 233.908 134.545 233.894 134.54C233.584 134.392 233.454 134.019 233.602 133.709C233.635 133.638 236.935 126.631 236.498 120.519C236.471 120.176 236.733 119.879 237.076 119.852C237.419 119.825 237.716 120.087 237.743 120.43C238.205 126.875 234.87 133.945 234.727 134.243C234.581 134.538 234.232 134.672 233.935 134.556Z" fill="#F8DDCA"/>
</g>
<g clip-path="url(#clip6_2669_11475)">
<path d="M247.72 47H91.35V89.75H247.72V47Z" fill="#F54782"/>
<path d="M265.07 77.48H74V120.23H265.07V77.48Z" fill="#F54782"/>
<path d="M114.85 78.46V69.51H105.87V78.46H100.86V55.96H105.87V64.78H114.85V55.96H119.9V78.46H114.85Z" fill="white"/>
<path d="M124.91 78.46V55.96H139.16V60.69H129.92V64.97H138.3V69.38H129.92V73.7H139.19V78.46H124.91Z" fill="white"/>
<path d="M157.03 73.89H148.33L146.71 78.46H141.44L149.91 55.96H155.72L164.1 78.46H158.64L157.03 73.89ZM149.98 69.32H155.44L152.74 61.54L149.98 69.32Z" fill="white"/>
<path d="M167.02 78.46V55.96H172.03V73.67H181.74V78.46H167.02Z" fill="white"/>
<path d="M193.02 60.75V78.46H188V60.75H181.08V55.96H199.96V60.75H193.02Z" fill="white"/>
<path d="M217.17 78.46V69.51H208.19V78.46H203.18V55.96H208.19V64.78H217.17V55.96H222.22V78.46H217.17Z" fill="white"/>
<path d="M229.07 78.8998H224.78L236.17 55.5098H240.49L229.07 78.8998Z" fill="white"/>
<path d="M111.93 87.6299H117.07L110.95 110.13H105.78L100.99 95.2099L96.17 110.13H90.9L84.78 87.6299H90.11L93.82 102.04L98.49 87.6299H103.63L108.3 102.07L111.93 87.6299Z" fill="white"/>
<path d="M119.99 110.13V87.6299H134.24V92.3599H125V96.6399H133.38V101.05H125V105.37H134.27V110.13H119.99V110.13Z" fill="white"/>
<path d="M138.65 110.13V87.6299H143.67V105.34H153.38V110.13H138.65Z" fill="white"/>
<path d="M156.77 110.13V87.6299H161.78V105.34H171.49V110.13H156.77Z" fill="white"/>
<path d="M189.15 110.13L179.88 95.3399V110.13H174.9V87.6299H180.99L189.43 101.31V87.6299H194.45V110.13H189.15Z" fill="white"/>
<path d="M199.46 110.13V87.6299H213.71V92.3599H204.47V96.6399H212.85V101.05H204.47V105.37H213.74V110.13H199.46V110.13Z" fill="white"/>
<path d="M229.1 94.4199C228.94 93.3699 228.08 91.5899 225.35 91.5899C223.48 91.5899 222.27 92.7599 222.27 93.9999C222.27 95.0799 222.94 95.8699 224.49 96.1599L227.5 96.7299C231.79 97.5199 234.01 100.28 234.01 103.49C234.01 107.01 231.06 110.6 225.69 110.6C219.47 110.6 216.8 106.57 216.49 103.4L221.09 102.29C221.28 104.35 222.68 106.16 225.76 106.16C227.73 106.16 228.93 105.21 228.93 103.81C228.93 102.67 228.01 101.84 226.52 101.56L223.44 100.99C219.63 100.26 217.32 97.7199 217.32 94.3899C217.32 90.1399 221.07 87.1499 225.38 87.1499C231 87.1499 233.12 90.5099 233.6 93.1499L229.1 94.4199Z" fill="white"/>
<path d="M248.59 94.4199C248.43 93.3699 247.57 91.5899 244.85 91.5899C242.98 91.5899 241.77 92.7599 241.77 93.9999C241.77 95.0799 242.44 95.8699 243.99 96.1599L247.01 96.7299C251.29 97.5199 253.52 100.28 253.52 103.49C253.52 107.01 250.57 110.6 245.2 110.6C238.98 110.6 236.31 106.57 236 103.4L240.6 102.29C240.79 104.35 242.19 106.16 245.27 106.16C247.24 106.16 248.44 105.21 248.44 103.81C248.44 102.67 247.52 101.84 246.03 101.56L242.95 100.99C239.14 100.26 236.82 97.7199 236.82 94.3899C236.82 90.1399 240.57 87.1499 244.88 87.1499C250.5 87.1499 252.62 90.5099 253.1 93.1499L248.59 94.4199Z" fill="white"/>
</g>
<path d="M217.245 26.0106C217.041 25.1236 218.16 20.3803 218.003 20.2906C217.825 20.1937 214.774 23.8621 213.966 24.188C212.935 24.5977 208.929 23.1506 209.086 23.6853C209.246 24.2247 212.482 26.7772 212.349 27.4188C212.113 28.5238 211.282 32.7398 211.599 33.14C212.108 33.2193 214.916 30.0724 215.644 29.2438C216.07 28.7616 219.896 30.1364 220.406 29.9621C220.916 29.796 217.516 27.1278 217.254 26.0035L217.245 26.0106Z" fill="white"/>
<g clip-path="url(#clip7_2669_11475)">
<path d="M292.946 115.256L281.922 111.17L277.838 122.188L288.862 126.274L292.946 115.256Z" fill="#2E42FA"/>
<path d="M284.262 122.608C276.434 119.536 267.519 123.785 264.599 131.665L250.205 170.499C249 173.752 250.661 177.367 253.915 178.573L270.26 184.631C273.514 185.837 277.128 184.177 278.334 180.925L292.844 141.775C295.688 134.101 291.85 125.585 284.262 122.608Z" fill="#BCEEFF"/>
<path d="M292.313 143.208L264.185 132.782L253.764 160.897L281.893 171.323L292.313 143.208Z" fill="#F9FFFF"/>
<path d="M290.336 148.542L262.208 138.117L255.742 155.562L283.87 165.987L290.336 148.542Z" fill="#2E42FA"/>
<path d="M280.005 153.67C276.616 162.355 263.61 157.533 266.701 148.74C270.089 140.055 283.096 144.878 280.005 153.67Z" fill="#F9FFFF"/>
<path d="M292.845 141.773L278.335 180.921C275.474 187.696 268.967 184.184 264.075 182.335C267.331 183.542 270.945 181.884 272.151 178.629L286.661 139.481C289.137 132.799 286.546 125.473 280.82 121.733C290.172 122.836 296.248 132.964 292.845 141.773Z" fill="#9FE6FF" style="mix-blend-mode:multiply"/>
</g>
<path d="M102.031 20.2226L102.383 21.0882C102.39 21.1349 102.39 21.1826 102.403 21.2269C102.572 21.802 102.647 22.3894 102.659 22.986C102.687 24.4024 102.389 25.7585 101.939 27.0794C100.917 30.0748 99.3422 32.7603 97.5113 35.3006C97.3459 35.5288 97.1192 35.6104 96.8446 35.5486C95.5284 35.2555 94.2029 35.0034 92.9 34.6537C90.8396 34.1023 88.8503 33.3468 87 32.2428C85.9434 31.6124 84.9732 30.8708 84.2047 29.888C83.9485 29.5604 83.7367 29.1971 83.5057 28.8504L83.1384 27.9469C83.1281 27.8874 83.1207 27.8267 83.1045 27.7696C82.7501 26.5654 82.7187 25.359 83.0641 24.1587C83.4941 22.6639 84.3543 21.4985 85.7405 20.8005C87.4045 19.9631 89.0779 20.0737 90.7244 20.9491C90.994 21.0925 91.2462 21.2696 91.4899 21.4218C91.6168 20.988 91.7061 20.543 91.8754 20.1326C92.7314 18.0577 94.2536 16.8461 96.4988 16.7438C98.4903 16.6526 100.082 17.554 101.319 19.1231C101.588 19.465 101.795 19.8565 102.031 20.2242L102.031 20.2226Z" fill="#FF005A"/>
<path d="M132.663 143.35C131.826 142.992 128.657 139.29 128.491 139.364C128.308 139.45 129.471 144.078 129.257 144.923C128.98 145.997 125.448 148.378 125.972 148.567C126.502 148.756 130.473 147.648 130.912 148.135C131.665 148.977 134.579 152.134 135.089 152.115C135.454 151.75 134.569 147.627 134.329 146.55C134.191 145.922 137.558 143.643 137.719 143.128C137.885 142.618 133.725 143.79 132.662 143.339L132.663 143.35Z" fill="white"/>
</g>
<defs>
<filter id="filter0_f_2669_11475" x="79" y="-5" width="182" height="182" filterUnits="userSpaceOnUse" color-interpolation-filters="sRGB">
<feFlood flood-opacity="0" result="BackgroundImageFix"/>
<feBlend mode="normal" in="SourceGraphic" in2="BackgroundImageFix" result="shape"/>
<feGaussianBlur stdDeviation="15" result="effect1_foregroundBlur_2669_11475"/>
</filter>
<clipPath id="clip0_2669_11475">
<rect width="340" height="168" fill="white"/>
</clipPath>
<clipPath id="clip1_2669_11475">
<rect width="141.148" height="83.0141" fill="white" transform="translate(254.381 -13) rotate(25.9925)"/>
</clipPath>
<clipPath id="clip2_2669_11475">
<rect width="84.09" height="154.54" fill="white" transform="translate(4 28)"/>
</clipPath>
<clipPath id="clip3_2669_11475">
<rect width="39" height="37" fill="white" transform="translate(128.574 172.165) rotate(161.878)"/>
</clipPath>
<clipPath id="clip4_2669_11475">
<rect width="39" height="37" fill="white" transform="translate(118 23.4214) rotate(-80.1184)"/>
</clipPath>
<clipPath id="clip5_2669_11475">
<rect width="43.3152" height="53.1224" fill="white" transform="translate(217.372 112) rotate(21.3873)"/>
</clipPath>
<clipPath id="clip6_2669_11475">
<rect width="191.07" height="73.23" fill="white" transform="translate(74 47)"/>
</clipPath>
<clipPath id="clip7_2669_11475">
<rect width="30" height="73" fill="white" transform="translate(273.37 108) rotate(20.3365)"/>
</clipPath>
</defs>
</svg>
