<svg width="192" height="74" viewBox="0 0 192 74" fill="none" xmlns="http://www.w3.org/2000/svg">
<g clip-path="url(#clip0_3_497)">
<path d="M173.72 0H17.35V42.75H173.72V0Z" fill="#F54782"/>
<path d="M191.07 30.48H0V73.23H191.07V30.48Z" fill="#F54782"/>
<path d="M40.85 31.46V22.51H31.87V31.46H26.86V8.96002H31.87V17.78H40.85V8.96002H45.9V31.46H40.85Z" fill="white"/>
<path d="M50.91 31.46V8.96002H65.16V13.69H55.92V17.97H64.3V22.38H55.92V26.7H65.19V31.46H50.91Z" fill="white"/>
<path d="M83.03 26.89H74.33L72.71 31.46H67.44L75.91 8.96002H81.72L90.1 31.46H84.64L83.03 26.89ZM75.98 22.32H81.44L78.74 14.54L75.98 22.32Z" fill="white"/>
<path d="M93.02 31.46V8.96002H98.03V26.67H107.74V31.46H93.02Z" fill="white"/>
<path d="M119.02 13.75V31.46H114V13.75H107.08V8.96002H125.96V13.75H119.02Z" fill="white"/>
<path d="M143.17 31.46V22.51H134.19V31.46H129.18V8.96002H134.19V17.78H143.17V8.96002H148.22V31.46H143.17Z" fill="white"/>
<path d="M155.07 31.9H150.78L162.17 8.51001H166.49L155.07 31.9Z" fill="white"/>
<path d="M37.93 40.63H43.07L36.95 63.13H31.78L26.99 48.21L22.17 63.13H16.9L10.78 40.63H16.11L19.82 55.04L24.49 40.63H29.63L34.3 55.07L37.93 40.63Z" fill="white"/>
<path d="M45.99 63.13V40.63H60.24V45.36H51V49.64H59.38V54.05H51V58.37H60.27V63.13H45.99V63.13Z" fill="white"/>
<path d="M64.65 63.13V40.63H69.67V58.34H79.38V63.13H64.65Z" fill="white"/>
<path d="M82.77 63.13V40.63H87.78V58.34H97.49V63.13H82.77Z" fill="white"/>
<path d="M115.15 63.13L105.88 48.34V63.13H100.9V40.63H106.99L115.43 54.31V40.63H120.45V63.13H115.15Z" fill="white"/>
<path d="M125.46 63.13V40.63H139.71V45.36H130.47V49.64H138.85V54.05H130.47V58.37H139.74V63.13H125.46V63.13Z" fill="white"/>
<path d="M155.1 47.42C154.94 46.37 154.08 44.59 151.35 44.59C149.48 44.59 148.27 45.76 148.27 47C148.27 48.08 148.94 48.87 150.49 49.16L153.5 49.73C157.79 50.52 160.01 53.28 160.01 56.49C160.01 60.01 157.06 63.6 151.69 63.6C145.47 63.6 142.8 59.57 142.49 56.4L147.09 55.29C147.28 57.35 148.68 59.16 151.76 59.16C153.73 59.16 154.93 58.21 154.93 56.81C154.93 55.67 154.01 54.84 152.52 54.56L149.44 53.99C145.63 53.26 143.32 50.72 143.32 47.39C143.32 43.14 147.07 40.15 151.38 40.15C157 40.15 159.12 43.51 159.6 46.15L155.1 47.42Z" fill="white"/>
<path d="M174.59 47.42C174.43 46.37 173.57 44.59 170.85 44.59C168.98 44.59 167.77 45.76 167.77 47C167.77 48.08 168.44 48.87 169.99 49.16L173.01 49.73C177.29 50.52 179.52 53.28 179.52 56.49C179.52 60.01 176.57 63.6 171.2 63.6C164.98 63.6 162.31 59.57 162 56.4L166.6 55.29C166.79 57.35 168.19 59.16 171.27 59.16C173.24 59.16 174.44 58.21 174.44 56.81C174.44 55.67 173.52 54.84 172.03 54.56L168.95 53.99C165.14 53.26 162.82 50.72 162.82 47.39C162.82 43.14 166.57 40.15 170.88 40.15C176.5 40.15 178.62 43.51 179.1 46.15L174.59 47.42Z" fill="white"/>
</g>
<defs>
<clipPath id="clip0_3_497">
<rect width="191.07" height="73.23" fill="white"/>
</clipPath>
</defs>
</svg>
