<svg width="340" height="168" viewBox="0 0 340 168" fill="none" xmlns="http://www.w3.org/2000/svg">
<g clip-path="url(#clip0_2669_12620)">
<rect width="340" height="168" fill="#4E13AF"/>
<g filter="url(#filter0_f_2669_12620)">
<circle cx="170" cy="84" r="61" fill="#8448E4"/>
</g>
<path d="M282 84.5L125.25 172.402L125.25 -3.40159L282 84.5Z" fill="#B98EFD"/>
<path d="M125 84.5L-33.2501 172.402L-33.2501 -3.40159L125 84.5Z" fill="#B98EFD"/>
<path d="M441 84.5L282.75 172.402L282.75 -3.40159L441 84.5Z" fill="#B98EFD"/>
<g clip-path="url(#clip1_2669_12620)">
<path d="M264.933 45.143C264.111 44.753 261.086 40.9321 260.917 40.9999C260.731 41.079 261.716 45.7477 261.47 46.5843C261.152 47.6469 257.532 49.8908 258.048 50.0999C258.57 50.309 262.58 49.3538 263.001 49.8569C263.721 50.7273 266.512 53.9943 267.023 53.9943C267.401 53.6438 266.674 49.4895 266.476 48.4043C266.362 47.7712 269.814 45.6234 269.994 45.1147C270.18 44.6117 265.978 45.6234 264.933 45.1317V45.143Z" fill="white"/>
</g>
<g clip-path="url(#clip2_2669_12620)">
<path d="M107.248 139.008C107.044 138.121 108.163 133.378 108.006 133.288C107.829 133.191 104.778 136.86 103.969 137.186C102.938 137.595 98.9324 136.148 99.0887 136.683C99.2486 137.222 102.485 139.775 102.352 140.416C102.116 141.521 101.285 145.737 101.602 146.138C102.111 146.217 104.919 143.07 105.647 142.241C106.073 141.759 109.899 143.134 110.409 142.96C110.919 142.794 107.519 140.125 107.257 139.001L107.248 139.008Z" fill="white"/>
</g>
<g clip-path="url(#clip3_2669_12620)">
<path d="M19.7229 81.9998C17.8562 81.9998 16.1606 81.3423 14.8568 79.2911C13.5672 77.2542 13.5245 75.0101 14.2369 72.8731C13.1825 72.8374 12.1637 72.6658 11.2304 72.3156C8.65125 71.3579 5.78005 68.7278 6.72049 61.6666C7.49707 55.8132 6.69912 51.232 4.46912 48.7734C3.11545 47.2797 1.22031 46.5579 -1.15218 46.6508C-1.60815 46.6651 -1.98576 46.3149 -2.00001 45.8575C-2.01426 45.4072 -1.66515 45.0213 -1.20918 44.9998C1.66916 44.9141 3.98465 45.8003 5.6803 47.6656C8.23803 50.4959 9.1856 55.5416 8.3449 61.881C7.70368 66.6909 8.87212 69.6855 11.8003 70.7719C12.755 71.1292 13.8308 71.2579 14.9494 71.215C15.9183 69.3711 17.4074 67.6772 19.0532 66.3693C21.9671 64.068 24.7386 63.5034 26.1136 64.9399C26.4627 65.2973 27.1681 66.305 26.1849 67.813C24.76 70.0072 20.3285 72.3585 16.0395 72.8016C15.2629 74.6384 15.1133 76.6253 16.2318 78.4049C17.956 81.1279 20.5137 80.5418 24.5462 79.3626C28.3935 78.2405 32.7466 76.9612 36.6865 80.1202C37.0427 80.406 37.0997 80.9206 36.8148 81.278C36.5298 81.6353 36.0168 81.6925 35.6606 81.4066C32.3904 78.7837 28.6357 79.8843 25.0022 80.9421C23.2139 81.4638 21.39 81.9998 19.7086 81.9998H19.7229ZM24.0902 65.7976C23.0999 65.7976 21.5824 66.4837 20.072 67.6701C19.0247 68.492 17.9132 69.6498 17.0369 70.972C20.4994 70.293 23.8623 68.3848 24.8169 66.9197C25.1874 66.3479 25.0164 66.1692 24.9452 66.0906C24.7528 65.8905 24.4607 65.7976 24.0902 65.7976Z" fill="white"/>
</g>
<g clip-path="url(#clip4_2669_12620)">
<path d="M166.079 118.681C166.195 116.818 166.958 115.166 169.086 113.993C171.2 112.833 173.442 112.931 175.53 113.775C175.632 112.725 175.867 111.719 176.274 110.809C177.391 108.295 180.196 105.594 187.184 106.973C192.978 108.114 197.6 107.604 200.193 105.531C201.768 104.274 202.607 102.427 202.662 100.054C202.677 99.5977 203.05 99.2427 203.507 99.2571C203.957 99.271 204.321 99.6435 204.314 100.1C204.22 102.978 203.191 105.234 201.223 106.809C198.239 109.185 193.143 109.816 186.869 108.581C182.108 107.641 179.047 108.62 177.78 111.475C177.363 112.405 177.168 113.471 177.141 114.59C178.921 115.672 180.518 117.264 181.721 118.988C183.836 122.04 184.226 124.842 182.706 126.124C182.328 126.45 181.278 127.091 179.834 126.016C177.734 124.457 175.664 119.887 175.489 115.579C173.704 114.689 171.731 114.416 169.885 115.421C167.059 116.972 167.485 119.561 168.41 123.659C169.289 127.569 170.294 131.994 166.896 135.729C166.588 136.066 166.071 136.091 165.732 135.784C165.393 135.477 165.368 134.962 165.676 134.624C168.498 131.524 167.634 127.708 166.805 124.016C166.396 122.198 165.975 120.345 166.08 118.666L166.079 118.681ZM181.977 124.051C182.039 123.063 181.449 121.505 180.359 119.924C179.604 118.827 178.518 117.646 177.253 116.689C177.714 120.187 179.409 123.662 180.812 124.706C181.359 125.112 181.548 124.952 181.631 124.886C181.843 124.707 181.954 124.421 181.977 124.051Z" fill="white"/>
</g>
<path d="M91.6396 23.9926C91.302 23.9926 90.9795 23.7915 90.8444 23.4639C89.6893 20.6789 89.7193 18.0875 90.9345 15.7493C92.7797 12.2122 97.4004 9.45697 103.949 7.98257C108.915 6.86559 111.435 4.63908 111.435 1.37007C111.435 0.305215 111.165 -0.796865 110.722 -1.87661C108.547 -2.15958 106.342 -3.00103 104.451 -4.14035C101.121 -6.15835 99.5532 -8.66783 100.453 -10.5443C100.678 -11.0135 101.413 -12.0709 103.251 -11.6539C105.929 -11.0507 109.867 -7.56574 111.878 -3.52229C113.97 -3.43293 115.981 -3.99887 117.316 -5.7488C119.364 -8.42209 117.848 -10.7156 115.208 -14.2453C112.695 -17.6036 109.845 -21.4088 111.502 -26.4129C111.652 -26.8596 112.14 -27.1054 112.59 -26.9564C113.04 -26.8075 113.288 -26.3235 113.138 -25.8767C111.758 -21.7216 114.218 -18.4376 116.588 -15.2654C119.064 -11.9666 121.621 -8.54868 118.689 -4.71373C117.158 -2.71807 114.968 -1.85427 112.598 -1.77981C112.95 -0.729849 113.153 0.327555 113.153 1.37007C113.153 4.24442 111.622 8.01235 104.324 9.65803C98.278 11.0207 94.0699 13.4632 92.4647 16.546C91.4895 18.4151 91.482 20.5225 92.4347 22.816C92.6147 23.2554 92.4047 23.7543 91.9696 23.933C91.8646 23.9777 91.7521 24 91.6396 24V23.9926ZM102.456 -10.038C102.111 -10.038 102.036 -9.88161 102.006 -9.80714C101.541 -8.84654 102.981 -7.03704 105.344 -5.60731C106.537 -4.885 108.089 -4.20737 109.71 -3.83504C107.774 -6.97747 104.661 -9.58375 102.869 -9.98586C102.704 -10.0231 102.569 -10.038 102.464 -10.038H102.456Z" fill="#FFC854"/>
<path d="M354.049 61.7281L332.868 99.2375L328.926 87.1967L296.708 122.324L330.785 70.9094L332.796 84.2841L354.049 61.7281Z" fill="white"/>
<path d="M43.9348 137.898L19.4032 110.136C21.1303 108.611 21.0973 105.751 19.3326 103.758L20.8051 102.455C20.8268 102.488 20.8539 102.516 20.8811 102.549C21.5923 103.357 22.7435 103.511 23.441 102.892C24.1385 102.278 24.1277 101.114 23.4109 100.306C23.3893 100.273 23.3566 100.245 23.3295 100.218L24.1597 99.49C24.1759 99.5231 24.2086 99.5509 24.2302 99.584C24.9469 100.392 26.0926 100.546 26.7901 99.9269C27.4876 99.3134 27.4768 98.1497 26.7655 97.3415C26.7384 97.3083 26.7112 97.2806 26.6786 97.2528L27.6694 96.3787C27.691 96.4173 27.7182 96.445 27.7453 96.4782C28.4621 97.2809 29.6077 97.4401 30.3053 96.8211C31.0027 96.2076 30.9919 95.0439 30.2752 94.2356C30.2535 94.2025 30.2209 94.1747 30.1937 94.147L31.716 92.8059C32.8943 94.1345 34.546 94.7486 36.0298 94.5543C36.7717 94.4571 37.4662 94.1564 38.0418 93.6515L62.5845 121.407C60.8574 122.933 60.8903 125.793 62.6551 127.786L61.1383 129.127L61.1057 129.088C60.3945 128.28 59.2488 128.127 58.5458 128.74C58.4794 128.8 58.4183 128.871 58.3628 128.936C57.8571 129.584 57.9353 130.595 58.576 131.32L58.603 131.359L57.6232 132.227L57.5961 132.189C56.8794 131.381 55.7337 131.227 55.0362 131.84C54.3387 132.459 54.3495 133.623 55.0608 134.431L55.0933 134.47L54.2741 135.192L54.2415 135.153C53.5303 134.345 52.3791 134.191 51.6816 134.805C50.9841 135.424 50.9949 136.588 51.7117 137.396L51.7387 137.435L50.2663 138.732C48.5016 136.739 45.6676 136.356 43.9404 137.887L43.9348 137.898Z" fill="#7A7A7A"/>
<path d="M43.623 134.355L22.8759 110.878C24.4203 109.515 24.5637 107.156 23.2008 105.617L33.1041 96.8645C34.4669 98.4089 36.8257 98.5523 38.3646 97.1894L59.1173 120.661C57.5729 122.023 57.4295 124.382 58.7924 125.921L48.8891 134.674C47.5263 133.13 45.1675 132.986 43.6285 134.349L43.623 134.355Z" fill="#7A7A7A" stroke="#181818" stroke-width="0.73" stroke-miterlimit="10"/>
<path d="M35.7358 106.319C35.6977 106.28 35.6817 106.236 35.6767 106.181C35.6773 106.126 35.6942 106.083 35.7384 106.045C35.7772 106.007 35.8213 105.991 35.8761 105.997C35.931 105.997 35.9747 106.02 36.0072 106.058L38.181 108.319C38.2191 108.357 38.2351 108.401 38.2401 108.456C38.2396 108.511 38.2227 108.555 38.1784 108.593C38.1396 108.631 38.0901 108.647 38.0407 108.641C37.9913 108.641 37.9477 108.613 37.9096 108.574L35.7358 106.314L35.7358 106.319ZM33.7648 110.384C33.7213 110.34 33.6998 110.29 33.7058 110.235C33.7063 110.18 33.7287 110.137 33.7675 110.098L36.7922 107.191L37.0748 107.485L34.0501 110.392C34.0113 110.43 33.9673 110.446 33.9069 110.446C33.852 110.445 33.8028 110.423 33.7648 110.384V110.384Z" fill="black"/>
<path d="M36.0066 112.42C35.9623 112.458 35.9127 112.474 35.8524 112.473C35.7975 112.473 35.7483 112.45 35.7103 112.412C35.6668 112.367 35.6453 112.318 35.6513 112.263C35.6518 112.208 35.6743 112.159 35.7185 112.121L38.7488 109.213C38.7875 109.175 38.8371 109.154 38.892 109.154C38.9469 109.155 38.9961 109.177 39.0396 109.222C39.0776 109.26 39.0936 109.31 39.0931 109.365C39.0926 109.42 39.0701 109.469 39.0313 109.512L36.0011 112.42L36.0066 112.42Z" fill="black"/>
<path d="M42.1218 112.923C42.1322 112.983 42.1207 113.038 42.0873 113.082C42.054 113.125 42.0043 113.152 41.9438 113.168C41.8944 113.168 41.8505 113.162 41.8124 113.129C41.7743 113.095 41.7527 113.057 41.7367 113.013C41.7002 112.815 41.6361 112.627 41.55 112.445C41.464 112.264 41.3393 112.098 41.1927 111.937C41.0079 111.743 40.8007 111.599 40.5712 111.498C40.3416 111.397 40.1061 111.345 39.8591 111.348C39.6121 111.346 39.3701 111.398 39.1276 111.495C38.8852 111.591 38.6642 111.743 38.4537 111.944C38.2377 112.15 38.0764 112.374 37.9643 112.614C37.8577 112.855 37.8005 113.096 37.7926 113.343C37.7903 113.589 37.8264 113.826 37.923 114.057C38.0141 114.283 38.1493 114.493 38.3341 114.687C38.4808 114.842 38.6443 114.964 38.8244 115.065C38.9992 115.16 39.1851 115.233 39.3768 115.279C39.426 115.29 39.4642 115.318 39.4967 115.362C39.5293 115.401 39.5343 115.45 39.5283 115.505C39.5222 115.566 39.4943 115.615 39.4446 115.642C39.3949 115.674 39.3455 115.679 39.2907 115.668C39.1647 115.639 39.028 115.588 38.8804 115.526C38.7328 115.459 38.5854 115.381 38.4436 115.286C38.3018 115.192 38.1711 115.086 38.057 114.964C37.8396 114.737 37.6719 114.483 37.5648 114.202C37.4578 113.921 37.4001 113.635 37.403 113.333C37.4059 113.031 37.4691 112.741 37.5926 112.451C37.7161 112.162 37.9108 111.895 38.1656 111.65C38.4149 111.411 38.68 111.238 38.972 111.125C39.264 111.013 39.5555 110.955 39.8518 110.964C40.1481 110.967 40.4384 111.035 40.7172 111.153C40.9959 111.277 41.2467 111.449 41.4695 111.682C41.6434 111.865 41.7842 112.064 41.8974 112.279C42.0106 112.494 42.0799 112.714 42.1216 112.939L42.1218 112.923Z" fill="black"/>
<path d="M39.8296 116.705C39.7861 116.661 39.7646 116.611 39.7706 116.556C39.7712 116.501 39.7936 116.452 39.8379 116.414L42.8681 113.507C42.9069 113.469 42.9565 113.447 43.0114 113.448C43.0662 113.448 43.1154 113.471 43.1589 113.515C43.1969 113.559 43.2184 113.603 43.2179 113.658C43.2174 113.713 43.1949 113.762 43.1562 113.8L40.1259 116.708C40.0817 116.746 40.0321 116.762 39.9772 116.761C39.9223 116.761 39.8732 116.738 39.8351 116.699L39.8296 116.705ZM45.2347 115.697C45.2727 115.736 45.2887 115.78 45.2882 115.835C45.2877 115.89 45.2653 115.934 45.2321 115.966C45.1933 116.004 45.1492 116.02 45.0889 116.02L40.9964 115.799L41.2851 115.451L45.087 115.636C45.1474 115.636 45.1966 115.659 45.2347 115.692L45.2347 115.697ZM41.9486 118.954C41.9106 118.915 41.8946 118.86 41.9007 118.799L42.3025 115.823L42.7415 115.827L42.3284 118.842C42.3169 118.897 42.2946 118.935 42.2613 118.973C42.2114 119.022 42.1564 119.038 42.0961 119.026C42.0358 119.015 41.9867 118.992 41.9541 118.954L41.9486 118.954Z" fill="black"/>
<path d="M46.2293 116.711L47.9031 118.456C47.9411 118.495 47.9572 118.539 47.9567 118.594C47.9561 118.649 47.9392 118.693 47.8949 118.736C47.8561 118.774 47.8065 118.796 47.7517 118.79C47.6968 118.789 47.6531 118.767 47.6151 118.728L46.0445 117.094L46.171 117.062L44.836 118.344L44.848 118.235L46.2175 119.659C46.2555 119.697 46.2716 119.741 46.271 119.802C46.2705 119.857 46.2481 119.906 46.2148 119.938C46.176 119.977 46.1264 119.998 46.0716 119.992C46.0167 119.991 45.973 119.969 45.9404 119.93L44.5818 118.518L44.6696 118.519L43.3014 119.828L43.3018 119.779L44.8506 121.391C44.8887 121.43 44.9047 121.474 44.9042 121.534C44.9036 121.589 44.8812 121.638 44.848 121.671C44.8092 121.709 44.7596 121.73 44.7047 121.724C44.6499 121.724 44.6062 121.701 44.5681 121.663L42.8943 119.918C42.8563 119.879 42.8403 119.829 42.8408 119.774C42.8413 119.719 42.8638 119.67 42.897 119.638L45.9383 116.719C45.9771 116.681 46.0212 116.665 46.0815 116.666C46.1364 116.666 46.1856 116.689 46.2182 116.722L46.2293 116.711Z" fill="black"/>
<path d="M48.2784 119.388C48.2403 119.349 48.2243 119.305 48.2193 119.25C48.2199 119.195 48.2368 119.151 48.2755 119.113C48.3143 119.075 48.3584 119.059 48.4132 119.065C48.4681 119.066 48.5118 119.088 48.5444 119.127L50.7182 121.387C50.7562 121.426 50.7722 121.47 50.7772 121.525C50.7767 121.58 50.7598 121.623 50.7155 121.661C50.6767 121.699 50.6272 121.715 50.5778 121.715C50.5284 121.714 50.4848 121.687 50.4467 121.648L48.2729 119.388L48.2784 119.388ZM46.3074 123.452C46.2639 123.408 46.2424 123.358 46.2484 123.304C46.2489 123.249 46.2713 123.205 46.3101 123.167L49.3348 120.259L49.6174 120.553L46.5927 123.46C46.5539 123.499 46.5099 123.515 46.4495 123.514C46.3946 123.513 46.3454 123.491 46.3074 123.452V123.452Z" fill="black"/>
<path d="M33.4544 103.268L32.9018 104.8L33.8496 106.126L32.2199 106.072L31.2524 107.38L30.8008 105.817L29.258 105.297L30.606 104.388L30.6161 102.758L31.9018 103.758L33.4544 103.268Z" fill="black"/>
<path d="M53.4246 123.614L52.872 125.146L53.8198 126.472L52.1902 126.418L51.2226 127.726L50.771 126.163L49.2281 125.649L50.5762 124.734L50.5863 123.109L51.872 124.11L53.4246 123.614Z" fill="black"/>
<path d="M61.1383 129.133L61.1057 129.094C60.3944 128.286 59.2488 128.132 58.5458 128.746C58.4794 128.805 58.4183 128.876 58.3628 128.941L56.628 127.833L53.2839 125.698L50.5944 123.987L29.2258 110.368C30.4629 108.426 29.6494 105.685 27.4018 104.252L28.4606 102.594C28.4878 102.622 28.526 102.644 28.5587 102.666C29.2406 103.101 30.0473 103.12 30.627 102.763C30.627 102.763 30.6307 102.761 30.638 102.758C30.8313 102.639 30.9919 102.487 31.1145 102.296C31.6216 101.505 31.2864 100.393 30.3753 99.8187C30.3427 99.7909 30.3044 99.7741 30.2716 99.7573L30.8401 98.8626L30.8624 98.8244L30.8733 98.8355C30.8733 98.8355 30.9333 98.8745 30.9605 98.8967C31.8661 99.4708 33.0148 99.3061 33.5164 98.5151C33.7282 98.1823 33.7923 97.7932 33.7191 97.4138C33.6363 96.8861 33.301 96.3724 32.7827 96.0436C32.75 96.0159 32.7118 95.999 32.6735 95.9822L33.3868 94.8638C33.414 94.8915 33.4522 94.9139 33.4849 94.9361C34.3959 95.5157 35.5392 95.3455 36.0408 94.56C36.0408 94.5545 36.0409 94.549 36.0519 94.5436C36.7938 94.4465 37.4883 94.1457 38.0639 93.6408L62.5846 121.407C60.8574 122.933 60.8904 125.793 62.6551 127.786L61.1383 129.127L61.1383 129.133Z" fill="#451C49"/>
<path d="M73.42 117.323C72.9185 118.109 73.2481 119.221 74.1592 119.8L74.1973 119.828L73.4952 120.93L73.457 120.902C72.546 120.323 71.4027 120.493 70.9012 121.278C70.3997 122.064 70.7293 123.176 71.6403 123.755L71.6785 123.783L71.0933 124.705L71.0552 124.677C70.1441 124.098 69.0008 124.268 68.4993 125.054C67.9978 125.839 68.3274 126.951 69.2385 127.531L69.2766 127.558L68.2234 129.211C65.9813 127.779 63.1506 128.197 61.908 130.139L30.6597 110.228C31.8968 108.286 31.0778 105.544 28.8357 104.112L29.8945 102.448C29.9272 102.476 29.9599 102.498 29.9926 102.521C30.9037 103.1 32.047 102.93 32.5485 102.145C33.05 101.359 32.7204 100.247 31.8093 99.6675C31.7766 99.6453 31.7439 99.623 31.7056 99.6062L32.3019 98.6733C32.3345 98.7011 32.3672 98.7233 32.4 98.7456C33.311 99.3252 34.4543 99.155 34.9558 98.3694C35.4574 97.5839 35.1277 96.472 34.2167 95.8924C34.1839 95.8702 34.1512 95.8479 34.113 95.8311L34.8262 94.7182C34.8589 94.746 34.8916 94.7682 34.9243 94.7905C35.8354 95.3701 36.9786 95.1999 37.4802 94.4143C37.9817 93.6288 37.6521 92.5169 36.741 91.9373C36.7083 91.9151 36.6756 91.8928 36.6373 91.876L37.7295 90.163C39.9716 91.5951 42.8023 91.1777 44.045 89.2356L75.2823 109.146C74.0452 111.089 74.8641 113.83 77.1063 115.262L76.0196 116.969L75.9814 116.942C75.0704 116.362 73.9271 116.532 73.4256 117.318L73.42 117.323Z" fill="white"/>
<path d="M60.6279 126.828L34.2077 109.987C35.3166 108.253 34.8063 105.948 33.066 104.839L40.1711 93.6882C41.9059 94.7971 44.2105 94.2868 45.3195 92.5465L71.7398 109.387C70.6309 111.122 71.1412 113.426 72.8814 114.535L65.7763 125.686C64.0416 124.577 61.7369 125.087 60.6279 126.828Z" fill="white" stroke="#7E7E7E" stroke-width="0.73" stroke-miterlimit="10"/>
<path d="M45.305 102.053C45.2613 102.025 45.2288 101.987 45.2128 101.937C45.1968 101.887 45.2028 101.838 45.2307 101.789C45.2585 101.745 45.2972 101.718 45.3468 101.702C45.3963 101.692 45.4456 101.703 45.4947 101.726L48.2075 103.3C48.2512 103.327 48.2837 103.366 48.2997 103.416C48.3157 103.465 48.3098 103.515 48.2818 103.564C48.2539 103.613 48.2152 103.64 48.1657 103.65C48.1162 103.661 48.067 103.649 48.0233 103.622L45.3105 102.048L45.305 102.053ZM44.5323 106.503C44.4777 106.475 44.4452 106.43 44.4347 106.375C44.4243 106.32 44.4302 106.271 44.4581 106.227L46.5677 102.598L46.9224 102.804L44.8129 106.434C44.785 106.478 44.7463 106.51 44.6912 106.526C44.6362 106.542 44.5869 106.531 44.5378 106.503L44.5323 106.503Z" fill="#7E7E7E"/>
<path d="M47.2527 107.846C47.2193 107.895 47.1752 107.922 47.1201 107.938C47.0651 107.948 47.0158 107.943 46.9666 107.92C46.912 107.892 46.8795 107.848 46.869 107.793C46.8586 107.738 46.87 107.689 46.8925 107.639L49.0021 104.004C49.03 103.955 49.0742 103.923 49.1238 103.907C49.1788 103.891 49.2281 103.902 49.2827 103.93C49.3264 103.958 49.3589 103.997 49.3749 104.052C49.3908 104.107 49.3848 104.162 49.3569 104.211L47.2473 107.846L47.2527 107.846Z" fill="#7E7E7E"/>
<path d="M53.2689 106.641C53.2958 106.696 53.3007 106.751 53.2782 106.806C53.2558 106.86 53.2225 106.898 53.1618 106.925C53.1178 106.941 53.0684 106.941 53.0246 106.924C52.9809 106.902 52.9428 106.874 52.9158 106.83C52.8241 106.653 52.716 106.487 52.5802 106.338C52.4444 106.188 52.2864 106.061 52.0954 105.949C51.8662 105.815 51.6255 105.73 51.3788 105.695C51.1322 105.66 50.8905 105.679 50.6538 105.749C50.4171 105.818 50.1965 105.931 49.9919 106.093C49.7872 106.256 49.6151 106.463 49.47 106.709C49.3194 106.965 49.2235 107.228 49.1881 107.485C49.1472 107.743 49.1613 107.996 49.2194 108.232C49.283 108.469 49.3851 108.689 49.537 108.883C49.6888 109.076 49.8793 109.243 50.1031 109.371C50.2887 109.477 50.4801 109.556 50.6773 109.596C50.8744 109.642 51.0719 109.655 51.264 109.651C51.3134 109.652 51.3627 109.663 51.4008 109.697C51.4389 109.73 51.466 109.769 51.4709 109.824C51.4813 109.884 51.4698 109.939 51.4311 109.977C51.3922 110.02 51.3481 110.042 51.2877 110.041C51.156 110.046 51.0133 110.039 50.8544 110.015C50.6954 109.992 50.5311 109.957 50.3724 109.906C50.2082 109.855 50.0552 109.788 49.9133 109.704C49.6404 109.548 49.4118 109.348 49.2329 109.11C49.0486 108.873 48.9194 108.608 48.8398 108.322C48.7602 108.036 48.7412 107.734 48.7826 107.421C48.824 107.109 48.9312 106.802 49.1098 106.491C49.2828 106.196 49.4937 105.951 49.7371 105.762C49.9859 105.572 50.2506 105.443 50.5422 105.363C50.8284 105.289 51.1249 105.27 51.4265 105.306C51.728 105.347 52.0179 105.443 52.2963 105.605C52.5146 105.733 52.7053 105.883 52.8683 106.061C53.0367 106.238 53.1666 106.431 53.2634 106.635L53.2689 106.641Z" fill="#7E7E7E"/>
<path d="M52.1082 110.906C52.0537 110.872 52.0211 110.834 52.0107 110.779C52.0002 110.724 52.0117 110.674 52.0341 110.625L54.1437 106.99C54.1716 106.941 54.2158 106.908 54.2654 106.892C54.3204 106.876 54.3697 106.888 54.4243 106.916C54.4735 106.944 54.506 106.988 54.522 107.037C54.5379 107.093 54.5265 107.142 54.4985 107.191L52.3889 110.826C52.3555 110.875 52.3114 110.902 52.2618 110.918C52.2068 110.934 52.1574 110.928 52.1083 110.895L52.1082 110.906ZM57.0278 108.445C57.0714 108.473 57.104 108.511 57.1145 108.561C57.125 108.61 57.119 108.66 57.0967 108.703C57.0688 108.747 57.0301 108.78 56.975 108.795L52.9814 109.712L53.161 109.297L56.8688 108.427C56.9293 108.411 56.9841 108.417 57.0278 108.445V108.445ZM54.7662 112.479C54.717 112.451 54.6845 112.407 54.6797 112.341L54.2416 109.367L54.6653 109.256L55.0976 112.263C55.097 112.318 55.0966 112.362 55.0687 112.405C55.0352 112.465 54.9855 112.498 54.9251 112.503C54.8647 112.502 54.8098 112.502 54.7717 112.474L54.7662 112.479Z" fill="#7E7E7E"/>
<path d="M58.2616 109.148L60.3521 110.364C60.3957 110.392 60.4283 110.431 60.4443 110.481C60.4603 110.53 60.4543 110.585 60.4264 110.634C60.3984 110.683 60.3598 110.71 60.3048 110.721C60.2498 110.731 60.206 110.72 60.1568 110.697L58.1973 109.559L58.3132 109.494L57.3812 111.093L57.3603 110.983L59.0687 111.977C59.1124 112.005 59.1449 112.043 59.1554 112.098C59.1713 112.153 59.1654 112.203 59.1375 112.246C59.1096 112.296 59.0709 112.328 59.0159 112.339C58.9664 112.349 58.9171 112.338 58.8679 112.315L57.1704 111.327L57.253 111.301L56.2987 112.938L56.2882 112.889L58.2204 114.01C58.2641 114.038 58.2966 114.077 58.3126 114.132C58.3285 114.187 58.3225 114.237 58.2947 114.28C58.2668 114.329 58.2281 114.356 58.1731 114.367C58.1181 114.377 58.0743 114.366 58.0251 114.343L55.9346 113.127C55.891 113.099 55.8584 113.06 55.8425 113.005C55.8265 112.95 55.8325 112.901 55.8604 112.857L57.9756 109.211C58.0034 109.167 58.0422 109.135 58.0972 109.119C58.1523 109.103 58.2016 109.109 58.2452 109.137L58.2616 109.148Z" fill="#7E7E7E"/>
<path d="M60.9703 111.155C60.9266 111.127 60.8941 111.089 60.8781 111.039C60.8621 110.99 60.868 110.94 60.896 110.891C60.9238 110.847 60.9625 110.82 61.0121 110.804C61.0616 110.794 61.1108 110.805 61.16 110.828L63.8728 112.402C63.9165 112.429 63.949 112.468 63.965 112.518C63.981 112.567 63.975 112.617 63.9471 112.666C63.9192 112.715 63.8805 112.742 63.831 112.752C63.7815 112.763 63.7322 112.751 63.6886 112.724L60.9758 111.15L60.9703 111.155ZM60.1976 115.605C60.143 115.577 60.1105 115.532 60.1 115.477C60.0896 115.422 60.0955 115.373 60.1234 115.329L62.2329 111.7L62.5877 111.906L60.4782 115.536C60.4503 115.58 60.4116 115.612 60.3566 115.623C60.3015 115.639 60.2522 115.627 60.2031 115.599L60.1976 115.605Z" fill="#7E7E7E"/>
<path d="M42.2701 99.7518L42.1612 101.375L43.4358 102.387L41.8568 102.783L41.2878 104.309L40.4228 102.928L38.7988 102.863L39.8427 101.611L39.4022 100.043L40.9167 100.65L42.2701 99.7518Z" fill="#7E7E7E"/>
<path d="M67.0814 113.8L66.9725 115.423L68.2472 116.434L66.6681 116.831L66.0991 118.357L65.2342 116.976L63.6101 116.911L64.654 115.659L64.2135 114.09L65.728 114.698L67.0814 113.8Z" fill="#7E7E7E"/>
<path d="M239.311 37.174L239.357 37.1205C242.619 33.3126 245.329 28.9156 247.306 24.0005C251.796 12.8386 251.716 0.962927 247.943 -9.54314C247.52 -10.7338 247.046 -11.9137 246.523 -13.073C244.581 -17.3636 241.997 -21.3697 238.842 -24.9276C238.191 -25.6681 237.515 -26.3866 236.812 -27.0764C235.802 -28.0965 234.734 -29.0686 233.613 -29.99C233.153 -30.3742 232.682 -30.7475 232.197 -31.1098C231.035 -32.0079 229.818 -32.8484 228.553 -33.6285C227.961 -34.002 227.355 -34.3577 226.745 -34.7065C226.011 -35.1215 225.268 -35.5159 224.501 -35.8884C223.404 -36.4333 222.284 -36.9397 221.131 -37.4036C219.394 -38.1022 217.643 -38.6868 215.888 -39.1615C215.739 -39.2058 215.586 -39.2432 215.437 -39.2874C214.534 -39.5228 213.628 -39.7279 212.727 -39.9069C212.095 -40.0414 211.469 -40.1498 210.837 -40.2444C210.689 -40.2722 210.531 -40.2958 210.38 -40.3167C210.103 -40.364 209.822 -40.3975 209.54 -40.431C207.533 -40.696 205.521 -40.8277 203.526 -40.8247C203.08 -40.8283 202.639 -40.8223 202.196 -40.8094C200.831 -40.7681 199.478 -40.6745 198.133 -40.5054C197.863 -40.4867 197.593 -40.4515 197.321 -40.4094C197.068 -40.3756 196.809 -40.3445 196.56 -40.301C196.172 -40.2495 195.779 -40.1843 195.393 -40.1164C195.213 -40.0851 195.023 -40.0498 194.84 -40.0117C194.471 -39.9451 194.091 -39.8744 193.723 -39.7913C193.612 -39.7722 193.497 -39.7463 193.381 -39.7136C192.972 -39.6306 192.565 -39.5311 192.159 -39.4316C192.035 -39.4016 191.901 -39.3675 191.775 -39.3306C190.978 -39.1329 190.183 -38.9023 189.394 -38.6455C189.313 -38.6223 189.239 -38.5963 189.157 -38.5731C187.695 -38.1088 186.251 -37.573 184.833 -36.963C184.525 -36.8317 184.211 -36.6866 183.901 -36.5485C182.71 -36.0067 181.546 -35.414 180.403 -34.7732C176.627 -32.6632 173.134 -30.025 170.043 -26.9216L169.998 -26.8681C168.909 -25.7669 167.864 -24.6162 166.88 -23.4007C163.964 -19.8202 161.534 -15.7414 159.72 -11.2314C158.477 -8.14228 157.588 -4.99891 157.031 -1.84941C154.742 10.9395 157.914 23.8914 165.29 34.0844C167.266 36.8252 169.552 39.3716 172.121 41.6491C176.076 45.1784 180.696 48.0892 185.899 50.1823C205.148 57.9251 226.497 52.0776 239.311 37.174V37.174ZM167.298 -10.7591C168.073 -12.3295 169.152 -13.6423 170.426 -14.6689C172.866 -16.6304 176.035 -17.5489 179.171 -17.1567C180.439 -16.9977 181.697 -16.6352 182.907 -16.0366C183.201 -15.8945 183.487 -15.7318 183.762 -15.565C185.515 -14.5091 186.894 -13.061 187.854 -11.3828C189.719 -8.12832 189.979 -4.03604 188.185 -0.427279C187.942 0.0572716 187.675 0.523916 187.371 0.960259C184.155 5.70393 177.858 7.46141 172.569 4.84741C171.936 4.53703 171.348 4.17315 170.804 3.76264C166.35 0.479752 164.752 -5.61842 167.298 -10.7591V-10.7591ZM196.114 -30.6468C196.278 -30.7962 196.439 -30.9388 196.611 -31.069C196.86 -31.2719 197.11 -31.4582 197.374 -31.6391C197.431 -31.6802 197.484 -31.7144 197.545 -31.7459C197.784 -31.9048 198.03 -32.061 198.285 -32.1979C199.372 -32.7976 200.568 -33.2336 201.841 -33.4633C202.315 -33.5517 202.801 -33.6112 203.29 -33.6378C204.097 -33.6802 204.894 -33.6388 205.667 -33.5191C205.939 -33.4815 206.213 -33.4274 206.476 -33.3691C207.075 -33.2319 207.65 -33.0563 208.206 -32.8327C209.195 -32.435 210.117 -31.9125 210.949 -31.283C211.101 -31.1659 211.246 -31.0516 211.392 -30.9372C212.315 -30.1591 213.113 -29.248 213.764 -28.2286C213.787 -28.1873 213.813 -28.1529 213.836 -28.1117C214.447 -27.1322 214.907 -26.0541 215.203 -24.9062C215.336 -24.4058 215.434 -23.8959 215.496 -23.3764C215.523 -23.1263 215.543 -22.8789 215.561 -22.6247C215.582 -22.2413 215.583 -21.8662 215.56 -21.4925C215.472 -19.2709 214.745 -17.1866 213.552 -15.4494C211.573 -12.5528 208.318 -10.5681 204.544 -10.3639C203.892 -10.3308 203.253 -10.3485 202.627 -10.4171C201.267 -10.5654 199.978 -10.9485 198.798 -11.5265C198.56 -11.6465 198.33 -11.7706 198.097 -11.9043L197.433 -12.315C196.309 -13.0702 195.323 -14.0092 194.527 -15.103C193.27 -16.7969 192.469 -18.8498 192.303 -21.0939C192.292 -21.1859 192.281 -21.278 192.277 -21.3673C192.246 -21.9623 192.255 -22.5408 192.318 -23.1136C192.425 -24.2909 192.711 -25.4198 193.167 -26.4728C193.225 -26.6169 193.283 -26.7611 193.352 -26.8929C193.368 -26.934 193.382 -26.9684 193.399 -27.0096C193.611 -27.4584 193.851 -27.8963 194.129 -28.3107C194.208 -28.4466 194.293 -28.5797 194.383 -28.7032C194.886 -29.418 195.47 -30.0764 196.116 -30.6536L196.114 -30.6468ZM239.215 -12.5513C239.519 -11.839 239.742 -11.1034 239.891 -10.3653C239.985 -9.90484 240.049 -9.44855 240.086 -8.98681C240.247 -6.92825 239.859 -4.85151 238.963 -3.00247C238.72 -2.47808 238.432 -1.97987 238.103 -1.49824C237.581 -0.735309 236.968 -0.0247667 236.259 0.607271C235.761 1.05285 235.21 1.46948 234.616 1.83656C229.152 5.22935 221.968 3.55973 218.572 -1.89753C217.513 -3.60747 216.943 -5.47996 216.837 -7.35705C216.759 -8.59243 216.885 -9.81779 217.194 -11.0016C217.806 -13.3554 219.157 -15.5237 221.151 -17.1302C221.515 -17.4221 221.905 -17.6962 222.312 -17.9551C222.855 -18.2948 223.41 -18.5822 223.982 -18.8147C225.661 -19.5191 227.443 -19.8069 229.192 -19.6936L229.206 -19.688C231.462 -19.5463 233.652 -18.7451 235.487 -17.3607C236.604 -16.5286 237.58 -15.466 238.367 -14.2086C238.702 -13.6748 238.983 -13.1233 239.218 -12.5581L239.215 -12.5513ZM171.731 13.6105C171.731 13.6105 171.775 13.5804 171.8 13.5585C172.162 13.2734 172.551 12.9993 172.956 12.7473C178.423 9.34763 185.604 11.0241 188.997 16.4882C191.52 20.5258 191.255 25.5074 188.74 29.2014C187.85 30.5022 186.685 31.6527 185.26 32.5389C184.973 32.7184 184.684 32.8813 184.394 33.0278C179.054 35.753 172.432 33.9746 169.212 28.7952C166.074 23.7685 167.252 17.2718 171.729 13.6174L171.731 13.6105ZM198.279 43.6936C197.051 42.3062 196.159 40.6159 195.728 38.7354C195.564 38.0714 195.458 37.3829 195.424 36.6752C195.214 32.7946 196.925 29.2557 199.735 26.9886C201.565 25.4917 203.875 24.5468 206.427 24.4089C212.853 24.0586 218.343 28.9868 218.691 35.4192C218.728 36.12 218.707 36.8056 218.619 37.48L218.614 37.4938C218.515 38.3551 218.308 39.2052 218.021 39.9988C217.688 40.9256 217.244 41.7917 216.701 42.5862C214.731 45.5021 211.469 47.484 207.687 47.6855C203.962 47.8857 200.558 46.3169 198.283 43.7032L198.279 43.6936ZM236.117 29.9872C233.751 31.5078 230.867 32.1342 228.032 31.6877C227.618 31.625 227.229 31.5405 226.826 31.4339C226.092 31.2346 225.373 30.9612 224.667 30.6135C218.898 27.7664 216.54 20.7805 219.39 15.0043C220.165 13.4339 221.253 12.117 222.537 11.0862C225.962 8.34076 230.807 7.65767 235.006 9.72957C235.525 9.98615 236.02 10.2811 236.481 10.6022C237.523 11.3242 238.417 12.1943 239.154 13.1768C240.443 14.8913 241.223 16.9359 241.429 19.0605C241.633 21.1521 241.271 23.3196 240.274 25.343C240.028 25.8344 239.761 26.301 239.458 26.7373C238.563 28.0684 237.414 29.1612 236.117 29.9872V29.9872Z" fill="white"/>
<path d="M151.504 47.2014L144.653 44.4456C144.924 44.1081 145.21 43.7762 145.499 43.4538C150.556 37.8399 157.781 34.4533 165.29 34.0845C166.325 34.0302 167.375 34.0377 168.416 34.1057C168.836 34.1312 169.261 34.1664 169.68 34.2153C175.53 34.8381 180.843 37.1348 185.985 39.3624C190.183 41.1787 194.157 42.8971 198.279 43.6938C198.388 43.7214 198.499 43.7423 198.61 43.7631C200.602 44.1256 202.631 44.2559 204.648 44.1582C209.361 43.9406 214.011 42.4932 218.017 39.9893C218.614 39.6154 219.196 39.2194 219.759 38.7918C220.097 38.5451 220.425 38.2861 220.745 38.0243C222.021 36.9743 223.255 35.7717 224.482 34.3671C225.262 33.4769 226.036 32.5042 226.823 31.4409C227.436 30.6108 228.048 29.7244 228.675 28.7803C228.876 28.4784 229.08 28.1697 229.28 27.8513C233.226 21.6704 235.574 16.1309 236.434 10.9182C236.452 10.8139 236.468 10.7163 236.479 10.6092C236.667 9.40866 236.773 8.19151 236.794 6.97144C236.85 4.84872 236.656 2.71314 236.254 0.62113C236.205 0.346235 236.146 0.0754431 236.078 -0.191245C235.438 -3.08064 234.399 -5.89111 232.986 -8.48522C232.349 -9.69833 231.625 -10.8511 230.831 -11.9519C228.929 -14.5992 226.622 -16.9312 223.976 -18.8009C223.817 -18.9207 223.648 -19.0364 223.479 -19.1522L224.152 -20.1498L225.754 -22.5278L225.757 -22.5347L227.354 -24.899C228.577 -24.0722 229.742 -23.181 230.836 -22.2143C232.54 -20.7394 234.093 -19.1096 235.482 -17.3468C236.695 -15.822 237.786 -14.211 238.747 -12.5163C239.149 -11.8121 239.53 -11.0927 239.888 -10.3583C240.101 -9.9141 240.306 -9.47265 240.503 -9.0106C240.912 -8.10434 241.282 -7.18167 241.614 -6.24258C243.652 -0.422482 244.298 5.88269 243.276 12.0513C243.201 12.5156 243.112 12.9743 243.013 13.4372C242.636 15.2872 242.115 17.159 241.427 19.0675C240.385 22.0141 238.971 25.0342 237.181 28.1744C236.842 28.7797 236.486 29.3863 236.114 29.9942C235.792 30.5185 235.463 31.0565 235.122 31.5889C231.802 36.7693 228.634 40.5197 225.146 43.3832C219.513 48.0081 212.397 50.6887 205.148 51.0827C202.55 51.2178 199.941 51.0616 197.37 50.5936C192.339 49.6784 187.707 47.6716 183.233 45.7283C179.444 44.0845 175.807 42.5179 172.118 41.6561C170.745 41.343 169.365 41.1232 167.974 41.0339C161.984 40.6582 155.787 42.9984 151.501 47.2083L151.504 47.2014Z" fill="#451C49"/>
<path d="M173.269 -7.44026C166.131 10.3027 174.729 30.4721 192.472 37.6093C210.215 44.7465 230.384 36.1488 237.522 18.4058C244.659 0.662828 236.061 -19.5065 218.318 -26.6437C200.575 -33.7809 180.406 -25.1832 173.269 -7.44026Z" fill="#451C49"/>
<path d="M210.24 -35.468C210.531 -35.3589 210.819 -35.2429 211.104 -35.12L210.983 -35.5916L210.644 -37.0281L209.968 -37.4113L208.388 -35.9813C209.028 -35.8674 209.646 -35.6986 210.242 -35.4748L210.24 -35.468ZM205.151 51.0759C217.941 51.2601 230.312 46.2031 239.311 37.1742L239.357 37.1207C243.671 32.779 247.207 27.5179 249.634 21.4839C253.804 11.1183 254.034 0.156965 251.029 -9.76091C250.673 -10.957 250.261 -12.1353 249.805 -13.3C248.777 -15.9387 247.511 -18.4817 246.026 -20.8973C244.258 -23.7779 242.169 -26.4763 239.794 -28.939C238.996 -29.7705 238.168 -30.5663 237.305 -31.336C236.864 -31.7285 236.421 -32.114 235.966 -32.4886C234.866 -33.4017 233.723 -34.2682 232.528 -35.0839C231.238 -35.9617 229.903 -36.7859 228.51 -37.5457C227.77 -37.947 227.018 -38.3373 226.245 -38.696C225.339 -39.1402 224.402 -39.5487 223.455 -39.9298C221.485 -40.7223 219.497 -41.3706 217.5 -41.8787C216.957 -42.0172 216.412 -42.1487 215.871 -42.2707C215.723 -42.2985 215.577 -42.3331 215.436 -42.3581C214.385 -42.5814 213.327 -42.7675 212.274 -42.9042C210.131 -43.2079 207.981 -43.355 205.843 -43.3537C203.911 -43.3492 201.991 -43.2361 200.092 -42.9952C199.941 -42.9763 199.79 -42.9573 199.636 -42.9315C198.679 -42.8138 197.736 -42.6508 196.789 -42.4575C196.628 -42.4345 196.472 -42.4018 196.305 -42.365C196.282 -42.3665 196.246 -42.3569 196.217 -42.3446C195.75 -42.2534 195.284 -42.1458 194.815 -42.0313C194.78 -42.0218 194.737 -42.015 194.701 -42.0054C194.375 -41.9291 194.047 -41.8459 193.725 -41.76C193.01 -41.569 192.307 -41.3657 191.601 -41.1389C191.51 -41.1116 191.41 -41.0802 191.314 -41.0392C190.989 -40.9464 190.666 -40.8371 190.34 -40.721C189.023 -40.2618 187.731 -39.745 186.456 -39.1731C185.607 -38.7887 184.764 -38.3781 183.943 -37.9428C183.35 -37.6389 182.763 -37.3089 182.183 -36.9762C181.672 -36.679 181.169 -36.3791 180.667 -36.0626C176.728 -33.5875 173.133 -30.5194 170.043 -26.9214L169.998 -26.8679C168.532 -25.1684 167.188 -23.3326 165.964 -21.4004C164.455 -19.0167 163.139 -16.4595 162.048 -13.7479C161.518 -12.4299 161.048 -11.1036 160.649 -9.77292C155.919 5.83066 159.704 22.315 169.68 34.2154C174.501 39.9749 180.768 44.6573 188.223 47.6561C193.777 49.89 199.507 50.9908 205.151 51.0759V51.0759ZM171.741 13.6465C171.741 13.6465 171.779 13.5902 171.8 13.5587C172.69 12.2578 173.855 11.1073 175.28 10.2211C180.744 6.8283 187.926 8.50479 191.325 13.9717C194.476 19.0272 193.272 25.5693 188.74 29.2016C188.375 29.4935 187.996 29.7635 187.591 30.0155C186.071 30.9592 184.413 31.5125 182.751 31.6975C178.422 32.1892 173.992 30.2158 171.543 26.2718C169.046 22.2686 169.282 17.3391 171.738 13.6533L171.741 13.6465ZM242.236 -12.7637C242.47 -11.561 242.506 -10.3422 242.354 -9.15121C242.239 -8.15254 241.983 -7.17887 241.617 -6.24938C241.048 -4.83526 240.212 -3.52884 239.108 -2.4098C238.795 -2.08889 238.458 -1.78589 238.103 -1.49804C237.738 -1.20609 237.352 -0.938907 236.947 -0.686877C236.662 -0.514306 236.38 -0.348601 236.083 -0.204908C230.748 2.52998 224.124 0.758401 220.896 -4.42373C220.277 -5.42245 219.823 -6.47444 219.537 -7.54672C219.215 -8.72899 219.089 -9.94385 219.155 -11.1377C219.254 -13.2672 219.941 -15.3516 221.151 -17.13C221.936 -18.2895 222.941 -19.3208 224.157 -20.1634C224.311 -20.2689 224.475 -20.3785 224.636 -20.4813C225.391 -20.9511 226.178 -21.3205 226.992 -21.5993L226.995 -21.6061C228.254 -22.0406 229.556 -22.2428 230.842 -22.2279C234.714 -22.2177 238.491 -20.2675 240.691 -16.7348C241.47 -15.4802 241.981 -14.1341 242.238 -12.7706L242.236 -12.7637ZM210.005 45.1565C208.097 45.2586 206.275 44.8924 204.648 44.1582C202.495 43.2046 200.682 41.6059 199.447 39.6016L199.44 39.5988C198.463 38.0017 197.854 36.1456 197.741 34.1462C197.599 31.5051 198.343 29.021 199.728 26.986C201.699 24.0701 204.963 22.0814 208.745 21.8799C215.174 21.5393 220.667 26.4606 221.005 32.8971C221.076 34.1695 220.937 35.4059 220.62 36.5704L220.615 36.5841C220.406 37.3614 220.117 38.0987 219.756 38.7987C219.015 40.2634 217.968 41.557 216.694 42.5837C214.864 44.0805 212.554 45.0255 210.002 45.1634L210.005 45.1565ZM237.184 28.1676C235.161 29.1323 232.878 29.514 230.615 29.2101C229.964 29.1236 229.322 28.9767 228.677 28.7735C228.112 28.5938 227.546 28.3742 226.996 28.097C221.229 25.243 218.864 18.2543 221.718 12.4877C221.964 11.9963 222.231 11.5296 222.537 11.0864C225.644 6.51429 231.63 4.71911 236.796 6.96464C236.975 7.03643 237.155 7.12472 237.327 7.21024C238.265 7.6751 239.105 8.24419 239.852 8.90379C241.279 10.1555 242.352 11.7116 243.016 13.4304C244.162 16.3716 244.113 19.7653 242.605 22.8195C241.83 24.3899 240.739 25.7137 239.458 26.7375C238.75 27.3064 237.99 27.7899 237.184 28.1676V28.1676ZM205.612 -36.1571C206.557 -36.2075 207.489 -36.1438 208.386 -35.9745C209.026 -35.8605 209.644 -35.6917 210.24 -35.468C210.531 -35.3589 210.819 -35.2429 211.104 -35.12C211.125 -35.1118 211.146 -35.1035 211.163 -35.0883C211.321 -35.0248 211.474 -34.9476 211.623 -34.8635C213.905 -33.6747 215.756 -31.7337 216.842 -29.3587C217.203 -28.5913 217.472 -27.7733 217.652 -26.9114C217.73 -26.5691 217.788 -26.2187 217.823 -25.8696C217.85 -25.6593 217.87 -25.4518 217.885 -25.2306C217.884 -25.2072 217.889 -25.1811 217.888 -25.1577C217.902 -24.8568 217.907 -24.5518 217.898 -24.2523C217.817 -20.7199 216.153 -17.5533 213.555 -15.4561C211.72 -13.9689 209.416 -13.0376 206.877 -12.8942C202.343 -12.6447 198.271 -15.0324 196.148 -18.7174C195.387 -20.0366 194.877 -21.5256 194.681 -23.1198C194.65 -23.3796 194.626 -23.6366 194.611 -23.8976C194.588 -24.2577 194.589 -24.6163 194.604 -24.9694C194.624 -25.5354 194.684 -26.1014 194.792 -26.648C194.844 -26.9543 194.912 -27.262 194.991 -27.5572L194.996 -27.571C194.996 -27.571 195.013 -27.6122 195.021 -27.6328C195.152 -28.0983 195.302 -28.5487 195.488 -28.9921C195.716 -29.5385 195.985 -30.0684 196.292 -30.5748C196.401 -30.7463 196.507 -30.911 196.623 -31.0798C197.05 -31.7055 197.533 -32.2926 198.074 -32.8247C199.828 -34.5676 202.139 -35.7516 204.738 -36.086C205.033 -36.1266 205.323 -36.1535 205.624 -36.1681L205.612 -36.1571ZM181.579 -19.6732L181.593 -19.6676C182.825 -19.499 184.059 -19.138 185.229 -18.5559C185.661 -18.3421 186.069 -18.1063 186.458 -17.8459C189.965 -15.5582 191.897 -11.5987 191.706 -7.57604C191.637 -6.01668 191.248 -4.43459 190.506 -2.94661C189.731 -1.37626 188.653 -0.0634355 187.371 0.960455C183.947 3.72242 179.103 4.4055 174.897 2.33084C173.468 1.62045 172.255 0.670036 171.274 -0.45855C168.285 -3.89386 167.48 -8.93113 169.626 -13.2757C169.869 -13.7602 170.134 -14.22 170.43 -14.6591C172.93 -18.3352 177.285 -20.2201 181.583 -19.6635L181.579 -19.6732Z" fill="#B5B5B5"/>
<path d="M192.874 9.96039C195.749 16.7043 203.546 19.8409 210.29 16.9662C217.034 14.0914 220.171 6.29385 217.296 -0.45011C214.421 -7.19407 206.624 -10.3307 199.88 -7.45588C193.136 -4.5811 189.999 3.21643 192.874 9.96039Z" stroke="white" stroke-width="0.59" stroke-miterlimit="10"/>
<path d="M199.388 7.18407C200.729 10.3305 204.367 11.7939 207.513 10.4526C210.66 9.1114 212.123 5.47343 210.782 2.327C209.441 -0.81943 205.803 -2.28282 202.656 -0.941581C199.51 0.399662 198.047 4.03764 199.388 7.18407Z" fill="white"/>
<path d="M155.071 44.2817C155.071 44.2817 152.968 45.5651 151.511 47.2042C150.047 48.8405 148.652 52.8251 148.652 52.8251L141.759 50.0528C141.759 50.0528 142.96 46.7314 144.873 44.1753C146.787 41.6193 150.507 39.1121 150.507 39.1121L155.081 44.2776L155.071 44.2817Z" fill="#451C49"/>
<path d="M81.2212 21.8674L80.9459 22.672C80.9228 22.7082 80.8945 22.7411 80.8768 22.7792C80.6499 23.2756 80.3501 23.7233 80.0021 24.1404C79.1757 25.1301 78.1615 25.8838 77.0632 26.5219C74.5722 27.9687 71.8871 28.873 69.1125 29.5242C68.8626 29.5823 68.6582 29.5029 68.5065 29.2965C67.7775 28.3092 67.0176 27.3444 66.3317 26.3261C65.2458 24.7169 64.3307 23.01 63.7192 21.1467C63.3699 20.0828 63.1465 18.994 63.2055 17.8601C63.2252 17.4821 63.2968 17.106 63.3451 16.7299L63.6324 15.8901C63.6609 15.843 63.6921 15.7969 63.715 15.748C64.1908 14.7092 64.8897 13.8619 65.8437 13.2438C67.0318 12.4739 68.3185 12.1872 69.6875 12.5357C71.3305 12.9542 72.4137 14.0296 73.0218 15.6141C73.1213 15.8737 73.1888 16.1459 73.2653 16.396C73.6115 16.1738 73.9386 15.9215 74.2999 15.7407C76.127 14.8268 77.8961 14.9037 79.4992 16.1743C80.9215 17.301 81.4761 18.8704 81.3888 20.687C81.3693 21.0824 81.2781 21.4753 81.2207 21.8688L81.2212 21.8674Z" fill="#FF005A"/>
<path d="M278.906 129.219L249.098 115.809L240.817 134.218L270.625 147.627L278.906 129.219Z" fill="#212121"/>
<path d="M273.705 149.013L237.729 132.828L234.201 140.671L270.177 156.855L273.705 149.013Z" fill="#424242"/>
<path d="M273.705 149.013L237.729 132.828L234.201 140.671L270.177 156.855L273.705 149.013Z" fill="#424242"/>
<path d="M282.328 124.952L250.013 110.415L247.841 115.244L280.156 129.781L282.328 124.952Z" fill="#424242"/>
<path d="M273.705 149.013L237.729 132.828L234.201 140.671L270.177 156.855L273.705 149.013Z" fill="#424242"/>
<g style="mix-blend-mode:overlay" opacity="0.3">
<g style="mix-blend-mode:overlay" opacity="0.3">
<path d="M273.705 149.013L256.041 141.066L252.513 148.909L270.177 156.856L273.705 149.013Z" fill="#F5F5F5"/>
</g>
</g>
<g style="mix-blend-mode:overlay" opacity="0.3">
<g style="mix-blend-mode:overlay" opacity="0.3">
<path d="M282.329 124.952L266.487 117.826L264.315 122.655L280.156 129.781L282.329 124.952Z" fill="#F5F5F5"/>
</g>
</g>
<path d="M282.375 121.171L252.805 107.868L251.379 111.038L280.949 124.341L282.375 121.171Z" fill="#F9DC30"/>
<path d="M282.375 121.171L252.805 107.868L252.48 108.59L282.05 121.893L282.375 121.171Z" fill="#F9DC30"/>
<path d="M294.19 48.5507L292.337 53.6223L283.349 54.0522L278.154 68.8029L279.753 71.8307L272.713 87.4786L272.252 92.9789L268.108 100.759L266.629 110.767L264.13 112.166L263.511 113.543L267.588 115.377L297.069 49.8462L294.19 48.5507Z" fill="#FCC02F"/>
<path d="M299.956 51.1451L297.382 55.8919L303.023 62.9028L295.431 76.5757L292.112 77.3908L285.073 93.0387L281.255 97.0294L278.19 105.295L271.674 113.037L272.293 115.838L271.673 117.215L267.596 115.38L297.077 49.8496L299.956 51.1451Z" fill="#FCC02F"/>
<path d="M295.806 42.7918L300.381 42.506L295.527 53.295L294.039 52.6256L293.596 47.7027L295.806 42.7918Z" fill="#FCC02F"/>
<path d="M303.194 46.1157L300.381 42.5059L295.527 53.295L297.015 53.9644L300.985 51.0266L303.194 46.1157Z" fill="#F9DC30"/>
<path d="M297.117 57.1777L301.878 62.9428L295.262 75.3816L292.061 76.5899L294.876 74.0718L300.276 63.1435L297.117 57.1777Z" fill="#F9DC30"/>
<path d="M290.973 77.9347L284.7 91.8787L281.034 96.0713L290.973 77.9347Z" fill="#F9DC30"/>
<path d="M280.267 97.7749L277.503 104.754L271.255 112.16L280.267 97.7749Z" fill="#F9DC30"/>
<path d="M291.529 54.6637L284.057 54.9256L279.145 68.131L280.357 71.3243L280.381 67.5509L284.97 56.2577L291.529 54.6637Z" fill="#F9DC30"/>
<path d="M280.08 73.0337L273.807 86.9777L273.102 92.5026L280.08 73.0337Z" fill="#F9DC30"/>
<path d="M272.335 94.207L268.946 100.904L267.549 110.493L272.335 94.207Z" fill="#F9DC30"/>
<path d="M243.97 63H97V105.75H243.97V63Z" fill="#9E305F"/>
<path d="M130.37 95.1401V80.2201L124.5 95.1401H120.44L114.57 80.4101V95.1401H109.81V72.6401H116.35L122.54 87.8401L128.41 72.6401H135.3V95.1401H130.38H130.37Z" fill="white"/>
<path d="M150.75 72.1699C157.07 72.1699 162.43 76.7699 162.43 83.9099C162.43 91.0499 157.07 95.6199 150.75 95.6199C144.43 95.6199 139.04 91.0199 139.04 83.9099C139.04 76.7999 144.4 72.1699 150.75 72.1699V72.1699ZM150.75 90.6699C153.86 90.6699 157.22 88.5699 157.22 83.8799C157.22 79.1899 153.85 77.0599 150.75 77.0599C147.65 77.0599 144.24 79.1899 144.24 83.8799C144.24 88.5699 147.6 90.6699 150.75 90.6699V90.6699Z" fill="white"/>
<path d="M179.56 72.6401H184.89L176.67 95.1401H171.5L163.25 72.6401H168.77L174.2 88.4801L179.56 72.6401V72.6401Z" fill="white"/>
<path d="M187.82 95.1401V72.6401H192.9V95.1401H187.82Z" fill="white"/>
<path d="M197.91 95.1401V72.6401H212.16V77.3701H202.92V81.6601H211.3V86.0701H202.92V90.3901H212.19V95.1501H197.91V95.1401Z" fill="white"/>
<path d="M227.55 79.4302C227.39 78.3802 226.53 76.6102 223.8 76.6102C221.93 76.6102 220.72 77.7802 220.72 79.0202C220.72 80.1002 221.39 80.8902 222.94 81.1802L225.95 81.7502C230.24 82.5402 232.46 85.3002 232.46 88.5102C232.46 92.0302 229.51 95.6202 224.14 95.6202C217.92 95.6202 215.25 91.5902 214.94 88.4102L219.54 87.3002C219.73 89.3602 221.13 91.1702 224.21 91.1702C226.18 91.1702 227.38 90.2202 227.38 88.8202C227.38 87.6802 226.46 86.8502 224.97 86.5702L221.89 86.0002C218.08 85.2702 215.77 82.7302 215.77 79.4002C215.77 75.1502 219.52 72.1602 223.83 72.1602C229.45 72.1602 231.57 75.5202 232.05 78.1602L227.54 79.4302H227.55Z" fill="white"/>
<path d="M150.51 93.4002C155.541 93.4002 159.62 89.3215 159.62 84.2902C159.62 79.2589 155.541 75.1802 150.51 75.1802C145.479 75.1802 141.4 79.2589 141.4 84.2902C141.4 89.3215 145.479 93.4002 150.51 93.4002Z" fill="white"/>
<path d="M150.74 76.0503L153.15 80.9503L158.56 81.7403L154.65 85.5503L155.57 90.9403L150.74 88.4003L145.9 90.9403L146.82 85.5503L142.91 81.7403L148.32 80.9503L150.74 76.0503Z" fill="#9E305F"/>
</g>
<defs>
<filter id="filter0_f_2669_12620" x="79" y="-7" width="182" height="182" filterUnits="userSpaceOnUse" color-interpolation-filters="sRGB">
<feFlood flood-opacity="0" result="BackgroundImageFix"/>
<feBlend mode="normal" in="SourceGraphic" in2="BackgroundImageFix" result="shape"/>
<feGaussianBlur stdDeviation="15" result="effect1_foregroundBlur_2669_12620"/>
</filter>
<clipPath id="clip0_2669_12620">
<rect width="340" height="168" fill="white"/>
</clipPath>
<clipPath id="clip1_2669_12620">
<rect width="12" height="13" fill="white" transform="translate(258 41)"/>
</clipPath>
<clipPath id="clip2_2669_12620">
<rect width="12" height="13" fill="white" transform="translate(106.196 131) rotate(51.6575)"/>
</clipPath>
<clipPath id="clip3_2669_12620">
<rect width="39" height="37" fill="white" transform="translate(-2 45)"/>
</clipPath>
<clipPath id="clip4_2669_12620">
<rect width="39" height="37" fill="white" transform="translate(204.363 99.3105) rotate(93.5802)"/>
</clipPath>
</defs>
</svg>
