<svg width="147" height="43" viewBox="0 0 147 43" fill="none" xmlns="http://www.w3.org/2000/svg">
<path d="M146.97 0H0V42.75H146.97V0Z" fill="#9E305F"/>
<path d="M33.3701 32.14V17.22L27.5001 32.14H23.4401L17.5701 17.41V32.14H12.8101V9.64H19.3501L25.5401 24.84L31.4101 9.64H38.3001V32.14H33.3801H33.3701Z" fill="white"/>
<path d="M53.75 9.17C60.07 9.17 65.43 13.77 65.43 20.91C65.43 28.05 60.07 32.62 53.75 32.62C47.43 32.62 42.04 28.02 42.04 20.91C42.04 13.8 47.4 9.17 53.75 9.17V9.17ZM53.75 27.67C56.86 27.67 60.22 25.57 60.22 20.88C60.22 16.19 56.85 14.06 53.75 14.06C50.65 14.06 47.24 16.19 47.24 20.88C47.24 25.57 50.6 27.67 53.75 27.67V27.67Z" fill="white"/>
<path d="M82.56 9.64H87.89L79.67 32.14H74.5L66.25 9.64H71.77L77.2 25.48L82.56 9.64V9.64Z" fill="white"/>
<path d="M90.8201 32.14V9.64H95.9001V32.14H90.8201Z" fill="white"/>
<path d="M100.91 32.14V9.64H115.16V14.37H105.92V18.66H114.3V23.07H105.92V27.39H115.19V32.15H100.91V32.14Z" fill="white"/>
<path d="M130.55 16.43C130.39 15.38 129.53 13.61 126.8 13.61C124.93 13.61 123.72 14.78 123.72 16.02C123.72 17.1 124.39 17.89 125.94 18.18L128.95 18.75C133.24 19.54 135.46 22.3 135.46 25.51C135.46 29.03 132.51 32.62 127.14 32.62C120.92 32.62 118.25 28.59 117.94 25.41L122.54 24.3C122.73 26.36 124.13 28.17 127.21 28.17C129.18 28.17 130.38 27.22 130.38 25.82C130.38 24.68 129.46 23.85 127.97 23.57L124.89 23C121.08 22.27 118.77 19.73 118.77 16.4C118.77 12.15 122.52 9.16 126.83 9.16C132.45 9.16 134.57 12.52 135.05 15.16L130.54 16.43H130.55Z" fill="white"/>
<path d="M53.51 30.4C58.5414 30.4 62.62 26.3213 62.62 21.29C62.62 16.2587 58.5414 12.18 53.51 12.18C48.4787 12.18 44.4 16.2587 44.4 21.29C44.4 26.3213 48.4787 30.4 53.51 30.4Z" fill="white"/>
<path d="M53.74 13.05L56.15 17.95L61.56 18.74L57.65 22.55L58.57 27.94L53.74 25.4L48.9 27.94L49.82 22.55L45.91 18.74L51.32 17.95L53.74 13.05Z" fill="#9E305F"/>
</svg>
