<svg width="340" height="168" viewBox="0 0 340 168" fill="none" xmlns="http://www.w3.org/2000/svg">
<g clip-path="url(#clip0_2669_12444)">
<rect width="340" height="168" fill="#4E13AF"/>
<g filter="url(#filter0_f_2669_12444)">
<circle cx="170" cy="86" r="61" fill="#8448E4"/>
</g>
<path d="M97 47.5L-8.00001 108.555L-8 -13.5548L97 47.5Z" fill="#B98EFD"/>
<path d="M241.001 139.634L340.292 81.2564L341.203 196.434L241.001 139.634Z" fill="#B98EFD"/>
<path d="M202 47.5L97.75 108.555L97.75 -13.5548L202 47.5Z" fill="#B98EFD"/>
<g clip-path="url(#clip1_2669_12444)">
<path d="M104.37 97.7262C103.975 98.8001 98.6433 109.697 91.8954 123.391C91.2485 124.711 90.588 126.058 89.9139 127.42C89.7164 127.809 89.5258 128.206 89.3283 128.603C89.3079 128.644 89.2874 128.692 89.267 128.733C88.6201 130.033 87.9733 131.353 87.3128 132.687C80.8373 145.806 73.8306 159.958 68.8531 170H29.2101C36.8364 159.35 49.8964 140.669 52.4158 134.116C52.763 133.234 52.906 132.57 52.8243 132.18C51.8846 127.611 45.4432 118.664 46.9548 114.854C47.7447 112.87 49.5627 108.308 51.3399 104.306C52.0821 102.637 52.8175 101.064 53.4644 99.8193C53.5461 99.662 53.6278 99.5115 53.7027 99.3678C54.2815 98.2939 54.7785 97.5347 55.1326 97.2542L55.1394 97.2474C55.1939 97.2063 55.2416 97.179 55.2892 97.1584C55.9021 96.9327 56.903 96.7275 57.8563 96.5702C58.9662 96.3855 60.0352 96.2624 60.437 96.2213L60.6004 96.2008C60.6004 96.2008 74.675 71.3845 75.9483 69.6745C76.7041 68.6621 83.1456 70.1259 82.5804 72.4037C82.0425 74.5926 76.4998 89.559 75.9823 90.9612C75.9823 90.9612 75.9823 90.9612 75.9823 90.968C75.9823 90.968 75.9755 90.9749 75.9755 90.9886C75.9619 91.0433 75.9483 91.0638 75.9483 91.0638C75.9483 91.0638 83.3362 90.6808 83.5337 96.2008C83.5337 96.2008 90.3497 96.7754 90.731 101.721C90.731 101.721 90.8263 101.584 90.9897 101.338C92.3107 99.4226 98.2551 91.399 99.6374 91.2553C101.401 91.0638 105.507 94.6823 104.37 97.7262Z" fill="#FAB6CA"/>
<path d="M93.1414 129.862L92.3856 131.12L92.3584 131.168L92.3516 131.175L90.1182 134.896L87.3128 132.687L62.7861 113.342L62.2822 112.939L51.3331 104.307L1.07455 64.6743C1.63291 63.5936 2.22531 62.547 2.85175 61.5142L53.4575 99.8194L63.004 107.043L63.0789 107.104L63.7394 107.604L66.3541 109.587L66.6197 109.779L67.43 110.401L71.5427 113.507L73.2586 114.813L75.5942 116.578L75.9619 116.858L80.7351 120.463L89.9139 127.42L93.1414 129.862Z" fill="#01BCFF"/>
<path d="M98.4049 128.514L95.2863 133.494L92.3856 131.12L89.3283 128.603L79.6524 120.668L79.2098 120.306L72.9726 115.176L69.7723 112.556L67.4027 110.606L66.5584 109.922L66.3133 109.71L63.7394 107.603L63.1061 107.09L63.038 107.029L53.7027 99.3679L4.47232 58.9696C4.74469 58.566 5.01705 58.1692 5.30304 57.7725C5.69797 57.2185 6.10652 56.6644 6.52869 56.124L57.8563 96.5702L58.0197 96.6933L58.4827 97.0627L60.6889 98.8001L67.6138 104.259H67.6206L68.39 104.867L68.7441 105.148L70.9503 106.885L73.8919 109.197L75.8869 110.77L78.1136 112.528L81.8177 115.449L83.1455 116.489L83.3907 116.687L91.9021 123.398L98.4049 128.514Z" fill="#01BCFF"/>
<path d="M95.2863 133.678C95.2455 133.678 95.2046 133.665 95.1706 133.637L61.0498 106.619C60.9681 106.557 60.9544 106.441 61.0225 106.359C61.0838 106.277 61.2064 106.263 61.2813 106.324L95.4021 133.343C95.4838 133.405 95.4974 133.521 95.4293 133.603C95.3953 133.658 95.3408 133.678 95.2863 133.678Z" fill="#030912"/>
<path d="M90.9897 101.338L90.9829 101.53C90.9829 101.53 81.6339 119.937 80.6874 120.497C79.4073 121.257 75.2946 117.885 74.2187 116.735C73.1429 115.593 72.7752 115.354 72.7752 115.354C71.7674 116.428 66.6061 112.823 65.9728 111.94C65.394 111.133 74.2596 94.2242 75.9823 90.9683C75.9619 91.0367 75.9483 91.064 75.9483 91.064C75.9483 91.064 83.343 90.6741 83.5337 96.201C83.5337 96.201 90.3565 96.7756 90.731 101.721C90.731 101.714 90.8263 101.584 90.9897 101.338Z" fill="#FAB6CA"/>
<path d="M52.4158 134.109C52.7562 133.227 52.906 132.563 52.8243 132.174C51.8846 127.611 45.4364 118.664 46.9548 114.854C48.4664 111.044 53.7776 97.7194 55.2892 97.1517C56.617 96.6523 59.6812 96.2967 60.4302 96.2146L60.5936 96.2009C60.5936 96.2009 65.646 95.5032 66.0954 96.0094C66.5312 96.5155 68.0496 103.752 67.607 104.266C67.1644 104.772 61.1656 108.069 61.1656 108.069L64.1344 121.079L72.2849 128.439L52.4158 134.109Z" fill="#FAB6CA"/>
<path d="M64.2637 120.183C64.1684 120.183 64.0867 120.114 64.0799 120.012C63.7054 116.209 61.0226 108.199 60.9953 108.124C60.9681 108.035 61.0089 107.939 61.0907 107.898C63.3853 106.783 67.144 104.786 67.4504 104.177C67.8317 103.417 66.0954 96.803 65.68 96.0369C65.5098 95.7222 63.2015 95.8864 60.6344 96.3857L55.0169 97.4665C54.9215 97.487 54.8194 97.4186 54.799 97.316C54.7785 97.2134 54.8466 97.1176 54.9488 97.0971L60.5663 96.0164C62.0712 95.7222 65.6051 95.1203 66.0069 95.859C66.3133 96.4268 68.2879 103.335 67.7773 104.348C67.3415 105.216 62.4593 107.638 61.3971 108.165C61.7784 109.307 64.1003 116.434 64.4476 119.984C64.4544 120.087 64.3863 120.176 64.2773 120.19C64.2705 120.183 64.2705 120.183 64.2637 120.183Z" fill="#030912"/>
<path d="M61.9214 99.1216C61.5537 99.1216 61.1315 99.0943 60.723 98.9985C59.6131 98.7317 58.6393 97.9177 58.1831 96.8712C58.1423 96.7754 58.1831 96.666 58.2785 96.6249C58.3738 96.5839 58.4827 96.6249 58.5236 96.7207C58.939 97.6647 59.8173 98.3966 60.8115 98.636C61.329 98.7591 61.8805 98.7591 62.3027 98.7454C62.8678 98.7249 63.4602 98.6633 63.9301 98.3555C64.7948 97.7946 64.9446 96.7617 65.0944 95.7631C65.1081 95.6605 65.1966 95.5921 65.3055 95.6057C65.4077 95.6194 65.4758 95.7152 65.4621 95.8178C65.3123 96.8507 65.1421 98.0203 64.1344 98.6702C63.5896 99.0259 62.9087 99.0943 62.3231 99.1148C62.1937 99.1216 62.0576 99.1216 61.9214 99.1216Z" fill="#030912"/>
<path d="M72.1147 115.73C72.0058 115.73 71.89 115.723 71.7674 115.702C69.8881 115.429 66.8376 113.137 65.932 111.619C64.7676 109.676 74.6886 92.7877 75.8189 90.8725C75.8734 90.7836 75.9891 90.7562 76.0708 90.8041C76.1594 90.8588 76.1866 90.9682 76.1389 91.0572C71.7266 98.5198 65.4553 110.093 66.252 111.42C67.1032 112.843 70.0651 115.073 71.8219 115.326C72.2373 115.388 72.5369 115.326 72.7275 115.155C73.8919 114.081 82.4034 99.7784 83.3566 96.1463C83.3839 96.0437 83.4792 95.989 83.5814 96.0163C83.6835 96.0437 83.738 96.1463 83.7107 96.242C82.7506 99.9084 74.1506 114.348 72.9795 115.436C72.7684 115.634 72.4824 115.73 72.1147 115.73Z" fill="#030912"/>
<path d="M80.0542 120.887C77.7459 120.887 73.2723 116.044 72.7139 115.429C72.6458 115.354 72.6526 115.237 72.7275 115.169C72.8024 115.1 72.9182 115.107 72.9863 115.183C74.6341 116.995 79.2031 121.462 80.5717 120.361C82.2876 118.972 89.8935 105.169 90.5471 101.694C90.5676 101.591 90.6629 101.523 90.765 101.543C90.8672 101.564 90.9353 101.659 90.9148 101.762C90.2339 105.367 82.6349 119.17 80.81 120.655C80.5989 120.812 80.3402 120.887 80.0542 120.887Z" fill="#030912"/>
<path d="M71.9921 113.821C71.8287 113.821 71.6653 113.78 71.5087 113.705C70.2218 113.048 68.9484 112.33 67.716 111.564C67.2325 111.263 67.0691 110.641 67.3347 110.134C67.7568 109.341 68.1722 108.691 68.5807 108.205C69.3093 107.33 70.2149 106.783 71.1342 106.66C72.2441 106.509 73.3404 107.029 73.7966 107.925C73.994 108.308 74.0826 108.766 74.0826 109.334C74.0826 110.709 73.5446 112.009 72.9659 113.206C72.8365 113.472 72.6186 113.664 72.3394 113.76C72.2305 113.801 72.1079 113.821 71.9921 113.821ZM71.6789 113.37C71.8491 113.452 72.0398 113.466 72.2168 113.411C72.4007 113.349 72.5437 113.219 72.6322 113.048C73.1906 111.885 73.708 110.634 73.708 109.334C73.708 108.828 73.6263 108.424 73.4629 108.096C73.0816 107.35 72.1283 106.899 71.1818 107.029C70.3579 107.138 69.534 107.645 68.8667 108.445C68.4786 108.91 68.0769 109.539 67.6683 110.305C67.4913 110.634 67.607 111.044 67.9202 111.242C69.1391 112.002 70.4056 112.72 71.6789 113.37Z" fill="#030912"/>
<path d="M79.9793 119.17C79.8159 119.17 79.6525 119.129 79.4958 119.054C78.2089 118.397 76.9356 117.679 75.7031 116.913C75.2197 116.612 75.0563 115.99 75.3218 115.484C75.744 114.69 76.1594 114.047 76.5679 113.555C77.2965 112.679 78.2021 112.132 79.1213 112.009C80.2312 111.858 81.3275 112.378 81.7837 113.274C81.9744 113.657 82.0697 114.115 82.0697 114.683C82.0697 116.058 81.5318 117.358 80.953 118.555C80.8236 118.822 80.6057 119.013 80.3266 119.109C80.2108 119.157 80.0951 119.17 79.9793 119.17ZM79.489 112.358C79.3801 112.358 79.278 112.364 79.169 112.378C78.3451 112.487 77.5212 112.994 76.8539 113.794C76.4658 114.266 76.0572 114.888 75.6555 115.655C75.4852 115.983 75.5942 116.393 75.9074 116.592C77.1263 117.351 78.3928 118.062 79.6729 118.719C79.8431 118.808 80.0338 118.822 80.2108 118.76C80.3947 118.698 80.5377 118.568 80.6194 118.397C81.1777 117.235 81.6952 115.983 81.6952 114.683C81.6952 114.177 81.6135 113.773 81.4501 113.445C81.1096 112.788 80.3198 112.358 79.489 112.358Z" fill="#030912"/>
<path d="M48.8365 133.439C53.3379 127.273 43.3873 112.256 26.6112 99.8962C9.83516 87.5369 -7.41365 82.516 -11.9151 88.6819C-16.4165 94.8478 -6.46592 109.865 10.3102 122.225C27.0862 134.584 44.335 139.605 48.8365 133.439Z" fill="#FCC02F"/>
<path d="M21.6927 114.731C21.1684 115.456 19.0167 114.772 16.8923 113.206C14.7678 111.639 13.4741 109.786 13.9984 109.061C14.5227 108.335 16.6744 109.019 18.7988 110.586C20.9301 112.159 22.2238 114.013 21.6927 114.731Z" fill="#030912"/>
<path d="M21.7268 170H20.9982L5.05792 127.44L5.18049 127.29L9.55879 121.667L16.4292 112.85L17.6958 111.222L18.2337 111.646L16.974 113.267L10.1103 122.078L5.83417 127.563L21.7268 170Z" fill="#030912"/>
<path d="M83.0051 62.331C96.9165 51.2621 104.927 38.1455 100.897 33.0341C96.8665 27.9228 82.322 32.7524 68.4107 43.8213C54.4994 54.8902 46.4891 68.0068 50.5193 73.1182C54.5494 78.2295 69.0938 73.3999 83.0051 62.331Z" fill="#FCC02F"/>
<path d="M78.5153 50.8504C78.9647 51.4181 78.0727 52.8819 76.5202 54.1131C74.9677 55.3444 73.354 55.8848 72.9046 55.317C72.4551 54.7493 73.3471 53.2855 74.8996 52.0542C76.4453 50.8162 78.0659 50.2826 78.5153 50.8504Z" fill="#030912"/>
<path d="M109 98.7523V101.126L102.041 77.8623L84.1942 61.3774L76.4181 54.1952L75.4784 53.3333L75.9414 52.834L76.9492 53.7643L84.7253 60.9396L102.64 77.4861L102.667 77.575L109 98.7523Z" fill="#030912"/>
<path d="M14.3865 94.0462L10.0695 87.2881L16.1773 91.5359L21.5021 86.5151L18.6559 92.6987L25.3493 95.4621L17.7571 95.0517L18.5878 101.83L15.5713 96.2419L7.61139 99.7646L14.3865 94.0462Z" fill="white"/>
</g>
<g clip-path="url(#clip2_2669_12444)">
<path d="M234.617 19.5954C233.646 20.5812 231.982 20.7158 230.597 20.3177C229.213 19.9216 227.084 18.7561 225.782 18.1557C216.534 13.8864 207.543 12.5566 197.99 14.9286C195.952 15.4347 194.01 16.5216 191.679 16.2795C190.602 16.1673 189.091 15.5763 188.548 14.6936C194.698 11.2186 202.029 9.28368 209.258 9.44227C216.486 9.59885 223.682 11.7082 229.757 15.4505C231.621 16.5975 233.345 17.8821 234.617 19.5954Z" fill="#F8222F"/>
<path d="M174.18 35.9285C174.816 27.9656 179.773 20.6005 186.781 15.9521C193.789 11.3038 202.565 9.30127 211.357 9.95905C217.086 10.3883 223.212 12.4287 228.22 15.0799C233.229 17.7311 237.131 21.6765 239.742 26.4034C242.506 31.411 244.059 36.6251 243.837 42.9186C243.702 43.0751 243.729 43.2479 243.943 43.2896C244.157 43.3334 244.37 43.2272 244.538 43.1023C245.424 42.4481 245.443 41.1298 245.481 40.0685C245.725 33.4068 244.127 27.8925 241.273 22.5985C238.579 17.6019 234.543 13.4345 229.357 10.64C224.175 7.84787 217.831 5.70052 211.894 5.25844C202.784 4.58297 193.683 6.72094 186.41 11.6566C179.137 16.5922 173.984 24.3973 173.308 32.8259C173.258 33.4425 172.984 34.0974 172.993 34.7159C172.996 34.9673 173.01 35.2259 173.127 35.4542C173.243 35.6806 173.912 35.9421 174.18 35.9285Z" fill="#4C0757"/>
<path d="M174.895 42.2308C173.769 42.3608 172.614 42.2914 171.507 42.0285C171.326 41.9859 171.133 41.9302 171.016 41.7948C170.921 41.6882 170.889 41.5452 170.866 41.4093C170.747 40.6866 170.835 39.9543 170.921 39.232C171.191 37.0114 171.46 34.7888 171.73 32.5682C171.74 32.4882 171.972 32.5095 171.984 32.4297C173.259 32.2701 174.589 32.4806 175.746 33.028C175.57 36.1287 175.291 39.1502 174.895 42.2308Z" fill="#FAFAFA"/>
<path d="M241.4 48.9066C242.478 49.2577 243.623 49.4193 244.758 49.3813C244.945 49.3758 245.144 49.3593 245.286 49.2501C245.4 49.1643 245.46 49.0306 245.509 48.9019C245.77 48.2173 245.83 47.4822 245.888 46.7571C246.066 44.5273 246.243 42.2954 246.421 40.0656C246.427 39.9852 246.195 39.9599 246.199 39.8793C244.981 39.4696 243.636 39.4115 242.393 39.718C241.951 42.792 241.624 45.8087 241.4 48.9066Z" fill="#FAFAFA"/>
<path d="M177.283 75.337C177.422 76.5012 179.193 76.9928 180.465 77.1205C181.725 77.247 183.095 76.7263 183.879 75.7379C184.508 74.9425 184.767 73.9318 184.917 72.9404C185.263 70.6627 185.124 68.3424 184.983 66.0422C184.598 59.7365 184.21 53.4163 183.119 47.1814C182.854 45.6706 182.538 44.1384 181.789 42.7855C181.04 41.4306 179.786 40.2578 178.235 39.928C176.685 39.5962 174.283 40.1975 174.295 41.7295C174.407 54.8176 176.417 68.159 177.283 75.337Z" fill="#4C0757"/>
<path d="M169.288 74.5426C170.597 75.0891 172.077 75.7013 173.195 76.176C173.652 76.8274 174.444 77.2511 175.258 77.2781C176.071 77.3051 176.83 77.0067 177.327 76.3863C176.658 64.5727 175.588 52.8343 174.558 41.0411C173.843 40.6535 173.05 40.4645 172.153 40.8038C171.257 41.1431 170.563 41.8996 170.235 42.7738C168.93 43.5925 167.61 44.3914 166.328 45.2449C165.497 45.7973 164.976 46.6845 164.888 47.6578C164.144 55.9155 164.499 64.8769 167.431 72.639C167.749 73.4951 168.423 74.1824 169.288 74.5426Z" fill="#F8222F"/>
<path d="M170.437 43.8735C170.437 45.5461 170.502 47.219 170.568 48.8902C170.92 57.8654 171.799 66.5352 173.195 76.1761" stroke="#4C0757" stroke-width="1.932" stroke-miterlimit="10"/>
<path d="M232.48 80.8775C232.112 81.9907 230.278 82.1205 229.006 81.9928C227.746 81.8664 226.508 81.0839 225.936 79.9594C225.477 79.0548 225.424 78.0128 225.474 77.0114C225.588 74.7104 226.185 72.464 226.78 70.2376C228.411 64.1342 230.047 58.0172 232.356 52.1236C232.916 50.6956 233.531 49.2568 234.534 48.0798C235.537 46.9028 236.999 46.0007 238.584 45.9856C240.17 45.9686 242.404 47.0353 242.088 48.5343C239.376 61.339 234.755 74.0146 232.48 80.8775Z" fill="#4C0757"/>
<path d="M240.475 81.6881C239.084 81.9635 237.512 82.2694 236.322 82.5125C235.743 83.0599 234.883 83.3178 234.081 83.1825C233.278 83.0473 232.593 82.6039 232.23 81.8972C235.233 70.4523 238.615 59.1607 241.969 47.8076C242.746 47.5697 243.561 47.5422 244.372 48.0529C245.184 48.5636 245.714 49.443 245.861 50.365C246.977 51.4266 248.112 52.472 249.199 53.5632C249.904 54.2697 250.238 55.2429 250.131 56.2142C249.219 64.4551 247.09 73.1671 242.674 80.1917C242.19 80.9672 241.392 81.5068 240.475 81.6881Z" fill="#F8222F"/>
<path d="M245.444 51.4024C245.112 53.0416 244.716 54.6684 244.319 56.293C242.191 65.0193 239.606 73.3413 236.322 82.5125" stroke="#4C0757" stroke-width="1.932" stroke-miterlimit="10"/>
<path d="M166.389 47.0083C166.068 51.5037 166.243 56.0348 166.913 60.492" stroke="white" stroke-width="0.5" stroke-miterlimit="10"/>
<path d="M167.365 50.1899C167.191 52.8879 167.328 55.6049 167.774 58.2699" stroke="white" stroke-width="0.5" stroke-miterlimit="10"/>
<path d="M168.654 51.5327C168.551 52.9256 168.572 54.3289 168.715 55.7182" stroke="white" stroke-width="0.5" stroke-miterlimit="10"/>
<path d="M246.022 69.7573C245.289 72.2837 244.208 74.7103 242.82 76.9442" stroke="white" stroke-width="0.5" stroke-miterlimit="10"/>
</g>
<path d="M142.004 140.418L240.545 82.0456L241.456 197.223L142.004 140.418Z" fill="#B98EFD"/>
<g clip-path="url(#clip3_2669_12444)">
<path d="M232.43 63H107V105.75H232.43V63Z" fill="#EE9E02"/>
<path d="M139.09 95.1401V80.2301L133.22 95.1501H129.16L123.29 80.4201V95.1501H118.53V72.6401H125.07L131.26 87.8401L137.13 72.6401H144.02V95.1401H139.09Z" fill="white"/>
<path d="M148.87 87.0201V72.6401H153.88V86.6001C153.88 89.3301 155.4 90.6901 157.78 90.6901C160.16 90.6901 161.68 89.3201 161.68 86.6001V72.6401H166.69V87.0201C166.69 92.6701 162.72 95.6501 157.77 95.6501C152.82 95.6501 148.87 92.6701 148.87 87.0201Z" fill="white"/>
<path d="M182.54 79.4302C182.38 78.3802 181.52 76.6102 178.79 76.6102C176.92 76.6102 175.71 77.7802 175.71 79.0202C175.71 80.1002 176.38 80.8902 177.93 81.1802L180.95 81.7502C185.24 82.5402 187.46 85.3002 187.46 88.5102C187.46 92.0302 184.51 95.6202 179.15 95.6202C172.93 95.6202 170.26 91.5902 169.94 88.4102L174.54 87.3002C174.73 89.3602 176.13 91.1702 179.2 91.1702C181.17 91.1702 182.37 90.2202 182.37 88.8202C182.37 87.6802 181.45 86.8502 179.96 86.5702L176.89 86.0002C173.08 85.2702 170.77 82.7302 170.77 79.4002C170.77 75.1502 174.51 72.1602 178.83 72.1602C184.45 72.1602 186.57 75.5202 187.05 78.1602L182.54 79.4302Z" fill="white"/>
<path d="M191.05 95.1401V72.6401H196.13V95.1401H191.05Z" fill="white"/>
<path d="M199.84 83.9402C199.84 76.9302 205.17 72.1602 211.46 72.1602C218.22 72.1602 221.2 76.5102 221.93 79.7502L217.2 81.2402C216.85 79.6802 215.42 77.0502 211.45 77.0502C208.44 77.0502 205.04 79.2102 205.04 83.9402C205.04 88.1602 208.15 90.6002 211.51 90.6002C215.41 90.6002 216.97 88.0002 217.41 86.3802L222.2 87.7502C221.47 90.8602 218.49 95.6202 211.5 95.6202C205.04 95.6202 199.84 90.9602 199.84 83.9402Z" fill="white"/>
</g>
<g clip-path="url(#clip4_2669_12444)">
<path d="M287.533 199C287.897 197.901 319.79 168.485 339.806 155.137C339.806 155.137 345.736 132.889 344.921 117.746L272.964 196.953L287.533 199Z" fill="#1A0887"/>
<path d="M267.889 80C267.889 80 306.821 85.0265 344.921 117.746L272.964 196.953L231 169.995C237.588 141.962 249.821 113.937 267.889 80Z" fill="#3127A8"/>
<path d="M289.592 143.987C276.759 142.918 267.224 131.666 268.296 118.857C269.367 106.047 280.639 96.5301 293.472 97.5996C306.305 98.6691 315.839 109.92 314.768 122.73C313.697 135.539 302.425 145.057 289.592 143.987Z" fill="#5E48E9"/>
<path d="M338.096 119.39C337.502 120.813 335.871 121.484 334.454 120.892C333.028 120.299 332.355 118.671 332.949 117.256C333.543 115.834 335.174 115.162 336.591 115.755C338.009 116.339 338.682 117.968 338.096 119.39Z" fill="#8186EE"/>
<path d="M274.381 88.4804C273.788 89.903 272.157 90.5748 270.739 89.9821C269.314 89.3893 268.641 87.7612 269.235 86.3465C269.829 84.924 271.46 84.2522 272.877 84.8449C274.302 85.4298 274.975 87.0578 274.381 88.4804Z" fill="#8186EE"/>
<path d="M290.56 133.235C286.522 130.547 285.883 124.423 289.134 119.557C292.385 114.69 298.294 112.924 302.333 115.612C306.371 118.3 307.01 124.424 303.759 129.291C300.508 134.157 294.599 135.923 290.56 133.235Z" fill="black"/>
<path d="M271.705 124.669C272.046 124.653 272.069 122.638 272.83 119.587C273.574 116.553 275.252 112.451 278.451 108.965C281.658 105.48 285.609 103.465 288.57 102.469C291.555 101.449 293.566 101.252 293.55 100.912C293.558 100.659 291.468 100.288 288.158 100.983C284.888 101.655 280.399 103.639 276.844 107.495C273.297 111.36 271.697 115.991 271.309 119.303C270.906 122.646 271.452 124.693 271.705 124.669Z" fill="#8186EE"/>
<path d="M274.476 123.271C274.801 123.294 275.078 121.714 275.933 119.374C276.773 117.043 278.317 113.937 280.882 111.218C283.447 108.507 286.464 106.784 288.752 105.82C291.04 104.832 292.608 104.469 292.561 104.145C292.537 103.876 290.858 103.694 288.245 104.366C285.656 105.014 282.157 106.697 279.29 109.724C276.424 112.759 274.944 116.339 274.445 118.955C273.93 121.603 274.207 123.263 274.476 123.271Z" fill="#8186EE"/>
<path d="M277.271 124.804C277.596 124.828 277.889 123.634 278.538 121.856C278.855 120.963 279.298 119.936 279.853 118.829C280.431 117.738 281.127 116.577 281.983 115.439C282.846 114.308 283.772 113.32 284.659 112.459C285.569 111.621 286.432 110.91 287.208 110.365C288.744 109.25 289.805 108.642 289.702 108.333C289.615 108.073 288.325 108.175 286.432 109.037C285.49 109.456 284.429 110.104 283.352 110.942C282.283 111.803 281.207 112.87 280.241 114.127C279.29 115.399 278.562 116.727 278.032 117.991C277.525 119.264 277.192 120.457 277.05 121.477C276.741 123.524 277.002 124.796 277.271 124.804Z" fill="#8186EE"/>
<path d="M281.595 122.915C282.22 122.986 282.972 120.093 284.952 117.161C286.876 114.19 289.235 112.364 288.926 111.819C288.784 111.574 287.945 111.716 286.804 112.388C285.664 113.044 284.255 114.277 283.139 115.968C282.022 117.659 281.444 119.437 281.286 120.741C281.112 122.053 281.309 122.875 281.595 122.915Z" fill="#8186EE"/>
<path d="M285.474 121.722C286.092 121.793 286.781 119.936 288.095 118.039C289.37 116.11 290.827 114.775 290.534 114.237C290.383 113.984 289.774 114.008 288.934 114.419C288.103 114.822 287.082 115.652 286.29 116.822C285.498 117.999 285.11 119.248 285.047 120.173C284.983 121.097 285.189 121.674 285.474 121.722Z" fill="#8186EE"/>
<path d="M282.758 165.68C279.124 174.413 269.084 178.546 260.335 174.919C251.586 171.291 247.445 161.27 251.079 152.537C254.714 143.803 264.753 139.67 273.503 143.298C282.252 146.925 286.393 156.947 282.758 165.68Z" fill="#5E48E9"/>
<path d="M275.91 165.356C273.518 168.936 269.172 170.24 266.202 168.256C263.233 166.28 262.766 161.775 265.157 158.195C267.548 154.615 271.895 153.311 274.864 155.295C277.834 157.271 278.301 161.775 275.91 165.356Z" fill="black"/>
<path d="M252.33 161.949C252.655 161.933 252.75 160.456 253.36 158.243C253.954 156.046 255.197 153.106 257.509 150.584C259.821 148.071 262.655 146.577 264.793 145.803C266.947 145.005 268.411 144.791 268.404 144.459C268.404 144.191 266.86 143.851 264.381 144.317C261.935 144.768 258.562 146.222 255.901 149.106C253.241 151.999 252.085 155.476 251.84 157.95C251.586 160.471 252.061 161.981 252.33 161.949Z" fill="#8186EE"/>
<path d="M254.365 160.93C254.682 160.953 254.967 159.799 255.632 158.116C256.289 156.433 257.437 154.22 259.29 152.26C261.143 150.308 263.297 149.035 264.936 148.284C266.582 147.518 267.715 147.178 267.675 146.862C267.651 146.585 266.4 146.38 264.437 146.838C262.497 147.273 259.86 148.506 257.707 150.774C255.553 153.05 254.476 155.745 254.152 157.705C253.811 159.681 254.088 160.914 254.365 160.93Z" fill="#8186EE"/>
<path d="M256.424 162.052C256.741 162.068 257.034 161.206 257.548 159.934C258.063 158.654 258.878 156.978 260.114 155.334C261.357 153.698 262.742 152.45 263.835 151.604C264.92 150.75 265.672 150.237 265.561 149.936C265.474 149.675 264.492 149.683 263.059 150.276C262.339 150.569 261.539 151.035 260.723 151.651C259.916 152.284 259.1 153.082 258.38 154.022C257.667 154.979 257.129 155.974 256.741 156.923C256.369 157.879 256.147 158.78 256.06 159.547C255.886 161.096 256.147 162.044 256.424 162.052Z" fill="#8186EE"/>
<path d="M259.607 160.661C260.224 160.725 260.898 158.678 262.315 156.591C263.685 154.473 265.3 153.043 264.999 152.505C264.848 152.252 264.199 152.308 263.312 152.766C262.426 153.216 261.341 154.125 260.502 155.398C259.662 156.67 259.259 158.022 259.187 159.017C259.1 160.005 259.314 160.63 259.607 160.661Z" fill="#8186EE"/>
<path d="M262.465 159.784C263.075 159.847 263.708 158.566 264.635 157.239C265.521 155.887 266.48 154.82 266.187 154.283C266.036 154.03 265.545 153.99 264.88 154.259C264.223 154.528 263.423 155.136 262.822 156.022C262.22 156.915 261.951 157.879 261.951 158.59C261.951 159.301 262.172 159.744 262.465 159.784Z" fill="#8186EE"/>
<path d="M293.477 117.49L289.201 81.7837L295.701 87.568L297.608 47.584L301.061 99.1931L294.971 91.5169L293.477 117.49Z" fill="white"/>
<path d="M263.096 158.13L258.455 140.176L263.274 142.73L262.766 122.217L267.564 148.334L262.945 144.789L263.096 158.13Z" fill="white"/>
</g>
<g clip-path="url(#clip5_2669_12444)">
<path fill-rule="evenodd" clip-rule="evenodd" d="M134.17 134.72L135 135.47C135 135.47 135.11 137.78 135.37 141.33C135.63 144.89 133.67 148.24 129.25 148.65C127.23 148.84 131.03 147.51 131.76 146.7C132.49 145.89 134.19 140.8 132.27 139.06C132.27 139.06 125.85 146.11 124.75 147.32C123.65 148.53 121.25 148.74 119.34 146.99C117.43 145.25 117.5 142.73 119.94 141.27C121.71 140.21 125.11 142.48 124.93 144.9L134.17 134.72Z" fill="#290E4A"/>
</g>
<path opacity="0.7" fill-rule="evenodd" clip-rule="evenodd" d="M317.106 34L309.835 42.2049C309.988 40.1102 307.126 38.148 305.642 39.0587C303.587 40.3172 303.514 42.4947 305.126 44.0016C306.739 45.5084 308.762 45.3346 309.689 44.2913L314.591 38.7855L318.05 44.4735L313.954 49.1017C314.107 47.007 311.245 45.0448 309.754 45.9555C307.698 47.214 307.634 49.3915 309.238 50.8983C310.85 52.4052 312.874 52.2313 313.801 51.1881L322 41.9814L317.106 34ZM315.881 37.3366L316.582 36.5501L320.041 42.2298L319.34 43.0163L315.881 37.3366Z" fill="#290E4A"/>
<g clip-path="url(#clip6_2669_12444)">
<path d="M285.933 23.143C285.111 22.753 282.086 18.9321 281.917 18.9999C281.731 19.079 282.716 23.7477 282.47 24.5843C282.152 25.6469 278.532 27.8908 279.048 28.0999C279.57 28.309 283.58 27.3538 284 27.8569C284.721 28.7273 287.512 31.9943 288.023 31.9943C288.401 31.6438 287.674 27.4895 287.476 26.4043C287.362 25.7712 290.814 23.6234 290.994 23.1147C291.18 22.6117 286.978 23.6234 285.933 23.1317V23.143Z" fill="white"/>
</g>
<g clip-path="url(#clip7_2669_12444)">
<path d="M185.248 136.008C185.044 135.121 186.163 130.378 186.006 130.288C185.828 130.191 182.777 133.86 181.969 134.186C180.938 134.595 176.932 133.148 177.089 133.683C177.249 134.222 180.485 136.775 180.352 137.416C180.116 138.521 179.285 142.737 179.602 143.138C180.111 143.217 182.919 140.07 183.647 139.241C184.073 138.759 187.899 140.134 188.409 139.96C188.919 139.794 185.519 137.125 185.257 136.001L185.248 136.008Z" fill="white"/>
</g>
<path d="M44.6764 34.4441L45.1562 35.6243C45.1655 35.688 45.166 35.753 45.1834 35.8135C45.4148 36.5976 45.516 37.3985 45.5326 38.2121C45.5712 40.1434 45.1654 41.9925 44.5512 43.7936C43.1572 47.8779 41.0104 51.5397 38.5138 55.0035C38.2884 55.3147 37.9792 55.4259 37.6048 55.3416C35.8101 54.9421 34.0027 54.5984 32.2262 54.1214C29.4166 53.3696 26.7042 52.3394 24.1813 50.8341C22.7405 49.9746 21.4177 48.9634 20.3698 47.6233C20.0204 47.1766 19.7317 46.6812 19.4167 46.2084L18.9158 44.9765C18.9018 44.8953 18.8917 44.8126 18.8695 44.7347C18.3863 43.0927 18.3435 41.4477 18.8144 39.8111C19.4008 37.7729 20.5737 36.1838 22.4639 35.232C24.7328 34.0902 27.0145 34.241 29.2596 35.4347C29.6273 35.6302 29.9711 35.8717 30.3035 36.0792C30.4764 35.4877 30.5982 34.8809 30.829 34.3214C31.9962 31.4921 34.0718 29.8401 37.1332 29.7006C39.8488 29.5763 42.0185 30.8054 43.7055 32.9448C44.0722 33.411 44.3553 33.9449 44.6772 34.4462L44.6764 34.4441Z" fill="#FF005A"/>
</g>
<defs>
<filter id="filter0_f_2669_12444" x="79" y="-5" width="182" height="182" filterUnits="userSpaceOnUse" color-interpolation-filters="sRGB">
<feFlood flood-opacity="0" result="BackgroundImageFix"/>
<feBlend mode="normal" in="SourceGraphic" in2="BackgroundImageFix" result="shape"/>
<feGaussianBlur stdDeviation="15" result="effect1_foregroundBlur_2669_12444"/>
</filter>
<clipPath id="clip0_2669_12444">
<rect width="340" height="168" fill="white"/>
</clipPath>
<clipPath id="clip1_2669_12444">
<rect width="122" height="139" fill="white" transform="translate(-13 31)"/>
</clipPath>
<clipPath id="clip2_2669_12444">
<rect width="85.6771" height="78.1106" fill="white" transform="translate(169.567 1) rotate(5.73206)"/>
</clipPath>
<clipPath id="clip3_2669_12444">
<rect width="125.43" height="42.75" fill="white" transform="translate(107 63)"/>
</clipPath>
<clipPath id="clip4_2669_12444">
<rect width="114" height="157" fill="white" transform="matrix(-1 0 0 1 345 42)"/>
</clipPath>
<clipPath id="clip5_2669_12444">
<rect width="17" height="19" fill="white" transform="translate(118 130)"/>
</clipPath>
<clipPath id="clip6_2669_12444">
<rect width="12" height="13" fill="white" transform="translate(279 19)"/>
</clipPath>
<clipPath id="clip7_2669_12444">
<rect width="12" height="13" fill="white" transform="translate(184.196 128) rotate(51.6575)"/>
</clipPath>
</defs>
</svg>
