<svg width="126" height="43" viewBox="0 0 126 43" fill="none" xmlns="http://www.w3.org/2000/svg">
<g clip-path="url(#clip0_3_1473)">
<path d="M125.43 0H0V42.75H125.43V0Z" fill="#EE9E02"/>
<path d="M32.09 32.14V17.23L26.22 32.15H22.16L16.29 17.42V32.15H11.53V9.64001H18.07L24.26 24.84L30.13 9.64001H37.02V32.14H32.09Z" fill="white"/>
<path d="M41.8701 24.02V9.64001H46.8801V23.6C46.8801 26.33 48.4001 27.69 50.7801 27.69C53.1601 27.69 54.6801 26.32 54.6801 23.6V9.64001H59.6901V24.02C59.6901 29.67 55.7201 32.65 50.7701 32.65C45.8201 32.65 41.8701 29.67 41.8701 24.02Z" fill="white"/>
<path d="M75.54 16.43C75.38 15.38 74.52 13.61 71.79 13.61C69.92 13.61 68.71 14.78 68.71 16.02C68.71 17.1 69.38 17.89 70.93 18.18L73.95 18.75C78.24 19.54 80.46 22.3 80.46 25.51C80.46 29.03 77.51 32.62 72.15 32.62C65.93 32.62 63.26 28.59 62.94 25.41L67.54 24.3C67.73 26.36 69.13 28.17 72.2 28.17C74.17 28.17 75.37 27.22 75.37 25.82C75.37 24.68 74.45 23.85 72.96 23.57L69.89 23C66.08 22.27 63.77 19.73 63.77 16.4C63.77 12.15 67.51 9.16 71.83 9.16C77.45 9.16 79.57 12.52 80.05 15.16L75.54 16.43Z" fill="white"/>
<path d="M84.05 32.14V9.64001H89.13V32.14H84.05Z" fill="white"/>
<path d="M92.84 20.94C92.84 13.93 98.17 9.16 104.46 9.16C111.22 9.16 114.2 13.51 114.93 16.75L110.2 18.24C109.85 16.68 108.42 14.05 104.45 14.05C101.44 14.05 98.04 16.21 98.04 20.94C98.04 25.16 101.15 27.6 104.51 27.6C108.41 27.6 109.97 25 110.41 23.38L115.2 24.75C114.47 27.86 111.49 32.62 104.5 32.62C98.04 32.62 92.84 27.96 92.84 20.94Z" fill="white"/>
</g>
<defs>
<clipPath id="clip0_3_1473">
<rect width="125.43" height="42.75" fill="white"/>
</clipPath>
</defs>
</svg>
