<svg width="180" height="74" viewBox="0 0 180 74" fill="none" xmlns="http://www.w3.org/2000/svg">
<g clip-path="url(#clip0_3_802)">
<path d="M179.23 0H0V42.75H179.23V0Z" fill="#4E63D9"/>
<path d="M168.51 30.48H10.71V73.23H168.51V30.48Z" fill="#4E63D9"/>
<path d="M15.49 24.24V32.33H10.47V9.83H18.94C23.51 9.83 26.65 12.85 26.65 17.04C26.65 21.29 23.51 24.25 18.94 24.25H15.49V24.24ZM18.44 19.92C20.34 19.92 21.65 18.81 21.65 17.06C21.65 15.25 20.35 14.17 18.44 14.17H15.52V19.92H18.44Z" fill="white"/>
<path d="M40.5 9.35C46.82 9.35 52.18 13.95 52.18 21.09C52.18 28.2 46.82 32.8 40.5 32.8C34.15 32.8 28.79 28.2 28.79 21.09C28.79 13.95 34.15 9.35 40.5 9.35ZM40.5 27.86C43.61 27.86 46.97 25.77 46.97 21.07C46.97 16.37 43.6 14.25 40.5 14.25C37.36 14.25 33.99 16.38 33.99 21.07C33.99 25.76 37.36 27.86 40.5 27.86Z" fill="white"/>
<path d="M55.92 32.33V9.83H60.94V27.54H70.65V32.33H55.92Z" fill="white"/>
<path d="M74.05 32.33V9.83H79.13V32.33H74.05Z" fill="white"/>
<path d="M94.23 14.62V32.33H89.21V14.62H82.3V9.83H101.18V14.62H94.23V14.62Z" fill="white"/>
<path d="M104.39 32.33V9.83H109.47V32.33H104.39Z" fill="white"/>
<path d="M113.18 21.13C113.18 14.12 118.51 9.36 124.8 9.36C131.56 9.36 134.54 13.71 135.27 16.94L130.54 18.43C130.19 16.88 128.76 14.24 124.79 14.24C121.78 14.24 118.38 16.4 118.38 21.13C118.38 25.35 121.49 27.8 124.85 27.8C128.75 27.8 130.31 25.2 130.75 23.58L135.54 24.94C134.81 28.05 131.83 32.81 124.84 32.81C118.39 32.81 113.18 28.14 113.18 21.13Z" fill="white"/>
<path d="M150.12 16.62C149.96 15.57 149.1 13.79 146.37 13.79C144.5 13.79 143.29 14.96 143.29 16.2C143.29 17.28 143.96 18.07 145.51 18.36L148.52 18.93C152.81 19.72 155.03 22.48 155.03 25.69C155.03 29.21 152.08 32.8 146.71 32.8C140.49 32.8 137.82 28.77 137.51 25.6L142.11 24.49C142.3 26.55 143.7 28.36 146.78 28.36C148.75 28.36 149.95 27.41 149.95 26.01C149.95 24.87 149.03 24.04 147.54 23.76L144.46 23.19C140.65 22.46 138.34 19.92 138.34 16.59C138.34 12.34 142.09 9.35 146.4 9.35C152.02 9.35 154.14 12.71 154.62 15.35L150.12 16.62Z" fill="white"/>
<path d="M159.61 32.78H155.32L166.71 9.39H171.03L159.61 32.78Z" fill="white"/>
<path d="M35.82 64V55.05H26.84V64H21.83V41.5H26.84V50.32H35.82V41.5H40.87V64H35.82Z" fill="white"/>
<path d="M45.88 64V41.5H50.96V64H45.88Z" fill="white"/>
<path d="M66.95 48.29C66.79 47.24 65.93 45.46 63.21 45.46C61.34 45.46 60.13 46.63 60.13 47.87C60.13 48.95 60.8 49.74 62.35 50.03L65.37 50.6C69.65 51.39 71.88 54.15 71.88 57.36C71.88 60.88 68.93 64.47 63.56 64.47C57.34 64.47 54.67 60.44 54.36 57.27L58.96 56.16C59.15 58.22 60.55 60.03 63.63 60.03C65.6 60.03 66.8 59.08 66.8 57.68C66.8 56.54 65.88 55.71 64.39 55.43L61.31 54.86C57.5 54.13 55.18 51.59 55.18 48.26C55.18 44.01 58.93 41.02 63.24 41.02C68.86 41.02 70.98 44.38 71.46 47.02L66.95 48.29Z" fill="white"/>
<path d="M85.52 46.29V64H80.51V46.29H73.59V41.5H92.47V46.29H85.52Z" fill="white"/>
<path d="M105.58 41.02C111.9 41.02 117.26 45.62 117.26 52.76C117.26 59.87 111.9 64.47 105.58 64.47C99.23 64.47 93.87 59.87 93.87 52.76C93.87 45.62 99.23 41.02 105.58 41.02ZM105.58 59.53C108.69 59.53 112.05 57.44 112.05 52.74C112.05 48.04 108.68 45.92 105.58 45.92C102.44 45.92 99.07 48.05 99.07 52.74C99.07 57.43 102.44 59.53 105.58 59.53Z" fill="white"/>
<path d="M127.8 55.62H126.02V64H121V41.5H129.92C134.36 41.5 137.22 44.55 137.22 48.55C137.22 51.6 135.54 53.91 132.78 54.9L137.35 64.01H131.83L127.8 55.62ZM128.97 51.31C131.03 51.31 132.14 50.17 132.14 48.58C132.14 46.9 131.03 45.85 128.97 45.85H126.02V51.31H128.97V51.31Z" fill="white"/>
<path d="M138.65 41.5H144.52L149.12 49.85L153.79 41.5H159.38L151.48 54.61V64H146.47V54.61L138.65 41.5Z" fill="white"/>
<path d="M40.38 30.22C45.4113 30.22 49.49 26.1413 49.49 21.11C49.49 16.0787 45.4113 12 40.38 12C35.3487 12 31.27 16.0787 31.27 21.11C31.27 26.1413 35.3487 30.22 40.38 30.22Z" fill="white"/>
<path d="M40.61 13.06L43.03 17.96L48.44 18.74L44.52 22.55L45.45 27.94L40.61 25.4L35.77 27.94L36.7 22.55L32.78 18.74L38.19 17.96L40.61 13.06Z" fill="#4E63D9"/>
<path d="M105.63 61.71C110.661 61.71 114.74 57.6313 114.74 52.6C114.74 47.5687 110.661 43.49 105.63 43.49C100.599 43.49 96.52 47.5687 96.52 52.6C96.52 57.6313 100.599 61.71 105.63 61.71Z" fill="white"/>
<path d="M105.86 44.54L108.27 49.44L113.68 50.23L109.77 54.04L110.69 59.43L105.86 56.89L101.02 59.43L101.94 54.04L98.03 50.23L103.44 49.44L105.86 44.54Z" fill="#4E63D9"/>
</g>
<defs>
<clipPath id="clip0_3_802">
<rect width="179.23" height="73.23" fill="white"/>
</clipPath>
</defs>
</svg>
