<svg width="340" height="168" viewBox="0 0 340 168" fill="none" xmlns="http://www.w3.org/2000/svg">
<g clip-path="url(#clip0_2669_11791)">
<rect width="340" height="168" fill="#4E13AF"/>
<g filter="url(#filter0_f_2669_11791)">
<circle cx="170" cy="86" r="61" fill="#8448E4"/>
</g>
<path d="M11.5642 -3.40595L328.752 -3.40595L170.158 271.287L11.5642 -3.40595Z" fill="#B98EFD"/>
<path d="M-59.4499 -36.4509L-77.0008 -41.1537L43.9608 167.255L61.5117 171.958L-59.4499 -36.4509Z" fill="#3A1575"/>
<path d="M-41.8893 -31.7455L-59.4305 -36.4457L61.5311 171.963L79.0723 176.663L-41.8893 -31.7455Z" fill="#8347E2"/>
<path d="M-24.3481 -27.0457L-41.8989 -31.7484L79.0626 176.66L96.6039 181.36L-24.3481 -27.0457Z" fill="#3A1575"/>
<path d="M10.7343 -17.6449L-6.80689 -22.3451L114.155 186.063L131.696 190.764L10.7343 -17.6449Z" fill="#4E13AF"/>
<path d="M-6.80693 -22.3455L-24.3578 -27.0482L96.6038 181.36L114.155 186.063L-6.80693 -22.3455Z" fill="#8347E2"/>
<g clip-path="url(#clip1_2669_11791)">
<path d="M29.402 34.9543L34.9692 27.1748L22.9738 18.5907L17.4067 26.3703L29.402 34.9543Z" fill="#FFD77F"/>
<path d="M78.7641 64.3978C88.4729 50.8308 85.4211 32.0155 71.9479 22.3738C58.4747 12.7322 39.6819 15.9151 29.9732 29.4821C20.2644 43.049 23.316 61.8627 36.7892 71.5044C50.2624 81.146 69.0554 77.9647 78.7641 64.3978ZM34.5472 32.7553C42.4358 21.7319 57.7048 19.1473 68.6512 26.9806C79.5984 34.8147 82.0771 50.1013 74.1892 61.1239C66.3013 72.1464 51.0315 74.7319 40.0852 66.8985C29.1389 59.0651 26.6593 43.7778 34.5472 32.7553Z" fill="#FCAFA9"/>
<path d="M78.7641 64.3978C88.4729 50.8308 85.4211 32.0155 71.9479 22.3738C58.4747 12.7322 39.6819 15.9151 29.9732 29.4821C20.2644 43.049 23.316 61.8627 36.7892 71.5044C50.2624 81.146 69.0554 77.9647 78.7641 64.3978ZM32.943 31.6074C41.47 19.6918 57.9755 16.897 69.8087 25.365C81.642 33.8331 84.3222 50.3576 75.7952 62.2732C67.2682 74.1887 50.7627 76.9835 38.9295 68.5155C27.096 60.0458 24.416 43.5229 32.943 31.6074Z" fill="#FA9600"/>
<path opacity="0.5" d="M37.0963 64.37C46.6382 73.8686 62.1073 73.7654 71.6475 64.1396C81.1877 54.5137 81.1863 39.0103 71.6444 29.5117C62.1025 20.0131 46.6334 20.1163 37.0932 29.7421C27.553 39.368 27.5544 54.8714 37.0963 64.37Z" fill="#FEFEFF"/>
<path opacity="0.5" d="M35.9348 35.3985C43.8234 24.375 59.0916 21.7898 70.0388 29.6238C72.7891 31.5919 75.0042 34.031 76.6556 36.754C74.9556 32.9658 72.2647 29.5664 68.6512 26.9804C57.7039 19.1464 42.4351 21.7326 34.5472 32.7551C28.6404 41.0092 28.5473 51.6526 33.4678 59.769C30.0196 52.0806 30.6509 42.7823 35.9348 35.3985Z" fill="#CD5A19"/>
<path opacity="0.5" d="M47.0699 23.6248C44.8347 24.3386 42.689 25.3733 40.7121 26.7198L47.8262 70.5799C50.1218 71.2038 52.4795 71.476 54.8206 71.4149L47.0699 23.6248Z" fill="white"/>
<path opacity="0.5" d="M59.7209 70.7928C63.0701 70.018 66.2707 68.5427 69.0791 66.4007C67.9034 58.9622 66.7213 51.5248 65.5317 44.0879C64.4444 37.2925 63.3484 30.4994 62.2508 23.7066C58.8853 22.5783 55.3537 22.2238 51.9037 22.5978C54.5094 38.6628 57.1152 54.7278 59.7209 70.7928Z" fill="white"/>
<path d="M27.7618 19.3462L-8.99892 -6.96046C-11.4146 -8.68915 -14.7844 -8.11855 -16.5251 -5.68608L-18.3637 -3.11695C-20.1044 -0.68448 -19.5572 2.68926 -17.1415 4.41794L19.6192 30.7246L27.7618 19.3462Z" fill="#19D3FE"/>
<path d="M19.6573 30.6714C8.14247 23.278 0.375161 10.821 -2.91784 -2.60873L-8.99892 -6.96046C-11.4146 -8.68915 -14.7844 -8.11855 -16.5251 -5.68608L-18.3643 -3.116C-20.1051 -0.683531 -19.5578 2.6902 -17.1422 4.41889L19.6186 30.7255L19.6573 30.6714Z" fill="#1BA3C2"/>
<path d="M5.51832 6.57576C5.15357 6.31473 5.07089 5.80494 5.33373 5.43765C5.59656 5.07036 6.10577 4.98414 6.47052 5.24516L25.7854 19.0672C26.1501 19.3283 26.2328 19.838 25.97 20.2053C25.7072 20.5726 25.1979 20.6589 24.8332 20.3978L5.51832 6.57576Z" fill="#19D3FE"/>
</g>
<g clip-path="url(#clip2_2669_11791)">
<path d="M216 106.135C216 106.135 232.863 117.171 242.249 146.63C240.182 151.423 243.17 157.589 249.738 155.06C254.287 153.922 279.52 147.199 297.033 170.006C322.969 159.532 352.561 149.681 352.561 149.681C352.561 149.681 353.653 146.642 353.47 146.506C352.667 145.931 349.176 148.034 347.416 147.234C337.339 142.673 314.782 133.58 300.978 136.625C295.591 137.774 292.727 136.945 292.727 133.977C292.727 131.009 283.571 105.998 276.554 99.5474C259.195 99.7192 231.765 105.051 220.973 105.216C220.589 105.222 218.061 102.734 217.359 102.853C216.898 102.918 216 106.135 216 106.135Z" fill="#EAA41A"/>
<path d="M217.359 102.847C217.359 102.847 235.746 116.028 245.131 145.487C243.064 150.279 245.102 154.574 251.67 152.045C256.218 150.907 281.179 146.144 298.338 167.056C324.274 156.582 353.476 146.506 353.476 146.506C353.476 146.506 321.634 129.913 303.441 133.93C298.054 135.079 295.19 134.249 295.19 131.282C295.19 128.32 286.035 103.303 279.018 96.8462C257.281 97.0595 217.359 102.847 217.359 102.847Z" fill="#D3900A"/>
<path d="M279.602 92.356L226.466 95.8984C224.423 102.385 247.813 133.941 247.813 133.941C247.813 133.941 249.036 138.189 252.237 144.622L298.308 131.252C293.371 110.406 279.602 92.356 279.602 92.356Z" fill="#FFF2E6"/>
<path d="M298.332 131.394C298.32 131.347 298.308 131.299 298.297 131.252L252.225 144.622C252.308 144.788 252.385 144.948 252.473 145.12C277.364 140.458 300.098 157.566 300.098 157.566C300.098 157.566 311.527 153.881 355 137.229C343.872 131.749 307.741 129.131 298.332 131.394Z" fill="#E5D1C3"/>
<path d="M301.167 153.769L301.144 153.774C301.144 153.774 281.835 137.881 253.554 144.136C250.246 129.919 235.433 99.9918 226.461 95.8984C223.625 98.1673 220.135 100.691 220.135 100.691C220.135 100.691 240.43 119.618 246.419 145.126C250.932 144.936 253.141 149.906 253.141 149.906C253.141 149.906 268.445 146.666 280.341 150.38C292.236 154.094 299.714 164.206 299.714 164.206L299.868 164.153L354.374 144.462L355.006 137.241L301.167 153.769Z" fill="#D6B8A1"/>
<path d="M301.144 153.78C301.144 153.78 281.835 137.887 253.554 144.142C250.246 129.925 235.433 99.9977 226.461 95.9043C223.625 98.1672 220.135 100.691 220.135 100.691C220.135 100.691 240.43 119.617 246.419 145.126C250.932 144.936 253.141 149.906 253.141 149.906C253.141 149.906 268.445 146.666 280.341 150.38C292.236 154.094 299.714 164.206 299.714 164.206L299.868 164.153L301.173 153.774L301.144 153.78Z" fill="#DBC2AD"/>
<path d="M253.554 144.628C253.554 144.628 273.956 136.045 301.167 149.201C330.11 141.145 352.797 133.947 352.797 133.947C352.797 133.947 322.159 125.607 298.332 131.4C274.505 137.188 255.917 143.046 253.554 144.628Z" fill="#FFF2E6"/>
<path d="M253.554 144.142C253.554 144.142 255.238 115.886 234.358 92.0185C247.884 90.4309 286.631 89.7378 286.631 89.7378C286.631 89.7378 299.313 112.651 298.326 131.4C277.352 136.738 253.554 144.142 253.554 144.142Z" fill="#EEE6DE"/>
<path d="M302.225 130.583C302.225 130.583 265.822 140.351 258.008 143.325C250.193 146.299 250.719 164.941 250.719 164.941L247.358 160.095L244.21 163.075C244.21 163.075 245.563 147.596 253.076 142.264C260.595 136.927 295.237 130.553 302.225 130.583Z" fill="#E62728"/>
<path d="M291.758 126.211C286.619 126.211 281.811 126.614 277.718 127.319C278.007 123.587 277.582 119.197 276.354 114.654C273.276 103.292 266.318 95.2946 260.807 96.7933C255.297 98.2921 253.33 108.724 256.401 120.086C258.533 127.953 262.52 134.197 266.602 136.803C270.654 139.605 280.388 141.584 291.758 141.584C306.767 141.584 318.928 138.142 318.928 133.894C318.928 129.647 306.761 126.211 291.758 126.211Z" fill="#D2CAC1"/>
<path d="M257.63 99.3698C257.63 121.057 275.161 138.633 296.785 138.633C318.403 138.633 335.934 121.057 335.934 99.3698C335.934 77.6826 318.403 60.1006 296.785 60.1006C275.161 60.1065 257.63 77.6826 257.63 99.3698Z" fill="#2EC9EB"/>
<path d="M315.662 115.441C304.924 123.782 289.2 126.928 276.484 121.632C275.757 121.33 275.042 120.992 274.345 120.637C273.991 120.613 273.642 120.453 273.371 120.121C271.321 118.984 269.407 117.633 267.665 116.081C265.787 114.748 264.027 113.095 262.532 111.372C260.949 109.541 259.26 107.598 258.09 105.436C260.996 124.244 277.21 138.639 296.779 138.639C318.403 138.639 335.933 121.063 335.933 99.3758C335.933 90.6026 333.063 82.5047 328.219 75.9707C328.668 78.5061 332.708 84.8565 327.676 99.3758C325.567 105.424 319.773 112.248 315.662 115.441Z" fill="#16A3CF"/>
<path d="M321.072 74.0691C322.277 73.9033 323.175 74.9933 324.091 75.6093C325.054 76.261 326.075 77.191 327.233 76.1603C327.57 75.8641 327.682 75.5442 327.664 75.2184C320.505 65.9653 309.307 60 296.714 60C279.833 60 265.444 70.7222 259.945 85.7451C260.973 86.0235 262.65 83.5947 263.501 82.7061C264.186 81.9893 265.728 81.5687 266.212 80.8164C267.151 79.371 265.485 79.3532 264.989 78.2929C264.257 76.729 265.828 76.8178 266.992 76.7586C268.468 76.6875 268.988 76.415 270.288 75.7693C271.28 75.2776 272.503 75.2895 272.816 74.081C273.075 73.068 272.443 71.4804 272.993 70.3253C273.418 69.4308 274.759 68.477 275.58 68.0683C273.908 69.4248 272.768 72.4519 275.196 73.5656C276.389 74.1106 277.629 73.228 277.517 75.1769C277.44 76.4742 276.147 76.8652 277.836 77.5405C279 78.0085 280.305 77.2799 278.787 78.9978C277.836 80.0641 276.986 80.224 276.543 81.6398C276.153 82.8957 274.8 87.2853 275.793 88.2686C277.192 87.5992 278.893 87.0602 279.998 85.8517C281.162 84.5721 280.961 83.4051 282.715 82.7476C284.274 82.1552 286.342 81.9538 288.055 81.9538C290.382 81.9538 290.016 83.2215 290.388 85.0875C289.508 85.3541 288.061 86.4145 288.013 87.4807C287.919 89.6252 289.939 87.7947 290.707 88.8847C291.463 89.951 288.368 94.4531 288.368 95.8275C288.374 97.0833 289.147 102.871 290.571 102.338C291.923 101.828 291.451 99.518 291.345 98.505C291.209 97.1248 291.244 95.9519 291.545 94.6012C291.793 93.5349 291.829 91.7104 293.04 92.984C293.92 93.9081 293.335 95.4661 294.174 96.3073C296.058 98.1911 299.094 95.7978 299.212 93.7719C299.271 92.6582 298.527 91.1239 298.728 90.1583C299.017 88.8018 300.464 88.6477 301.722 88.5707C304.126 88.4286 307.269 89.1927 309.431 88.0731C312.52 86.4737 310.145 84.0153 311.031 81.6398C311.409 80.6269 312.656 79.5309 313.831 79.7442C315.207 79.993 315.184 81.5391 315.402 82.5817C315.627 83.7013 316.005 84.8209 317.251 83.648C318.107 82.8364 317.558 81.5391 318.852 81.0001C320.246 80.4195 321.043 81.6102 321.734 79.7857C322.23 78.4528 321.71 77.428 320.913 76.4328C320.122 75.4494 319.041 74.3357 321.072 74.0691Z" fill="#BBE038"/>
<path d="M307.304 103.659C309.123 104.364 309.98 102.397 309.82 100.981C309.69 99.832 308.421 98.5051 308.551 97.3499C308.686 96.0941 310.742 94.4532 308.09 94.3584C307.641 94.5717 307.009 94.9567 306.708 95.4662C306.253 96.2244 306.779 96.8997 306.519 97.5217C306.04 98.665 304.782 98.6591 303.808 99.0501C301.681 99.915 300.701 101.982 298.822 103.072C296.702 104.305 293.323 101.935 293.311 105.709C293.311 106.763 293.63 107.823 294.605 108.356C295.072 108.617 295.704 108.351 296.182 108.665C296.678 108.99 296.631 109.826 297.275 110.092C299.974 111.218 301.037 105.602 301.953 104.607C302.52 103.991 302.963 104.429 303.217 103.339C303.37 102.681 302.65 102.16 303.099 101.491C303.624 100.697 305.946 100.241 306.802 100.051C307.452 101.479 305.999 103.149 307.304 103.659Z" fill="#BBE038"/>
<path d="M288.131 97.6696C287.913 97.0357 286.702 95.9102 286.04 96.5204C285.603 96.9173 286.336 98.9788 286.401 99.5652C286.543 100.774 286.572 101.076 287.033 102.255C287.364 103.114 287.547 104.221 287.783 105.116C287.954 105.779 288.007 107.373 288.799 107.722C290.104 108.291 290.216 106.686 290.163 105.708C290.11 104.666 288.988 100.868 287.842 100.643C287.842 99.7666 288.858 99.3697 288.131 97.6696Z" fill="#BBE038"/>
<path d="M299.909 116.436C300.701 116.827 303.648 115.489 304.174 115.009C302.981 113.682 300.653 114.12 298.994 114.037C299.1 113.166 297.499 112.627 296.897 112.633C296.909 112.639 296.915 112.645 296.932 112.645H296.773C296.802 112.639 296.85 112.633 296.897 112.633C294.505 111.994 292.898 106.816 289.886 108.57C289.933 109.594 290.772 109.363 291.433 109.808C292.071 110.24 292.39 110.821 293.04 111.348C294.192 112.284 295.84 112.55 296.926 113.48C297.47 113.931 298.043 114.446 298.503 114.861C298.657 114.991 299.218 115.098 299.496 115.317C299.874 115.631 299.366 116.17 299.909 116.436Z" fill="#BBE038"/>
<path d="M296.932 112.645C296.92 112.645 296.909 112.639 296.897 112.633C296.85 112.633 296.802 112.639 296.773 112.645H296.932Z" fill="#BBE038"/>
<path d="M302.295 111.988C302.975 112.361 303.14 110.477 303.571 109.689C304.174 108.582 305.904 108.582 305.904 108.078C305.904 107.272 303.607 106.828 302.904 108.078C301.675 108.795 301.439 109.666 301.309 110.708C301.581 110.667 301.575 111.105 302.443 110.347C302.325 110.898 302.254 111.395 302.295 111.988Z" fill="#BBE038"/>
<path d="M320.051 118.48C319.454 117.568 318.491 117.704 317.641 117.254C316.708 116.762 316.518 116.128 316.27 115.494C315.886 114.505 316.093 113.593 314.658 113.468C313.689 113.391 313.016 114.067 311.888 113.883C311.965 113.534 312.278 112.87 311.84 112.681C311.25 112.047 310.452 112.088 309.82 111.235C308.58 109.677 308.686 111.283 309.354 112.023C310.517 113.326 308.858 114.63 309.838 115.465C310.441 116.051 311.451 115.044 311.894 116.247C312.207 117.076 311.9 117.793 311.096 118.213C311.581 119.641 312.868 118.729 313.796 119.072C314.422 119.303 313.483 120.275 314.693 119.908C315.095 119.795 315.095 118.735 315.792 118.468C317.074 118.142 315.721 121.282 317.369 121.797C319.501 122.473 318.479 120.281 317.694 119.475C318.432 118.758 319.46 119.244 320.051 118.48Z" fill="#BBE038"/>
<path d="M296.3 121.164C296.253 121.152 296.206 121.146 296.158 121.14C296.153 121.152 296.147 121.152 296.141 121.164H296.3Z" fill="#BBE038"/>
<path d="M298.497 135.665C298.763 137.022 300.594 136.038 301.215 135.547C302.378 134.623 302.26 134.35 303.849 134.095C304.912 133.918 306.135 133.817 307.145 133.45C308.763 132.875 311.167 131.116 312.331 129.789C313.27 128.722 313.382 128.012 312.998 126.637C312.851 126.116 312.472 125.944 312.366 125.411C312.278 124.931 312.549 123.989 312.638 123.515C312.945 121.969 314.061 119.416 311.817 121.436C310.807 122.342 309.939 124.576 308.745 124.919C308.527 124.422 308.692 123.794 308.45 123.32C308.261 122.959 307.363 122.953 307.292 122.431C307.18 121.507 308.988 121.051 309.36 120.216C308.734 119.315 308.391 120.322 307.605 120.068C307.08 119.89 306.773 119.144 306.241 118.918C304.221 118.054 303.973 120.429 302.455 120.192C302.083 117.402 297.133 120.133 296.158 121.146C296.206 121.158 296.253 121.158 296.3 121.17H296.147C296.147 121.158 296.158 121.152 296.164 121.146C293.991 120.826 292.331 118.545 290.134 120.814C289.265 121.709 289.183 123.006 289.076 124.161C289.006 124.913 289.112 125.352 288.757 126.021C288.568 126.382 287.753 126.471 287.653 126.987C287.062 130.002 299.862 126.625 299.49 131.139C299.448 131.619 298.586 131.625 298.84 132.336C299.094 133.041 299.271 132.372 300.364 132.857C301.451 133.337 298.379 135.055 298.497 135.665Z" fill="#BBE038"/>
<path d="M320.051 118.48C319.454 117.568 318.491 117.704 317.641 117.254C316.708 116.762 316.518 116.128 316.27 115.494C315.886 114.505 316.093 113.593 314.658 113.468C313.689 113.391 313.016 114.067 311.888 113.883C311.965 113.534 312.278 112.87 311.84 112.681C311.25 112.047 310.452 112.088 309.82 111.235C308.58 109.677 308.686 111.283 309.354 112.023C310.517 113.326 308.858 114.63 309.838 115.465C310.441 116.051 311.451 115.044 311.894 116.247C312.207 117.076 311.9 117.793 311.096 118.213C311.581 119.641 312.868 118.729 313.796 119.072C314.422 119.303 313.483 120.275 314.693 119.908C315.095 119.795 315.095 118.735 315.792 118.468C317.074 118.142 315.721 121.282 317.369 121.797C319.501 122.473 318.479 120.281 317.694 119.475C318.432 118.758 319.46 119.244 320.051 118.48Z" fill="#BBE038"/>
<path d="M298.497 135.665C298.763 137.022 300.594 136.038 301.215 135.547C302.378 134.623 302.26 134.35 303.849 134.095C304.912 133.918 306.135 133.817 307.145 133.45C308.763 132.875 311.167 131.116 312.331 129.789C313.27 128.722 313.382 128.012 312.998 126.637C312.851 126.116 312.472 125.944 312.366 125.411C312.278 124.931 312.549 123.989 312.638 123.515C312.945 121.969 314.061 119.416 311.817 121.436C310.807 122.342 309.939 124.576 308.745 124.919C308.527 124.422 308.692 123.794 308.45 123.32C308.261 122.959 307.363 122.953 307.292 122.431C307.18 121.507 308.988 121.051 309.36 120.216C308.734 119.315 308.391 120.322 307.605 120.068C307.08 119.89 306.773 119.144 306.241 118.918C304.221 118.054 303.973 120.429 302.455 120.192C302.083 117.402 297.133 120.133 296.158 121.146C296.206 121.158 296.253 121.158 296.3 121.17H296.147C296.147 121.158 296.158 121.152 296.164 121.146C293.991 120.826 292.331 118.545 290.134 120.814C289.265 121.709 289.183 123.006 289.076 124.161C289.006 124.913 289.112 125.352 288.757 126.021C288.568 126.382 287.753 126.471 287.653 126.987C287.062 130.002 299.862 126.625 299.49 131.139C299.448 131.619 298.586 131.625 298.84 132.336C299.094 133.041 299.271 132.372 300.364 132.857C301.451 133.337 298.379 135.055 298.497 135.665Z" fill="#BBE038"/>
<path d="M298.497 135.666C298.763 137.022 300.594 136.039 301.215 135.547C302.378 134.623 302.26 134.35 303.849 134.096C304.912 133.918 306.135 133.817 307.145 133.45C308.763 132.875 311.167 131.116 312.331 129.789C313.27 128.723 313.382 128.012 312.998 126.638C312.851 126.116 312.472 125.945 312.366 125.411C312.278 124.932 312.549 123.99 312.638 123.516C312.945 121.97 314.061 119.416 311.817 121.436C310.807 122.343 309.939 124.576 308.745 124.92C308.527 124.422 308.692 123.794 308.45 123.32C308.261 122.959 307.363 122.953 307.292 122.432C307.18 121.508 308.988 121.051 309.36 120.216C308.881 119.529 308.568 119.95 308.102 120.074C302.201 122.876 295.58 124.375 289.071 124.221C289.006 124.932 289.1 125.364 288.757 126.016C288.568 126.377 287.753 126.466 287.653 126.981C287.062 129.996 299.862 126.62 299.49 131.134C299.448 131.614 298.586 131.62 298.84 132.33C299.094 133.035 299.271 132.366 300.364 132.852C301.451 133.337 298.379 135.055 298.497 135.666Z" fill="#A9CD24"/>
<path d="M257.748 96.2954C257.665 97.3084 257.624 98.3392 257.624 99.3699C257.624 100.726 257.689 102.065 257.831 103.386C258.203 102.45 258.575 101.532 258.575 100.187C258.575 98.1674 259.827 94.4472 259.331 94.2102C258.835 93.9851 258.167 95.318 257.748 96.2954Z" fill="#BBE038"/>
<path d="M309.177 92.0955C309.903 92.3917 311.256 90.7922 311.244 90.1051C311.238 89.4179 310.559 89.4357 310.163 89.335C308.745 89.7022 308.456 91.7993 309.177 92.0955Z" fill="#BBE038"/>
<path d="M320.346 84.8626C319.324 85.4432 317.842 85.0048 317.003 85.6801C316.2 86.3258 315.987 88.1681 316.129 89.1278C317.227 89.1989 318.131 87.5284 319.212 87.2263C320.582 86.8412 322.201 87.866 322.862 86.468C323.158 85.846 322.709 84.7856 322.862 84.1044C323.163 82.8071 322.898 83.3461 324.12 83.0025C325.449 82.6293 326.885 82.582 327.091 80.8285C325.845 80.3368 325.243 82.1851 324.12 81.9007C323.034 81.6282 324.191 78.2516 322.862 78.8973C321.303 80.8522 322.691 83.5179 320.346 84.8626Z" fill="#BBE038"/>
<path d="M320.051 118.48C319.454 117.568 318.491 117.704 317.641 117.254C316.708 116.762 316.518 116.128 316.27 115.494C316.211 115.346 316.176 115.198 316.135 115.062C315.975 115.192 315.822 115.323 315.656 115.441C314.25 116.537 312.756 117.538 311.197 118.445C311.74 119.529 312.921 118.747 313.796 119.067C314.422 119.298 313.483 120.269 314.693 119.902C315.095 119.789 315.095 118.729 315.792 118.462C317.074 118.136 315.721 121.276 317.369 121.792C319.501 122.467 318.479 120.275 317.694 119.469C318.432 118.758 319.46 119.244 320.051 118.48Z" fill="#A9CD24"/>
<path opacity="0.36" d="M272.308 83.7487C276.625 77.5878 282.207 71.4626 289.525 69.721C292.526 69.0042 295.385 68.5184 298.415 68.0682C299.897 67.8372 301.433 67.304 302.951 67.2803C304.546 67.2626 305.999 67.772 307.617 67.6832C306.743 66.7946 305.39 65.7579 304.274 65.3966V65.5802C301.439 63.9038 295.822 64.271 292.508 64.4428C287.883 64.6857 283.961 65.9001 280.063 68.3881C273.867 72.3452 267.783 79.442 265.698 86.6336C263.855 92.978 263.377 101.218 266.094 107.254C265.113 103.534 266.436 99.9563 267.352 96.3072C268.456 91.9591 269.703 87.4688 272.308 83.7487Z" fill="white"/>
</g>
<g clip-path="url(#clip3_2669_11791)">
<path fill-rule="evenodd" clip-rule="evenodd" d="M73.0159 133.79L105.941 100.029C107.177 98.7613 109.224 98.7319 110.487 99.9643C111.758 101.204 111.78 103.25 110.544 104.519L77.6189 138.279C76.3811 139.546 74.3346 139.575 73.0636 138.336C71.8 137.103 71.7791 135.058 73.0159 133.79Z" fill="#005EDF"/>
<path fill-rule="evenodd" clip-rule="evenodd" d="M109.369 105.72C110.022 106.215 110.653 106.76 111.256 107.348C121.954 117.782 112.661 134.45 117.977 141.84C119.175 143.514 119.592 143.92 121.302 145.082C128.825 150.211 145.254 140.505 155.951 150.938C156.555 151.526 157.115 152.143 157.626 152.783L127.048 184.137C126.396 183.642 125.758 183.104 125.155 182.516C114.457 172.082 123.756 155.408 118.441 148.016C117.236 146.335 116.819 145.93 115.116 144.774C107.594 139.646 91.1576 149.359 80.4597 138.926C79.8566 138.338 79.3024 137.714 78.7912 137.074L109.369 105.72V105.72Z" fill="white" fill-opacity="0.7"/>
<path fill-rule="evenodd" clip-rule="evenodd" d="M152.096 151.89C152.641 152.351 153.08 152.905 153.512 153.454L127.615 180.008C127.056 179.59 126.518 179.136 126.009 178.639C120.294 173.066 133.245 164.396 120.872 147.548C138.92 162.196 142.245 143.505 152.096 151.89Z" fill="#F2A63A"/>
<path fill-rule="evenodd" clip-rule="evenodd" d="M113.764 116.038C117.16 123.316 113.174 133.276 114.989 138.872C115.657 141.534 116.998 143.291 117.973 144.776C112.29 140.978 110.209 141.016 107.292 141.292C102.686 141.734 97.7435 142.694 93.2639 141.685C93.4269 139.636 94.9355 137.269 96.3261 135.843C99.2777 132.817 107.349 129.596 107.052 126.956C106.329 120.331 109.996 118.481 113.764 116.038Z" fill="#F2A63A"/>
<path fill-rule="evenodd" clip-rule="evenodd" d="M74.9698 131.786L103.987 102.033C104.458 101.55 104.456 100.761 103.968 100.285C103.487 99.8156 102.691 99.827 102.22 100.31L73.2029 130.063C72.7248 130.553 72.7406 131.342 73.2217 131.811C73.7101 132.288 74.4917 132.276 74.9698 131.786Z" fill="#142895"/>
<path fill-rule="evenodd" clip-rule="evenodd" d="M130.392 189.745L163.317 155.985C164.553 154.717 164.531 152.671 163.261 151.432C161.998 150.2 159.951 150.229 158.715 151.497L125.79 185.257C124.552 186.524 124.574 188.571 125.839 189.804C127.109 191.043 129.155 191.014 130.392 189.745Z" fill="#005EDF"/>
<path fill-rule="evenodd" clip-rule="evenodd" d="M132.346 187.742L161.363 157.989C161.833 157.506 162.622 157.488 163.111 157.964C163.592 158.433 163.6 159.229 163.13 159.712L134.112 189.465C133.634 189.956 132.845 189.96 132.364 189.49C131.876 189.014 131.868 188.232 132.346 187.742Z" fill="#142895"/>
</g>
<g clip-path="url(#clip4_2669_11791)">
<path d="M259.23 47H80V89.75H259.23V47Z" fill="#4E63D9"/>
<path d="M248.51 77.48H90.71V120.23H248.51V77.48Z" fill="#4E63D9"/>
<path d="M95.49 71.2401V79.3301H90.47V56.8301H98.94C103.51 56.8301 106.65 59.8501 106.65 64.0401C106.65 68.2901 103.51 71.2501 98.94 71.2501H95.49V71.2401ZM98.44 66.9201C100.34 66.9201 101.65 65.8101 101.65 64.0601C101.65 62.2501 100.35 61.1701 98.44 61.1701H95.52V66.9201H98.44Z" fill="white"/>
<path d="M120.5 56.3501C126.82 56.3501 132.18 60.9501 132.18 68.0901C132.18 75.2001 126.82 79.8001 120.5 79.8001C114.15 79.8001 108.79 75.2001 108.79 68.0901C108.79 60.9501 114.15 56.3501 120.5 56.3501ZM120.5 74.8601C123.61 74.8601 126.97 72.7701 126.97 68.0701C126.97 63.3701 123.6 61.2501 120.5 61.2501C117.36 61.2501 113.99 63.3801 113.99 68.0701C113.99 72.7601 117.36 74.8601 120.5 74.8601Z" fill="white"/>
<path d="M135.92 79.3301V56.8301H140.94V74.5401H150.65V79.3301H135.92Z" fill="white"/>
<path d="M154.05 79.3301V56.8301H159.13V79.3301H154.05Z" fill="white"/>
<path d="M174.23 61.6201V79.3301H169.21V61.6201H162.3V56.8301H181.18V61.6201H174.23V61.6201Z" fill="white"/>
<path d="M184.39 79.3301V56.8301H189.47V79.3301H184.39Z" fill="white"/>
<path d="M193.18 68.1299C193.18 61.1199 198.51 56.3599 204.8 56.3599C211.56 56.3599 214.54 60.7099 215.27 63.9399L210.54 65.4299C210.19 63.8799 208.76 61.2399 204.79 61.2399C201.78 61.2399 198.38 63.3999 198.38 68.1299C198.38 72.3499 201.49 74.7999 204.85 74.7999C208.75 74.7999 210.31 72.1999 210.75 70.5799L215.54 71.9399C214.81 75.0499 211.83 79.8099 204.84 79.8099C198.39 79.8099 193.18 75.1399 193.18 68.1299Z" fill="white"/>
<path d="M230.12 63.6201C229.96 62.5701 229.1 60.7901 226.37 60.7901C224.5 60.7901 223.29 61.9601 223.29 63.2001C223.29 64.2801 223.96 65.0701 225.51 65.3601L228.52 65.9301C232.81 66.7201 235.03 69.4801 235.03 72.6901C235.03 76.2101 232.08 79.8001 226.71 79.8001C220.49 79.8001 217.82 75.7701 217.51 72.6001L222.11 71.4901C222.3 73.5501 223.7 75.3601 226.78 75.3601C228.75 75.3601 229.95 74.4101 229.95 73.0101C229.95 71.8701 229.03 71.0401 227.54 70.7601L224.46 70.1901C220.65 69.4601 218.34 66.9201 218.34 63.5901C218.34 59.3401 222.09 56.3501 226.4 56.3501C232.02 56.3501 234.14 59.7101 234.62 62.3501L230.12 63.6201Z" fill="white"/>
<path d="M239.61 79.7801H235.32L246.71 56.3901H251.03L239.61 79.7801Z" fill="white"/>
<path d="M115.82 111V102.05H106.84V111H101.83V88.5H106.84V97.32H115.82V88.5H120.87V111H115.82Z" fill="white"/>
<path d="M125.88 111V88.5H130.96V111H125.88Z" fill="white"/>
<path d="M146.95 95.29C146.79 94.24 145.93 92.46 143.21 92.46C141.34 92.46 140.13 93.63 140.13 94.87C140.13 95.95 140.8 96.74 142.35 97.03L145.37 97.6C149.65 98.39 151.88 101.15 151.88 104.36C151.88 107.88 148.93 111.47 143.56 111.47C137.34 111.47 134.67 107.44 134.36 104.27L138.96 103.16C139.15 105.22 140.55 107.03 143.63 107.03C145.6 107.03 146.8 106.08 146.8 104.68C146.8 103.54 145.88 102.71 144.39 102.43L141.31 101.86C137.5 101.13 135.18 98.59 135.18 95.26C135.18 91.01 138.93 88.02 143.24 88.02C148.86 88.02 150.98 91.38 151.46 94.02L146.95 95.29Z" fill="white"/>
<path d="M165.52 93.29V111H160.51V93.29H153.59V88.5H172.47V93.29H165.52Z" fill="white"/>
<path d="M185.58 88.02C191.9 88.02 197.26 92.62 197.26 99.76C197.26 106.87 191.9 111.47 185.58 111.47C179.23 111.47 173.87 106.87 173.87 99.76C173.87 92.62 179.23 88.02 185.58 88.02ZM185.58 106.53C188.69 106.53 192.05 104.44 192.05 99.74C192.05 95.04 188.68 92.92 185.58 92.92C182.44 92.92 179.07 95.05 179.07 99.74C179.07 104.43 182.44 106.53 185.58 106.53Z" fill="white"/>
<path d="M207.8 102.62H206.02V111H201V88.5H209.92C214.36 88.5 217.22 91.55 217.22 95.55C217.22 98.6 215.54 100.91 212.78 101.9L217.35 111.01H211.83L207.8 102.62ZM208.97 98.31C211.03 98.31 212.14 97.17 212.14 95.58C212.14 93.9 211.03 92.85 208.97 92.85H206.02V98.31H208.97V98.31Z" fill="white"/>
<path d="M218.65 88.5H224.52L229.12 96.85L233.79 88.5H239.38L231.48 101.61V111H226.47V101.61L218.65 88.5Z" fill="white"/>
<path d="M120.38 77.22C125.411 77.22 129.49 73.1413 129.49 68.11C129.49 63.0787 125.411 59 120.38 59C115.349 59 111.27 63.0787 111.27 68.11C111.27 73.1413 115.349 77.22 120.38 77.22Z" fill="white"/>
<path d="M120.61 60.0601L123.03 64.9601L128.44 65.7401L124.52 69.5501L125.45 74.9401L120.61 72.4001L115.77 74.9401L116.7 69.5501L112.78 65.7401L118.19 64.9601L120.61 60.0601Z" fill="#4E63D9"/>
<path d="M185.63 108.71C190.661 108.71 194.74 104.632 194.74 99.6002C194.74 94.5689 190.661 90.4902 185.63 90.4902C180.599 90.4902 176.52 94.5689 176.52 99.6002C176.52 104.632 180.599 108.71 185.63 108.71Z" fill="white"/>
<path d="M185.86 91.54L188.27 96.44L193.68 97.23L189.77 101.04L190.69 106.43L185.86 103.89L181.02 106.43L181.94 101.04L178.03 97.23L183.44 96.44L185.86 91.54Z" fill="#4E63D9"/>
</g>
<path d="M130.64 37.9926C130.302 37.9926 129.979 37.7915 129.844 37.4639C128.689 34.6789 128.719 32.0875 129.934 29.7493C131.78 26.2122 136.4 23.457 142.949 21.9826C147.915 20.8656 150.435 18.6391 150.435 15.3701C150.435 14.3052 150.165 13.2031 149.722 12.1234C147.547 11.8404 145.342 10.999 143.451 9.85965C140.121 7.84165 138.553 5.33217 139.453 3.45565C139.678 2.98652 140.413 1.92912 142.251 2.34612C144.929 2.94929 148.867 6.43426 150.878 10.4777C152.97 10.5671 154.981 10.0011 156.316 8.2512C158.364 5.57791 156.848 3.28438 154.208 -0.245262C151.695 -3.60364 148.845 -7.4088 150.502 -12.4129C150.652 -12.8596 151.14 -13.1054 151.59 -12.9564C152.04 -12.8075 152.288 -12.3235 152.138 -11.8767C150.758 -7.72155 153.218 -4.43765 155.588 -1.26543C158.064 2.03337 160.621 5.45132 157.689 9.28627C156.158 11.2819 153.968 12.1457 151.598 12.2202C151.95 13.2702 152.153 14.3276 152.153 15.3701C152.153 18.2444 150.622 22.0124 143.324 23.658C137.278 25.0207 133.07 27.4632 131.465 30.546C130.49 32.4151 130.482 34.5225 131.435 36.816C131.615 37.2554 131.405 37.7543 130.97 37.933C130.865 37.9777 130.752 38 130.64 38V37.9926ZM141.456 3.96202C141.111 3.96202 141.036 4.11839 141.006 4.19286C140.541 5.15346 141.981 6.96296 144.344 8.39269C145.537 9.115 147.089 9.79263 148.71 10.165C146.774 7.02253 143.661 4.41625 141.869 4.01414C141.704 3.97691 141.569 3.96202 141.464 3.96202H141.456Z" fill="#FFC854"/>
<path d="M130.64 37.9926C130.302 37.9926 129.979 37.7915 129.844 37.4639C128.689 34.6789 128.719 32.0875 129.934 29.7493C131.78 26.2122 136.4 23.457 142.949 21.9826C147.915 20.8656 150.435 18.6391 150.435 15.3701C150.435 14.3052 150.165 13.2031 149.722 12.1234C147.547 11.8404 145.342 10.999 143.451 9.85965C140.121 7.84165 138.553 5.33217 139.453 3.45565C139.678 2.98652 140.413 1.92912 142.251 2.34612C144.929 2.94929 148.867 6.43426 150.878 10.4777C152.97 10.5671 154.981 10.0011 156.316 8.2512C158.364 5.57791 156.848 3.28438 154.208 -0.245262C151.695 -3.60364 148.845 -7.4088 150.502 -12.4129C150.652 -12.8596 151.14 -13.1054 151.59 -12.9564C152.04 -12.8075 152.288 -12.3235 152.138 -11.8767C150.758 -7.72155 153.218 -4.43765 155.588 -1.26543C158.064 2.03337 160.621 5.45132 157.689 9.28627C156.158 11.2819 153.968 12.1457 151.598 12.2202C151.95 13.2702 152.153 14.3276 152.153 15.3701C152.153 18.2444 150.622 22.0124 143.324 23.658C137.278 25.0207 133.07 27.4632 131.465 30.546C130.49 32.4151 130.482 34.5225 131.435 36.816C131.615 37.2554 131.405 37.7543 130.97 37.933C130.865 37.9777 130.752 38 130.64 38V37.9926ZM141.456 3.96202C141.111 3.96202 141.036 4.11839 141.006 4.19286C140.541 5.15346 141.981 6.96296 144.344 8.39269C145.537 9.115 147.089 9.79263 148.71 10.165C146.774 7.02253 143.661 4.41625 141.869 4.01414C141.704 3.97691 141.569 3.96202 141.464 3.96202H141.456Z" fill="#FFC854"/>
<path d="M74.4145 152.188L48.4799 147.362L54.673 142.688L27.9275 130.996L64.4776 140.532L57.1286 144.352L74.4145 152.188Z" fill="white"/>
<g clip-path="url(#clip5_2669_11791)">
<path d="M281.248 37.0081C281.044 36.1211 282.163 31.3779 282.006 31.2881C281.828 31.1912 278.777 34.8597 277.969 35.1856C276.938 35.5952 272.932 34.1482 273.089 34.6829C273.249 35.2222 276.485 37.7747 276.352 38.4164C276.116 39.5214 275.285 43.7374 275.602 44.1376C276.111 44.2168 278.919 41.0699 279.647 40.2413C280.073 39.7592 283.899 41.134 284.409 40.9596C284.919 40.7935 281.519 38.1254 281.257 37.0011L281.248 37.0081Z" fill="white"/>
</g>
<g clip-path="url(#clip6_2669_11791)">
<path d="M342.501 49.7535C340.94 50.7768 339.161 51.1565 336.946 50.1558C334.751 49.1592 333.485 47.3058 332.91 45.128C332.008 45.6762 331.062 46.0912 330.089 46.31C327.407 46.923 323.564 46.2974 320.48 39.8762C317.92 34.5551 314.741 31.1611 311.529 30.3274C309.578 29.8203 307.597 30.2555 305.664 31.6339C305.29 31.8958 304.782 31.8099 304.52 31.4352C304.261 31.0664 304.341 30.5523 304.711 30.2843C307.071 28.6347 309.493 28.1065 311.934 28.737C315.625 29.7018 319.184 33.4023 321.956 39.165C324.056 43.5393 326.675 45.4032 329.72 44.7065C330.714 44.4819 331.684 43.9997 332.596 43.3507C332.396 41.2773 332.713 39.0444 333.372 37.0483C334.548 33.5261 336.556 31.5346 338.493 31.9822C338.981 32.0897 340.124 32.5458 340.128 34.346C340.139 36.9622 337.722 41.3581 334.378 44.08C334.735 46.0419 335.699 47.7856 337.611 48.6608C340.545 49.9929 342.363 48.1006 345.089 44.9037C347.692 41.8561 350.631 38.3997 355.658 38.8817C356.113 38.9255 356.442 39.3247 356.4 39.7797C356.357 40.2348 355.96 40.5639 355.505 40.5201C351.332 40.1192 348.795 43.0981 346.337 45.9747C345.127 47.3914 343.895 48.8395 342.489 49.7613L342.501 49.7535ZM337.271 33.8087C336.443 34.3516 335.55 35.7574 334.937 37.5776C334.512 38.8392 334.217 40.4168 334.209 42.003C336.733 39.537 338.499 36.0975 338.494 34.3488C338.491 33.6675 338.25 33.6118 338.147 33.5851C337.876 33.5232 337.581 33.6056 337.271 33.8087Z" fill="white"/>
</g>
</g>
<defs>
<filter id="filter0_f_2669_11791" x="79" y="-5" width="182" height="182" filterUnits="userSpaceOnUse" color-interpolation-filters="sRGB">
<feFlood flood-opacity="0" result="BackgroundImageFix"/>
<feBlend mode="normal" in="SourceGraphic" in2="BackgroundImageFix" result="shape"/>
<feGaussianBlur stdDeviation="15" result="effect1_foregroundBlur_2669_11791"/>
</filter>
<clipPath id="clip0_2669_11791">
<rect width="340" height="168" fill="white"/>
</clipPath>
<clipPath id="clip1_2669_11791">
<rect width="60.4147" height="118.277" fill="white" transform="translate(96.3438 39.832) rotate(125.588)"/>
</clipPath>
<clipPath id="clip2_2669_11791">
<rect width="139" height="110" fill="white" transform="translate(216 60)"/>
</clipPath>
<clipPath id="clip3_2669_11791">
<rect width="53.5995" height="85.0786" fill="white" transform="translate(69 134.373) rotate(-45.7178)"/>
</clipPath>
<clipPath id="clip4_2669_11791">
<rect width="179.23" height="73.23" fill="white" transform="translate(80 47)"/>
</clipPath>
<clipPath id="clip5_2669_11791">
<rect width="12" height="13" fill="white" transform="translate(280.196 29) rotate(51.6575)"/>
</clipPath>
<clipPath id="clip6_2669_11791">
<rect width="39" height="37" fill="white" transform="translate(304.049 30.7178) rotate(-33.2447)"/>
</clipPath>
</defs>
</svg>
