<svg width="340" height="168" viewBox="0 0 340 168" fill="none" xmlns="http://www.w3.org/2000/svg">
<g clip-path="url(#clip0_2669_11174)">
<rect width="340" height="168" fill="#4E13AF"/>
<g filter="url(#filter0_f_2669_11174)">
<circle cx="170" cy="86" r="61" fill="#8448E4"/>
</g>
<circle cx="56" cy="93" r="114" fill="#B98EFD"/>
<path d="M398 93C398 155.96 346.96 207 284 207C221.04 207 170 155.96 170 93C170 30.0395 221.04 -21 284 -21C346.96 -21 398 30.0395 398 93Z" fill="#B98EFD"/>
<path d="M51.0335 33.6993L51.6196 35.1412C51.6311 35.219 51.6316 35.2984 51.6529 35.3723C51.9356 36.3303 52.0592 37.3087 52.0794 38.3027C52.1267 40.6621 51.6309 42.9211 50.8805 45.1214C49.1775 50.1112 46.5548 54.5848 43.5048 58.8164C43.2293 59.1966 42.8517 59.3324 42.3943 59.2295C40.2017 58.7414 37.9936 58.3214 35.8233 57.7388C32.3909 56.8203 29.0771 55.5617 25.9949 53.7227C24.2348 52.6727 22.6187 51.4373 21.3385 49.8001C20.9117 49.2544 20.5589 48.6491 20.1741 48.0716L19.5622 46.5666C19.545 46.4674 19.5328 46.3663 19.5057 46.2712C18.9153 44.2652 18.8631 42.2555 19.4383 40.2561C20.1547 37.766 21.5876 35.8247 23.8969 34.6619C26.6687 33.2669 29.4563 33.4513 32.199 34.9095C32.6482 35.1484 33.0683 35.4434 33.4743 35.6969C33.6856 34.9743 33.8344 34.2329 34.1164 33.5494C35.5423 30.0929 38.0781 28.0747 41.8181 27.9043C45.1356 27.7524 47.7863 29.2539 49.8473 31.8677C50.2953 32.4372 50.6413 33.0895 51.0345 33.7019L51.0335 33.6993Z" fill="#FF005A"/>
<path d="M123.302 48.9933C142.63 48.9933 158.299 33.3248 158.299 13.9967C158.299 -5.33146 142.63 -21 123.302 -21C103.974 -21 88.3054 -5.33146 88.3054 13.9967C88.3054 33.3248 103.974 48.9933 123.302 48.9933Z" fill="#FF7A00"/>
<path d="M156.775 3.75936C156.553 3.02927 156.299 2.29918 156.029 1.58496C155.124 4.36247 152.474 6.34641 148.839 9.01282C145.744 11.2824 141.903 14.1076 138.063 18.3135C128.809 28.4554 127.032 38.1529 129.492 48.4376C130.016 48.3424 130.539 48.2313 131.047 48.1202C128.698 38.2799 130.397 29.0109 139.205 19.3769C142.951 15.2821 146.728 12.5046 149.76 10.2825C152.839 8.02879 155.394 6.14008 156.775 3.75936V3.75936Z" fill="white"/>
<path d="M101.415 41.3115C102.002 31.8045 104.542 22.2974 108.51 15.6314C110.827 16.5202 113.398 17.1074 116.223 17.2979C123.508 17.7582 128.682 15.6949 130.047 11.7905C130.889 9.37803 129.968 6.69574 127.73 5.12446C124.794 3.06117 119.302 2.75961 112.716 8.10831C110.938 9.55261 109.303 11.4572 107.843 13.6951C102.621 11.3778 98.1933 7.15602 94.5746 1.06136C93.8128 -0.224232 93.1461 -1.52569 92.5589 -2.76367C92.2573 -2.20817 91.9717 -1.65267 91.7018 -1.08129C94.6857 4.83878 99.5106 11.5366 107.034 14.9965C103.129 21.615 100.59 30.7252 99.8757 39.9783C100.384 40.4227 100.891 40.8671 101.415 41.2797V41.3115ZM113.7 9.33041C119.604 4.52135 124.35 4.66419 126.825 6.41006C128.508 7.58455 129.19 9.505 128.571 11.2826C127.698 13.7586 124.032 16.2345 116.303 15.7584C113.858 15.5997 111.525 15.1235 109.335 14.3299C110.652 12.3301 112.113 10.6477 113.7 9.34629V9.33041Z" fill="white"/>
<path d="M158.695 11.3301C158.521 11.1714 158.33 11.0126 158.156 10.8539C158.219 11.5999 158.267 12.3458 158.283 13.1077C166.298 20.8371 169.615 28.0269 167.345 32.9153C165.282 37.3752 158.807 39.5337 149.125 39.01C139.205 38.4703 127.206 35.1373 115.35 29.6299C103.478 24.1225 93.1938 17.1073 86.369 9.88576C79.7189 2.83882 77.1953 -3.49391 79.2586 -7.9538C81.1156 -11.9534 86.7499 -14.1278 94.8285 -14.1278C97.0029 -14.1278 99.3519 -13.9691 101.844 -13.6517C102.431 -14.1119 103.034 -14.5405 103.653 -14.969C103.209 -15.0325 102.764 -15.1118 102.32 -15.1753C89.4957 -16.8577 80.56 -14.477 77.846 -8.62041C75.4812 -3.54153 78.1158 3.41019 85.2263 10.9492C92.178 18.3135 102.637 25.4557 114.684 31.0266C126.73 36.6134 138.92 39.994 149.03 40.5495C149.998 40.5971 150.934 40.6289 151.839 40.6289C160.648 40.6289 166.599 38.1529 168.742 33.5502C171.377 27.8682 167.71 19.7737 158.68 11.3142L158.695 11.3301Z" fill="#FFD77F"/>
<path d="M51.5 203C81.5995 203 106 178.6 106 148.5C106 118.4 81.5995 94 51.5 94C21.4005 94 -3 118.4 -3 148.5C-3 178.6 21.4005 203 51.5 203Z" fill="#140958"/>
<path d="M71.5334 151.761C73.3392 140.697 65.8342 130.264 54.7706 128.459C43.7069 126.653 33.2742 134.158 31.4684 145.221C29.6626 156.285 37.1676 166.718 48.2312 168.524C59.2948 170.329 69.7276 162.824 71.5334 151.761Z" fill="white"/>
<path d="M51.4999 172.847C38.0763 172.847 27.1533 161.924 27.1533 148.5C27.1533 135.076 38.0763 124.153 51.4999 124.153C64.9235 124.153 75.8465 135.076 75.8465 148.5C75.8465 161.924 64.9235 172.847 51.4999 172.847ZM51.4999 124.404C38.2124 124.404 27.4149 135.212 27.4149 148.489C27.4149 161.767 38.2228 172.575 51.4999 172.575C64.777 172.575 75.585 161.767 75.585 148.489C75.585 135.212 64.777 124.404 51.4999 124.404V124.404Z" fill="#F7E7D8"/>
<path d="M59.1048 155.742C63.2071 151.64 63.207 144.989 59.1048 140.887C55.0025 136.784 48.3514 136.784 44.2492 140.887C40.1469 144.989 40.1469 151.64 44.2492 155.742C48.3514 159.845 55.0025 159.845 59.1048 155.742Z" fill="#140958"/>
<path d="M56.658 148.311C56.658 151.063 54.4295 153.292 51.6778 153.292C48.9261 153.292 46.6976 151.063 46.6976 148.311C46.6976 145.56 48.9261 143.331 51.6778 143.331C54.4295 143.331 56.658 145.56 56.658 148.311Z" fill="#FF005A"/>
<path d="M460.44 140H478.61L307.83 -30H289.66L460.44 140Z" fill="#3A1575"/>
<path d="M442.26 140H460.42L289.64 -30H271.48L442.26 140Z" fill="#8347E2"/>
<path d="M424.1 140H442.27L271.49 -30H253.33L424.1 140Z" fill="#3A1575"/>
<path d="M387.78 140H405.94L235.16 -30H217L387.78 140Z" fill="#4E13AF"/>
<path d="M405.94 140H424.11L253.33 -30H235.16L405.94 140Z" fill="#8347E2"/>
<path d="M150.44 268H168.61L-2.16989 98H-20.3399L150.44 268Z" fill="#3A1575"/>
<path d="M132.26 268H150.42L-20.36 98H-38.52L132.26 268Z" fill="#8347E2"/>
<path d="M114.1 268H132.27L-38.51 98H-56.67L114.1 268Z" fill="#3A1575"/>
<path d="M77.7801 268H95.9401L-74.84 98H-92.9999L77.7801 268Z" fill="#4E13AF"/>
<path d="M95.9401 268H114.11L-56.6699 98H-74.8399L95.9401 268Z" fill="#8347E2"/>
<path d="M265.352 136.151C269.714 138.481 299.534 156.593 299.534 156.593L319.068 122.039L304.984 112.717C304.984 112.717 281.646 95.5291 279.571 96.5631C277.496 97.5972 274.423 100.136 275.452 102.01C276.479 103.865 292.617 118.091 292.954 118.393L292.929 118.387C292.607 118.333 289.859 117.907 288.958 118.973C287.998 120.106 284.946 124.337 287.182 127.255C287.182 127.255 282.548 130.404 285.415 135.539C279.286 133.187 273.061 130.735 266.668 129.176C264.565 128.664 262.621 129.383 262.229 131.703C261.88 133.787 263.715 135.281 265.352 136.151V136.151Z" fill="#FAB6CA"/>
<path d="M325.161 100.668L291.97 169.233C291.97 169.233 286.337 169.229 281.134 164.323L307.617 94.5996L325.157 100.671L325.161 100.668Z" fill="#030912"/>
<path d="M316.085 111.517C305.618 110.581 297.986 101.346 299.039 90.8907C300.091 80.4351 309.43 72.7177 319.896 73.6534C330.363 74.5891 337.995 83.8236 336.942 94.2792C335.89 104.735 326.552 112.452 316.085 111.517Z" fill="#030912"/>
<path d="M318.221 112.398C318.245 112.378 318.263 112.35 318.267 112.314C318.274 112.241 318.225 112.181 318.152 112.175C309.573 111.22 303.402 104.758 303.343 104.694C303.297 104.639 303.201 104.637 303.163 104.689C303.107 104.735 303.109 104.82 303.156 104.868C303.219 104.937 309.453 111.467 318.126 112.43C318.163 112.433 318.201 112.421 318.225 112.402L318.221 112.398Z" fill="#FAB6CA"/>
<path d="M298.609 131.811C298.522 131.542 298.506 131.261 298.555 130.994C298.572 130.9 298.6 130.803 298.631 130.711C298.656 130.65 298.68 130.59 298.712 130.53L301.245 125.566L301.382 125.307L302.5 123.114L302.546 123.023L302.628 122.861L304.341 119.51C304.758 118.684 305.77 118.349 306.59 118.76C306.989 118.957 307.285 119.299 307.419 119.723C307.557 120.143 307.522 120.599 307.317 120.996L305.297 124.955L305.232 125.089L305.228 125.092L305.145 125.254L305.141 125.257L304.01 127.474L303.474 128.524L301.783 131.844L301.691 132.02C301.664 132.069 301.637 132.118 301.603 132.166C301.511 132.316 301.391 132.449 301.259 132.558C301.102 132.687 300.919 132.792 300.713 132.862C300.614 132.897 300.516 132.918 300.412 132.93L300.397 132.929C300.073 132.977 299.744 132.922 299.439 132.774C299.428 132.769 299.417 132.764 299.411 132.757C299.03 132.557 298.744 132.219 298.609 131.811ZM301.095 132.36C301.163 132.303 301.228 132.243 301.282 132.178C301.349 132.096 301.41 132.006 301.456 131.907L301.464 131.901L303.72 127.466L303.724 127.463L303.999 126.922L304.983 125.001L305.061 124.85L305.116 124.737L307.086 120.88C307.26 120.542 307.29 120.163 307.176 119.804C307.057 119.448 306.811 119.158 306.471 118.992C305.96 118.733 305.351 118.822 304.93 119.17C304.786 119.289 304.664 119.443 304.568 119.622L302.846 122.995L302.768 123.153L302.714 123.251L301.641 125.359L301.508 125.623L298.943 130.647C298.915 130.71 298.886 130.774 298.865 130.838C298.83 130.934 298.809 131.031 298.798 131.133C298.775 131.333 298.795 131.53 298.856 131.726C298.975 132.082 299.222 132.372 299.558 132.542C300.072 132.797 300.677 132.704 301.095 132.36Z" fill="#FAB6CA"/>
<path d="M294.294 164.408C294.33 164.379 294.349 164.336 294.343 164.288C294.332 164.217 294.267 164.171 294.196 164.183C288.965 165.074 284.395 160.754 283.118 159.413C283.072 159.357 282.984 159.357 282.934 159.411C282.878 159.457 282.881 159.542 282.931 159.594C286.395 163.247 290.625 165.058 294.236 164.444C294.258 164.438 294.277 164.429 294.298 164.412L294.294 164.408Z" fill="#FAB6CA"/>
<path d="M298.928 155.787L299.61 156.465L308.371 165.212L313.416 170.255L314.753 171.586L316.671 173.499L320.738 177.562L347.647 155.322L347.406 154.867L342.174 150.113L337.275 145.664L336.029 144.531L334.075 142.755L328.054 137.283C328.054 137.283 326.259 114.053 324.531 112.584C324.169 112.276 323.213 111.764 321.914 111.149C321.458 110.932 320.955 110.707 320.423 110.472C319.159 109.914 317.712 109.315 316.236 108.746C316.147 108.712 316.055 108.674 315.967 108.641C312.582 107.346 309.099 106.219 307.323 106.072C307.209 106.065 307.107 106.056 307.008 106.051C306.611 106.052 306.333 106.115 306.201 106.258C306.06 106.414 305.913 106.596 305.774 106.804C305.723 106.873 305.675 106.946 305.627 107.026C305.605 107.057 305.584 107.088 305.566 107.123C304.662 108.611 303.991 111.001 305.288 112.913C305.48 113.202 305.724 113.481 306.014 113.742C308.681 116.137 313.408 119.561 313.408 119.561C313.408 119.561 308.289 128.617 308.079 135.967C308.069 136.062 308.071 136.154 308.069 136.249L298.932 155.783L298.928 155.787Z" fill="#FAB6CA"/>
<path d="M315.33 109.814C315.855 109.38 316.265 108.822 316.479 108.191C316.505 108.116 316.465 108.035 316.391 108.01C316.316 107.985 316.235 108.025 316.209 108.1C315.778 109.344 314.485 110.319 313.058 110.471C311.753 110.608 310.326 110.098 309.238 109.108C308.295 108.245 307.566 107.012 307.127 105.525C307.106 105.45 307.029 105.406 306.949 105.432C306.873 105.455 306.829 105.532 306.854 105.611C307.307 107.139 308.064 108.423 309.044 109.322C310.185 110.368 311.694 110.903 313.08 110.759C313.92 110.673 314.704 110.331 315.322 109.821L315.33 109.814Z" fill="#030912"/>
<path d="M285.415 135.539C288.058 137.7 296.324 140.922 299.285 140.438C302.243 139.949 302.411 133.168 302.411 133.168C304.301 133.054 305.644 127.172 305.316 125.313C304.984 123.458 292.962 118.394 292.962 118.394L292.933 118.384C292.611 118.33 289.863 117.904 288.962 118.969C288.002 120.103 284.95 124.334 287.186 127.252C287.186 127.252 282.552 130.401 285.419 135.536L285.415 135.539Z" fill="#FAB6CA"/>
<path d="M303.515 132.829C303.719 132.66 303.918 132.443 304.098 132.187C305.423 130.311 305.768 126.588 305.451 125.281C305.046 123.606 295.993 119.293 295.611 119.108C295.541 119.072 295.456 119.109 295.42 119.179C295.383 119.249 295.415 119.337 295.489 119.369C298.079 120.6 304.867 124.068 305.179 125.352C305.479 126.58 305.132 130.245 303.871 132.027C303.442 132.636 302.945 132.973 302.399 133.031C299.744 133.315 291.724 131.085 287.281 127.154C287.224 127.101 287.135 127.108 287.081 127.165C287.028 127.223 287.033 127.312 287.09 127.364C291.591 131.348 299.73 133.6 302.429 133.313C302.82 133.271 303.185 133.109 303.522 132.83L303.515 132.829Z" fill="#030912"/>
<path d="M300.463 140.385C302.184 138.963 302.535 133.433 302.553 133.177C302.557 133.1 302.498 133.029 302.417 133.029C302.34 133.026 302.268 133.086 302.268 133.166C302.264 133.236 301.846 139.877 299.847 140.407C297.69 140.975 288.622 138.489 285.315 135.1C285.262 135.044 285.181 135.044 285.113 135.101C285.056 135.154 285.058 135.246 285.111 135.302C288.478 138.748 297.716 141.267 299.922 140.686C300.118 140.637 300.302 140.532 300.47 140.393L300.463 140.385Z" fill="#030912"/>
<path d="M295.964 127.254C296.113 126.684 296.489 126.166 297.023 125.799C298.291 124.924 299.813 125.034 301.14 125.26C301.22 125.274 301.306 125.289 301.382 125.307C301.469 125.322 301.555 125.337 301.641 125.359C302.127 125.465 302.598 125.61 303.055 125.787C303.557 125.986 303.903 126.421 303.999 126.922C304.04 127.102 304.044 127.286 304.01 127.474L304.006 127.518C303.748 128.799 303.349 130.056 302.832 131.252C302.727 131.485 302.576 131.677 302.391 131.829C302.167 132.015 301.893 132.134 301.603 132.167C301.498 132.187 301.392 132.188 301.282 132.178C301.158 132.167 301.025 132.137 300.901 132.093C300.174 131.826 299.481 131.51 298.799 131.133C298.722 131.09 298.638 131.046 298.555 130.994C298.27 130.829 297.987 130.649 297.704 130.463C296.764 129.831 295.554 128.808 295.964 127.254V127.254ZM297.868 130.227C298.123 130.397 298.375 130.556 298.632 130.711C298.708 130.754 298.785 130.798 298.865 130.838C299.554 131.23 300.256 131.558 300.998 131.826C301.15 131.88 301.306 131.905 301.461 131.897C301.571 131.899 301.676 131.879 301.783 131.845C302.121 131.739 302.418 131.494 302.567 131.143L302.571 131.14C302.939 130.295 303.241 129.418 303.474 128.524C303.571 128.177 303.651 127.824 303.72 127.467L303.724 127.463C303.843 126.871 303.516 126.28 302.947 126.057C302.491 125.873 302.005 125.726 301.508 125.623C301.422 125.601 301.332 125.582 301.245 125.567C301.191 125.558 301.141 125.546 301.087 125.538C299.82 125.329 298.364 125.217 297.187 126.03C297.123 126.076 297.06 126.122 297.004 126.168C296.623 126.483 296.358 126.889 296.24 127.327C295.877 128.701 296.996 129.639 297.868 130.227V130.227Z" fill="#030912"/>
<path d="M293.144 135.212C293.294 134.642 293.673 134.121 294.207 133.753C295.471 132.882 296.993 132.992 298.317 133.214C298.983 133.325 299.63 133.504 300.235 133.745C300.932 134.017 301.329 134.743 301.182 135.472C300.929 136.749 300.53 138.007 300.009 139.206C299.908 139.435 299.756 139.635 299.575 139.784C299.166 140.122 298.603 140.241 298.078 140.047C296.957 139.638 295.915 139.104 294.888 138.417C293.945 137.782 292.738 136.763 293.144 135.212V135.212ZM295.048 138.178C296.054 138.856 297.082 139.381 298.182 139.781C298.792 140.004 299.484 139.706 299.748 139.094C300.264 137.913 300.653 136.677 300.904 135.421C301.023 134.829 300.697 134.231 300.127 134.007C299.54 133.778 298.914 133.601 298.267 133.496C297.001 133.28 295.545 133.175 294.367 133.988C293.893 134.313 293.552 134.775 293.417 135.281C293.057 136.659 294.176 137.597 295.048 138.178V138.178Z" fill="#030912"/>
<path d="M336.772 140.391L306.673 166.694L314.475 175.514L343.989 148.445L336.772 140.391Z" fill="#030912"/>
<path d="M336.731 147.381C336.033 147.958 335.005 147.866 334.435 147.176C333.864 146.486 333.968 145.459 334.665 144.883C335.363 144.306 336.391 144.398 336.961 145.088C337.532 145.778 337.428 146.805 336.731 147.381Z" fill="#FFFEFF"/>
<path d="M332.527 155.568C333.097 156.258 334.125 156.35 334.823 155.774C335.521 155.197 335.624 154.17 335.054 153.48C334.484 152.79 333.456 152.698 332.758 153.275C332.06 153.851 331.957 154.878 332.527 155.568Z" fill="#FFFEFF"/>
<path d="M325.457 154.936C326.027 155.627 327.055 155.718 327.753 155.142C328.451 154.565 328.554 153.538 327.984 152.848C327.413 152.158 326.385 152.066 325.687 152.643C324.99 153.22 324.886 154.246 325.457 154.936Z" fill="#FFFEFF"/>
<path d="M323.28 161.843C323.189 162.738 323.842 163.528 324.738 163.608C325.635 163.688 326.433 163.028 326.523 162.133C326.613 161.237 325.961 160.448 325.064 160.367C324.168 160.287 323.37 160.947 323.28 161.843Z" fill="#FFFEFF"/>
<path d="M315.369 162.072C315.278 162.968 315.931 163.757 316.827 163.837C317.724 163.917 318.522 163.258 318.612 162.362C318.702 161.466 318.05 160.677 317.153 160.597C316.257 160.517 315.459 161.176 315.369 162.072Z" fill="#FFFEFF"/>
<path d="M313.399 169.834C313.309 170.73 313.962 171.519 314.858 171.599C315.755 171.68 316.553 171.02 316.643 170.124C316.733 169.229 316.081 168.439 315.184 168.359C314.288 168.279 313.49 168.939 313.399 169.834Z" fill="#FFFEFF"/>
<path d="M307.404 167.472L309.6 169.917L306.337 170.143L307.404 167.472Z" fill="#FFFEFF"/>
<path d="M337.654 141.278L339.785 143.783L340.448 140.584L337.654 141.278Z" fill="#FFFEFF"/>
<path d="M272.207 152.111L227.214 153.82L235.77 143.712L186.848 134.294L251.283 136.439L240.483 145.56L272.207 152.111Z" fill="white"/>
<path d="M266.338 56.963L243.354 44.015L250.726 41.5937L229.194 21.8856L260.701 42.7218L252.512 43.9619L266.338 56.963Z" fill="white"/>
<path d="M130.723 137.006C128.857 137.006 127.161 136.348 125.857 134.297C124.568 132.26 124.525 130.016 125.237 127.879C124.183 127.843 123.164 127.672 122.231 127.321C119.652 126.364 116.78 123.734 117.721 116.672C118.497 110.819 117.7 106.238 115.47 103.779C114.116 102.286 112.221 101.564 109.848 101.657C109.392 101.671 109.015 101.321 109 100.863C108.986 100.413 109.335 100.027 109.791 100.006C112.67 99.9199 114.985 100.806 116.681 102.672C119.238 105.502 120.186 110.547 119.345 116.887C118.704 121.697 119.873 124.691 122.801 125.778C123.755 126.135 124.831 126.264 125.95 126.221C126.919 124.377 128.408 122.683 130.054 121.375C132.968 119.074 135.739 118.509 137.114 119.946C137.463 120.303 138.168 121.311 137.185 122.819C135.76 125.013 131.329 127.364 127.04 127.807C126.263 129.644 126.114 131.631 127.232 133.411C128.956 136.134 131.514 135.548 135.547 134.368C139.394 133.246 143.747 131.967 147.687 135.126C148.043 135.412 148.1 135.926 147.815 136.284C147.53 136.641 147.017 136.698 146.661 136.412C143.391 133.79 139.636 134.89 136.003 135.948C134.214 136.47 132.39 137.006 130.709 137.006H130.723ZM135.091 120.803C134.1 120.803 132.583 121.49 131.072 122.676C130.025 123.498 128.914 124.656 128.037 125.978C131.5 125.299 134.863 123.391 135.817 121.926C136.188 121.354 136.017 121.175 135.946 121.096C135.753 120.896 135.461 120.803 135.091 120.803Z" fill="white"/>
<path d="M71.2449 41.0106C71.0406 40.1236 72.1604 35.3803 72.003 35.2906C71.8255 35.1937 68.7745 38.8621 67.9657 39.188C66.9349 39.5977 62.9294 38.1506 63.0856 38.6853C63.2456 39.2247 66.4824 41.7772 66.3486 42.4188C66.1127 43.5238 65.2821 47.7398 65.5986 48.14C66.1081 48.2193 68.9158 45.0724 69.6441 44.2438C70.0698 43.7616 73.8957 45.1364 74.4064 44.9621C74.9164 44.796 71.5161 42.1278 71.2538 41.0035L71.2449 41.0106Z" fill="white"/>
<path d="M-1.36044 47.9926C-1.69799 47.9926 -2.02054 47.7915 -2.15556 47.4639C-3.31073 44.6789 -3.28072 42.0875 -2.06554 39.7493C-0.220274 36.2122 4.4004 33.457 10.9489 31.9826C15.9146 30.8656 18.435 28.6391 18.435 25.3701C18.435 24.3052 18.1649 23.2031 17.7223 22.1234C15.547 21.8404 13.3417 20.999 11.4514 19.8597C8.12095 17.8416 6.55322 15.3322 7.45335 13.4557C7.67838 12.9865 8.41349 11.9291 10.2513 12.3461C12.9291 12.9493 16.8672 16.4343 18.8775 20.4777C20.9703 20.5671 22.9806 20.0011 24.3158 18.2512C26.3636 15.5779 24.8484 13.2844 22.208 9.75474C19.6951 6.39636 16.8447 2.5912 18.5025 -2.41285C18.6525 -2.85965 19.1401 -3.10538 19.5901 -2.95645C20.0402 -2.80752 20.2877 -2.3235 20.1377 -1.87671C18.7575 2.27845 21.2179 5.56235 23.5882 8.73457C26.0636 12.0334 28.6214 15.4513 25.6885 19.2863C24.1583 21.2819 21.968 22.1457 19.5976 22.2202C19.9502 23.2702 20.1527 24.3276 20.1527 25.3701C20.1527 28.2444 18.6225 32.0124 11.3239 33.658C5.27803 35.0207 1.06991 37.4632 -0.53532 40.546C-1.51046 42.4151 -1.51796 44.5225 -0.565324 46.816C-0.385298 47.2554 -0.595329 47.7543 -1.03039 47.933C-1.13541 47.9777 -1.24792 48 -1.36044 48V47.9926ZM9.45614 13.962C9.11109 13.962 9.03608 14.1184 9.00608 14.1929C8.54101 15.1535 9.98122 16.963 12.3441 18.3927C13.5367 19.115 15.0895 19.7926 16.7097 20.165C14.7744 17.0225 11.6615 14.4163 9.8687 14.0141C9.70368 13.9769 9.56866 13.962 9.46364 13.962H9.45614Z" fill="#FFC854"/>
<path d="M130.723 137.006C128.857 137.006 127.161 136.348 125.857 134.297C124.568 132.26 124.525 130.016 125.237 127.879C124.183 127.843 123.164 127.672 122.231 127.321C119.652 126.364 116.78 123.734 117.721 116.672C118.497 110.819 117.7 106.238 115.47 103.779C114.116 102.286 112.221 101.564 109.848 101.657C109.392 101.671 109.015 101.321 109 100.863C108.986 100.413 109.335 100.027 109.791 100.006C112.67 99.9199 114.985 100.806 116.681 102.672C119.238 105.502 120.186 110.547 119.345 116.887C118.704 121.697 119.873 124.691 122.801 125.778C123.755 126.135 124.831 126.264 125.95 126.221C126.919 124.377 128.408 122.683 130.054 121.375C132.968 119.074 135.739 118.509 137.114 119.946C137.463 120.303 138.168 121.311 137.185 122.819C135.76 125.013 131.329 127.364 127.04 127.807C126.263 129.644 126.114 131.631 127.232 133.411C128.956 136.134 131.514 135.548 135.547 134.368C139.394 133.246 143.747 131.967 147.687 135.126C148.043 135.412 148.1 135.926 147.815 136.284C147.53 136.641 147.017 136.698 146.661 136.412C143.391 133.79 139.636 134.89 136.003 135.948C134.214 136.47 132.39 137.006 130.709 137.006H130.723ZM135.091 120.803C134.1 120.803 132.583 121.49 131.072 122.676C130.025 123.498 128.914 124.656 128.037 125.978C131.5 125.299 134.863 123.391 135.817 121.926C136.188 121.354 136.017 121.175 135.946 121.096C135.753 120.896 135.461 120.803 135.091 120.803Z" fill="white"/>
<path d="M288.61 65.0801H52V107.83H288.61V65.0801Z" fill="#3FB36D"/>
<path d="M69.02 89.1302V97.2202H64V74.7202H72.47C77.04 74.7202 80.18 77.7302 80.18 81.9202C80.18 86.1102 77.04 89.1202 72.47 89.1202H69.01L69.02 89.1302ZM71.97 84.8102C73.87 84.8102 75.18 83.7002 75.18 81.9502C75.18 80.2002 73.88 79.0602 71.97 79.0602H69.05V84.8002H71.97V84.8102Z" fill="white"/>
<path d="M94.03 74.2402C100.35 74.2402 105.71 78.8402 105.71 85.9802C105.71 93.1202 100.35 97.6902 94.03 97.6902C87.71 97.6902 82.32 93.0902 82.32 85.9802C82.32 78.8702 87.68 74.2402 94.03 74.2402ZM94.03 92.7402C97.14 92.7402 100.5 90.6402 100.5 85.9502C100.5 81.2602 97.13 79.1302 94.03 79.1302C90.93 79.1302 87.52 81.2602 87.52 85.9502C87.52 90.6402 90.88 92.7402 94.03 92.7402Z" fill="white"/>
<path d="M114.47 89.1302V97.2202H109.45V74.7202H117.92C122.49 74.7202 125.63 77.7302 125.63 81.9202C125.63 86.1102 122.49 89.1202 117.92 89.1202H114.46L114.47 89.1302ZM117.42 84.8102C119.32 84.8102 120.63 83.7002 120.63 81.9502C120.63 80.2002 119.33 79.0602 117.42 79.0602H114.5V84.8002H117.42V84.8102Z" fill="white"/>
<path d="M135.73 86.0202C135.73 79.0102 141.06 74.2402 147.35 74.2402C154.11 74.2402 157.09 78.5902 157.82 81.8302L153.09 83.3202C152.74 81.7602 151.31 79.1302 147.34 79.1302C144.33 79.1302 140.93 81.2902 140.93 86.0202C140.93 90.2402 144.04 92.6802 147.4 92.6802C151.3 92.6802 152.86 90.0802 153.3 88.4602L158.09 89.8302C157.36 92.9402 154.38 97.7002 147.39 97.7002C140.92 97.7002 135.71 93.0302 135.71 86.0202H135.73Z" fill="white"/>
<path d="M161.22 89.1002V74.7202H166.23V88.6802C166.23 91.4102 167.75 92.7702 170.13 92.7702C172.51 92.7702 174.03 91.4002 174.03 88.6802V74.7202H179.04V89.1002C179.04 94.7502 175.07 97.7302 170.12 97.7302C165.17 97.7302 161.2 94.7502 161.2 89.1002H161.22Z" fill="white"/>
<path d="M183.91 97.2202V74.7202H188.92V92.4302H198.63V97.2202H183.9H183.91Z" fill="white"/>
<path d="M209.91 79.5102V97.2202H204.89V79.5102H197.97V74.7202H216.85V79.5102H209.9H209.91Z" fill="white"/>
<path d="M220.03 89.1002V74.7202H225.05V88.6802C225.05 91.4102 226.57 92.7702 228.95 92.7702C231.33 92.7702 232.85 91.4002 232.85 88.6802V74.7202H237.87V89.1002C237.87 94.7502 233.9 97.7302 228.95 97.7302C224 97.7302 220.03 94.7502 220.03 89.1002V89.1002Z" fill="white"/>
<path d="M249.51 88.8402H247.73V97.2202H242.72V74.7202H251.64C256.08 74.7202 258.94 77.7702 258.94 81.7602C258.94 84.8102 257.26 87.1202 254.5 88.1102L259.07 97.2202H253.55L249.52 88.8402H249.51ZM250.68 84.5202C252.74 84.5202 253.85 83.3802 253.85 81.7902C253.85 80.1102 252.74 79.0602 250.68 79.0602H247.73V84.5202H250.68V84.5202Z" fill="white"/>
<path d="M262.81 97.2202V74.7202H277.06V79.4502H267.82V83.7402H276.2V88.1502H267.82V92.4702H277.09V97.2302H262.81V97.2202Z" fill="white"/>
<path d="M93.98 95.1101C99.0113 95.1101 103.09 91.0315 103.09 86.0001C103.09 80.9688 99.0113 76.8901 93.98 76.8901C88.9487 76.8901 84.87 80.9688 84.87 86.0001C84.87 91.0315 88.9487 95.1101 93.98 95.1101Z" fill="white"/>
<path d="M94.21 77.9404L96.63 82.8404L102.04 83.6304L98.13 87.4404L99.05 92.8304L94.21 90.2904L89.38 92.8304L90.3 87.4404L86.39 83.6304L91.79 82.8404L94.21 77.9404Z" fill="#3FB36D"/>
</g>
<defs>
<filter id="filter0_f_2669_11174" x="79" y="-5" width="182" height="182" filterUnits="userSpaceOnUse" color-interpolation-filters="sRGB">
<feFlood flood-opacity="0" result="BackgroundImageFix"/>
<feBlend mode="normal" in="SourceGraphic" in2="BackgroundImageFix" result="shape"/>
<feGaussianBlur stdDeviation="15" result="effect1_foregroundBlur_2669_11174"/>
</filter>
<clipPath id="clip0_2669_11174">
<rect width="340" height="168" fill="white"/>
</clipPath>
</defs>
</svg>
