<svg width="237" height="43" viewBox="0 0 237 43" fill="none" xmlns="http://www.w3.org/2000/svg">
<path d="M236.61 0.0800781H0V42.8301H236.61V0.0800781Z" fill="#3FB26D"/>
<path d="M17.02 24.1307V32.2207H12V9.7207H20.47C25.04 9.7207 28.18 12.7307 28.18 16.9207C28.18 21.1107 25.04 24.1207 20.47 24.1207H17.01L17.02 24.1307ZM19.97 19.8107C21.87 19.8107 23.18 18.7007 23.18 16.9507C23.18 15.2007 21.88 14.0607 19.97 14.0607H17.05V19.8007H19.97V19.8107Z" fill="white"/>
<path d="M42.0298 9.24023C48.3498 9.24023 53.7098 13.8402 53.7098 20.9802C53.7098 28.1202 48.3498 32.6902 42.0298 32.6902C35.7098 32.6902 30.3198 28.0902 30.3198 20.9802C30.3198 13.8702 35.6798 9.24023 42.0298 9.24023ZM42.0298 27.7402C45.1398 27.7402 48.4998 25.6402 48.4998 20.9502C48.4998 16.2602 45.1298 14.1302 42.0298 14.1302C38.9298 14.1302 35.5198 16.2602 35.5198 20.9502C35.5198 25.6402 38.8798 27.7402 42.0298 27.7402Z" fill="white"/>
<path d="M62.4702 24.1307V32.2207H57.4502V9.7207H65.9202C70.4902 9.7207 73.6302 12.7307 73.6302 16.9207C73.6302 21.1107 70.4902 24.1207 65.9202 24.1207H62.4602L62.4702 24.1307ZM65.4202 19.8107C67.3202 19.8107 68.6302 18.7007 68.6302 16.9507C68.6302 15.2007 67.3302 14.0607 65.4202 14.0607H62.5002V19.8007H65.4202V19.8107Z" fill="white"/>
<path d="M83.73 21.0202C83.73 14.0102 89.06 9.24023 95.35 9.24023C102.11 9.24023 105.09 13.5902 105.82 16.8302L101.09 18.3202C100.74 16.7602 99.31 14.1302 95.34 14.1302C92.33 14.1302 88.93 16.2902 88.93 21.0202C88.93 25.2402 92.04 27.6802 95.4 27.6802C99.3 27.6802 100.86 25.0802 101.3 23.4602L106.09 24.8302C105.36 27.9402 102.38 32.7002 95.39 32.7002C88.92 32.7002 83.71 28.0302 83.71 21.0202H83.73Z" fill="white"/>
<path d="M109.22 24.1007V9.7207H114.23V23.6807C114.23 26.4107 115.75 27.7707 118.13 27.7707C120.51 27.7707 122.03 26.4007 122.03 23.6807V9.7207H127.04V24.1007C127.04 29.7507 123.07 32.7307 118.12 32.7307C113.17 32.7307 109.2 29.7507 109.2 24.1007H109.22Z" fill="white"/>
<path d="M131.91 32.2207V9.7207H136.92V27.4307H146.63V32.2207H131.9H131.91Z" fill="white"/>
<path d="M157.91 14.5107V32.2207H152.89V14.5107H145.97V9.7207H164.85V14.5107H157.9H157.91Z" fill="white"/>
<path d="M168.03 24.1007V9.7207H173.05V23.6807C173.05 26.4107 174.57 27.7707 176.95 27.7707C179.33 27.7707 180.85 26.4007 180.85 23.6807V9.7207H185.87V24.1007C185.87 29.7507 181.9 32.7307 176.95 32.7307C172 32.7307 168.03 29.7507 168.03 24.1007Z" fill="white"/>
<path d="M197.51 23.8407H195.73V32.2207H190.72V9.7207H199.64C204.08 9.7207 206.94 12.7707 206.94 16.7607C206.94 19.8107 205.26 22.1207 202.5 23.1107L207.07 32.2207H201.55L197.52 23.8407H197.51ZM198.68 19.5207C200.74 19.5207 201.85 18.3807 201.85 16.7907C201.85 15.1107 200.74 14.0607 198.68 14.0607H195.73V19.5207H198.68Z" fill="white"/>
<path d="M210.81 32.2207V9.7207H225.06V14.4507H215.82V18.7407H224.2V23.1507H215.82V27.4707H225.09V32.2307H210.81V32.2207Z" fill="white"/>
<path d="M41.9801 30.1106C47.0114 30.1106 51.0901 26.0319 51.0901 21.0006C51.0901 15.9693 47.0114 11.8906 41.9801 11.8906C36.9488 11.8906 32.8701 15.9693 32.8701 21.0006C32.8701 26.0319 36.9488 30.1106 41.9801 30.1106Z" fill="white"/>
<path d="M42.2101 12.9404L44.6301 17.8404L50.0401 18.6304L46.1301 22.4404L47.0501 27.8304L42.2101 25.2904L37.3801 27.8304L38.3001 22.4404L34.3901 18.6304L39.7901 17.8404L42.2101 12.9404Z" fill="#3FB26D"/>
</svg>
