<svg width="340" height="168" viewBox="0 0 340 168" fill="none" xmlns="http://www.w3.org/2000/svg">
<g clip-path="url(#clip0_2669_12344)">
<rect width="340" height="168" fill="#4E13AF"/>
<g filter="url(#filter0_f_2669_12344)">
<circle cx="170" cy="86" r="61" fill="#8448E4"/>
</g>
<path d="M442 160C442 222.96 390.96 274 328 274C265.04 274 214 222.96 214 160C214 97.0395 265.04 46 328 46C390.96 46 442 97.0395 442 160Z" fill="#B98EFD"/>
<path d="M126 16C126 78.9605 74.9605 130 12 130C-50.9605 130 -102 78.9605 -102 16C-102 -46.9605 -50.9605 -98 12 -98C74.9605 -98 126 -46.9605 126 16Z" fill="#B98EFD"/>
<path d="M284.726 173.451H305.082L113.757 -17H93.4011L284.726 173.451Z" fill="#3A1575"/>
<path d="M264.359 173.451H284.704L93.3787 -17H73.034L264.359 173.451Z" fill="#8347E2"/>
<path d="M244.014 173.451H264.37L73.0452 -17H52.7005L244.014 173.451Z" fill="#3A1575"/>
<path d="M203.325 173.451H223.67L32.3446 -17H12L203.325 173.451Z" fill="#4E13AF"/>
<path d="M223.67 173.451H244.026L52.7005 -17H32.3447L223.67 173.451Z" fill="#8347E2"/>
<g clip-path="url(#clip1_2669_12344)">
<path d="M104.949 98.0981C73.4401 98.0981 47.8975 123.586 47.8975 155.04C47.8975 186.494 73.4401 212 104.949 212C136.457 212 162 186.494 162 155.04C162 123.604 136.457 98.0981 104.949 98.0981Z" fill="#980C4F"/>
<path d="M102.431 96C71.269 96 46 121.269 46 152.431C46 183.593 71.269 208.862 102.431 208.862C133.593 208.862 158.862 183.593 158.862 152.431C158.844 121.269 133.593 96 102.431 96Z" fill="#EE167E"/>
<path d="M102.431 103.572C75.447 103.572 53.5898 125.447 53.5898 152.413C53.5898 179.397 75.4652 201.254 102.431 201.254C129.397 201.254 151.272 179.379 151.272 152.413C151.272 125.447 129.397 103.572 102.431 103.572Z" fill="white"/>
<path d="M102.431 111.088C79.5885 111.088 61.0884 129.607 61.0884 152.431C61.0884 175.255 79.6068 193.774 102.431 193.774C125.255 193.774 143.774 175.255 143.774 152.431C143.774 129.589 125.255 111.088 102.431 111.088Z" fill="#EE167E"/>
<path d="M102.431 119.134C84.0403 119.134 69.1343 134.04 69.1343 152.431C69.1343 170.822 84.0403 185.728 102.431 185.728C120.803 185.709 135.709 170.803 135.709 152.431C135.709 134.04 120.803 119.134 102.431 119.134Z" fill="white"/>
<path d="M102.431 127.18C88.492 127.18 77.1985 138.474 77.1985 152.413C77.1985 166.352 88.492 177.645 102.431 177.645C116.37 177.645 127.663 166.352 127.663 152.413C127.663 138.492 116.37 127.18 102.431 127.18Z" fill="#EE167E"/>
<path d="M102.431 135.555C93.1079 135.555 85.5546 143.108 85.5546 152.431C85.5546 161.754 93.1079 169.307 102.431 169.307C111.754 169.307 119.307 161.754 119.307 152.431C119.289 143.108 111.736 135.555 102.431 135.555Z" fill="white"/>
<path d="M102.431 143.601C97.5596 143.601 93.6188 147.541 93.6188 152.413C93.6188 157.284 97.5596 161.225 102.431 161.225C107.302 161.225 111.243 157.284 111.243 152.413C111.243 147.56 107.302 143.601 102.431 143.601Z" fill="#EE167E"/>
<path d="M129.634 128.239L109.382 141.868L111.334 144.458L130.546 129.607L141.657 122.255L140.416 120.594L129.634 128.239Z" fill="#A86F6F"/>
<path d="M103.672 146.155C101.938 147.614 102.504 148.818 102.504 148.818C103.252 149.366 104.073 149.421 105.277 148.581C106.481 147.76 111.334 144.458 111.334 144.458L109.382 141.867C109.382 141.867 105.405 144.695 103.672 146.155Z" fill="#DBFF00"/>
<path d="M140.891 113.679C138.847 113.552 133.374 118.222 131.294 122.108C129.214 125.995 129.67 128.439 129.67 128.439L143.135 116.671C143.117 116.653 142.934 113.807 140.891 113.679Z" fill="#91C71E"/>
<path d="M145.616 119.974L130.564 129.607C130.564 129.607 132.79 130.72 137.096 129.808C141.402 128.895 147.422 124.936 147.86 122.948C148.28 120.959 145.616 119.974 145.616 119.974Z" fill="#91C71E"/>
<path d="M143.044 118.624L130.546 129.607C130.546 129.607 137.37 127.928 141.219 125.137C145.069 122.364 146.766 120.922 146.109 119.682C145.47 118.459 143.044 118.624 143.044 118.624Z" fill="#DBFF00"/>
<path d="M136.932 119.426C133.192 122.345 129.67 128.439 129.67 128.439L143.701 119.499C143.701 119.499 144.54 117.219 143.536 116.252C142.533 115.266 140.672 116.507 136.932 119.426Z" fill="#DBFF00"/>
<path d="M137.205 144.002L113.524 149.877L114.454 152.96L137.589 145.589L150.561 142.469L149.958 140.48L137.205 144.002Z" fill="#A86F6F"/>
<path d="M106.682 151.956C104.566 152.741 104.675 154.055 104.675 154.055C105.186 154.821 105.934 155.149 107.357 154.784C108.78 154.419 114.454 152.978 114.454 152.978L113.505 149.876C113.524 149.876 108.798 151.172 106.682 151.956Z" fill="#DBFF00"/>
<path d="M152.75 134.15C150.871 133.329 144.138 135.846 140.854 138.784C137.57 141.721 137.169 144.166 137.169 144.166L153.845 137.707C153.845 137.707 154.629 134.971 152.75 134.15Z" fill="#91C71E"/>
<path d="M155.03 141.667L137.589 145.589C137.589 145.589 139.304 147.395 143.646 148.016C148.006 148.636 155.012 146.976 156.107 145.242C157.22 143.509 155.03 141.667 155.03 141.667Z" fill="#91C71E"/>
<path d="M153.097 139.532L137.607 145.589C137.607 145.589 144.594 146.337 149.174 145.042C153.735 143.746 155.815 142.98 155.633 141.593C155.432 140.207 153.097 139.532 153.097 139.532Z" fill="#DBFF00"/>
<path d="M147.076 138.182C142.569 139.641 137.169 144.166 137.169 144.166L153.407 140.572C153.407 140.572 154.976 138.711 154.355 137.452C153.753 136.211 151.582 136.722 147.076 138.182Z" fill="#DBFF00"/>
<path d="M108.269 154.584L107.558 157.74L131.331 162.703L144.157 166.352L144.595 164.327L131.787 161.116L108.269 154.584Z" fill="#A86F6F"/>
<path d="M98.5084 153.872C98.5813 154.803 99.0739 155.46 100.479 155.825C101.884 156.208 107.558 157.74 107.558 157.74L108.269 154.584C108.269 154.584 103.526 153.398 101.3 153.033C99.0557 152.668 98.5084 153.872 98.5084 153.872Z" fill="#DBFF00"/>
<path d="M137.516 158.379C133.21 159.328 131.659 161.261 131.659 161.261L149.356 163.834C149.356 163.834 151.4 161.827 150.159 160.203C148.937 158.561 141.821 157.43 137.516 158.379Z" fill="#91C71E"/>
<path d="M131.331 162.703C131.331 162.703 131.933 165.111 135.417 167.793C138.902 170.475 145.817 172.482 147.623 171.515C149.429 170.548 148.426 167.885 148.426 167.885L131.331 162.703Z" fill="#91C71E"/>
<path d="M131.331 162.703C131.331 162.703 137.059 166.79 141.657 167.903C146.273 169.016 148.462 169.381 148.973 168.085C149.484 166.79 147.787 165.057 147.787 165.057L131.331 162.703Z" fill="#DBFF00"/>
<path d="M143.226 160.915C138.574 159.966 131.659 161.243 131.659 161.243L147.568 166.097C147.568 166.097 149.849 165.239 149.94 163.852C150.013 162.484 147.879 161.864 143.226 160.915Z" fill="#DBFF00"/>
</g>
<g clip-path="url(#clip2_2669_12344)">
<path d="M241.74 63H98V105.75H241.74V63Z" fill="#6AB22C"/>
<path d="M120.92 80.4402C120.76 79.3902 119.9 77.6102 117.17 77.6102C115.3 77.6102 114.09 78.7802 114.09 80.0202C114.09 81.1002 114.76 81.8902 116.31 82.1802L119.32 82.7502C123.61 83.5402 125.83 86.3002 125.83 89.5102C125.83 93.0302 122.88 96.6202 117.51 96.6202C111.29 96.6202 108.62 92.5902 108.31 89.4202L112.91 88.3102C113.1 90.3702 114.5 92.1802 117.58 92.1802C119.55 92.1802 120.75 91.2302 120.75 89.8302C120.75 88.6902 119.83 87.8602 118.34 87.5802L115.27 87.0002C111.46 86.2702 109.15 83.7302 109.15 80.4002C109.15 76.1502 112.9 73.1602 117.21 73.1602C122.83 73.1602 124.95 76.5202 125.43 79.1602L120.92 80.4402Z" fill="white"/>
<path d="M134.44 88.0501V96.1401H129.43V73.6401H137.9C142.47 73.6401 145.61 76.6601 145.61 80.8501C145.61 85.1001 142.47 88.0601 137.9 88.0601H134.44V88.0501ZM137.39 83.7401C139.29 83.7401 140.6 82.6301 140.6 80.8801C140.6 79.0701 139.3 77.9901 137.39 77.9901H134.47V83.7401H137.39Z" fill="white"/>
<path d="M159.45 73.1699C165.77 73.1699 171.13 77.7699 171.13 84.9099C171.13 92.0199 165.77 96.6199 159.45 96.6199C153.1 96.6199 147.74 92.0199 147.74 84.9099C147.73 77.7699 153.1 73.1699 159.45 73.1699ZM159.45 91.6699C162.56 91.6699 165.92 89.5799 165.92 84.8799C165.92 80.1799 162.56 78.0599 159.45 78.0599C156.31 78.0599 152.94 80.1899 152.94 84.8799C152.94 89.5699 156.3 91.6699 159.45 91.6699Z" fill="white"/>
<path d="M181.66 87.7701H179.88V96.1501H174.87V73.6401H183.79C188.23 73.6401 191.09 76.6901 191.09 80.6901C191.09 83.7401 189.41 86.0501 186.65 87.0401L191.22 96.1501H185.7L181.66 87.7701ZM182.84 83.4501C184.9 83.4501 186.01 82.3101 186.01 80.7201C186.01 79.0401 184.9 77.9901 182.84 77.9901H179.89V83.4501H182.84Z" fill="white"/>
<path d="M205.05 78.4401V96.1501H200.04V78.4401H193.12V73.6401H212V78.4301H205.05V78.4401Z" fill="white"/>
<path d="M226.19 80.4402C226.03 79.3902 225.17 77.6102 222.44 77.6102C220.57 77.6102 219.36 78.7802 219.36 80.0202C219.36 81.1002 220.03 81.8902 221.58 82.1802L224.59 82.7502C228.88 83.5402 231.1 86.3002 231.1 89.5102C231.1 93.0302 228.15 96.6202 222.78 96.6202C216.56 96.6202 213.89 92.5902 213.58 89.4202L218.18 88.3102C218.37 90.3702 219.77 92.1802 222.85 92.1802C224.82 92.1802 226.02 91.2302 226.02 89.8302C226.02 88.6902 225.1 87.8602 223.61 87.5802L220.54 87.0002C216.73 86.2702 214.42 83.7302 214.42 80.4002C214.42 76.1502 218.17 73.1602 222.48 73.1602C228.1 73.1602 230.22 76.5202 230.7 79.1602L226.19 80.4402Z" fill="white"/>
<path d="M159.18 94.4803C164.211 94.4803 168.29 90.4016 168.29 85.3703C168.29 80.3389 164.211 76.2603 159.18 76.2603C154.149 76.2603 150.07 80.3389 150.07 85.3703C150.07 90.4016 154.149 94.4803 159.18 94.4803Z" fill="white"/>
<path d="M159.41 77.1304L161.83 82.0304L167.24 82.8204L163.33 86.6304L164.25 92.0204L159.41 89.4804L154.58 92.0204L155.5 86.6304L151.59 82.8204L157 82.0304L159.41 77.1304Z" fill="#6AB22C"/>
</g>
<g clip-path="url(#clip3_2669_12344)">
<path d="M54.3328 19.892C21.2031 27.6165 15.1949 54.2125 16.0841 58.0205C16.7931 61.0573 36.9088 82.3991 69.714 72.3127C100.729 62.7685 104.081 36.8835 102.772 33.3647C101.666 30.4123 87.4505 12.1674 54.3328 19.892Z" fill="#FF3700"/>
<path d="M54.3329 19.8919C23.5825 27.0621 16.1923 50.4888 16 56.8636C17.2257 54.574 20.1938 49.5247 25.0244 44.0175C28.8698 39.6431 33.1356 35.823 37.7019 32.6778C43.4098 28.7372 49.6104 25.845 56.1113 24.0735C62.6243 22.3021 69.2094 21.6875 75.6743 22.2659C80.8414 22.7239 85.9605 23.9289 90.8633 25.857C95.778 27.7852 99.4551 30.0266 101.702 31.5811C97.7367 26.1945 83.2447 13.1556 54.3329 19.8919Z" fill="#FF7A00"/>
<path d="M56.3877 25.0737C41.9077 29.0264 31.7657 37.9319 25.8175 44.7044C20.4461 50.8262 17.43 56.3333 16.5648 58.0445C19.3045 59.0809 26.5505 61.6718 35.4428 63.4794C45.8491 65.6004 60.7016 67.0826 72.3817 62.0695C84.0739 57.0443 91.7164 49.5006 96.0664 44.0536C100.224 38.8477 102.243 34.5336 102.664 33.5695C100.933 32.2439 96.6552 29.2312 90.4427 26.797C82.8842 23.8445 70.8556 21.1452 56.3877 25.0737Z" fill="#FF7A00"/>
<path d="M72.7903 63.0458C67.5151 65.3113 61.1944 66.4803 53.9844 66.5285C48.2405 66.5646 41.9318 65.8777 35.2145 64.516C26.7909 62.7927 19.8333 60.3946 16.733 59.2378C20.4822 64.6124 39.8409 81.5075 69.7141 72.3128C97.2561 63.8291 102.988 42.4752 103 35.3291C102.051 37.2211 100.104 40.6917 96.8836 44.7287C92.4615 50.26 84.6868 57.9363 72.7903 63.0458Z" fill="#FF7A00"/>
<path d="M39.901 45.0899C39.6847 44.5115 39.0478 44.2223 38.471 44.4392C37.8942 44.6561 37.6058 45.2948 37.8221 45.8732L39.937 51.4768C40.0452 51.754 40.2495 51.9709 40.5018 52.0914C40.7662 52.2119 41.0786 52.236 41.367 52.1276C41.9438 51.9107 42.2322 51.272 42.0159 50.6935L39.901 45.0899Z" fill="white"/>
<path d="M45.4887 42.7282C45.2604 42.1618 44.6115 41.8846 44.0467 42.1136C43.482 42.3426 43.2056 42.9933 43.4219 43.5597L45.657 49.1753C45.7651 49.4525 45.9694 49.6574 46.2097 49.7658C46.4741 49.8984 46.7985 49.9104 47.0989 49.7899C47.6637 49.561 47.9401 48.9102 47.7238 48.3438L45.4887 42.7282Z" fill="white"/>
<path d="M51.3888 40.6073C51.1485 40.0409 50.4996 39.7758 49.9348 40.0168C49.37 40.2578 49.1057 40.9086 49.346 41.4749L51.7013 47.1026C51.8094 47.3677 52.0137 47.5606 52.254 47.6811C52.5304 47.8136 52.8549 47.8257 53.1553 47.7052C53.72 47.4642 53.9844 46.8134 53.7441 46.247L51.3888 40.6073Z" fill="white"/>
<path d="M57.0487 39.0166C56.7963 38.4502 56.1474 38.1971 55.5826 38.4502C55.0179 38.7033 54.7655 39.354 55.0179 39.9204L57.4933 45.5601C57.6014 45.8132 57.8057 46.006 58.034 46.1145C58.3104 46.247 58.6469 46.2591 58.9593 46.1265C59.5241 45.8735 59.7764 45.2227 59.5241 44.6563L57.0487 39.0166Z" fill="white"/>
<path d="M63.1891 37.3897C62.9368 36.8353 62.2759 36.5823 61.7111 36.8474C61.1583 37.1005 60.918 37.7632 61.1703 38.3176L63.7659 43.9573C63.8861 44.2104 64.0663 44.3912 64.2946 44.4996C64.583 44.6322 64.9195 44.6442 65.2319 44.4996C65.7847 44.2465 66.025 43.5838 65.7727 43.0294L63.1891 37.3897Z" fill="white"/>
<path d="M69.0291 35.8955C68.7648 35.3411 68.1039 35.1122 67.5511 35.3773C66.9983 35.6424 66.77 36.3052 67.0344 36.8595L69.7501 42.5113C69.8703 42.7523 70.0505 42.9331 70.2789 43.0295C70.5673 43.1621 70.9157 43.1741 71.2282 43.0295C71.7809 42.7644 72.0092 42.1016 71.7449 41.5473L69.0291 35.8955Z" fill="white"/>
<path d="M74.8572 34.3888C74.5808 33.8345 73.9199 33.6176 73.3672 33.8947C72.8144 34.1719 72.5981 34.8347 72.8745 35.389L75.7104 41.0529C75.8306 41.2818 76.0108 41.4626 76.2271 41.559C76.5275 41.7036 76.888 41.7036 77.2005 41.547C77.7532 41.2698 77.9695 40.607 77.6931 40.0527L74.8572 34.3888Z" fill="white"/>
<path d="M81.238 33.3646C80.9496 32.8223 80.2887 32.6054 79.7359 32.8946C79.1952 33.1839 78.9789 33.8466 79.2673 34.401L82.2113 40.0769C82.3315 40.3058 82.5117 40.4625 82.716 40.571C83.0164 40.7156 83.3889 40.7156 83.7014 40.5589C84.2421 40.2697 84.4584 39.6069 84.17 39.0526L81.238 33.3646Z" fill="white"/>
<path opacity="0.4" d="M68.0558 61.7923C45.0561 68.8661 27.2115 63.2384 16.0241 56.4899C15.976 57.1527 16 57.6709 16.0842 58.0083C16.7931 61.0572 36.9089 82.399 69.7141 72.3126C97.4484 63.7686 103.06 42.1857 103 35.1963C97.4844 45.0899 87.03 55.9597 68.0558 61.7923Z" fill="#FF3700"/>
</g>
<g clip-path="url(#clip4_2669_12344)">
<path d="M292.017 143.067L262.271 133.387L258.362 145.397L256.794 144.887L255.964 147.436L288.848 158.137L289.678 155.588L288.109 155.078L292.017 143.067Z" fill="black"/>
<path d="M324.169 87.8086C323.065 86.4841 321.609 85.5352 319.846 84.9615C318.305 84.4601 316.804 84.3547 315.729 84.3571C316.039 83.263 316.24 82.4554 316.33 82.0862L317.357 82.4204L318.02 80.3841L278.14 67.4061L277.482 69.4286L278.509 69.7629C278.364 70.114 278.065 70.8901 277.672 71.957C276.804 71.3222 275.529 70.5242 273.988 70.0228C272.211 69.4446 270.471 69.3684 268.817 69.78C266.974 70.2528 265.53 71.5294 264.641 73.5073C262.881 77.4078 263.524 83.5458 266.255 88.7854C267.993 92.124 271.712 96.2144 274.417 98.6113C276.606 105.896 281.612 111.079 280.543 115.45C279.21 120.914 276.286 122.398 276.963 123.431C277.64 124.463 275.885 126.741 275.885 126.741C275.885 126.741 275.11 129.124 273.156 130.128C271.207 131.117 271.28 132.167 271.465 133.438C271.62 134.423 270.428 135.444 269.878 135.863L284.411 140.592C284.198 139.925 283.849 138.402 284.555 137.698C285.466 136.784 286.129 135.973 285.136 134.026C284.142 132.079 284.922 129.682 284.922 129.682C284.922 129.682 284.844 126.807 285.999 126.371C287.154 125.935 285.664 123.014 287.802 117.812C289.51 113.649 296.622 112.41 302.665 107.804C306.262 107.458 311.676 106.34 315.046 104.663C320.324 102.03 324.47 97.4507 325.342 93.2611C325.787 91.1387 325.371 89.2568 324.169 87.8086ZM268.999 87.3806C266.727 82.995 266.092 77.8246 267.466 74.7791C267.961 73.6838 268.671 73.011 269.574 72.784C270.661 72.5096 271.825 72.5665 273.032 72.9595C274.351 73.3887 275.446 74.128 276.096 74.6306C275.877 75.5859 275.757 76.757 275.684 78.0661C274.44 82.4562 273.309 87.91 273.44 92.8395C273.441 93.0238 273.461 93.1988 273.463 93.3831C271.773 91.5464 270.025 89.3691 268.999 87.3806ZM313.654 101.912C311.64 102.912 308.96 103.648 306.499 104.134C306.609 103.986 306.728 103.856 306.837 103.708C309.84 99.8132 312.136 94.7389 313.718 90.4433C314.429 89.342 315.021 88.3244 315.416 87.4418C316.237 87.418 317.558 87.4646 318.876 87.8938C320.084 88.2868 321.058 88.9255 321.776 89.7871C322.372 90.502 322.55 91.4639 322.305 92.6405C321.629 95.898 318.072 99.7042 313.654 101.912Z" fill="#FFE01A"/>
<path d="M282.996 143.288L269.435 138.875L266.955 146.494L280.517 150.907L282.996 143.288Z" fill="#CCCCCC"/>
<path d="M292.017 143.067L281.51 139.648L280.383 143.111L269.403 139.538L266.919 147.171L277.899 150.744L277.601 151.658L256.794 144.887L255.964 147.436L288.848 158.137L289.678 155.588L288.109 155.078L292.017 143.067Z" fill="#3A3A3A"/>
<path d="M282.996 143.288L269.435 138.875L266.955 146.494L280.517 150.907L282.996 143.288Z" fill="#CCCCCC"/>
<path d="M324.169 87.8084C323.065 86.484 321.609 85.5351 319.846 84.9614C318.305 84.46 316.804 84.3546 315.729 84.357C316.039 83.2629 316.24 82.4552 316.33 82.086L317.357 82.4203L318.02 80.3839L307.026 76.8063L306.368 78.8288L278.509 69.7627L305.527 80.5161C305.527 80.5161 301.821 91.9031 297.517 101.073C293.213 110.243 288.936 111.027 286.748 113.976C284.574 116.93 283.037 122.267 282.804 123.263C282.586 124.265 282.497 125.293 282.511 125.91C282.511 126.523 281.704 127.777 281.44 128.871C281.195 129.955 281.046 131.638 280.779 132.317C280.512 132.996 279.069 133.185 278.81 134.311C278.546 135.451 279.287 136.29 278.958 137.301C278.818 137.73 278.406 138.148 277.979 138.514L284.406 140.606C284.193 139.939 283.845 138.416 284.55 137.711C285.461 136.798 286.124 135.987 285.131 134.04C284.137 132.092 284.917 129.696 284.917 129.696C284.917 129.696 284.84 126.821 285.995 126.385C287.15 125.949 285.659 123.028 287.798 117.826C289.505 113.663 296.617 112.423 302.66 107.818C306.257 107.472 311.671 106.353 315.041 104.677C320.319 102.044 324.465 97.4644 325.338 93.2749C325.787 91.1385 325.371 89.2567 324.169 87.8084ZM313.654 101.912C311.64 102.912 308.96 103.648 306.499 104.134C306.609 103.986 306.728 103.856 306.837 103.708C309.839 99.8131 312.135 94.7387 313.717 90.4432C314.429 89.3419 315.021 88.3243 315.416 87.4416C316.237 87.4178 317.557 87.4645 318.876 87.8937C320.084 88.2867 321.058 88.9254 321.775 89.787C322.372 90.5019 322.55 91.4638 322.305 92.6403C321.629 95.8979 318.072 99.7041 313.654 101.912Z" fill="#FFC21A"/>
<path d="M271.802 71.4101C269.289 71.2054 266.514 72.1865 265.913 76.2038C265.544 78.6576 266.522 82.2084 268.055 85.281C266.572 81.4432 266.309 77.3439 267.466 74.7791C267.961 73.6838 268.671 73.011 269.574 72.784C270.661 72.5096 271.824 72.5666 273.032 72.9595C274.351 73.3887 275.446 74.128 276.096 74.6306L276.465 73.4947C276.451 73.4902 274.476 71.6369 271.802 71.4101Z" fill="#FFC21A"/>
<path d="M268.885 147.121L271.231 147.885L277.347 141.449L274.945 140.668L268.885 147.121Z" fill="#E0E0E0"/>
</g>
<g clip-path="url(#clip5_2669_12344)">
<path d="M264.933 45.143C264.111 44.753 261.086 40.9321 260.917 40.9999C260.731 41.079 261.716 45.7477 261.47 46.5843C261.152 47.6469 257.532 49.8908 258.048 50.0999C258.57 50.309 262.58 49.3538 263.001 49.8569C263.721 50.7273 266.512 53.9943 267.023 53.9943C267.401 53.6438 266.674 49.4895 266.476 48.4043C266.362 47.7712 269.814 45.6234 269.994 45.1147C270.18 44.6117 265.978 45.6234 264.933 45.1317V45.143Z" fill="white"/>
</g>
<g clip-path="url(#clip6_2669_12344)">
<path d="M201.109 23.925L194.952 33.6187L188.237 35.1173L194.384 25.4258L184.7 19.2672L191.415 17.7687L201.109 23.925ZM168.85 22.8045L178.544 28.9609L172.387 38.6546L179.112 37.1539L185.268 27.4602L175.565 21.306L168.85 22.8045ZM153 26.3418L162.694 32.4982L156.537 42.1919L163.262 40.6912L169.418 30.9975L159.725 24.8411L153 26.3418Z" fill="#FFC854"/>
</g>
<path d="M18.7233 119.006C16.8567 119.006 15.161 118.348 13.8572 116.297C12.5676 114.26 12.5249 112.016 13.2374 109.879C12.1829 109.843 11.1641 109.672 10.2308 109.321C7.65168 108.364 4.78047 105.734 5.72092 98.6725C6.4975 92.8191 5.69954 88.2379 3.46955 85.7793C2.11588 84.2856 0.220735 83.5637 -2.15175 83.6566C-2.60773 83.6709 -2.98533 83.3207 -2.99958 82.8633C-3.01383 82.4131 -2.66472 82.0271 -2.20875 82.0057C0.669584 81.9199 2.98508 82.8061 4.68073 84.6715C7.23846 87.5017 8.18603 92.5475 7.34532 98.8869C6.70411 103.697 7.87254 106.691 10.8008 107.778C11.7554 108.135 12.8313 108.264 13.9498 108.221C14.9188 106.377 16.4078 104.683 18.0536 103.375C20.9675 101.074 23.739 100.509 25.114 101.946C25.4632 102.303 26.1685 103.311 25.1853 104.819C23.7604 107.013 19.3289 109.364 15.0399 109.807C14.2633 111.644 14.1137 113.631 15.2322 115.411C16.9564 118.134 19.5141 117.548 23.5466 116.368C27.3939 115.246 31.747 113.967 35.6869 117.126C36.0432 117.412 36.1002 117.926 35.8152 118.284C35.5302 118.641 35.0172 118.698 34.661 118.412C31.3908 115.79 27.6362 116.89 24.0026 117.948C22.2143 118.47 20.3904 119.006 18.709 119.006H18.7233ZM23.0907 102.803C22.1003 102.803 20.5828 103.49 19.0724 104.676C18.0251 105.498 16.9136 106.656 16.0373 107.978C19.4999 107.299 22.8627 105.391 23.8174 103.926C24.1879 103.354 24.0169 103.175 23.9456 103.096C23.7533 102.896 23.4611 102.803 23.0907 102.803Z" fill="white"/>
<path d="M302.225 60.1754L294.539 34.9402L301.543 38.278L299.574 9.15494L307.98 45.9814L301.2 41.2243L302.225 60.1754Z" fill="white"/>
<g clip-path="url(#clip7_2669_12344)">
<path d="M329.248 65.0081C329.044 64.1211 330.163 59.3779 330.006 59.2881C329.828 59.1912 326.777 62.8597 325.969 63.1856C324.938 63.5952 320.932 62.1482 321.089 62.6829C321.249 63.2222 324.485 65.7747 324.352 66.4164C324.116 67.5214 323.285 71.7374 323.602 72.1376C324.111 72.2168 326.919 69.0699 327.647 68.2413C328.073 67.7592 331.899 69.134 332.409 68.9596C332.919 68.7935 329.519 66.1254 329.257 65.0011L329.248 65.0081Z" fill="white"/>
</g>
</g>
<defs>
<filter id="filter0_f_2669_12344" x="79" y="-5" width="182" height="182" filterUnits="userSpaceOnUse" color-interpolation-filters="sRGB">
<feFlood flood-opacity="0" result="BackgroundImageFix"/>
<feBlend mode="normal" in="SourceGraphic" in2="BackgroundImageFix" result="shape"/>
<feGaussianBlur stdDeviation="15" result="effect1_foregroundBlur_2669_12344"/>
</filter>
<clipPath id="clip0_2669_12344">
<rect width="340" height="168" fill="white"/>
</clipPath>
<clipPath id="clip1_2669_12344">
<rect width="116" height="116" fill="white" transform="translate(46 96)"/>
</clipPath>
<clipPath id="clip2_2669_12344">
<rect width="143.74" height="42.75" fill="white" transform="translate(98 63)"/>
</clipPath>
<clipPath id="clip3_2669_12344">
<rect width="87" height="57" fill="white" transform="translate(16 18)"/>
</clipPath>
<clipPath id="clip4_2669_12344">
<rect width="63.9513" height="82.9639" fill="white" transform="translate(267.673 64) rotate(18.0263)"/>
</clipPath>
<clipPath id="clip5_2669_12344">
<rect width="12" height="13" fill="white" transform="translate(258 41)"/>
</clipPath>
<clipPath id="clip6_2669_12344">
<rect width="16.24" height="47.48" fill="white" transform="translate(199.34 16) rotate(77.4193)"/>
</clipPath>
<clipPath id="clip7_2669_12344">
<rect width="12" height="13" fill="white" transform="translate(328.196 57) rotate(51.6575)"/>
</clipPath>
</defs>
</svg>
