<svg width="144" height="43" viewBox="0 0 144 43" fill="none" xmlns="http://www.w3.org/2000/svg">
<g clip-path="url(#clip0_3_1329)">
<path d="M143.74 0H0V42.75H143.74V0Z" fill="#6AB32C"/>
<path d="M22.9201 17.44C22.7601 16.39 21.9001 14.61 19.1701 14.61C17.3001 14.61 16.0901 15.78 16.0901 17.02C16.0901 18.1 16.7601 18.89 18.3101 19.18L21.3201 19.75C25.6101 20.54 27.8301 23.3 27.8301 26.51C27.8301 30.03 24.8801 33.62 19.5101 33.62C13.2901 33.62 10.6201 29.59 10.3101 26.42L14.9101 25.31C15.1001 27.37 16.5001 29.18 19.5801 29.18C21.5501 29.18 22.7501 28.23 22.7501 26.83C22.7501 25.69 21.8301 24.86 20.3401 24.58L17.2701 24C13.4601 23.27 11.1501 20.73 11.1501 17.4C11.1501 13.15 14.9001 10.16 19.2101 10.16C24.8301 10.16 26.9501 13.52 27.4301 16.16L22.9201 17.44Z" fill="white"/>
<path d="M36.4401 25.05V33.14H31.4301V10.64H39.9001C44.4701 10.64 47.6101 13.66 47.6101 17.85C47.6101 22.1 44.4701 25.06 39.9001 25.06H36.4401V25.05ZM39.3901 20.74C41.2901 20.74 42.6001 19.63 42.6001 17.88C42.6001 16.07 41.3001 14.99 39.3901 14.99H36.4701V20.74H39.3901Z" fill="white"/>
<path d="M61.45 10.17C67.77 10.17 73.13 14.77 73.13 21.91C73.13 29.02 67.77 33.62 61.45 33.62C55.1 33.62 49.74 29.02 49.74 21.91C49.73 14.77 55.1 10.17 61.45 10.17ZM61.45 28.67C64.56 28.67 67.92 26.58 67.92 21.88C67.92 17.18 64.56 15.06 61.45 15.06C58.31 15.06 54.94 17.19 54.94 21.88C54.94 26.57 58.3 28.67 61.45 28.67Z" fill="white"/>
<path d="M83.6601 24.77H81.8801V33.15H76.8701V10.64H85.7901C90.2301 10.64 93.0901 13.69 93.0901 17.69C93.0901 20.74 91.4101 23.05 88.6501 24.04L93.2201 33.15H87.7001L83.6601 24.77ZM84.8401 20.45C86.9001 20.45 88.0101 19.31 88.0101 17.72C88.0101 16.04 86.9001 14.99 84.8401 14.99H81.8901V20.45H84.8401Z" fill="white"/>
<path d="M107.05 15.44V33.15H102.04V15.44H95.1201V10.64H114V15.43H107.05V15.44Z" fill="white"/>
<path d="M128.19 17.44C128.03 16.39 127.17 14.61 124.44 14.61C122.57 14.61 121.36 15.78 121.36 17.02C121.36 18.1 122.03 18.89 123.58 19.18L126.59 19.75C130.88 20.54 133.1 23.3 133.1 26.51C133.1 30.03 130.15 33.62 124.78 33.62C118.56 33.62 115.89 29.59 115.58 26.42L120.18 25.31C120.37 27.37 121.77 29.18 124.85 29.18C126.82 29.18 128.02 28.23 128.02 26.83C128.02 25.69 127.1 24.86 125.61 24.58L122.54 24C118.73 23.27 116.42 20.73 116.42 17.4C116.42 13.15 120.17 10.16 124.48 10.16C130.1 10.16 132.22 13.52 132.7 16.16L128.19 17.44Z" fill="white"/>
<path d="M61.1801 31.48C66.2114 31.48 70.2901 27.4013 70.2901 22.37C70.2901 17.3387 66.2114 13.26 61.1801 13.26C56.1488 13.26 52.0701 17.3387 52.0701 22.37C52.0701 27.4013 56.1488 31.48 61.1801 31.48Z" fill="white"/>
<path d="M61.4101 14.13L63.8301 19.03L69.2401 19.82L65.3301 23.63L66.2501 29.02L61.4101 26.48L56.5801 29.02L57.5001 23.63L53.5901 19.82L59.0001 19.03L61.4101 14.13Z" fill="#6AB32C"/>
</g>
<defs>
<clipPath id="clip0_3_1329">
<rect width="143.74" height="42.75" fill="white"/>
</clipPath>
</defs>
</svg>
