<svg width="340" height="168" viewBox="0 0 340 168" fill="none" xmlns="http://www.w3.org/2000/svg">
<g clip-path="url(#clip0_2669_12181)">
<rect width="340" height="168" fill="#4E13AF"/>
<g filter="url(#filter0_f_2669_12181)">
<circle cx="170" cy="86" r="61" fill="#8448E4"/>
</g>
<path d="M35.5 25L133.794 195.25H-62.7939L35.5 25Z" fill="#B98EFD"/>
<path d="M304.5 25L402.794 195.25H206.206L304.5 25Z" fill="#B98EFD"/>
<path d="M71.7923 -12.6329L268.527 -12.6329L170.16 157.744L71.7923 -12.6329Z" fill="#B98EFD"/>
<g clip-path="url(#clip1_2669_12181)">
<path d="M239.585 118.71L226.724 158.648C225.245 163.241 227.748 168.149 232.321 169.621L263.652 179.711L279.189 131.463L239.585 118.71Z" fill="#D6D6EF"/>
<path d="M336.079 129.833L261.078 105.682L239.725 171.99L317.455 197.021C324.363 199.245 331.774 195.424 334.008 188.485L346.295 150.328L336.079 129.833Z" fill="#D6D6EF"/>
<path d="M232.821 160.595L245.677 120.672L239.585 118.71L226.724 158.648C225.887 161.248 226.322 163.946 227.688 166.071C230.055 165.133 231.983 163.196 232.821 160.595Z" fill="#D6D6EF"/>
<path d="M245.677 120.672L232.816 160.609C231.979 163.21 230.051 165.147 227.688 166.071C228.731 167.701 230.323 168.978 232.307 169.617L263.638 179.706L279.174 131.459L245.677 120.672Z" fill="#D6D6EF"/>
<path opacity="0.25" d="M245.677 120.672L232.816 160.609C231.979 163.21 230.051 165.147 227.688 166.071C228.731 167.701 230.323 168.978 232.307 169.617L263.638 179.706L279.174 131.459L245.677 120.672Z" fill="#80808C"/>
<path d="M331.059 145.421L336.079 129.834L261.033 105.823L255.918 121.224L242.261 163.635C240.782 168.228 235.885 170.754 231.312 169.281L321.69 198.385C326.262 199.857 331.159 197.332 332.638 192.739L346.295 150.328L331.059 145.421Z" fill="white"/>
<path opacity="0.42" d="M261.033 105.823L255.918 121.224L242.261 163.635C240.782 168.228 235.885 170.753 231.312 169.281L321.69 198.384C326.262 199.857 331.159 197.332 332.638 192.739L261.033 105.823Z" fill="#EAEAEA"/>
<path d="M280.199 132.615L278.014 122.958C277.858 123.781 277.7 124.417 277.545 124.897L275.547 131.101L273.493 130.44L276.875 119.939L279.505 120.787L281.743 130.523C281.885 129.742 282.066 129.036 282.262 128.428L284.232 122.309L286.286 122.97L282.896 133.499L280.195 132.629L280.199 132.615Z" fill="#005EDF"/>
<path d="M285.053 134.178L288.439 123.664L297.105 126.454L296.555 128.164L290.196 126.117L289.345 128.759L295.225 130.653L294.675 132.363L288.794 130.469L287.902 133.239L294.585 135.391L294.034 137.101L285.044 134.206L285.053 134.178Z" fill="#005EDF"/>
<path d="M306.93 141.223L304.187 140.34L304.657 133.768C304.706 132.989 304.792 132.19 304.916 131.372C304.58 131.981 304.322 132.444 304.129 132.756C303.935 133.068 302.649 135.181 300.261 139.076L297.518 138.192L298.067 126.749L300.416 127.505L299.817 134.815L299.641 136.567C300.004 135.92 300.373 135.306 300.7 134.725C301.045 134.134 302.258 132.154 304.341 128.769L306.916 129.598L306.502 135.657C306.478 136.117 306.356 137.123 306.136 138.674L306.61 137.876L307.574 136.283L310.799 130.849L313.134 131.601L306.93 141.223Z" fill="#005EDF"/>
<path d="M320.819 142.358C320.487 143.389 319.838 144.054 318.863 144.333C317.884 144.626 316.63 144.518 315.082 144.02C313.675 143.567 312.641 142.969 311.994 142.23C311.347 141.491 311.058 140.603 311.147 139.555L313.484 139.918C313.461 140.519 313.625 141.024 313.979 141.418C314.333 141.813 314.897 142.135 315.685 142.389C317.289 142.905 318.255 142.702 318.555 141.769C318.651 141.472 318.634 141.186 318.51 140.944C318.391 140.687 318.174 140.445 317.877 140.209C317.581 139.974 316.984 139.61 316.086 139.118C315.315 138.667 314.802 138.33 314.511 138.127C314.224 137.91 313.969 137.687 313.766 137.45C313.549 137.209 313.397 136.957 313.282 136.686C313.168 136.416 313.109 136.116 313.101 135.801C313.094 135.487 313.147 135.13 313.265 134.762C313.57 133.816 314.186 133.203 315.096 132.934C316.005 132.666 317.185 132.765 318.606 133.222C319.97 133.662 320.934 134.19 321.491 134.822C322.048 135.454 322.266 136.273 322.163 137.269L319.83 136.845C319.863 136.357 319.733 135.941 319.454 135.601C319.176 135.262 318.705 134.986 318.044 134.773C316.651 134.324 315.811 134.522 315.543 135.356C315.457 135.624 315.454 135.873 315.55 136.106C315.65 136.326 315.811 136.549 316.07 136.757C316.324 136.98 316.87 137.311 317.692 137.795C318.679 138.346 319.375 138.789 319.78 139.122C320.171 139.451 320.469 139.781 320.659 140.107C320.849 140.433 320.95 140.793 320.986 141.164C321.017 141.501 320.96 141.92 320.819 142.358Z" fill="#005EDF"/>
<path d="M329.671 131.794L267.726 111.847L267.116 113.74L329.061 133.688L329.671 131.794Z" fill="#005EDF"/>
<path d="M323.991 149.431L262.047 129.484L261.437 131.378L323.382 151.325L323.991 149.431Z" fill="#005EDF"/>
<path d="M336.96 161.718L306.459 151.896L301.107 168.516L331.608 178.337L336.96 161.718Z" fill="#D6D6EF"/>
<path d="M300.972 150.129L259.188 136.674L258.132 139.953L299.916 153.408L300.972 150.129Z" fill="#FF4100"/>
<path d="M298.296 158.439L256.512 144.984L255.984 146.623L297.768 160.079L298.296 158.439Z" fill="#D6D6EF"/>
<path d="M297.136 162.043L255.352 148.587L254.824 150.227L296.608 163.682L297.136 162.043Z" fill="#D6D6EF"/>
<path d="M295.971 165.66L254.186 152.205L253.659 153.844L295.443 167.3L295.971 165.66Z" fill="#D6D6EF"/>
<path d="M329.629 181.444L274.79 163.784L274.262 165.424L329.102 183.083L329.629 181.444Z" fill="#D6D6EF"/>
<path d="M328.469 185.048L273.629 167.388L273.101 169.028L327.941 186.687L328.469 185.048Z" fill="#D6D6EF"/>
<path d="M269.345 162.031L252.744 156.685L248.73 169.15L265.331 174.496L269.345 162.031Z" fill="#FFA900"/>
</g>
<g clip-path="url(#clip2_2669_12181)">
<path d="M44.3948 131.309L39.4203 144.456C38.8377 145.994 37.2434 146.919 35.6219 146.612C35.0592 146.505 34.5165 146.354 33.9864 146.158C32.3957 145.563 31.5243 143.849 31.9111 142.202L35.287 127.808C35.8153 125.567 38.3561 124.474 40.3472 125.638L42.9267 127.149C44.3674 127.993 44.9837 129.748 44.3948 131.309Z" fill="#140958"/>
<path d="M11.9828 127.63L28.227 98.7295C28.841 97.5563 29.9476 96.7202 31.2419 96.4552L59.4388 90.654L59.9876 97.4914L61.1076 101.102C61.6597 102.897 61.338 104.842 60.2331 106.354L57.3601 110.28C56.8214 111.017 56.652 111.964 56.8978 112.841L57.0032 113.218C57.3543 114.472 56.8356 115.802 55.7296 116.491L55.1731 116.84C54.2168 117.434 53.6564 118.495 53.7008 119.623L53.7523 120.905C53.814 122.568 52.8569 124.102 51.3394 124.781L51.1307 124.871C50.469 125.166 50.22 125.977 50.5932 126.592L50.6088 126.613C50.9816 127.22 51.0166 127.981 50.7013 128.627L50.1378 129.783C49.5811 130.924 48.4638 131.688 47.1987 131.79L28.7343 133.276L20.0863 142.987L11.9828 127.63Z" fill="#FAB6CA"/>
<path d="M-0.903698 133.287L18.2954 152.193L-27.4959 198.694L-46.695 179.788L-0.903698 133.287Z" fill="#140958"/>
<path opacity="0.2" d="M12.2123 146.201L18.2934 152.189L-27.498 198.69L-33.579 192.702L12.2123 146.201Z" fill="#140958"/>
<path d="M28.7199 133.284L46.5188 131.851L28.4054 132.191L24.5327 129.689L26.9397 133.359L23.8179 138.42L27.6584 134.463L28.7199 133.284Z" fill="#EBA0A5"/>
<path d="M36.6829 124.993L50.6232 124.993L50.6232 126.435L36.6829 124.993Z" fill="#EBA0A5"/>
<path d="M40.0478 117.301L53.9881 117.301L53.9881 118.743L40.0478 117.301Z" fill="#EBA0A5"/>
<path d="M42.932 110.571L56.8723 110.571L56.8723 112.013L42.932 110.571Z" fill="#EBA0A5"/>
<path d="M10.5936 124.069L27.3269 140.547L17.0585 150.974L0.325164 134.497L10.5936 124.069Z" fill="#DDEAF0"/>
<path d="M19.7401 143.282C19.6934 142.264 18.8278 141.475 17.8097 141.521C16.7916 141.568 16.002 142.434 16.0487 143.452C16.0955 144.47 16.9611 145.259 17.9792 145.213C18.9976 145.173 19.7872 144.308 19.7401 143.282Z" fill="black"/>
<path opacity="0.2" d="M59.6114 104.804L51.1607 105.383C47.3876 105.211 44.6043 104.539 41.3594 102.604C40.1519 101.881 36.9078 100.283 35.6729 99.6059C33.8431 98.5963 33.5772 97.4415 35.2759 96.2332L36.1123 95.1085L57.6285 103.178L59.6114 104.804Z" fill="#AF4A12"/>
<path d="M56.497 87.6478C48.6819 88.0067 42.0557 81.9622 41.6968 74.1471C41.338 66.3321 47.3825 59.7058 55.1975 59.347C63.0126 58.9882 69.6389 65.0326 69.9977 72.8477C70.3565 80.6628 64.312 87.289 56.497 87.6478Z" fill="black"/>
<path d="M42.487 72.3346L67.8661 79.654C69.2199 80.0469 70.5793 79.4413 70.9091 78.3106L71.0354 77.8644C71.3651 76.7336 70.5303 75.4949 69.1767 75.1093L43.7973 67.7826C42.4435 67.3897 41.0841 67.9952 40.7543 69.126L40.628 69.5722C40.2983 70.703 41.1332 71.9417 42.487 72.3346Z" fill="#383839"/>
<path d="M39.6249 79.2566L66.3332 87.0605L60.8508 105.823L34.1426 98.0192L39.6249 79.2566Z" fill="#FF005A"/>
</g>
<g clip-path="url(#clip3_2669_12181)">
<path d="M313.23 33.8246L287.601 25.7868L290.502 23.904L311.923 30.6222L313.23 33.8246Z" fill="#044044"/>
<path d="M271.117 19.4801L270.071 19.152L271.437 14.8353L274.026 10.4819L275.868 4.6092L276.925 4.94087L275.016 10.9901L272.416 15.34L271.117 19.4801Z" fill="#04605F"/>
<path d="M274.289 -3.63386L270.57 -5.96166L250.697 -11.0331C249.887 -11.2871 249.029 -10.8392 248.775 -10.0292L247.456 -5.82152C247.205 -5.02274 247.649 -4.15431 248.459 -3.90026L267.67 3.28624L272.052 3.49895L275.002 5.59806L278.962 6.84008L280.634 11.5165L285.366 10.8876L296.761 10.606L274.289 -3.63386Z" fill="#04605F"/>
<path d="M277.087 6.23968L275.005 5.58691L274.854 6.07069L276.935 6.72345L277.087 6.23968Z" fill="#044044"/>
<path d="M271.612 19.2027L269.812 18.6382L269.565 19.4257L271.365 19.9903L271.612 19.2027Z" fill="#044044"/>
<path d="M263.084 22.9907L247.423 18.0791L238.034 48.0166L253.695 52.9283L263.084 22.9907Z" fill="#044044"/>
<path d="M256.884 35.8253L246.083 32.438L245.134 35.4644L255.935 38.8517L256.884 35.8253Z" fill="#04605F"/>
<path d="M260.479 24.361L249.679 20.9736L248.73 24L259.53 27.3873L260.479 24.361Z" fill="#04605F"/>
<path d="M253.285 47.3009L242.484 43.9136L241.535 46.94L252.336 50.3273L253.285 47.3009Z" fill="#04605F"/>
<path d="M255.084 41.5631L244.284 38.1758L243.335 41.2022L254.135 44.5895L255.084 41.5631Z" fill="#04605F"/>
<path d="M258.68 30.0988L247.879 26.7114L246.93 29.7378L257.731 33.1251L258.68 30.0988Z" fill="#04605F"/>
<path d="M326.99 36.7562L272.313 19.6078C268.623 18.4505 264.771 19.7013 262.418 22.473L252.863 52.9394C253.211 56.5579 255.659 59.7847 259.349 60.9421L314.027 78.0905C318.932 79.6289 324.149 76.903 325.691 71.9865L333.08 48.428C334.629 43.5263 331.896 38.2946 326.99 36.7562Z" fill="#04605F"/>
<path d="M330.768 39.0532C331.911 41.0429 332.082 44.3588 331.009 47.7789L323.617 71.3487C322.541 74.7801 320.507 77.4044 318.436 78.3737C321.748 77.7813 324.622 75.4329 325.699 72.0015L333.091 48.4317C334.167 45.0003 333.152 41.4197 330.768 39.0532Z" fill="#044044"/>
<path d="M306.355 62.3633L274.629 52.413C269.296 50.7405 266.323 45.0506 267.995 39.7179L276.517 12.548C278.189 7.21523 283.879 4.24225 289.212 5.91475L320.938 15.865C326.271 17.5375 329.244 23.2274 327.571 28.5602L319.05 55.7301C317.378 61.0628 311.688 64.0358 306.355 62.3633ZM286.961 13.0926C285.599 12.6656 284.136 13.4301 283.706 14.8027L275.184 41.9726C274.754 43.3451 275.518 44.8083 276.88 45.2352L308.606 55.1855C309.979 55.616 311.442 54.8515 311.872 53.4789L320.394 26.309C320.824 24.9364 320.06 23.4733 318.687 23.0429L286.961 13.0926V13.0926Z" fill="#04605F"/>
<path d="M250.697 -11.0331C249.887 -11.2872 249.029 -10.8393 248.775 -10.0292L247.456 -5.82156C247.205 -5.02278 247.649 -4.15435 248.459 -3.9003L267.67 3.28621L270.563 -5.93919L250.697 -11.0331Z" fill="#044044"/>
<path d="M339.704 28.2509L348.09 33.1916L353.376 16.3384L343.667 15.6166L339.704 28.2509Z" fill="#044044"/>
<path d="M312.815 17.2966L326.57 29.7043L333.089 23.6549L340.424 25.9554L342.951 17.9001L320.607 10.8925L312.815 17.2966Z" fill="#04605F"/>
<path d="M232.23 10.5341L226.965 8.88281L215.984 43.8943L221.25 45.5457L232.23 10.5341Z" fill="#044044"/>
<path d="M239.376 50.081L221.25 45.5452L232.23 10.5337L249.7 17.162L239.376 50.081Z" fill="#04605F"/>
<path d="M237.533 49.6141L239.376 50.0809L249.7 17.162L247.921 16.4927L237.533 49.6141Z" fill="#FF3400"/>
<path d="M290.204 36.0068L281.406 33.2476L280.234 36.9827L289.032 39.742L290.204 36.0068Z" fill="#FFDBB3"/>
<path d="M289.395 40.4364L279.54 37.3454L281.039 32.564L290.895 35.6549L289.395 40.4364ZM280.929 36.6196L288.669 39.0471L289.509 36.3695L281.769 33.9419L280.929 36.6196Z" fill="#044044"/>
<path d="M302.005 39.708L293.207 36.9487L292.036 40.6839L300.834 43.4432L302.005 39.708Z" fill="#FF3400"/>
<path d="M301.197 44.1375L291.341 41.0466L292.841 36.2651L302.696 39.3561L301.197 44.1375ZM292.731 40.3207L300.482 42.7518L301.322 40.0742L293.57 37.6431L292.731 40.3207Z" fill="#044044"/>
<path d="M313.807 43.4097L305.009 40.6504L303.838 44.3856L312.636 47.1448L313.807 43.4097Z" fill="#FF7850"/>
<path d="M312.999 47.8392L303.143 44.7483L304.643 39.9668L314.498 43.0577L312.999 47.8392ZM304.521 44.0189L312.273 46.45L313.113 43.7724L305.361 41.3412L304.521 44.0189Z" fill="#044044"/>
<path d="M288.196 42.4082L279.398 39.6489L278.227 43.3841L287.024 46.1434L288.196 42.4082Z" fill="#34BDDC"/>
<path d="M287.387 46.8377L277.532 43.7468L279.032 38.9653L288.887 42.0563L287.387 46.8377ZM278.921 43.0209L286.662 45.4485L287.501 42.7709L279.761 40.3433L278.921 43.0209Z" fill="#044044"/>
<path d="M299.998 46.1099L291.2 43.3506L290.028 47.0857L298.826 49.845L299.998 46.1099Z" fill="#FFE300"/>
<path d="M299.189 50.5394L289.334 47.4484L290.833 42.667L300.689 45.7579L299.189 50.5394ZM290.723 46.7226L298.475 49.1537L299.314 46.4761L291.563 44.045L290.723 46.7226Z" fill="#044044"/>
<path d="M311.799 49.811L303.002 47.0518L301.83 50.7869L310.628 53.5462L311.799 49.811Z" fill="#9086FF"/>
<path d="M310.991 54.2406L301.135 51.1496L302.635 46.3682L312.49 49.4591L310.991 54.2406ZM302.513 50.4202L310.265 52.8513L311.105 50.1737L303.353 47.7426L302.513 50.4202Z" fill="#044044"/>
<path d="M328.193 64.0473L275.755 47.6011L270.476 64.4318L272.58 65.0916L277.199 50.3647L327.533 66.1511L328.193 64.0473Z" fill="#044044"/>
<path d="M329.662 19.9235C329.387 20.8011 328.441 21.2953 327.564 21.02C326.675 20.7413 326.192 19.799 326.467 18.9214C326.746 18.0326 327.688 17.5497 328.566 17.8249C329.447 18.0889 329.941 19.0347 329.662 19.9235Z" fill="#044044"/>
<path d="M316.829 13.9956L316.329 14.4073L315.226 14.0615L316.028 14.8937L321.878 16.7285L326.969 29.0633L327.219 29.6854L327.48 28.8528L327.898 28.465L322.702 15.8375L316.829 13.9956Z" fill="#044044"/>
<path d="M277.163 29.5567L265.575 25.9224L257.668 51.1347L269.256 54.769L277.163 29.5567Z" fill="#044044"/>
<path d="M274.709 31.1967L266.665 28.6738L264.579 35.3229L272.623 37.8457L274.709 31.1967Z" fill="#04605F"/>
<path d="M270.266 45.3612L262.222 42.8384L260.137 49.4874L268.181 52.0103L270.266 45.3612Z" fill="#04605F"/>
<path d="M287.951 61.4725C287.52 62.8451 286.057 63.6095 284.684 63.1791L280.33 61.8135C278.958 61.3831 278.193 59.92 278.624 58.5474C279.054 57.1748 280.517 56.4104 281.89 56.8408L286.244 58.2063C287.617 58.6368 288.381 60.0999 287.951 61.4725Z" fill="#044044"/>
<path d="M282.629 59.8036C282.417 60.4786 281.693 60.857 281.018 60.6453C280.343 60.4336 279.965 59.7094 280.176 59.0344C280.388 58.3594 281.112 57.981 281.787 58.1927C282.47 58.4192 282.841 59.1286 282.629 59.8036Z" fill="#34BDDC"/>
<path d="M286.398 60.9857C286.186 61.6608 285.462 62.0392 284.787 61.8274C284.112 61.6157 283.734 60.8916 283.945 60.2165C284.157 59.5415 284.881 59.1631 285.556 59.3748C286.228 59.5978 286.61 60.3107 286.398 60.9857Z" fill="#34BDDC"/>
<path d="M296.062 64.0166C295.632 65.3892 294.169 66.1537 292.796 65.7232C291.423 65.2927 290.659 63.8296 291.089 62.4571C291.52 61.0845 292.983 60.32 294.356 60.7505C295.728 61.181 296.493 62.6441 296.062 64.0166Z" fill="#044044"/>
<path d="M294.791 63.618C294.579 64.293 293.855 64.6714 293.191 64.4632C292.516 64.2515 292.138 63.5273 292.349 62.8523C292.561 62.1773 293.285 61.7989 293.96 62.0106C294.632 62.2335 295.003 62.9429 294.791 63.618Z" fill="#34BDDC"/>
<path d="M307.965 67.7496C307.535 69.1221 306.072 69.8866 304.699 69.4561C303.326 69.0256 302.562 67.5625 302.992 66.19C303.423 64.8174 304.886 64.0529 306.259 64.4834C307.631 64.9139 308.396 66.377 307.965 67.7496Z" fill="#044044"/>
<path d="M306.705 67.3544C306.493 68.0294 305.769 68.4078 305.094 68.1961C304.419 67.9844 304.041 67.2602 304.252 66.5852C304.464 65.9102 305.188 65.5318 305.863 65.7435C306.535 65.9664 306.917 66.6794 306.705 67.3544Z" fill="#04605F"/>
<path d="M302.014 65.8833C301.583 67.2559 300.12 68.0204 298.747 67.5899C297.375 67.1594 296.61 65.6963 297.041 64.3238C297.471 62.9512 298.934 62.1867 300.307 62.6172C301.68 63.0477 302.444 64.5108 302.014 65.8833Z" fill="#044044"/>
<path d="M300.754 65.4882C300.542 66.1632 299.818 66.5416 299.143 66.3299C298.468 66.1182 298.089 65.394 298.301 64.719C298.513 64.0439 299.237 63.6656 299.912 63.8773C300.583 64.1002 300.965 64.8132 300.754 65.4882Z" fill="#FF3400"/>
<path d="M319.938 74.1366L310.082 71.0456L311.582 66.2642L321.437 69.3551L319.938 74.1366Z" fill="#044044"/>
<path d="M317.38 68.935L315.152 68.2363L314.867 69.1476L317.094 69.8463L317.38 68.935Z" fill="#34BDDC"/>
<path d="M317.017 70.0937L314.789 69.395L314.503 70.3063L316.731 71.0049L317.017 70.0937Z" fill="#34BDDC"/>
<path d="M316.653 71.2528L314.426 70.5542L314.14 71.4655L316.367 72.1641L316.653 71.2528Z" fill="#34BDDC"/>
<path d="M320.238 69.8316L317.999 69.1294L317.713 70.0407L319.952 70.7429L320.238 69.8316Z" fill="#34BDDC"/>
<path d="M319.874 70.9903L317.635 70.2881L317.35 71.1994L319.588 71.9015L319.874 70.9903Z" fill="#34BDDC"/>
<path d="M319.511 72.1489L317.272 71.4468L316.986 72.3581L319.225 73.0602L319.511 72.1489Z" fill="#34BDDC"/>
<path d="M314.534 68.0424L312.306 67.3438L312.02 68.255L314.248 68.9537L314.534 68.0424Z" fill="#34BDDC"/>
<path d="M314.17 69.2011L311.943 68.5024L311.657 69.4137L313.884 70.1124L314.17 69.2011Z" fill="#34BDDC"/>
<path d="M313.807 70.3598L311.579 69.6611L311.293 70.5724L313.521 71.2711L313.807 70.3598Z" fill="#34BDDC"/>
</g>
<g clip-path="url(#clip4_2669_12181)">
<path d="M257.24 47H83V89.75H257.24V47Z" fill="#0676DD"/>
<path d="M225.75 77.48H114.49V120.23H225.75V77.48Z" fill="#0676DD"/>
<path d="M104.09 61.5498V79.2598H99.07V61.5498H92.16V56.7598H111.04V61.5498H104.09Z" fill="white"/>
<path d="M124.15 56.2798C130.47 56.2798 135.83 60.8798 135.83 68.0198C135.83 75.1298 130.47 79.7298 124.15 79.7298C117.8 79.7298 112.44 75.1298 112.44 68.0198C112.44 60.8798 117.8 56.2798 124.15 56.2798ZM124.15 74.7798C127.26 74.7798 130.62 72.6898 130.62 67.9898C130.62 63.2898 127.25 61.1698 124.15 61.1698C121.01 61.1698 117.64 63.2998 117.64 67.9898C117.64 72.6798 121.01 74.7798 124.15 74.7798Z" fill="white"/>
<path d="M144.59 71.1698V79.2598H139.57V56.7598H148.04C152.61 56.7598 155.75 59.7798 155.75 63.9698C155.75 68.2198 152.61 71.1798 148.04 71.1798H144.59V71.1698ZM147.54 66.8498C149.44 66.8498 150.75 65.7398 150.75 63.9898C150.75 62.1798 149.45 61.0998 147.54 61.0998H144.62V66.8498H147.54Z" fill="white"/>
<path d="M159.03 79.2598V56.7598H164.11V79.2598H159.03Z" fill="white"/>
<path d="M167.82 68.0498C167.82 61.0398 173.15 56.2798 179.44 56.2798C186.2 56.2798 189.18 60.6298 189.91 63.8598L185.18 65.3498C184.83 63.7998 183.4 61.1598 179.43 61.1598C176.42 61.1598 173.02 63.3198 173.02 68.0498C173.02 72.2698 176.13 74.7198 179.49 74.7198C183.39 74.7198 184.95 72.1198 185.39 70.4998L190.18 71.8598C189.45 74.9698 186.47 79.7298 179.48 79.7298C173.02 79.7298 167.82 75.0698 167.82 68.0498Z" fill="white"/>
<path d="M206.16 74.6898H197.46L195.84 79.2598H190.57L199.04 56.7598H204.85L213.23 79.2598H207.77L206.16 74.6898ZM199.11 70.1198H204.57L201.87 62.3398L199.11 70.1198Z" fill="white"/>
<path d="M216.16 79.2598V56.7598H221.17V74.4698H230.88V79.2598H216.16Z" fill="white"/>
<path d="M237.1 79.6996H232.82L244.21 56.3096H248.53L237.1 79.6996Z" fill="white"/>
<path d="M138.89 110.93L129.62 96.1397V110.93H124.64V88.4297H130.73L139.17 102.11V88.4297H144.18V110.93H138.89Z" fill="white"/>
<path d="M149.2 110.93V88.4297H163.45V93.1597H154.21V97.4397H162.59V101.85H154.21V106.17H163.48V110.93H149.2V110.93Z" fill="white"/>
<path d="M193.1 88.4297H198.24L192.11 110.93H186.94L182.15 96.0097L177.33 110.93H172.06L165.93 88.4297H171.26L174.97 102.84L179.64 88.4297H184.78L189.45 102.87L193.1 88.4297Z" fill="white"/>
<path d="M211.98 95.2197C211.82 94.1697 210.96 92.3897 208.24 92.3897C206.37 92.3897 205.16 93.5597 205.16 94.7997C205.16 95.8797 205.83 96.6697 207.38 96.9597L210.4 97.5297C214.68 98.3197 216.91 101.08 216.91 104.29C216.91 107.81 213.96 111.4 208.59 111.4C202.37 111.4 199.7 107.37 199.39 104.2L203.99 103.09C204.18 105.15 205.58 106.96 208.66 106.96C210.63 106.96 211.83 106.01 211.83 104.61C211.83 103.47 210.91 102.64 209.42 102.36L206.34 101.79C202.53 101.06 200.21 98.5197 200.21 95.1897C200.21 90.9397 203.96 87.9497 208.27 87.9497C213.89 87.9497 216.01 91.3097 216.49 93.9497L211.98 95.2197Z" fill="white"/>
<path d="M124 77.0496C129.031 77.0496 133.11 72.9709 133.11 67.9396C133.11 62.9083 129.031 58.8296 124 58.8296C118.969 58.8296 114.89 62.9083 114.89 67.9396C114.89 72.9709 118.969 77.0496 124 77.0496Z" fill="white"/>
<path d="M124.23 59.8799L126.65 64.7799L132.05 65.5699L128.14 69.3799L129.07 74.7699L124.23 72.2199L119.39 74.7699L120.32 69.3799L116.4 65.5699L121.81 64.7799L124.23 59.8799Z" fill="#0676DD"/>
</g>
<g clip-path="url(#clip5_2669_12181)">
<path d="M94.255 142.025L91.0014 140.58L96.2607 126L101.543 128.346L94.255 142.025ZM91.8419 142.999C93.2311 143.616 93.8612 145.253 93.2444 146.642C92.6397 148.004 91.0032 148.634 89.614 148.017C88.2248 147.4 87.6221 145.776 88.2268 144.414C88.8436 143.025 90.4436 142.379 91.8419 142.999Z" fill="white"/>
</g>
<g clip-path="url(#clip6_2669_12181)">
<path d="M16.7229 58.9998C14.8562 58.9998 13.1606 58.3423 11.8568 56.2911C10.5672 54.2542 10.5245 52.0101 11.2369 49.8731C10.1825 49.8374 9.16368 49.6658 8.23036 49.3156C5.65125 48.3579 2.78005 45.7278 3.72049 38.6666C4.49707 32.8132 3.69912 28.232 1.46912 25.7734C0.115449 24.2797 -1.77969 23.5579 -4.15218 23.6508C-4.60815 23.6651 -4.98576 23.3149 -5.00001 22.8575C-5.01426 22.4072 -4.66515 22.0213 -4.20918 21.9998C-1.33084 21.9141 0.984649 22.8003 2.6803 24.6656C5.23803 27.4959 6.1856 32.5416 5.3449 38.881C4.70368 43.6909 5.87212 46.6855 8.80032 47.7719C9.75502 48.1292 10.8308 48.2579 11.9494 48.215C12.9183 46.3711 14.4074 44.6772 16.0532 43.3693C18.9671 41.068 21.7386 40.5034 23.1136 41.9399C23.4627 42.2973 24.1681 43.305 23.1849 44.813C21.76 47.0072 17.3285 49.3585 13.0395 49.8016C12.2629 51.6384 12.1133 53.6253 13.2318 55.4049C14.956 58.1279 17.5137 57.5418 21.5462 56.3626C25.3935 55.2405 29.7466 53.9612 33.6865 57.1202C34.0427 57.406 34.0997 57.9206 33.8148 58.278C33.5298 58.6353 33.0168 58.6925 32.6606 58.4066C29.3904 55.7837 25.6357 56.8843 22.0022 57.9421C20.2139 58.4638 18.39 58.9998 16.7086 58.9998H16.7229ZM21.0902 42.7976C20.0999 42.7976 18.5824 43.4837 17.072 44.6701C16.0247 45.492 14.9132 46.6498 14.0369 47.972C17.4994 47.293 20.8623 45.3848 21.8169 43.9197C22.1874 43.3479 22.0164 43.1692 21.9452 43.0906C21.7528 42.8905 21.4607 42.7976 21.0902 42.7976Z" fill="white"/>
</g>
<path d="M214.454 25.734L189.25 17.9465L195.941 14.0192L170.724 -0.682424L205.929 13.0094L198.188 15.9555L214.454 25.734Z" fill="white"/>
<path d="M196.135 38.6442L154.949 33.2792L163.724 26.5778L120.027 11.8434L178.57 23.152L167.843 28.7397L196.135 38.6442Z" fill="white"/>
</g>
<defs>
<filter id="filter0_f_2669_12181" x="79" y="-5" width="182" height="182" filterUnits="userSpaceOnUse" color-interpolation-filters="sRGB">
<feFlood flood-opacity="0" result="BackgroundImageFix"/>
<feBlend mode="normal" in="SourceGraphic" in2="BackgroundImageFix" result="shape"/>
<feGaussianBlur stdDeviation="15" result="effect1_foregroundBlur_2669_12181"/>
</filter>
<clipPath id="clip0_2669_12181">
<rect width="340" height="168" fill="white"/>
</clipPath>
<clipPath id="clip1_2669_12181">
<rect width="111.265" height="69.6617" fill="white" transform="translate(245.406 100.635) rotate(17.8497)"/>
</clipPath>
<clipPath id="clip2_2669_12181">
<rect width="122.378" height="135.392" fill="white" transform="matrix(-0.998948 0.0458668 0.0458668 0.998948 70.2488 58.6558)"/>
</clipPath>
<clipPath id="clip3_2669_12181">
<rect width="126.351" height="72.3485" fill="white" transform="translate(236.651 -22) rotate(17.4129)"/>
</clipPath>
<clipPath id="clip4_2669_12181">
<rect width="174.24" height="73.23" fill="white" transform="translate(83 47)"/>
</clipPath>
<clipPath id="clip5_2669_12181">
<rect width="5.78" height="22.82" fill="white" transform="translate(96.2607 126) rotate(23.9421)"/>
</clipPath>
<clipPath id="clip6_2669_12181">
<rect width="39" height="37" fill="white" transform="translate(-5 22)"/>
</clipPath>
</defs>
</svg>
