<svg width="175" height="74" viewBox="0 0 175 74" fill="none" xmlns="http://www.w3.org/2000/svg">
<g clip-path="url(#clip0_3_1258)">
<path d="M174.24 0H0V42.75H174.24V0Z" fill="#0676DD"/>
<path d="M142.75 30.48H31.49V73.23H142.75V30.48Z" fill="#0676DD"/>
<path d="M21.09 14.55V32.26H16.07V14.55H9.16003V9.75999H28.04V14.55H21.09Z" fill="white"/>
<path d="M41.1501 9.28C47.4701 9.28 52.8301 13.88 52.8301 21.02C52.8301 28.13 47.4701 32.73 41.1501 32.73C34.8001 32.73 29.4401 28.13 29.4401 21.02C29.4401 13.88 34.8001 9.28 41.1501 9.28ZM41.1501 27.78C44.2601 27.78 47.6201 25.69 47.6201 20.99C47.6201 16.29 44.2501 14.17 41.1501 14.17C38.0101 14.17 34.6401 16.3 34.6401 20.99C34.6401 25.68 38.0101 27.78 41.1501 27.78Z" fill="white"/>
<path d="M61.59 24.17V32.26H56.57V9.75999H65.04C69.61 9.75999 72.75 12.78 72.75 16.97C72.75 21.22 69.61 24.18 65.04 24.18H61.59V24.17ZM64.54 19.85C66.44 19.85 67.75 18.74 67.75 16.99C67.75 15.18 66.45 14.1 64.54 14.1H61.62V19.85H64.54Z" fill="white"/>
<path d="M76.03 32.26V9.75999H81.11V32.26H76.03Z" fill="white"/>
<path d="M84.8201 21.05C84.8201 14.04 90.1501 9.28 96.4401 9.28C103.2 9.28 106.18 13.63 106.91 16.86L102.18 18.35C101.83 16.8 100.4 14.16 96.4301 14.16C93.4201 14.16 90.0201 16.32 90.0201 21.05C90.0201 25.27 93.1301 27.72 96.4901 27.72C100.39 27.72 101.95 25.12 102.39 23.5L107.18 24.86C106.45 27.97 103.47 32.73 96.4801 32.73C90.0201 32.73 84.8201 28.07 84.8201 21.05Z" fill="white"/>
<path d="M123.16 27.69H114.46L112.84 32.26H107.57L116.04 9.75999H121.85L130.23 32.26H124.77L123.16 27.69ZM116.11 23.12H121.57L118.87 15.34L116.11 23.12Z" fill="white"/>
<path d="M133.16 32.26V9.75999H138.17V27.47H147.88V32.26H133.16Z" fill="white"/>
<path d="M154.1 32.7H149.82L161.21 9.31H165.53L154.1 32.7Z" fill="white"/>
<path d="M55.89 63.93L46.62 49.14V63.93H41.64V41.43H47.73L56.17 55.11V41.43H61.18V63.93H55.89Z" fill="white"/>
<path d="M66.2 63.93V41.43H80.45V46.16H71.21V50.44H79.59V54.85H71.21V59.17H80.48V63.93H66.2V63.93Z" fill="white"/>
<path d="M110.1 41.43H115.24L109.11 63.93H103.94L99.1501 49.01L94.3301 63.93H89.0601L82.9301 41.43H88.2601L91.9701 55.84L96.6401 41.43H101.78L106.45 55.87L110.1 41.43Z" fill="white"/>
<path d="M128.98 48.22C128.82 47.17 127.96 45.39 125.24 45.39C123.37 45.39 122.16 46.56 122.16 47.8C122.16 48.88 122.83 49.67 124.38 49.96L127.4 50.53C131.68 51.32 133.91 54.08 133.91 57.29C133.91 60.81 130.96 64.4 125.59 64.4C119.37 64.4 116.7 60.37 116.39 57.2L120.99 56.09C121.18 58.15 122.58 59.96 125.66 59.96C127.63 59.96 128.83 59.01 128.83 57.61C128.83 56.47 127.91 55.64 126.42 55.36L123.34 54.79C119.53 54.06 117.21 51.52 117.21 48.19C117.21 43.94 120.96 40.95 125.27 40.95C130.89 40.95 133.01 44.31 133.49 46.95L128.98 48.22Z" fill="white"/>
<path d="M41 30.05C46.0313 30.05 50.11 25.9713 50.11 20.94C50.11 15.9087 46.0313 11.83 41 11.83C35.9687 11.83 31.89 15.9087 31.89 20.94C31.89 25.9713 35.9687 30.05 41 30.05Z" fill="white"/>
<path d="M41.23 12.88L43.65 17.78L49.05 18.57L45.14 22.38L46.07 27.77L41.23 25.22L36.39 27.77L37.32 22.38L33.4 18.57L38.81 17.78L41.23 12.88Z" fill="#0676DD"/>
</g>
<defs>
<clipPath id="clip0_3_1258">
<rect width="174.24" height="73.23" fill="white"/>
</clipPath>
</defs>
</svg>
