<svg width="390" height="844" viewBox="0 0 390 844" fill="none" xmlns="http://www.w3.org/2000/svg">
<g filter="url(#filter0_d_2858_23089)">
<rect x="-7" y="-11" width="403" height="855" fill="#633C94"/>
</g>
<g filter="url(#filter1_f_2858_23089)">
<circle cx="57" cy="607" r="291" fill="#662FBF"/>
</g>
<g filter="url(#filter2_f_2858_23089)">
<circle cx="355" cy="111" r="291" fill="#662FBF"/>
</g>
<path d="M232.441 909.636H264L-32.627 614.363H-64.1865L232.441 909.636Z" fill="#3A1575"/>
<path d="M200.863 909.636H232.405L-64.2218 614.363H-95.7638L200.863 909.636Z" fill="#8347E2"/>
<path d="M169.322 909.636H200.881L-95.7457 614.363H-127.288L169.322 909.636Z" fill="#3A1575"/>
<path d="M106.238 909.636H137.78L-158.847 614.363H-190.389L106.238 909.636Z" fill="#662FBF"/>
<path d="M137.78 909.636H169.339L-127.288 614.363H-158.847L137.78 909.636Z" fill="#8347E2"/>
<path d="M460.44 140H478.61L307.83 -30H289.66L460.44 140Z" fill="#3A1575"/>
<path d="M442.26 140H460.42L289.64 -30H271.48L442.26 140Z" fill="#8347E2"/>
<path d="M424.101 140H442.271L271.491 -30H253.331L424.101 140Z" fill="#3A1575"/>
<path d="M387.78 140H405.94L235.16 -30H217L387.78 140Z" fill="#662FBF"/>
<path d="M405.94 140H424.11L253.33 -30H235.16L405.94 140Z" fill="#8347E2"/>
<g filter="url(#filter3_f_2858_23089)">
<path d="M71.1679 578.152C66.8057 580.482 36.9857 598.594 36.9857 598.594L17.4524 564.04L31.5358 554.718C31.5358 554.718 54.8739 537.53 56.949 538.564C59.0241 539.598 62.0965 542.137 61.0679 544.011C60.0411 545.866 43.903 560.092 43.5656 560.394L43.5908 560.388C43.9126 560.334 46.6608 559.908 47.5624 560.973C48.5223 562.107 51.5737 566.338 49.3375 569.256C49.3375 569.256 53.9716 572.405 51.1053 577.54C57.234 575.188 63.4593 572.736 69.8516 571.177C71.955 570.665 73.8991 571.384 74.2907 573.704C74.6403 575.788 72.8049 577.282 71.1679 578.152Z" fill="#FAB6CA"/>
<path d="M11.3593 542.668L44.5501 611.233C44.5501 611.233 50.1833 611.229 55.3856 606.323L28.9034 536.6L11.3633 542.671L11.3593 542.668Z" fill="#030912"/>
<path d="M20.4348 553.517C30.9016 552.581 38.5333 543.346 37.4809 532.891C36.4284 522.435 27.0903 514.718 16.6235 515.653C6.15683 516.589 -1.47494 525.824 -0.422478 536.279C0.629981 546.735 9.96812 554.452 20.4348 553.517Z" fill="#030912"/>
<path d="M18.2985 554.398C18.2744 554.378 18.2569 554.35 18.2532 554.314C18.2459 554.241 18.2951 554.181 18.368 554.175C26.9467 553.22 33.1176 546.758 33.1773 546.694C33.2232 546.639 33.3187 546.637 33.357 546.689C33.4132 546.735 33.4107 546.82 33.364 546.868C33.301 546.937 27.0671 553.467 18.3936 554.43C18.3572 554.433 18.3193 554.421 18.2952 554.402L18.2985 554.398Z" fill="#FAB6CA"/>
<path d="M37.9109 573.812C37.9979 573.543 38.0138 573.263 37.9648 572.995C37.948 572.901 37.9198 572.805 37.8884 572.712C37.864 572.652 37.8395 572.591 37.8078 572.532L35.2746 567.568L35.1381 567.308L34.0202 565.116L33.9742 565.025L33.8917 564.863L32.1791 561.512C31.7613 560.686 30.7494 560.35 29.9303 560.761C29.5309 560.959 29.2344 561.301 29.1005 561.724C28.9626 562.144 28.9975 562.6 29.2029 562.997L31.2232 566.957L31.2881 567.09L31.2921 567.094L31.3746 567.255L31.3786 567.259L32.51 569.475L33.046 570.526L34.7371 573.846L34.8284 574.021C34.8554 574.07 34.8823 574.119 34.9166 574.168C35.0089 574.318 35.1289 574.45 35.2613 574.559C35.4177 574.689 35.6011 574.794 35.8067 574.863C35.9058 574.899 36.0035 574.919 36.1078 574.932L36.1224 574.931C36.4471 574.979 36.7762 574.924 37.0812 574.775C37.0918 574.771 37.1023 574.766 37.1089 574.758C37.4896 574.559 37.7756 574.221 37.9109 573.812ZM35.4252 574.361C35.357 574.305 35.2921 574.244 35.2377 574.18C35.1706 574.097 35.1101 574.007 35.0634 573.909L35.0554 573.902L32.7998 569.468L32.7958 569.464L32.5207 568.923L31.5366 567.002L31.4589 566.851L31.4035 566.738L29.4339 562.881C29.2603 562.544 29.2294 562.165 29.3441 561.805C29.4627 561.45 29.7093 561.159 30.0492 560.993C30.5601 560.734 31.1684 560.823 31.5896 561.171C31.734 561.291 31.8561 561.445 31.9514 561.624L33.6735 564.996L33.752 565.155L33.8059 565.253L34.8786 567.361L35.0118 567.624L37.5768 572.648C37.6053 572.712 37.6337 572.775 37.6549 572.839C37.6903 572.935 37.7111 573.033 37.7214 573.135C37.7452 573.335 37.7245 573.531 37.6634 573.728C37.5448 574.084 37.2982 574.374 36.9622 574.543C36.4474 574.799 35.8423 574.706 35.4252 574.361Z" fill="#FAB6CA"/>
<path d="M42.2256 606.408C42.1895 606.379 42.1705 606.336 42.1767 606.288C42.1879 606.217 42.2531 606.171 42.3242 606.183C47.5548 607.074 52.1247 602.754 53.4018 601.413C53.4477 601.357 53.5359 601.357 53.5855 601.411C53.6417 601.457 53.6392 601.542 53.5893 601.594C50.1252 605.247 45.8947 607.058 42.2843 606.444C42.2617 606.438 42.2424 606.429 42.2223 606.412L42.2256 606.408Z" fill="#FAB6CA"/>
<path d="M37.5925 597.785L36.9105 598.463L28.1491 607.21L23.104 612.253L21.7671 613.585L19.8489 615.498L15.7826 619.56L-11.1271 597.321L-10.886 596.866L-5.65378 592.111L-0.754848 587.662L0.491738 586.529L2.44578 584.753L8.46635 579.281C8.46635 579.281 10.2614 556.052 11.9889 554.583C12.3513 554.275 13.3074 553.763 14.6061 553.147C15.0623 552.93 15.5655 552.705 16.0971 552.47C17.3611 551.913 18.8085 551.313 20.2846 550.744C20.3732 550.711 20.465 550.673 20.5535 550.639C23.9387 549.345 27.4217 548.218 29.1977 548.07C29.311 548.064 29.4131 548.055 29.5119 548.05C29.9091 548.051 30.1876 548.114 30.3196 548.256C30.4604 548.413 30.6074 548.594 30.746 548.802C30.7971 548.871 30.8448 548.944 30.8934 549.024C30.9149 549.056 30.9364 549.087 30.9547 549.122C31.8583 550.61 32.5291 553 31.2323 554.912C31.0407 555.201 30.7967 555.48 30.5067 555.741C27.839 558.136 23.1126 561.559 23.1126 561.559C23.1126 561.559 28.2311 570.616 28.4414 577.966C28.451 578.061 28.4492 578.153 28.4514 578.248L37.5884 597.782L37.5925 597.785Z" fill="#FAB6CA"/>
<path d="M21.1899 551.813C20.6645 551.379 20.2552 550.821 20.0409 550.19C20.015 550.115 20.0547 550.034 20.1294 550.009C20.2041 549.984 20.2854 550.024 20.3113 550.099C20.7417 551.343 22.035 552.318 23.4624 552.47C24.7669 552.607 26.1938 552.097 27.282 551.107C28.2247 550.244 28.9537 549.011 29.3925 547.524C29.4143 547.449 29.4908 547.405 29.5706 547.431C29.6465 547.454 29.691 547.531 29.6659 547.61C29.2129 549.138 28.4559 550.422 27.4764 551.321C26.335 552.367 24.8261 552.903 23.4399 552.758C22.6001 552.672 21.8156 552.33 21.1979 551.82L21.1899 551.813Z" fill="#030912"/>
<path d="M51.1056 577.539C48.4622 579.7 40.1963 582.922 37.2351 582.437C34.2772 581.949 34.1094 575.168 34.1094 575.168C32.2189 575.054 30.8766 569.172 31.2043 567.313C31.5361 565.458 43.5586 560.394 43.5586 560.394L43.587 560.384C43.9088 560.329 46.657 559.903 47.5586 560.969C48.5185 562.103 51.5699 566.334 49.3337 569.252C49.3337 569.252 53.9678 572.401 51.1015 577.535L51.1056 577.539Z" fill="#FAB6CA"/>
<path d="M33.005 574.829C32.8005 574.66 32.6021 574.443 32.4219 574.187C31.0967 572.311 30.7514 568.588 31.0685 567.281C31.4736 565.606 40.5268 561.293 40.909 561.108C40.979 561.072 41.0635 561.109 41.1 561.179C41.1365 561.249 41.1049 561.337 41.0309 561.369C38.4409 562.6 31.6524 566.068 31.3404 567.352C31.0411 568.58 31.3879 572.245 32.6485 574.027C33.0774 574.636 33.5748 574.973 34.1211 575.031C36.7753 575.315 44.7954 573.085 49.239 569.154C49.2962 569.101 49.3851 569.108 49.4387 569.165C49.4923 569.223 49.4865 569.312 49.4294 569.364C44.9285 573.348 36.7894 575.6 34.0907 575.313C33.7003 575.271 33.3347 575.109 32.9977 574.83L33.005 574.829Z" fill="#030912"/>
<path d="M36.0565 582.384C34.3358 580.961 33.9851 575.431 33.9667 575.176C33.9627 575.099 34.0217 575.028 34.1026 575.028C34.1795 575.025 34.2517 575.084 34.2525 575.165C34.2558 575.234 34.6742 581.875 36.6729 582.406C38.8297 582.973 47.8978 580.487 51.2046 577.099C51.2578 577.043 51.3387 577.043 51.4069 577.099C51.4638 577.153 51.462 577.245 51.4088 577.301C48.0416 580.746 38.804 583.266 36.5979 582.684C36.4018 582.636 36.2184 582.531 36.05 582.391L36.0565 582.384Z" fill="#030912"/>
<path d="M40.5557 569.252C40.4063 568.682 40.0306 568.164 39.4972 567.797C38.2287 566.922 36.7064 567.032 35.3795 567.258C35.3001 567.272 35.2133 567.287 35.1379 567.305C35.0512 567.32 34.9644 567.335 34.8784 567.358C34.3926 567.463 33.9218 567.608 33.4652 567.785C32.9631 567.984 32.6171 568.419 32.5204 568.92C32.4797 569.1 32.4762 569.284 32.5098 569.472L32.5142 569.516C32.7719 570.797 33.1705 572.054 33.688 573.25C33.7924 573.483 33.9441 573.675 34.1286 573.827C34.3532 574.013 34.6263 574.132 34.9164 574.165C35.0214 574.185 35.1282 574.186 35.2375 574.176C35.3614 574.165 35.4944 574.135 35.6187 574.091C36.3457 573.824 37.0384 573.508 37.7212 573.131C37.7977 573.088 37.8815 573.044 37.9645 572.992C38.2495 572.827 38.5329 572.647 38.8157 572.461C39.756 571.829 40.9658 570.806 40.5557 569.252ZM38.6522 572.225C38.3972 572.395 38.1447 572.554 37.8882 572.709C37.8117 572.752 37.7352 572.796 37.6547 572.836C36.966 573.228 36.2635 573.556 35.522 573.824C35.3693 573.878 35.2137 573.903 35.0584 573.895C34.9483 573.897 34.8434 573.877 34.7369 573.843C34.399 573.737 34.1022 573.492 33.9529 573.141L33.9489 573.138C33.5807 572.293 33.2792 571.416 33.0458 570.523C32.9483 570.175 32.8686 569.822 32.7995 569.465L32.7955 569.461C32.6771 568.869 33.0037 568.278 33.5733 568.055C34.0291 567.871 34.5145 567.724 35.0116 567.621C35.0976 567.599 35.1876 567.58 35.2743 567.565C35.3286 567.556 35.3789 567.544 35.4332 567.536C36.6993 567.327 38.1553 567.215 39.333 568.028C39.3964 568.074 39.4598 568.12 39.516 568.166C39.897 568.481 40.1622 568.887 40.2798 569.325C40.6425 570.699 39.5234 571.637 38.6522 572.225Z" fill="#030912"/>
<path d="M43.376 577.212C43.2266 576.641 42.8469 576.12 42.3135 575.753C41.0491 574.882 39.5267 574.992 38.2031 575.213C37.5376 575.324 36.8901 575.503 36.2856 575.745C35.5885 576.016 35.1909 576.742 35.3378 577.471C35.5914 578.749 35.9901 580.006 36.5116 581.205C36.612 581.435 36.7644 581.634 36.9449 581.783C37.354 582.122 37.9176 582.24 38.4423 582.046C39.5632 581.638 40.6053 581.104 41.632 580.417C42.5756 579.781 43.7822 578.762 43.376 577.212ZM41.4718 580.178C40.4663 580.855 39.438 581.381 38.3383 581.78C37.7283 582.004 37.0364 581.705 36.7725 581.094C36.2565 579.913 35.8673 578.677 35.6159 577.421C35.4974 576.829 35.8233 576.23 36.3929 576.007C36.9803 575.778 37.606 575.601 38.2536 575.495C39.5189 575.279 40.9756 575.175 42.1533 575.988C42.6273 576.313 42.9679 576.774 43.1034 577.28C43.4628 578.659 42.3437 579.596 41.4718 580.178Z" fill="#030912"/>
<path d="M-0.252538 582.39L29.8462 608.694L22.0445 617.513L-7.46934 590.445L-0.252538 582.39Z" fill="#030912"/>
<path d="M-0.210893 589.381C0.486895 589.958 1.51487 589.866 2.08515 589.176C2.65543 588.486 2.55206 587.459 1.85427 586.882C1.15649 586.305 0.128519 586.397 -0.441761 587.087C-1.01204 587.777 -0.908681 588.804 -0.210893 589.381Z" fill="#FFFEFF"/>
<path d="M3.99286 597.568C3.42248 598.258 2.39473 598.35 1.69682 597.774C0.998915 597.197 0.895569 596.17 1.46595 595.48C2.03633 594.79 3.06408 594.698 3.76199 595.275C4.4599 595.851 4.56324 596.878 3.99286 597.568Z" fill="#FFFEFF"/>
<path d="M11.0632 596.935C10.4928 597.626 9.46505 597.717 8.76714 597.141C8.06923 596.564 7.96588 595.537 8.53626 594.847C9.10664 594.157 10.1344 594.065 10.8323 594.642C11.5302 595.219 11.6336 596.245 11.0632 596.935Z" fill="#FFFEFF"/>
<path d="M13.2402 603.842C13.3303 604.738 12.678 605.527 11.7815 605.607C10.8849 605.687 10.0867 605.028 9.99658 604.132C9.90643 603.236 10.5588 602.447 11.4553 602.367C12.3519 602.287 13.15 602.947 13.2402 603.842Z" fill="#FFFEFF"/>
<path d="M21.1513 604.071C21.2415 604.966 20.5891 605.756 19.6926 605.836C18.796 605.916 17.9979 605.256 17.9077 604.361C17.8176 603.465 18.4699 602.676 19.3664 602.596C20.263 602.515 21.0612 603.175 21.1513 604.071Z" fill="#FFFEFF"/>
<path d="M23.1206 611.832C23.2107 612.728 22.5584 613.517 21.6618 613.597C20.7653 613.678 19.9671 613.018 19.877 612.122C19.7868 611.227 20.4391 610.437 21.3357 610.357C22.2322 610.277 23.0304 610.937 23.1206 611.832Z" fill="#FFFEFF"/>
<path d="M29.1155 609.469L26.9198 611.913L30.1823 612.14L29.1155 609.469Z" fill="#FFFEFF"/>
<path d="M25.111 613.997L22.9161 616.449L26.1818 616.671L25.111 613.997Z" fill="#FFFEFF"/>
</g>
<path d="M381.033 354.7L381.62 356.142C381.631 356.22 381.632 356.299 381.653 356.373C381.936 357.331 382.059 358.31 382.079 359.304C382.127 361.663 381.631 363.922 380.88 366.122C379.178 371.112 376.555 375.586 373.505 379.817C373.229 380.198 372.852 380.333 372.394 380.231C370.202 379.742 367.994 379.322 365.823 378.74C362.391 377.821 359.077 376.563 355.995 374.724C354.235 373.674 352.619 372.438 351.338 370.801C350.912 370.255 350.559 369.65 350.174 369.073L349.562 367.568C349.545 367.468 349.533 367.367 349.506 367.272C348.915 365.266 348.863 363.257 349.438 361.257C350.155 358.767 351.588 356.826 353.897 355.663C356.669 354.268 359.456 354.452 362.199 355.91C362.648 356.149 363.068 356.444 363.474 356.698C363.686 355.975 363.834 355.234 364.116 354.55C365.542 351.094 368.078 349.076 371.818 348.905C375.136 348.753 377.786 350.255 379.847 352.869C380.295 353.438 380.641 354.09 381.035 354.703L381.033 354.7Z" fill="#FF005A"/>
<path d="M-5.36044 94.9926C-5.69799 94.9926 -6.02054 94.7915 -6.15556 94.4639C-7.31073 91.6789 -7.28072 89.0875 -6.06554 86.7493C-4.22027 83.2122 0.400403 80.457 6.94886 78.9826C11.9146 77.8656 14.435 75.6391 14.435 72.3701C14.435 71.3052 14.1649 70.2031 13.7223 69.1234C11.547 68.8404 9.34171 67.999 7.45143 66.8596C4.12095 64.8416 2.55322 62.3322 3.45335 60.4557C3.67838 59.9865 4.41349 58.9291 6.25126 59.3461C8.92915 59.9493 12.8672 63.4343 14.8775 67.4777C16.9703 67.5671 18.9806 67.0011 20.3158 65.2512C22.3636 62.5779 20.8484 60.2844 18.208 56.7547C15.6951 53.3964 12.8447 49.5912 14.5025 44.5871C14.6525 44.1404 15.1401 43.8946 15.5901 44.0436C16.0402 44.1925 16.2877 44.6765 16.1377 45.1233C14.7575 49.2784 17.2179 52.5624 19.5882 55.7346C22.0636 59.0334 24.6214 62.4513 21.6885 66.2863C20.1583 68.2819 17.968 69.1457 15.5976 69.2202C15.9502 70.2702 16.1527 71.3276 16.1527 72.3701C16.1527 75.2444 14.6225 79.0124 7.32391 80.658C1.27803 82.0207 -2.93009 84.4632 -4.53532 87.5461C-5.51046 89.4151 -5.51796 91.5225 -4.56532 93.816C-4.3853 94.2554 -4.59533 94.7543 -5.03039 94.933C-5.13541 94.9777 -5.24792 95 -5.36044 95V94.9926ZM5.45614 60.962C5.11109 60.962 5.03608 61.1184 5.00608 61.1929C4.54101 62.1535 5.98122 63.963 8.34406 65.3927C9.53674 66.115 11.0895 66.7926 12.7097 67.165C10.7744 64.0225 7.66146 61.4163 5.8687 61.0141C5.70368 60.9769 5.56866 60.962 5.46364 60.962H5.45614Z" fill="#FFC854"/>
<path d="M28.9169 639.612L12.4807 681.529L6.6405 669.644L-21.5659 710.711L6.18219 652.516L10.2199 666.064L28.9169 639.612Z" fill="#F9DC30"/>
<path d="M407.523 320.188C439.884 320.188 466.117 293.955 466.117 261.594C466.117 229.234 439.884 203 407.523 203C375.162 203 348.929 229.234 348.929 261.594C348.929 293.955 375.162 320.188 407.523 320.188Z" fill="#FF7A00"/>
<path d="M382.73 217.934C390.011 225.986 401.597 230.238 414.512 229.653C423.52 229.228 433.034 223.249 440.766 213.364C440.049 212.859 439.331 212.38 438.587 211.929C431.359 221.123 422.617 226.677 414.406 227.049C402.262 227.607 391.42 223.647 384.67 216.18C382.863 214.187 381.455 211.982 380.392 209.67C379.621 210.069 378.85 210.494 378.106 210.945C379.276 213.443 380.79 215.808 382.73 217.961V217.934Z" fill="white"/>
<path d="M370.879 307.326C371.862 291.409 376.114 275.492 382.757 264.331C386.637 265.819 390.941 266.802 395.672 267.121C407.869 267.892 416.532 264.437 418.817 257.9C420.225 253.861 418.684 249.37 414.937 246.739C410.021 243.285 400.827 242.78 389.799 251.735C386.823 254.153 384.086 257.342 381.641 261.089C372.898 257.209 365.484 250.141 359.425 239.936C358.15 237.784 357.034 235.605 356.051 233.532C355.546 234.462 355.067 235.392 354.616 236.349C359.612 246.261 367.69 257.475 380.286 263.268C373.749 274.349 369.497 289.602 368.301 305.094C369.151 305.838 370.002 306.582 370.879 307.273V307.326ZM391.446 253.781C401.332 245.729 409.277 245.969 413.423 248.892C416.239 250.858 417.382 254.073 416.346 257.05C414.884 261.195 408.746 265.341 395.804 264.543C391.712 264.278 387.806 263.48 384.139 262.152C386.344 258.803 388.789 255.987 391.446 253.808V253.781Z" fill="white"/>
<path d="M466.781 257.129C466.489 256.864 466.17 256.598 465.878 256.332C465.984 257.581 466.064 258.83 466.09 260.106C479.51 273.047 485.064 285.084 481.264 293.269C477.809 300.736 466.967 304.35 450.757 303.473C434.149 302.57 414.06 296.989 394.209 287.768C374.332 278.547 357.113 266.802 345.686 254.711C334.552 242.913 330.327 232.31 333.782 224.843C336.891 218.146 346.324 214.506 359.85 214.506C363.49 214.506 367.423 214.771 371.595 215.303C372.579 214.532 373.588 213.815 374.625 213.097C373.881 212.991 373.137 212.858 372.393 212.752C350.921 209.935 335.961 213.921 331.416 223.727C327.457 232.23 331.868 243.869 343.773 256.492C355.412 268.822 372.924 280.78 393.093 290.107C413.262 299.461 433.671 305.121 450.598 306.051C452.219 306.131 453.787 306.184 455.301 306.184C470.05 306.184 480.015 302.038 483.602 294.332C488.013 284.819 481.875 271.266 466.754 257.103L466.781 257.129Z" fill="#FFD77F"/>
<defs>
<filter id="filter0_d_2858_23089" x="-11" y="-11" width="411" height="863" filterUnits="userSpaceOnUse" color-interpolation-filters="sRGB">
<feFlood flood-opacity="0" result="BackgroundImageFix"/>
<feColorMatrix in="SourceAlpha" type="matrix" values="0 0 0 0 0 0 0 0 0 0 0 0 0 0 0 0 0 0 127 0" result="hardAlpha"/>
<feOffset dy="4"/>
<feGaussianBlur stdDeviation="2"/>
<feComposite in2="hardAlpha" operator="out"/>
<feColorMatrix type="matrix" values="0 0 0 0 0 0 0 0 0 0 0 0 0 0 0 0 0 0 0.25 0"/>
<feBlend mode="normal" in2="BackgroundImageFix" result="effect1_dropShadow_2858_23089"/>
<feBlend mode="normal" in="SourceGraphic" in2="effect1_dropShadow_2858_23089" result="shape"/>
</filter>
<filter id="filter1_f_2858_23089" x="-434" y="116" width="982" height="982" filterUnits="userSpaceOnUse" color-interpolation-filters="sRGB">
<feFlood flood-opacity="0" result="BackgroundImageFix"/>
<feBlend mode="normal" in="SourceGraphic" in2="BackgroundImageFix" result="shape"/>
<feGaussianBlur stdDeviation="100" result="effect1_foregroundBlur_2858_23089"/>
</filter>
<filter id="filter2_f_2858_23089" x="-136" y="-380" width="982" height="982" filterUnits="userSpaceOnUse" color-interpolation-filters="sRGB">
<feFlood flood-opacity="0" result="BackgroundImageFix"/>
<feBlend mode="normal" in="SourceGraphic" in2="BackgroundImageFix" result="shape"/>
<feGaussianBlur stdDeviation="100" result="effect1_foregroundBlur_2858_23089"/>
</filter>
<filter id="filter3_f_2858_23089" x="-19.127" y="507.576" width="101.461" height="119.984" filterUnits="userSpaceOnUse" color-interpolation-filters="sRGB">
<feFlood flood-opacity="0" result="BackgroundImageFix"/>
<feBlend mode="normal" in="SourceGraphic" in2="BackgroundImageFix" result="shape"/>
<feGaussianBlur stdDeviation="4" result="effect1_foregroundBlur_2858_23089"/>
</filter>
</defs>
</svg>
