<svg width="21" height="18" viewBox="0 0 21 18" fill="none" xmlns="http://www.w3.org/2000/svg">
<rect x="6.26562" y="4.05859" width="9.17647" height="9.88235" fill="white"/>
<path fill-rule="evenodd" clip-rule="evenodd" d="M18.261 9.001C18.261 9.8145 18.929 10.4764 19.75 10.4764C20.164 10.4764 20.5 10.8093 20.5 11.2195V13.8958C20.5 16.159 18.642 18 16.358 18H4.643C2.359 18 0.5 16.159 0.5 13.8958V11.2195C0.5 10.8093 0.836 10.4764 1.25 10.4764C2.072 10.4764 2.74 9.8145 2.74 9.001C2.74 8.2083 2.099 7.6118 1.25 7.6118C1.051 7.6118 0.861 7.5335 0.72 7.3938C0.579 7.2541 0.5 7.0648 0.5 6.86866L0.502 4.10514C0.502 1.84201 2.36 0 4.644 0H16.356C18.64 0 20.499 1.84201 20.499 4.10514L20.5 6.78245C20.5 6.97864 20.421 7.1689 20.281 7.3076C20.14 7.4473 19.95 7.5256 19.75 7.5256C18.929 7.5256 18.261 8.1875 18.261 9.001ZM12.752 9.648L13.931 8.5105C14.136 8.3143 14.207 8.025 14.118 7.7575C14.03 7.4899 13.8 7.2997 13.522 7.261L11.893 7.0252L11.164 5.5627C11.039 5.31102 10.785 5.15446 10.502 5.15347H10.5C10.218 5.15347 9.964 5.31003 9.837 5.56171L9.108 7.0252L7.482 7.26C7.201 7.2997 6.971 7.4899 6.882 7.7575C6.794 8.025 6.865 8.3143 7.069 8.5105L8.248 9.648L7.97 11.2562C7.922 11.5336 8.035 11.8091 8.265 11.9746C8.395 12.0667 8.546 12.1143 8.699 12.1143C8.816 12.1143 8.934 12.0855 9.042 12.0291L10.5 11.2701L11.955 12.0271C12.207 12.1608 12.506 12.14 12.735 11.9736C12.966 11.8091 13.079 11.5336 13.031 11.2562L12.752 9.648Z" fill="url(#paint0_linear_2858_22919)"/>
<defs>
<linearGradient id="paint0_linear_2858_22919" x1="0.617532" y1="-0.176471" x2="20.3822" y2="18.1765" gradientUnits="userSpaceOnUse">
<stop stop-color="#FF4D00"/>
<stop offset="1" stop-color="#FF005A"/>
</linearGradient>
</defs>
</svg>
