<svg width="54" height="24" viewBox="0 0 54 24" fill="none" xmlns="http://www.w3.org/2000/svg">
<circle cx="11.5" cy="13" r="11" fill="url(#paint0_linear_2858_22909)"/>
<path d="M13.7028 15.5684C13.7845 15.5257 13.8663 15.4829 13.948 15.4402C14.0298 15.4402 14.0707 15.4402 14.1116 15.4402C14.2342 15.4402 14.316 15.4402 14.3977 15.5257C14.4795 15.5684 14.5613 15.6539 14.6839 15.825L15.7059 17.4497C15.7468 17.4925 15.7468 17.578 15.7877 17.6207C15.8286 17.6635 15.8286 17.749 15.8286 17.7918C15.8286 17.92 15.7877 18.0483 15.7059 18.1338C15.5833 18.1766 15.5015 18.2621 15.4198 18.3476C14.9292 18.6896 14.3569 18.9889 13.7845 19.2455C13.1713 19.4592 12.5581 19.5875 11.904 19.5875C11.3316 19.5875 10.8002 19.502 10.3096 19.3737C9.73725 19.2027 9.24668 18.9889 8.83786 18.6896C8.38817 18.4331 7.97935 18.091 7.61142 17.7062C7.24349 17.3642 6.91643 16.9366 6.67114 16.4663C6.42586 15.996 6.22145 15.4829 6.05792 14.9271C5.93528 14.414 5.85352 13.8154 5.85352 13.2596C5.85352 12.661 5.93528 12.1052 6.05792 11.5493C6.22145 10.9935 6.42586 10.4804 6.67114 10.0101C6.91643 9.53978 7.24349 9.11221 7.61142 8.72741C7.97935 8.3426 8.38817 8.00055 8.83786 7.74401C9.28756 7.48747 9.73725 7.27369 10.2687 7.10267C10.7593 7.01715 11.2908 6.93164 11.8631 6.93164C12.5172 6.93164 13.1304 7.01715 13.7028 7.23094C14.2751 7.40196 14.8066 7.70125 15.2971 8.04331L15.2563 8.00055C15.3789 8.08606 15.5015 8.17157 15.5833 8.29984C15.6651 8.42811 15.7059 8.55638 15.7059 8.72741C15.7059 8.85568 15.6651 8.94119 15.5833 9.06946L14.7657 10.5232C14.6021 10.8652 14.3977 10.9935 14.1525 10.9935C14.1116 10.9935 14.0298 10.9935 13.948 10.9507C13.8663 10.908 13.7845 10.8652 13.7028 10.8225C13.4166 10.6087 13.1304 10.4804 12.8034 10.3521C12.4763 10.2239 12.1901 10.1811 11.8222 10.1811C11.4543 10.1811 11.0863 10.2666 10.7593 10.4377C10.4322 10.6087 10.1461 10.8225 9.94166 11.079C9.69637 11.3783 9.53285 11.6776 9.4102 12.0624C9.24668 12.4472 9.2058 12.832 9.2058 13.2596C9.2058 13.6871 9.28756 14.0719 9.4102 14.4568C9.53285 14.7988 9.69637 15.1409 9.94166 15.3974C10.187 15.6539 10.4322 15.8677 10.7593 16.0387C11.0863 16.2098 11.4543 16.2953 11.8222 16.2953C12.1901 16.2953 12.5172 16.2098 12.8034 16.1243C13.1304 15.9532 13.4166 15.7822 13.7028 15.5684Z" fill="white"/>
<path d="M36.276 21H32.988V10.584H29.244V8.352C30.364 8.336 31.3 8.056 32.052 7.512C32.804 6.952 33.26 6.256 33.42 5.424H36.276V21ZM42.9294 9.264C42.3694 10.144 42.0894 11.464 42.0894 13.224C42.0894 14.984 42.3694 16.304 42.9294 17.184C43.4574 18.032 44.2414 18.456 45.2814 18.456C46.3054 18.456 47.0814 18.032 47.6094 17.184C48.1854 16.32 48.4734 15 48.4734 13.224C48.4734 11.448 48.1854 10.128 47.6094 9.264C47.0814 8.416 46.3054 7.992 45.2814 7.992C44.2414 7.992 43.4574 8.416 42.9294 9.264ZM40.1454 18.768C39.2334 17.376 38.7774 15.528 38.7774 13.224C38.7774 10.92 39.2334 9.072 40.1454 7.68C41.3134 5.936 43.0254 5.064 45.2814 5.064C47.5374 5.064 49.2414 5.936 50.3934 7.68C51.3214 9.088 51.7854 10.936 51.7854 13.224C51.7854 15.512 51.3214 17.36 50.3934 18.768C49.2414 20.512 47.5374 21.384 45.2814 21.384C43.0254 21.384 41.3134 20.512 40.1454 18.768Z" fill="white"/>
<defs>
<linearGradient id="paint0_linear_2858_22909" x1="3.25" y1="5.3" x2="18.1" y2="23.45" gradientUnits="userSpaceOnUse">
<stop stop-color="#FBC917"/>
<stop offset="1" stop-color="#FA982B"/>
</linearGradient>
</defs>
</svg>
