<svg width="31" height="30" viewBox="0 0 31 30" fill="none" xmlns="http://www.w3.org/2000/svg">
<path d="M15.5 0C7.21545 0 0.5 6.71545 0.5 15C0.5 23.2845 7.21545 30 15.5 30C23.7845 30 30.5 23.2845 30.5 15C30.5 6.71545 23.7845 0 15.5 0ZM16.6228 20.7582V22.6224H14.8594V20.7726C12.4554 20.4415 11.3181 18.6996 11.1598 17.2313L13.3047 16.7131C13.4055 17.7999 14.1324 18.8004 15.7231 18.8004C16.846 18.8004 17.501 18.2678 17.501 17.5048C17.501 16.9146 17.0691 16.4683 16.2054 16.2812L14.6147 15.9357C12.7505 15.5182 11.5917 14.345 11.5917 12.6895C11.5917 10.8613 13.0096 9.50816 14.8594 9.22025V7.37044H16.6228V9.27063C18.6094 9.63052 19.4731 11.0125 19.7178 12.1713L17.5945 12.7759C17.4938 12.1713 17.0403 11.1708 15.6224 11.1708C14.5139 11.1708 13.9093 11.8114 13.9093 12.5168C13.9093 13.0494 14.2908 13.5029 15.1041 13.6756L16.6732 14.0355C18.8469 14.5178 19.833 15.8133 19.833 17.368C19.833 18.9227 18.6958 20.4271 16.6228 20.751V20.7582Z" fill="black"/>
</svg>
