<svg width="11" height="14" viewBox="0 0 11 14" fill="none" xmlns="http://www.w3.org/2000/svg">
<path d="M8.70276 9.56842C8.78452 9.52567 8.86628 9.48291 8.94805 9.44015C9.02981 9.44015 9.07069 9.44015 9.11157 9.44015C9.23422 9.44015 9.31598 9.44015 9.39774 9.52567C9.4795 9.56842 9.56127 9.65393 9.68391 9.82496L10.7059 11.4497C10.7468 11.4925 10.7468 11.578 10.7877 11.6207C10.8286 11.6635 10.8286 11.749 10.8286 11.7918C10.8286 11.92 10.7877 12.0483 10.7059 12.1338C10.5833 12.1766 10.5015 12.2621 10.4198 12.3476C9.9292 12.6896 9.35686 12.9889 8.78452 13.2455C8.1713 13.4592 7.55808 13.5875 6.90397 13.5875C6.33163 13.5875 5.80017 13.502 5.3096 13.3737C4.73725 13.2027 4.24668 12.9889 3.83786 12.6896C3.38817 12.4331 2.97935 12.091 2.61142 11.7062C2.24349 11.3642 1.91643 10.9366 1.67114 10.4663C1.42586 9.99599 1.22145 9.48291 1.05792 8.92708C0.935279 8.414 0.853516 7.81541 0.853516 7.25958C0.853516 6.66099 0.935279 6.10516 1.05792 5.54933C1.22145 4.99349 1.42586 4.48042 1.67114 4.0101C1.91643 3.53978 2.24349 3.11221 2.61142 2.72741C2.97935 2.3426 3.38817 2.00055 3.83786 1.74401C4.28756 1.48747 4.73725 1.27369 5.26871 1.10267C5.75929 1.01715 6.29075 0.931641 6.86309 0.931641C7.51719 0.931641 8.13042 1.01715 8.70276 1.23094C9.2751 1.40196 9.80656 1.70125 10.2971 2.04331L10.2563 2.00055C10.3789 2.08606 10.5015 2.17157 10.5833 2.29984C10.6651 2.42811 10.7059 2.55638 10.7059 2.72741C10.7059 2.85568 10.6651 2.94119 10.5833 3.06946L9.76567 4.52317C9.60215 4.86522 9.39774 4.99349 9.15245 4.99349C9.11157 4.99349 9.02981 4.99349 8.94805 4.95074C8.86628 4.90798 8.78452 4.86522 8.70276 4.82247C8.41659 4.60869 8.13042 4.48042 7.80336 4.35215C7.47631 4.22388 7.19014 4.18112 6.82221 4.18112C6.45428 4.18112 6.08634 4.26664 5.75929 4.43766C5.43224 4.60869 5.14607 4.82247 4.94166 5.07901C4.69637 5.3783 4.53285 5.67759 4.4102 6.0624C4.24668 6.44721 4.2058 6.83202 4.2058 7.25958C4.2058 7.68714 4.28756 8.07195 4.4102 8.45676C4.53285 8.79881 4.69637 9.14086 4.94166 9.3974C5.18695 9.65394 5.43224 9.86772 5.75929 10.0387C6.08634 10.2098 6.45428 10.2953 6.82221 10.2953C7.19014 10.2953 7.51719 10.2098 7.80336 10.1243C8.13042 9.95323 8.41659 9.7822 8.70276 9.56842Z" fill="white"/>
</svg>
