<svg width="910" height="980" viewBox="0 0 910 980" fill="none" xmlns="http://www.w3.org/2000/svg">
<g opacity="0.6">
<path d="M705.896 556.801L327.433 410.219L633.586 157.436L705.896 556.801Z" fill="#2E3788"/>
<path d="M480.148 283.393L99.5276 134.199L405.681 -118.584L480.148 283.393Z" fill="#2E3788"/>
<path d="M934.52 833.693L553.899 684.499L860.052 431.715L934.52 833.693Z" fill="#2E3788"/>
</g>
<path d="M224.899 442.798C257.839 442.798 284.542 416.095 284.542 383.155C284.542 350.215 257.839 323.512 224.899 323.512C191.959 323.512 165.256 350.215 165.256 383.155C165.256 416.095 191.959 442.798 224.899 442.798Z" fill="#FF7A00"/>
<path d="M281.946 365.707C281.568 364.462 281.135 363.218 280.675 362.001C279.133 366.735 274.616 370.116 268.422 374.66C263.147 378.528 256.602 383.343 250.056 390.511C234.286 407.795 231.257 424.322 235.449 441.85C236.342 441.687 237.234 441.498 238.1 441.309C234.097 424.538 236.991 408.742 252.003 392.323C258.387 385.344 264.824 380.611 269.991 376.824C275.238 372.983 279.593 369.764 281.946 365.707Z" fill="white"/>
<path d="M199.664 338.713C207.075 346.909 218.868 351.237 232.014 350.642C241.184 350.209 250.867 344.123 258.739 334.061C258.008 333.547 257.278 333.06 256.521 332.6C249.163 341.959 240.264 347.612 231.906 347.991C219.545 348.559 208.509 344.529 201.638 336.928C199.799 334.899 198.365 332.654 197.283 330.301C196.499 330.707 195.714 331.139 194.957 331.599C196.147 334.142 197.689 336.549 199.664 338.74V338.713Z" fill="white"/>
<path d="M187.599 429.705C188.6 413.503 192.928 397.3 199.69 385.94C203.639 387.454 208.021 388.455 212.836 388.78C225.251 389.564 234.069 386.048 236.395 379.394C237.829 375.282 236.26 370.711 232.446 368.033C227.442 364.517 218.083 364.003 206.858 373.118C203.828 375.58 201.042 378.826 198.554 382.64C189.655 378.69 182.108 371.495 175.941 361.109C174.642 358.918 173.506 356.7 172.506 354.59C171.992 355.537 171.505 356.483 171.045 357.457C176.13 367.546 184.353 378.961 197.174 384.858C190.52 396.137 186.192 411.663 184.975 427.433C185.841 428.19 186.706 428.948 187.599 429.651V429.705ZM208.535 375.201C218.597 367.005 226.685 367.249 230.904 370.224C233.772 372.226 234.935 375.499 233.88 378.528C232.392 382.748 226.144 386.967 212.971 386.156C208.805 385.886 204.829 385.074 201.096 383.722C203.341 380.313 205.83 377.446 208.535 375.228V375.201Z" fill="white"/>
<path d="M285.218 378.61C284.92 378.34 284.596 378.069 284.298 377.799C284.406 379.07 284.487 380.341 284.514 381.64C298.174 394.813 303.827 407.066 299.959 415.397C296.443 422.998 285.407 426.676 268.907 425.784C252.002 424.864 231.552 419.184 211.347 409.798C191.114 400.412 173.586 388.456 161.955 376.149C150.622 364.139 146.321 353.347 149.837 345.746C153.002 338.929 162.605 335.224 176.373 335.224C180.078 335.224 184.082 335.494 188.328 336.035C189.329 335.251 190.357 334.521 191.412 333.79C190.654 333.682 189.897 333.547 189.14 333.439C167.284 330.571 152.055 334.629 147.43 344.61C143.4 353.265 147.89 365.113 160.008 377.961C171.855 390.512 189.681 402.684 210.211 412.178C230.741 421.699 251.515 427.461 268.745 428.408C270.395 428.489 271.991 428.543 273.533 428.543C288.545 428.543 298.688 424.323 302.34 416.479C306.83 406.795 300.582 393 285.191 378.583L285.218 378.61Z" fill="#FFD77F"/>
<g clip-path="url(#clip0_2530_46827)">
<path d="M722.878 341.305L632.515 383.683L680.854 296.15L612.866 223.081L710.741 242.05L759.08 154.517L771.225 253.773L869.1 272.743L778.729 315.12L790.874 414.375L722.878 341.305Z" fill="white"/>
<path d="M757.649 161.899L769.131 255.734L861.657 273.666L776.224 313.727L787.704 407.569L723.423 338.492L637.99 378.553L683.698 295.794L619.417 226.717L711.95 244.651L757.649 161.899Z" fill="#FD7474"/>
<path d="M686.809 261.698C686.816 261.053 686.495 259.989 685.071 259.713C684.01 259.507 683.181 260.056 683.036 260.801C682.915 261.425 683.215 261.988 684.01 262.307L685.519 262.915C687.488 263.707 688.32 265.257 688.012 266.846C687.676 268.579 685.898 270.048 683.276 269.54C680.299 268.963 679.353 266.784 679.49 265.147L681.625 265C681.508 266.129 682.087 267.283 683.67 267.59C684.844 267.817 685.61 267.358 685.764 266.56C685.891 265.906 685.497 265.301 684.66 264.957L683.153 264.334C681.436 263.623 680.502 262.235 680.832 260.532C681.221 258.525 683.304 257.351 685.433 257.764C688.161 258.292 688.885 260.152 688.889 261.47L686.809 261.698Z" fill="white"/>
<path d="M695.71 262.17L693.929 271.361L691.724 270.934L693.505 261.742L689.952 261.054L690.355 258.971L699.66 260.774L699.256 262.857L695.71 262.17Z" fill="white"/>
<path d="M705.181 270.867L700.62 269.983L699.188 272.379L696.877 271.931L703.374 261.493L705.912 261.985L708.008 274.089L705.628 273.627L705.181 270.867ZM701.736 268.117L704.842 268.719L704.116 264.153L701.736 268.117Z" fill="white"/>
<path d="M713.62 270.673L712.476 270.451L711.635 274.792L709.43 274.365L711.615 263.091L716.002 263.941C718.192 264.365 719.293 266.148 718.914 268.102C718.609 269.676 717.461 270.692 715.901 270.831L717.416 275.913L714.976 275.44L713.62 270.673ZM714.624 268.904C715.73 269.118 716.505 268.606 716.684 267.686C716.869 266.728 716.337 265.986 715.231 265.771L713.458 265.428L712.851 268.56L714.624 268.904Z" fill="white"/>
<path d="M730.59 266.516C733.651 267.109 735.944 269.88 735.238 273.522C734.535 277.148 731.373 278.862 728.312 278.269C725.266 277.679 722.981 274.909 723.684 271.283C724.39 267.641 727.552 265.927 730.59 266.516ZM728.725 276.14C730.467 276.478 732.475 275.613 732.968 273.066C733.462 270.519 731.923 268.967 730.18 268.629C728.453 268.295 726.446 269.16 725.952 271.706C725.459 274.253 726.997 275.806 728.725 276.14Z" fill="white"/>
<path d="M736.047 279.523L738.232 268.249L745.332 269.625L744.928 271.708L740.011 270.755L739.472 273.537L743.843 274.385L743.451 276.407L739.095 275.563L738.245 279.949L736.047 279.523Z" fill="white"/>
<path d="M748.868 282.009L751.053 270.734L758.152 272.11L757.748 274.193L752.831 273.24L752.292 276.023L756.664 276.87L756.272 278.892L751.915 278.048L751.065 282.434L748.868 282.009Z" fill="white"/>
<path d="M764.111 282.289L759.549 281.405L758.118 283.801L755.807 283.353L762.303 272.915L764.841 273.407L766.937 285.51L764.558 285.049L764.111 282.289ZM760.666 279.539L763.772 280.141L763.046 275.575L760.666 279.539Z" fill="white"/>
<path d="M778.749 287.8L780.282 279.894L775.514 287.173L773.688 286.819L771.972 278.354L770.453 286.192L768.362 285.787L770.547 274.513L773.434 275.072L775.235 283.869L780.109 276.366L783.086 276.943L780.901 288.217L778.749 287.8Z" fill="white"/>
<path d="M783.469 288.715L785.654 277.44L792.693 278.805L792.292 280.872L787.443 279.933L786.944 282.51L791.331 283.36L790.952 285.314L786.565 284.464L786.06 287.071L790.909 288.011L790.508 290.079L783.469 288.715Z" fill="white"/>
<path d="M725.127 329.696C714.603 327.657 707.707 317.407 709.753 306.847C711.8 296.288 722.026 289.357 732.55 291.396C743.074 293.436 749.971 303.686 747.924 314.245C745.878 324.805 735.651 331.736 725.127 329.696Z" fill="#EDE0BB"/>
<path d="M745.652 313.804C743.846 323.125 734.852 329.214 725.57 327.415C716.281 325.615 710.222 316.6 712.027 307.287C713.834 297.967 722.828 291.878 732.109 293.676C741.398 295.477 747.459 304.484 745.652 313.804Z" fill="#662FBF"/>
<path d="M737.93 312.363L735.837 310.829L736.015 309.909L738.529 309.269L737.93 312.363ZM733.189 320.475L728.532 313.554C728.453 313.437 728.333 313.366 728.204 313.341L728.197 313.34C728.053 313.312 727.92 313.349 727.81 313.43C727.81 313.43 727.802 313.429 727.801 313.436L720.896 318.116C720.669 318.27 720.609 318.581 720.76 318.816C720.913 319.043 721.223 319.103 721.457 318.951L727.385 314.933L726.116 321.479C726.063 321.752 726.24 322.016 726.513 322.068C726.786 322.121 727.048 321.943 727.101 321.67L728.374 315.101L732.372 321.043C732.524 321.269 732.835 321.33 733.069 321.178C733.303 321.026 733.342 320.702 733.189 320.475ZM733.256 308.814C731.271 308.43 729.88 306.685 729.857 304.732C729.107 306.535 727.164 307.634 725.179 307.249C724.535 307.124 723.959 306.855 723.472 306.484L722.995 308.947C722.764 310.141 723.545 311.302 724.734 311.533L732.068 312.954C733.258 313.185 734.416 312.4 734.648 311.206L735.125 308.743C734.536 308.905 733.9 308.939 733.256 308.814ZM737.096 305.268C737.421 303.588 736.323 301.955 734.648 301.63C732.974 301.306 731.345 302.41 731.019 304.09C730.694 305.77 731.792 307.403 733.467 307.727C735.141 308.052 736.769 306.955 737.096 305.268ZM729.027 303.704C729.352 302.024 728.254 300.391 726.579 300.066C724.905 299.742 723.276 300.846 722.95 302.526C722.625 304.206 723.723 305.839 725.398 306.163C727.071 306.496 728.7 305.391 729.027 303.704Z" fill="white"/>
</g>
<g clip-path="url(#clip1_2530_46827)">
<path d="M430.215 640.838L374.819 622.811L367.541 645.177L364.62 644.227L363.075 648.973L424.313 668.902L425.858 664.155L422.937 663.204L430.215 640.838Z" fill="black"/>
<path d="M490.09 537.933C488.034 535.467 485.322 533.7 482.039 532.631C479.17 531.697 476.375 531.501 474.372 531.506C474.95 529.468 475.325 527.964 475.491 527.277L477.404 527.899L478.638 524.107L404.372 499.939L403.147 503.705L405.06 504.328C404.79 504.982 404.233 506.427 403.501 508.414C401.885 507.232 399.51 505.745 396.64 504.812C393.332 503.735 390.09 503.593 387.011 504.36C383.58 505.24 380.891 507.617 379.234 511.301C375.956 518.564 377.153 529.995 382.239 539.752C385.476 545.969 392.403 553.587 397.439 558.05C401.515 571.616 410.838 581.269 408.847 589.408C406.364 599.583 400.919 602.348 402.18 604.27C403.442 606.193 400.174 610.436 400.174 610.436C400.174 610.436 398.73 614.873 395.092 616.741C391.462 618.584 391.597 620.54 391.942 622.906C392.231 624.74 390.011 626.642 388.986 627.421L416.051 636.229C415.654 634.987 415.005 632.151 416.318 630.838C418.016 629.137 419.25 627.627 417.4 624.001C415.55 620.375 417.002 615.912 417.002 615.912C417.002 615.912 416.858 610.558 419.009 609.746C421.16 608.934 418.384 603.495 422.366 593.807C425.546 586.055 438.79 583.746 450.043 575.169C456.742 574.525 466.825 572.443 473.101 569.321C482.93 564.417 490.651 555.889 492.275 548.087C493.104 544.135 492.329 540.63 490.09 537.933ZM387.35 537.136C383.119 528.969 381.935 519.341 384.496 513.669C385.417 511.629 386.739 510.377 388.421 509.954C390.445 509.443 392.612 509.549 394.861 510.281C397.316 511.08 399.355 512.457 400.566 513.393C400.158 515.172 399.935 517.352 399.799 519.79C397.481 527.966 395.377 538.122 395.62 547.302C395.623 547.645 395.659 547.971 395.662 548.314C392.516 544.894 389.261 540.839 387.35 537.136ZM470.508 564.198C466.758 566.059 461.767 567.43 457.184 568.335C457.388 568.059 457.61 567.818 457.814 567.542C463.405 560.289 467.681 550.839 470.627 542.84C471.952 540.789 473.054 538.894 473.789 537.25C475.319 537.206 477.778 537.293 480.233 538.092C482.482 538.824 484.296 540.013 485.632 541.618C486.743 542.949 487.075 544.74 486.619 546.931C485.36 552.998 478.736 560.086 470.508 564.198Z" fill="#FFE01A"/>
<path d="M413.415 641.249L388.16 633.03L383.543 647.219L408.798 655.437L413.415 641.249Z" fill="#CCCCCC"/>
<path d="M430.215 640.838L410.647 634.47L408.548 640.919L388.101 634.265L383.475 648.48L403.922 655.134L403.368 656.836L364.62 644.227L363.075 648.973L424.313 668.902L425.858 664.155L422.937 663.204L430.215 640.838Z" fill="#3A3A3A"/>
<path d="M413.415 641.249L388.16 633.03L383.543 647.219L408.798 655.437L413.415 641.249Z" fill="#CCCCCC"/>
<path d="M490.09 537.933C488.034 535.467 485.322 533.7 482.039 532.631C479.17 531.698 476.375 531.501 474.372 531.506C474.95 529.468 475.325 527.964 475.491 527.277L477.404 527.899L478.638 524.107L458.165 517.445L456.94 521.211L405.059 504.328L455.374 524.353C455.374 524.353 448.473 545.559 440.457 562.635C432.442 579.712 424.477 581.171 420.403 586.664C416.354 592.165 413.492 602.103 413.059 603.959C412.652 605.824 412.487 607.738 412.513 608.888C412.513 610.029 411.01 612.364 410.518 614.401C410.061 616.421 409.785 619.555 409.287 620.819C408.79 622.084 406.103 622.436 405.62 624.533C405.13 626.656 406.508 628.217 405.896 630.1C405.635 630.9 404.868 631.677 404.074 632.36L416.042 636.255C415.646 635.013 414.996 632.177 416.31 630.864C418.007 629.163 419.242 627.653 417.391 624.027C415.541 620.401 416.994 615.938 416.994 615.938C416.994 615.938 416.849 610.584 419 609.772C421.151 608.96 418.376 603.521 422.358 593.833C425.538 586.081 438.782 583.772 450.035 575.195C456.734 574.551 466.817 572.469 473.092 569.347C482.921 564.443 490.642 555.915 492.266 548.113C493.104 544.135 492.329 540.63 490.09 537.933ZM470.508 564.198C466.758 566.059 461.767 567.43 457.184 568.335C457.388 568.059 457.61 567.818 457.814 567.542C463.405 560.289 467.68 550.839 470.627 542.84C471.952 540.789 473.054 538.894 473.789 537.25C475.319 537.206 477.778 537.293 480.233 538.092C482.482 538.824 484.296 540.013 485.632 541.618C486.743 542.949 487.075 544.74 486.619 546.932C485.36 552.998 478.736 560.086 470.508 564.198Z" fill="#FFC21A"/>
<path d="M392.569 507.395C387.89 507.013 382.722 508.84 381.602 516.322C380.916 520.891 382.737 527.504 385.592 533.226C382.83 526.079 382.341 518.445 384.495 513.668C385.416 511.629 386.739 510.376 388.42 509.953C390.445 509.442 392.611 509.548 394.86 510.28C397.316 511.079 399.355 512.456 400.566 513.392L401.254 511.277C401.228 511.268 397.549 507.817 392.569 507.395Z" fill="#FFC21A"/>
<path d="M387.137 648.388L391.505 649.809L402.895 637.825L398.423 636.37L387.137 648.388Z" fill="#E0E0E0"/>
</g>
<g clip-path="url(#clip2_2530_46827)">
<path d="M312.043 244.663C308.771 244.663 305.798 243.51 303.512 239.914C301.252 236.344 301.177 232.409 302.426 228.663C300.577 228.601 298.791 228.3 297.155 227.686C292.634 226.007 287.6 221.396 289.249 209.018C290.611 198.756 289.212 190.725 285.302 186.415C282.929 183.797 279.607 182.531 275.448 182.694C274.649 182.719 273.987 182.105 273.962 181.303C273.937 180.514 274.549 179.838 275.348 179.8C280.394 179.65 284.453 181.203 287.426 184.473C291.909 189.435 293.571 198.28 292.097 209.394C290.973 217.826 293.021 223.075 298.154 224.98C299.828 225.606 301.714 225.832 303.675 225.757C305.373 222.524 307.984 219.555 310.869 217.262C315.977 213.227 320.836 212.238 323.246 214.756C323.858 215.382 325.095 217.149 323.371 219.793C320.873 223.639 313.105 227.761 305.586 228.538C304.224 231.758 303.962 235.241 305.923 238.361C308.945 243.134 313.429 242.107 320.499 240.04C327.243 238.073 334.874 235.83 341.781 241.368C342.406 241.869 342.505 242.771 342.006 243.397C341.506 244.024 340.607 244.124 339.983 243.623C334.25 239.025 327.668 240.954 321.298 242.809C318.163 243.723 314.966 244.663 312.018 244.663H312.043ZM319.699 216.259C317.963 216.259 315.303 217.462 312.655 219.542C310.819 220.983 308.871 223.013 307.334 225.331C313.404 224.14 319.299 220.795 320.973 218.227C321.623 217.224 321.323 216.911 321.198 216.773C320.861 216.422 320.349 216.259 319.699 216.259Z" fill="#FFC854"/>
</g>
<g clip-path="url(#clip3_2530_46827)">
<path d="M332.245 521.659C331.887 520.104 333.851 511.789 333.574 511.632C333.263 511.462 327.915 517.893 326.497 518.464C324.69 519.182 317.668 516.646 317.942 517.583C318.222 518.528 323.897 523.003 323.662 524.128C323.249 526.065 321.792 533.456 322.347 534.157C323.24 534.296 328.163 528.78 329.439 527.327C330.186 526.482 336.893 528.892 337.788 528.586C338.682 528.295 332.721 523.618 332.261 521.647L332.245 521.659Z" fill="white"/>
</g>
<path d="M503.611 456.736L581.9 428.733C581.9 428.733 587.845 437.727 592.472 440.448C602.187 446.162 645.357 460.49 662.188 470.735C695.046 490.737 725.619 519.88 725.619 519.88L680.188 543.025L613.899 541.31C613.899 541.31 592.185 511.023 574.182 498.45C549.653 481.32 520.251 477.608 515.321 473.877C504.755 465.879 503.611 456.736 503.611 456.736Z" fill="#96DE5D"/>
<path d="M654.763 472.736C639.794 463.847 602.201 450.373 593.046 446.448C587.045 443.877 581.044 434.162 581.044 434.162L513.04 459.306C513.04 459.306 512.469 465.879 526.602 472.755C531.501 475.138 557.134 479.211 578.948 494.071C594.955 504.978 622.474 539.31 622.474 539.31L671.619 540.453L716.194 518.167C716.194 518.167 683.985 490.088 654.763 472.736ZM665.619 537.026L629.331 537.882C629.331 537.882 604.194 507.072 588.186 496.165C566.372 481.303 545.211 473.944 539.899 472.736C521.041 468.45 519.326 461.021 519.326 461.021L579.901 439.307C579.901 439.307 587.33 449.307 602.474 454.736C614.893 459.188 640.361 467.897 655.906 477.881C687.051 497.883 707.051 517.026 707.051 517.026L665.619 537.026Z" fill="#1F9A42"/>
<path d="M613.902 541.312C613.902 541.312 627.617 537.597 633.333 534.168C639.047 530.738 654.191 521.597 654.191 521.597C654.191 521.597 661.578 531.985 665.621 534.739C671.907 539.025 680.194 543.024 680.194 543.024L613.902 541.312Z" fill="#5DB040"/>
<path d="M624.053 541.445C624.053 541.445 630.655 540.491 638.431 536.675C646.418 532.757 652.83 527.673 652.83 527.673C652.83 527.673 655.524 533.741 659.852 536.749C665.904 540.954 674.159 542.838 674.159 542.838L662.347 542.472C662.347 542.472 658.392 541.054 656.184 539.318C654.129 537.705 651.488 534.183 651.488 534.183C651.488 534.183 646.098 537.453 643.687 538.723C638.797 541.299 635.862 541.887 635.862 541.887L624.053 541.445Z" fill="#1E764C"/>
<path d="M639.905 467.594L632.761 464.164C623.904 460.735 609.616 460.163 594.474 468.45C582.65 474.921 571.616 483.308 581.616 493.595C593.305 505.619 607.815 506.496 625.047 497.881C646.19 487.309 650.189 471.021 639.905 467.594Z" fill="#1F9A42"/>
<path d="M632.892 471.515L635.972 469.897L631.038 467.009L627.618 468.992C624.947 468.074 621.832 467.099 619.78 467C613.874 466.715 601.298 470.684 604.186 476.166C606.681 480.899 617.831 484.491 608.648 487.916C604.251 489.557 596.531 485.849 596.572 482.401C596.602 479.821 598.78 478.333 598.78 478.333L595.119 474.845C595.119 474.845 584.344 481.272 592.471 489.383C592.478 489.39 592.488 489.399 592.497 489.406L588.912 491.484L593.501 494.301L596.975 492.477C602.726 495.215 610.018 496.423 616.829 493.29C623.617 490.168 622.76 484.167 617.937 481.218C614.311 479.001 610.527 475.375 613.878 473.41C617.229 471.445 623.098 471.117 626.333 473.616C631.212 477.384 626.968 479.925 626.968 479.925L632.068 484.051C632.068 484.051 637.845 479.087 635.995 474.827C635.466 473.602 634.341 472.489 632.892 471.515Z" fill="#96DE5D"/>
<path d="M666.325 509.153C667.889 512.08 666.156 516.058 662.453 518.037C658.75 520.018 654.478 519.25 652.914 516.322C651.349 513.395 653.083 509.416 656.785 507.438C660.49 505.457 664.76 506.225 666.325 509.153Z" fill="#1F9A42"/>
<path d="M576.859 457.356C577.788 459.497 575.936 462.36 572.722 463.753C569.509 465.146 566.151 464.54 565.226 462.399C564.298 460.258 566.149 457.395 569.364 456.002C572.576 454.611 575.931 455.218 576.859 457.356Z" fill="#1F9A42"/>
<path d="M719.748 681.993L739.538 626.853C739.538 626.853 746.813 627.112 750.255 625.604C757.481 622.437 783.847 603.936 796.546 598.586C821.336 588.144 849.87 582.639 849.87 582.639L841.965 617.394L812.009 653.914C812.009 653.914 786.766 653.99 772.345 659.066C752.698 665.982 737.879 681.001 733.781 682.275C724.995 685.008 719.748 681.993 719.748 681.993Z" fill="#96DE5D"/>
<path d="M794.376 603.581C783.194 608.429 759.708 624.144 753.654 627.714C749.687 630.054 742.009 629.537 742.009 629.537L725.239 677.773C725.239 677.773 728.401 680.723 738.171 675.539C741.558 673.742 754.916 660.981 772.201 654.678C784.886 650.055 814.785 648.339 814.785 648.339L836.936 621.205L844.914 587.266C844.914 587.266 816.204 594.116 794.376 603.581ZM832.524 623.203L817.052 643.918C817.052 643.918 790.026 645.706 777.341 650.33C760.054 656.631 746.951 665.568 743.994 668.066C733.496 676.939 728.886 674.93 728.886 674.93L744.18 632.236C744.18 632.236 752.631 632.066 762.093 625.736C769.852 620.545 785.546 609.73 797.549 604.997C821.597 595.513 840.311 591.943 840.311 591.943L832.524 623.203Z" fill="#1F9A42"/>
<path d="M813.009 655.219C813.009 655.219 817.055 646.095 817.774 641.544C818.492 636.995 820.369 624.916 820.369 624.916C820.369 624.916 828.918 624.925 832.09 623.764C837.023 621.962 842.678 618.929 842.678 618.929L813.009 655.219Z" fill="#5DB040"/>
<path d="M817.574 649.69C817.574 649.69 819.948 645.632 821.361 639.784C822.813 633.777 822.984 628.185 822.984 628.185C822.984 628.185 827.268 629.093 830.69 627.876C835.474 626.174 840.022 622.321 840.022 622.321L834.711 628.759C834.711 628.759 832.267 630.399 830.418 630.94C828.698 631.445 825.744 631.518 825.744 631.518C825.744 631.518 825.086 635.82 824.692 637.668C823.894 641.416 822.923 643.285 822.923 643.285L817.574 649.69Z" fill="#1E764C"/>
<path d="M785.115 609.665L780.182 612.311C774.495 615.921 767.906 623.735 765.559 635.582C763.727 644.833 763.24 654.409 773.005 652.905C784.42 651.148 791.266 643.332 794.361 630.176C798.159 614.034 791.43 605.25 785.115 609.665Z" fill="#1F9A42"/>
<path d="M784.001 615.174L784.514 612.792L780.839 614.41L780.368 617.129C778.714 618.264 776.837 619.625 775.882 620.74C773.136 623.948 769.671 632.614 773.797 633.186C777.359 633.68 784.134 628.847 781.878 635.386C780.799 638.517 775.472 641.374 773.695 639.968C772.364 638.917 772.547 637.096 772.547 637.096L769.12 637.757C769.12 637.757 767.728 646.395 775.527 645.074C775.534 645.073 775.543 645.071 775.55 645.069L775.056 647.918L778.541 646.466L779.119 643.781C783.075 641.643 786.911 638.025 788.275 632.938C789.635 627.868 786.134 625.944 782.477 627.476C779.727 628.627 776.174 629.302 776.625 626.629C777.075 623.957 779.486 620.524 782.211 619.705C786.319 618.471 785.775 621.877 785.775 621.877L790.168 620.662C790.168 620.662 790.123 615.423 787.091 614.755C786.22 614.563 785.146 614.749 784.001 615.174Z" fill="#96DE5D"/>
<path d="M818.428 612.728C820.661 613.023 821.982 615.61 821.379 618.506C820.776 621.403 818.476 623.513 816.243 623.218C814.01 622.923 812.689 620.335 813.292 617.439C813.896 614.541 816.195 612.433 818.428 612.728Z" fill="#1F9A42"/>
<path d="M752.09 639.99C753.622 640.327 754.303 642.526 753.61 644.903C752.919 647.278 751.115 648.932 749.584 648.593C748.052 648.256 747.372 646.057 748.065 643.68C748.757 641.305 750.56 639.654 752.09 639.99Z" fill="#1F9A42"/>
<g clip-path="url(#clip4_2530_46827)">
<g clip-path="url(#clip5_2530_46827)">
<path d="M412.453 335.225C412.453 335.225 422.14 321.562 439.499 313.355C453.583 306.698 495.994 291.892 506.993 286.171C527.097 275.714 540.267 261.692 540.267 261.692L595.283 294.697C595.283 294.697 584.076 308.124 568.994 318.887C553.721 329.788 513.063 335.325 492.972 351.131C479.964 361.364 465.058 388.22 465.058 388.22L412.453 335.225Z" fill="#96DE5D"/>
<path d="M462.951 380.977L419.166 335.14L419.798 334.106C420.071 333.659 426.74 323.036 448.66 313.059C455.518 309.936 465.461 305.993 475.989 301.817C489.874 296.31 504.231 290.617 512.057 286.561C523.184 280.796 539.718 266.506 539.884 266.362L540.785 265.58L590.9 295.164L589.714 296.593C589.603 296.728 586.926 299.937 581.738 304.511C576.972 308.712 569.089 314.908 558.599 320.555C549.253 325.586 539.327 328.468 528.819 331.517C514.123 335.782 498.925 340.193 485.554 351.018C475.507 359.152 464.163 378.865 464.05 379.064L462.951 380.977ZM423.308 334.781L462.302 375.602C465.463 370.34 474.728 355.615 483.461 348.547C497.35 337.306 512.874 332.799 527.886 328.442C538.22 325.443 547.981 322.611 557.016 317.745C572.727 309.288 582.6 299.528 585.919 295.966L541.148 269.536C537.469 272.665 523.665 284.171 513.591 289.391C505.618 293.522 491.182 299.249 477.22 304.786C466.731 308.946 456.826 312.875 450.041 315.962C439.118 320.934 432.236 326.054 428.39 329.473C425.748 331.821 424.137 333.708 423.308 334.781Z" fill="#1F9A42"/>
<path d="M485.612 299.69C478.673 303.019 474.147 311.393 483.815 322.541C493.485 333.688 511.954 335.968 520.036 333.226C528.118 330.485 530.453 316.273 522.574 308.58C514.696 300.89 501.358 292.14 485.612 299.69Z" fill="#1F9A42"/>
<path d="M464.75 334.722C466.436 336.804 466.581 339.437 465.074 340.607C463.565 341.775 460.976 341.038 459.29 338.956C457.604 336.875 457.459 334.242 458.966 333.072C460.473 331.903 463.062 332.643 464.75 334.722Z" fill="#1F9A42"/>
<path d="M551.711 290.301C553.698 292.109 554.246 294.693 552.934 296.071C551.623 297.449 548.949 297.098 546.962 295.289C544.975 293.48 544.427 290.897 545.739 289.518C547.049 288.14 549.722 288.492 551.711 290.301Z" fill="#1F9A42"/>
<path d="M512.931 327.257L516.898 325.435L514.954 323.485C520.462 320.616 520.642 316.551 517.513 313.165C513.309 308.619 506.274 310.264 503.519 311.404C500.764 312.545 498.271 313.269 496.419 312.17C494.891 311.263 495.875 308.596 498.228 307.229C501.694 305.214 502.909 306.767 502.909 306.767L507.373 305.032C507.373 305.032 502.873 300.857 497.085 303.588L495.219 302.169L492.381 303.569L494.033 305.104C490.612 307.299 490.18 311.964 491.743 314.074C495.354 318.951 501.709 317.037 504.164 315.672C507.1 314.04 509.822 313.644 511.014 314.61C514.771 317.661 512.814 319.47 509.597 321.032C505.259 323.137 503.395 320.487 503.395 320.487L497.132 323.581C497.132 323.581 499.244 329.375 511.256 325.24L512.931 327.257Z" fill="#96DE5D"/>
</g>
</g>
<g clip-path="url(#clip6_2530_46827)">
<g clip-path="url(#clip7_2530_46827)">
<path d="M187.109 500.809C187.109 500.809 199.436 502.958 210.544 512.033C219.557 519.398 243.159 543.256 250.549 548.839C264.057 559.045 277.744 563.428 277.744 563.428L273.139 611.138C273.139 611.138 260.484 607.887 248.382 601.168C236.125 594.364 219.338 568.713 202.226 560.233C191.147 554.743 168.244 553.308 168.244 553.308L187.109 500.809Z" fill="#96DE5D"/>
<path d="M172.453 549.562L189.32 505.311L190.221 505.405C190.61 505.446 199.917 506.534 213.684 518.119C217.992 521.744 223.844 527.185 230.041 532.947C238.213 540.546 246.663 548.404 251.911 552.382C259.372 558.037 274.32 564.604 274.47 564.67L275.286 565.027L271.416 608.331L270.071 607.991C269.945 607.959 266.921 607.183 262.169 605.151C257.805 603.284 251.095 599.956 243.918 594.692C237.524 590.001 232.394 584.23 226.964 578.121C219.369 569.576 211.515 560.739 199.919 555.193C191.208 551.027 174.267 549.702 174.097 549.689L172.453 549.562ZM190.892 507.989L175.871 547.399C180.436 547.842 193.344 549.366 200.915 552.989C212.957 558.75 220.98 567.776 228.739 576.504C234.079 582.513 239.123 588.188 245.306 592.722C256.054 600.606 265.807 604.133 269.276 605.229L272.734 566.542C269.443 565.064 257.25 559.445 250.494 554.325C245.148 550.272 236.65 542.372 228.433 534.73C222.26 528.99 216.43 523.569 212.169 519.983C205.308 514.21 199.646 511.211 196.105 509.714C193.673 508.685 191.882 508.205 190.892 507.989Z" fill="#1F9A42"/>
<path d="M234.566 538.756C230.093 535.143 222.991 534.778 218.574 544.879C214.158 554.981 218.548 568.172 222.992 572.744C227.436 577.316 237.773 574.329 240.434 566.545C243.093 558.761 244.714 546.955 234.566 538.756Z" fill="#1F9A42"/>
<path d="M204.235 535.928C203.372 537.734 201.643 538.677 200.369 538.035C199.097 537.392 198.763 535.409 199.626 533.603C200.489 531.798 202.219 530.855 203.492 531.496C204.764 532.138 205.096 534.122 204.235 535.928Z" fill="#1F9A42"/>
<path d="M262.117 580.332C261.535 582.254 259.968 583.452 258.617 583.01C257.266 582.568 256.645 580.651 257.227 578.73C257.81 576.809 259.377 575.61 260.728 576.052C262.078 576.493 262.699 578.41 262.117 580.332Z" fill="#1F9A42"/>
<path d="M224.739 566.034L227.241 568.125L227.933 566.188C231.636 568.982 234.436 567.799 235.716 564.601C237.434 560.306 234.066 556.088 232.412 554.596C230.758 553.103 229.47 551.654 229.616 550.052C229.738 548.73 231.852 548.538 233.53 549.686C236.002 551.377 235.344 552.696 235.344 552.696L237.948 555.15C237.948 555.15 239.32 550.774 235.62 547.746L235.978 546.032L234.122 544.567L233.617 546.174C231.038 544.571 227.752 545.776 226.83 547.509C224.7 551.51 228.031 555.182 229.74 556.401C231.784 557.857 232.924 559.567 232.655 560.681C231.803 564.195 229.955 563.455 227.868 561.786C225.056 559.536 226.245 557.427 226.245 557.427L222.148 554.196C222.148 554.196 218.916 557.48 225.562 564.257L224.739 566.034Z" fill="#96DE5D"/>
</g>
</g>
<path d="M353.065 311.562L306.965 305.557L316.787 298.057L267.877 281.564L333.404 294.222L321.398 300.476L353.065 311.562Z" fill="#ABFF75"/>
<defs>
<clipPath id="clip0_2530_46827">
<rect width="292.458" height="249.061" fill="white" transform="translate(600.086 123.702) rotate(10.9687)"/>
</clipPath>
<clipPath id="clip1_2530_46827">
<rect width="119.093" height="154.499" fill="white" transform="translate(384.881 493.596) rotate(18.0263)"/>
</clipPath>
<clipPath id="clip2_2530_46827">
<rect width="68.3689" height="64.8628" fill="white" transform="translate(273.961 179.8)"/>
</clipPath>
<clipPath id="clip3_2530_46827">
<rect width="21.0366" height="22.7896" fill="white" transform="translate(330.402 507.62) rotate(51.6575)"/>
</clipPath>
<clipPath id="clip4_2530_46827">
<rect width="178.334" height="138.3" fill="white" transform="translate(412.453 249.922)"/>
</clipPath>
<clipPath id="clip5_2530_46827">
<rect width="182.83" height="126.53" fill="white" transform="translate(412.453 261.692)"/>
</clipPath>
<clipPath id="clip6_2530_46827">
<rect width="133.232" height="103.323" fill="white" transform="translate(244.654 473.426) rotate(64.5531)"/>
</clipPath>
<clipPath id="clip7_2530_46827">
<rect width="136.591" height="94.5292" fill="white" transform="translate(236.715 477.204) rotate(64.5531)"/>
</clipPath>
</defs>
</svg>
