<svg width="160" height="168" viewBox="0 0 160 168" fill="none" xmlns="http://www.w3.org/2000/svg">
<g clip-path="url(#clip0_2530_47235)">
<path d="M0 25C0 11.1929 11.1929 0 25 0H315C328.807 0 340 11.1929 340 25V143C340 156.807 328.807 168 315 168H25C11.1929 168 0 156.807 0 143V25Z" fill="#662FBF"/>
<g filter="url(#filter0_f_2530_47235)">
<circle cx="170" cy="86" r="61" fill="#8448E4"/>
</g>
<circle cx="56" cy="88" r="114" fill="#B98EFD"/>
<g clip-path="url(#clip1_2530_47235)">
<path d="M8 18.9824L8.72382 23.5041L30.4457 45.2117L31.1714 42.1368L27.7319 28.9306L8 18.9824Z" fill="#041C91"/>
<path d="M8 18.9821L26.8266 0.169922H35.5143L55.4276 18.9821L31.1714 42.1365L8 18.9821Z" fill="#1A3EEC"/>
<path d="M70.6325 34.9004L66.2266 39.3999L63.0296 36.7098L59.7715 40.5081L62.1003 43.6127L53.0406 52.8652L50.3582 49.0095L47.4611 54.2546L49.2734 56.7116L45.832 60.225L54.3401 74.8762L86.923 41.0502L70.6325 34.9004Z" fill="#041C91"/>
<path d="M27.9111 55.522L25.1973 68.9077L37.3244 75.9622L43.2982 61.1297L30.6268 51.7236L27.9111 55.522Z" fill="#1A3EEC"/>
<path d="M31.3516 49.1916L44.023 59.1397L69.1844 33.0917L57.5996 23.1436L31.3516 49.1916Z" fill="#1A3EEC"/>
<path d="M63.7434 17.2004L76.0631 11.2041L85.8393 21.6943L71.176 31.6444L60.8574 21.8757L63.7434 17.2004Z" fill="#1A3EEC"/>
<path d="M55.4283 18.9827L31.1721 42.1371L27.9121 55.5228L68.0997 16.2686L55.4283 18.9827Z" fill="#041C91"/>
<path d="M65.3828 30.9214L69.1833 27.123L70.8142 29.8353L66.8304 33.0916L65.3828 30.9214Z" fill="#1A3EEC"/>
<path d="M37.6875 59.1391C37.8689 58.9578 44.0241 52.9893 44.0241 52.9893L43.3003 58.2344C43.3003 58.2344 39.3184 62.5766 39.3184 62.3953C39.3166 62.214 37.6875 59.1391 37.6875 59.1391Z" fill="#1A3EEC"/>
<path d="M48.3838 38.07C42.6562 43.7925 39.5536 49.9701 41.4529 51.8683C43.3522 53.7666 49.5352 50.6657 55.261 44.9433C60.9886 39.2208 64.0912 33.0432 62.1918 31.145C60.2944 29.2468 54.1114 32.3476 48.3838 38.07Z" fill="#FFFAE9"/>
<path d="M13.3652 -12H10.8105V17.6077H13.3652V-12Z" fill="#1A3EEC"/>
<path d="M46.5703 -12H44.0156V17.6077H46.5703V-12Z" fill="#1A3EEC"/>
<mask id="mask0_2530_47235" style="mask-type:alpha" maskUnits="userSpaceOnUse" x="40" y="30" width="406" height="470">
<path d="M61.5944 30.1553L446 500H84.7695L40.8555 50.8786L61.5944 30.1553Z" fill="url(#paint0_linear_2530_47235)"/>
</mask>
<g mask="url(#mask0_2530_47235)">
<path d="M61.5944 30.1553L446 500H84.7695L40.8555 50.8786L61.5944 30.1553Z" fill="url(#paint1_linear_2530_47235)" fill-opacity="0.2"/>
</g>
<g clip-path="url(#clip2_2530_47235)">
<path d="M41.7282 116.059C41.4477 115.637 40.9531 115.408 40.4494 115.471L28.6114 116.92C28.1077 116.98 27.6825 117.32 27.5136 117.799L25.3691 123.834L45.2691 121.401L41.7282 116.059Z" fill="#DEC2DB"/>
<path d="M31.5461 120.395L31.7452 118.961C31.8176 118.443 31.4617 117.937 30.9399 117.886C30.4935 117.844 30.0954 118.121 29.9748 118.534L29.5495 119.961C29.3384 120.669 29.9235 121.361 30.6564 121.271C31.1148 121.214 31.4798 120.855 31.5461 120.395Z" fill="#8F83A8"/>
<path d="M34.5591 119.792L34.4324 118.386C34.3872 117.874 33.9257 117.5 33.413 117.564L33.3165 117.576C32.8852 117.627 32.5504 117.976 32.5172 118.41L32.4056 119.819C32.3544 120.464 32.9093 120.994 33.5517 120.915L33.6603 120.903C34.2123 120.834 34.6104 120.343 34.5591 119.792Z" fill="#8F83A8"/>
<path d="M37.4667 119.199L37.0173 117.856C36.8786 117.444 36.4714 117.188 36.0401 117.239L35.9436 117.251C35.4309 117.314 35.075 117.787 35.1534 118.296L35.3706 119.693C35.455 120.238 35.9587 120.621 36.5076 120.554L36.6162 120.542C37.2616 120.461 37.6718 119.814 37.4667 119.199Z" fill="#8F83A8"/>
<path d="M39.5209 120.187C40.2538 120.097 40.6549 119.283 40.2779 118.648L39.539 117.398C39.361 117.097 39.0353 116.898 38.6854 116.919C38.0551 116.956 37.6569 117.594 37.8892 118.169L38.4441 119.551C38.616 119.982 39.0594 120.244 39.5209 120.187Z" fill="#8F83A8"/>
<path d="M81.7872 108.148L53.4725 111.611C51.8016 111.815 50.2453 112.604 49.0298 113.863L44.6777 118.374C43.4652 119.633 41.9089 120.422 40.238 120.627L25.2091 122.464C21.9155 122.867 19.6113 126.138 20.0546 129.767L25.7399 176.112C26.1863 179.744 29.2144 182.361 32.5049 181.958L91.8608 174.7C95.1513 174.296 97.4586 171.029 97.0122 167.397L91.3511 121.247L91.327 121.052L90.6876 115.839C90.1024 111.063 86.1182 107.618 81.7872 108.148Z" fill="#2C2352"/>
<path d="M81.7872 108.148L53.4725 111.611C51.8016 111.815 50.2453 112.604 49.0298 113.863L44.6777 118.374C43.4652 119.633 41.9089 120.422 40.235 120.627L25.206 122.464C21.9155 122.867 19.6113 126.138 20.0546 129.767L20.2476 131.351L91.52 122.636L91.3511 121.247L91.327 121.052L90.6876 115.839C90.1025 111.063 86.1182 107.618 81.7872 108.148Z" fill="#DEC2DB"/>
<path d="M20.25 131.351L25.7392 176.113C26.1856 179.744 29.2137 182.361 32.5042 181.958L91.8601 174.7C95.1507 174.297 97.4579 171.029 97.0116 167.398L91.5224 122.636L20.25 131.351Z" fill="#7171E1"/>
<path d="M36.1325 174.842L30.8544 131.814L22.1953 132.874L27.4734 175.902C27.8022 178.573 29.9616 180.512 32.29 180.226L40.9491 179.166C38.6207 179.452 36.4612 177.513 36.1325 174.842Z" fill="#2C2352"/>
<path d="M50.1519 119.07L54.504 114.556C55.445 113.58 56.6183 112.984 57.8971 112.827L53.6837 113.342C52.4018 113.499 51.2286 114.098 50.2906 115.071L45.9384 119.585C44.4576 121.121 42.5092 122.108 40.4492 122.358L44.6626 121.843C46.7226 121.593 48.671 120.606 50.1519 119.07Z" fill="#8F83A8"/>
<path d="M29.6335 123.681L25.4201 124.196C23.1339 124.476 21.5233 126.794 21.7737 129.405L25.9871 128.89C25.7368 126.283 27.3504 123.961 29.6335 123.681Z" fill="#8F83A8"/>
<path d="M90.2829 107.108L61.9682 110.572C60.2973 110.776 58.7411 111.565 57.5256 112.824L53.1734 117.338C51.961 118.597 50.4047 119.386 48.7338 119.591L38.9196 120.789C35.629 121.193 33.3218 124.46 33.7681 128.092L39.4534 174.438C39.8998 178.07 42.9279 180.687 46.2184 180.283L100.357 173.664C103.647 173.26 105.954 169.993 105.508 166.361L99.8499 120.208L99.8257 120.012L99.1863 114.8C98.5982 110.024 94.614 106.578 90.2829 107.108Z" fill="#7171E1"/>
<path d="M90.2829 107.108L61.9682 110.572C60.2973 110.776 58.7411 111.565 57.5256 112.824L53.1734 117.338C51.961 118.597 50.4047 119.386 48.7338 119.591L38.9196 120.789C35.629 121.193 33.3218 124.46 33.7681 128.092L33.9612 129.676L100.019 121.599L99.8499 120.211L99.8257 120.015L99.1863 114.803C98.5982 110.024 94.614 106.578 90.2829 107.108Z" fill="#DEC2DB"/>
<path d="M35.1797 128.119L35.1556 127.921C34.8057 125.06 36.5701 122.482 39.0915 122.175L48.9057 120.976C50.8843 120.735 52.7572 119.787 54.1838 118.308L58.536 113.794C59.5313 112.761 60.7769 112.126 62.1402 111.96L90.4549 108.497C94.0138 108.063 97.3074 110.966 97.799 114.972L98.4625 120.383L35.1797 128.119Z" fill="#FFE9F5"/>
<path d="M92.2916 148.094C90.9132 136.868 82.4894 128.62 73.3176 129.357L73.3146 129.339L64.0855 130.469C54.6874 131.619 48.212 141.846 49.6174 153.313C51.0229 164.781 59.7815 173.146 69.1796 171.996L78.4087 170.867L78.4057 170.849C87.487 169.355 93.6669 159.321 92.2916 148.094Z" fill="#2C2352"/>
<path d="M80.0372 170.667C90.6536 169.369 98.1192 159.019 96.7121 147.55C95.305 136.082 85.558 127.837 74.9415 129.136C64.3251 130.435 56.8595 140.784 58.2666 152.253C59.6737 163.721 69.4207 171.966 80.0372 170.667Z" fill="#17132E"/>
<path d="M79.8664 169.272C89.6231 168.078 96.4684 158.439 95.1559 147.741C93.8433 137.044 84.87 129.339 75.1133 130.532C65.3566 131.726 58.5113 141.365 59.8238 152.063C61.1364 162.761 70.1097 170.465 79.8664 169.272Z" fill="#DEC2DB"/>
<path d="M79.7153 168.04C88.7346 166.937 95.0498 157.922 93.8207 147.905C92.5916 137.887 84.2837 130.661 75.2644 131.764C66.2452 132.867 59.93 141.882 61.159 151.9C62.3881 161.917 70.6961 169.144 79.7153 168.04Z" fill="#130C17"/>
<path d="M79.5161 166.458C71.2461 167.47 63.6095 160.866 62.4875 151.738C61.3685 142.611 67.1835 134.359 75.4535 133.35C83.7235 132.339 91.3602 138.943 92.4821 148.07C93.6011 157.198 87.7861 165.449 79.5161 166.458ZM75.55 134.13C67.7686 135.082 62.3035 142.933 63.3712 151.63C64.4389 160.327 71.6382 166.63 79.4196 165.678C87.201 164.726 92.6661 156.876 91.5984 148.179C90.5308 139.482 83.3314 133.179 75.55 134.13Z" fill="#8F83A8"/>
<path d="M79.1955 163.856C72.2194 164.708 65.774 159.146 64.833 151.452C63.889 143.761 68.7991 136.808 75.7753 135.952C82.7514 135.1 89.1967 140.665 90.1377 148.356C91.0787 156.051 86.1716 163.001 79.1955 163.856ZM75.8688 136.735C69.3782 137.527 64.824 144.083 65.7167 151.344C66.6065 158.604 72.6114 163.868 79.102 163.073C85.5925 162.281 90.1468 155.725 89.254 148.465C88.3613 141.204 82.3593 135.94 75.8688 136.735Z" fill="#8F83A8"/>
<path d="M78.7695 160.338C83.8835 159.713 87.4559 154.534 86.7488 148.77C86.0417 143.007 81.3228 138.842 76.2088 139.468C71.0949 140.093 67.5224 145.273 68.2296 151.036C68.9367 156.799 73.6556 160.964 78.7695 160.338Z" fill="#17132E"/>
<path d="M74.5573 139.846C70.3529 141.261 67.5963 145.923 68.2236 151.037C68.8509 156.147 72.6542 160.008 77.0757 160.369C81.7506 159.402 84.9416 154.494 84.278 149.073C83.6145 143.656 79.3287 139.659 74.5573 139.846Z" fill="#2C2352"/>
<path d="M75.3064 142.336C73.4183 142.568 71.8138 143.64 70.7461 145.185C71.1352 145.016 71.5514 144.902 71.9857 144.848C74.7484 144.51 77.306 146.766 77.686 149.877C78.0691 152.988 76.1328 155.794 73.3701 156.131C72.9327 156.186 72.5045 156.174 72.0852 156.104C73.4967 157.348 75.3124 158.002 77.2004 157.77C80.9796 157.309 83.6277 153.469 83.1059 149.211C82.5811 144.959 79.0825 141.872 75.3064 142.336Z" fill="black"/>
<path d="M85.0831 163.709C85.3907 166.226 83.3338 168.548 80.4866 168.894C77.6395 169.244 75.0819 167.485 74.7712 164.968C74.4606 162.45 76.5205 160.128 79.3677 159.782C82.2148 159.436 84.7755 161.191 85.0831 163.709Z" fill="#DEC2DB"/>
<path d="M57.8383 157.981C57.2139 156.253 56.7615 154.407 56.5233 152.467C55.4797 143.96 58.7763 136.139 64.3831 132.197C56.101 133.39 50.4248 142.671 51.7006 153.057C51.9389 155.003 52.4063 156.849 53.0608 158.565L57.8383 157.981Z" fill="black"/>
<path d="M53.4106 141.171C52.7742 142.572 52.2826 144.086 51.9629 145.685L56.7011 145.107C56.9756 143.535 57.4008 142.03 57.9618 140.614L53.4106 141.171Z" fill="#8492FF"/>
<path d="M93.5686 112.077L82.551 113.423C81.4924 113.553 80.7383 114.516 80.868 115.573L81.5074 120.792C81.6371 121.849 82.6023 122.602 83.6609 122.472L94.6785 121.126C95.7372 120.997 96.4912 120.033 96.3615 118.976L95.7221 113.757C95.5924 112.697 94.6273 111.948 93.5686 112.077Z" fill="black"/>
<path d="M83.5346 121.431C83.0521 121.491 82.6117 121.144 82.5544 120.666L81.915 115.447C81.8547 114.965 82.2015 114.525 82.6811 114.468L93.6987 113.122C94.1813 113.062 94.6217 113.408 94.679 113.887L95.3184 119.106C95.3787 119.588 95.0318 120.027 94.5523 120.084L83.5346 121.431Z" fill="#2C2352"/>
<path d="M90.5655 114.559L81.9336 115.616L82.5338 120.497L91.1657 119.443C91.7207 119.374 92.1158 118.871 92.0464 118.317L91.6935 115.441C91.6242 114.884 91.1205 114.489 90.5655 114.559Z" fill="#17132E"/>
<path d="M85.7153 114.092L82.6797 114.463L83.107 117.945L86.1426 117.574L85.7153 114.092Z" fill="#DEC2DB"/>
<path d="M88.1878 113.794L86.3496 114.019L86.7765 117.501L88.6147 117.276L88.1878 113.794Z" fill="#DEC2DB"/>
<path d="M85 115.13C84.997 114.35 89.1622 113.681 94.8022 113.48C92.2717 110.712 90.7094 108.508 91.0924 108.122C91.4755 107.737 93.6923 109.288 96.4791 111.796C96.651 106.162 97.2995 102.003 98.0806 102C98.8618 101.997 99.5313 106.156 99.7334 111.787C102.505 109.261 104.713 107.701 105.099 108.083C105.485 108.466 103.932 110.679 101.419 113.461C107.062 113.633 111.228 114.281 111.231 115.061C111.234 115.84 107.068 116.509 101.428 116.711C103.959 119.478 105.521 121.683 105.138 122.068C104.755 122.454 102.538 120.903 99.7515 118.394C99.5796 124.029 98.9311 128.187 98.15 128.19C97.3688 128.193 96.6993 124.035 96.4972 118.403C93.7254 120.93 91.5177 122.49 91.1316 122.107C90.7456 121.725 92.2988 119.511 94.8112 116.729C89.1682 116.554 85.003 115.91 85 115.13Z" fill="#FFBE3E"/>
</g>
<g clip-path="url(#clip3_2530_47235)">
<path d="M126.254 130.025L123 128.58L128.26 114L133.542 116.346L126.254 130.025ZM123.841 130.999C125.23 131.616 125.86 133.253 125.243 134.642C124.639 136.004 123.002 136.634 121.613 136.017C120.224 135.4 119.621 133.776 120.226 132.414C120.843 131.025 122.443 130.379 123.841 130.999Z" fill="white"/>
</g>
</g>
<g clip-path="url(#clip4_2530_47235)">
<path d="M277.63 63H62V105.75H277.63V63Z" fill="#CA1616"/>
<path d="M83.3302 95.8823C90.3127 95.8823 93.2961 91.1215 94.0261 88.0112L89.2336 86.6464C88.7892 88.2651 87.2341 90.8676 83.3302 90.8676C79.9659 90.8676 76.8555 88.4238 76.8555 84.2025C76.8555 79.4735 80.2516 77.3152 83.2667 77.3152C87.2341 77.3152 88.6623 79.9496 89.0114 81.5047L93.7405 80.013C93.0105 76.7757 90.0271 72.4275 83.2667 72.4275C76.9825 72.4275 71.6504 77.1883 71.6504 84.2025C71.6504 91.2168 76.8555 95.8823 83.3302 95.8823ZM111.751 95.4062V90.6455H102.483V86.329H110.862V81.9173H102.483V77.6326H111.719V72.9036H97.4685V95.4062H111.751ZM130.699 95.4062V90.6137H120.987V72.9036H115.972V95.4062H130.699ZM148.232 95.4062V90.6455H138.964V86.329H147.343V81.9173H138.964V77.6326H148.2V72.9036H133.949V95.4062H148.232ZM152.453 72.9036V95.4062H161.53C165.783 95.4062 168.576 92.7085 168.576 89.0268C168.576 86.1068 166.609 84.2343 164.577 83.7582C166.418 83.1552 167.878 81.2508 167.878 78.9339C167.878 75.4744 165.307 72.9036 160.864 72.9036H152.453ZM157.341 81.9173V77.0613H160.007C161.975 77.0613 162.959 78.0135 162.959 79.4735C162.959 80.9969 161.816 81.9173 160.07 81.9173H157.341ZM157.341 91.312V86.0434H160.483C162.451 86.0434 163.593 87.1225 163.593 88.6777C163.593 90.2963 162.419 91.312 160.483 91.312H157.341ZM182.865 95.4062H188.387L183.817 86.2973C186.578 85.3134 188.26 82.9965 188.26 79.9496C188.26 75.9505 185.404 72.9036 180.96 72.9036H172.042V95.4062H177.057V87.0273H178.834L182.865 95.4062ZM177.057 82.7108V77.2518H180.008C182.071 77.2518 183.182 78.2991 183.182 79.9813C183.182 81.5682 182.071 82.7108 180.008 82.7108H177.057ZM197.05 95.4062V72.9036H191.971V95.4062H197.05ZM218.964 77.6961V72.9036H200.08V77.6961H206.999V95.4062H212.014V77.6961H218.964ZM227.083 95.4062V72.9036H222.005V95.4062H227.083ZM246.237 95.4062V90.6455H236.969V86.329H245.348V81.9173H236.969V77.6326H246.205V72.9036H231.955V95.4062H246.237ZM265.947 78.4261C265.471 75.7918 263.344 72.4275 257.727 72.4275C253.41 72.4275 249.665 75.4109 249.665 79.6639C249.665 82.9965 251.982 85.5355 255.791 86.2655L258.869 86.8368C260.361 87.1225 261.281 87.9477 261.281 89.0903C261.281 90.4868 260.075 91.4389 258.107 91.4389C255.029 91.4389 253.632 89.6298 253.442 87.5668L248.84 88.6777C249.157 91.8515 251.823 95.8823 258.044 95.8823C263.408 95.8823 266.36 92.2959 266.36 88.7729C266.36 85.5673 264.138 82.806 259.853 82.0126L256.838 81.4413C255.283 81.1556 254.616 80.3622 254.616 79.283C254.616 78.0452 255.822 76.8709 257.695 76.8709C260.424 76.8709 261.281 78.6483 261.44 79.6956L265.947 78.4261Z" fill="white"/>
</g>
<path d="M121.496 30.4433C121.187 30.3072 120.973 29.9932 120.981 29.6389C121.047 26.6246 122.119 24.2652 124.174 22.6153C127.288 20.1223 132.628 19.4637 139.215 20.7544C144.209 21.7341 147.414 20.7126 148.731 17.721C149.161 16.7466 149.358 15.6291 149.388 14.4626C147.512 13.3267 145.833 11.6676 144.562 9.8629C142.328 6.67348 141.905 3.74495 143.485 2.39056C143.88 2.05196 144.979 1.38065 146.493 2.50315C148.7 4.13471 150.899 8.91154 151.109 13.4223C152.988 14.3478 155.056 14.6403 156.983 13.5771C159.935 11.9563 159.473 9.24653 158.48 4.95197C157.534 0.865549 156.459 -3.76582 159.994 -7.67691C160.311 -8.0253 160.856 -8.05362 161.208 -7.73589C161.56 -7.41816 161.591 -6.87542 161.274 -6.52702C158.336 -3.28091 159.264 0.716194 160.154 4.57479C161.089 8.59157 162.052 12.7507 157.822 15.0778C155.617 16.2872 153.264 16.1946 151.065 15.3072C150.965 16.4102 150.724 17.4595 150.303 18.4135C149.145 21.044 146.225 23.8752 138.883 22.4389C132.8 21.2486 127.965 21.7873 125.253 23.9614C123.607 25.2787 122.751 27.2042 122.698 29.6872C122.685 30.1618 122.292 30.5337 121.822 30.5219C121.708 30.5204 121.596 30.4955 121.493 30.4501L121.496 30.4433ZM145.114 3.66137C144.798 3.52226 144.666 3.63513 144.609 3.69118C143.796 4.38277 144.384 6.61932 145.97 8.88028C146.771 10.0221 147.918 11.2682 149.251 12.2621C148.747 8.60619 146.949 4.96612 145.47 3.87539C145.334 3.77479 145.217 3.70673 145.121 3.66439L145.114 3.66137Z" fill="#FFC854"/>
</g>
<defs>
<filter id="filter0_f_2530_47235" x="79" y="-5" width="182" height="182" filterUnits="userSpaceOnUse" color-interpolation-filters="sRGB">
<feFlood flood-opacity="0" result="BackgroundImageFix"/>
<feBlend mode="normal" in="SourceGraphic" in2="BackgroundImageFix" result="shape"/>
<feGaussianBlur stdDeviation="15" result="effect1_foregroundBlur_2530_47235"/>
</filter>
<linearGradient id="paint0_linear_2530_47235" x1="243.428" y1="30.1548" x2="243.428" y2="499.999" gradientUnits="userSpaceOnUse">
<stop stop-color="white"/>
<stop offset="0.00589937" stop-color="#FBFBFB"/>
<stop offset="0.0853" stop-color="#C7C7C7"/>
<stop offset="0.1701" stop-color="#989898"/>
<stop offset="0.2582" stop-color="#6F6F6F"/>
<stop offset="0.3505" stop-color="#4C4C4C"/>
<stop offset="0.4481" stop-color="#313131"/>
<stop offset="0.5528" stop-color="#1B1B1B"/>
<stop offset="0.6682" stop-color="#0C0C0C"/>
<stop offset="0.8024" stop-color="#030303"/>
<stop offset="1"/>
</linearGradient>
<linearGradient id="paint1_linear_2530_47235" x1="243.428" y1="30.1548" x2="243.428" y2="499.999" gradientUnits="userSpaceOnUse">
<stop stop-color="#FFFAE9"/>
<stop offset="0.2022" stop-color="#FFFCF3"/>
<stop offset="0.5245" stop-color="#FFFEFC"/>
<stop offset="1" stop-color="white"/>
</linearGradient>
<clipPath id="clip0_2530_47235">
<path d="M0 25C0 11.1929 11.1929 0 25 0H315C328.807 0 340 11.1929 340 25V143C340 156.807 328.807 168 315 168H25C11.1929 168 0 156.807 0 143V25Z" fill="white"/>
</clipPath>
<clipPath id="clip1_2530_47235">
<rect width="173" height="184" fill="white" transform="translate(8 -12)"/>
</clipPath>
<clipPath id="clip2_2530_47235">
<rect width="93" height="87" fill="white" transform="translate(20 95)"/>
</clipPath>
<clipPath id="clip3_2530_47235">
<rect width="5.78" height="22.82" fill="white" transform="translate(128.26 114) rotate(23.9421)"/>
</clipPath>
<clipPath id="clip4_2530_47235">
<rect width="215.63" height="42.75" fill="white" transform="translate(62 63)"/>
</clipPath>
</defs>
</svg>
