<svg width="160" height="168" viewBox="0 0 160 168" fill="none" xmlns="http://www.w3.org/2000/svg">
<g clip-path="url(#clip0_2530_47135)">
<path d="M0 25C0 11.1929 11.1929 0 25 0H315C328.807 0 340 11.1929 340 25V143C340 156.807 328.807 168 315 168H25C11.1929 168 0 156.807 0 143V25Z" fill="#662FBF"/>
<g filter="url(#filter0_f_2530_47135)">
<circle cx="170" cy="86" r="61" fill="#8448E4"/>
</g>
<path d="M71.7923 -12.6329L268.527 -12.6329L170.16 157.744L71.7923 -12.6329Z" fill="#B98EFD"/>
<g clip-path="url(#clip1_2530_47135)">
<path d="M25.9649 126.227C25.9649 126.227 24.2239 123.831 25.7333 121.314C27.2426 118.797 33.6043 114.792 44.06 119.529C44.4173 123.393 48.402 125.911 53.1859 127.174C61.6484 129.384 73.2992 117.9 76.6394 114.244C81.5279 108.894 88.1793 102.502 96.7329 98.904C104.374 95.6943 104.866 96.7578 104.866 96.7578C104.866 96.7578 111.983 106.875 104.581 118.709C101.486 123.667 95.6703 130.405 92.817 127.174C91.601 125.793 89.7364 124.249 89.7364 124.249L81.0618 126.807L72.2813 131.825L59.7441 142.518L49.1526 141.741L25.9649 126.227Z" fill="#F16A4D"/>
<path d="M101.343 123.184C102.551 121.738 103.677 120.153 104.576 118.722C105.219 117.709 105.74 116.695 106.176 115.707C99.5303 114.931 91.4988 117.59 83.8153 120.829C74.5148 124.742 56.5727 144.669 38.3571 129.21C35.0459 126.408 30.8725 123.022 27.9677 119.19C26.8913 119.879 26.1457 120.653 25.7462 121.319C24.2368 123.836 25.9779 126.232 25.9779 126.232L49.1472 141.754L59.7387 142.531L72.2759 131.838L81.0564 126.82L89.731 124.262C89.731 124.262 98.3621 126.737 101.343 123.184Z" fill="#F4502A"/>
<path d="M25.1224 122.707C25.1224 122.707 36.2287 134.795 49.9929 140.456C56.2699 142.704 60.1234 140.593 63.2028 137.521C66.2875 134.435 74.2171 128.226 80.8121 125.092C87.4071 121.957 99.6378 118.85 104.631 118.852C104.276 120.558 102.187 124.082 99.9277 127.615C98.2715 130.197 90.9907 143.146 88.193 149.351C85.0121 156.412 81.5092 164.672 81.5092 164.672C81.5092 164.672 79.591 164.572 75.7036 163.037C77.8084 157.704 89.0786 129.453 88.5921 128.147C88.1057 126.841 86.8791 126.372 82.7564 127.934C78.6337 129.496 69.9918 133.395 60.7763 146.939C56.1095 153.688 51.4386 153.447 49.4752 153.114C47.5248 152.787 24.5923 141.204 21.8832 134.184C22.2256 130.047 25.1224 122.707 25.1224 122.707Z" fill="#E8390A"/>
<path d="M88.1638 126.695C87.1 126.276 85.6703 126.322 83.0467 127.316C79.9882 128.489 69.6731 131.742 59.7941 146.276C56.661 150.792 51.8717 152.274 48.6971 151.357C45.7167 150.486 26.4527 140.03 21.9742 133.609C21.9538 133.815 21.9255 134.002 21.9103 134.194C24.6195 141.214 47.5388 152.792 49.5023 153.124C51.4526 153.451 56.1235 153.693 60.8035 146.949C70.0058 133.4 78.6609 129.506 82.7835 127.944C86.9062 126.382 88.1328 126.851 88.6193 128.157C89.1057 129.463 77.8356 157.714 75.7307 163.048C76.0853 163.187 76.4268 163.322 76.7472 163.433C76.8072 163.32 76.8593 163.188 76.9114 163.056L77.3438 161.96C86.0813 139.896 88.1371 132.071 89.0138 129.426C89.5183 127.84 88.7811 126.939 88.1638 126.695Z" fill="#B51D04"/>
<path d="M82.3211 162.81C80.1215 162.46 78.0126 161.766 76.4446 161.162C76.1372 161.941 75.8871 162.575 75.7048 163.037C79.5922 164.571 81.5235 164.677 81.5235 164.677C81.5235 164.677 81.818 163.969 82.3211 162.81Z" fill="#B51D04"/>
<path d="M24.5345 124.275C27.4315 127.203 37.3162 136.887 48.8766 141.632C56.036 144.183 60.9644 140.848 63.7507 138.057C66.94 134.86 74.8895 129.178 81.2775 126.145C87.6523 123.106 98.4684 120.737 103.683 120.369C103.822 120.363 103.956 120.37 104.095 120.364C104.361 119.767 104.551 119.247 104.637 118.838C99.6437 118.836 87.3998 121.938 80.8179 125.078C74.2229 128.213 66.2881 134.435 63.2087 137.507C60.1293 140.58 56.2758 142.69 49.9988 140.442C36.2293 134.795 25.1283 122.693 25.1283 122.693C25.1283 122.693 24.8834 123.314 24.5345 124.275Z" fill="#FF8C71"/>
<path d="M32.3565 119.915C32.3565 119.915 36.4639 118.545 39.1632 120.206C40.3764 122.439 42.8274 124.459 46.3816 126.914C40.5209 127.15 32.3565 119.915 32.3565 119.915Z" fill="#FF8C71"/>
</g>
<path d="M-110.208 -12.6329L86.5268 -12.6329L-11.8404 157.744L-110.208 -12.6329Z" fill="#B98EFD"/>
<g clip-path="url(#clip2_2530_47135)">
<path d="M250.42 63H90V105.75H250.42V63Z" fill="#242424"/>
<path d="M100.949 95.1406V72.6406H115.449V77.4006H105.959V82.1606H114.309V86.7306H105.999V95.1406H100.949Z" fill="white"/>
<path d="M130.719 90.5706H122.019L120.399 95.1406H115.129L123.599 72.6406H129.409L137.789 95.1406H132.329L130.719 90.5706ZM123.679 86.0006H129.139L126.439 78.2206L123.679 86.0006Z" fill="white"/>
<path d="M151.669 79.4302C151.509 78.3802 150.649 76.6102 147.919 76.6102C146.049 76.6102 144.839 77.7802 144.839 79.0202C144.839 80.1002 145.509 80.8902 147.059 81.1802L150.069 81.7502C154.359 82.5402 156.579 85.3002 156.579 88.5102C156.579 92.0302 153.629 95.6202 148.259 95.6202C142.039 95.6202 139.369 91.5902 139.059 88.4102L143.659 87.3002C143.849 89.3602 145.249 91.1702 148.329 91.1702C150.299 91.1702 151.499 90.2202 151.499 88.8202C151.499 87.6802 150.579 86.8502 149.089 86.5702L146.019 86.0002C142.209 85.2702 139.899 82.7302 139.899 79.4002C139.899 75.1502 143.649 72.1602 147.959 72.1602C153.579 72.1602 155.699 75.5202 156.179 78.1602L151.669 79.4302Z" fill="white"/>
</g>
<path d="M32.4325 25.0808C31.1843 24.5464 26.4563 19.0237 26.2097 19.1344C25.9368 19.263 27.6708 26.166 27.3517 27.427C26.9381 29.0291 21.6705 32.5805 22.452 32.8628C23.2424 33.1447 29.1652 31.4919 29.8203 32.2177C30.9438 33.4741 35.2911 38.1845 36.0517 38.1553C36.5954 37.6114 35.2755 31.4604 34.9183 29.854C34.7122 28.9169 39.7347 25.5183 39.9741 24.7498C40.2228 23.9893 34.0169 25.7373 32.4318 25.064L32.4325 25.0808Z" fill="white"/>
<path d="M175.223 18.6667C174.791 17.501 175.477 10.8796 175.248 10.7856C174.991 10.6855 171.501 16.1891 170.462 16.7723C169.138 17.5077 163.458 16.2491 163.764 16.946C164.075 17.6486 168.906 20.5393 168.837 21.4319C168.712 22.97 168.325 28.8265 168.824 29.3132C169.528 29.3312 172.78 24.5767 173.621 23.3268C174.113 22.599 179.537 23.7913 180.198 23.4657C180.86 23.1513 175.786 20.1327 175.234 18.6556L175.223 18.6667Z" fill="white"/>
<g clip-path="url(#clip3_2530_47135)">
<path d="M165.85 137.46C159.54 131.38 149.51 131.53 143.43 137.82C137.36 144.11 137.55 154.15 143.85 160.24C144.04 160.42 144.23 160.59 144.42 160.76L148.87 156.15C148.67 155.99 148.47 155.82 148.29 155.64C144.53 152 144.42 146.02 148.04 142.27C151.66 138.51 157.65 138.42 161.41 142.06C161.59 142.23 161.78 142.41 161.94 142.6L166.38 138.01C166.21 137.82 166.03 137.65 165.85 137.46Z" fill="#FFEF63"/>
</g>
<g clip-path="url(#clip4_2530_47135)">
<path d="M37.0479 102.137C41.4412 94.5552 38.8953 84.8526 31.333 80.4545C23.7732 76.0662 14.0704 78.6533 9.66499 86.2277C9.53569 86.4552 9.41609 86.6804 9.2965 86.9056L14.8375 90.123C14.945 89.8905 15.0622 89.6557 15.1939 89.4378C17.8283 84.916 23.6082 83.3781 28.1155 85.9955C32.6326 88.6105 34.1535 94.4049 31.519 98.9267C31.3971 99.1422 31.2678 99.3697 31.1216 99.5706L36.6407 102.783C36.7845 102.573 36.9065 102.357 37.0479 102.137Z" fill="#0EDDAB"/>
</g>
<g clip-path="url(#clip5_2530_47135)">
<path d="M112.896 37.1841C113.815 38.9579 108.425 40.2205 104.868 40.8498C103.011 41.1762 101.118 40.9678 99.3925 40.2519L75.9805 30.5096L79.781 21.1094L105.718 31.9019C105.721 31.898 111.624 34.7259 112.896 37.1841Z" fill="#FF005A"/>
<path d="M79.6609 21.0596L75.8594 30.459L80.6278 32.4427L84.4293 23.0433L79.6609 21.0596Z" fill="#E60957"/>
<path d="M53.3672 9.73112L49.0897 20.3113C48.8454 20.913 49.1285 21.6053 49.7257 21.8491L75.9764 32.7714C76.5698 33.0192 77.2523 32.7321 77.4928 32.1264L81.7703 21.5463C82.0146 20.9445 81.7315 20.2523 81.1343 20.0084L54.8835 9.09002C54.2902 8.84223 53.6115 9.12935 53.3672 9.73112Z" fill="#F5A6AC"/>
<path d="M51.4234 17.0054L50.1191 20.2295L76.1322 31.0539L77.4365 27.8298L51.4234 17.0054Z" fill="#F7D8DA"/>
<path d="M107.436 39.7489C104.9 40.3428 102.794 40.449 102.728 39.9888C102.666 39.5287 104.667 38.6791 107.203 38.0852C109.74 37.4952 111.845 37.3851 111.911 37.8453C111.977 38.3055 109.972 39.155 107.436 39.7489Z" fill="#E60957"/>
</g>
<g clip-path="url(#clip6_2530_47135)">
<path d="M73 52.5C73 61.0599 66.0599 68 57.5 68C48.9401 68 42 61.0599 42 52.5C42 43.9401 48.9401 37 57.5 37C66.0599 37 73 43.9401 73 52.5Z" fill="#FFE0EC"/>
<path opacity="0.44" d="M70.7338 52.4997C70.7338 59.808 64.809 65.7329 57.5007 65.7329C50.1925 65.7329 44.2676 59.808 44.2676 52.4997C44.2676 45.1915 50.1925 39.2666 57.5007 39.2666C64.809 39.2666 70.7338 45.1915 70.7338 52.4997Z" fill="#F9B0B0"/>
<path opacity="0.72" d="M57.6286 44.0564C62.3561 44.0564 66.2776 42.4328 67.0603 40.3015C64.4253 38.2361 61.1083 37 57.5007 37C53.9861 37 50.7427 38.1741 48.1426 40.1465C48.7858 42.3553 52.7848 44.0564 57.6286 44.0564Z" fill="white"/>
<path opacity="0.72" d="M57.6279 60.4395C52.4703 60.4395 48.2659 62.3692 48.0605 64.7911C50.6723 66.7983 53.9467 67.9996 57.5 67.9996C61.158 67.9996 64.5177 66.7286 67.1682 64.609C66.7768 62.2762 62.6538 60.4395 57.6279 60.4395Z" fill="white"/>
<path d="M70.0053 52.4997C70.0053 59.405 64.406 65.0044 57.5007 65.0044C50.5955 65.0044 44.9961 59.405 44.9961 52.4997C44.9961 45.5945 50.5955 39.9951 57.5007 39.9951C64.406 39.9951 70.0053 45.5945 70.0053 52.4997Z" fill="#DE1E59"/>
<path d="M69.2172 52.5002C69.2172 58.9715 63.9705 64.2182 57.4993 64.2182C51.028 64.2182 45.7812 58.9715 45.7812 52.5002C45.7812 46.0251 51.028 40.7822 57.4993 40.7822C63.9705 40.7822 69.2172 46.0251 69.2172 52.5002Z" fill="#EB4552"/>
<path d="M57.249 40.9561C56.7142 40.9561 56.1873 40.9948 55.6719 41.0684C61.1589 41.8357 65.3826 46.5477 65.3826 52.2439C65.3826 57.9441 61.1589 62.6522 55.6719 63.4233C56.1873 63.4969 56.7142 63.5357 57.249 63.5357C63.4839 63.5357 68.5369 58.4827 68.5369 52.2478C68.5369 46.0129 63.4839 40.9561 57.249 40.9561Z" fill="#DE1E59"/>
<path opacity="0.53" d="M49.7496 52.8871C49.7496 56.7389 52.1482 59.8621 50.3309 59.8621C48.5135 59.8621 47.0371 56.7389 47.0371 52.8871C47.0371 49.0354 48.5135 45.9121 50.3309 45.9121C52.1482 45.9121 49.7496 49.0354 49.7496 52.8871Z" fill="white"/>
</g>
</g>
<defs>
<filter id="filter0_f_2530_47135" x="79" y="-5" width="182" height="182" filterUnits="userSpaceOnUse" color-interpolation-filters="sRGB">
<feFlood flood-opacity="0" result="BackgroundImageFix"/>
<feBlend mode="normal" in="SourceGraphic" in2="BackgroundImageFix" result="shape"/>
<feGaussianBlur stdDeviation="15" result="effect1_foregroundBlur_2530_47135"/>
</filter>
<clipPath id="clip0_2530_47135">
<path d="M0 25C0 11.1929 11.1929 0 25 0H315C328.807 0 340 11.1929 340 25V143C340 156.807 328.807 168 315 168H25C11.1929 168 0 156.807 0 143V25Z" fill="white"/>
</clipPath>
<clipPath id="clip1_2530_47135">
<rect width="72.8392" height="72.8392" fill="white" transform="translate(44.7383 73) rotate(21.5357)"/>
</clipPath>
<clipPath id="clip2_2530_47135">
<rect width="160.42" height="42.75" fill="white" transform="translate(90 63)"/>
</clipPath>
<clipPath id="clip3_2530_47135">
<rect width="27.38" height="27.76" fill="white" transform="translate(139 133)"/>
</clipPath>
<clipPath id="clip4_2530_47135">
<rect width="27.38" height="27.76" fill="white" transform="translate(34.9531 75) rotate(76.1541)"/>
</clipPath>
<clipPath id="clip5_2530_47135">
<rect width="64" height="32" fill="white" transform="translate(49 9)"/>
</clipPath>
<clipPath id="clip6_2530_47135">
<rect width="31" height="31" fill="white" transform="translate(42 37)"/>
</clipPath>
</defs>
</svg>
