<svg width="48" height="40" viewBox="0 0 48 40" fill="none" xmlns="http://www.w3.org/2000/svg">
<g clip-path="url(#clip0_2530_48157)">
<path d="M34.1438 32.6432C37.2541 29.1772 39.1461 24.5982 39.1461 19.576C39.1461 8.76446 30.3836 0.00195312 19.574 0.00195312C8.76449 0.00195312 0 8.76446 0 19.576C0 30.3875 8.7625 39.15 19.574 39.15H38.0808C39.0288 39.15 39.5038 38.0033 38.834 37.3315L34.1457 32.6432H34.1438ZM19.572 28.0225C14.9076 28.0225 11.1255 24.2404 11.1255 19.576C11.1255 14.9115 14.9076 11.1295 19.572 11.1295C24.2365 11.1295 28.0185 14.9115 28.0185 19.576C28.0185 24.2404 24.2365 28.0225 19.572 28.0225Z" fill="#70FF64"/>
<path d="M38.5571 32.6432C41.6674 29.1772 43.5594 24.5982 43.5594 19.576C43.5594 8.76446 34.7969 0.00195312 23.9854 0.00195312C23.2381 0.00195312 22.5008 0.0456762 21.7754 0.12716C31.5455 1.22421 39.1394 9.51371 39.1394 19.576C39.1394 24.5982 37.2474 29.1792 34.1371 32.6432L38.8254 37.3315C39.4972 38.0033 39.0202 39.15 38.0722 39.15H42.4922C43.4402 39.15 43.9152 38.0033 43.2454 37.3315L38.5571 32.6432Z" fill="#E240D6"/>
<path d="M42.9985 32.6432C46.1088 29.1772 48.0008 24.5982 48.0008 19.576C48.0008 8.76446 39.2383 0.00195312 28.4268 0.00195312C27.6795 0.00195312 26.9422 0.0456762 26.2168 0.12716C35.9869 1.22421 43.5808 9.51371 43.5808 19.576C43.5808 24.5982 41.6888 29.1792 38.5785 32.6432L43.2668 37.3315C43.9386 38.0033 43.4616 39.15 42.5136 39.15H46.9336C47.8816 39.15 48.3566 38.0033 47.6868 37.3315L42.9985 32.6432Z" fill="#4500B2"/>
<path d="M15.4415 19.499C15.4415 15.5735 18.1032 12.2719 21.7207 11.294C21.0128 11.102 20.2689 10.998 19.501 10.998C14.8056 11 11 14.8056 11 19.499C11 24.1925 14.8056 27.998 19.499 27.998C20.2669 27.998 21.0108 27.8941 21.7187 27.7021C18.1012 26.7262 15.4395 23.4226 15.4395 19.497L15.4415 19.499Z" fill="#E240D6"/>
</g>
<defs>
<clipPath id="clip0_2530_48157">
<rect width="48" height="39.1461" fill="white" transform="translate(0 0.00195312)"/>
</clipPath>
</defs>
</svg>
