<svg width="40" height="40" viewBox="0 0 40 40" fill="none" xmlns="http://www.w3.org/2000/svg">
<path d="M34.1438 32.6432C37.2541 29.1772 39.1461 24.5982 39.1461 19.576C39.1461 8.76446 30.3836 0.00195312 19.574 0.00195312C8.76449 0.00195312 0 8.76446 0 19.576C0 30.3875 8.7625 39.15 19.574 39.15H38.0808C39.0288 39.15 39.5038 38.0033 38.834 37.3315L34.1457 32.6432H34.1438ZM19.572 28.0225C14.9076 28.0225 11.1255 24.2404 11.1255 19.576C11.1255 14.9115 14.9076 11.1295 19.572 11.1295C24.2365 11.1295 28.0185 14.9115 28.0185 19.576C28.0185 24.2404 24.2365 28.0225 19.572 28.0225Z" fill="#70FF64"/>
</svg>
