<svg width="340" height="168" viewBox="0 0 340 168" fill="none" xmlns="http://www.w3.org/2000/svg">
<g clip-path="url(#clip0_2530_47831)">
<path d="M0 25C0 11.1929 11.1929 0 25 0H315C328.807 0 340 11.1929 340 25V143C340 156.807 328.807 168 315 168H25C11.1929 168 0 156.807 0 143V25Z" fill="#4E13AF"/>
<g filter="url(#filter0_f_2530_47831)">
<circle cx="170" cy="84" r="61" fill="#8448E4"/>
</g>
<path d="M282 84.5L125.25 172.402L125.25 -3.40159L282 84.5Z" fill="#B98EFD"/>
<path d="M125 84.5L-33.25 172.402L-33.25 -3.40159L125 84.5Z" fill="#B98EFD"/>
<path d="M441 84.5L282.75 172.402L282.75 -3.40159L441 84.5Z" fill="#B98EFD"/>
<g clip-path="url(#clip1_2530_47831)">
<path d="M264.934 45.143C264.111 44.753 261.086 40.9321 260.918 40.9999C260.732 41.079 261.716 45.7477 261.47 46.5843C261.152 47.6469 257.532 49.8908 258.048 50.0999C258.571 50.309 262.581 49.3538 263.001 49.8569C263.721 50.7273 266.513 53.9943 267.023 53.9943C267.401 53.6438 266.675 49.4895 266.477 48.4043C266.363 47.7712 269.814 45.6234 269.994 45.1147C270.18 44.6117 265.978 45.6234 264.934 45.1317V45.143Z" fill="white"/>
</g>
<g clip-path="url(#clip2_2530_47831)">
<path d="M107.248 139.009C107.044 138.122 108.163 133.378 108.006 133.289C107.828 133.192 104.777 136.86 103.969 137.186C102.938 137.596 98.9323 136.149 99.0885 136.683C99.2485 137.223 102.485 139.775 102.351 140.417C102.116 141.522 101.285 145.738 101.602 146.138C102.111 146.217 104.919 143.07 105.647 142.242C106.073 141.76 109.899 143.134 110.409 142.96C110.919 142.794 107.519 140.126 107.257 139.002L107.248 139.009Z" fill="white"/>
</g>
<g clip-path="url(#clip3_2530_47831)">
<path d="M19.7233 81.9998C17.8567 81.9998 16.161 81.3423 14.8572 79.2911C13.5676 77.2542 13.5249 75.0101 14.2374 72.8731C13.1829 72.8374 12.1641 72.6658 11.2308 72.3156C8.65168 71.3579 5.78047 68.7278 6.72092 61.6666C7.4975 55.8132 6.69954 51.232 4.46955 48.7734C3.11588 47.2797 1.22074 46.5579 -1.15175 46.6508C-1.60773 46.6651 -1.98533 46.3149 -1.99958 45.8575C-2.01383 45.4072 -1.66472 45.0213 -1.20875 44.9998C1.66958 44.9141 3.98508 45.8003 5.68073 47.6656C8.23846 50.4959 9.18603 55.5416 8.34532 61.881C7.70411 66.691 8.87254 69.6855 11.8008 70.7719C12.7554 71.1292 13.8313 71.2579 14.9498 71.215C15.9188 69.3711 17.4078 67.6772 19.0536 66.3693C21.9675 64.068 24.739 63.5034 26.114 64.9399C26.4632 65.2973 27.1685 66.305 26.1853 67.813C24.7604 70.0072 20.3289 72.3585 16.0399 72.8016C15.2633 74.6384 15.1137 76.6253 16.2322 78.4049C17.9564 81.1279 20.5141 80.5418 24.5466 79.3626C28.3939 78.2405 32.747 76.9612 36.6869 80.1202C37.0432 80.406 37.1002 80.9206 36.8152 81.278C36.5302 81.6353 36.0172 81.6925 35.661 81.4066C32.3908 78.7837 28.6362 79.8843 25.0026 80.9421C23.2143 81.4638 21.3904 81.9998 19.709 81.9998H19.7233ZM24.0907 65.7976C23.1003 65.7976 21.5828 66.4837 20.0724 67.6701C19.0251 68.492 17.9136 69.6498 17.0373 70.972C20.4999 70.293 23.8627 68.3848 24.8174 66.9197C25.1879 66.3479 25.0169 66.1692 24.9456 66.0906C24.7533 65.8905 24.4611 65.7976 24.0907 65.7976Z" fill="white"/>
</g>
<g clip-path="url(#clip4_2530_47831)">
<path d="M166.079 118.681C166.196 116.818 166.958 115.166 169.086 113.993C171.2 112.833 173.442 112.931 175.531 113.775C175.632 112.725 175.867 111.719 176.275 110.809C177.392 108.295 180.196 105.594 187.185 106.973C192.978 108.114 197.6 107.604 200.193 105.531C201.769 104.274 202.607 102.427 202.663 100.054C202.677 99.5977 203.05 99.2427 203.507 99.2571C203.958 99.271 204.321 99.6435 204.314 100.1C204.22 102.978 203.191 105.234 201.223 106.809C198.239 109.185 193.144 109.816 186.869 108.581C182.109 107.641 179.047 108.62 177.78 111.475C177.364 112.405 177.168 113.471 177.141 114.59C178.921 115.672 180.518 117.264 181.721 118.988C183.836 122.04 184.226 124.842 182.707 126.124C182.328 126.45 181.278 127.091 179.835 126.016C177.734 124.457 175.664 119.887 175.489 115.579C173.705 114.689 171.731 114.416 169.885 115.421C167.06 116.972 167.485 119.561 168.41 123.659C169.29 127.569 170.295 131.994 166.896 135.729C166.588 136.066 166.071 136.091 165.732 135.784C165.393 135.477 165.368 134.962 165.676 134.624C168.498 131.524 167.634 127.708 166.805 124.016C166.396 122.198 165.975 120.345 166.08 118.666L166.079 118.681ZM181.977 124.051C182.039 123.063 181.449 121.505 180.359 119.924C179.604 118.827 178.518 117.646 177.253 116.689C177.715 120.187 179.409 123.662 180.812 124.706C181.359 125.112 181.548 124.952 181.631 124.886C181.843 124.707 181.954 124.421 181.977 124.051Z" fill="white"/>
</g>
<path d="M91.6396 23.9926C91.302 23.9926 90.9795 23.7915 90.8444 23.4639C89.6893 20.6789 89.7193 18.0875 90.9345 15.7493C92.7797 12.2122 97.4004 9.45697 103.949 7.98257C108.915 6.86559 111.435 4.63908 111.435 1.37007C111.435 0.305216 111.165 -0.796865 110.722 -1.87661C108.547 -2.15958 106.342 -3.00103 104.451 -4.14035C101.121 -6.15835 99.5532 -8.66783 100.453 -10.5443C100.678 -11.0135 101.413 -12.0709 103.251 -11.6539C105.929 -11.0507 109.867 -7.56574 111.878 -3.52229C113.97 -3.43293 115.981 -3.99887 117.316 -5.74879C119.364 -8.42209 117.848 -10.7156 115.208 -14.2453C112.695 -17.6036 109.845 -21.4088 111.502 -26.4129C111.652 -26.8596 112.14 -27.1054 112.59 -26.9564C113.04 -26.8075 113.288 -26.3235 113.138 -25.8767C111.758 -21.7216 114.218 -18.4376 116.588 -15.2654C119.064 -11.9666 121.621 -8.54868 118.689 -4.71373C117.158 -2.71807 114.968 -1.85427 112.598 -1.77981C112.95 -0.729849 113.153 0.327555 113.153 1.37007C113.153 4.24442 111.622 8.01235 104.324 9.65803C98.278 11.0207 94.0699 13.4632 92.4647 16.5461C91.4895 18.4151 91.482 20.5225 92.4347 22.816C92.6147 23.2554 92.4047 23.7543 91.9696 23.933C91.8646 23.9777 91.7521 24 91.6396 24V23.9926ZM102.456 -10.038C102.111 -10.038 102.036 -9.88161 102.006 -9.80714C101.541 -8.84654 102.981 -7.03704 105.344 -5.60731C106.537 -4.885 108.089 -4.20737 109.71 -3.83504C107.774 -6.97747 104.661 -9.58375 102.869 -9.98586C102.704 -10.0231 102.569 -10.038 102.464 -10.038H102.456Z" fill="#FFC854"/>
<path d="M354.05 61.7281L332.869 99.2375L328.927 87.1967L296.709 122.324L330.786 70.9094L332.797 84.2841L354.05 61.7281Z" fill="white"/>
<path d="M43.9353 137.898L19.4036 110.137C21.1308 108.611 21.0978 105.751 19.3331 103.758L20.8056 102.455C20.8273 102.488 20.8544 102.516 20.8816 102.549C21.5928 103.357 22.744 103.511 23.4415 102.892C24.139 102.279 24.1282 101.115 23.4114 100.307C23.3898 100.274 23.3571 100.246 23.3299 100.218L24.1602 99.4905C24.1764 99.5236 24.209 99.5514 24.2307 99.5845C24.9474 100.393 26.0931 100.546 26.7906 99.9274C27.4881 99.3139 27.4773 98.1502 26.766 97.342C26.7389 97.3088 26.7117 97.2811 26.6791 97.2533L27.6699 96.3792C27.6915 96.4178 27.7187 96.4455 27.7458 96.4787C28.4626 97.2814 29.6082 97.4406 30.3058 96.8216C31.0032 96.2081 30.9924 95.0443 30.2757 94.2361C30.254 94.203 30.2214 94.1752 30.1942 94.1475L31.7165 92.8064C32.8948 94.135 34.5465 94.7491 36.0303 94.5548C36.7722 94.4576 37.4666 94.1569 38.0423 93.652L62.585 121.408C60.8579 122.934 60.8908 125.794 62.6555 127.786L61.1388 129.128L61.1062 129.089C60.3949 128.281 59.2493 128.127 58.5463 128.74C58.4799 128.8 58.4188 128.871 58.3633 128.936C57.8576 129.585 57.9357 130.595 58.5765 131.32L58.6035 131.359L57.6237 132.228L57.5966 132.189C56.8799 131.381 55.7342 131.227 55.0367 131.841C54.3392 132.46 54.35 133.624 55.0613 134.432L55.0938 134.471L54.2746 135.193L54.242 135.154C53.5307 134.346 52.3796 134.192 51.6821 134.806C50.9846 135.425 50.9954 136.588 51.7121 137.396L51.7392 137.435L50.2668 138.733C48.5021 136.74 45.6681 136.356 43.9409 137.887L43.9353 137.898Z" fill="#7A7A7A"/>
<path d="M43.6236 134.355L22.8764 110.879C24.4208 109.516 24.5642 107.157 23.2013 105.618L33.1046 96.8654C34.4675 98.4099 36.8262 98.5532 38.3652 97.1903L59.1179 120.662C57.5734 122.024 57.43 124.383 58.7929 125.922L48.8897 134.675C47.5268 133.131 45.168 132.987 43.6291 134.35L43.6236 134.355Z" fill="#7A7A7A" stroke="#181818" stroke-width="0.73" stroke-miterlimit="10"/>
<path d="M35.734 106.32C35.696 106.281 35.6799 106.237 35.675 106.182C35.6755 106.127 35.6924 106.084 35.7367 106.046C35.7754 106.008 35.8195 105.992 35.8743 105.998C35.9292 105.998 35.9729 106.021 36.0055 106.059L38.1793 108.32C38.2173 108.358 38.2334 108.402 38.2383 108.457C38.2378 108.512 38.2209 108.556 38.1766 108.594C38.1379 108.632 38.0883 108.648 38.039 108.642C37.9896 108.642 37.9459 108.614 37.9079 108.575L35.7341 106.315L35.734 106.32ZM33.763 110.385C33.7195 110.341 33.698 110.291 33.704 110.236C33.7046 110.181 33.7269 110.137 33.7657 110.099L36.7905 107.192L37.0731 107.486L34.0483 110.393C34.0095 110.431 33.9655 110.447 33.9051 110.447C33.8502 110.446 33.801 110.424 33.763 110.385Z" fill="black"/>
<path d="M36.0052 112.42C35.9609 112.458 35.9114 112.474 35.851 112.473C35.7961 112.473 35.747 112.45 35.7089 112.412C35.6654 112.367 35.6439 112.318 35.65 112.263C35.6505 112.208 35.6729 112.159 35.7172 112.121L38.7474 109.213C38.7862 109.175 38.8358 109.154 38.8907 109.154C38.9456 109.155 38.9948 109.177 39.0382 109.222C39.0763 109.26 39.0923 109.31 39.0917 109.365C39.0912 109.42 39.0688 109.469 39.03 109.512L35.9997 112.42L36.0052 112.42Z" fill="black"/>
<path d="M42.1199 112.924C42.1303 112.984 42.1188 113.039 42.0854 113.083C42.0521 113.126 42.0024 113.153 41.9419 113.169C41.8925 113.169 41.8486 113.163 41.8105 113.13C41.7724 113.096 41.7508 113.058 41.7348 113.014C41.6983 112.816 41.6342 112.628 41.5481 112.446C41.4621 112.265 41.3374 112.099 41.1908 111.938C41.006 111.744 40.7988 111.599 40.5693 111.498C40.3397 111.397 40.1042 111.346 39.8572 111.349C39.6102 111.347 39.3682 111.399 39.1258 111.496C38.8833 111.592 38.6623 111.744 38.4518 111.945C38.2358 112.151 38.0745 112.375 37.9624 112.615C37.8558 112.856 37.7986 113.097 37.7907 113.343C37.7884 113.59 37.8245 113.827 37.9211 114.058C38.0122 114.284 38.1474 114.494 38.3322 114.688C38.4789 114.843 38.6424 114.965 38.8226 115.066C38.9973 115.161 39.1832 115.234 39.3749 115.28C39.4242 115.291 39.4623 115.319 39.4948 115.363C39.5274 115.402 39.5324 115.451 39.5264 115.506C39.5203 115.567 39.4924 115.616 39.4427 115.643C39.393 115.675 39.3436 115.68 39.2888 115.669C39.1628 115.64 39.0261 115.589 38.8785 115.527C38.731 115.46 38.5835 115.382 38.4417 115.287C38.2999 115.193 38.1692 115.087 38.0551 114.965C37.8377 114.738 37.67 114.484 37.5629 114.203C37.4559 113.922 37.3982 113.636 37.4011 113.334C37.404 113.032 37.4672 112.742 37.5907 112.452C37.7142 112.163 37.9089 111.896 38.1637 111.651C38.413 111.412 38.6781 111.239 38.9701 111.126C39.2621 111.014 39.5536 110.956 39.8499 110.965C40.1462 110.968 40.4365 111.036 40.7153 111.154C40.994 111.278 41.2448 111.45 41.4676 111.683C41.6415 111.866 41.7823 112.064 41.8955 112.28C42.0087 112.495 42.078 112.715 42.1197 112.94L42.1199 112.924Z" fill="black"/>
<path d="M39.8292 116.705C39.7857 116.661 39.7642 116.611 39.7703 116.556C39.7708 116.501 39.7932 116.452 39.8375 116.414L42.8677 113.507C42.9065 113.469 42.9561 113.447 43.011 113.448C43.0659 113.448 43.1151 113.471 43.1585 113.515C43.1965 113.559 43.2181 113.603 43.2175 113.658C43.217 113.713 43.1946 113.762 43.1558 113.8L40.1256 116.708C40.0813 116.746 40.0317 116.762 39.9769 116.761C39.922 116.761 39.8728 116.738 39.8348 116.699L39.8292 116.705ZM45.2343 115.697C45.2723 115.736 45.2884 115.78 45.2879 115.835C45.2873 115.89 45.265 115.934 45.2317 115.966C45.1929 116.004 45.1489 116.02 45.0885 116.02L40.996 115.799L41.2848 115.451L45.0867 115.636C45.1471 115.636 45.1962 115.659 45.2343 115.692L45.2343 115.697ZM41.9482 118.954C41.9102 118.915 41.8942 118.86 41.9003 118.799L42.3021 115.823L42.7412 115.827L42.328 118.842C42.3165 118.897 42.2942 118.935 42.2609 118.973C42.211 119.022 42.156 119.038 42.0957 119.026C42.0355 119.015 41.9863 118.992 41.9537 118.954L41.9482 118.954Z" fill="black"/>
<path d="M46.2289 116.712L47.9027 118.457C47.9408 118.496 47.9568 118.54 47.9563 118.594C47.9558 118.649 47.9389 118.693 47.8945 118.737C47.8558 118.775 47.8062 118.796 47.7513 118.79C47.6964 118.79 47.6527 118.767 47.6147 118.728L46.0441 117.094L46.1707 117.062L44.8356 118.345L44.8476 118.235L46.2171 119.659C46.2552 119.698 46.2712 119.742 46.2706 119.802C46.2701 119.857 46.2477 119.906 46.2144 119.939C46.1757 119.977 46.126 119.998 46.0712 119.992C46.0163 119.992 45.9726 119.97 45.9401 119.931L44.5815 118.518L44.6693 118.519L43.301 119.829L43.3015 119.779L44.8503 121.391C44.8883 121.43 44.9044 121.474 44.9038 121.535C44.9033 121.589 44.8808 121.639 44.8476 121.671C44.8088 121.709 44.7592 121.731 44.7044 121.725C44.6495 121.724 44.6058 121.702 44.5677 121.663L42.894 119.918C42.8559 119.879 42.8399 119.83 42.8405 119.775C42.841 119.72 42.8634 119.671 42.8967 119.638L45.938 116.72C45.9767 116.682 46.0208 116.666 46.0812 116.666C46.1361 116.667 46.1852 116.689 46.2179 116.723L46.2289 116.712Z" fill="black"/>
<path d="M48.2766 119.388C48.2386 119.349 48.2225 119.305 48.2176 119.25C48.2181 119.195 48.235 119.151 48.2738 119.113C48.3126 119.075 48.3566 119.059 48.4114 119.065C48.4663 119.066 48.51 119.088 48.5426 119.127L50.7164 121.387C50.7544 121.426 50.7705 121.47 50.7754 121.525C50.7749 121.58 50.758 121.623 50.7138 121.661C50.675 121.699 50.6254 121.715 50.576 121.715C50.5266 121.714 50.483 121.687 50.4449 121.648L48.2711 119.388L48.2766 119.388ZM46.3056 123.452C46.2621 123.408 46.2406 123.358 46.2466 123.304C46.2472 123.249 46.2695 123.205 46.3083 123.167L49.3331 120.259L49.6157 120.553L46.5909 123.46C46.5521 123.499 46.5081 123.515 46.4477 123.514C46.3928 123.513 46.3436 123.491 46.3056 123.452Z" fill="black"/>
<path d="M33.4536 103.268L32.901 104.8L33.8488 106.126L32.2192 106.072L31.2516 107.38L30.8001 105.817L29.2573 105.297L30.6052 104.388L30.6154 102.758L31.9011 103.758L33.4536 103.268Z" fill="black"/>
<path d="M53.4244 123.614L52.8718 125.146L53.8196 126.472L52.19 126.418L51.2224 127.726L50.7708 126.163L49.228 125.649L50.576 124.734L50.5861 123.109L51.8718 124.11L53.4244 123.614Z" fill="black"/>
<path d="M61.1383 129.133L61.1058 129.094C60.3945 128.286 59.2488 128.132 58.5459 128.746C58.4794 128.805 58.4184 128.876 58.3629 128.941L56.6281 127.833L53.284 125.698L50.5945 123.987L29.2258 110.368C30.463 108.426 29.6495 105.685 27.4019 104.252L28.4607 102.594C28.4878 102.622 28.526 102.644 28.5588 102.666C29.2407 103.101 30.0473 103.12 30.6271 102.763C30.6271 102.763 30.6308 102.761 30.6381 102.758C30.8314 102.639 30.992 102.487 31.1146 102.296C31.6216 101.505 31.2865 100.393 30.3754 99.8187C30.3427 99.7909 30.3045 99.7741 30.2717 99.7573L30.8401 98.8626L30.8625 98.8244L30.8733 98.8355C30.8733 98.8355 30.9333 98.8745 30.9606 98.8967C31.8662 99.4708 33.0149 99.3061 33.5165 98.5151C33.7282 98.1823 33.7923 97.7932 33.7191 97.4138C33.6364 96.8861 33.301 96.3724 32.7827 96.0436C32.7501 96.0159 32.7118 95.999 32.6736 95.9822L33.3868 94.8638C33.414 94.8915 33.4522 94.9139 33.4849 94.9361C34.396 95.5157 35.5393 95.3455 36.0408 94.56C36.0409 94.5545 36.0409 94.549 36.0519 94.5436C36.7939 94.4465 37.4883 94.1457 38.064 93.6408L62.5846 121.407C60.8575 122.933 60.8904 125.793 62.6552 127.786L61.1384 129.127L61.1383 129.133Z" fill="#451C49"/>
<path d="M73.4206 117.324C72.9191 118.109 73.2487 119.221 74.1598 119.801L74.198 119.829L73.4958 120.931L73.4576 120.903C72.5466 120.323 71.4033 120.493 70.9018 121.279C70.4003 122.064 70.7299 123.176 71.641 123.756L71.6791 123.784L71.0939 124.706L71.0558 124.678C70.1447 124.098 69.0015 124.268 68.4999 125.054C67.9984 125.84 68.328 126.952 69.2391 127.531L69.2772 127.559L68.224 129.212C65.9819 127.78 63.1512 128.197 61.9086 130.139L30.6603 110.228C31.8974 108.286 31.0784 105.545 28.8363 104.113L29.8951 102.449C29.9278 102.477 29.9605 102.499 29.9932 102.521C30.9043 103.101 32.0476 102.931 32.5491 102.145C33.0506 101.359 32.721 100.248 31.8099 99.668C31.7772 99.6457 31.7445 99.6235 31.7062 99.6066L32.3025 98.6738C32.3351 98.7015 32.3679 98.7238 32.4006 98.7461C33.3116 99.3257 34.4549 99.1555 34.9564 98.3699C35.458 97.5844 35.1283 96.4725 34.2173 95.8929C34.1846 95.8706 34.1518 95.8484 34.1136 95.8315L34.8268 94.7187C34.8595 94.7464 34.8922 94.7687 34.9249 94.791C35.836 95.3706 36.9793 95.2004 37.4808 94.4148C37.9823 93.6293 37.6527 92.5174 36.7416 91.9378C36.7089 91.9155 36.6762 91.8933 36.6379 91.8764L37.7301 90.1635C39.9723 91.5956 42.8029 91.1782 44.0456 89.2361L75.2829 109.147C74.0458 111.089 74.8648 113.83 77.1069 115.262L76.0202 116.97L75.982 116.942C75.071 116.363 73.9277 116.533 73.4262 117.318L73.4206 117.324Z" fill="white"/>
<path d="M60.6279 126.828L34.2077 109.988C35.3166 108.253 34.8063 105.948 33.066 104.839L40.1711 93.6887C41.9059 94.7976 44.2105 94.2873 45.3195 92.547L71.7398 109.387C70.6309 111.122 71.1412 113.427 72.8814 114.536L65.7763 125.687C64.0416 124.578 61.7369 125.088 60.6279 126.828Z" fill="white" stroke="#7E7E7E" stroke-width="0.73" stroke-miterlimit="10"/>
<path d="M45.306 102.053C45.2623 102.025 45.2298 101.987 45.2138 101.937C45.1978 101.887 45.2037 101.838 45.2317 101.789C45.2595 101.745 45.2982 101.718 45.3477 101.702C45.3972 101.692 45.4465 101.703 45.4957 101.726L48.2085 103.3C48.2522 103.327 48.2847 103.366 48.3007 103.416C48.3167 103.465 48.3107 103.515 48.2828 103.564C48.2549 103.613 48.2162 103.64 48.1667 103.65C48.1172 103.661 48.0679 103.649 48.0243 103.622L45.3115 102.048L45.306 102.053ZM44.5333 106.503C44.4787 106.475 44.4461 106.43 44.4357 106.375C44.4252 106.32 44.4312 106.271 44.4591 106.227L46.5686 102.598L46.9234 102.804L44.8139 106.434C44.786 106.478 44.7473 106.51 44.6922 106.526C44.6372 106.542 44.5879 106.531 44.5388 106.503L44.5333 106.503Z" fill="#7E7E7E"/>
<path d="M47.2539 107.846C47.2205 107.895 47.1763 107.922 47.1213 107.938C47.0663 107.948 47.017 107.943 46.9678 107.92C46.9132 107.892 46.8806 107.848 46.8702 107.793C46.8597 107.738 46.8712 107.689 46.8936 107.639L49.0032 104.004C49.0312 103.955 49.0754 103.923 49.1249 103.907C49.18 103.891 49.2293 103.902 49.2839 103.93C49.3275 103.958 49.3601 103.997 49.376 104.052C49.392 104.107 49.3859 104.162 49.358 104.211L47.2484 107.846L47.2539 107.846Z" fill="#7E7E7E"/>
<path d="M53.2713 106.641C53.2982 106.696 53.3032 106.751 53.2807 106.806C53.2582 106.861 53.2249 106.899 53.1643 106.926C53.1202 106.942 53.0708 106.941 53.0271 106.924C52.9834 106.902 52.9452 106.874 52.9182 106.83C52.8266 106.654 52.7184 106.488 52.5826 106.338C52.4468 106.189 52.2889 106.061 52.0979 105.949C51.8686 105.816 51.6279 105.731 51.3813 105.696C51.1346 105.66 50.8929 105.68 50.6562 105.749C50.4196 105.818 50.1989 105.931 49.9943 106.094C49.7896 106.257 49.6175 106.464 49.4725 106.709C49.3218 106.966 49.226 107.228 49.1906 107.486C49.1497 107.743 49.1637 107.996 49.2218 108.233C49.2854 108.469 49.3876 108.69 49.5394 108.883C49.6912 109.077 49.8817 109.243 50.1056 109.372C50.2911 109.478 50.4825 109.557 50.6797 109.597C50.8769 109.643 51.0743 109.656 51.2665 109.652C51.3159 109.652 51.3652 109.664 51.4033 109.697C51.4414 109.73 51.4684 109.769 51.4734 109.824C51.4838 109.884 51.4723 109.939 51.4335 109.977C51.3947 110.021 51.3505 110.042 51.2902 110.042C51.1584 110.046 51.0158 110.039 50.8568 110.016C50.6979 109.992 50.5335 109.958 50.3749 109.907C50.2107 109.856 50.0576 109.788 49.9157 109.705C49.6428 109.548 49.4142 109.349 49.2353 109.111C49.051 108.873 48.9218 108.608 48.8422 108.322C48.7627 108.036 48.7436 107.734 48.785 107.422C48.8264 107.109 48.9337 106.803 49.1123 106.492C49.2853 106.197 49.4962 105.952 49.7395 105.762C49.9883 105.572 50.253 105.443 50.5447 105.364C50.8308 105.29 51.1274 105.271 51.4289 105.306C51.7304 105.348 52.0204 105.444 52.2988 105.606C52.5171 105.734 52.7077 105.884 52.8707 106.061C53.0391 106.238 53.169 106.432 53.2659 106.636L53.2713 106.641Z" fill="#7E7E7E"/>
<path d="M52.1092 110.906C52.0546 110.872 52.022 110.834 52.0116 110.779C52.0011 110.724 52.0126 110.674 52.035 110.625L54.1446 106.99C54.1725 106.941 54.2168 106.908 54.2663 106.892C54.3214 106.876 54.3706 106.888 54.4253 106.916C54.4744 106.944 54.5069 106.988 54.5229 107.037C54.5388 107.093 54.5274 107.142 54.4995 107.191L52.3898 110.826C52.3564 110.875 52.3123 110.902 52.2627 110.918C52.2077 110.934 52.1583 110.928 52.1093 110.895L52.1092 110.906ZM57.0287 108.445C57.0723 108.473 57.1049 108.511 57.1154 108.561C57.1259 108.61 57.12 108.66 57.0976 108.703C57.0697 108.747 57.031 108.78 56.9759 108.795L52.9823 109.712L53.162 109.297L56.8697 108.427C56.9302 108.411 56.9851 108.417 57.0287 108.445ZM54.7671 112.479C54.7179 112.451 54.6854 112.407 54.6806 112.341L54.2426 109.367L54.6663 109.256L55.0985 112.263C55.0979 112.318 55.0975 112.362 55.0697 112.405C55.0361 112.465 54.9864 112.498 54.926 112.503C54.8656 112.502 54.8108 112.502 54.7726 112.474L54.7671 112.479Z" fill="#7E7E7E"/>
<path d="M58.2639 109.148L60.3544 110.365C60.398 110.393 60.4306 110.432 60.4466 110.481C60.4625 110.531 60.4565 110.585 60.4286 110.635C60.4007 110.684 60.362 110.711 60.307 110.721C60.252 110.732 60.2082 110.72 60.1591 110.698L58.1995 109.559L58.3154 109.495L57.3835 111.094L57.3626 110.984L59.071 111.977C59.1146 112.005 59.1472 112.044 59.1576 112.099C59.1736 112.154 59.1676 112.203 59.1398 112.247C59.1118 112.296 59.0731 112.329 59.0181 112.339C58.9686 112.35 58.9193 112.338 58.8702 112.316L57.1726 111.328L57.2552 111.301L56.3009 112.939L56.2904 112.889L58.2227 114.011C58.2663 114.039 58.2989 114.078 58.3148 114.133C58.3308 114.188 58.3248 114.237 58.2969 114.281C58.269 114.33 58.2303 114.357 58.1754 114.367C58.1204 114.378 58.0766 114.366 58.0274 114.344L55.9369 113.127C55.8932 113.099 55.8607 113.061 55.8447 113.006C55.8288 112.951 55.8348 112.901 55.8626 112.858L57.9778 109.211C58.0057 109.168 58.0444 109.135 58.0995 109.119C58.1545 109.103 58.2039 109.109 58.2475 109.137L58.2639 109.148Z" fill="#7E7E7E"/>
<path d="M60.972 111.156C60.9283 111.128 60.8958 111.089 60.8798 111.04C60.8638 110.99 60.8698 110.941 60.8977 110.892C60.9255 110.848 60.9642 110.821 61.0138 110.805C61.0633 110.794 61.1126 110.806 61.1617 110.828L63.8745 112.402C63.9182 112.43 63.9507 112.469 63.9667 112.518C63.9827 112.568 63.9767 112.617 63.9488 112.666C63.9209 112.715 63.8822 112.742 63.8327 112.753C63.7832 112.763 63.734 112.752 63.6903 112.724L60.9775 111.15L60.972 111.156ZM60.1993 115.605C60.1447 115.577 60.1122 115.533 60.1017 115.478C60.0913 115.423 60.0972 115.374 60.1251 115.33L62.2346 111.7L62.5894 111.907L60.4799 115.536C60.452 115.58 60.4133 115.613 60.3583 115.623C60.3032 115.639 60.254 115.628 60.2048 115.6L60.1993 115.605Z" fill="#7E7E7E"/>
<path d="M42.2719 99.7522L42.1631 101.376L43.4377 102.387L41.8587 102.784L41.2897 104.309L40.4247 102.929L38.8007 102.864L39.8446 101.612L39.404 100.043L40.9186 100.65L42.2719 99.7522Z" fill="#7E7E7E"/>
<path d="M67.0825 113.8L66.9736 115.424L68.2483 116.435L66.6692 116.831L66.1002 118.357L65.2353 116.977L63.6112 116.912L64.6551 115.659L64.2146 114.091L65.7291 114.698L67.0825 113.8Z" fill="#7E7E7E"/>
<path d="M239.313 37.174L239.358 37.1205C242.62 33.3126 245.33 28.9155 247.307 24.0005C251.797 12.8386 251.717 0.962926 247.944 -9.54314C247.522 -10.7338 247.047 -11.9137 246.525 -13.073C244.582 -17.3636 241.998 -21.3697 238.844 -24.9276C238.192 -25.6681 237.517 -26.3866 236.813 -27.0764C235.804 -28.0965 234.735 -29.0686 233.614 -29.99C233.155 -30.3742 232.683 -30.7475 232.199 -31.1098C231.037 -32.0079 229.82 -32.8484 228.554 -33.6285C227.963 -34.002 227.356 -34.3577 226.747 -34.7065C226.012 -35.1215 225.27 -35.5159 224.503 -35.8884C223.406 -36.4333 222.286 -36.9397 221.132 -37.4036C219.396 -38.1022 217.645 -38.6868 215.89 -39.1615C215.74 -39.2058 215.588 -39.2432 215.438 -39.2874C214.536 -39.5228 213.629 -39.7279 212.728 -39.9069C212.097 -40.0414 211.47 -40.1498 210.838 -40.2444C210.69 -40.2722 210.532 -40.2958 210.381 -40.3167C210.105 -40.364 209.823 -40.3975 209.542 -40.431C207.535 -40.696 205.522 -40.8277 203.527 -40.8247C203.082 -40.8283 202.641 -40.8223 202.197 -40.8094C200.833 -40.7681 199.479 -40.6745 198.135 -40.5054C197.864 -40.4867 197.595 -40.4515 197.323 -40.4094C197.07 -40.3756 196.81 -40.3445 196.561 -40.301C196.174 -40.2495 195.781 -40.1843 195.394 -40.1164C195.214 -40.0851 195.025 -40.0498 194.842 -40.0117C194.472 -39.9451 194.093 -39.8744 193.724 -39.7913C193.613 -39.7722 193.499 -39.7463 193.382 -39.7136C192.974 -39.6306 192.567 -39.5311 192.16 -39.4316C192.036 -39.4016 191.903 -39.3675 191.776 -39.3306C190.979 -39.1329 190.185 -38.9023 189.395 -38.6455C189.314 -38.6223 189.24 -38.5963 189.159 -38.5731C187.696 -38.1088 186.252 -37.573 184.835 -36.963C184.526 -36.8317 184.213 -36.6866 183.902 -36.5485C182.711 -36.0067 181.548 -35.414 180.405 -34.7732C176.629 -32.6632 173.135 -30.025 170.045 -26.9216L169.999 -26.8681C168.91 -25.7669 167.865 -24.6162 166.882 -23.4007C163.966 -19.8202 161.536 -15.7414 159.721 -11.2314C158.479 -8.14228 157.589 -4.99891 157.032 -1.84941C154.743 10.9395 157.915 23.8915 165.292 34.0844C167.268 36.8252 169.553 39.3716 172.122 41.6491C176.078 45.1784 180.697 48.0892 185.901 50.1823C205.149 57.9251 226.499 52.0776 239.313 37.174ZM167.299 -10.7591C168.075 -12.3295 169.153 -13.6423 170.427 -14.6689C172.867 -16.6304 176.036 -17.5489 179.172 -17.1568C180.44 -16.9977 181.698 -16.6352 182.909 -16.0366C183.203 -15.8945 183.488 -15.7318 183.764 -15.565C185.516 -14.5091 186.896 -13.061 187.856 -11.3828C189.721 -8.12832 189.981 -4.03604 188.186 -0.427279C187.943 0.0572718 187.676 0.523916 187.373 0.96026C184.157 5.70394 177.859 7.46141 172.57 4.84741C171.937 4.53703 171.35 4.17315 170.805 3.76264C166.352 0.479753 164.753 -5.61842 167.299 -10.7591ZM196.115 -30.6468C196.279 -30.7962 196.44 -30.9388 196.612 -31.069C196.861 -31.2719 197.112 -31.4582 197.376 -31.6391C197.432 -31.6802 197.486 -31.7144 197.546 -31.7459C197.786 -31.9048 198.032 -32.061 198.286 -32.1979C199.373 -32.7976 200.569 -33.2336 201.842 -33.4633C202.316 -33.5517 202.803 -33.6112 203.292 -33.6378C204.098 -33.6802 204.895 -33.6388 205.669 -33.5191C205.941 -33.4815 206.214 -33.4274 206.478 -33.3691C207.076 -33.232 207.652 -33.0563 208.208 -32.8327C209.196 -32.435 210.119 -31.9125 210.95 -31.283C211.102 -31.1659 211.248 -31.0516 211.393 -30.9372C212.316 -30.1591 213.114 -29.248 213.765 -28.2286C213.788 -28.1873 213.814 -28.1529 213.838 -28.1117C214.448 -27.1322 214.908 -26.0541 215.204 -24.9062C215.338 -24.4058 215.436 -23.8959 215.498 -23.3764C215.525 -23.1263 215.545 -22.8789 215.562 -22.6247C215.584 -22.2413 215.584 -21.8662 215.561 -21.4925C215.473 -19.2709 214.747 -17.1866 213.553 -15.4494C211.575 -12.5528 208.32 -10.5681 204.545 -10.3639C203.894 -10.3308 203.255 -10.3485 202.628 -10.4171C201.269 -10.5654 199.979 -10.9485 198.8 -11.5265C198.561 -11.6465 198.332 -11.7706 198.099 -11.9043L197.434 -12.315C196.31 -13.0702 195.324 -14.0092 194.528 -15.103C193.272 -16.7969 192.47 -18.8498 192.304 -21.0939C192.294 -21.1859 192.283 -21.278 192.279 -21.3673C192.247 -21.9623 192.256 -22.5408 192.319 -23.1136C192.426 -24.2909 192.713 -25.4198 193.168 -26.4728C193.226 -26.6169 193.284 -26.7611 193.353 -26.8929C193.37 -26.934 193.383 -26.9684 193.4 -27.0096C193.612 -27.4584 193.852 -27.8963 194.131 -28.3107C194.209 -28.4466 194.295 -28.5797 194.384 -28.7032C194.887 -29.418 195.471 -30.0764 196.118 -30.6536L196.115 -30.6468ZM239.217 -12.5513C239.52 -11.839 239.743 -11.1034 239.893 -10.3653C239.987 -9.90484 240.05 -9.44855 240.088 -8.98681C240.249 -6.92825 239.86 -4.85151 238.965 -3.00247C238.722 -2.47808 238.434 -1.97987 238.104 -1.49824C237.582 -0.735308 236.969 -0.0247658 236.26 0.607272C235.762 1.05285 235.212 1.46948 234.618 1.83656C229.153 5.22935 221.969 3.55972 218.574 -1.89753C217.515 -3.60747 216.944 -5.47996 216.838 -7.35705C216.761 -8.59243 216.887 -9.81779 217.195 -11.0016C217.807 -13.3554 219.158 -15.5237 221.152 -17.1302C221.517 -17.4221 221.906 -17.6962 222.313 -17.9551C222.857 -18.2948 223.411 -18.5822 223.983 -18.8147C225.662 -19.5191 227.445 -19.8069 229.194 -19.6936L229.207 -19.688C231.463 -19.5463 233.653 -18.7451 235.489 -17.3607C236.606 -16.5286 237.582 -15.466 238.368 -14.2086C238.704 -13.6748 238.984 -13.1233 239.22 -12.5581L239.217 -12.5513ZM171.733 13.6105C171.733 13.6105 171.777 13.5804 171.802 13.5585C172.163 13.2734 172.553 12.9993 172.957 12.7473C178.424 9.34763 185.606 11.0241 188.998 16.4882C191.521 20.5258 191.256 25.5074 188.741 29.2014C187.851 30.5022 186.687 31.6527 185.262 32.5389C184.974 32.7184 184.685 32.8813 184.395 33.0278C179.056 35.753 172.434 33.9746 169.214 28.7952C166.076 23.7685 167.253 17.2718 171.73 13.6174L171.733 13.6105ZM198.28 43.6936C197.052 42.3062 196.161 40.6159 195.729 38.7354C195.565 38.0714 195.46 37.3829 195.425 36.6752C195.216 32.7946 196.926 29.2557 199.736 26.9886C201.567 25.4917 203.877 24.5468 206.429 24.4089C212.854 24.0586 218.345 28.9868 218.692 35.4192C218.729 36.12 218.709 36.8056 218.621 37.48L218.615 37.4938C218.516 38.3551 218.31 39.2052 218.022 39.9988C217.689 40.9256 217.245 41.7917 216.702 42.5862C214.732 45.5021 211.47 47.484 207.689 47.6855C203.963 47.8857 200.559 46.3169 198.285 43.7032L198.28 43.6936ZM236.118 29.9872C233.752 31.5078 230.868 32.1342 228.033 31.6877C227.62 31.625 227.231 31.5405 226.827 31.4339C226.094 31.2346 225.374 30.9612 224.669 30.6135C218.899 27.7664 216.541 20.7805 219.391 15.0043C220.167 13.4339 221.255 12.117 222.539 11.0862C225.964 8.34076 230.808 7.65767 235.008 9.72957C235.526 9.98615 236.022 10.2811 236.483 10.6022C237.524 11.3242 238.419 12.1943 239.156 13.1768C240.444 14.8913 241.225 16.9359 241.431 19.0605C241.634 21.1521 241.273 23.3196 240.275 25.343C240.03 25.8344 239.762 26.301 239.459 26.7373C238.565 28.0684 237.416 29.1612 236.118 29.9872Z" fill="white"/>
<path d="M151.504 47.2014L144.654 44.4456C144.925 44.1081 145.21 43.7762 145.499 43.4538C150.557 37.8399 157.781 34.4533 165.29 34.0845C166.325 34.0302 167.375 34.0377 168.416 34.1057C168.837 34.1312 169.261 34.1664 169.68 34.2153C175.531 34.8381 180.844 37.1348 185.985 39.3624C190.183 41.1787 194.158 42.8971 198.279 43.6938C198.388 43.7214 198.499 43.7423 198.61 43.7631C200.602 44.1256 202.631 44.2559 204.648 44.1582C209.362 43.9406 214.011 42.4932 218.017 39.9893C218.614 39.6154 219.196 39.2194 219.759 38.7918C220.098 38.5451 220.425 38.2861 220.746 38.0243C222.021 36.9743 223.255 35.7717 224.482 34.3671C225.263 33.4769 226.037 32.5042 226.823 31.4409C227.436 30.6108 228.048 29.7244 228.675 28.7803C228.876 28.4784 229.08 28.1697 229.28 27.8513C233.226 21.6704 235.574 16.1309 236.435 10.9182C236.453 10.8139 236.468 10.7163 236.479 10.6092C236.667 9.40866 236.774 8.19151 236.794 6.97144C236.85 4.84872 236.657 2.71314 236.254 0.62113C236.205 0.346235 236.146 0.0754431 236.078 -0.191245C235.438 -3.08064 234.399 -5.89111 232.986 -8.48522C232.35 -9.69833 231.625 -10.8511 230.832 -11.9519C228.93 -14.5992 226.622 -16.9312 223.976 -18.8009C223.817 -18.9207 223.649 -19.0364 223.48 -19.1522L224.152 -20.1498L225.755 -22.5278L225.758 -22.5347L227.355 -24.899C228.577 -24.0722 229.742 -23.181 230.837 -22.2143C232.54 -20.7394 234.094 -19.1096 235.482 -17.3468C236.695 -15.822 237.786 -14.211 238.747 -12.5163C239.15 -11.8121 239.53 -11.0927 239.889 -10.3583C240.101 -9.9141 240.306 -9.47265 240.503 -9.0106C240.912 -8.10434 241.283 -7.18167 241.615 -6.24258C243.652 -0.422483 244.298 5.88269 243.276 12.0513C243.201 12.5156 243.112 12.9743 243.014 13.4372C242.637 15.2872 242.115 17.159 241.427 19.0675C240.385 22.0141 238.971 25.0342 237.181 28.1744C236.842 28.7797 236.487 29.3863 236.114 29.9942C235.792 30.5185 235.464 31.0565 235.122 31.5889C231.802 36.7693 228.635 40.5197 225.146 43.3832C219.513 48.0081 212.397 50.6887 205.149 51.0827C202.55 51.2178 199.941 51.0616 197.37 50.5936C192.339 49.6784 187.707 47.6716 183.233 45.7283C179.444 44.0845 175.807 42.5179 172.118 41.6561C170.745 41.3429 169.366 41.1232 167.974 41.0339C161.984 40.6582 155.787 42.9984 151.502 47.2083L151.504 47.2014Z" fill="#451C49"/>
<path d="M173.269 -7.44026C166.132 10.3027 174.73 30.4721 192.473 37.6093C210.216 44.7465 230.385 36.1488 237.522 18.4058C244.659 0.662828 236.062 -19.5065 218.319 -26.6437C200.576 -33.7809 180.406 -25.1832 173.269 -7.44026Z" fill="#451C49"/>
<path d="M210.24 -35.468C210.531 -35.3589 210.819 -35.2429 211.105 -35.12L210.984 -35.5916L210.644 -37.0281L209.969 -37.4113L208.389 -35.9813C209.029 -35.8674 209.647 -35.6986 210.243 -35.4748L210.24 -35.468ZM205.152 51.0759C217.942 51.2601 230.312 46.2031 239.312 37.1742L239.357 37.1207C243.672 32.779 247.207 27.5179 249.635 21.4839C253.804 11.1183 254.034 0.156965 251.029 -9.76091C250.673 -10.957 250.262 -12.1353 249.805 -13.3C248.777 -15.9387 247.511 -18.4817 246.026 -20.8973C244.258 -23.7779 242.169 -26.4763 239.794 -28.939C238.996 -29.7705 238.168 -30.5663 237.305 -31.336C236.865 -31.7285 236.422 -32.114 235.966 -32.4886C234.866 -33.4017 233.723 -34.2682 232.528 -35.0839C231.238 -35.9617 229.903 -36.7859 228.51 -37.5457C227.77 -37.947 227.018 -38.3373 226.245 -38.696C225.339 -39.1402 224.403 -39.5487 223.456 -39.9298C221.485 -40.7223 219.497 -41.3706 217.5 -41.8787C216.958 -42.0172 216.413 -42.1487 215.871 -42.2707C215.723 -42.2985 215.578 -42.3331 215.436 -42.3581C214.385 -42.5814 213.328 -42.7675 212.274 -42.9042C210.131 -43.2079 207.981 -43.355 205.843 -43.3537C203.912 -43.3492 201.992 -43.2361 200.093 -42.9952C199.941 -42.9763 199.79 -42.9573 199.636 -42.9315C198.68 -42.8138 197.737 -42.6508 196.79 -42.4575C196.629 -42.4345 196.472 -42.4018 196.306 -42.365C196.283 -42.3665 196.247 -42.3569 196.218 -42.3446C195.751 -42.2534 195.285 -42.1458 194.816 -42.0313C194.78 -42.0218 194.737 -42.015 194.702 -42.0054C194.376 -41.9291 194.047 -41.8459 193.726 -41.76C193.011 -41.569 192.307 -41.3657 191.602 -41.1389C191.511 -41.1116 191.411 -41.0802 191.314 -41.0392C190.99 -40.9464 190.667 -40.8371 190.341 -40.721C189.024 -40.2618 187.731 -39.745 186.456 -39.1731C185.608 -38.7887 184.765 -38.3781 183.944 -37.9428C183.351 -37.6389 182.764 -37.3089 182.183 -36.9762C181.673 -36.679 181.169 -36.3791 180.667 -36.0626C176.729 -33.5875 173.134 -30.5194 170.044 -26.9214L169.998 -26.8679C168.533 -25.1684 167.188 -23.3326 165.964 -21.4004C164.455 -19.0167 163.139 -16.4595 162.049 -13.7479C161.519 -12.4299 161.049 -11.1036 160.649 -9.77292C155.92 5.83066 159.705 22.315 169.68 34.2154C174.501 39.9749 180.769 44.6573 188.224 47.6561C193.777 49.8901 199.507 50.9908 205.152 51.0759ZM171.741 13.6465C171.741 13.6465 171.78 13.5902 171.801 13.5586C172.691 12.2578 173.855 11.1073 175.281 10.2211C180.745 6.8283 187.926 8.50479 191.326 13.9717C194.476 19.0272 193.272 25.5693 188.74 29.2016C188.376 29.4935 187.996 29.7635 187.592 30.0155C186.071 30.9592 184.413 31.5125 182.752 31.6975C178.423 32.1892 173.993 30.2158 171.544 26.2718C169.047 22.2686 169.283 17.3391 171.739 13.6533L171.741 13.6465ZM242.236 -12.7637C242.47 -11.561 242.506 -10.3422 242.354 -9.15121C242.24 -8.15254 241.984 -7.17887 241.618 -6.24938C241.049 -4.83526 240.212 -3.52884 239.108 -2.4098C238.796 -2.08889 238.458 -1.78589 238.103 -1.49804C237.739 -1.20609 237.352 -0.938907 236.948 -0.686877C236.663 -0.514304 236.381 -0.348602 236.084 -0.204907C230.749 2.52998 224.124 0.758401 220.897 -4.42373C220.278 -5.42245 219.824 -6.47444 219.537 -7.54672C219.215 -8.72899 219.09 -9.94385 219.155 -11.1377C219.254 -13.2672 219.941 -15.3516 221.151 -17.13C221.936 -18.2895 222.942 -19.3208 224.158 -20.1634C224.312 -20.2689 224.476 -20.3785 224.637 -20.4813C225.392 -20.9511 226.178 -21.3205 226.992 -21.5993L226.995 -21.6061C228.255 -22.0406 229.556 -22.2428 230.842 -22.2279C234.714 -22.2177 238.492 -20.2675 240.691 -16.7348C241.471 -15.4802 241.982 -14.1341 242.239 -12.7706L242.236 -12.7637ZM210.005 45.1565C208.098 45.2586 206.275 44.8923 204.648 44.1582C202.496 43.2046 200.683 41.6059 199.447 39.6016L199.44 39.5988C198.464 38.0017 197.854 36.1456 197.742 34.1462C197.6 31.5051 198.344 29.021 199.729 26.986C201.699 24.0701 204.963 22.0814 208.745 21.8799C215.175 21.5393 220.668 26.4606 221.006 32.8971C221.076 34.1695 220.938 35.4059 220.621 36.5704L220.615 36.5841C220.406 37.3614 220.118 38.0987 219.756 38.7987C219.016 40.2634 217.969 41.557 216.695 42.5837C214.864 44.0805 212.554 45.0255 210.002 45.1634L210.005 45.1565ZM237.184 28.1676C235.161 29.1323 232.878 29.514 230.616 29.2101C229.965 29.1236 229.322 28.9767 228.678 28.7735C228.112 28.5938 227.547 28.3742 226.996 28.097C221.23 25.243 218.865 18.2543 221.719 12.4877C221.964 11.9963 222.232 11.5296 222.538 11.0864C225.645 6.51429 231.631 4.7191 236.797 6.96464C236.975 7.03643 237.155 7.12472 237.328 7.21024C238.266 7.6751 239.105 8.24419 239.853 8.90379C241.279 10.1555 242.352 11.7116 243.017 13.4304C244.162 16.3716 244.113 19.7653 242.605 22.8195C241.83 24.3899 240.739 25.7137 239.458 26.7375C238.751 27.3064 237.99 27.7899 237.184 28.1676ZM205.612 -36.1571C206.558 -36.2075 207.489 -36.1438 208.386 -35.9745C209.026 -35.8605 209.644 -35.6917 210.24 -35.468C210.531 -35.3589 210.819 -35.2429 211.105 -35.12C211.126 -35.1118 211.146 -35.1035 211.164 -35.0883C211.322 -35.0248 211.474 -34.9476 211.624 -34.8635C213.905 -33.6747 215.756 -31.7337 216.843 -29.3587C217.204 -28.5913 217.473 -27.7733 217.653 -26.9114C217.73 -26.5691 217.789 -26.2187 217.824 -25.8696C217.851 -25.6593 217.871 -25.4518 217.886 -25.2306C217.884 -25.2072 217.89 -25.1811 217.888 -25.1577C217.903 -24.8568 217.908 -24.5518 217.899 -24.2523C217.818 -20.7199 216.153 -17.5533 213.555 -15.4561C211.721 -13.9689 209.416 -13.0376 206.878 -12.8942C202.343 -12.6447 198.271 -15.0324 196.149 -18.7174C195.387 -20.0366 194.878 -21.5256 194.682 -23.1198C194.65 -23.3796 194.626 -23.6366 194.612 -23.8976C194.589 -24.2577 194.59 -24.6163 194.604 -24.9694C194.624 -25.5354 194.685 -26.1014 194.793 -26.648C194.844 -26.9543 194.912 -27.262 194.991 -27.5572L194.997 -27.571C194.997 -27.571 195.013 -27.6122 195.021 -27.6328C195.153 -28.0983 195.302 -28.5487 195.489 -28.9921C195.716 -29.5385 195.985 -30.0684 196.293 -30.5748C196.402 -30.7463 196.508 -30.911 196.623 -31.0798C197.051 -31.7055 197.534 -32.2926 198.075 -32.8247C199.829 -34.5676 202.139 -35.7516 204.738 -36.086C205.034 -36.1266 205.324 -36.1535 205.625 -36.1681L205.612 -36.1571ZM181.579 -19.6732L181.593 -19.6676C182.825 -19.499 184.06 -19.138 185.229 -18.5559C185.662 -18.3421 186.069 -18.1063 186.459 -17.8459C189.965 -15.5582 191.897 -11.5987 191.707 -7.57603C191.638 -6.01668 191.249 -4.43459 190.507 -2.94661C189.731 -1.37626 188.653 -0.0634342 187.372 0.960455C183.948 3.72242 179.103 4.4055 174.897 2.33084C173.468 1.62045 172.256 0.670037 171.274 -0.458551C168.285 -3.89386 167.48 -8.93113 169.627 -13.2757C169.87 -13.7602 170.134 -14.22 170.431 -14.6591C172.93 -18.3352 177.285 -20.2201 181.583 -19.6635L181.579 -19.6732Z" fill="#B5B5B5"/>
<path d="M192.875 9.96039C195.75 16.7043 203.547 19.8409 210.291 16.9662C217.035 14.0914 220.172 6.29385 217.297 -0.45011C214.422 -7.19407 206.625 -10.3307 199.881 -7.45588C193.137 -4.5811 190 3.21643 192.875 9.96039Z" stroke="white" stroke-width="0.59" stroke-miterlimit="10"/>
<path d="M199.388 7.18407C200.729 10.3305 204.367 11.7939 207.513 10.4526C210.66 9.1114 212.123 5.47343 210.782 2.327C209.441 -0.81943 205.803 -2.28282 202.656 -0.941581C199.51 0.399662 198.047 4.03764 199.388 7.18407Z" fill="white"/>
<path d="M155.071 44.2817C155.071 44.2817 152.968 45.5651 151.511 47.2042C150.047 48.8405 148.652 52.8251 148.652 52.8251L141.76 50.0528C141.76 50.0528 142.96 46.7314 144.874 44.1753C146.787 41.6193 150.507 39.1121 150.507 39.1121L155.081 44.2776L155.071 44.2817Z" fill="#451C49"/>
<path d="M81.2206 21.8674L80.9454 22.672C80.9222 22.7082 80.894 22.7411 80.8763 22.7792C80.6494 23.2756 80.3496 23.7233 80.0016 24.1404C79.1752 25.1301 78.1609 25.8838 77.0627 26.5219C74.5717 27.9687 71.8865 28.873 69.1119 29.5242C68.8621 29.5823 68.6576 29.5029 68.506 29.2965C67.777 28.3092 67.0171 27.3444 66.3311 26.3261C65.2452 24.7169 64.3301 23.01 63.7186 21.1467C63.3694 20.0828 63.1459 18.994 63.205 17.8601C63.2247 17.4821 63.2962 17.106 63.3446 16.7299L63.6319 15.8901C63.6603 15.843 63.6915 15.7969 63.7145 15.748C64.1902 14.7092 64.8891 13.8619 65.8431 13.2438C67.0312 12.4739 68.318 12.1872 69.687 12.5357C71.3299 12.9542 72.4132 14.0296 73.0212 15.6141C73.1208 15.8737 73.1882 16.1459 73.2648 16.396C73.6109 16.1738 73.9381 15.9215 74.2994 15.7407C76.1264 14.8268 77.8955 14.9037 79.4986 16.1743C80.9209 17.301 81.4755 18.8704 81.3882 20.687C81.3688 21.0824 81.2776 21.4753 81.2202 21.8688L81.2206 21.8674Z" fill="#FF005A"/>
<path d="M278.905 129.219L249.098 115.81L240.816 134.218L270.624 147.628L278.905 129.219Z" fill="#212121"/>
<path d="M273.705 149.014L237.729 132.829L234.2 140.672L270.176 156.856L273.705 149.014Z" fill="#424242"/>
<path d="M273.705 149.014L237.729 132.829L234.2 140.672L270.176 156.856L273.705 149.014Z" fill="#424242"/>
<path d="M282.327 124.953L250.012 110.415L247.839 115.244L280.154 129.782L282.327 124.953Z" fill="#424242"/>
<path d="M273.705 149.014L237.729 132.829L234.2 140.672L270.176 156.856L273.705 149.014Z" fill="#424242"/>
<g style="mix-blend-mode:overlay" opacity="0.3">
<g style="mix-blend-mode:overlay" opacity="0.3">
<path d="M273.705 149.013L256.041 141.066L252.513 148.909L270.177 156.856L273.705 149.013Z" fill="#F5F5F5"/>
</g>
</g>
<g style="mix-blend-mode:overlay" opacity="0.3">
<g style="mix-blend-mode:overlay" opacity="0.3">
<path d="M282.328 124.953L266.486 117.826L264.314 122.655L280.155 129.782L282.328 124.953Z" fill="#F5F5F5"/>
</g>
</g>
<path d="M282.374 121.171L252.805 107.868L251.379 111.038L280.948 124.341L282.374 121.171Z" fill="#F9DC30"/>
<path d="M282.374 121.171L252.805 107.868L252.48 108.59L282.05 121.893L282.374 121.171Z" fill="#F9DC30"/>
<path d="M294.188 48.5517L292.335 53.6233L283.347 54.0531L278.152 68.8039L279.751 71.8316L272.711 87.4795L272.25 92.9799L268.106 100.76L266.627 110.768L264.128 112.167L263.509 113.543L267.586 115.378L297.067 49.8472L294.188 48.5517Z" fill="#FCC02F"/>
<path d="M299.956 51.146L297.382 55.8929L303.022 62.9038L295.431 76.5767L292.112 77.3918L285.072 93.0397L281.255 97.0304L278.19 105.296L271.674 113.038L272.292 115.839L271.673 117.216L267.595 115.381L297.076 49.8506L299.956 51.146Z" fill="#FCC02F"/>
<path d="M295.805 42.7923L300.38 42.5064L295.526 53.2955L294.038 52.626L293.595 47.7031L295.805 42.7923Z" fill="#FCC02F"/>
<path d="M303.192 46.1166L300.379 42.5068L295.525 53.2959L297.013 53.9654L300.983 51.0275L303.192 46.1166Z" fill="#F9DC30"/>
<path d="M297.117 57.1787L301.878 62.9438L295.262 75.3826L292.061 76.5909L294.876 74.0728L300.276 63.1445L297.117 57.1787Z" fill="#F9DC30"/>
<path d="M290.973 77.9347L284.7 91.8787L281.033 96.0713L290.973 77.9347Z" fill="#F9DC30"/>
<path d="M280.266 97.7759L277.502 104.755L271.253 112.161L280.266 97.7759Z" fill="#F9DC30"/>
<path d="M291.528 54.6647L284.056 54.9266L279.144 68.132L280.356 71.3253L280.381 67.5519L284.969 56.2587L291.528 54.6647Z" fill="#F9DC30"/>
<path d="M280.08 73.0342L273.807 86.9782L273.102 92.5031L280.08 73.0342Z" fill="#F9DC30"/>
<path d="M272.334 94.207L268.945 100.904L267.548 110.493L272.334 94.207Z" fill="#F9DC30"/>
<path d="M243.97 63H97V105.75H243.97V63Z" fill="#9E305F"/>
<path d="M130.371 95.1406V80.2206L124.501 95.1406H120.441L114.571 80.4106V95.1406H109.811V72.6406H116.351L122.541 87.8406L128.411 72.6406H135.301V95.1406H130.381H130.371Z" fill="white"/>
<path d="M150.751 72.1699C157.071 72.1699 162.431 76.7699 162.431 83.9099C162.431 91.0499 157.071 95.6199 150.751 95.6199C144.431 95.6199 139.041 91.0199 139.041 83.9099C139.041 76.7999 144.401 72.1699 150.751 72.1699ZM150.751 90.6699C153.861 90.6699 157.221 88.5699 157.221 83.8799C157.221 79.1899 153.851 77.0599 150.751 77.0599C147.651 77.0599 144.241 79.1899 144.241 83.8799C144.241 88.5699 147.601 90.6699 150.751 90.6699Z" fill="white"/>
<path d="M179.56 72.6406H184.89L176.67 95.1406H171.5L163.25 72.6406H168.77L174.2 88.4806L179.56 72.6406Z" fill="white"/>
<path d="M187.82 95.1406V72.6406H192.9V95.1406H187.82Z" fill="white"/>
<path d="M197.91 95.1406V72.6406H212.16V77.3706H202.92V81.6606H211.3V86.0706H202.92V90.3906H212.19V95.1506H197.91V95.1406Z" fill="white"/>
<path d="M227.551 79.4302C227.391 78.3802 226.531 76.6102 223.801 76.6102C221.931 76.6102 220.721 77.7802 220.721 79.0202C220.721 80.1002 221.391 80.8902 222.941 81.1802L225.951 81.7502C230.241 82.5402 232.461 85.3002 232.461 88.5102C232.461 92.0302 229.511 95.6202 224.141 95.6202C217.921 95.6202 215.251 91.5902 214.941 88.4102L219.541 87.3002C219.731 89.3602 221.131 91.1702 224.211 91.1702C226.181 91.1702 227.381 90.2202 227.381 88.8202C227.381 87.6802 226.461 86.8502 224.971 86.5702L221.891 86.0002C218.081 85.2702 215.771 82.7302 215.771 79.4002C215.771 75.1502 219.521 72.1602 223.831 72.1602C229.451 72.1602 231.571 75.5202 232.051 78.1602L227.541 79.4302H227.551Z" fill="white"/>
<path d="M150.51 93.3997C155.542 93.3997 159.62 89.321 159.62 84.2897C159.62 79.2584 155.542 75.1797 150.51 75.1797C145.479 75.1797 141.4 79.2584 141.4 84.2897C141.4 89.321 145.479 93.3997 150.51 93.3997Z" fill="white"/>
<path d="M150.74 76.0498L153.15 80.9498L158.56 81.7398L154.65 85.5498L155.57 90.9398L150.74 88.3998L145.9 90.9398L146.82 85.5498L142.91 81.7398L148.32 80.9498L150.74 76.0498Z" fill="#9E305F"/>
</g>
<defs>
<filter id="filter0_f_2530_47831" x="79" y="-7" width="182" height="182" filterUnits="userSpaceOnUse" color-interpolation-filters="sRGB">
<feFlood flood-opacity="0" result="BackgroundImageFix"/>
<feBlend mode="normal" in="SourceGraphic" in2="BackgroundImageFix" result="shape"/>
<feGaussianBlur stdDeviation="15" result="effect1_foregroundBlur_2530_47831"/>
</filter>
<clipPath id="clip0_2530_47831">
<path d="M0 25C0 11.1929 11.1929 0 25 0H315C328.807 0 340 11.1929 340 25V143C340 156.807 328.807 168 315 168H25C11.1929 168 0 156.807 0 143V25Z" fill="white"/>
</clipPath>
<clipPath id="clip1_2530_47831">
<rect width="12" height="13" fill="white" transform="translate(258 41)"/>
</clipPath>
<clipPath id="clip2_2530_47831">
<rect width="12" height="13" fill="white" transform="translate(106.195 131) rotate(51.6575)"/>
</clipPath>
<clipPath id="clip3_2530_47831">
<rect width="39" height="37" fill="white" transform="translate(-2 45)"/>
</clipPath>
<clipPath id="clip4_2530_47831">
<rect width="39" height="37" fill="white" transform="translate(204.363 99.3105) rotate(93.5802)"/>
</clipPath>
</defs>
</svg>
