<svg width="340" height="168" viewBox="0 0 340 168" fill="none" xmlns="http://www.w3.org/2000/svg">
<g clip-path="url(#clip0_2530_46934)">
<path d="M0 25C0 11.1929 11.1929 0 25 0H315C328.807 0 340 11.1929 340 25V143C340 156.807 328.807 168 315 168H25C11.1929 168 0 156.807 0 143V25Z" fill="#4E13AF"/>
<g filter="url(#filter0_f_2530_46934)">
<circle cx="170" cy="86" r="61" fill="#8448E4"/>
</g>
<circle cx="56" cy="93" r="114" fill="#B98EFD"/>
<path d="M398 93C398 155.96 346.96 207 284 207C221.04 207 170 155.96 170 93C170 30.0395 221.04 -21 284 -21C346.96 -21 398 30.0395 398 93Z" fill="#B98EFD"/>
<path d="M51.0335 33.6993L51.6196 35.1412C51.6311 35.219 51.6316 35.2984 51.6529 35.3723C51.9356 36.3303 52.0592 37.3087 52.0794 38.3027C52.1267 40.6621 51.6309 42.9211 50.8805 45.1214C49.1775 50.1112 46.5548 54.5848 43.5048 58.8164C43.2293 59.1966 42.8517 59.3324 42.3943 59.2295C40.2017 58.7414 37.9936 58.3214 35.8233 57.7388C32.3909 56.8203 29.0771 55.5617 25.9949 53.7227C24.2348 52.6727 22.6187 51.4373 21.3385 49.8001C20.9117 49.2544 20.5589 48.6491 20.1741 48.0716L19.5622 46.5666C19.545 46.4674 19.5328 46.3663 19.5057 46.2712C18.9153 44.2652 18.8631 42.2555 19.4383 40.2561C20.1547 37.766 21.5876 35.8247 23.8969 34.6619C26.6687 33.2669 29.4563 33.4513 32.199 34.9095C32.6482 35.1484 33.0683 35.4434 33.4743 35.6969C33.6856 34.9743 33.8344 34.2329 34.1164 33.5494C35.5423 30.0929 38.0781 28.0747 41.8181 27.9043C45.1356 27.7524 47.7863 29.2539 49.8473 31.8677C50.2953 32.4372 50.6413 33.0895 51.0345 33.7019L51.0335 33.6993Z" fill="#FF005A"/>
<path d="M123.301 48.9933C142.629 48.9933 158.298 33.3248 158.298 13.9967C158.298 -5.33146 142.629 -21 123.301 -21C103.973 -21 88.3047 -5.33146 88.3047 13.9967C88.3047 33.3248 103.973 48.9933 123.301 48.9933Z" fill="#FF7A00"/>
<path d="M156.774 3.75936C156.552 3.02927 156.298 2.29918 156.028 1.58496C155.124 4.36247 152.473 6.34641 148.838 9.01282C145.743 11.2824 141.903 14.1076 138.062 18.3135C128.809 28.4554 127.031 38.1529 129.491 48.4376C130.015 48.3424 130.539 48.2313 131.046 48.1202C128.697 38.2799 130.396 29.0109 139.204 19.3769C142.95 15.2821 146.727 12.5046 149.759 10.2825C152.838 8.02879 155.393 6.14008 156.774 3.75936Z" fill="white"/>
<path d="M101.415 41.3115C102.002 31.8045 104.541 22.2974 108.509 15.6314C110.826 16.5202 113.398 17.1074 116.223 17.2979C123.508 17.7582 128.682 15.6949 130.047 11.7905C130.888 9.37803 129.967 6.69574 127.729 5.12446C124.793 3.06117 119.302 2.75961 112.715 8.10831C110.937 9.55261 109.303 11.4572 107.842 13.6951C102.621 11.3778 98.1926 7.15602 94.5739 1.06136C93.8121 -0.224232 93.1455 -1.52569 92.5582 -2.76367C92.2567 -2.20817 91.971 -1.65267 91.7012 -1.08129C94.685 4.83878 99.51 11.5366 107.033 14.9965C103.129 21.615 100.589 30.7252 99.875 39.9783C100.383 40.4227 100.891 40.8671 101.415 41.2797V41.3115ZM113.699 9.33041C119.603 4.52135 124.349 4.66419 126.825 6.41006C128.507 7.58455 129.19 9.505 128.571 11.2826C127.698 13.7586 124.031 16.2345 116.302 15.7584C113.858 15.5997 111.525 15.1235 109.334 14.3299C110.652 12.3301 112.112 10.6477 113.699 9.34628V9.33041Z" fill="white"/>
<path d="M158.695 11.3301C158.521 11.1714 158.33 11.0126 158.156 10.8539C158.219 11.5999 158.267 12.3458 158.283 13.1077C166.298 20.8371 169.615 28.0269 167.345 32.9153C165.282 37.3752 158.807 39.5337 149.125 39.01C139.205 38.4703 127.206 35.1373 115.35 29.6299C103.478 24.1225 93.1938 17.1073 86.369 9.88576C79.7189 2.83882 77.1953 -3.49391 79.2586 -7.9538C81.1156 -11.9534 86.7499 -14.1278 94.8285 -14.1278C97.0029 -14.1278 99.3519 -13.9691 101.844 -13.6517C102.431 -14.1119 103.034 -14.5405 103.653 -14.969C103.209 -15.0325 102.764 -15.1118 102.32 -15.1753C89.4957 -16.8577 80.56 -14.477 77.846 -8.62041C75.4812 -3.54152 78.1158 3.41019 85.2263 10.9492C92.178 18.3135 102.637 25.4557 114.684 31.0266C126.73 36.6134 138.92 39.994 149.03 40.5495C149.998 40.5971 150.934 40.6289 151.839 40.6289C160.648 40.6289 166.599 38.1529 168.742 33.5502C171.377 27.8682 167.71 19.7737 158.68 11.3142L158.695 11.3301Z" fill="#FFD77F"/>
<path d="M51.5 203C81.5995 203 106 178.6 106 148.5C106 118.4 81.5995 94 51.5 94C21.4005 94 -3 118.4 -3 148.5C-3 178.6 21.4005 203 51.5 203Z" fill="#140958"/>
<path d="M71.5339 151.761C73.3396 140.697 65.8347 130.264 54.7711 128.459C43.7074 126.653 33.2747 134.158 31.4689 145.221C29.6631 156.285 37.1681 166.718 48.2317 168.524C59.2953 170.329 69.7281 162.824 71.5339 151.761Z" fill="white"/>
<path d="M51.5009 172.847C38.0773 172.847 27.1543 161.924 27.1543 148.5C27.1543 135.076 38.0773 124.153 51.5009 124.153C64.9245 124.153 75.8475 135.076 75.8475 148.5C75.8475 161.924 64.9245 172.847 51.5009 172.847ZM51.5009 124.404C38.2133 124.404 27.4159 135.212 27.4159 148.489C27.4159 161.767 38.2238 172.575 51.5009 172.575C64.778 172.575 75.586 161.767 75.586 148.489C75.586 135.212 64.778 124.404 51.5009 124.404Z" fill="#F7E7D8"/>
<path d="M59.1057 155.742C63.208 151.64 63.208 144.989 59.1057 140.887C55.0034 136.784 48.3523 136.784 44.2501 140.887C40.1478 144.989 40.1478 151.64 44.2501 155.742C48.3523 159.845 55.0034 159.845 59.1057 155.742Z" fill="#140958"/>
<path d="M56.6597 148.311C56.6597 151.063 54.4311 153.292 51.6794 153.292C48.9278 153.292 46.6992 151.063 46.6992 148.311C46.6992 145.56 48.9278 143.331 51.6794 143.331C54.4311 143.331 56.6597 145.56 56.6597 148.311Z" fill="#FF005A"/>
<path d="M460.439 140H478.609L307.829 -30H289.659L460.439 140Z" fill="#3A1575"/>
<path d="M442.26 140H460.42L289.64 -30H271.48L442.26 140Z" fill="#8347E2"/>
<path d="M424.1 140H442.27L271.49 -30H253.33L424.1 140Z" fill="#3A1575"/>
<path d="M387.779 140H405.939L235.159 -30H216.999L387.779 140Z" fill="#4E13AF"/>
<path d="M405.939 140H424.109L253.329 -30H235.159L405.939 140Z" fill="#8347E2"/>
<path d="M150.439 268H168.609L-2.17062 98H-20.3406L150.439 268Z" fill="#3A1575"/>
<path d="M132.26 268H150.42L-20.3601 98H-38.5201L132.26 268Z" fill="#8347E2"/>
<path d="M114.1 268H132.27L-38.5105 98H-56.6705L114.1 268Z" fill="#3A1575"/>
<path d="M77.7794 268H95.9395L-74.8406 98H-93.0005L77.7794 268Z" fill="#4E13AF"/>
<path d="M95.9394 268H114.109L-56.6706 98H-74.8406L95.9394 268Z" fill="#8347E2"/>
<path d="M265.353 136.151C269.715 138.481 299.535 156.593 299.535 156.593L319.068 122.039L304.985 112.717C304.985 112.717 281.647 95.5291 279.572 96.5631C277.496 97.5972 274.424 100.136 275.453 102.01C276.479 103.865 292.618 118.091 292.955 118.393L292.93 118.387C292.608 118.333 289.86 117.907 288.958 118.973C287.998 120.106 284.947 124.337 287.183 127.255C287.183 127.255 282.549 130.404 285.415 135.539C279.286 133.187 273.061 130.735 266.669 129.176C264.566 128.664 262.621 129.383 262.23 131.703C261.88 133.787 263.716 135.281 265.353 136.151Z" fill="#FAB6CA"/>
<path d="M325.162 100.669L291.971 169.234C291.971 169.234 286.338 169.23 281.136 164.324L307.618 94.6006L325.158 100.672L325.162 100.669Z" fill="#030912"/>
<path d="M316.087 111.518C305.62 110.582 297.988 101.347 299.041 90.8917C300.093 80.4361 309.431 72.7187 319.898 73.6544C330.365 74.5901 337.996 83.8246 336.944 94.2802C335.892 104.736 326.553 112.453 316.087 111.518Z" fill="#030912"/>
<path d="M318.222 112.399C318.246 112.379 318.263 112.351 318.267 112.314C318.274 112.242 318.225 112.182 318.152 112.176C309.573 111.221 303.402 104.759 303.343 104.695C303.297 104.64 303.201 104.638 303.163 104.69C303.107 104.736 303.109 104.821 303.156 104.869C303.219 104.938 309.453 111.468 318.126 112.431C318.163 112.434 318.201 112.422 318.225 112.403L318.222 112.399Z" fill="#FAB6CA"/>
<path d="M298.611 131.811C298.524 131.542 298.508 131.262 298.557 130.994C298.574 130.9 298.602 130.804 298.633 130.711C298.657 130.651 298.682 130.59 298.714 130.531L301.247 125.567L301.383 125.307L302.501 123.115L302.547 123.024L302.63 122.862L304.342 119.511C304.76 118.685 305.772 118.349 306.591 118.76C306.991 118.958 307.287 119.3 307.421 119.723C307.559 120.143 307.524 120.6 307.319 120.996L305.298 124.956L305.233 125.089L305.229 125.093L305.147 125.254L305.143 125.258L304.011 127.474L303.475 128.525L301.784 131.845L301.693 132.02C301.666 132.069 301.639 132.119 301.605 132.167C301.513 132.317 301.393 132.449 301.26 132.559C301.104 132.688 300.92 132.793 300.715 132.862C300.616 132.898 300.518 132.918 300.414 132.931L300.399 132.93C300.074 132.978 299.745 132.923 299.44 132.774C299.43 132.77 299.419 132.765 299.413 132.757C299.032 132.558 298.746 132.22 298.611 131.811ZM301.096 132.36C301.164 132.304 301.229 132.244 301.284 132.179C301.351 132.096 301.411 132.006 301.458 131.908L301.466 131.901L303.722 127.467L303.726 127.463L304.001 126.922L304.985 125.001L305.063 124.85L305.118 124.737L307.088 120.88C307.261 120.543 307.292 120.164 307.177 119.804C307.059 119.449 306.812 119.158 306.472 118.992C305.961 118.733 305.353 118.822 304.932 119.17C304.788 119.29 304.665 119.444 304.57 119.623L302.848 122.995L302.77 123.154L302.716 123.252L301.643 125.36L301.51 125.623L298.945 130.647C298.916 130.711 298.888 130.774 298.867 130.838C298.831 130.934 298.81 131.032 298.8 131.134C298.776 131.334 298.797 131.53 298.858 131.727C298.977 132.083 299.223 132.373 299.559 132.542C300.074 132.798 300.679 132.705 301.096 132.36Z" fill="#FAB6CA"/>
<path d="M294.295 164.408C294.331 164.379 294.35 164.336 294.344 164.288C294.333 164.217 294.267 164.171 294.196 164.183C288.966 165.074 284.396 160.754 283.119 159.413C283.073 159.357 282.985 159.357 282.935 159.411C282.879 159.457 282.881 159.542 282.931 159.594C286.395 163.247 290.626 165.058 294.236 164.444C294.259 164.438 294.278 164.429 294.298 164.412L294.295 164.408Z" fill="#FAB6CA"/>
<path d="M298.93 155.786L299.611 156.464L308.373 165.211L313.418 170.254L314.755 171.586L316.673 173.499L320.739 177.561L347.649 155.322L347.408 154.867L342.176 150.112L337.277 145.663L336.03 144.53L334.076 142.754L328.056 137.282C328.056 137.282 326.261 114.053 324.533 112.583C324.171 112.276 323.215 111.764 321.916 111.148C321.46 110.931 320.957 110.706 320.425 110.471C319.161 109.914 317.713 109.314 316.237 108.745C316.149 108.712 316.057 108.674 315.968 108.64C312.583 107.346 309.1 106.219 307.324 106.071C307.211 106.065 307.109 106.056 307.01 106.051C306.613 106.052 306.334 106.115 306.202 106.257C306.062 106.414 305.915 106.595 305.776 106.803C305.725 106.872 305.677 106.945 305.629 107.025C305.607 107.056 305.586 107.088 305.567 107.123C304.664 108.61 303.993 111.001 305.29 112.913C305.481 113.202 305.725 113.481 306.015 113.742C308.683 116.137 313.409 119.56 313.409 119.56C313.409 119.56 308.291 128.617 308.081 135.967C308.071 136.062 308.073 136.154 308.071 136.249L298.934 155.783L298.93 155.786Z" fill="#FAB6CA"/>
<path d="M315.331 109.813C315.856 109.379 316.265 108.821 316.48 108.19C316.505 108.115 316.466 108.034 316.391 108.009C316.316 107.984 316.235 108.024 316.209 108.099C315.779 109.343 314.485 110.318 313.058 110.47C311.754 110.607 310.327 110.097 309.239 109.107C308.296 108.244 307.567 107.011 307.128 105.524C307.106 105.449 307.03 105.405 306.95 105.431C306.874 105.454 306.83 105.531 306.855 105.61C307.308 107.138 308.065 108.422 309.044 109.321C310.185 110.367 311.694 110.903 313.081 110.758C313.92 110.672 314.705 110.33 315.323 109.82L315.331 109.813Z" fill="#030912"/>
<path d="M285.414 135.539C288.058 137.7 296.324 140.922 299.285 140.437C302.243 139.949 302.411 133.168 302.411 133.168C304.301 133.054 305.643 127.172 305.316 125.313C304.984 123.458 292.961 118.394 292.961 118.394L292.933 118.384C292.611 118.329 289.863 117.903 288.961 118.969C288.002 120.103 284.95 124.334 287.186 127.252C287.186 127.252 282.552 130.401 285.418 135.535L285.414 135.539Z" fill="#FAB6CA"/>
<path d="M303.515 132.829C303.72 132.66 303.918 132.443 304.098 132.187C305.423 130.311 305.769 126.588 305.452 125.281C305.046 123.606 295.993 119.293 295.611 119.108C295.541 119.072 295.456 119.109 295.42 119.179C295.383 119.249 295.415 119.337 295.489 119.369C298.079 120.6 304.868 124.068 305.18 125.352C305.479 126.58 305.132 130.245 303.872 132.027C303.443 132.636 302.945 132.973 302.399 133.031C299.745 133.315 291.725 131.085 287.281 127.154C287.224 127.101 287.135 127.108 287.081 127.165C287.028 127.223 287.033 127.312 287.091 127.364C291.591 131.348 299.731 133.6 302.429 133.313C302.82 133.271 303.185 133.109 303.522 132.83L303.515 132.829Z" fill="#030912"/>
<path d="M300.463 140.385C302.184 138.962 302.535 133.432 302.553 133.177C302.557 133.1 302.498 133.029 302.417 133.029C302.341 133.026 302.268 133.085 302.268 133.166C302.264 133.235 301.846 139.876 299.847 140.407C297.69 140.974 288.622 138.488 285.315 135.1C285.262 135.044 285.181 135.044 285.113 135.1C285.056 135.154 285.058 135.246 285.111 135.302C288.478 138.747 297.716 141.267 299.922 140.685C300.118 140.637 300.302 140.532 300.47 140.392L300.463 140.385Z" fill="#030912"/>
<path d="M295.965 127.254C296.114 126.684 296.49 126.166 297.023 125.799C298.292 124.924 299.814 125.034 301.141 125.26C301.22 125.274 301.307 125.289 301.383 125.307C301.469 125.322 301.556 125.337 301.642 125.359C302.128 125.465 302.599 125.61 303.055 125.787C303.557 125.986 303.903 126.421 304 126.922C304.041 127.102 304.044 127.286 304.011 127.474L304.006 127.518C303.749 128.799 303.35 130.056 302.832 131.252C302.728 131.485 302.576 131.677 302.392 131.829C302.167 132.015 301.894 132.134 301.604 132.167C301.499 132.187 301.392 132.188 301.283 132.178C301.159 132.167 301.026 132.137 300.902 132.093C300.175 131.826 299.482 131.51 298.799 131.133C298.723 131.09 298.639 131.046 298.556 130.994C298.271 130.829 297.988 130.649 297.705 130.463C296.765 129.831 295.555 128.808 295.965 127.254ZM297.868 130.227C298.123 130.397 298.376 130.556 298.632 130.711C298.709 130.754 298.785 130.798 298.866 130.838C299.554 131.23 300.257 131.558 300.999 131.826C301.151 131.88 301.307 131.905 301.462 131.897C301.572 131.899 301.677 131.879 301.784 131.845C302.122 131.739 302.418 131.494 302.568 131.143L302.572 131.14C302.94 130.295 303.241 129.418 303.475 128.524C303.572 128.177 303.652 127.824 303.721 127.467L303.725 127.463C303.843 126.871 303.517 126.28 302.947 126.057C302.491 125.873 302.006 125.726 301.509 125.623C301.423 125.601 301.333 125.582 301.246 125.567C301.192 125.558 301.142 125.546 301.087 125.538C299.821 125.329 298.365 125.217 297.188 126.03C297.124 126.076 297.061 126.122 297.005 126.168C296.623 126.483 296.358 126.889 296.241 127.327C295.878 128.701 296.997 129.639 297.868 130.227Z" fill="#030912"/>
<path d="M293.145 135.213C293.295 134.642 293.675 134.121 294.208 133.754C295.472 132.883 296.995 132.993 298.318 133.214C298.984 133.325 299.631 133.504 300.236 133.746C300.933 134.017 301.331 134.743 301.184 135.472C300.93 136.75 300.531 138.007 300.01 139.206C299.91 139.436 299.757 139.635 299.577 139.784C299.167 140.123 298.604 140.241 298.079 140.047C296.958 139.639 295.916 139.105 294.89 138.418C293.946 137.782 292.739 136.763 293.145 135.213ZM295.05 138.179C296.055 138.856 297.083 139.382 298.183 139.781C298.793 140.005 299.485 139.706 299.749 139.095C300.265 137.914 300.654 136.678 300.906 135.422C301.024 134.83 300.698 134.231 300.129 134.008C299.541 133.779 298.916 133.602 298.268 133.496C297.003 133.28 295.546 133.176 294.368 133.989C293.894 134.314 293.554 134.775 293.418 135.281C293.059 136.66 294.178 137.597 295.05 138.179Z" fill="#030912"/>
<path d="M336.773 140.391L306.674 166.695L314.476 175.514L343.989 148.446L336.773 140.391Z" fill="#030912"/>
<path d="M336.731 147.382C336.034 147.959 335.006 147.867 334.435 147.177C333.865 146.487 333.968 145.46 334.666 144.883C335.364 144.306 336.392 144.398 336.962 145.088C337.533 145.778 337.429 146.805 336.731 147.382Z" fill="#FFFEFF"/>
<path d="M332.527 155.568C333.098 156.258 334.125 156.35 334.823 155.774C335.521 155.197 335.624 154.17 335.054 153.48C334.484 152.79 333.456 152.698 332.758 153.275C332.06 153.851 331.957 154.878 332.527 155.568Z" fill="#FFFEFF"/>
<path d="M325.457 154.936C326.027 155.627 327.055 155.718 327.753 155.142C328.451 154.565 328.554 153.538 327.984 152.848C327.413 152.158 326.386 152.066 325.688 152.643C324.99 153.22 324.886 154.246 325.457 154.936Z" fill="#FFFEFF"/>
<path d="M323.28 161.842C323.19 162.738 323.842 163.527 324.739 163.607C325.636 163.687 326.434 163.028 326.524 162.132C326.614 161.236 325.962 160.447 325.065 160.367C324.169 160.287 323.37 160.947 323.28 161.842Z" fill="#FFFEFF"/>
<path d="M315.37 162.072C315.28 162.967 315.932 163.757 316.829 163.837C317.725 163.917 318.524 163.257 318.614 162.362C318.704 161.466 318.052 160.677 317.155 160.597C316.258 160.516 315.46 161.176 315.37 162.072Z" fill="#FFFEFF"/>
<path d="M313.399 169.834C313.309 170.73 313.962 171.519 314.858 171.599C315.755 171.68 316.553 171.02 316.643 170.124C316.733 169.229 316.081 168.439 315.184 168.359C314.288 168.279 313.49 168.939 313.399 169.834Z" fill="#FFFEFF"/>
<path d="M307.405 167.473L309.601 169.917L306.339 170.144L307.405 167.473Z" fill="#FFFEFF"/>
<path d="M337.655 141.278L339.786 143.783L340.45 140.584L337.655 141.278Z" fill="#FFFEFF"/>
<path d="M272.207 152.11L227.215 153.82L235.77 143.712L186.848 134.294L251.284 136.438L240.484 145.56L272.207 152.11Z" fill="white"/>
<path d="M266.338 56.9635L243.354 44.0155L250.725 41.5942L229.194 21.8861L260.701 42.7223L252.511 43.9624L266.338 56.9635Z" fill="white"/>
<path d="M130.723 137.006C128.857 137.006 127.161 136.348 125.857 134.297C124.568 132.26 124.525 130.016 125.237 127.879C124.183 127.843 123.164 127.672 122.231 127.321C119.652 126.364 116.78 123.734 117.721 116.672C118.497 110.819 117.7 106.238 115.47 103.779C114.116 102.286 112.221 101.564 109.848 101.657C109.392 101.671 109.015 101.321 109 100.863C108.986 100.413 109.335 100.027 109.791 100.006C112.67 99.9199 114.985 100.806 116.681 102.672C119.238 105.502 120.186 110.547 119.345 116.887C118.704 121.697 119.873 124.691 122.801 125.778C123.755 126.135 124.831 126.264 125.95 126.221C126.919 124.377 128.408 122.683 130.054 121.375C132.968 119.074 135.739 118.509 137.114 119.946C137.463 120.303 138.168 121.311 137.185 122.819C135.76 125.013 131.329 127.364 127.04 127.807C126.263 129.644 126.114 131.631 127.232 133.411C128.956 136.134 131.514 135.548 135.547 134.368C139.394 133.246 143.747 131.967 147.687 135.126C148.043 135.412 148.1 135.926 147.815 136.284C147.53 136.641 147.017 136.698 146.661 136.412C143.391 133.79 139.636 134.89 136.003 135.948C134.214 136.47 132.39 137.006 130.709 137.006H130.723ZM135.091 120.803C134.1 120.803 132.583 121.49 131.072 122.676C130.025 123.498 128.914 124.656 128.037 125.978C131.5 125.299 134.863 123.391 135.817 121.926C136.188 121.354 136.017 121.175 135.946 121.096C135.753 120.896 135.461 120.803 135.091 120.803Z" fill="white"/>
<path d="M71.2439 41.0106C71.0396 40.1236 72.1595 35.3803 72.002 35.2906C71.8245 35.1937 68.7735 38.8621 67.9647 39.188C66.9339 39.5977 62.9284 38.1506 63.0846 38.6853C63.2446 39.2247 66.4814 41.7772 66.3476 42.4188C66.1118 43.5238 65.2811 47.7398 65.5977 48.14C66.1071 48.2193 68.9148 45.0724 69.6431 44.2438C70.0688 43.7616 73.8947 45.1364 74.4054 44.9621C74.9154 44.796 71.5151 42.1278 71.2528 41.0035L71.2439 41.0106Z" fill="white"/>
<path d="M-1.36044 47.9926C-1.69799 47.9926 -2.02054 47.7915 -2.15556 47.4639C-3.31073 44.6789 -3.28072 42.0875 -2.06554 39.7493C-0.220274 36.2122 4.4004 33.457 10.9489 31.9826C15.9146 30.8656 18.435 28.6391 18.435 25.3701C18.435 24.3052 18.1649 23.2031 17.7223 22.1234C15.547 21.8404 13.3417 20.999 11.4514 19.8596C8.12095 17.8416 6.55322 15.3322 7.45335 13.4557C7.67838 12.9865 8.41349 11.9291 10.2513 12.3461C12.9291 12.9493 16.8672 16.4343 18.8775 20.4777C20.9703 20.5671 22.9806 20.0011 24.3158 18.2512C26.3636 15.5779 24.8484 13.2844 22.208 9.75474C19.6951 6.39636 16.8447 2.5912 18.5025 -2.41285C18.6525 -2.85965 19.1401 -3.10538 19.5901 -2.95645C20.0402 -2.80752 20.2877 -2.3235 20.1377 -1.87671C18.7575 2.27845 21.2179 5.56236 23.5882 8.73457C26.0636 12.0334 28.6214 15.4513 25.6885 19.2863C24.1583 21.2819 21.968 22.1457 19.5976 22.2202C19.9502 23.2702 20.1527 24.3276 20.1527 25.3701C20.1527 28.2444 18.6225 32.0124 11.3239 33.658C5.27803 35.0207 1.06991 37.4632 -0.53532 40.5461C-1.51046 42.4151 -1.51796 44.5225 -0.565324 46.816C-0.385298 47.2554 -0.595329 47.7543 -1.03039 47.933C-1.13541 47.9777 -1.24792 48 -1.36044 48V47.9926ZM9.45614 13.962C9.11109 13.962 9.03608 14.1184 9.00608 14.1929C8.54101 15.1535 9.98122 16.963 12.3441 18.3927C13.5367 19.115 15.0895 19.7926 16.7097 20.165C14.7744 17.0225 11.6615 14.4163 9.8687 14.0141C9.70368 13.9769 9.56866 13.962 9.46364 13.962H9.45614Z" fill="#FFC854"/>
<path d="M130.723 137.006C128.857 137.006 127.161 136.348 125.857 134.297C124.568 132.26 124.525 130.016 125.237 127.879C124.183 127.843 123.164 127.672 122.231 127.321C119.652 126.364 116.78 123.734 117.721 116.672C118.497 110.819 117.7 106.238 115.47 103.779C114.116 102.286 112.221 101.564 109.848 101.657C109.392 101.671 109.015 101.321 109 100.863C108.986 100.413 109.335 100.027 109.791 100.006C112.67 99.9199 114.985 100.806 116.681 102.672C119.238 105.502 120.186 110.547 119.345 116.887C118.704 121.697 119.873 124.691 122.801 125.778C123.755 126.135 124.831 126.264 125.95 126.221C126.919 124.377 128.408 122.683 130.054 121.375C132.968 119.074 135.739 118.509 137.114 119.946C137.463 120.303 138.168 121.311 137.185 122.819C135.76 125.013 131.329 127.364 127.04 127.807C126.263 129.644 126.114 131.631 127.232 133.411C128.956 136.134 131.514 135.548 135.547 134.368C139.394 133.246 143.747 131.967 147.687 135.126C148.043 135.412 148.1 135.926 147.815 136.284C147.53 136.641 147.017 136.698 146.661 136.412C143.391 133.79 139.636 134.89 136.003 135.948C134.214 136.47 132.39 137.006 130.709 137.006H130.723ZM135.091 120.803C134.1 120.803 132.583 121.49 131.072 122.676C130.025 123.498 128.914 124.656 128.037 125.978C131.5 125.299 134.863 123.391 135.817 121.926C136.188 121.354 136.017 121.175 135.946 121.096C135.753 120.896 135.461 120.803 135.091 120.803Z" fill="white"/>
<path d="M288.61 65.0801H52V107.83H288.61V65.0801Z" fill="#3FB36D"/>
<path d="M69.02 89.1307V97.2207H64V74.7207H72.47C77.04 74.7207 80.18 77.7307 80.18 81.9207C80.18 86.1107 77.04 89.1207 72.47 89.1207H69.01L69.02 89.1307ZM71.97 84.8107C73.87 84.8107 75.18 83.7007 75.18 81.9507C75.18 80.2007 73.88 79.0607 71.97 79.0607H69.05V84.8007H71.97V84.8107Z" fill="white"/>
<path d="M94.0303 74.2402C100.35 74.2402 105.71 78.8402 105.71 85.9802C105.71 93.1202 100.35 97.6902 94.0303 97.6902C87.7103 97.6902 82.3203 93.0902 82.3203 85.9802C82.3203 78.8702 87.6803 74.2402 94.0303 74.2402ZM94.0303 92.7402C97.1403 92.7402 100.5 90.6402 100.5 85.9502C100.5 81.2602 97.1303 79.1302 94.0303 79.1302C90.9303 79.1302 87.5203 81.2602 87.5203 85.9502C87.5203 90.6402 90.8803 92.7402 94.0303 92.7402Z" fill="white"/>
<path d="M114.469 89.1307V97.2207H109.449V74.7207H117.919C122.489 74.7207 125.629 77.7307 125.629 81.9207C125.629 86.1107 122.489 89.1207 117.919 89.1207H114.459L114.469 89.1307ZM117.419 84.8107C119.319 84.8107 120.629 83.7007 120.629 81.9507C120.629 80.2007 119.329 79.0607 117.419 79.0607H114.499V84.8007H117.419V84.8107Z" fill="white"/>
<path d="M135.731 86.0202C135.731 79.0102 141.061 74.2402 147.351 74.2402C154.111 74.2402 157.091 78.5902 157.821 81.8302L153.091 83.3202C152.741 81.7602 151.311 79.1302 147.341 79.1302C144.331 79.1302 140.931 81.2902 140.931 86.0202C140.931 90.2402 144.041 92.6802 147.401 92.6802C151.301 92.6802 152.861 90.0802 153.301 88.4602L158.091 89.8302C157.361 92.9402 154.381 97.7002 147.391 97.7002C140.921 97.7002 135.711 93.0302 135.711 86.0202H135.731Z" fill="white"/>
<path d="M161.219 89.1007V74.7207H166.229V88.6807C166.229 91.4107 167.749 92.7707 170.129 92.7707C172.509 92.7707 174.029 91.4007 174.029 88.6807V74.7207H179.039V89.1007C179.039 94.7507 175.069 97.7307 170.119 97.7307C165.169 97.7307 161.199 94.7507 161.199 89.1007H161.219Z" fill="white"/>
<path d="M183.91 97.2207V74.7207H188.92V92.4307H198.63V97.2207H183.9H183.91Z" fill="white"/>
<path d="M209.911 79.5107V97.2207H204.891V79.5107H197.971V74.7207H216.851V79.5107H209.901H209.911Z" fill="white"/>
<path d="M220.029 89.1007V74.7207H225.049V88.6807C225.049 91.4107 226.569 92.7707 228.949 92.7707C231.329 92.7707 232.849 91.4007 232.849 88.6807V74.7207H237.869V89.1007C237.869 94.7507 233.899 97.7307 228.949 97.7307C223.999 97.7307 220.029 94.7507 220.029 89.1007Z" fill="white"/>
<path d="M249.511 88.8407H247.731V97.2207H242.721V74.7207H251.641C256.081 74.7207 258.941 77.7707 258.941 81.7607C258.941 84.8107 257.261 87.1207 254.501 88.1107L259.071 97.2207H253.551L249.521 88.8407H249.511ZM250.681 84.5207C252.741 84.5207 253.851 83.3807 253.851 81.7907C253.851 80.1107 252.741 79.0607 250.681 79.0607H247.731V84.5207H250.681Z" fill="white"/>
<path d="M262.811 97.2207V74.7207H277.061V79.4507H267.821V83.7407H276.201V88.1507H267.821V92.4707H277.091V97.2307H262.811V97.2207Z" fill="white"/>
<path d="M93.9791 95.1106C99.0105 95.1106 103.089 91.0319 103.089 86.0006C103.089 80.9693 99.0105 76.8906 93.9791 76.8906C88.9478 76.8906 84.8691 80.9693 84.8691 86.0006C84.8691 91.0319 88.9478 95.1106 93.9791 95.1106Z" fill="white"/>
<path d="M94.2106 77.9404L96.6306 82.8404L102.041 83.6304L98.1306 87.4404L99.0506 92.8304L94.2106 90.2904L89.3806 92.8304L90.3006 87.4404L86.3906 83.6304L91.7906 82.8404L94.2106 77.9404Z" fill="#3FB36D"/>
</g>
<defs>
<filter id="filter0_f_2530_46934" x="79" y="-5" width="182" height="182" filterUnits="userSpaceOnUse" color-interpolation-filters="sRGB">
<feFlood flood-opacity="0" result="BackgroundImageFix"/>
<feBlend mode="normal" in="SourceGraphic" in2="BackgroundImageFix" result="shape"/>
<feGaussianBlur stdDeviation="15" result="effect1_foregroundBlur_2530_46934"/>
</filter>
<clipPath id="clip0_2530_46934">
<path d="M0 25C0 11.1929 11.1929 0 25 0H315C328.807 0 340 11.1929 340 25V143C340 156.807 328.807 168 315 168H25C11.1929 168 0 156.807 0 143V25Z" fill="white"/>
</clipPath>
</defs>
</svg>
