<svg width="285" height="234" viewBox="0 0 285 234" fill="none" xmlns="http://www.w3.org/2000/svg">
<path d="M78.4501 138.034C85.3303 141.709 132.364 170.277 132.364 170.277L163.173 115.776L140.96 101.073C140.96 101.073 104.15 73.9633 100.877 75.5943C97.6038 77.2252 92.7579 81.2301 94.3802 84.1852C95.9997 87.111 121.454 109.549 121.986 110.025L121.946 110.016C121.438 109.93 117.104 109.259 115.682 110.939C114.168 112.728 109.355 119.401 112.882 124.003C112.882 124.003 105.573 128.97 110.094 137.068C100.427 133.359 90.6084 129.492 80.5262 127.032C77.2086 126.226 74.1423 127.359 73.5246 131.018C72.9732 134.306 75.8681 136.662 78.4501 138.034Z" fill="#FAB6CA"/>
<path d="M171.314 82.6997L122.481 190.348C122.481 190.348 113.558 190.089 105.05 182.048L143.194 72.2564L171.308 82.7048L171.314 82.6997Z" fill="#030912"/>
<path d="M159.419 98.41C142.384 96.5076 129.494 81.9425 130.628 65.878C131.761 49.8135 146.49 38.3328 163.525 40.2351C180.56 42.1375 193.45 56.7026 192.316 72.7671C191.183 88.8316 176.454 100.312 159.419 98.41Z" fill="#030912"/>
<path d="M161.847 100.858C161.883 100.828 161.909 100.785 161.913 100.728C161.92 100.614 161.841 100.519 161.727 100.506C148.372 98.6342 138.456 88.248 138.36 88.145C138.286 88.0561 138.138 88.05 138.081 88.1292C137.997 88.1994 138.005 88.3321 138.08 88.4097C138.181 88.519 148.199 99.0145 161.701 100.903C161.758 100.91 161.816 100.894 161.852 100.864L161.847 100.858Z" fill="#FAB6CA"/>
<path d="M131.191 131.099C131.038 130.667 130.998 130.219 131.061 129.794C131.082 129.645 131.122 129.492 131.166 129.346C131.202 129.251 131.237 129.156 131.285 129.062L135.034 121.259L135.236 120.851L136.891 117.405L136.959 117.262L137.081 117.008L139.616 111.74C140.234 110.441 141.822 109.952 143.145 110.644C143.789 110.977 144.279 111.536 144.514 112.217C144.756 112.894 144.726 113.619 144.421 114.243L141.431 120.466L141.336 120.677L141.329 120.682L141.207 120.936L141.201 120.941L139.527 124.425L138.733 126.077L136.231 131.296L136.095 131.572C136.055 131.648 136.015 131.725 135.963 131.801C135.825 132.036 135.642 132.242 135.438 132.41C135.197 132.609 134.911 132.768 134.589 132.87C134.433 132.922 134.279 132.951 134.114 132.966L134.091 132.963C133.578 133.026 133.053 132.923 132.561 132.672C132.544 132.665 132.527 132.657 132.516 132.644C131.901 132.309 131.428 131.757 131.191 131.099ZM135.167 132.086C135.272 132 135.372 131.906 135.454 131.805C135.556 131.677 135.648 131.536 135.716 131.381L135.729 131.371L139.066 124.4L139.072 124.395L139.48 123.545L140.936 120.525L141.051 120.287L141.133 120.11L144.048 114.047C144.306 113.517 144.334 112.914 144.132 112.336C143.924 111.763 143.517 111.289 142.968 111.009C142.143 110.573 141.183 110.687 140.533 111.224C140.31 111.407 140.125 111.648 139.984 111.929L137.435 117.23L137.319 117.479L137.238 117.633L135.651 120.947L135.454 121.361L131.658 129.258C131.616 129.358 131.574 129.458 131.544 129.559C131.493 129.711 131.465 129.865 131.455 130.027C131.428 130.345 131.471 130.66 131.579 130.976C131.787 131.549 132.194 132.022 132.737 132.308C133.568 132.738 134.523 132.618 135.167 132.086Z" fill="#FAB6CA"/>
<path d="M124.107 182.828C124.161 182.783 124.188 182.717 124.176 182.641C124.155 182.53 124.051 182.454 123.941 182.47C115.853 183.641 108.518 176.667 106.461 174.509C106.387 174.419 106.25 174.415 106.175 174.498C106.091 174.568 106.099 174.701 106.179 174.785C111.759 180.663 118.434 183.687 124.017 182.881C124.052 182.873 124.082 182.86 124.112 182.834L124.107 182.828Z" fill="#FAB6CA"/>
<path d="M132.492 168.212L133.594 169.31L147.76 183.466L155.917 191.626L158.078 193.782L161.18 196.877L167.754 203.452L208.663 169.599L208.262 168.872L199.828 161.157L191.93 153.938L189.921 152.1L186.771 149.217L177.065 140.339C177.065 140.339 173.029 103.679 170.249 101.29C169.666 100.789 168.144 99.9421 166.08 98.9161C165.355 98.5543 164.556 98.1782 163.712 97.7852C161.706 96.8523 159.411 95.8451 157.072 94.8847C156.932 94.8279 156.786 94.7647 156.646 94.7079C151.283 92.5223 145.776 90.5963 142.99 90.2864C142.813 90.2713 142.653 90.2525 142.498 90.2401C141.877 90.2247 141.445 90.3122 141.246 90.5309C141.034 90.771 140.813 91.0505 140.608 91.3721C140.531 91.4784 140.461 91.5911 140.389 91.7152C140.357 91.7633 140.325 91.8114 140.298 91.8659C138.964 94.1695 138.041 97.9044 140.17 100.972C140.485 101.436 140.882 101.885 141.349 102.309C145.648 106.196 153.221 111.793 153.221 111.793C153.221 111.793 145.695 125.833 145.755 137.399C145.745 137.548 145.753 137.692 145.754 137.842L132.498 168.207L132.492 168.212Z" fill="#FAB6CA"/>
<path d="M157.365 96.6548C158.164 95.9936 158.775 95.1315 159.077 94.1467C159.113 94.03 159.047 93.9011 158.929 93.8584C158.811 93.8157 158.685 93.8759 158.649 93.9927C158.041 95.933 156.07 97.4133 153.844 97.5898C151.81 97.7486 149.551 96.8835 147.795 95.2765C146.275 93.8758 145.068 91.901 144.303 89.54C144.265 89.4202 144.143 89.3482 144.019 89.3856C143.902 89.4179 143.836 89.537 143.88 89.6632C144.67 92.0905 145.922 94.1457 147.503 95.6053C149.344 97.3031 151.733 98.2122 153.895 98.0454C155.204 97.9456 156.414 97.4422 157.353 96.6649L157.365 96.6548Z" fill="#030912"/>
<path d="M110.479 136.683C114.745 140.212 127.897 145.664 132.522 145.027C137.141 144.384 137.045 133.678 137.045 133.678C140.008 133.581 141.803 124.346 141.19 121.395C140.57 118.449 121.42 109.923 121.42 109.923L121.375 109.906C120.867 109.806 116.528 109.014 115.169 110.658C113.722 112.407 109.154 118.959 112.821 123.667C112.821 123.667 105.711 128.44 110.485 136.678L110.479 136.683Z" fill="#FAB6CA"/>
<path d="M138.884 133.08C139.196 132.822 139.497 132.487 139.766 132.09C141.75 129.182 142.095 123.309 141.527 121.229C140.801 118.564 126.34 111.347 125.729 111.039C125.617 110.979 125.486 111.033 125.433 111.143C125.379 111.252 125.434 111.392 125.552 111.446C129.688 113.505 140.544 119.286 141.103 121.33C141.639 123.285 141.288 129.064 139.402 131.828C138.76 132.771 137.996 133.283 137.14 133.35C132.983 133.684 120.257 129.807 113.063 123.397C112.97 123.311 112.83 123.318 112.749 123.407C112.668 123.495 112.682 123.636 112.775 123.722C120.062 130.218 132.976 134.134 137.203 133.797C137.814 133.747 138.381 133.507 138.895 133.082L138.884 133.08Z" fill="#030912"/>
<path d="M134.056 144.969C136.688 142.794 136.946 134.055 136.961 133.652C136.964 133.53 136.867 133.415 136.74 133.411C136.618 133.403 136.508 133.494 136.511 133.622C136.509 133.732 136.204 144.225 133.087 144.977C129.722 145.781 115.317 141.45 109.931 135.942C109.845 135.851 109.717 135.848 109.613 135.934C109.526 136.016 109.534 136.162 109.621 136.253C115.104 141.854 129.778 146.246 133.22 145.422C133.526 145.353 133.809 145.195 134.066 144.982L134.056 144.969Z" fill="#030912"/>
<path d="M126.711 123.805C126.916 122.91 127.478 122.109 128.296 121.552C130.242 120.225 132.638 120.466 134.734 120.88C134.86 120.906 134.997 120.934 135.116 120.965C135.253 120.993 135.39 121.02 135.527 121.059C136.295 121.248 137.042 121.498 137.769 121.797C138.568 122.134 139.135 122.836 139.313 123.632C139.387 123.918 139.402 124.209 139.359 124.504L139.355 124.573C139.018 126.586 138.459 128.555 137.71 130.421C137.558 130.785 137.33 131.082 137.049 131.315C136.706 131.598 136.283 131.774 135.829 131.814C135.666 131.841 135.498 131.838 135.326 131.818C135.13 131.795 134.92 131.741 134.722 131.666C133.567 131.212 132.462 130.684 131.369 130.058C131.247 129.986 131.113 129.913 130.98 129.828C130.524 129.554 130.069 129.258 129.615 128.95C128.104 127.912 126.15 126.243 126.711 123.805ZM129.859 128.586C130.269 128.865 130.673 129.127 131.085 129.383C131.207 129.455 131.33 129.528 131.458 129.595C132.561 130.245 133.681 130.792 134.86 131.249C135.103 131.341 135.349 131.387 135.592 131.381C135.765 131.39 135.929 131.363 136.094 131.313C136.619 131.16 137.072 130.786 137.288 130.239L137.294 130.234C137.827 128.915 138.254 127.543 138.573 126.141C138.708 125.596 138.814 125.042 138.904 124.48L138.91 124.475C139.064 123.545 138.52 122.596 137.614 122.218C136.888 121.907 136.118 121.655 135.332 121.47C135.195 121.431 135.053 121.397 134.916 121.369C134.83 121.353 134.751 121.333 134.665 121.317C132.665 120.932 130.373 120.691 128.566 121.924C128.469 121.994 128.372 122.064 128.286 122.134C127.705 122.615 127.31 123.245 127.148 123.932C126.652 126.088 128.46 127.618 129.859 128.586Z" fill="#030912"/>
<path d="M122.263 136.358C122.468 135.463 123.036 134.656 123.854 134.099C125.794 132.778 128.191 133.018 130.281 133.426C131.332 133.63 132.359 133.942 133.321 134.349C134.43 134.809 135.093 135.974 134.901 137.119C134.571 139.127 134.012 141.096 133.257 142.967C133.111 143.326 132.882 143.635 132.607 143.862C131.982 144.379 131.104 144.542 130.269 144.212C128.487 143.517 126.822 142.628 125.173 141.498C123.657 140.453 121.708 138.79 122.263 136.358ZM125.412 141.127C127.027 142.242 128.67 143.117 130.418 143.796C131.388 144.176 132.459 143.735 132.841 142.78C133.588 140.937 134.134 139 134.462 137.027C134.616 136.097 134.073 135.137 133.166 134.759C132.232 134.372 131.24 134.064 130.217 133.869C128.218 133.473 125.925 133.244 124.119 134.477C123.392 134.97 122.881 135.685 122.695 136.478C122.204 138.64 124.012 140.171 125.412 141.127Z" fill="#030912"/>
<path d="M190.391 144.716L143.686 185.619L156.638 200.127L202.366 157.97L190.391 144.716Z" fill="#030912"/>
<path d="M191.094 155.8C190.027 156.682 188.406 156.492 187.472 155.375C186.539 154.259 186.647 152.639 187.713 151.757C188.78 150.876 190.401 151.066 191.335 152.182C192.268 153.299 192.16 154.919 191.094 155.8Z" fill="#FFFEFF"/>
<path d="M184.465 168.611C185.398 169.727 187.019 169.917 188.086 169.036C189.153 168.154 189.261 166.534 188.327 165.418C187.393 164.301 185.772 164.111 184.705 164.993C183.639 165.875 183.531 167.494 184.465 168.611Z" fill="#FFFEFF"/>
<path d="M173.312 167.613C174.246 168.73 175.867 168.92 176.934 168.038C178 167.157 178.108 165.537 177.175 164.421C176.241 163.304 174.62 163.114 173.553 163.996C172.486 164.878 172.378 166.497 173.312 167.613Z" fill="#FFFEFF"/>
<path d="M169.816 178.485C169.722 179.897 170.79 181.174 172.204 181.34C173.618 181.506 174.838 180.498 174.933 179.085C175.027 177.672 173.959 176.395 172.545 176.229C171.131 176.063 169.91 177.072 169.816 178.485Z" fill="#FFFEFF"/>
<path d="M157.34 178.847C157.246 180.259 158.314 181.536 159.728 181.702C161.142 181.868 162.362 180.86 162.456 179.447C162.55 178.035 161.482 176.758 160.068 176.592C158.654 176.426 157.434 177.434 157.34 178.847Z" fill="#FFFEFF"/>
<path d="M154.234 191.091C154.14 192.504 155.208 193.781 156.622 193.947C158.036 194.113 159.256 193.104 159.35 191.691C159.445 190.279 158.377 189.002 156.963 188.836C155.549 188.67 154.328 189.678 154.234 191.091Z" fill="#FFFEFF"/>
<path d="M144.669 187.432L148.24 191.383L143.142 191.596L144.669 187.432Z" fill="#FFFEFF"/>
<path d="M150.986 194.573L154.556 198.535L149.452 198.742L150.986 194.573Z" fill="#FFFEFF"/>
<path d="M192.486 146.032L195.957 150.074L196.825 145.061L192.486 146.032Z" fill="#FFFEFF"/>
<path d="M198.72 153.252L202.18 157.292L203.054 152.274L198.72 153.252Z" fill="#FFFEFF"/>
</svg>
