<svg width="188" height="162" viewBox="0 0 188 162" fill="none" xmlns="http://www.w3.org/2000/svg">
<path d="M79.9801 157.537L3.06908 68.801C8.58104 63.8757 8.55656 54.6949 3.02378 48.325L7.72319 44.1183C7.79079 44.2243 7.87609 44.3128 7.96106 44.419C10.1909 47.0023 13.8321 47.4777 16.0582 45.4795C18.284 43.4989 18.2824 39.7632 16.0351 37.1798C15.9675 37.0738 15.8649 36.9852 15.7796 36.8967L18.4292 34.5481C18.4794 34.654 18.5821 34.7426 18.6497 34.8487C20.8969 37.4321 24.5207 37.9074 26.7468 35.9092C28.9726 33.9286 28.9709 30.1929 26.7411 27.6096C26.6561 27.5035 26.5708 27.415 26.4681 27.3264L29.6304 24.5044C29.6977 24.6281 29.7829 24.7166 29.8679 24.8228C32.1155 27.3885 35.7389 27.8815 37.9651 25.8833C40.1909 23.9027 40.1892 20.167 37.942 17.5836C37.8744 17.4776 37.7717 17.389 37.6864 17.3005L42.5445 12.9712C46.2388 17.2178 51.4522 19.1633 56.1565 18.5161C58.5087 18.1925 60.7163 17.2162 62.5534 15.5862L139.499 104.305C133.987 109.23 134.012 118.411 139.545 124.781L134.704 129.11L134.602 128.986C132.372 126.403 128.748 125.928 126.505 127.908C126.293 128.101 126.098 128.329 125.92 128.54C124.301 130.629 124.52 133.872 126.529 136.19L126.613 136.314L123.486 139.118L123.401 138.995C121.154 136.411 117.53 135.936 115.305 137.917C113.078 139.915 113.08 143.65 115.31 146.234L115.412 146.358L112.797 148.689L112.695 148.565C110.466 145.982 106.824 145.506 104.599 147.487C102.372 149.485 102.374 153.221 104.621 155.804L104.706 155.928L100.007 160.117C94.4742 153.747 85.5104 152.559 79.9981 157.502L79.9801 157.537Z" fill="#7A7A7A"/>
<path d="M79.0943 146.172L14.0406 71.1265C18.9701 66.7268 19.4901 59.1517 15.2165 54.2324L46.8259 25.9757C51.0992 30.9126 58.5657 31.3359 63.4778 26.936L128.549 101.964C123.62 106.364 123.1 113.939 127.373 118.858L95.7639 147.115C91.4907 142.178 84.0241 141.755 79.112 146.154L79.0943 146.172Z" fill="#7A7A7A" stroke="#181818" stroke-width="0.73" stroke-miterlimit="10"/>
<path d="M54.5755 56.3123C54.4574 56.1884 54.4089 56.0471 54.3958 55.8706C54.4 55.6942 54.4553 55.5532 54.5966 55.4301C54.7207 55.307 54.8604 55.2545 55.0329 55.2727C55.2059 55.2732 55.3427 55.3442 55.4435 55.4681L62.1913 62.6884C62.3094 62.8123 62.3579 62.9536 62.371 63.1301C62.3668 63.3066 62.3115 63.4476 62.1701 63.5706C62.0461 63.6938 61.8891 63.7462 61.7338 63.7281C61.5781 63.7276 61.4419 63.6389 61.3237 63.515L54.5759 56.2947L54.5755 56.3123ZM48.1717 69.4202C48.0366 69.2786 47.9712 69.1196 47.9928 68.9432C47.997 68.7668 48.0696 68.6259 48.1936 68.5027L57.8655 59.0929L58.7427 60.0308L49.0708 69.4407C48.9468 69.5638 48.8071 69.6163 48.6168 69.6157C48.4438 69.6152 48.2898 69.5441 48.1717 69.4202Z" fill="black"/>
<path d="M55.3253 75.8953C55.1839 76.0184 55.0269 76.0709 54.8366 76.0703C54.6636 76.0697 54.5095 75.9986 54.3913 75.8748C54.2563 75.7332 54.1909 75.5741 54.2124 75.3978C54.2166 75.2213 54.2897 75.0627 54.431 74.9397L64.122 65.5295C64.2461 65.4064 64.4035 65.3363 64.5766 65.3369C64.7496 65.3374 64.9036 65.4085 65.0387 65.5501C65.1569 65.6739 65.205 65.8329 65.2007 66.0094C65.1965 66.1858 65.1235 66.3444 64.999 66.4852L55.308 75.8953L55.3253 75.8953Z" fill="black"/>
<path d="M74.7989 77.3894C74.8288 77.5836 74.79 77.7599 74.6828 77.9007C74.5757 78.0415 74.4179 78.1293 74.2264 78.1816C74.0707 78.1811 73.9328 78.163 73.8142 78.0568C73.6957 77.9506 73.6294 77.8268 73.5809 77.6855C73.475 77.05 73.2818 76.4495 73.019 75.8664C72.7562 75.2832 72.3711 74.7527 71.9163 74.2396C71.343 73.6202 70.6967 73.1594 69.9779 72.8395C69.259 72.5197 68.519 72.3586 67.7403 72.3738C66.9619 72.3713 66.1966 72.5454 65.428 72.8606C64.6593 73.1758 63.9556 73.6676 63.2828 74.3184C62.5921 74.9867 62.0732 75.7085 61.7087 76.4837C61.3615 77.259 61.1699 78.0348 61.1336 78.8287C61.1146 79.6227 61.2176 80.3817 61.5112 81.1237C61.7879 81.848 62.2043 82.5198 62.7776 83.1392C63.2328 83.6347 63.7424 84.0245 64.3056 84.3438C64.8519 84.6455 65.4345 84.8767 66.0365 85.0198C66.1913 85.0555 66.3103 85.1441 66.4107 85.2856C66.5115 85.4095 66.525 85.5683 66.5035 85.7447C66.4815 85.9387 66.3912 86.0972 66.2335 86.185C66.0753 86.2903 65.9192 86.3075 65.747 86.2717C65.3513 86.1822 64.9227 86.022 64.4603 85.8265C63.9984 85.6133 63.5373 85.3648 63.0948 85.0635C62.6522 84.7621 62.2451 84.4256 61.8912 84.0363C61.2167 83.3108 60.6999 82.4975 60.3755 81.5966C60.0511 80.6957 59.8828 79.7776 59.906 78.8072C59.9292 77.8368 60.1419 76.9023 60.5448 75.9684C60.9477 75.0345 61.5738 74.1718 62.3884 73.3804C63.1853 72.6065 64.0291 72.0445 64.9547 71.6769C65.8803 71.3092 66.8016 71.118 67.7352 71.1386C68.6693 71.1415 69.5809 71.3561 70.4542 71.7294C71.327 72.1203 72.1096 72.6698 72.801 73.413C73.3406 73.997 73.7751 74.6336 74.1218 75.3228C74.4686 76.0121 74.6765 76.7185 74.7976 77.4423L74.7989 77.3894Z" fill="black"/>
<path d="M67.6675 89.5988C67.5327 89.4571 67.4673 89.2981 67.4889 89.1216C67.4931 88.9451 67.566 88.7865 67.7072 88.6634L77.3856 79.2501C77.5095 79.1269 77.6667 79.0568 77.8395 79.0574C78.0124 79.0579 78.1662 79.129 78.3011 79.2706C78.4186 79.4122 78.4844 79.5536 78.4802 79.7301C78.4759 79.9066 78.403 80.0653 78.2791 80.1884L68.6007 89.6017C68.4595 89.7248 68.3027 89.7773 68.1299 89.7767C67.9571 89.7762 67.8032 89.7051 67.6852 89.5812L67.6675 89.5988ZM84.7358 86.2455C84.8538 86.3695 84.9023 86.5108 84.898 86.6873C84.8938 86.8638 84.8213 87.0048 84.7151 87.1104C84.5912 87.2336 84.4517 87.2861 84.2616 87.2855L71.3843 86.6626L72.3099 85.5358L84.2739 86.0499C84.4639 86.0505 84.6178 86.1216 84.7362 86.2279L84.7358 86.2455ZM74.2354 96.7859C74.1174 96.662 74.0698 96.4853 74.0917 96.2912L75.4962 86.7108L76.8786 86.7151L75.4367 96.419C75.3979 96.5954 75.3258 96.7187 75.2192 96.8419C75.0598 97.0003 74.8858 97.0527 74.6965 97.0168C74.5073 96.9809 74.3534 96.9098 74.2527 96.786L74.2354 96.7859Z" fill="black"/>
<path d="M88.0934 89.4853L93.2844 95.0625C93.4025 95.1865 93.4509 95.3278 93.4467 95.5044C93.4425 95.6809 93.3873 95.8219 93.2456 95.9627C93.1216 96.0859 92.9644 96.156 92.7919 96.1378C92.6191 96.1373 92.4825 96.0663 92.3644 95.9423L87.4934 90.7192L87.8935 90.6145L83.6279 94.7674L83.6709 94.4145L87.9184 98.9648C88.0365 99.0888 88.0849 99.2301 88.0803 99.4243C88.0761 99.6008 88.0031 99.7595 87.8969 99.8651C87.7729 99.9883 87.6157 100.058 87.4432 100.04C87.2704 100.04 87.1338 99.9686 87.033 99.8447L82.8193 95.3298L83.0958 95.3307L78.7244 99.5715L78.7282 99.4126L83.5317 104.565C83.6498 104.689 83.6982 104.83 83.6936 105.024C83.6894 105.201 83.6164 105.36 83.5102 105.465C83.3862 105.588 83.229 105.659 83.0565 105.64C82.8837 105.64 82.7471 105.569 82.629 105.445L77.438 99.8676C77.32 99.7436 77.2719 99.5846 77.2762 99.4081C77.2804 99.2316 77.3533 99.0729 77.4596 98.9673L87.1765 89.5177C87.3004 89.3946 87.44 89.342 87.6301 89.3426C87.803 89.3432 87.9568 89.4143 88.058 89.5205L88.0934 89.4853Z" fill="black"/>
<path d="M94.6574 98.0702C94.5393 97.9463 94.4907 97.805 94.4777 97.6285C94.4819 97.452 94.5372 97.3111 94.6612 97.1879C94.7853 97.0648 94.9249 97.0123 95.0975 97.0305C95.2705 97.031 95.4072 97.102 95.5081 97.2259L102.256 104.446C102.374 104.57 102.422 104.711 102.435 104.888C102.431 105.064 102.376 105.205 102.235 105.328C102.111 105.452 101.954 105.504 101.798 105.503C101.642 105.503 101.506 105.414 101.388 105.29L94.6401 98.0701L94.6574 98.0702ZM88.2536 111.178C88.1186 111.036 88.0532 110.877 88.0747 110.701C88.079 110.525 88.1516 110.384 88.2756 110.26L97.9473 100.851L98.8245 101.789L89.1528 111.198C89.0288 111.322 88.8891 111.374 88.6988 111.373C88.5258 111.373 88.3718 111.302 88.2536 111.178Z" fill="black"/>
<path d="M47.1891 46.5351L45.3948 51.4597L48.3621 55.7022L43.1981 55.5543L40.0947 59.7679L38.707 54.7578L33.8312 53.1137L38.1292 50.1742L38.2068 44.942L42.2544 48.1325L47.1891 46.5351Z" fill="black"/>
<path d="M111.006 111.553L109.212 116.477L112.179 120.72L107.015 120.572L103.911 124.786L102.524 119.775L97.6474 118.149L101.946 115.192L102.023 109.977L106.071 113.168L111.006 111.553Z" fill="black"/>
<path d="M135.658 129.246L135.554 129.122C133.281 126.539 129.62 126.048 127.374 128.009C127.162 128.199 126.966 128.426 126.789 128.634L121.245 125.091L110.559 118.271L101.965 112.804L33.6796 69.2816C37.6329 63.0754 35.0334 54.3158 27.851 49.7392L31.2344 44.4396C31.3213 44.5282 31.4434 44.5995 31.5479 44.6707C33.727 46.0597 36.3048 46.1195 38.1574 44.9796C38.1574 44.9796 38.1691 44.9739 38.1926 44.9624C38.8101 44.5825 39.3235 44.0963 39.7152 43.4862C41.3355 40.9585 40.2646 37.4052 37.3531 35.5707C37.2487 35.482 37.1265 35.4282 37.0217 35.3746L38.8382 32.5155L38.9095 32.3934L38.9443 32.4288C38.9443 32.4288 39.136 32.5535 39.223 32.6244C42.117 34.4588 45.7878 33.9327 47.3906 31.4049C48.0674 30.3415 48.2722 29.0981 48.0383 27.8856C47.7738 26.1993 46.7021 24.5578 45.046 23.5071C44.9416 23.4184 44.8193 23.3646 44.697 23.3108L46.9764 19.7371C47.0633 19.8256 47.1853 19.8969 47.2899 19.9681C50.2012 21.8202 53.8547 21.2764 55.4573 18.7661C55.4575 18.7485 55.4577 18.731 55.4929 18.7138C57.8637 18.4033 60.0829 17.4424 61.9225 15.8288L140.28 104.559C134.761 109.435 134.866 118.574 140.505 124.942L135.658 129.228L135.658 129.246Z" fill="#451C49"/>
<path d="M174.219 91.3282C172.606 93.8609 173.621 97.4292 176.495 99.2776L176.615 99.3664L174.357 102.919L174.237 102.83C171.362 100.982 167.731 101.547 166.118 104.08C164.505 106.612 165.519 110.181 168.393 112.029L168.514 112.118L166.631 115.09L166.511 115.001C163.637 113.153 160.005 113.718 158.392 116.251C156.779 118.783 157.794 122.352 160.668 124.2L160.788 124.289L157.401 129.618C150.328 125.051 141.336 126.437 137.34 132.698L38.7632 69.1971C42.7422 62.9357 40.2208 54.1384 33.1478 49.5709L36.5534 44.2065C36.6563 44.2952 36.7595 44.3663 36.8626 44.4373C39.7367 46.2857 43.3684 45.7208 44.9814 43.1881C46.5945 40.6554 45.5798 37.0871 42.7058 35.2387C42.6026 35.1677 42.4994 35.0966 42.3785 35.0431L44.2962 32.0356C44.399 32.1243 44.5022 32.1953 44.6054 32.2664C47.4794 34.1147 51.1112 33.5499 52.7242 31.0172C54.3372 28.4845 53.3226 24.9161 50.4485 23.0678C50.3453 22.9967 50.2422 22.9257 50.1212 22.8722L52.4151 19.2843C52.5179 19.373 52.6211 19.444 52.7243 19.5151C55.5983 21.3634 59.2301 20.7985 60.8431 18.2659C62.4561 15.7332 61.4415 12.1648 58.5674 10.3165C58.4642 10.2454 58.3611 10.1744 58.2402 10.1209L61.7531 4.59819C68.826 9.16563 77.8179 7.77944 81.8143 1.51815L180.356 65.0189C176.377 71.2803 178.898 80.0777 185.971 84.6451L182.476 90.1502L182.356 90.0614C179.482 88.2131 175.85 88.778 174.237 91.3106L174.219 91.3282Z" fill="white"/>
<path d="M133.368 122.072L50.0324 68.3689C53.5984 62.7764 52.0441 55.378 46.5549 51.8416L69.4046 15.8947C74.8764 19.431 82.2013 17.7548 85.7676 12.1447L169.104 65.8481C165.538 71.4405 167.092 78.839 172.581 82.3754L149.731 118.322C144.259 114.786 136.935 116.462 133.368 122.072Z" fill="white" stroke="#7E7E7E" stroke-width="0.73" stroke-miterlimit="10"/>
<path d="M85.213 42.6989C85.0773 42.6104 84.9768 42.4867 84.929 42.3279C84.8811 42.1691 84.9021 42.0105 84.992 41.8522C85.0815 41.7115 85.2042 41.6237 85.3606 41.5713C85.5165 41.5366 85.6707 41.5723 85.8241 41.6433L94.2682 46.6404C94.4039 46.7289 94.5044 46.8526 94.5523 47.0114C94.6002 47.1702 94.5791 47.3288 94.4892 47.4871C94.3993 47.6455 94.2766 47.7332 94.1206 47.768C93.9647 47.8027 93.8105 47.767 93.6748 47.6784L85.2307 42.6814L85.213 42.6989ZM82.5796 57.003C82.4094 56.9143 82.3094 56.773 82.2792 56.5966C82.2489 56.4203 82.2699 56.2617 82.3594 56.121L89.1521 44.421L90.2564 45.0767L83.4638 56.7766C83.3742 56.9173 83.2511 57.0227 83.0776 57.075C82.904 57.1274 82.7498 57.0916 82.5968 57.003L82.5796 57.003Z" fill="#7E7E7E"/>
<path d="M91.2504 61.2605C91.1437 61.4186 91.0044 61.5062 90.8317 61.5584C90.6593 61.5931 90.5054 61.575 90.3527 61.5041C90.1833 61.4156 90.0837 61.2744 90.0536 61.0983C90.0235 60.9222 90.0615 60.7638 90.1339 60.6056L96.8962 48.9033C96.9858 48.7451 97.1255 48.64 97.2811 48.5877C97.4539 48.5354 97.6074 48.5711 97.7768 48.6596C97.9119 48.7481 98.0119 48.8716 98.0592 49.0478C98.1064 49.224 98.0851 49.3999 97.9956 49.5581L91.2333 61.2604L91.2504 61.2605Z" fill="#7E7E7E"/>
<path d="M110.449 57.3043C110.531 57.4809 110.544 57.6574 110.471 57.8336C110.398 58.0097 110.291 58.1329 110.099 58.2205C109.959 58.273 109.804 58.2725 109.667 58.2191C109.53 58.1481 109.411 58.0596 109.328 57.9182C109.048 57.3528 108.715 56.8225 108.294 56.3449C107.874 55.8673 107.382 55.46 106.786 55.1053C106.07 54.6797 105.316 54.4127 104.541 54.3045C103.766 54.1962 103.004 54.2644 102.255 54.4913C101.506 54.7183 100.806 55.0866 100.154 55.6138C99.502 56.1409 98.9502 56.8095 98.4819 57.6019C97.9954 58.4295 97.6814 59.2753 97.5578 60.104C97.417 60.9327 97.4495 61.7442 97.6214 62.5033C97.8106 63.2625 98.1221 63.9691 98.5912 64.588C99.0604 65.2069 99.6526 65.738 100.351 66.1459C100.931 66.4829 101.53 66.7317 102.149 66.8572C102.768 67.0002 103.389 67.0375 103.995 67.0217C104.15 67.0222 104.305 67.058 104.423 67.1642C104.542 67.2704 104.625 67.3941 104.638 67.5706C104.668 67.7647 104.629 67.941 104.505 68.0641C104.381 68.2048 104.241 68.275 104.051 68.2744C103.636 68.2907 103.187 68.2717 102.687 68.1995C102.188 68.1274 101.672 68.0199 101.175 67.8596C100.66 67.6992 100.181 67.486 99.7381 67.22C98.8858 66.7234 98.1751 66.0861 97.623 65.3259C97.0535 64.5655 96.659 63.7175 96.4218 62.7995C96.1845 61.8814 96.1386 60.911 96.2836 59.9059C96.4286 58.9009 96.7807 57.9141 97.3577 56.9104C97.9163 55.9595 98.592 55.1678 99.3672 54.5528C100.16 53.9379 100.999 53.5172 101.922 53.2554C102.826 53.0113 103.761 52.9437 104.709 53.0525C105.657 53.179 106.566 53.4817 107.435 53.996C108.116 54.4039 108.71 54.882 109.215 55.4481C109.737 56.0143 110.137 56.633 110.432 57.2866L110.449 57.3043Z" fill="#7E7E7E"/>
<path d="M106.866 71.0748C106.696 70.9684 106.596 70.8446 106.565 70.6681C106.535 70.4916 106.573 70.3329 106.646 70.1744L113.451 58.4457C113.541 58.2872 113.682 58.1818 113.838 58.1293C114.012 58.077 114.167 58.1127 114.337 58.2015C114.49 58.2902 114.591 58.4316 114.639 58.5906C114.686 58.7671 114.648 58.9258 114.558 59.0843L107.753 70.813C107.646 70.9714 107.505 71.0592 107.349 71.1116C107.175 71.164 107.02 71.1459 106.867 71.0396L106.866 71.0748ZM122.454 63.0611C122.59 63.1497 122.69 63.2735 122.721 63.4324C122.752 63.5913 122.731 63.75 122.658 63.8909C122.569 64.0318 122.445 64.1372 122.272 64.1896L109.668 67.2199L110.253 65.8809L121.955 63.0066C122.146 62.9542 122.318 62.9724 122.454 63.0611ZM115.152 76.0761C114.999 75.9874 114.899 75.8459 114.887 75.6342L113.648 66.0856L114.986 65.7193L116.205 75.3737C116.2 75.5501 116.197 75.6912 116.107 75.8321C115.999 76.0258 115.841 76.1312 115.651 76.1482C115.461 76.1476 115.289 76.1471 115.17 76.0585L115.152 76.0761Z" fill="#7E7E7E"/>
<path d="M126.578 65.3354L133.093 69.2011C133.229 69.2898 133.329 69.4135 133.377 69.5724C133.425 69.7313 133.404 69.9077 133.313 70.0661C133.223 70.2246 133.101 70.3124 132.927 70.3471C132.754 70.3819 132.617 70.3462 132.463 70.2751L126.357 66.6577L126.724 66.4471L123.72 71.6058L123.66 71.2529L128.983 74.4093C129.119 74.4979 129.22 74.6217 129.25 74.7982C129.298 74.9747 129.277 75.1334 129.187 75.2742C129.097 75.4327 128.974 75.5381 128.8 75.5729C128.644 75.6076 128.49 75.5719 128.336 75.5008L123.047 72.3622L123.308 72.2748L120.232 77.5568L120.201 77.3979L126.222 80.9622C126.358 81.0508 126.458 81.1746 126.506 81.3511C126.553 81.5277 126.532 81.6864 126.443 81.8272C126.353 81.9857 126.23 82.0735 126.057 82.1082C125.883 82.1429 125.746 82.1072 125.593 82.0362L119.078 78.1705C118.942 78.0819 118.842 77.9581 118.794 77.7815C118.747 77.605 118.768 77.4463 118.858 77.3055L125.676 65.5443C125.766 65.4035 125.889 65.298 126.063 65.2456C126.237 65.1933 126.392 65.2114 126.528 65.3L126.578 65.3354Z" fill="#7E7E7E"/>
<path d="M135.271 71.7868C135.135 71.6982 135.034 71.5745 134.987 71.4158C134.939 71.257 134.96 71.0984 135.05 70.9401C135.139 70.7994 135.262 70.7116 135.418 70.6592C135.574 70.6245 135.728 70.6602 135.882 70.7312L144.327 75.7281C144.463 75.8167 144.563 75.9404 144.611 76.0992C144.659 76.2579 144.638 76.4165 144.548 76.5748C144.458 76.7332 144.335 76.8209 144.179 76.8557C144.023 76.8904 143.869 76.8547 143.733 76.7662L135.288 71.7692L135.271 71.7868ZM132.637 86.0904C132.467 86.0017 132.367 85.8604 132.337 85.6841C132.306 85.5077 132.327 85.3491 132.417 85.2084L139.21 73.5089L140.315 74.1645L133.521 85.864C133.432 86.0048 133.309 86.1101 133.135 86.1448C132.962 86.1972 132.808 86.1614 132.655 86.0728L132.637 86.0904Z" fill="#7E7E7E"/>
<path d="M75.3928 35.3053L75.0023 40.5189L79.015 43.7447L73.998 45.0423L72.1517 49.9495L69.4481 45.5317L64.3014 45.3486L67.6457 41.312L66.2929 36.2839L71.0774 38.2096L75.3928 35.3053Z" fill="#7E7E7E"/>
<path d="M154.68 80.1959L154.289 85.4095L158.302 88.6354L153.285 89.933L151.439 94.8401L148.735 90.4223L143.589 90.2392L146.933 86.2026L145.58 81.1746L150.364 83.1002L154.68 80.1959Z" fill="#7E7E7E"/>
</svg>
