<svg width="100" height="118" viewBox="0 0 100 118" fill="none" xmlns="http://www.w3.org/2000/svg">
<path d="M97.586 33.1278C95.8179 31.0068 93.4854 29.4872 90.6623 28.5685C88.1948 27.7655 85.7914 27.5967 84.0694 27.6006C84.5658 25.8485 84.8884 24.5551 85.0316 23.9638L86.6766 24.4991L87.7378 21.2381L23.8736 0.454958L22.8196 3.69383L24.4646 4.22914C24.2324 4.79146 23.7542 6.03424 23.1244 7.7429C21.7344 6.72629 19.692 5.44829 17.2246 4.64533C14.3793 3.71938 11.5919 3.59737 8.94364 4.25662C5.99309 5.01376 3.68074 7.05807 2.25662 10.2256C-0.562744 16.4718 0.466794 26.3013 4.84072 34.6922C7.62418 40.0385 13.5803 46.5891 17.9116 50.4274C21.4166 62.0928 29.4336 70.3935 27.7213 77.3926C25.5865 86.1432 20.9042 88.5203 21.9887 90.1735C23.0732 91.8267 20.2633 95.4755 20.2633 95.4755C20.2633 95.4755 19.0216 99.2911 15.8929 100.898C12.7713 102.483 12.8878 104.164 13.1844 106.199C13.4332 107.777 11.5242 109.412 10.6424 110.082L33.9163 117.656C33.5754 116.588 33.017 114.15 34.1465 113.021C35.606 111.557 36.6676 110.259 35.0766 107.141C33.4855 104.023 34.7345 100.185 34.7345 100.185C34.7345 100.185 34.6101 95.5811 36.4599 94.8828C38.3096 94.1845 35.9231 89.507 39.3471 81.176C42.0819 74.5097 53.4709 72.5242 63.1478 65.1485C68.9085 64.5944 77.5791 62.8037 82.9759 60.1195C91.4282 55.9026 98.0677 48.5688 99.4644 41.8596C100.177 38.4606 99.5108 35.447 97.586 33.1278ZM9.23575 32.4424C5.59673 25.4192 4.57919 17.1393 6.78091 12.2622C7.57295 10.5082 8.71022 9.4308 10.156 9.06718C11.8969 8.62784 13.7602 8.71899 15.6941 9.34834C17.8059 10.0356 19.5593 11.2195 20.6003 12.0244C20.25 13.5542 20.0575 15.4297 19.9407 17.5261C17.9478 24.5565 16.1381 33.2902 16.3471 41.1844C16.3494 41.4795 16.3811 41.7597 16.3834 42.0549C13.6777 39.1135 10.879 35.6268 9.23575 32.4424ZM80.7467 55.714C77.5218 57.3142 73.2294 58.4933 69.2886 59.2717C69.4641 59.0344 69.6547 58.8265 69.8303 58.5893C74.6379 52.3522 78.3148 44.2261 80.8484 37.3471C81.9878 35.5834 82.936 33.9539 83.5681 32.5404C84.8834 32.5023 86.9978 32.577 89.1095 33.2642C91.0435 33.8936 92.6035 34.9165 93.7524 36.2962C94.7073 37.4411 94.9927 38.9815 94.6008 40.8657C93.5177 46.0823 87.8221 52.1776 80.7467 55.714Z" fill="#FFE01A"/>
</svg>
