<svg width="61" height="84" viewBox="0 0 61 84" fill="none" xmlns="http://www.w3.org/2000/svg">
<path d="M19 0C25.3333 7.55242e-08 31.5847 1.43231 37.2862 4.18975C42.9878 6.9472 47.9919 10.9584 51.9241 15.9231C55.8563 20.8879 58.6148 26.6776 59.9932 32.8591C61.3716 39.0406 61.3342 45.4538 59.8837 51.6189C58.4332 57.7839 55.6073 63.541 51.6174 68.4595C47.6275 73.378 42.5769 77.3305 36.8435 80.0212C31.1102 82.7119 24.8425 84.0711 18.5096 83.9971C12.1767 83.9232 5.94256 82.418 0.273598 79.5942L8.13955 63.8029C11.4273 65.4406 15.0428 66.3135 18.7156 66.3564C22.3884 66.3993 26.0233 65.611 29.3484 64.0505C32.6735 62.4901 35.6026 60.1978 37.9166 57.3453C40.2306 54.4928 41.8695 51.1539 42.7107 47.5785C43.5519 44.0031 43.5736 40.2837 42.7742 36.6987C41.9748 33.1137 40.375 29.7559 38.0945 26.8766C35.8139 23.9973 32.9118 21.671 29.6052 20.0718C26.2985 18.4726 22.673 17.6419 19 17.6419V0Z" fill="#F8F8F8"/>
</svg>
