<svg width="30" height="30" viewBox="0 0 30 30" fill="none" xmlns="http://www.w3.org/2000/svg">
<path d="M14.9998 16.8257L8.60931 23.2162C8.37021 23.4553 8.0659 23.5748 7.69638 23.5748C7.32686 23.5748 7.02255 23.4553 6.78345 23.2162C6.54435 22.9771 6.4248 22.6727 6.4248 22.3032C6.4248 21.9337 6.54435 21.6294 6.78345 21.3903L13.1739 14.9998L6.78345 8.60931C6.54435 8.37021 6.4248 8.0659 6.4248 7.69638C6.4248 7.32686 6.54435 7.02255 6.78345 6.78345C7.02255 6.54435 7.32686 6.4248 7.69638 6.4248C8.0659 6.4248 8.37021 6.54435 8.60931 6.78345L14.9998 13.1739L21.3903 6.78345C21.6294 6.54435 21.9337 6.4248 22.3032 6.4248C22.6727 6.4248 22.9771 6.54435 23.2162 6.78345C23.4553 7.02255 23.5748 7.32686 23.5748 7.69638C23.5748 8.0659 23.4553 8.37021 23.2162 8.60931L16.8257 14.9998L23.2162 21.3903C23.4553 21.6294 23.5748 21.9337 23.5748 22.3032C23.5748 22.6727 23.4553 22.9771 23.2162 23.2162C22.9771 23.4553 22.6727 23.5748 22.3032 23.5748C21.9337 23.5748 21.6294 23.4553 21.3903 23.2162L14.9998 16.8257Z" fill="white"/>
</svg>
