<svg width="26" height="27" viewBox="0 0 26 27" fill="none" xmlns="http://www.w3.org/2000/svg">
<circle cx="12.9096" cy="13.4096" r="12.9096" fill="url(#paint0_linear_2534_53157)"/>
<path d="M15.0367 15.1688C15.1215 15.1245 15.2063 15.0802 15.2911 15.0358C15.3759 15.0358 15.4182 15.0358 15.4606 15.0358C15.5878 15.0358 15.6726 15.0358 15.7574 15.1245C15.8422 15.1688 15.927 15.2575 16.0542 15.4349L17.1141 17.1199C17.1565 17.1642 17.1565 17.2529 17.1989 17.2972C17.2413 17.3416 17.2413 17.4302 17.2413 17.4746C17.2413 17.6076 17.1989 17.7406 17.1141 17.8293C16.9869 17.8737 16.9021 17.9623 16.8173 18.051C16.3086 18.4057 15.715 18.7161 15.1215 18.9822C14.4855 19.2039 13.8496 19.3369 13.1712 19.3369C12.5777 19.3369 12.0265 19.2482 11.5177 19.1152C10.9242 18.9378 10.4154 18.7161 9.99145 18.4057C9.52509 18.1397 9.10112 17.785 8.71955 17.3859C8.33798 17.0312 7.9988 16.5878 7.74442 16.1C7.49004 15.6123 7.27806 15.0802 7.10847 14.5037C6.98128 13.9716 6.89648 13.3509 6.89648 12.7744C6.89648 12.1536 6.98128 11.5772 7.10847 11.0008C7.27806 10.4243 7.49004 9.89224 7.74442 9.40448C7.9988 8.91673 8.33798 8.47332 8.71955 8.07425C9.10112 7.67517 9.52509 7.32044 9.99145 7.0544C10.4578 6.78835 10.9242 6.56664 11.4753 6.38928C11.9841 6.3006 12.5353 6.21191 13.1288 6.21191C13.8072 6.21191 14.4431 6.3006 15.0367 6.5223C15.6302 6.69967 16.1814 7.01006 16.6902 7.36479L16.6478 7.32044C16.7749 7.40913 16.9021 7.49781 16.9869 7.63083C17.0717 7.76386 17.1141 7.89688 17.1141 8.07425C17.1141 8.20727 17.0717 8.29595 16.9869 8.42897L16.139 9.93658C15.9694 10.2913 15.7574 10.4243 15.503 10.4243C15.4606 10.4243 15.3759 10.4243 15.2911 10.38C15.2063 10.3356 15.1215 10.2913 15.0367 10.247C14.7399 10.0253 14.4431 9.89224 14.1039 9.75921C13.7648 9.62619 13.468 9.58185 13.0864 9.58185C12.7049 9.58185 12.3233 9.67053 11.9841 9.84789C11.6449 10.0253 11.3482 10.247 11.1362 10.513C10.8818 10.8234 10.7122 11.1338 10.585 11.5329C10.4154 11.9319 10.373 12.331 10.373 12.7744C10.373 13.2178 10.4578 13.6169 10.585 14.016C10.7122 14.3707 10.8818 14.7254 11.1362 14.9915C11.3905 15.2575 11.6449 15.4792 11.9841 15.6566C12.3233 15.834 12.7049 15.9226 13.0864 15.9226C13.468 15.9226 13.8072 15.834 14.1039 15.7453C14.4431 15.5679 14.7399 15.3905 15.0367 15.1688Z" fill="white"/>
<defs>
<linearGradient id="paint0_linear_2534_53157" x1="3.22739" y1="4.37287" x2="20.6553" y2="25.6737" gradientUnits="userSpaceOnUse">
<stop stop-color="#FBC917"/>
<stop offset="1" stop-color="#FA982B"/>
</linearGradient>
</defs>
</svg>
