<svg width="346" height="346" viewBox="0 0 346 346" fill="none" xmlns="http://www.w3.org/2000/svg">
<path d="M173 81C185.082 81 197.045 83.3797 208.207 88.0031C219.369 92.6265 229.511 99.4032 238.054 107.946C246.597 116.489 253.373 126.631 257.997 137.793C262.62 148.955 265 160.918 265 173C265 185.082 262.62 197.045 257.997 208.207C253.373 219.369 246.597 229.511 238.054 238.054C229.511 246.597 219.369 253.373 208.207 257.997C197.045 262.62 185.082 265 173 265C160.918 265 148.955 262.62 137.793 257.997C126.631 253.373 116.489 246.597 107.946 238.054C99.4032 229.511 92.6265 219.369 88.0031 208.207C83.3796 197.045 81 185.082 81 173C81 160.918 83.3796 148.955 88.0031 137.793C92.6265 126.631 99.4032 116.489 107.946 107.946C116.489 99.4032 126.631 92.6265 137.793 88.0031C148.955 83.3797 160.918 81 173 81L173 81Z" stroke="url(#paint0_linear_2771_20992)" stroke-width="4"/>
<path d="M173 46C189.678 46 206.192 49.2849 221.601 55.6673C237.009 62.0496 251.01 71.4044 262.803 83.1974C274.596 94.9905 283.95 108.991 290.333 124.399C296.715 139.808 300 156.322 300 173C300 189.678 296.715 206.192 290.333 221.601C283.95 237.009 274.596 251.01 262.803 262.803C251.01 274.596 237.009 283.95 221.601 290.333C206.192 296.715 189.678 300 173 300C156.322 300 139.808 296.715 124.399 290.333C108.991 283.95 94.9905 274.596 83.1974 262.803C71.4044 251.01 62.0496 237.009 55.6673 221.601C49.2849 206.192 46 189.678 46 173C46 156.322 49.2849 139.808 55.6673 124.399C62.0496 108.991 71.4044 94.9905 83.1974 83.1974C94.9905 71.4044 108.991 62.0496 124.399 55.6673C139.808 49.2849 156.322 46 173 46L173 46Z" stroke="url(#paint1_linear_2771_20992)" stroke-width="4"/>
<path d="M173 1.99999C195.456 1.99999 217.692 6.42304 238.439 15.0166C259.186 23.6101 278.036 36.2059 293.915 52.0847C309.794 67.9635 322.39 86.8144 330.983 107.561C339.577 128.308 344 150.544 344 173C344 195.456 339.577 217.692 330.983 238.439C322.39 259.186 309.794 278.036 293.915 293.915C278.036 309.794 259.186 322.39 238.439 330.983C217.692 339.577 195.456 344 173 344C150.544 344 128.308 339.577 107.561 330.983C86.8144 322.39 67.9635 309.794 52.0847 293.915C36.2059 278.036 23.6101 259.186 15.0166 238.439C6.42303 217.692 1.99999 195.456 1.99999 173C1.99999 150.544 6.42304 128.308 15.0166 107.561C23.6102 86.8144 36.2059 67.9635 52.0847 52.0847C67.9636 36.2059 86.8145 23.6101 107.561 15.0166C128.308 6.42303 150.544 1.99999 173 1.99999L173 1.99999Z" stroke="url(#paint2_linear_2771_20992)" stroke-width="4"/>
<defs>
<linearGradient id="paint0_linear_2771_20992" x1="93.5" y1="120.5" x2="279.5" y2="236" gradientUnits="userSpaceOnUse">
<stop offset="0.4375" stop-color="white"/>
<stop offset="0.865237" stop-color="white" stop-opacity="0"/>
</linearGradient>
<linearGradient id="paint1_linear_2771_20992" x1="283.5" y1="242" x2="32.5" y2="68.0001" gradientUnits="userSpaceOnUse">
<stop offset="0.4375" stop-color="white"/>
<stop offset="0.865237" stop-color="white" stop-opacity="0"/>
</linearGradient>
<linearGradient id="paint2_linear_2771_20992" x1="173" y1="179.5" x2="292.5" y2="332.5" gradientUnits="userSpaceOnUse">
<stop offset="0.4375" stop-color="white"/>
<stop offset="0.865237" stop-color="white" stop-opacity="0"/>
</linearGradient>
</defs>
</svg>
