<svg width="24" height="24" viewBox="0 0 24 24" fill="none" xmlns="http://www.w3.org/2000/svg">
<path d="M3.17763 5.99101L12 15.5301L20.8224 5.99101L20.8305 5.98219L20.8395 5.97419C21.0054 5.82627 21.2019 5.75 21.4193 5.75C21.6497 5.75 21.8536 5.82997 22.0153 5.99641C22.1749 6.16073 22.25 6.36223 22.25 6.58399C22.25 6.8108 22.1651 7.01808 22.01 7.18643L22.0094 7.18704L12.6459 17.2855L12.6459 17.2855L12.6436 17.2879C12.5688 17.3665 12.48 17.4454 12.371 17.4999C12.2599 17.5554 12.1355 17.582 12.0033 17.582L12 17.582C11.7437 17.582 11.5243 17.4759 11.3532 17.2878C11.3529 17.2874 11.3525 17.2871 11.3522 17.2867L1.99054 7.18701L1.99053 7.18701L1.99 7.18643C1.83543 7.01861 1.75 6.81476 1.75 6.58399C1.75 6.35492 1.83101 6.15939 1.98214 5.9991L1.98212 5.99908L1.98472 5.99641C2.14641 5.82997 2.35035 5.75 2.58071 5.75C2.79806 5.75 2.99465 5.82627 3.1605 5.97419L3.16947 5.98219L3.17763 5.99101Z" fill="white" stroke="white" stroke-width="0.5"/>
</svg>
