<svg width="24" height="24" viewBox="0 0 24 24" fill="white" xmlns="http://www.w3.org/2000/svg">
<path d="M12.0002 12.02C12.0002 14.4113 12.0002 16.8122 12.0002 19.2035C12.0002 19.8252 11.7419 20.2652 11.235 20.4565C10.6898 20.6669 10.2306 20.5139 9.8289 20.1122C8.40368 18.6774 6.9689 17.2522 5.54368 15.8269C5.43846 15.7122 5.32368 15.6739 5.17064 15.6739C4.23324 15.6739 3.29585 15.6739 2.35846 15.6739C1.50716 15.6739 1.00977 15.1765 1.00977 14.3252C1.00977 12.7756 1.00977 11.2261 1.00977 9.6765C1.00977 8.82519 1.50716 8.33737 2.35846 8.33737C3.29585 8.33737 4.23324 8.33737 5.17064 8.33737C5.32368 8.33737 5.43846 8.28954 5.54368 8.18432C6.97846 6.74954 8.41324 5.31476 9.84803 3.87998C10.355 3.37302 11.0341 3.31563 11.5411 3.72693C11.8567 3.98519 12.0002 4.31998 12.0002 4.73128C12.0002 7.16085 12.0002 9.59998 12.0002 12.0295V12.02Z" fill="white"/>
<path d="M22.9997 12.0201C22.9519 15.3201 21.7945 18.161 19.5084 20.5523C18.9824 21.0975 18.2267 21.1453 17.7293 20.667C17.2032 20.1697 17.2032 19.4331 17.7389 18.8688C18.8198 17.7497 19.6424 16.4775 20.0824 14.9949C21.1441 11.4079 20.4267 8.194 17.9589 5.37226C17.8728 5.26705 17.7771 5.17139 17.6815 5.07574C17.2032 4.53052 17.2224 3.80357 17.7389 3.32531C18.2267 2.87574 18.9728 2.90444 19.4511 3.39226C20.8093 4.76965 21.8041 6.37661 22.4067 8.2227C22.8084 9.47574 22.9997 10.7097 22.9997 12.0201Z" fill="white"/>
<path d="M18.1223 11.8C18.0744 13.9905 17.3857 15.7122 15.9988 17.1374C15.6353 17.5105 15.2049 17.6348 14.717 17.4722C14.2292 17.3096 13.9423 16.9557 13.8849 16.4392C13.837 16.0566 13.9709 15.7218 14.2483 15.4444C14.8796 14.7939 15.3292 14.0287 15.5301 13.1392C15.9223 11.3983 15.4823 9.86786 14.2675 8.56699C13.7509 8.02177 13.7414 7.29481 14.2483 6.79742C14.717 6.33829 15.4631 6.31916 15.9318 6.77829C17.0031 7.8209 17.6823 9.08351 17.9692 10.5566C18.0649 11.0348 18.0936 11.5131 18.1318 11.7905L18.1223 11.8Z" fill="white"/>
</svg>
