<svg width="24" height="24" viewBox="0 0 24 24" fill="white" xmlns="http://www.w3.org/2000/svg">
<path d="M11.9698 12.0449C11.9698 14.4201 11.9698 16.8048 11.9698 19.18C11.9698 19.7714 11.7695 20.2198 11.2162 20.4583C10.7107 20.6776 10.2337 20.5536 9.75678 20.0767C8.34501 18.6649 6.94278 17.2627 5.53101 15.8509C5.41654 15.7365 5.30208 15.6792 5.13991 15.6888C4.20509 15.6888 3.27027 15.6888 2.33546 15.6888C1.50557 15.6888 1 15.1927 1 14.3628C1 12.808 1 11.2531 1 9.69829C1 8.85886 1.49603 8.36283 2.32592 8.36283C3.27027 8.36283 4.21463 8.36283 5.15899 8.36283C5.27346 8.36283 5.42608 8.3056 5.50239 8.21975C6.94278 6.7889 8.37362 5.34852 9.81401 3.91767C10.4054 3.32626 11.3021 3.36441 11.7218 4.0226C11.8649 4.242 11.9412 4.53771 11.9412 4.8048C11.9603 7.21816 11.9507 9.63152 11.9507 12.0353L11.9698 12.0449Z" fill="white"/>
<path d="M18.0649 10.3086C18.5705 9.80299 19.0475 9.29743 19.553 8.83002C19.7438 8.65832 19.9918 8.50569 20.2303 8.42938C20.7168 8.2863 21.2319 8.51523 21.5085 8.93495C21.7947 9.37374 21.7756 9.91746 21.4513 10.3372C21.3177 10.5089 21.1556 10.6615 20.9934 10.8237C20.6119 11.2148 20.2208 11.5963 19.8297 11.9874C19.8201 11.997 19.8106 12.016 19.7915 12.0447C19.8487 12.1019 19.8964 12.1687 19.9632 12.2259C20.4211 12.6838 20.8885 13.1416 21.3368 13.609C21.6802 13.9715 21.8042 14.3912 21.6325 14.8777C21.4704 15.3451 21.1174 15.6122 20.6405 15.6885C20.2303 15.7458 19.8774 15.5931 19.5912 15.307C19.1429 14.8586 18.6945 14.4103 18.2462 13.962C18.189 13.9048 18.1317 13.8571 17.9982 13.7235C17.9505 13.8094 17.9314 13.9048 17.8742 13.962C17.4163 14.4294 16.9584 14.8873 16.491 15.3451C16.1285 15.6885 15.6993 15.803 15.2223 15.6313C14.7549 15.4596 14.4878 15.1162 14.4211 14.6297C14.3638 14.2195 14.5165 13.8666 14.8122 13.5804C15.2605 13.1321 15.7088 12.6838 16.1572 12.2354C16.2144 12.1782 16.2621 12.121 16.3479 12.0351C16.1953 11.892 16.0522 11.7585 15.9187 11.6249C15.5371 11.2529 15.1651 10.8809 14.7931 10.4993C14.2875 9.9747 14.2875 9.24019 14.7835 8.75371C15.27 8.27676 15.995 8.27676 16.5101 8.77279C16.9775 9.22112 17.4354 9.68853 17.8932 10.1464C17.9505 10.2036 18.0077 10.2513 18.084 10.3181L18.0649 10.3086Z" fill="white"/>
</svg>
