<svg width="430" height="844" viewBox="0 0 430 844" fill="none" xmlns="http://www.w3.org/2000/svg">
<g clip-path="url(#clip0_1115_29285)">
<rect width="430" height="844" fill="#4E13AF"/>
<g filter="url(#filter0_f_1115_29285)">
<circle cx="32.5" cy="361.5" r="150.5" fill="#6626CF"/>
</g>
<g filter="url(#filter1_f_1115_29285)">
<circle cx="288.5" cy="-66.5" r="150.5" fill="#6626CF"/>
</g>
<g filter="url(#filter2_f_1115_29285)">
<path d="M496 778.5C496 861.619 428.619 929 345.5 929C262.381 929 195 861.619 195 778.5C195 695.381 262.381 628 345.5 628C428.619 628 496 695.381 496 778.5Z" fill="#6626CF"/>
</g>
<path d="M288.391 287.055L72.5026 203.44L247.143 59.2435L288.391 287.055Z" fill="#B98EFD"/>
<path d="M159.618 131.093L-57.5017 45.9878L117.139 -98.2085L159.618 131.093Z" fill="#B98EFD"/>
<path d="M418.806 445.003L201.686 359.898L376.327 215.702L418.806 445.003Z" fill="#B98EFD"/>
<path d="M14.0132 222.022C32.8032 222.022 48.0356 206.79 48.0356 188C48.0356 169.21 32.8032 153.978 14.0132 153.978C-4.77691 153.978 -20.0093 169.21 -20.0093 188C-20.0093 206.79 -4.77691 222.022 14.0132 222.022Z" fill="#FF7A00"/>
<path d="M46.5544 178.048C46.3384 177.338 46.0915 176.628 45.8292 175.934C44.9497 178.634 42.3729 180.563 38.8395 183.155C35.8307 185.362 32.0968 188.108 28.3628 192.197C19.3673 202.057 17.6392 211.484 20.0308 221.482C20.5399 221.39 21.0491 221.282 21.5429 221.174C19.2593 211.607 20.9102 202.597 29.4737 193.231C33.1151 189.25 36.7874 186.55 39.7345 184.39C42.7278 182.199 45.212 180.362 46.5544 178.048Z" fill="white"/>
<path d="M-0.382863 162.649C3.84487 167.324 10.5722 169.793 18.071 169.454C23.3017 169.207 28.8255 165.735 33.3156 159.995C32.899 159.702 32.4824 159.424 32.0503 159.162C27.8535 164.501 22.7771 167.726 18.0093 167.942C10.958 168.266 4.66264 165.967 0.743503 161.631C-0.305716 160.474 -1.12349 159.193 -1.74068 157.851C-2.18814 158.082 -2.6356 158.329 -3.06763 158.591C-2.38872 160.042 -1.50923 161.415 -0.382863 162.665V162.649Z" fill="white"/>
<path d="M-7.26456 214.555C-6.69366 205.312 -4.22491 196.07 -0.367489 189.589C1.88524 190.453 4.38485 191.024 7.13133 191.209C14.2136 191.657 19.2436 189.651 20.5706 185.855C21.3884 183.51 20.4934 180.902 18.3179 179.375C15.4634 177.369 10.1247 177.076 3.72137 182.276C1.99325 183.68 0.403996 185.531 -1.01554 187.707C-6.0919 185.454 -10.3968 181.35 -13.9147 175.425C-14.6554 174.175 -15.3034 172.91 -15.8743 171.706C-16.1675 172.246 -16.4452 172.786 -16.7075 173.342C-13.8067 179.097 -9.11612 185.608 -1.80245 188.972C-5.59815 195.406 -8.0669 204.263 -8.76124 213.258C-8.26749 213.69 -7.77374 214.122 -7.26456 214.524V214.555ZM4.67802 183.464C10.4179 178.789 15.0313 178.927 17.4384 180.625C19.0739 181.766 19.7374 183.633 19.1356 185.362C18.287 187.769 14.7227 190.176 7.20848 189.713C4.83231 189.558 2.56415 189.096 0.434855 188.324C1.71552 186.38 3.13505 184.744 4.67802 183.479V183.464Z" fill="white"/>
<path d="M48.4213 185.408C48.2515 185.253 48.0664 185.099 47.8966 184.945C47.9584 185.67 48.0047 186.395 48.0201 187.136C55.8121 194.65 59.0369 201.64 56.8304 206.392C54.8246 210.728 48.5293 212.826 39.1172 212.317C29.4736 211.792 17.8088 208.552 6.2828 203.198C-5.2586 197.844 -15.257 191.024 -21.8918 184.004C-28.3568 177.153 -30.8101 170.996 -28.8043 166.661C-26.999 162.772 -21.5215 160.658 -13.6678 160.658C-11.5539 160.658 -9.27032 160.813 -6.84786 161.121C-6.27696 160.674 -5.69063 160.257 -5.08887 159.841C-5.5209 159.779 -5.95293 159.702 -6.38497 159.64C-18.8521 158.005 -27.5391 160.319 -30.1775 166.013C-32.4766 170.95 -29.9152 177.708 -23.0027 185.037C-16.2445 192.197 -6.07637 199.14 5.63475 204.556C17.3459 209.987 29.1959 213.274 39.0246 213.814C39.9658 213.86 40.8761 213.891 41.7556 213.891C50.3191 213.891 56.1052 211.484 58.1882 207.009C60.7496 201.485 57.1853 193.616 48.4058 185.392L48.4213 185.408Z" fill="#FFD77F"/>
<g clip-path="url(#clip1_1115_29285)">
<path d="M298.077 164.128L246.531 188.302L274.105 138.37L235.323 96.689L291.154 107.51L318.728 57.5779L325.656 114.197L381.487 125.018L329.937 149.191L336.865 205.81L298.077 164.128Z" fill="white"/>
<path d="M317.912 61.7887L324.462 115.315L377.242 125.544L328.508 148.396L335.057 201.927L298.388 162.523L249.654 185.375L275.728 138.167L239.06 98.763L291.844 108.993L317.912 61.7887Z" fill="#FD7474"/>
<path d="M277.502 118.718C277.506 118.35 277.323 117.743 276.51 117.585C275.905 117.468 275.432 117.781 275.35 118.206C275.281 118.562 275.452 118.883 275.905 119.065L276.766 119.412C277.889 119.864 278.364 120.748 278.188 121.654C277.997 122.643 276.982 123.481 275.487 123.191C273.788 122.862 273.249 121.619 273.327 120.685L274.545 120.601C274.478 121.245 274.808 121.903 275.711 122.078C276.381 122.208 276.818 121.946 276.906 121.491C276.978 121.118 276.754 120.773 276.276 120.577L275.416 120.221C274.437 119.816 273.904 119.024 274.092 118.053C274.314 116.908 275.502 116.238 276.717 116.473C278.273 116.775 278.686 117.836 278.688 118.588L277.502 118.718Z" fill="white"/>
<path d="M282.58 118.987L281.563 124.23L280.306 123.986L281.322 118.743L279.295 118.35L279.525 117.162L284.833 118.191L284.602 119.379L282.58 118.987Z" fill="white"/>
<path d="M287.981 123.948L285.379 123.444L284.563 124.811L283.245 124.555L286.95 118.601L288.398 118.882L289.594 125.786L288.237 125.523L287.981 123.948ZM286.016 122.379L287.788 122.723L287.374 120.118L286.016 122.379Z" fill="white"/>
<path d="M292.796 123.837L292.144 123.711L291.664 126.187L290.406 125.943L291.653 119.512L294.155 119.997C295.404 120.239 296.032 121.256 295.816 122.371C295.642 123.269 294.987 123.848 294.097 123.928L294.962 126.826L293.57 126.557L292.796 123.837ZM293.369 122.828C294 122.95 294.442 122.658 294.544 122.133C294.65 121.587 294.346 121.164 293.715 121.041L292.704 120.845L292.357 122.632L293.369 122.828Z" fill="white"/>
<path d="M302.476 121.466C304.222 121.804 305.53 123.385 305.127 125.462C304.726 127.531 302.922 128.509 301.176 128.17C299.439 127.833 298.135 126.253 298.536 124.185C298.939 122.108 300.743 121.13 302.476 121.466ZM301.412 126.956C302.406 127.149 303.551 126.655 303.832 125.202C304.114 123.75 303.236 122.864 302.242 122.671C301.257 122.48 300.112 122.974 299.83 124.427C299.549 125.879 300.426 126.765 301.412 126.956Z" fill="white"/>
<path d="M305.589 128.886L306.836 122.455L310.886 123.24L310.655 124.428L307.85 123.884L307.543 125.471L310.036 125.955L309.813 127.108L307.328 126.627L306.843 129.129L305.589 128.886Z" fill="white"/>
<path d="M312.902 130.303L314.149 123.872L318.198 124.657L317.968 125.845L315.163 125.302L314.855 126.889L317.349 127.372L317.126 128.526L314.64 128.044L314.155 130.546L312.902 130.303Z" fill="white"/>
<path d="M321.598 130.463L318.996 129.959L318.179 131.326L316.861 131.071L320.567 125.116L322.014 125.397L323.21 132.301L321.853 132.038L321.598 130.463ZM319.633 128.895L321.405 129.238L320.99 126.633L319.633 128.895Z" fill="white"/>
<path d="M329.948 133.607L330.822 129.097L328.102 133.249L327.061 133.048L326.082 128.219L325.215 132.69L324.022 132.459L325.269 126.028L326.916 126.347L327.943 131.365L330.723 127.085L332.422 127.414L331.175 133.845L329.948 133.607Z" fill="white"/>
<path d="M332.641 134.129L333.887 127.698L337.902 128.476L337.673 129.655L334.907 129.119L334.622 130.589L337.125 131.074L336.909 132.189L334.406 131.704L334.118 133.191L336.884 133.728L336.656 134.907L332.641 134.129Z" fill="white"/>
<path d="M299.361 157.506C293.358 156.342 289.424 150.495 290.591 144.472C291.759 138.448 297.592 134.495 303.595 135.658C309.599 136.822 313.533 142.669 312.365 148.692C311.198 154.716 305.364 158.669 299.361 157.506Z" fill="#EDE0BB"/>
<path d="M311.069 148.441C310.038 153.757 304.907 157.231 299.613 156.205C294.314 155.178 290.858 150.036 291.888 144.723C292.918 139.407 298.049 135.933 303.343 136.959C308.642 137.986 312.099 143.124 311.069 148.441Z" fill="#662FBF"/>
<path d="M306.663 147.618L305.469 146.744L305.571 146.219L307.005 145.853L306.663 147.618ZM303.959 152.246L301.302 148.298C301.257 148.231 301.189 148.191 301.115 148.177L301.111 148.176C301.029 148.16 300.953 148.181 300.89 148.227C300.89 148.227 300.886 148.227 300.885 148.231L296.946 150.901C296.817 150.988 296.782 151.166 296.869 151.3C296.956 151.429 297.133 151.463 297.266 151.377L300.648 149.085L299.924 152.819C299.894 152.975 299.995 153.125 300.15 153.155C300.306 153.185 300.456 153.084 300.486 152.927L301.212 149.181L303.492 152.57C303.579 152.699 303.757 152.734 303.89 152.647C304.023 152.56 304.046 152.376 303.959 152.246ZM303.997 145.594C302.864 145.375 302.071 144.38 302.058 143.266C301.63 144.294 300.522 144.921 299.39 144.701C299.022 144.63 298.693 144.477 298.416 144.265L298.144 145.67C298.012 146.351 298.457 147.013 299.136 147.145L303.319 147.956C303.998 148.087 304.659 147.639 304.791 146.959L305.063 145.554C304.727 145.646 304.364 145.666 303.997 145.594ZM306.187 143.571C306.373 142.613 305.746 141.681 304.791 141.496C303.836 141.311 302.907 141.941 302.721 142.899C302.535 143.858 303.162 144.789 304.117 144.974C305.072 145.159 306.001 144.534 306.187 143.571ZM301.584 142.679C301.77 141.721 301.143 140.789 300.188 140.604C299.233 140.419 298.304 141.049 298.118 142.007C297.932 142.966 298.559 143.897 299.514 144.082C300.468 144.272 301.398 143.642 301.584 142.679Z" fill="white"/>
</g>
<g clip-path="url(#clip2_1115_29285)">
<path d="M131.133 334.992L99.5332 324.709L95.3812 337.467L93.715 336.925L92.8338 339.633L127.766 351.001L128.647 348.293L126.981 347.751L131.133 334.992Z" fill="black"/>
<path d="M165.287 276.291C164.115 274.885 162.567 273.877 160.695 273.267C159.058 272.734 157.464 272.622 156.321 272.625C156.651 271.463 156.865 270.605 156.96 270.213L158.051 270.568L158.755 268.405L116.391 254.618L115.692 256.767L116.783 257.122C116.629 257.495 116.312 258.319 115.894 259.453C114.972 258.778 113.617 257.93 111.98 257.398C110.093 256.784 108.244 256.703 106.487 257.14C104.53 257.642 102.996 258.998 102.051 261.099C100.181 265.243 100.864 271.763 103.766 277.329C105.612 280.876 109.563 285.221 112.436 287.767C114.761 295.505 120.079 301.011 118.943 305.654C117.527 311.459 114.421 313.036 115.141 314.132C115.86 315.229 113.996 317.649 113.996 317.649C113.996 317.649 113.172 320.18 111.097 321.246C109.026 322.298 109.104 323.413 109.3 324.763C109.465 325.809 108.199 326.894 107.614 327.339L123.053 332.363C122.827 331.654 122.456 330.037 123.205 329.288C124.173 328.317 124.878 327.456 123.822 325.388C122.767 323.319 123.595 320.773 123.595 320.773C123.595 320.773 123.513 317.719 124.74 317.256C125.967 316.793 124.384 313.69 126.655 308.164C128.469 303.742 136.024 302.425 142.443 297.532C146.264 297.165 152.016 295.977 155.596 294.196C161.203 291.399 165.607 286.534 166.533 282.084C167.006 279.829 166.564 277.83 165.287 276.291ZM106.681 275.837C104.267 271.178 103.592 265.686 105.053 262.45C105.578 261.287 106.332 260.572 107.291 260.331C108.446 260.04 109.682 260.1 110.965 260.518C112.366 260.973 113.529 261.759 114.22 262.293C113.987 263.307 113.86 264.552 113.782 265.942C112.46 270.606 111.26 276.399 111.398 281.636C111.4 281.832 111.421 282.017 111.422 282.213C109.627 280.262 107.771 277.949 106.681 275.837ZM154.117 291.274C151.978 292.335 149.131 293.117 146.517 293.634C146.633 293.476 146.759 293.339 146.876 293.181C150.065 289.044 152.504 283.653 154.185 279.09C154.94 277.92 155.569 276.839 155.989 275.902C156.861 275.877 158.264 275.926 159.665 276.382C160.948 276.799 161.982 277.478 162.744 278.393C163.378 279.153 163.567 280.174 163.307 281.424C162.589 284.885 158.811 288.928 154.117 291.274Z" fill="#FFE01A"/>
<path d="M121.55 335.226L107.143 330.538L104.509 338.631L118.916 343.32L121.55 335.226Z" fill="#CCCCCC"/>
<path d="M131.133 334.992L119.97 331.36L118.773 335.039L107.11 331.243L104.471 339.351L116.135 343.147L115.819 344.118L93.715 336.925L92.8338 339.633L127.766 351.001L128.647 348.293L126.981 347.751L131.133 334.992Z" fill="#3A3A3A"/>
<path d="M121.55 335.226L107.143 330.538L104.509 338.631L118.916 343.32L121.55 335.226Z" fill="#CCCCCC"/>
<path d="M165.287 276.291C164.114 274.884 162.567 273.876 160.694 273.267C159.058 272.734 157.463 272.622 156.321 272.625C156.65 271.463 156.864 270.605 156.959 270.212L158.05 270.568L158.754 268.404L147.076 264.604L146.377 266.752L116.783 257.122L145.484 268.545C145.484 268.545 141.547 280.641 136.975 290.382C132.402 300.123 127.859 300.956 125.535 304.089C123.225 307.227 121.592 312.896 121.346 313.955C121.114 315.018 121.019 316.111 121.034 316.766C121.034 317.417 120.177 318.749 119.896 319.911C119.636 321.063 119.478 322.851 119.194 323.572C118.911 324.294 117.378 324.495 117.103 325.691C116.823 326.902 117.609 327.792 117.259 328.866C117.111 329.323 116.673 329.766 116.22 330.156L123.047 332.377C122.821 331.669 122.451 330.051 123.2 329.302C124.168 328.332 124.873 327.471 123.817 325.402C122.762 323.334 123.59 320.788 123.59 320.788C123.59 320.788 123.508 317.734 124.735 317.271C125.962 316.808 124.379 313.705 126.65 308.178C128.464 303.756 136.019 302.439 142.438 297.547C146.259 297.179 152.011 295.991 155.591 294.211C161.198 291.414 165.602 286.549 166.528 282.098C167.006 279.829 166.564 277.83 165.287 276.291ZM154.117 291.274C151.978 292.335 149.13 293.117 146.516 293.634C146.633 293.476 146.759 293.338 146.876 293.181C150.065 289.044 152.504 283.653 154.184 279.09C154.94 277.92 155.569 276.839 155.988 275.902C156.861 275.876 158.263 275.926 159.664 276.382C160.947 276.799 161.982 277.478 162.744 278.393C163.378 279.153 163.567 280.174 163.307 281.424C162.588 284.885 158.81 288.928 154.117 291.274Z" fill="#FFC21A"/>
<path d="M109.658 258.871C106.989 258.654 104.04 259.696 103.402 263.964C103.01 266.57 104.049 270.342 105.678 273.606C104.102 269.529 103.823 265.175 105.052 262.45C105.577 261.287 106.332 260.572 107.291 260.331C108.446 260.039 109.682 260.1 110.965 260.517C112.365 260.973 113.529 261.759 114.219 262.293L114.612 261.086C114.597 261.081 112.498 259.112 109.658 258.871Z" fill="#FFC21A"/>
<path d="M106.559 339.298L109.051 340.109L115.548 333.273L112.997 332.443L106.559 339.298Z" fill="#E0E0E0"/>
</g>
<g clip-path="url(#clip3_1115_29285)">
<path d="M63.7228 109C61.8562 109 60.1605 108.343 58.8567 106.291C57.5672 104.254 57.5244 102.01 58.2369 99.8733C57.1824 99.8376 56.1636 99.6661 55.2303 99.3159C52.6512 98.3582 49.78 95.7281 50.7204 88.6669C51.497 82.8135 50.6991 78.2322 48.4691 75.7737C47.1154 74.28 45.2202 73.5581 42.8478 73.651C42.3918 73.6653 42.0142 73.3151 41.9999 72.8577C41.9857 72.4074 42.3348 72.0215 42.7908 72.0001C45.6691 71.9143 47.9846 72.8005 49.6802 74.6659C52.238 77.4961 53.1855 82.5419 52.3448 88.8813C51.7036 93.6912 52.8721 96.6858 55.8003 97.7721C56.755 98.1295 57.8308 98.2581 58.9493 98.2152C59.9183 96.3713 61.4073 94.6775 63.0531 93.3696C65.9671 91.0682 68.7385 90.5036 70.1136 91.9402C70.4627 92.2975 71.168 93.3053 70.1848 94.8133C68.7599 97.0074 64.3284 99.3588 60.0394 99.8019C59.2628 101.639 59.1132 103.626 60.2318 105.405C61.9559 108.128 64.5136 107.542 68.5462 106.363C72.3934 105.241 76.7466 103.961 80.6865 107.12C81.0427 107.406 81.0997 107.921 80.8147 108.278C80.5297 108.636 80.0167 108.693 79.6605 108.407C76.3903 105.784 72.6357 106.885 69.0021 107.942C67.2139 108.464 65.39 109 63.7086 109H63.7228ZM68.0902 92.7978C67.0999 92.7978 65.5823 93.4839 64.0719 94.6703C63.0246 95.4922 61.9132 96.6501 61.0368 97.9722C64.4994 97.2933 67.8622 95.385 68.8169 93.9199C69.1874 93.3481 69.0164 93.1695 68.9451 93.0908C68.7528 92.8907 68.4607 92.7978 68.0902 92.7978Z" fill="white"/>
</g>
<g clip-path="url(#clip4_1115_29285)">
<path d="M75.2478 267.008C75.0435 266.121 76.1634 261.378 76.0059 261.288C75.8284 261.191 72.7774 264.86 71.9686 265.186C70.9378 265.595 66.9323 264.148 67.0885 264.683C67.2485 265.222 70.4854 267.775 70.3515 268.416C70.1157 269.521 69.285 273.737 69.6016 274.138C70.111 274.217 72.9187 271.07 73.647 270.241C74.0728 269.759 77.8986 271.134 78.4093 270.96C78.9193 270.794 75.519 268.125 75.2567 267.001L75.2478 267.008Z" fill="white"/>
</g>
<path d="M173 229.974L217.659 214C217.659 214 221.05 219.13 223.689 220.682C229.231 223.942 253.856 232.115 263.458 237.959C282.201 249.369 299.641 265.993 299.641 265.993L273.726 279.196L235.912 278.218C235.912 278.218 223.525 260.941 213.256 253.769C199.264 243.997 182.492 241.88 179.68 239.752C173.652 235.189 173 229.974 173 229.974Z" fill="#BAF155"/>
<path d="M259.221 239.101C250.683 234.03 229.239 226.345 224.016 224.106C220.593 222.639 217.17 217.097 217.17 217.097L178.378 231.44C178.378 231.44 178.052 235.19 186.114 239.112C188.909 240.471 203.53 242.795 215.974 251.271C225.105 257.493 240.803 277.077 240.803 277.077L268.837 277.729L294.264 265.016C294.264 265.016 275.891 248.999 259.221 239.101ZM265.414 275.774L244.714 276.263C244.714 276.263 230.375 258.688 221.244 252.466C208.8 243.988 196.729 239.79 193.699 239.101C182.942 236.656 181.964 232.419 181.964 232.419L216.518 220.032C216.518 220.032 220.755 225.736 229.394 228.833C236.478 231.373 251.006 236.341 259.873 242.036C277.64 253.446 289.048 264.366 289.048 264.366L265.414 275.774Z" fill="#53B70C"/>
<path d="M235.914 278.219C235.914 278.219 243.737 276.1 246.997 274.144C250.257 272.187 258.896 266.973 258.896 266.973C258.896 266.973 263.11 272.899 265.416 274.47C269.001 276.915 273.729 279.196 273.729 279.196L235.914 278.219Z" fill="#A8BC61"/>
<path d="M241.703 278.294C241.703 278.294 245.47 277.75 249.905 275.573C254.461 273.338 258.119 270.438 258.119 270.438C258.119 270.438 259.656 273.899 262.124 275.616C265.577 278.014 270.285 279.089 270.285 279.089L263.548 278.88C263.548 278.88 261.291 278.071 260.032 277.081C258.86 276.161 257.353 274.152 257.353 274.152C257.353 274.152 254.279 276.017 252.903 276.742C250.114 278.211 248.44 278.546 248.44 278.546L241.703 278.294Z" fill="#6BA335"/>
<path d="M250.746 236.168L246.671 234.211C241.619 232.255 233.468 231.929 224.831 236.656C218.086 240.347 211.792 245.131 217.496 250.999C224.164 257.859 232.441 258.359 242.271 253.444C254.332 247.414 256.613 238.123 250.746 236.168Z" fill="#53B70C"/>
<path d="M246.746 238.404L248.503 237.481L245.689 235.834L243.738 236.965C242.214 236.441 240.437 235.885 239.267 235.828C235.898 235.666 228.724 237.93 230.372 241.057C231.795 243.757 238.155 245.806 232.917 247.76C230.408 248.696 226.005 246.581 226.028 244.614C226.045 243.142 227.288 242.293 227.288 242.293L225.199 240.304C225.199 240.304 219.053 243.969 223.689 248.597C223.693 248.601 223.698 248.606 223.704 248.61L221.659 249.795L224.276 251.402L226.258 250.362C229.539 251.923 233.698 252.612 237.583 250.825C241.455 249.044 240.967 245.621 238.216 243.939C236.147 242.674 233.989 240.606 235.9 239.485C237.812 238.364 241.16 238.177 243.005 239.603C245.788 241.752 243.367 243.201 243.367 243.201L246.276 245.555C246.276 245.555 249.571 242.723 248.517 240.293C248.214 239.595 247.573 238.96 246.746 238.404Z" fill="#BAF155"/>
<path d="M265.817 259.874C266.709 261.544 265.72 263.813 263.608 264.942C261.496 266.072 259.059 265.634 258.167 263.964C257.274 262.294 258.263 260.025 260.375 258.896C262.489 257.766 264.924 258.204 265.817 259.874Z" fill="#53B70C"/>
<path d="M214.784 230.327C215.313 231.548 214.257 233.181 212.423 233.976C210.591 234.771 208.675 234.425 208.147 233.204C207.618 231.983 208.674 230.35 210.508 229.555C212.34 228.762 214.254 229.107 214.784 230.327Z" fill="#53B70C"/>
<path d="M296.777 357.339L306.884 326.047C306.884 326.047 311.136 326.352 313.105 325.559C317.24 323.892 332.143 313.817 339.414 311.012C353.609 305.538 370.118 302.985 370.118 302.985L366.414 322.807L349.887 343.171C349.887 343.171 335.157 342.672 326.874 345.282C315.588 348.838 307.333 357.158 304.974 357.804C299.919 359.186 296.777 357.339 296.777 357.339Z" fill="#BAF155"/>
<path d="M338.25 313.823C331.854 316.371 318.563 324.904 315.125 326.826C312.871 328.087 308.379 327.625 308.379 327.625L299.857 355.004C299.857 355.004 301.779 356.769 307.343 353.997C309.272 353.037 316.731 345.985 326.651 342.732C333.93 340.346 351.329 340.001 351.329 340.001L363.541 324.873L367.308 305.526C367.308 305.526 350.738 308.849 338.25 313.823ZM361.02 325.927L352.535 337.508C352.535 337.508 336.815 337.955 329.535 340.342C319.615 343.594 312.205 348.452 310.545 349.825C304.653 354.702 301.911 353.448 301.911 353.448L309.716 329.224C309.716 329.224 314.642 329.307 319.996 325.87C324.387 323.052 333.26 317.17 340.139 314.706C353.92 309.768 364.745 308.117 364.745 308.117L361.02 325.927Z" fill="#53B70C"/>
<path d="M349.889 343.171C349.889 343.171 352.032 337.976 352.336 335.357C352.639 332.739 353.427 325.787 353.427 325.787C353.427 325.787 358.465 325.978 360.304 325.375C363.163 324.439 366.415 322.806 366.415 322.806L349.889 343.171Z" fill="#A8BC61"/>
<path d="M352.378 340.021C352.378 340.021 353.672 337.722 354.352 334.364C355.05 330.916 355.003 327.679 355.003 327.679C355.003 327.679 357.555 328.299 359.542 327.668C362.319 326.785 364.901 324.652 364.901 324.652L361.937 328.266C361.937 328.266 360.539 329.164 359.462 329.437C358.461 329.692 356.72 329.67 356.72 329.67C356.72 329.67 356.445 332.148 356.261 333.211C355.889 335.365 355.365 336.426 355.365 336.426L352.378 340.021Z" fill="#6BA335"/>
<path d="M333.055 317.24L330.257 318.651C327.046 320.6 323.42 324.941 322.365 331.686C321.541 336.952 321.509 342.434 327.145 341.781C333.733 341.017 337.508 336.681 338.964 329.202C340.751 320.025 336.61 314.843 333.055 317.24Z" fill="#53B70C"/>
<path d="M332.592 320.383L332.828 319.027L330.733 319.877L330.53 321.428C329.598 322.043 328.541 322.784 328.014 323.404C326.501 325.186 324.711 330.085 327.126 330.502C329.212 330.862 333.027 328.233 331.885 331.938C331.339 333.712 328.315 335.237 327.244 334.393C326.443 333.761 326.501 332.719 326.501 332.719L324.525 333.026C324.525 333.026 323.941 337.953 328.443 337.362C328.447 337.362 328.452 337.361 328.457 337.36L328.243 338.985L330.233 338.225L330.499 336.697C332.745 335.555 334.882 333.56 335.543 330.67C336.202 327.789 334.114 326.61 332.027 327.411C330.457 328.013 328.408 328.324 328.6 326.8C328.793 325.275 330.105 323.357 331.669 322.945C334.027 322.325 333.799 324.268 333.799 324.268L336.323 323.665C336.323 323.665 336.16 320.657 334.379 320.209C333.867 320.08 333.247 320.164 332.592 320.383Z" fill="#BAF155"/>
<path d="M352.454 318.983C353.749 319.199 354.577 320.702 354.304 322.339C354.032 323.978 352.761 325.132 351.466 324.916C350.171 324.7 349.342 323.197 349.615 321.559C349.888 319.92 351.159 318.767 352.454 318.983Z" fill="#53B70C"/>
<path d="M314.639 334.53C315.534 334.756 315.985 336.027 315.646 337.37C315.308 338.713 314.308 339.619 313.414 339.393C312.519 339.168 312.068 337.897 312.407 336.553C312.746 335.211 313.745 334.305 314.639 334.53Z" fill="#53B70C"/>
<g clip-path="url(#clip5_1115_29285)">
<g clip-path="url(#clip6_1115_29285)">
<path d="M121 160.66C121 160.66 126.526 152.866 136.428 148.184C144.462 144.387 168.655 135.941 174.929 132.678C186.397 126.713 193.909 118.714 193.909 118.714L225.293 137.541C225.293 137.541 218.9 145.2 210.296 151.34C201.584 157.558 178.391 160.716 166.931 169.733C159.511 175.57 151.007 190.89 151.007 190.89L121 160.66Z" fill="#BAF155"/>
<path d="M149.806 186.759L124.83 160.612L125.19 160.022C125.346 159.767 129.15 153.707 141.654 148.016C145.566 146.234 151.238 143.985 157.244 141.603C165.164 138.462 173.354 135.214 177.818 132.9C184.165 129.612 193.597 121.46 193.691 121.378L194.205 120.932L222.793 137.808L222.117 138.623C222.053 138.7 220.526 140.53 217.567 143.14C214.848 145.536 210.351 149.07 204.367 152.292C199.036 155.162 193.374 156.805 187.38 158.545C178.997 160.978 170.327 163.494 162.7 169.669C156.969 174.309 150.498 185.554 150.433 185.667L149.806 186.759ZM127.192 160.407L149.436 183.693C151.239 180.691 156.525 172.291 161.506 168.259C169.429 161.847 178.284 159.276 186.847 156.791C192.742 155.08 198.31 153.464 203.464 150.689C212.426 145.865 218.058 140.297 219.952 138.265L194.413 123.189C192.314 124.973 184.44 131.537 178.693 134.515C174.145 136.871 165.91 140.138 157.946 143.296C151.963 145.67 146.312 147.911 142.442 149.672C136.211 152.508 132.286 155.428 130.092 157.379C128.585 158.718 127.666 159.795 127.192 160.407Z" fill="#53B70C"/>
<path d="M162.733 140.39C158.774 142.289 156.193 147.066 161.708 153.424C167.224 159.783 177.759 161.084 182.369 159.52C186.98 157.956 188.312 149.849 183.817 145.461C179.323 141.074 171.715 136.083 162.733 140.39Z" fill="#53B70C"/>
<path d="M150.832 160.373C151.794 161.56 151.877 163.062 151.017 163.73C150.156 164.397 148.679 163.976 147.718 162.788C146.756 161.601 146.673 160.099 147.533 159.432C148.393 158.765 149.87 159.187 150.832 160.373Z" fill="#53B70C"/>
<path d="M200.437 135.033C201.571 136.065 201.883 137.539 201.135 138.325C200.387 139.111 198.862 138.911 197.728 137.879C196.595 136.847 196.282 135.373 197.031 134.587C197.778 133.801 199.303 134.001 200.437 135.033Z" fill="#53B70C"/>
<path d="M178.316 156.115L180.579 155.075L179.47 153.963C182.612 152.326 182.715 150.008 180.93 148.076C178.532 145.483 174.518 146.421 172.947 147.072C171.376 147.723 169.953 148.135 168.897 147.508C168.026 146.991 168.587 145.47 169.929 144.69C171.906 143.541 172.599 144.427 172.599 144.427L175.145 143.437C175.145 143.437 172.579 141.055 169.277 142.613L168.212 141.803L166.594 142.602L167.536 143.478C165.585 144.73 165.338 147.391 166.23 148.595C168.29 151.376 171.914 150.285 173.315 149.506C174.99 148.575 176.543 148.349 177.222 148.9C179.366 150.641 178.249 151.672 176.414 152.564C173.94 153.764 172.876 152.253 172.876 152.253L169.304 154.017C169.304 154.017 170.508 157.323 177.361 154.964L178.316 156.115Z" fill="#BAF155"/>
</g>
</g>
<g clip-path="url(#clip7_1115_29285)">
<g clip-path="url(#clip8_1115_29285)">
<path d="M-7.54376 255.114C-7.54376 255.114 -0.51222 256.34 5.82454 261.517C10.9655 265.718 24.4291 279.327 28.6446 282.512C36.35 288.334 44.1575 290.834 44.1575 290.834L41.531 318.049C41.531 318.049 34.3117 316.195 27.4083 312.362C20.4166 308.481 10.841 293.849 1.0794 289.012C-5.24037 285.88 -18.3049 285.061 -18.3049 285.061L-7.54376 255.114Z" fill="#BAF155"/>
<path d="M-15.9033 282.925L-6.28179 257.682L-5.76806 257.736C-5.54603 257.759 -0.236962 258.38 7.61622 264.988C10.0738 267.056 13.412 270.16 16.9465 273.447C21.6084 277.782 26.4283 282.264 29.422 284.533C33.6779 287.759 42.2048 291.505 42.2903 291.542L42.7563 291.746L40.5487 316.448L39.7814 316.254C39.7094 316.236 37.9841 315.793 35.2738 314.634C32.7844 313.57 28.9568 311.671 24.8627 308.668C21.2152 305.992 18.2888 302.7 15.1914 299.215C10.859 294.341 6.37862 289.3 -0.235664 286.137C-5.20513 283.76 -14.8685 283.004 -14.9657 282.997L-15.9033 282.925ZM-5.38533 259.21L-13.9538 281.691C-11.3497 281.943 -3.98679 282.813 0.332182 284.879C7.20125 288.165 11.778 293.314 16.2038 298.293C19.2503 301.721 22.1273 304.958 25.6542 307.544C31.7854 312.041 37.3491 314.054 39.3279 314.679L41.3004 292.61C39.423 291.767 32.4674 288.562 28.6137 285.641C25.5641 283.33 20.717 278.823 16.0296 274.464C12.508 271.19 9.18242 268.097 6.75172 266.051C2.83822 262.758 -0.391809 261.048 -2.41177 260.194C-3.79908 259.607 -4.82055 259.333 -5.38533 259.21Z" fill="#53B70C"/>
<path d="M19.5271 276.76C16.9754 274.699 12.9241 274.491 10.4047 280.253C7.88568 286.015 10.3902 293.54 12.9252 296.148C15.4601 298.756 21.3565 297.052 22.8745 292.612C24.391 288.172 25.3158 281.437 19.5271 276.76Z" fill="#53B70C"/>
<path d="M2.22602 275.147C1.73387 276.177 0.747092 276.715 0.0207391 276.349C-0.705251 275.982 -0.895414 274.851 -0.403264 273.821C0.0888863 272.791 1.07567 272.253 1.80202 272.619C2.52767 272.985 2.71712 274.117 2.22602 275.147Z" fill="#53B70C"/>
<path d="M35.244 300.477C34.9117 301.573 34.0178 302.256 33.2473 302.004C32.4767 301.752 32.1224 300.658 32.4546 299.563C32.7868 298.467 33.6807 297.783 34.4513 298.035C35.2215 298.287 35.5758 299.38 35.244 300.477Z" fill="#53B70C"/>
<path d="M13.9211 292.321L15.3484 293.513L15.7431 292.408C17.8556 294.002 19.4529 293.328 20.1828 291.503C21.1628 289.053 19.2414 286.647 18.298 285.796C17.3545 284.945 16.6197 284.118 16.7034 283.204C16.7727 282.45 17.979 282.34 18.9358 282.995C20.3458 283.96 19.9708 284.712 19.9708 284.712L21.4558 286.112C21.4558 286.112 22.2387 283.616 20.128 281.889L20.3321 280.911L19.2737 280.075L18.9856 280.992C17.5144 280.077 15.6401 280.765 15.1142 281.753C13.899 284.036 15.799 286.131 16.774 286.825C17.9397 287.656 18.5905 288.632 18.4368 289.267C17.9509 291.272 16.8964 290.85 15.7061 289.898C14.1018 288.614 14.78 287.411 14.78 287.411L12.4429 285.568C12.4429 285.568 10.5997 287.441 14.3905 291.307L13.9211 292.321Z" fill="#BAF155"/>
</g>
</g>
<path d="M87.1234 147.162L60.8266 143.736L66.4291 139.457L38.5295 130.05L75.908 137.27L69.0592 140.838L87.1234 147.162Z" fill="white"/>
</g>
<defs>
<filter id="filter0_f_1115_29285" x="-218" y="111" width="501" height="501" filterUnits="userSpaceOnUse" color-interpolation-filters="sRGB">
<feFlood flood-opacity="0" result="BackgroundImageFix"/>
<feBlend mode="normal" in="SourceGraphic" in2="BackgroundImageFix" result="shape"/>
<feGaussianBlur stdDeviation="50" result="effect1_foregroundBlur_1115_29285"/>
</filter>
<filter id="filter1_f_1115_29285" x="38" y="-317" width="501" height="501" filterUnits="userSpaceOnUse" color-interpolation-filters="sRGB">
<feFlood flood-opacity="0" result="BackgroundImageFix"/>
<feBlend mode="normal" in="SourceGraphic" in2="BackgroundImageFix" result="shape"/>
<feGaussianBlur stdDeviation="50" result="effect1_foregroundBlur_1115_29285"/>
</filter>
<filter id="filter2_f_1115_29285" x="95" y="528" width="501" height="501" filterUnits="userSpaceOnUse" color-interpolation-filters="sRGB">
<feFlood flood-opacity="0" result="BackgroundImageFix"/>
<feBlend mode="normal" in="SourceGraphic" in2="BackgroundImageFix" result="shape"/>
<feGaussianBlur stdDeviation="50" result="effect1_foregroundBlur_1115_29285"/>
</filter>
<clipPath id="clip0_1115_29285">
<rect width="430" height="932" fill="white"/>
</clipPath>
<clipPath id="clip1_1115_29285">
<rect width="166.828" height="142.073" fill="white" transform="translate(228.032 40) rotate(10.9687)"/>
</clipPath>
<clipPath id="clip2_1115_29285">
<rect width="67.9347" height="88.1314" fill="white" transform="translate(105.272 251) rotate(18.0263)"/>
</clipPath>
<clipPath id="clip3_1115_29285">
<rect width="39" height="37" fill="white" transform="translate(42 72)"/>
</clipPath>
<clipPath id="clip4_1115_29285">
<rect width="12" height="13" fill="white" transform="translate(74.196 259) rotate(51.6575)"/>
</clipPath>
<clipPath id="clip5_1115_29285">
<rect width="101.728" height="78.8912" fill="white" transform="translate(121 112)"/>
</clipPath>
<clipPath id="clip6_1115_29285">
<rect width="104.293" height="72.177" fill="white" transform="translate(121 118.714)"/>
</clipPath>
<clipPath id="clip7_1115_29285">
<rect width="76" height="58.9388" fill="white" transform="translate(25.2827 239.494) rotate(64.5531)"/>
</clipPath>
<clipPath id="clip8_1115_29285">
<rect width="77.916" height="53.9227" fill="white" transform="translate(20.7532 241.649) rotate(64.5531)"/>
</clipPath>
</defs>
</svg>
