<svg width="430" height="932" viewBox="0 0 430 932" fill="none" xmlns="http://www.w3.org/2000/svg">
<g clip-path="url(#clip0_1_232)">
<rect width="430" height="932" fill="#2F0861"/>
<circle cx="200" cy="-121" r="315" fill="#6A2DB8"/>
<g clip-path="url(#clip1_1_232)">
<path d="M348.029 117.023L354.36 113.434C354.36 113.434 351.988 121.29 358.091 125.432C364.187 129.574 369.265 134.133 367.514 138.406L361.013 141.708C361.013 141.708 360.96 141.697 360.978 141.667C361.206 141.238 362.061 139.108 359.385 135.055C356.363 130.49 349.915 133.174 348.029 117.023Z" fill="#FFCC00"/>
<path d="M348 117.005C350.032 115.761 352.135 114.5 354.261 113.25L354.682 113L354.565 113.5C353.991 115.922 353.991 118.57 354.864 120.897C355.274 122.07 355.953 123.135 356.82 124.01C357.218 124.486 357.739 124.831 358.208 125.236C358.723 125.611 359.245 125.974 359.748 126.354C360.773 127.104 361.757 127.914 362.729 128.735C363.701 129.556 364.621 130.443 365.47 131.401C366.313 132.353 367.086 133.407 367.567 134.615C368.064 135.805 368.17 137.221 367.678 138.471L367.654 138.53L367.59 138.56L363.537 140.697L361.505 141.756L361.253 141.887L361.101 141.964C360.996 142.012 360.837 141.982 360.75 141.875C360.656 141.774 360.662 141.607 360.714 141.524L360.744 141.464C360.814 141.316 360.861 141.149 360.902 140.976C360.978 140.631 360.996 140.268 360.972 139.905C360.878 138.441 360.217 137.031 359.432 135.757L359.127 135.281C359.022 135.126 358.905 134.99 358.794 134.847C358.676 134.71 358.583 134.549 358.448 134.424L358.056 134.043C357.804 133.781 357.482 133.585 357.195 133.353C356.878 133.151 356.574 132.942 356.246 132.746C354.952 131.972 353.564 131.181 352.48 130.026C351.373 128.89 350.577 127.509 349.939 126.087C348.785 123.2 348.287 120.094 348 117.005ZM348.053 117.035L348.451 119.308C348.562 120.052 348.791 120.802 348.943 121.552C349.288 123.052 349.798 124.498 350.384 125.902C351.04 127.271 351.836 128.568 352.902 129.61C353.962 130.663 355.25 131.425 356.58 132.198C356.908 132.395 357.236 132.609 357.564 132.823C357.874 133.073 358.214 133.276 358.495 133.561L358.928 133.978C359.075 134.115 359.186 134.287 359.315 134.442C359.438 134.603 359.572 134.757 359.678 134.924L359.988 135.424C360.785 136.763 361.476 138.245 361.564 139.893C361.581 140.298 361.564 140.715 361.464 141.125C361.411 141.328 361.353 141.53 361.253 141.732L361.218 141.804C361.253 141.744 361.259 141.607 361.189 141.518C361.119 141.429 360.984 141.405 360.902 141.441C360.902 141.441 360.972 141.405 361.007 141.387L361.265 141.262L363.315 140.25L367.426 138.245L367.338 138.34C367.83 137.203 367.777 135.882 367.338 134.71C366.893 133.532 366.143 132.49 365.318 131.538C363.631 129.645 361.605 128.098 359.526 126.67C359.01 126.307 358.477 125.968 357.95 125.616C357.441 125.218 356.878 124.873 356.445 124.385C355.52 123.468 354.776 122.337 354.331 121.1C353.886 119.862 353.681 118.546 353.657 117.243C353.646 115.934 353.786 114.643 354.149 113.375L354.454 113.625C352.369 114.767 350.249 115.892 348.053 117.035Z" fill="#FFCC00"/>
</g>
<g clip-path="url(#clip2_1_232)">
<path d="M127.018 94.3583L130.816 92.2547C130.816 92.2547 129.393 96.8596 133.054 99.2877C136.712 101.716 139.759 104.388 138.708 106.893L134.808 108.829C134.808 108.829 134.776 108.822 134.787 108.805C134.924 108.553 135.437 107.305 133.831 104.929C132.018 102.253 128.149 103.826 127.018 94.3583Z" fill="white"/>
<path d="M127 94.3478C128.219 93.6187 129.481 92.8791 130.756 92.1465L131.009 92L130.939 92.293C130.595 93.7129 130.595 95.2653 131.118 96.6294C131.364 97.3166 131.772 97.9411 132.292 98.4539C132.531 98.733 132.844 98.9354 133.125 99.1726C133.434 99.3924 133.747 99.6052 134.049 99.8284C134.664 100.268 135.254 100.742 135.837 101.224C136.421 101.705 136.972 102.225 137.482 102.787C137.988 103.345 138.452 103.962 138.74 104.671C139.039 105.368 139.102 106.199 138.807 106.931L138.793 106.966L138.754 106.984L136.322 108.236L135.103 108.857L134.952 108.934L134.861 108.979C134.797 109.007 134.702 108.99 134.65 108.927C134.594 108.867 134.597 108.77 134.629 108.721L134.646 108.686C134.688 108.599 134.717 108.501 134.741 108.4C134.787 108.198 134.797 107.985 134.783 107.772C134.727 106.914 134.33 106.087 133.859 105.34L133.676 105.061C133.613 104.971 133.543 104.89 133.476 104.807C133.406 104.726 133.35 104.632 133.269 104.559L133.033 104.336C132.882 104.182 132.689 104.067 132.517 103.931C132.327 103.812 132.144 103.69 131.948 103.575C131.171 103.122 130.338 102.658 129.688 101.981C129.024 101.315 128.546 100.505 128.163 99.6715C127.471 97.9795 127.172 96.1584 127 94.3478ZM127.032 94.3653L127.271 95.6979C127.337 96.134 127.474 96.5736 127.566 97.0131C127.773 97.8923 128.079 98.74 128.43 99.5633C128.824 100.366 129.302 101.126 129.941 101.737C130.577 102.354 131.35 102.801 132.148 103.254C132.345 103.369 132.541 103.495 132.738 103.621C132.924 103.767 133.128 103.886 133.297 104.053L133.557 104.297C133.645 104.378 133.712 104.479 133.789 104.569C133.863 104.664 133.943 104.754 134.007 104.852L134.193 105.145C134.671 105.93 135.086 106.799 135.138 107.765C135.149 108.002 135.138 108.246 135.078 108.487C135.047 108.606 135.012 108.724 134.952 108.843L134.931 108.885C134.952 108.85 134.955 108.77 134.913 108.717C134.871 108.665 134.79 108.651 134.741 108.672C134.741 108.672 134.783 108.651 134.804 108.641L134.959 108.567L136.189 107.974L138.656 106.799L138.603 106.855C138.898 106.188 138.866 105.414 138.603 104.726C138.336 104.036 137.886 103.425 137.391 102.867C136.379 101.758 135.163 100.851 133.915 100.013C133.606 99.8005 133.286 99.6017 132.97 99.3959C132.664 99.1621 132.327 98.9598 132.067 98.6737C131.512 98.1365 131.066 97.4736 130.799 96.748C130.531 96.0224 130.408 95.2514 130.394 94.4874C130.387 93.7199 130.472 92.9629 130.69 92.2198L130.872 92.3663C129.621 93.0361 128.349 93.6955 127.032 94.3653Z" fill="white"/>
</g>
<g clip-path="url(#clip3_1_232)">
<path d="M167.812 86.5336L164.146 84.2079C164.146 84.2079 168.869 83.25 169.246 78.8728C169.624 74.4986 170.509 70.544 173.211 70.2658L176.78 72.7612C176.78 72.7612 176.789 72.7923 176.768 72.7914C176.482 72.7915 175.14 72.9398 173.825 75.4878C172.345 78.3615 175.58 81.0031 167.812 86.5336Z" fill="#FFCC00"/>
<path d="M167.812 86.5541C166.587 85.8333 165.334 85.0806 164.079 84.3121L163.83 84.1603L164.12 84.0815C165.532 83.7033 166.894 82.9593 167.84 81.8461C168.326 81.3009 168.679 80.6438 168.879 79.9416C169.01 79.5982 169.038 79.2267 169.111 78.8663C169.156 78.4896 169.193 78.1131 169.244 77.7409C169.335 76.9905 169.468 76.245 169.611 75.5023C169.754 74.7596 169.946 74.0263 170.195 73.3099C170.442 72.5983 170.762 71.8953 171.246 71.303C171.715 70.7065 172.413 70.2531 173.198 70.161L173.235 70.1567L173.269 70.1822L175.533 71.7162L176.663 72.4888L176.803 72.5847L176.886 72.6431C176.941 72.6852 176.971 72.7769 176.941 72.8532C176.916 72.931 176.829 72.9747 176.771 72.9704L176.732 72.9717C176.635 72.9765 176.536 72.9986 176.435 73.0255C176.236 73.0824 176.044 73.1751 175.864 73.2894C175.137 73.75 174.602 74.4948 174.173 75.2658L174.015 75.56C173.966 75.6589 173.929 75.7591 173.888 75.8578C173.851 75.9579 173.795 76.0524 173.77 76.1585L173.686 76.4721C173.624 76.6783 173.616 76.9031 173.579 77.1194C173.566 77.3428 173.546 77.5617 173.539 77.7896C173.513 78.6885 173.505 79.6418 173.223 80.5367C172.956 81.4389 172.475 82.2462 171.927 82.982C170.773 84.4004 169.318 85.5353 167.812 86.5541ZM167.812 86.518L168.867 85.6696C169.218 85.402 169.538 85.0711 169.88 84.7802C170.552 84.177 171.15 83.5024 171.704 82.7994C172.219 82.0695 172.658 81.2855 172.887 80.4317C173.124 79.5775 173.146 78.685 173.162 77.7676C173.168 77.5397 173.184 77.3068 173.2 77.0739C173.24 76.8402 173.246 76.6045 173.312 76.3762L173.402 76.031C173.43 75.9154 173.487 75.8083 173.53 75.697C173.577 75.5871 173.618 75.4727 173.673 75.3704L173.841 75.0665C174.301 74.2709 174.865 73.4906 175.688 72.9813C175.891 72.8583 176.11 72.7506 176.35 72.6876C176.469 72.6585 176.59 72.6325 176.723 72.6281L176.77 72.6266C176.729 72.6248 176.657 72.6601 176.631 72.7222C176.606 72.7843 176.632 72.8619 176.674 72.8951C176.674 72.8951 176.635 72.8681 176.616 72.8546L176.478 72.754L175.368 71.9588L173.154 70.3572L173.228 70.3767C172.502 70.437 171.837 70.8359 171.36 71.3965C170.882 71.962 170.562 72.6493 170.309 73.3517C169.821 74.7716 169.607 76.2733 169.47 77.7694C169.431 78.1428 169.41 78.5188 169.381 78.895C169.322 79.2753 169.307 79.6684 169.18 80.0337C168.975 80.7784 168.607 81.4878 168.098 82.0699C167.589 82.6521 166.971 83.1295 166.307 83.508C165.637 83.8819 164.932 84.1707 164.176 84.3356L164.217 84.105C165.404 84.882 166.592 85.6824 167.812 86.518Z" fill="#FFCC00"/>
</g>
<g clip-path="url(#clip4_1_232)">
<path d="M378.581 112.996L375.018 115.478C375.018 115.478 375.961 110.751 372.07 108.711C368.182 106.671 364.878 104.325 365.666 101.726L369.348 99.4002C369.348 99.4002 369.38 99.4039 369.371 99.4223C369.26 99.6862 368.878 100.981 370.719 103.18C372.797 105.656 376.484 103.694 378.581 112.996Z" fill="white"/>
<path d="M378.599 113.005C377.461 113.855 376.282 114.72 375.088 115.579L374.852 115.751L374.891 115.452C375.088 114.005 374.929 112.46 374.269 111.157C373.953 110.499 373.484 109.919 372.914 109.463C372.648 109.21 372.316 109.04 372.012 108.833C371.682 108.646 371.349 108.467 371.025 108.276C370.369 107.901 369.733 107.49 369.103 107.071C368.474 106.652 367.872 106.191 367.307 105.685C366.747 105.181 366.222 104.615 365.863 103.94C365.494 103.276 365.346 102.457 365.564 101.698L365.575 101.662L365.611 101.641L367.902 100.145L369.051 99.4027L369.194 99.3109L369.28 99.2564C369.34 99.2221 369.436 99.2298 369.495 99.2868C369.557 99.3401 369.563 99.4376 369.537 99.4894L369.523 99.5259C369.49 99.617 369.472 99.717 369.458 99.8202C369.433 100.026 369.445 100.239 369.48 100.449C369.624 101.297 370.104 102.079 370.649 102.773L370.859 103.032C370.932 103.116 371.01 103.188 371.085 103.265C371.163 103.337 371.228 103.425 371.316 103.49L371.573 103.688C371.74 103.825 371.944 103.92 372.129 104.038C372.33 104.136 372.524 104.239 372.732 104.333C373.551 104.705 374.426 105.081 375.143 105.687C375.871 106.282 376.43 107.038 376.896 107.828C377.758 109.44 378.242 111.221 378.599 113.005ZM378.566 112.99L378.192 111.689C378.08 111.262 377.899 110.839 377.763 110.411C377.467 109.558 377.076 108.746 376.642 107.963C376.168 107.205 375.615 106.498 374.916 105.956C374.22 105.407 373.405 105.042 372.565 104.673C372.358 104.579 372.149 104.474 371.94 104.369C371.74 104.242 371.525 104.145 371.34 103.996L371.057 103.78C370.961 103.709 370.884 103.615 370.798 103.533C370.715 103.447 370.625 103.365 370.552 103.274L370.337 103.002C369.781 102.27 369.28 101.448 369.128 100.492C369.093 100.258 369.079 100.014 369.114 99.768C369.133 99.6468 369.156 99.5252 369.203 99.4011L369.22 99.3573C369.202 99.3942 369.207 99.4743 369.254 99.5221C369.301 99.5698 369.383 99.5754 369.43 99.5495C369.43 99.5495 369.39 99.5747 369.37 99.5872L369.224 99.676L368.062 100.392L365.728 101.814L365.775 101.753C365.55 102.447 365.661 103.214 365.993 103.87C366.33 104.53 366.84 105.091 367.39 105.596C368.51 106.595 369.813 107.373 371.139 108.078C371.469 108.258 371.807 108.423 372.143 108.595C372.471 108.796 372.827 108.963 373.115 109.221C373.723 109.699 374.234 110.312 374.575 111.007C374.915 111.701 375.116 112.455 375.208 113.214C375.294 113.977 375.288 114.738 375.147 115.5L374.95 115.373C376.126 114.578 377.324 113.792 378.566 112.99Z" fill="white"/>
</g>
<g clip-path="url(#clip5_1_232)">
<path d="M40.7847 94.6326L37.6953 88.0438C37.6953 88.0438 45.3444 91.0147 49.9449 85.2499C54.545 79.491 59.4817 74.7803 63.6068 76.8559L66.3983 83.592C66.3983 83.592 66.3824 83.6437 66.3541 83.6239C65.9445 83.3631 63.8863 82.3462 59.6391 84.702C54.8551 87.3627 57.0335 93.9986 40.7847 94.6326Z" fill="#FFCC00"/>
<path d="M40.7647 94.6605C39.6814 92.5383 38.5857 90.3448 37.5037 88.1288L37.2871 87.6891L37.7764 87.8444C40.147 88.6035 42.7874 88.8079 45.1747 88.1174C46.3752 87.7991 47.4897 87.2039 48.4288 86.4073C48.9342 86.0469 49.3186 85.5539 49.7582 85.118C50.1717 84.6331 50.5739 84.1414 50.9925 83.6686C51.8192 82.7047 52.702 81.7861 53.5959 80.8802C54.4897 79.9743 55.4447 79.126 56.4655 78.3532C57.4799 77.5859 58.5898 76.8964 59.8313 76.5108C61.0564 76.1063 62.4767 76.1105 63.6848 76.6974L63.7423 76.7253L63.767 76.7919L65.5844 80.9973L66.4837 83.1052L66.5949 83.3664L66.6602 83.5242C66.6996 83.633 66.6577 83.7883 66.5441 83.8676C66.436 83.9533 66.2703 83.9346 66.1913 83.8756L66.1343 83.8418C65.9914 83.7603 65.8288 83.7007 65.6599 83.6465C65.3217 83.544 64.9611 83.4984 64.5973 83.4938C63.1305 83.4743 61.6732 84.0252 60.3429 84.7094L59.8447 84.9763C59.6823 85.0695 59.5368 85.1757 59.3858 85.2756C59.2403 85.3818 59.0729 85.4629 58.9379 85.5875L58.5279 85.9494C58.2474 86.1802 58.0267 86.4862 57.7732 86.7544C57.5471 87.0541 57.3159 87.3417 57.0948 87.6535C56.2236 88.8843 55.3273 90.2071 54.0927 91.1982C52.874 92.2141 51.436 92.9017 49.9686 93.4284C47.0019 94.356 43.8663 94.6126 40.7647 94.6605ZM40.7984 94.6102L43.0957 94.3885C43.846 94.335 44.6112 94.1651 45.3706 94.0712C46.8924 93.8424 48.3736 93.4459 49.819 92.9704C51.2343 92.422 52.5893 91.728 53.7099 90.7457C54.8419 89.7701 55.7007 88.5442 56.5747 87.2785C56.7958 86.9666 57.0347 86.6562 57.2736 86.3457C57.5467 86.0555 57.7747 85.7325 58.0812 85.4742L58.53 85.0743C58.6777 84.9389 58.8584 84.8412 59.0226 84.7247C59.1923 84.6145 59.3569 84.4921 59.5312 84.3999L60.0536 84.129C61.45 83.4382 62.9808 82.8635 64.6311 82.9031C65.0359 82.9168 65.4499 82.9665 65.8516 83.0974C66.0493 83.1656 66.2465 83.2396 66.4406 83.3545L66.5091 83.395C66.4525 83.3554 66.3164 83.339 66.222 83.4022C66.1276 83.4653 66.0935 83.5978 66.1227 83.6823C66.1227 83.6823 66.0926 83.6095 66.0775 83.5731L65.9728 83.3065L65.1222 81.1848L63.4399 76.931L63.528 77.026C62.4327 76.4478 61.1114 76.3984 59.9086 76.7459C58.6995 77.0987 57.6033 77.7658 56.5902 78.5156C54.5733 80.0513 52.8742 81.9522 51.2898 83.9149C50.8881 84.4007 50.5088 84.9059 50.118 85.4043C49.6812 85.8815 49.2937 86.4154 48.7737 86.8099C47.7886 87.6617 46.6038 88.3161 45.3353 88.6643C44.0668 89.0126 42.7397 89.1155 41.4385 89.0383C40.1322 88.949 38.8555 88.7092 37.6197 88.2494L37.8924 87.965C38.8708 90.1319 39.8286 92.3324 40.7984 94.6102Z" fill="#FFCC00"/>
</g>
<g clip-path="url(#clip6_1_232)">
<path d="M108.329 85.5012L113.753 90.206C113.753 90.206 113.52 82.3594 120.839 79.7965C128.159 77.2335 134.559 74.0611 133.961 69.6949L128.286 65.2243C128.286 65.2243 128.234 65.224 128.239 65.2565C128.351 65.7079 128.627 67.8802 124.802 71.0929C120.489 74.7078 114.698 70.8213 108.329 85.5012Z" fill="#9E57D4" stroke="#9E57D4" stroke-width="0.85" stroke-miterlimit="10"/>
</g>
<g clip-path="url(#clip7_1_232)">
<path d="M259.512 86.3619L254.752 91.7377C254.752 91.7377 262.601 91.5845 265.089 98.9296C267.578 106.275 270.685 112.707 275.057 112.153L279.585 106.524C279.585 106.524 279.586 106.472 279.553 106.477C279.101 106.584 276.926 106.838 273.752 102.981C270.181 98.6306 274.126 92.8801 259.512 86.3619Z" fill="#9E57D4" stroke="#9E57D4" stroke-width="0.85" stroke-miterlimit="10"/>
</g>
<path d="M51.2449 113.011C51.0406 112.124 52.1604 107.38 52.003 107.291C51.8255 107.194 48.7745 110.862 47.9657 111.188C46.9349 111.598 42.9294 110.151 43.0856 110.685C43.2456 111.225 46.4824 113.777 46.3486 114.419C46.1127 115.524 45.2821 119.74 45.5986 120.14C46.1081 120.219 48.9158 117.072 49.6441 116.244C50.0698 115.762 53.8957 117.136 54.4064 116.962C54.9164 116.796 51.5161 114.128 51.2538 113.004L51.2449 113.011Z" fill="white"/>
<path d="M250.959 106.84C250.281 106.745 247.252 104.687 247.146 104.773C247.031 104.872 248.788 107.998 248.8 108.653C248.811 109.486 246.721 111.91 247.138 111.944C247.559 111.976 250.219 110.389 250.634 110.655C251.346 111.117 254.083 112.831 254.449 112.716C254.642 112.379 253.185 109.564 252.799 108.831C252.575 108.402 254.566 106.085 254.581 105.68C254.601 105.277 251.816 106.949 250.956 106.832L250.959 106.84Z" fill="white"/>
<path d="M284.444 88.0492C284.32 87.3765 285.319 83.8527 285.204 83.78C285.074 83.7014 282.661 86.3539 282.043 86.5716C281.255 86.8448 278.296 85.6249 278.396 86.0315C278.498 86.4418 280.843 88.466 280.721 88.9433C280.507 89.765 279.743 92.9026 279.967 93.2136C280.347 93.2901 282.56 91.0211 283.134 90.4233C283.47 90.0754 286.297 91.2352 286.686 91.1213C287.074 91.0136 284.61 88.8971 284.451 88.0442L284.444 88.0492Z" fill="white"/>
<g clip-path="url(#clip8_1_232)">
<path d="M24.9711 137.452L32.3246 139.371C32.3246 139.371 24.9041 143.516 26.5476 151.03C28.186 158.54 28.7534 165.625 24.3642 167.545L17.0966 165.29C17.0966 165.29 17.0654 165.24 17.1008 165.235C17.5798 165.078 19.754 164.113 20.6339 159.144C21.6153 153.545 14.8278 150.875 24.9711 137.452Z" fill="#2987E6"/>
<path d="M24.9605 137.422C27.3865 137.968 29.884 138.542 32.3871 139.152L32.8958 139.274L32.4341 139.567C30.2666 140.957 28.3717 142.931 27.3597 145.297C26.8257 146.468 26.5773 147.755 26.6025 149.037C26.562 149.687 26.7088 150.318 26.7746 150.96C26.8913 151.611 27.0282 152.263 27.1347 152.914C27.368 154.217 27.5357 155.537 27.678 156.852C27.8254 158.172 27.8818 159.504 27.8367 160.828C27.7916 162.151 27.6253 163.498 27.1179 164.755C26.6358 166.006 25.706 167.144 24.4378 167.716L24.3723 167.743L24.3011 167.724L19.7136 166.38L17.4174 165.71L17.1322 165.624L16.9641 165.572C16.852 165.534 16.7433 165.389 16.7614 165.246C16.7641 165.099 16.894 164.975 16.9898 164.948L17.0503 164.926C17.2065 164.868 17.3672 164.773 17.5178 164.679C17.8187 164.481 18.0933 164.217 18.3372 163.933C19.3174 162.774 19.8205 161.243 20.1413 159.727C20.2264 159.34 20.2965 158.958 20.316 158.588C20.376 158.217 20.3549 157.837 20.3337 157.457C20.3328 157.077 20.2306 156.699 20.179 156.32C20.0869 155.941 20.0049 155.563 19.8976 155.18C19.4734 153.663 18.9922 152.07 18.9967 150.418C18.9759 148.771 19.3611 147.157 19.8997 145.631C21.1192 142.606 22.9676 139.93 24.9605 137.422ZM24.9817 137.483L23.6597 139.47C23.2136 140.107 22.85 140.834 22.4246 141.501C21.6099 142.87 20.9586 144.318 20.3989 145.793C19.9105 147.288 19.585 148.83 19.6449 150.385C19.6947 151.94 20.1185 153.437 20.5685 154.979C20.6759 155.362 20.7734 155.766 20.8708 156.159C20.9229 156.569 21.0355 156.967 21.0472 157.387C21.074 157.802 21.0958 158.223 21.0314 158.64C21.0093 158.848 20.9924 159.061 20.9652 159.264L20.8377 159.86C20.4773 161.438 19.94 163.045 18.825 164.334C18.5462 164.654 18.2315 164.949 17.8653 165.184C17.6796 165.304 17.4887 165.41 17.272 165.49L17.1964 165.517C17.2722 165.5 17.3771 165.402 17.3801 165.275C17.3935 165.158 17.3054 165.033 17.2137 165.004C17.2137 165.004 17.2953 165.033 17.3308 165.038L17.611 165.128L19.8779 165.87L24.4219 167.352L24.2852 167.359C25.4684 166.865 26.3748 165.844 26.8781 164.653C27.3813 163.452 27.5633 162.131 27.6238 160.822C27.7092 158.189 27.2827 155.562 26.7305 152.993C26.5987 152.347 26.4417 151.706 26.2948 151.066C26.1981 150.393 26.0155 149.738 26.0402 149.053C25.9986 147.696 26.2456 146.317 26.7936 145.07C27.3416 143.823 28.1247 142.692 29.0468 141.706C29.9689 140.72 31.0095 139.858 32.1949 139.176L32.2471 139.596C29.8495 138.928 27.4362 138.225 24.9616 137.493L24.9817 137.483Z" fill="#2987E6"/>
</g>
<g clip-path="url(#clip9_1_232)">
<path d="M229.991 66.7323L224.932 68.0523C224.932 68.0523 230.037 70.9035 228.907 76.0734C227.779 81.2399 227.389 86.1139 230.409 87.4354L235.409 85.884C235.409 85.884 235.43 85.8496 235.406 85.8456C235.076 85.738 233.58 85.0741 232.975 81.6555C232.3 77.8032 236.97 75.9664 229.991 66.7323Z" fill="#2987E6"/>
<path d="M229.999 66.7115C228.329 67.0867 226.611 67.482 224.889 67.9015L224.539 67.9853L224.857 68.1868C226.348 69.1436 227.652 70.5011 228.348 72.1292C228.715 72.9349 228.886 73.8204 228.869 74.7023C228.897 75.1492 228.796 75.5831 228.75 76.025C228.67 76.4732 228.576 76.9212 228.503 77.3696C228.342 78.2661 228.227 79.1739 228.129 80.0786C228.028 80.9867 227.989 81.903 228.02 82.8137C228.051 83.7244 228.165 84.6507 228.514 85.5153C228.846 86.3761 229.486 87.1592 230.358 87.5529L230.403 87.5712L230.452 87.5582L233.608 86.6333L235.188 86.1726L235.384 86.1136L235.5 86.0776C235.577 86.0512 235.652 85.9515 235.639 85.8536C235.637 85.7525 235.548 85.667 235.482 85.6483L235.44 85.6336C235.333 85.5931 235.222 85.5282 235.119 85.4634C234.912 85.3268 234.723 85.1453 234.555 84.9502C233.881 84.1524 233.535 83.0996 233.314 82.0561C233.255 81.79 233.207 81.5275 233.194 81.2727C233.152 81.0174 233.167 80.7561 233.182 80.4949C233.182 80.2334 233.253 79.9732 233.288 79.7124C233.351 79.4521 233.408 79.1917 233.482 78.9282C233.773 77.8843 234.104 76.7889 234.101 75.6521C234.116 74.5192 233.851 73.4086 233.48 72.3588C232.641 70.2781 231.37 68.4365 229.999 66.7115ZM229.984 66.753L230.893 68.1203C231.2 68.5587 231.45 69.0587 231.743 69.5178C232.304 70.4598 232.752 71.4553 233.137 72.4706C233.473 73.4989 233.697 74.5598 233.655 75.6295C233.621 76.6993 233.33 77.7292 233.02 78.7901C232.946 79.0537 232.879 79.3313 232.812 79.602C232.776 79.8837 232.699 80.1577 232.691 80.4469C232.672 80.7325 232.657 81.0216 232.702 81.3084C232.717 81.4517 232.728 81.5983 232.747 81.7382L232.835 82.1479C233.083 83.2337 233.452 84.3393 234.22 85.2261C234.411 85.446 234.628 85.649 234.88 85.8109C235.008 85.8936 235.139 85.9659 235.288 86.0211L235.34 86.0396C235.288 86.0281 235.216 85.9604 235.214 85.8732C235.204 85.7928 235.265 85.7068 235.328 85.6871C235.328 85.6871 235.272 85.707 235.247 85.71L235.055 85.7724L233.495 86.2824L230.369 87.3021L230.463 87.3074C229.649 86.9672 229.026 86.2645 228.679 85.4453C228.333 84.6191 228.208 83.71 228.166 82.8096C228.108 80.9987 228.401 79.1913 228.781 77.4239C228.871 76.9793 228.979 76.5386 229.081 76.0977C229.147 75.6353 229.273 75.1844 229.256 74.7134C229.284 73.7794 229.114 72.8311 228.737 71.9729C228.36 71.1147 227.822 70.3371 227.187 69.6586C226.553 68.9802 225.837 68.3873 225.021 67.9181L224.986 68.2068C226.635 67.7474 228.295 67.2639 229.998 66.7603L229.984 66.753Z" fill="#2987E6"/>
</g>
<path d="M78.9837 104.996C78.7812 104.996 78.5877 104.881 78.5067 104.695C77.8136 103.112 77.8316 101.638 78.5607 100.308C79.6678 98.2971 82.4402 96.7304 86.3693 95.892C89.3488 95.2569 90.861 93.9909 90.861 92.132C90.861 91.5265 90.6989 90.8998 90.4334 90.2858C89.1282 90.1249 87.805 89.6465 86.6709 88.9986C84.6726 87.8511 83.7319 86.4242 84.272 85.3571C84.407 85.0904 84.8481 84.4891 85.9508 84.7262C87.5575 85.0692 89.9203 87.0509 91.1265 89.3501C92.3822 89.4009 93.5884 89.0791 94.3895 88.084C95.6182 86.5639 94.709 85.2597 93.1248 83.2527C91.6171 81.343 89.9068 79.1793 90.9015 76.3339C90.9915 76.0798 91.284 75.9401 91.5541 76.0248C91.8241 76.1094 91.9726 76.3847 91.8826 76.6387C91.0545 79.0015 92.5307 80.8688 93.9529 82.6726C95.4381 84.5484 96.9729 86.4919 95.2131 88.6726C94.295 89.8074 92.9808 90.2986 91.5586 90.3409C91.7701 90.9379 91.8916 91.5392 91.8916 92.132C91.8916 93.7664 90.9735 95.909 86.5943 96.8448C82.9668 97.6196 80.4419 99.0085 79.4788 100.761C78.8937 101.824 78.8892 103.023 79.4608 104.327C79.5688 104.577 79.4428 104.86 79.1818 104.962C79.1188 104.987 79.0512 105 78.9837 105V104.996ZM85.4737 85.6451C85.2667 85.6451 85.2216 85.734 85.2036 85.7763C84.9246 86.3226 85.7887 87.3515 87.2064 88.1645C87.922 88.5752 88.8537 88.9605 89.8258 89.1722C88.6647 87.3854 86.7969 85.9034 85.7212 85.6747C85.6222 85.6535 85.5412 85.6451 85.4782 85.6451H85.4737Z" fill="#FFC854"/>
<path d="M334.016 129.996C334.219 129.996 334.412 129.881 334.493 129.695C335.186 128.112 335.168 126.638 334.439 125.308C333.332 123.297 330.56 121.73 326.631 120.892C323.651 120.257 322.139 118.991 322.139 117.132C322.139 116.526 322.301 115.9 322.567 115.286C323.872 115.125 325.195 114.646 326.329 113.999C328.327 112.851 329.268 111.424 328.728 110.357C328.593 110.09 328.152 109.489 327.049 109.726C325.443 110.069 323.08 112.051 321.873 114.35C320.618 114.401 319.412 114.079 318.611 113.084C317.382 111.564 318.291 110.26 319.875 108.253C321.383 106.343 323.093 104.179 322.099 101.334C322.009 101.08 321.716 100.94 321.446 101.025C321.176 101.109 321.027 101.385 321.117 101.639C321.945 104.001 320.469 105.869 319.047 107.673C317.562 109.548 316.027 111.492 317.787 113.673C318.705 114.807 320.019 115.299 321.441 115.341C321.23 115.938 321.108 116.539 321.108 117.132C321.108 118.766 322.027 120.909 326.406 121.845C330.033 122.62 332.558 124.008 333.521 125.761C334.106 126.824 334.111 128.023 333.539 129.327C333.431 129.577 333.557 129.86 333.818 129.962C333.881 129.987 333.949 130 334.016 130V129.996ZM327.526 110.645C327.733 110.645 327.778 110.734 327.796 110.776C328.075 111.323 327.211 112.351 325.794 113.164C325.078 113.575 324.146 113.961 323.174 114.172C324.335 112.385 326.203 110.903 327.279 110.675C327.378 110.654 327.459 110.645 327.522 110.645H327.526Z" fill="#9E57D4"/>
</g>
<defs>
<clipPath id="clip0_1_232">
<rect width="430" height="932" fill="white"/>
</clipPath>
<clipPath id="clip1_1_232">
<rect width="20" height="29" fill="white" transform="translate(348 113)"/>
</clipPath>
<clipPath id="clip2_1_232">
<rect width="12" height="17" fill="white" transform="translate(127 92)"/>
</clipPath>
<clipPath id="clip3_1_232">
<rect width="12" height="17" fill="white" transform="translate(165.751 87.6793) rotate(-118.636)"/>
</clipPath>
<clipPath id="clip4_1_232">
<rect width="12" height="17" fill="white" transform="translate(378.84 115.34) rotate(174.115)"/>
</clipPath>
<clipPath id="clip5_1_232">
<rect width="20" height="29" fill="white" transform="translate(36.7715 94.3514) rotate(-85.575)"/>
</clipPath>
<clipPath id="clip6_1_232">
<rect width="29" height="21" fill="white" transform="translate(107 88.7689) rotate(-73.2455)"/>
</clipPath>
<clipPath id="clip7_1_232">
<rect width="29" height="21" fill="white" transform="translate(256.258 85) rotate(17.3364)"/>
</clipPath>
<clipPath id="clip8_1_232">
<rect width="30" height="21" fill="white" transform="translate(7.02734 156) rotate(-46.0111)"/>
</clipPath>
<clipPath id="clip9_1_232">
<rect width="20.639" height="14.4473" fill="white" transform="matrix(-0.694519 -0.719474 -0.719474 0.694519 242.336 79.4922)"/>
</clipPath>
</defs>
</svg>
