<svg width="47" height="13" viewBox="0 0 47 13" fill="none" xmlns="http://www.w3.org/2000/svg">
<circle cx="6" cy="6" r="6" fill="#E62728"/>
<path d="M24.56 12H17.296V0.655999H19.504V9.888H24.56V12ZM28.2171 12H26.0891V4.128H28.2171V12ZM25.8331 1.552C25.8331 1.18933 25.9611 0.879999 26.2171 0.624C26.4731 0.357333 26.7825 0.223999 27.1451 0.223999C27.5078 0.223999 27.8171 0.351999 28.0731 0.608C28.3291 0.864 28.4571 1.17867 28.4571 1.552C28.4571 1.904 28.3291 2.208 28.0731 2.464C27.8171 2.72 27.5078 2.848 27.1451 2.848C26.7825 2.848 26.4731 2.72 26.2171 2.464C25.9611 2.208 25.8331 1.904 25.8331 1.552ZM37.9194 4.128L34.8634 12H32.7354L29.5194 4.128H31.8554L33.8074 9.408L35.6794 4.128H37.9194ZM40.5318 7.168H44.0518C44.0304 6.73067 43.8704 6.36267 43.5718 6.064C43.2838 5.76533 42.8571 5.616 42.2918 5.616C41.7798 5.616 41.3638 5.776 41.0438 6.096C40.7238 6.416 40.5531 6.77333 40.5318 7.168ZM44.2598 9.216L46.0358 9.744C45.8224 10.4693 45.4011 11.0667 44.7718 11.536C44.1531 12.0053 43.3798 12.24 42.4518 12.24C41.3211 12.24 40.3611 11.8613 39.5718 11.104C38.7824 10.336 38.3878 9.312 38.3878 8.032C38.3878 6.816 38.7718 5.824 39.5398 5.056C40.3078 4.27733 41.2144 3.888 42.2598 3.888C43.4758 3.888 44.4251 4.25067 45.1078 4.976C45.8011 5.70133 46.1478 6.69867 46.1478 7.968C46.1478 8.05333 46.1424 8.14933 46.1318 8.256C46.1318 8.36267 46.1318 8.448 46.1318 8.512L46.1158 8.624H40.4838C40.5051 9.136 40.7078 9.56267 41.0918 9.904C41.4758 10.2453 41.9344 10.416 42.4678 10.416C43.3744 10.416 43.9718 10.016 44.2598 9.216Z" fill="#E62728"/>
</svg>
