<svg width="18" height="29" viewBox="0 0 18 29" fill="none" xmlns="http://www.w3.org/2000/svg">
<path d="M0 15.9014C0 16.1111 0.0744163 16.2938 0.226631 16.4392C0.378847 16.5847 0.571653 16.6625 0.811814 16.6625H8.16212L4.26879 27.2025C4.11996 27.6051 4.12672 27.9298 4.29585 28.1733C4.4616 28.4169 4.69499 28.5387 4.99604 28.5387C5.29709 28.5387 5.57784 28.3797 5.8383 28.0549L17.5487 13.3983C17.7584 13.1277 17.8599 12.874 17.8599 12.6372C17.8599 12.4275 17.7855 12.2449 17.6333 12.0994C17.4811 11.9506 17.2883 11.8762 17.0481 11.8762H9.69442L13.5911 1.33611C13.74 0.933586 13.7332 0.608861 13.5708 0.365316C13.4085 0.121772 13.1751 0 12.8706 0C12.5662 0 12.2821 0.15898 12.0182 0.483706L0.311195 15.1403C0.101477 15.4109 0 15.6646 0 15.9014Z" fill="#F8F8F8"/>
</svg>
