<svg width="430" height="266" viewBox="0 0 430 266" fill="none" xmlns="http://www.w3.org/2000/svg">
<g clip-path="url(#clip0_1115_20785)">
<rect width="430" height="266" fill="#4E13AF"/>
<g filter="url(#filter0_f_1115_20785)">
<circle cx="195" cy="98.6469" r="69.9706" fill="#8448E4"/>
</g>
<circle cx="44.5" cy="137.5" r="150.5" fill="#B98EFD"/>
<path d="M496 137.5C496 220.619 428.619 288 345.5 288C262.381 288 195 220.619 195 137.5C195 54.3811 262.381 -13 345.5 -13C428.619 -13 496 54.3811 496 137.5Z" fill="#B98EFD"/>
<path d="M59.1855 76.1055L59.8578 77.7803C59.8709 77.8707 59.8715 77.9629 59.896 78.0487C60.2203 79.1615 60.362 80.2981 60.3853 81.4526C60.4394 84.1933 59.8708 86.8172 59.01 89.3731C57.0566 95.1692 54.0482 100.366 50.5496 105.281C50.2336 105.723 49.8005 105.88 49.2758 105.761C46.7608 105.194 44.228 104.706 41.7385 104.029C37.8013 102.962 34.0003 101.5 30.4648 99.3642C28.4458 98.1445 26.592 96.7095 25.1235 94.8078C24.634 94.1739 24.2293 93.4709 23.7879 92.8L23.0861 91.0518C23.0664 90.9367 23.0523 90.8192 23.0212 90.7087C22.344 88.3786 22.2841 86.0442 22.944 83.7217C23.7657 80.8293 25.4093 78.5743 28.0582 77.2236C31.2376 75.6032 34.4352 75.8173 37.5813 77.5112C38.0965 77.7887 38.5783 78.1313 39.0441 78.4258C39.2864 77.5865 39.4571 76.7253 39.7806 75.9313C41.4162 71.9164 44.3248 69.572 48.6149 69.3741C52.4203 69.1976 55.4608 70.9418 57.8249 73.9779C58.3387 74.6394 58.7356 75.3971 59.1866 76.1084L59.1855 76.1055Z" fill="#FF005A"/>
<path d="M147.793 79C172.335 79 192.23 58.8528 192.23 34C192.23 9.14718 172.335 -11 147.793 -11C123.251 -11 103.355 9.14718 103.355 34C103.355 58.8528 123.251 79 147.793 79Z" fill="#FF7A00"/>
<path d="M190.296 20.8364C190.013 19.8977 189.691 18.9589 189.348 18.0405C188.2 21.612 184.834 24.163 180.219 27.5915C176.289 30.5099 171.412 34.1426 166.535 39.5507C154.786 52.5915 152.529 65.0609 155.652 78.2854C156.317 78.163 156.983 78.0201 157.627 77.8773C154.645 65.2242 156.801 53.3058 167.986 40.9181C172.742 35.6528 177.539 32.0813 181.388 29.2242C185.298 26.3262 188.542 23.8977 190.296 20.8364Z" fill="white"/>
<path d="M128.99 0.469499C134.512 6.65317 143.298 9.91848 153.093 9.4695C159.925 9.14297 167.14 4.55113 173.004 -3.04071C172.46 -3.42846 171.916 -3.79581 171.352 -4.14275C165.87 2.91848 159.24 7.18379 153.012 7.4695C143.802 7.89807 135.58 4.85725 130.461 -0.87744C129.091 -2.40805 128.022 -4.10193 127.216 -5.87744C126.632 -5.57132 126.047 -5.24479 125.483 -4.89785C126.37 -2.97948 127.519 -1.16315 128.99 0.489907V0.469499Z" fill="white"/>
<path d="M120.002 69.1222C120.747 56.8977 123.972 44.6732 129.01 36.1018C131.952 37.2447 135.217 37.9998 138.804 38.2446C148.055 38.8365 154.625 36.1834 156.358 31.163C157.426 28.061 156.257 24.612 153.415 22.5916C149.687 19.9385 142.714 19.5508 134.351 26.4283C132.093 28.2855 130.018 30.7344 128.164 33.612C121.533 30.6324 115.911 25.2038 111.316 17.3671C110.348 15.714 109.502 14.0406 108.756 12.4487C108.373 13.163 108.011 13.8773 107.668 14.612C111.457 22.2242 117.583 30.8365 127.136 35.2855C122.178 43.7957 118.954 55.51 118.047 67.4079C118.692 67.9793 119.337 68.5508 120.002 69.0814V69.1222ZM135.6 27.9998C143.097 21.8161 149.123 21.9998 152.267 24.2447C154.403 25.7549 155.27 28.2242 154.484 30.51C153.375 33.6936 148.72 36.8773 138.905 36.2651C135.802 36.061 132.839 35.4487 130.058 34.4283C131.731 31.8569 133.585 29.6936 135.6 28.0202V27.9998Z" fill="white"/>
<path d="M192.734 30.5713C192.512 30.3672 192.27 30.1632 192.049 29.9591C192.129 30.9183 192.19 31.8774 192.21 32.857C202.387 42.7958 206.599 52.0407 203.717 58.3264C201.097 64.0611 192.875 66.8366 180.582 66.1632C167.986 65.4693 152.75 61.1836 137.696 54.1019C122.621 47.0203 109.562 37.9999 100.896 28.7142C92.4523 19.653 89.248 11.5101 91.8679 5.7754C94.2258 0.632545 101.38 -2.16338 111.638 -2.16338C114.399 -2.16338 117.382 -1.95929 120.546 -1.55113C121.291 -2.14297 122.057 -2.69399 122.843 -3.24501C122.279 -3.32664 121.715 -3.42868 121.15 -3.51031C104.867 -5.67358 93.5204 -2.61235 90.0742 4.91826C87.0714 11.4489 90.4168 20.3876 99.4454 30.0815C108.272 39.5509 121.553 48.7346 136.85 55.8979C152.146 63.0815 167.623 67.4285 180.461 68.1428C181.69 68.204 182.879 68.2448 184.028 68.2448C195.213 68.2448 202.77 65.0611 205.491 59.1427C208.836 51.8366 204.181 41.4285 192.714 30.5509L192.734 30.5713Z" fill="#FFD77F"/>
<path d="M98.5147 274.612C133.041 274.612 161.029 246.269 161.029 211.306C161.029 176.343 133.041 148 98.5147 148C63.9888 148 36 176.343 36 211.306C36 246.269 63.9888 274.612 98.5147 274.612Z" fill="#140958"/>
<path d="M121.494 215.093C123.566 202.242 114.957 190.124 102.266 188.026C89.5757 185.928 77.6087 194.646 75.5374 207.497C73.466 220.349 82.0747 232.467 94.7653 234.565C107.456 236.662 119.423 227.945 121.494 215.093Z" fill="white"/>
<path d="M98.5146 239.586C83.117 239.586 70.5876 226.898 70.5876 211.306C70.5876 195.713 83.117 183.025 98.5146 183.025C113.912 183.025 126.442 195.713 126.442 211.306C126.442 226.898 113.912 239.586 98.5146 239.586ZM98.5146 183.317C83.273 183.317 70.8877 195.871 70.8877 211.294C70.8877 226.716 83.285 239.27 98.5146 239.27C113.744 239.27 126.142 226.716 126.142 211.294C126.142 195.871 113.744 183.317 98.5146 183.317Z" fill="#F7E7D8"/>
<path d="M107.238 219.718C111.943 214.953 111.943 207.227 107.238 202.462C102.532 197.697 94.9032 197.697 90.1976 202.462C85.4921 207.227 85.4921 214.953 90.1976 219.718C94.9032 224.483 102.532 224.483 107.238 219.718Z" fill="#140958"/>
<path d="M104.431 211.087C104.431 214.283 101.875 216.872 98.7187 216.872C95.5624 216.872 93.0061 214.283 93.0061 211.087C93.0061 207.891 95.5624 205.302 98.7187 205.302C101.875 205.302 104.431 207.891 104.431 211.087Z" fill="#FF005A"/>
<path d="M528.152 162.621H548.994L353.099 -34.8472H332.257L528.152 162.621Z" fill="#3A1575"/>
<path d="M507.298 162.621H528.129L332.234 -34.8472H311.404L507.298 162.621Z" fill="#8347E2"/>
<path d="M486.468 162.621H507.31L311.415 -34.8472H290.584L486.468 162.621Z" fill="#3A1575"/>
<path d="M444.806 162.621H465.637L269.742 -34.8472H248.912L444.806 162.621Z" fill="#4E13AF"/>
<path d="M465.637 162.621H486.479L290.585 -34.8472H269.742L465.637 162.621Z" fill="#8347E2"/>
<path d="M161.24 329.468H182.082L-13.8127 132H-34.6548L161.24 329.468Z" fill="#3A1575"/>
<path d="M140.386 329.468H161.217L-34.6777 132H-55.5083L140.386 329.468Z" fill="#8347E2"/>
<path d="M119.556 329.468H140.398L-55.497 132H-76.3276L119.556 329.468Z" fill="#3A1575"/>
<path d="M77.8947 329.468H98.7253L-97.1694 132H-118L77.8947 329.468Z" fill="#4E13AF"/>
<path d="M98.7253 329.468H119.567L-76.3273 132H-97.1694L98.7253 329.468Z" fill="#8347E2"/>
<path d="M279.113 213.857C285.076 217.082 325.838 242.154 325.838 242.154L352.538 194.323L333.287 181.419C333.287 181.419 301.386 157.627 298.549 159.059C295.713 160.49 291.513 164.005 292.919 166.598C294.323 169.166 316.382 188.858 316.843 189.276L316.809 189.268C316.369 189.193 312.613 188.603 311.38 190.078C310.068 191.648 305.897 197.504 308.954 201.543C308.954 201.543 302.619 205.902 306.537 213.01C298.16 209.755 289.65 206.36 280.913 204.202C278.037 203.494 275.38 204.489 274.845 207.7C274.367 210.585 276.876 212.653 279.113 213.857Z" fill="#FAB6CA"/>
<path d="M360.91 164.718L315.437 259.646C315.437 259.646 307.738 259.649 300.636 252.869L336.942 156.35L360.905 164.723L360.91 164.718Z" fill="#030912"/>
<path d="M348.433 179.787C334.141 178.508 323.735 165.725 325.189 151.236C326.643 136.747 339.407 126.039 353.699 127.318C367.991 128.598 378.397 141.38 376.943 155.869C375.489 170.358 362.725 181.066 348.433 179.787Z" fill="#030912"/>
<path d="M351.381 180.967C351.414 180.94 351.438 180.901 351.443 180.851C351.453 180.75 351.386 180.667 351.287 180.659C339.555 179.351 331.125 170.413 331.044 170.325C330.981 170.248 330.85 170.246 330.798 170.318C330.721 170.382 330.724 170.5 330.788 170.566C330.874 170.661 339.39 179.693 351.251 181.011C351.301 181.016 351.353 181 351.386 180.973L351.381 180.967Z" fill="#FAB6CA"/>
<path d="M324.564 207.853C324.446 207.481 324.425 207.093 324.492 206.723C324.515 206.593 324.554 206.459 324.597 206.331C324.63 206.247 324.664 206.164 324.707 206.081L328.177 199.209L328.364 198.849L329.896 195.814L329.959 195.688L330.071 195.464L332.417 190.825C332.99 189.681 334.373 189.215 335.492 189.783C336.037 190.055 336.442 190.528 336.624 191.114C336.812 191.695 336.764 192.326 336.482 192.875L333.715 198.357L333.626 198.542L333.621 198.546L333.508 198.77L333.502 198.775L331.952 201.844L331.218 203.298L328.902 207.894L328.777 208.137C328.74 208.205 328.703 208.273 328.656 208.34C328.529 208.547 328.365 208.731 328.184 208.882C327.97 209.062 327.719 209.207 327.438 209.304C327.303 209.353 327.169 209.381 327.027 209.399L327.007 209.397C326.563 209.465 326.113 209.389 325.697 209.184C325.682 209.177 325.668 209.171 325.659 209.16C325.139 208.885 324.749 208.418 324.564 207.853ZM327.961 208.608C328.054 208.53 328.143 208.447 328.217 208.357C328.309 208.243 328.392 208.118 328.456 207.982L328.467 207.972L331.556 201.834L331.562 201.829L331.939 201.08L333.287 198.42L333.393 198.211L333.469 198.055L336.167 192.715C336.405 192.248 336.447 191.723 336.291 191.226C336.13 190.734 335.793 190.333 335.329 190.104C334.631 189.746 333.8 189.87 333.224 190.353C333.026 190.518 332.859 190.732 332.729 190.979L330.37 195.648L330.262 195.868L330.188 196.003L328.719 198.922L328.536 199.287L325.023 206.242C324.984 206.33 324.945 206.418 324.916 206.507C324.867 206.639 324.839 206.774 324.824 206.915C324.792 207.192 324.82 207.464 324.903 207.735C325.064 208.228 325.401 208.629 325.86 208.863C326.563 209.215 327.39 209.086 327.961 208.608Z" fill="#FAB6CA"/>
<path d="M318.675 252.963C318.724 252.922 318.75 252.863 318.742 252.796C318.727 252.698 318.638 252.634 318.54 252.651C311.386 253.894 305.143 247.919 303.398 246.064C303.336 245.987 303.215 245.987 303.147 246.062C303.07 246.126 303.074 246.244 303.142 246.316C307.873 251.367 313.656 253.868 318.595 253.012C318.625 253.005 318.652 252.992 318.679 252.969L318.675 252.963Z" fill="#FAB6CA"/>
<path d="M324.976 241.066L325.908 242.004L337.873 254.099L344.763 261.071L346.589 262.913L349.209 265.558L380.278 297.016L416.779 265.558L384.117 233.143L377.425 226.991L375.723 225.425L373.054 222.97L364.83 215.405C364.83 215.405 362.413 183.251 360.053 181.219C359.558 180.794 358.252 180.087 356.477 179.237C355.853 178.937 355.166 178.627 354.439 178.302C352.712 177.533 350.734 176.705 348.716 175.919C348.595 175.873 348.47 175.821 348.349 175.775C343.722 173.988 338.962 172.434 336.534 172.232C336.379 172.224 336.239 172.211 336.104 172.204C335.561 172.206 335.18 172.294 334.999 172.492C334.806 172.709 334.605 172.96 334.415 173.248C334.345 173.344 334.28 173.445 334.214 173.556C334.184 173.599 334.155 173.642 334.13 173.691C332.892 175.752 331.971 179.062 333.741 181.707C334.002 182.106 334.335 182.492 334.732 182.853C338.375 186.164 344.832 190.896 344.832 190.896C344.832 190.896 337.819 203.441 337.52 213.616C337.507 213.747 337.509 213.874 337.506 214.006L324.982 241.062L324.976 241.066Z" fill="#FAB6CA"/>
<path d="M347.426 177.395C348.146 176.793 348.706 176.02 349 175.146C349.036 175.042 348.981 174.93 348.879 174.896C348.777 174.861 348.666 174.918 348.63 175.021C348.04 176.743 346.27 178.096 344.318 178.308C342.534 178.499 340.584 177.796 339.098 176.427C337.81 175.234 336.815 173.528 336.218 171.471C336.188 171.367 336.084 171.307 335.974 171.343C335.871 171.374 335.81 171.48 335.844 171.59C336.461 173.705 337.494 175.481 338.832 176.724C340.391 178.17 342.453 178.909 344.349 178.707C345.497 178.586 346.57 178.112 347.415 177.405L347.426 177.395Z" fill="#030912"/>
<path d="M306.526 213.024C310.136 216.011 321.431 220.458 325.48 219.782C329.525 219.101 329.765 209.715 329.765 209.715C332.35 209.555 334.194 201.411 333.749 198.839C333.299 196.271 316.87 189.281 316.87 189.281L316.832 189.268C316.392 189.193 312.635 188.608 311.401 190.084C310.087 191.655 305.909 197.516 308.961 201.551C308.961 201.551 302.621 205.917 306.531 213.02L306.526 213.024Z" fill="#FAB6CA"/>
<path d="M331.271 209.249C331.551 209.015 331.823 208.713 332.07 208.359C333.884 205.76 334.362 200.606 333.931 198.798C333.38 196.481 321.01 190.525 320.488 190.27C320.392 190.221 320.277 190.272 320.227 190.369C320.177 190.466 320.22 190.587 320.321 190.632C323.86 192.331 333.134 197.12 333.559 198.897C333.966 200.596 333.486 205.669 331.76 208.138C331.173 208.981 330.492 209.449 329.745 209.53C326.116 209.927 315.156 206.853 309.087 201.42C309.009 201.346 308.888 201.356 308.814 201.436C308.741 201.516 308.749 201.638 308.827 201.711C314.973 207.218 326.097 210.322 329.786 209.92C330.32 209.861 330.82 209.636 331.281 209.25L331.271 209.249Z" fill="#030912"/>
<path d="M327.101 219.708C329.455 217.737 329.944 210.083 329.969 209.729C329.975 209.623 329.894 209.524 329.784 209.524C329.679 209.52 329.58 209.603 329.579 209.715C329.574 209.811 328.991 219.002 326.258 219.74C323.309 220.529 310.917 217.103 306.402 212.418C306.329 212.341 306.219 212.341 306.125 212.419C306.047 212.493 306.05 212.621 306.122 212.698C310.72 217.462 323.344 220.933 326.36 220.125C326.629 220.057 326.879 219.912 327.11 219.719L327.101 219.708Z" fill="#030912"/>
<path d="M320.958 201.549C321.163 200.759 321.678 200.042 322.408 199.533C324.143 198.32 326.224 198.47 328.038 198.78C328.146 198.8 328.265 198.82 328.368 198.845C328.487 198.866 328.605 198.886 328.723 198.917C329.387 199.063 330.03 199.263 330.654 199.507C331.34 199.782 331.813 200.383 331.944 201.076C331.999 201.325 332.004 201.58 331.958 201.84L331.951 201.901C331.597 203.674 331.05 205.415 330.341 207.071C330.198 207.393 329.99 207.66 329.738 207.871C329.43 208.128 329.057 208.293 328.66 208.339C328.516 208.367 328.37 208.369 328.221 208.356C328.052 208.341 327.87 208.299 327.7 208.238C326.707 207.87 325.76 207.434 324.827 206.914C324.723 206.853 324.608 206.792 324.495 206.721C324.105 206.493 323.718 206.245 323.332 205.987C322.047 205.114 320.395 203.701 320.958 201.549ZM323.556 205.661C323.904 205.896 324.249 206.115 324.599 206.329C324.704 206.389 324.809 206.449 324.919 206.505C325.859 207.047 326.819 207.498 327.833 207.869C328.041 207.943 328.254 207.977 328.466 207.966C328.617 207.969 328.76 207.941 328.906 207.893C329.368 207.746 329.774 207.406 329.979 206.921L329.984 206.917C330.489 205.747 330.903 204.533 331.223 203.295C331.357 202.814 331.466 202.325 331.561 201.83L331.567 201.826C331.73 201.006 331.284 200.189 330.506 199.88C329.883 199.626 329.22 199.424 328.54 199.282C328.423 199.251 328.3 199.225 328.181 199.204C328.107 199.193 328.038 199.176 327.964 199.165C326.233 198.878 324.243 198.726 322.632 199.853C322.545 199.916 322.458 199.98 322.381 200.044C321.86 200.48 321.497 201.043 321.335 201.649C320.837 203.552 322.366 204.848 323.556 205.661Z" fill="#030912"/>
<path d="M317.104 212.565C317.309 211.775 317.829 211.054 318.558 210.544C320.289 209.336 322.37 209.486 324.179 209.79C325.088 209.943 325.973 210.19 326.799 210.523C327.752 210.898 328.294 211.902 328.092 212.911C327.744 214.68 327.197 216.421 326.482 218.081C326.344 218.399 326.135 218.676 325.888 218.882C325.329 219.351 324.558 219.516 323.841 219.249C322.309 218.685 320.885 217.947 319.483 216.998C318.194 216.12 316.546 214.712 317.104 212.565ZM319.702 216.667C321.076 217.603 322.481 218.329 323.984 218.88C324.817 219.188 325.764 218.775 326.125 217.927C326.833 216.292 327.367 214.58 327.712 212.842C327.875 212.022 327.431 211.195 326.652 210.886C325.85 210.57 324.995 210.326 324.109 210.181C322.38 209.884 320.388 209.742 318.777 210.869C318.129 211.319 317.662 211.959 317.476 212.659C316.983 214.568 318.511 215.864 319.702 216.667Z" fill="#030912"/>
<path d="M376.76 219.726L335.594 256.157L346.24 268.343L386.607 230.855L376.76 219.726Z" fill="#030912"/>
<path d="M376.68 229.401C375.725 230.2 374.32 230.074 373.542 229.12C372.763 228.166 372.906 226.745 373.861 225.945C374.816 225.146 376.221 225.272 376.999 226.226C377.778 227.18 377.635 228.601 376.68 229.401Z" fill="#FFFEFF"/>
<path d="M370.934 240.737C371.713 241.691 373.118 241.817 374.073 241.017C375.028 240.218 375.171 238.797 374.392 237.842C373.613 236.888 372.209 236.763 371.254 237.562C370.299 238.361 370.156 239.783 370.934 240.737Z" fill="#FFFEFF"/>
<path d="M361.269 239.862C362.048 240.816 363.453 240.942 364.408 240.142C365.363 239.343 365.506 237.922 364.727 236.967C363.949 236.013 362.544 235.888 361.589 236.687C360.634 237.486 360.491 238.908 361.269 239.862Z" fill="#FFFEFF"/>
<path d="M358.296 249.422C358.171 250.662 359.062 251.753 360.287 251.863C361.513 251.972 362.605 251.058 362.729 249.818C362.854 248.578 361.964 247.487 360.738 247.378C359.513 247.268 358.42 248.182 358.296 249.422Z" fill="#FFFEFF"/>
<path d="M347.482 249.74C347.357 250.98 348.248 252.071 349.473 252.181C350.699 252.29 351.791 251.376 351.915 250.136C352.04 248.896 351.15 247.805 349.924 247.695C348.699 247.586 347.606 248.5 347.482 249.74Z" fill="#FFFEFF"/>
<path d="M344.79 260.485C344.666 261.724 345.556 262.816 346.782 262.925C348.007 263.035 349.099 262.12 349.224 260.881C349.349 259.641 348.458 258.55 347.233 258.44C346.007 258.331 344.915 259.245 344.79 260.485Z" fill="#FFFEFF"/>
<path d="M336.598 257.213L339.597 260.593L335.136 260.911L336.598 257.213Z" fill="#FFFEFF"/>
<path d="M342.073 263.48L345.07 266.87L340.604 267.183L342.073 263.48Z" fill="#FFFEFF"/>
<path d="M377.944 220.957L380.853 224.421L381.766 219.991L377.944 220.957Z" fill="#FFFEFF"/>
<path d="M383.346 227.293L386.245 230.756L387.164 226.322L383.346 227.293Z" fill="#FFFEFF"/>
<path d="M276.61 232.264L220.706 211.274L236.424 203.152L181.501 166.365L259.176 202.113L241.226 207.86L276.61 232.264Z" fill="white"/>
<path d="M343.564 101.097L317.201 86.057L325.656 83.2444L300.957 60.352L337.098 84.5548L327.704 85.9953L343.564 101.097Z" fill="white"/>
<path d="M68.8985 48.3049C68.6641 47.2746 69.9486 41.7649 69.768 41.6607C69.5644 41.5481 66.0647 45.8093 65.137 46.1879C63.9546 46.6637 59.3601 44.9829 59.5393 45.6039C59.7228 46.2304 63.4356 49.1954 63.2821 49.9407C63.0116 51.2242 62.0588 56.1215 62.4219 56.5863C63.0062 56.6784 66.2269 53.023 67.0622 52.0605C67.5506 51.5004 71.9391 53.0974 72.5249 52.8949C73.1099 52.7019 69.2095 49.6027 68.9086 48.2967L68.8985 48.3049Z" fill="white"/>
<path d="M20.8807 48.2319C20.4935 48.2319 20.1235 47.9983 19.9686 47.6177C18.6436 44.3827 18.678 41.3726 20.0719 38.6566C22.1885 34.548 27.4887 31.3476 35.0002 29.635C40.6961 28.3375 43.5872 25.7513 43.5872 21.9541C43.5872 20.7172 43.2774 19.437 42.7698 18.1828C40.2745 17.8541 37.7449 16.8767 35.5766 15.5533C31.7564 13.2092 29.9581 10.2943 30.9906 8.11453C31.2487 7.5696 32.0919 6.34134 34.2 6.82573C37.2717 7.52635 41.7889 11.5744 44.0948 16.2712C46.4954 16.375 48.8013 15.7176 50.3328 13.6849C52.6818 10.5797 50.9437 7.91559 47.9151 3.81563C45.0327 -0.0853863 41.7631 -4.50538 43.6646 -10.318C43.8367 -10.837 44.3959 -11.1224 44.9122 -10.9494C45.4285 -10.7764 45.7124 -10.2142 45.5403 -9.69521C43.9571 -4.86867 46.7793 -1.05415 49.4982 2.63062C52.3376 6.46244 55.2717 10.4327 51.9074 14.8873C50.1522 17.2054 47.6397 18.2087 44.9208 18.2952C45.3252 19.5148 45.5575 20.7431 45.5575 21.9541C45.5575 25.2928 43.8023 29.6696 35.4304 31.5812C28.4954 33.1641 23.6684 36.0012 21.8271 39.5822C20.7086 41.7532 20.7 44.2011 21.7927 46.8652C21.9992 47.3755 21.7583 47.9551 21.2593 48.1627C21.1388 48.2146 21.0097 48.2405 20.8807 48.2405V48.2319ZM33.2879 8.70271C32.8921 8.70271 32.8061 8.88436 32.7717 8.97085C32.2382 10.0867 33.8902 12.1885 36.6005 13.8493C37.9686 14.6883 39.7497 15.4754 41.6082 15.9079C39.3883 12.2577 35.8176 9.23035 33.7612 8.76326C33.5719 8.72001 33.417 8.70271 33.2965 8.70271H33.2879Z" fill="#FFC854"/>
<path d="M202.918 270.985C200.777 270.985 198.832 270.221 197.336 267.839C195.857 265.473 195.808 262.866 196.625 260.384C195.416 260.342 194.247 260.143 193.176 259.736C190.218 258.624 186.925 255.569 188.003 247.366C188.894 240.567 187.979 235.246 185.421 232.39C183.868 230.655 181.694 229.816 178.973 229.924C178.45 229.941 178.017 229.534 178 229.003C177.984 228.48 178.385 228.031 178.908 228.007C182.209 227.907 184.865 228.936 186.81 231.103C189.744 234.391 190.831 240.252 189.867 247.615C189.131 253.203 190.471 256.681 193.83 257.943C194.925 258.358 196.159 258.507 197.442 258.458C198.554 256.316 200.262 254.348 202.15 252.829C205.492 250.156 208.671 249.5 210.248 251.169C210.649 251.584 211.458 252.754 210.33 254.506C208.696 257.055 203.613 259.786 198.693 260.301C197.802 262.434 197.63 264.742 198.913 266.809C200.891 269.972 203.825 269.291 208.451 267.922C212.864 266.618 217.857 265.132 222.376 268.802C222.785 269.134 222.85 269.731 222.523 270.147C222.196 270.562 221.608 270.628 221.199 270.296C217.448 267.249 213.141 268.528 208.974 269.756C206.922 270.362 204.83 270.985 202.902 270.985H202.918ZM207.928 252.165C206.792 252.165 205.051 252.962 203.318 254.34C202.117 255.295 200.842 256.639 199.837 258.175C203.809 257.387 207.666 255.17 208.761 253.468C209.186 252.804 208.99 252.597 208.908 252.505C208.688 252.273 208.352 252.165 207.928 252.165Z" fill="white"/>
</g>
<defs>
<filter id="filter0_f_1115_20785" x="90.6175" y="-5.7355" width="208.765" height="208.765" filterUnits="userSpaceOnUse" color-interpolation-filters="sRGB">
<feFlood flood-opacity="0" result="BackgroundImageFix"/>
<feBlend mode="normal" in="SourceGraphic" in2="BackgroundImageFix" result="shape"/>
<feGaussianBlur stdDeviation="17.2059" result="effect1_foregroundBlur_1115_20785"/>
</filter>
<clipPath id="clip0_1115_20785">
<rect width="430" height="266" fill="white"/>
</clipPath>
</defs>
</svg>
