<svg width="20" height="18" viewBox="0 0 20 18" fill="none" xmlns="http://www.w3.org/2000/svg">
<path fill-rule="evenodd" clip-rule="evenodd" d="M17.761 9.001C17.761 9.8145 18.429 10.4764 19.25 10.4764C19.664 10.4764 20 10.8093 20 11.2195V13.8958C20 16.159 18.142 18 15.858 18H4.143C1.859 18 0 16.159 0 13.8958V11.2195C0 10.8093 0.336 10.4764 0.75 10.4764C1.572 10.4764 2.24 9.8145 2.24 9.001C2.24 8.2083 1.599 7.6118 0.75 7.6118C0.551 7.6118 0.361 7.5335 0.22 7.3938C0.079 7.2541 0 7.0648 0 6.86866L0.00200009 4.10514C0.00200009 1.84201 1.86 0 4.144 0H15.856C18.14 0 19.999 1.84201 19.999 4.10514L20 6.78245C20 6.97864 19.921 7.1689 19.781 7.3076C19.64 7.4473 19.45 7.5256 19.25 7.5256C18.429 7.5256 17.761 8.1875 17.761 9.001ZM12.252 9.648L13.431 8.5105C13.636 8.3143 13.707 8.025 13.618 7.7575C13.53 7.4899 13.3 7.2997 13.022 7.261L11.393 7.0252L10.664 5.5627C10.539 5.31102 10.285 5.15446 10.002 5.15347H10C9.718 5.15347 9.464 5.31003 9.337 5.56171L8.608 7.0252L6.982 7.26C6.701 7.2997 6.471 7.4899 6.382 7.7575C6.294 8.025 6.365 8.3143 6.569 8.5105L7.748 9.648L7.47 11.2562C7.422 11.5336 7.535 11.8091 7.765 11.9746C7.895 12.0667 8.046 12.1143 8.199 12.1143C8.316 12.1143 8.434 12.0855 8.542 12.0291L10 11.2701L11.455 12.0271C11.707 12.1608 12.006 12.14 12.235 11.9736C12.466 11.8091 12.579 11.5336 12.531 11.2562L12.252 9.648Z" fill="url(#paint0_linear_2534_53519)"/>
<defs>
<linearGradient id="paint0_linear_2534_53519" x1="0.117532" y1="-0.176471" x2="19.8822" y2="18.1765" gradientUnits="userSpaceOnUse">
<stop stop-color="#FF4D00"/>
<stop offset="1" stop-color="#FF005A"/>
</linearGradient>
</defs>
</svg>
