<svg width="16" height="16" viewBox="0 0 16 16" fill="none" xmlns="http://www.w3.org/2000/svg">
<path d="M2.28544 9.14293L8.57115 9.1435C8.85938 9.14355 9.13695 9.25251 9.34824 9.44855C9.55954 9.64459 9.68896 9.91322 9.71058 10.2006L9.71401 10.2864V11.7144C9.71344 14.1144 7.26429 14.8572 5.42829 14.8572C3.62886 14.8572 1.24029 14.1441 1.14544 11.8561L1.14258 11.7144V10.2858C1.14263 9.99755 1.25159 9.71999 1.44763 9.50869C1.64367 9.29739 1.9123 9.16797 2.19972 9.14636L2.28544 9.14293ZM9.83972 9.1435L13.714 9.14293C14.0022 9.14298 14.2798 9.25194 14.4911 9.44798C14.7024 9.64401 14.8318 9.91265 14.8534 10.2001L14.8569 10.2858V11.4286C14.8563 13.5766 12.8969 14.2858 11.4283 14.2858C10.8237 14.2858 10.1374 14.1629 9.53743 13.8715C9.96715 13.3606 10.246 12.7104 10.2814 11.8921L10.2854 11.7144V10.2864C10.2854 9.88521 10.1431 9.52064 9.91172 9.22921L9.83972 9.14293H13.714L9.83972 9.1435ZM5.42829 1.71436C5.84106 1.71439 6.24977 1.79573 6.6311 1.95372C7.01243 2.11171 7.3589 2.34327 7.65075 2.63516C7.94259 2.92706 8.17408 3.27358 8.332 3.65493C8.48992 4.03629 8.57119 4.44502 8.57115 4.85778C8.57111 5.27055 8.48977 5.67926 8.33178 6.06059C8.17379 6.44192 7.94224 6.7884 7.65034 7.08024C7.35845 7.37208 7.01193 7.60357 6.63057 7.76149C6.24921 7.91942 5.84048 8.00068 5.42772 8.00064C4.59411 8.00057 3.79467 7.66934 3.20527 7.07983C2.61587 6.49033 2.28479 5.69083 2.28486 4.85721C2.28494 4.0236 2.61616 3.22416 3.20567 2.63476C3.79518 2.04536 4.59468 1.71428 5.42829 1.71436ZM11.714 2.85721C12.0517 2.85721 12.3861 2.92372 12.698 3.05295C13.01 3.18218 13.2935 3.37159 13.5323 3.61037C13.7711 3.84915 13.9605 4.13262 14.0897 4.4446C14.2189 4.75658 14.2854 5.09096 14.2854 5.42864C14.2854 5.76633 14.2189 6.1007 14.0897 6.41268C13.9605 6.72466 13.7711 7.00814 13.5323 7.24692C13.2935 7.48569 13.01 7.67511 12.698 7.80433C12.3861 7.93356 12.0517 8.00007 11.714 8.00007C11.032 8.00007 10.378 7.72915 9.89573 7.24692C9.4135 6.76468 9.14258 6.11063 9.14258 5.42864C9.14258 4.74666 9.4135 4.0926 9.89573 3.61037C10.378 3.12813 11.032 2.85721 11.714 2.85721Z" fill="white"/>
</svg>
